%TF.GenerationSoftware,Altium Limited,Altium Designer,21.8.1 (53)*%
G04 Layer_Color=65535*
%FSLAX43Y43*%
%MOMM*%
%TF.SameCoordinates,8EB70333-0A29-48E7-A932-0FA81BCCDE64*%
%TF.FilePolarity,Positive*%
%TF.FileFunction,Legend,Top*%
%TF.Part,Single*%
G01*
G75*
%TA.AperFunction,NonConductor*%
%ADD11C,0.254*%
%ADD42C,0.200*%
%ADD43C,0.100*%
%ADD44C,0.400*%
%ADD45C,0.127*%
G36*
X70027Y46321D02*
Y46315D01*
X70033D01*
Y46309D01*
X70039D01*
Y46297D01*
X70045D01*
Y46243D01*
X70039D01*
Y46231D01*
X70033D01*
Y46225D01*
X70027D01*
Y46219D01*
X70021D01*
Y46213D01*
X70009D01*
Y46207D01*
X69985D01*
Y46202D01*
X69967D01*
Y46207D01*
X69949D01*
Y46213D01*
X69937D01*
Y46219D01*
X69931D01*
Y46225D01*
X69919D01*
Y46231D01*
X69907D01*
Y46237D01*
X69901D01*
Y46243D01*
X69889D01*
Y46249D01*
X69877D01*
Y46255D01*
X69866D01*
Y46261D01*
X69860D01*
Y46267D01*
X69848D01*
Y46273D01*
X69836D01*
Y46279D01*
X69830D01*
Y46285D01*
X69818D01*
Y46291D01*
X69806D01*
Y46297D01*
X69794D01*
Y46303D01*
X69788D01*
Y46309D01*
X69776D01*
Y46315D01*
X69764D01*
Y46321D01*
X69758D01*
Y46327D01*
X69746D01*
Y46333D01*
X69734D01*
Y46339D01*
X69722D01*
Y46345D01*
X69716D01*
Y46351D01*
X69704D01*
Y46357D01*
X69693D01*
Y46363D01*
X69687D01*
Y46369D01*
X69675D01*
Y46375D01*
X69663D01*
Y46381D01*
X69651D01*
Y46386D01*
X69645D01*
Y46392D01*
X69633D01*
Y46398D01*
X69621D01*
Y46404D01*
X69615D01*
Y46410D01*
X69603D01*
Y46416D01*
X69591D01*
Y46422D01*
X69579D01*
Y46428D01*
X69573D01*
Y46434D01*
X69561D01*
Y46440D01*
X69549D01*
Y46446D01*
X69543D01*
Y46452D01*
X69531D01*
Y46458D01*
X69520D01*
Y46464D01*
X69508D01*
Y46470D01*
X69502D01*
Y46476D01*
X69490D01*
Y46482D01*
X69478D01*
Y46488D01*
X69472D01*
Y46494D01*
X69460D01*
Y46506D01*
X69472D01*
Y46512D01*
X69484D01*
Y46518D01*
X69490D01*
Y46524D01*
X69502D01*
Y46530D01*
X69514D01*
Y46536D01*
X69525D01*
Y46542D01*
X69531D01*
Y46548D01*
X69543D01*
Y46554D01*
X69555D01*
Y46560D01*
X69561D01*
Y46565D01*
X69573D01*
Y46571D01*
X69585D01*
Y46577D01*
X69597D01*
Y46583D01*
X69603D01*
Y46589D01*
X69615D01*
Y46595D01*
X69627D01*
Y46601D01*
X69633D01*
Y46607D01*
X69645D01*
Y46613D01*
X69657D01*
Y46619D01*
X69669D01*
Y46625D01*
X69675D01*
Y46631D01*
X69687D01*
Y46637D01*
X69699D01*
Y46643D01*
X69704D01*
Y46649D01*
X69716D01*
Y46655D01*
X69728D01*
Y46661D01*
X69740D01*
Y46667D01*
X69746D01*
Y46673D01*
X69758D01*
Y46679D01*
X69770D01*
Y46685D01*
X69776D01*
Y46691D01*
X69788D01*
Y46697D01*
X69800D01*
Y46703D01*
X69812D01*
Y46709D01*
X69818D01*
Y46715D01*
X69830D01*
Y46721D01*
X69842D01*
Y46727D01*
X69848D01*
Y46733D01*
X69860D01*
Y46738D01*
X69872D01*
Y46744D01*
X69883D01*
Y46750D01*
X69889D01*
Y46756D01*
X69901D01*
Y46762D01*
X69913D01*
Y46768D01*
X69919D01*
Y46774D01*
X69931D01*
Y46780D01*
X69943D01*
Y46786D01*
X69955D01*
Y46792D01*
X69973D01*
Y46798D01*
X69991D01*
Y46792D01*
X70015D01*
Y46786D01*
X70021D01*
Y46780D01*
X70027D01*
Y46774D01*
X70033D01*
Y46768D01*
X70039D01*
Y46756D01*
X70045D01*
Y46703D01*
X70039D01*
Y46691D01*
X70033D01*
Y46685D01*
X70027D01*
Y46679D01*
X70021D01*
Y46673D01*
X70009D01*
Y46667D01*
X70003D01*
Y46661D01*
X69991D01*
Y46655D01*
X69979D01*
Y46649D01*
X69967D01*
Y46643D01*
X69961D01*
Y46637D01*
X69949D01*
Y46631D01*
X69937D01*
Y46625D01*
X69931D01*
Y46619D01*
X69919D01*
Y46613D01*
X69907D01*
Y46607D01*
X69895D01*
Y46601D01*
X69889D01*
Y46595D01*
X69877D01*
Y46589D01*
X69866D01*
Y46583D01*
X69860D01*
Y46577D01*
X69848D01*
Y46571D01*
X69836D01*
Y46565D01*
X70647D01*
Y46434D01*
X69836D01*
Y46428D01*
X69848D01*
Y46422D01*
X69860D01*
Y46416D01*
X69872D01*
Y46410D01*
X69877D01*
Y46404D01*
X69889D01*
Y46398D01*
X69901D01*
Y46392D01*
X69907D01*
Y46386D01*
X69919D01*
Y46381D01*
X69931D01*
Y46375D01*
X69943D01*
Y46369D01*
X69949D01*
Y46363D01*
X69961D01*
Y46357D01*
X69973D01*
Y46351D01*
X69979D01*
Y46345D01*
X69991D01*
Y46339D01*
X70003D01*
Y46333D01*
X70015D01*
Y46327D01*
X70021D01*
Y46321D01*
X70027D01*
D02*
G37*
G36*
X70080Y49219D02*
Y49225D01*
X70074D01*
Y49231D01*
X70068D01*
Y49243D01*
X70062D01*
Y49296D01*
X70068D01*
Y49308D01*
X70074D01*
Y49314D01*
X70080D01*
Y49320D01*
X70086D01*
Y49326D01*
X70098D01*
Y49332D01*
X70122D01*
Y49338D01*
X70140D01*
Y49332D01*
X70158D01*
Y49326D01*
X70170D01*
Y49320D01*
X70176D01*
Y49314D01*
X70188D01*
Y49308D01*
X70200D01*
Y49302D01*
X70206D01*
Y49296D01*
X70218D01*
Y49290D01*
X70230D01*
Y49284D01*
X70241D01*
Y49278D01*
X70247D01*
Y49273D01*
X70259D01*
Y49267D01*
X70271D01*
Y49261D01*
X70277D01*
Y49255D01*
X70289D01*
Y49249D01*
X70301D01*
Y49243D01*
X70313D01*
Y49237D01*
X70319D01*
Y49231D01*
X70331D01*
Y49225D01*
X70343D01*
Y49219D01*
X70349D01*
Y49213D01*
X70361D01*
Y49207D01*
X70373D01*
Y49201D01*
X70385D01*
Y49195D01*
X70391D01*
Y49189D01*
X70403D01*
Y49183D01*
X70414D01*
Y49177D01*
X70420D01*
Y49171D01*
X70432D01*
Y49165D01*
X70444D01*
Y49159D01*
X70456D01*
Y49153D01*
X70462D01*
Y49147D01*
X70474D01*
Y49141D01*
X70486D01*
Y49135D01*
X70492D01*
Y49129D01*
X70504D01*
Y49123D01*
X70516D01*
Y49117D01*
X70528D01*
Y49111D01*
X70534D01*
Y49105D01*
X70546D01*
Y49099D01*
X70558D01*
Y49094D01*
X70564D01*
Y49088D01*
X70576D01*
Y49082D01*
X70588D01*
Y49076D01*
X70599D01*
Y49070D01*
X70605D01*
Y49064D01*
X70617D01*
Y49058D01*
X70629D01*
Y49052D01*
X70635D01*
Y49046D01*
X70647D01*
Y49034D01*
X70635D01*
Y49028D01*
X70623D01*
Y49022D01*
X70617D01*
Y49016D01*
X70605D01*
Y49010D01*
X70593D01*
Y49004D01*
X70582D01*
Y48998D01*
X70576D01*
Y48992D01*
X70564D01*
Y48986D01*
X70552D01*
Y48980D01*
X70546D01*
Y48974D01*
X70534D01*
Y48968D01*
X70522D01*
Y48962D01*
X70510D01*
Y48956D01*
X70504D01*
Y48950D01*
X70492D01*
Y48944D01*
X70480D01*
Y48938D01*
X70474D01*
Y48932D01*
X70462D01*
Y48926D01*
X70450D01*
Y48921D01*
X70438D01*
Y48915D01*
X70432D01*
Y48909D01*
X70420D01*
Y48903D01*
X70409D01*
Y48897D01*
X70403D01*
Y48891D01*
X70391D01*
Y48885D01*
X70379D01*
Y48879D01*
X70367D01*
Y48873D01*
X70361D01*
Y48867D01*
X70349D01*
Y48861D01*
X70337D01*
Y48855D01*
X70331D01*
Y48849D01*
X70319D01*
Y48843D01*
X70307D01*
Y48837D01*
X70295D01*
Y48831D01*
X70289D01*
Y48825D01*
X70277D01*
Y48819D01*
X70265D01*
Y48813D01*
X70259D01*
Y48807D01*
X70247D01*
Y48801D01*
X70235D01*
Y48795D01*
X70224D01*
Y48789D01*
X70218D01*
Y48783D01*
X70206D01*
Y48777D01*
X70194D01*
Y48771D01*
X70188D01*
Y48765D01*
X70176D01*
Y48759D01*
X70164D01*
Y48753D01*
X70152D01*
Y48747D01*
X70134D01*
Y48742D01*
X70116D01*
Y48747D01*
X70092D01*
Y48753D01*
X70086D01*
Y48759D01*
X70080D01*
Y48765D01*
X70074D01*
Y48771D01*
X70068D01*
Y48783D01*
X70062D01*
Y48837D01*
X70068D01*
Y48849D01*
X70074D01*
Y48855D01*
X70080D01*
Y48861D01*
X70086D01*
Y48867D01*
X70098D01*
Y48873D01*
X70104D01*
Y48879D01*
X70116D01*
Y48885D01*
X70128D01*
Y48891D01*
X70140D01*
Y48897D01*
X70146D01*
Y48903D01*
X70158D01*
Y48909D01*
X70170D01*
Y48915D01*
X70176D01*
Y48921D01*
X70188D01*
Y48926D01*
X70200D01*
Y48932D01*
X70212D01*
Y48938D01*
X70218D01*
Y48944D01*
X70230D01*
Y48950D01*
X70241D01*
Y48956D01*
X70247D01*
Y48962D01*
X70259D01*
Y48968D01*
X70271D01*
Y48974D01*
X69460D01*
Y49105D01*
X70271D01*
Y49111D01*
X70259D01*
Y49117D01*
X70247D01*
Y49123D01*
X70235D01*
Y49129D01*
X70230D01*
Y49135D01*
X70218D01*
Y49141D01*
X70206D01*
Y49147D01*
X70200D01*
Y49153D01*
X70188D01*
Y49159D01*
X70176D01*
Y49165D01*
X70164D01*
Y49171D01*
X70158D01*
Y49177D01*
X70146D01*
Y49183D01*
X70134D01*
Y49189D01*
X70128D01*
Y49195D01*
X70116D01*
Y49201D01*
X70104D01*
Y49207D01*
X70092D01*
Y49213D01*
X70086D01*
Y49219D01*
X70080D01*
D02*
G37*
D11*
X86243Y26357D02*
G03*
X86243Y26357I-99J0D01*
G01*
X84150Y17700D02*
X91150D01*
X85905Y28361D02*
Y33361D01*
X87644Y27866D02*
X90080D01*
X87588Y33856D02*
X90179D01*
X91895Y28361D02*
Y33361D01*
X33033Y21481D02*
X33414D01*
X30620Y19068D02*
X33033Y21481D01*
X30620Y13480D02*
Y19068D01*
X28070Y66693D02*
Y69360D01*
X27570Y66693D02*
X28070D01*
X27570Y69360D02*
X28070D01*
X47750Y41900D02*
Y47440D01*
X55830Y41900D02*
Y47440D01*
X47750D02*
X55830D01*
X47750Y41900D02*
X55830D01*
X66500Y96500D02*
X70540D01*
X66500Y88420D02*
Y96500D01*
Y88420D02*
X70540D01*
X72290Y66590D02*
X75290D01*
X72290Y65780D02*
X75290D01*
X72290Y45000D02*
X75290D01*
X72290Y42920D02*
X75290D01*
Y23640D02*
Y42920D01*
Y45000D02*
Y65780D01*
Y66590D02*
Y90950D01*
X72290Y66590D02*
Y88410D01*
Y45000D02*
Y65780D01*
Y23640D02*
Y42920D01*
X29120Y11980D02*
X61100D01*
X29120Y17520D02*
X68720D01*
X29120Y11980D02*
Y17520D01*
X24040Y17060D02*
X27040D01*
X24040Y37840D02*
X27040D01*
X24040Y39920D02*
X27040D01*
X24040Y60700D02*
X27040D01*
X24040Y17060D02*
Y37840D01*
X27040Y17060D02*
Y37840D01*
X24040Y39920D02*
Y60700D01*
X27040Y39920D02*
Y60700D01*
X24040Y83560D02*
X27040D01*
X24040Y62780D02*
X27040D01*
X24040D02*
Y83560D01*
X27040Y62780D02*
Y83560D01*
X46489Y88960D02*
X64178D01*
X46489Y95960D02*
X64178D01*
Y88960D02*
Y95960D01*
X46489Y88960D02*
Y95960D01*
X64529Y87140D02*
X65029D01*
X64529Y84600D02*
X65029D01*
Y87140D01*
Y85870D02*
X65418D01*
X67069Y87521D01*
X70498D01*
X72657Y89680D01*
X73800D01*
X73790Y88410D02*
Y90950D01*
X43764Y31000D02*
X60147D01*
X16324Y66532D02*
X16578Y66786D01*
Y67293D01*
X16324Y67547D01*
X16070D01*
X15816Y67293D01*
Y66786D01*
X15562Y66532D01*
X15308D01*
X15054Y66786D01*
Y67293D01*
X15308Y67547D01*
X16578Y66024D02*
X15054D01*
Y65262D01*
X15308Y65008D01*
X16324D01*
X16578Y65262D01*
Y66024D01*
X15054Y64500D02*
X16070D01*
X16578Y63993D01*
X16070Y63485D01*
X15054D01*
X15816D01*
Y64500D01*
X15054Y62977D02*
X16070Y61961D01*
X16324Y60438D02*
X16578Y60692D01*
Y61199D01*
X16324Y61453D01*
X16070D01*
X15816Y61199D01*
Y60692D01*
X15562Y60438D01*
X15308D01*
X15054Y60692D01*
Y61199D01*
X15308Y61453D01*
X16324Y58914D02*
X16578Y59168D01*
Y59676D01*
X16324Y59930D01*
X15308D01*
X15054Y59676D01*
Y59168D01*
X15308Y58914D01*
X16578Y58406D02*
X15054D01*
Y57391D01*
X16324Y81500D02*
X16578Y81246D01*
Y80739D01*
X16324Y80485D01*
X16070D01*
X15816Y80739D01*
Y80993D01*
Y80739D01*
X15562Y80485D01*
X15308D01*
X15054Y80739D01*
Y81246D01*
X15308Y81500D01*
X16578Y79977D02*
X15562D01*
X15054Y79469D01*
X15562Y78961D01*
X16578D01*
X16324Y78453D02*
X16578Y78199D01*
Y77692D01*
X16324Y77438D01*
X16070D01*
X15816Y77692D01*
Y77945D01*
Y77692D01*
X15562Y77438D01*
X15308D01*
X15054Y77692D01*
Y78199D01*
X15308Y78453D01*
X16578Y96723D02*
Y97739D01*
X15816D01*
X16070Y97231D01*
Y96977D01*
X15816Y96723D01*
X15308D01*
X15054Y96977D01*
Y97485D01*
X15308Y97739D01*
X16578Y96215D02*
X15562D01*
X15054Y95707D01*
X15562Y95199D01*
X16578D01*
X16324Y114485D02*
X16578Y114739D01*
Y115246D01*
X16324Y115500D01*
X15308D01*
X15054Y115246D01*
Y114739D01*
X15308Y114485D01*
X15816D01*
Y114993D01*
X15054Y113977D02*
X16578D01*
X15054Y112961D01*
X16578D01*
Y112453D02*
X15054D01*
Y111692D01*
X15308Y111438D01*
X16324D01*
X16578Y111692D01*
Y112453D01*
X85599Y23804D02*
Y25328D01*
X86361D01*
X86615Y25074D01*
Y24566D01*
X86361Y24312D01*
X85599D01*
X86107D02*
X86615Y23804D01*
X87884D02*
X87377D01*
X87123Y24058D01*
Y24566D01*
X87377Y24820D01*
X87884D01*
X88138Y24566D01*
Y24312D01*
X87123D01*
X88646Y23804D02*
X89408D01*
X89662Y24058D01*
X89408Y24312D01*
X88900D01*
X88646Y24566D01*
X88900Y24820D01*
X89662D01*
X90931Y23804D02*
X90424D01*
X90170Y24058D01*
Y24566D01*
X90424Y24820D01*
X90931D01*
X91185Y24566D01*
Y24312D01*
X90170D01*
X91947Y25074D02*
Y24820D01*
X91693D01*
X92201D01*
X91947D01*
Y24058D01*
X92201Y23804D01*
X82064Y9862D02*
Y8338D01*
X82826D01*
X83079Y8592D01*
Y8846D01*
X82826Y9100D01*
X82064D01*
X82826D01*
X83079Y9354D01*
Y9608D01*
X82826Y9862D01*
X82064D01*
X83587Y9354D02*
Y8338D01*
Y8846D01*
X83841Y9100D01*
X84095Y9354D01*
X84349D01*
X85873Y8338D02*
X85365D01*
X85111Y8592D01*
Y9100D01*
X85365Y9354D01*
X85873D01*
X86127Y9100D01*
Y8846D01*
X85111D01*
X86888Y9354D02*
X87396D01*
X87650Y9100D01*
Y8338D01*
X86888D01*
X86634Y8592D01*
X86888Y8846D01*
X87650D01*
X88158Y8338D02*
Y9862D01*
Y8846D02*
X88920Y9354D01*
X88158Y8846D02*
X88920Y8338D01*
X89935D02*
X90443D01*
X90697Y8592D01*
Y9100D01*
X90443Y9354D01*
X89935D01*
X89681Y9100D01*
Y8592D01*
X89935Y8338D01*
X91205Y9354D02*
Y8592D01*
X91459Y8338D01*
X92221D01*
Y9354D01*
X92982Y9608D02*
Y9354D01*
X92728D01*
X93236D01*
X92982D01*
Y8592D01*
X93236Y8338D01*
X88158Y10650D02*
X87904Y10904D01*
X87650Y10650D01*
X87396D01*
X87142Y10904D01*
Y11158D01*
X87396Y11412D01*
X87142Y11666D01*
Y11920D01*
X87396Y12174D01*
X87650D01*
X87904Y11920D01*
Y11666D01*
X87650Y11412D01*
X87904Y11158D01*
Y10904D01*
X88158Y11412D02*
X87904Y11158D01*
X87396Y11412D02*
X87650D01*
X82318Y14232D02*
X82064Y14486D01*
X81556D01*
X81302Y14232D01*
Y13217D01*
X81556Y12963D01*
X82064D01*
X82318Y13217D01*
X83079Y12963D02*
X83587D01*
X83841Y13217D01*
Y13724D01*
X83587Y13978D01*
X83079D01*
X82826Y13724D01*
Y13217D01*
X83079Y12963D01*
X84349D02*
Y13978D01*
X85111D01*
X85365Y13724D01*
Y12963D01*
X85873D02*
Y13978D01*
X86634D01*
X86888Y13724D01*
Y12963D01*
X88158D02*
X87650D01*
X87396Y13217D01*
Y13724D01*
X87650Y13978D01*
X88158D01*
X88412Y13724D01*
Y13470D01*
X87396D01*
X89935Y13978D02*
X89174D01*
X88920Y13724D01*
Y13217D01*
X89174Y12963D01*
X89935D01*
X90697Y14232D02*
Y13978D01*
X90443D01*
X90951D01*
X90697D01*
Y13217D01*
X90951Y12963D01*
X91967D02*
X92474D01*
X92728Y13217D01*
Y13724D01*
X92474Y13978D01*
X91967D01*
X91713Y13724D01*
Y13217D01*
X91967Y12963D01*
X93236Y13978D02*
Y12963D01*
Y13470D01*
X93490Y13724D01*
X93744Y13978D01*
X93998D01*
X78890Y15275D02*
Y16291D01*
X79398Y16798D01*
X79906Y16291D01*
Y15275D01*
Y16037D01*
X78890D01*
X80413Y16291D02*
Y15275D01*
Y15783D01*
X80667Y16037D01*
X80921Y16291D01*
X81175D01*
X82953Y16798D02*
Y15275D01*
X82191D01*
X81937Y15529D01*
Y16037D01*
X82191Y16291D01*
X82953D01*
X83460D02*
Y15529D01*
X83714Y15275D01*
X84476D01*
Y16291D01*
X84984Y15275D02*
X85492D01*
X85238D01*
Y16291D01*
X84984D01*
X86253Y15275D02*
Y16291D01*
X87015D01*
X87269Y16037D01*
Y15275D01*
X88031D02*
X88539D01*
X88793Y15529D01*
Y16037D01*
X88539Y16291D01*
X88031D01*
X87777Y16037D01*
Y15529D01*
X88031Y15275D01*
X90824D02*
Y16798D01*
X91332Y16291D01*
X91840Y16798D01*
Y15275D01*
X93109D02*
X92601D01*
X92347Y15529D01*
Y16037D01*
X92601Y16291D01*
X93109D01*
X93363Y16037D01*
Y15783D01*
X92347D01*
X94379Y14767D02*
X94633D01*
X94887Y15021D01*
Y16291D01*
X94125D01*
X93871Y16037D01*
Y15529D01*
X94125Y15275D01*
X94887D01*
X95648Y16291D02*
X96156D01*
X96410Y16037D01*
Y15275D01*
X95648D01*
X95395Y15529D01*
X95648Y15783D01*
X96410D01*
X84857Y18188D02*
Y19712D01*
X85619D01*
X85873Y19458D01*
Y18950D01*
X85619Y18696D01*
X84857D01*
X85365D02*
X85873Y18188D01*
X86380D02*
Y19204D01*
X86888Y19712D01*
X87396Y19204D01*
Y18188D01*
Y18950D01*
X86380D01*
X87904Y19712D02*
Y18188D01*
X88666D01*
X88920Y18442D01*
Y19458D01*
X88666Y19712D01*
X87904D01*
X89427Y18188D02*
Y19712D01*
X89935Y19204D01*
X90443Y19712D01*
Y18188D01*
X48097Y96474D02*
Y97490D01*
X48605Y97998D01*
X49113Y97490D01*
Y96474D01*
Y97236D01*
X48097D01*
X49620Y97998D02*
X50636D01*
X50128D01*
Y96474D01*
X51144D02*
Y97998D01*
X51652Y97490D01*
X52160Y97998D01*
Y96474D01*
X53683Y97998D02*
X52667D01*
Y96474D01*
X53683D01*
X52667Y97236D02*
X53175D01*
X55207Y97744D02*
X54953Y97998D01*
X54445D01*
X54191Y97744D01*
Y96728D01*
X54445Y96474D01*
X54953D01*
X55207Y96728D01*
Y97236D01*
X54699D01*
X55714Y96474D02*
Y97490D01*
X56222Y97998D01*
X56730Y97490D01*
Y96474D01*
Y97236D01*
X55714D01*
X57238Y96474D02*
X57746D01*
X57492D01*
Y97998D01*
X57238Y97744D01*
X59523Y97998D02*
X59015Y97744D01*
X58507Y97236D01*
Y96728D01*
X58761Y96474D01*
X59269D01*
X59523Y96728D01*
Y96982D01*
X59269Y97236D01*
X58507D01*
X60031Y97998D02*
Y96728D01*
X60285Y96474D01*
X60793D01*
X61047Y96728D01*
Y97998D01*
X62570Y96474D02*
X61554D01*
X62570Y97490D01*
Y97744D01*
X62316Y97998D01*
X61808D01*
X61554Y97744D01*
X52667Y88446D02*
X53175D01*
X52921D01*
Y86922D01*
X52667D01*
X53175D01*
X54953Y88192D02*
X54699Y88446D01*
X54191D01*
X53937Y88192D01*
Y87176D01*
X54191Y86922D01*
X54699D01*
X54953Y87176D01*
X56476Y88192D02*
X56222Y88446D01*
X55714D01*
X55460Y88192D01*
Y87938D01*
X55714Y87684D01*
X56222D01*
X56476Y87430D01*
Y87176D01*
X56222Y86922D01*
X55714D01*
X55460Y87176D01*
X56984Y86922D02*
Y88446D01*
X57746D01*
X58000Y88192D01*
Y87684D01*
X57746Y87430D01*
X56984D01*
X41904Y45432D02*
X42412D01*
X42158D01*
Y43908D01*
X41904D01*
X42412D01*
X44189Y45178D02*
X43935Y45432D01*
X43427D01*
X43173Y45178D01*
Y44162D01*
X43427Y43908D01*
X43935D01*
X44189Y44162D01*
X45712Y45178D02*
X45459Y45432D01*
X44951D01*
X44697Y45178D01*
Y44924D01*
X44951Y44670D01*
X45459D01*
X45712Y44416D01*
Y44162D01*
X45459Y43908D01*
X44951D01*
X44697Y44162D01*
X46220Y43908D02*
Y45432D01*
X46982D01*
X47236Y45178D01*
Y44670D01*
X46982Y44416D01*
X46220D01*
X41376Y53485D02*
Y54501D01*
X41884Y55009D01*
X42392Y54501D01*
Y53485D01*
Y54247D01*
X41376D01*
X42900Y55009D02*
X43916D01*
X43408D01*
Y53485D01*
X44423D02*
Y55009D01*
X44931Y54501D01*
X45439Y55009D01*
Y53485D01*
X46963Y55009D02*
X45947D01*
Y53485D01*
X46963D01*
X45947Y54247D02*
X46455D01*
X48486Y54755D02*
X48232Y55009D01*
X47724D01*
X47470Y54755D01*
Y53739D01*
X47724Y53485D01*
X48232D01*
X48486Y53739D01*
Y54247D01*
X47978D01*
X48994Y53485D02*
Y54501D01*
X49502Y55009D01*
X50010Y54501D01*
Y53485D01*
Y54247D01*
X48994D01*
X51533Y53485D02*
X50517D01*
X51533Y54501D01*
Y54755D01*
X51279Y55009D01*
X50771D01*
X50517Y54755D01*
X53057Y55009D02*
X52041D01*
Y54247D01*
X52549Y54501D01*
X52803D01*
X53057Y54247D01*
Y53739D01*
X52803Y53485D01*
X52295D01*
X52041Y53739D01*
X54580Y55009D02*
X54072Y54755D01*
X53564Y54247D01*
Y53739D01*
X53818Y53485D01*
X54326D01*
X54580Y53739D01*
Y53993D01*
X54326Y54247D01*
X53564D01*
X55088Y54755D02*
X55342Y55009D01*
X55850D01*
X56104Y54755D01*
Y53739D01*
X55850Y53485D01*
X55342D01*
X55088Y53739D01*
Y54755D01*
X47385Y33024D02*
X47132Y33278D01*
X46624D01*
X46370Y33024D01*
Y32770D01*
X46624Y32516D01*
X47132D01*
X47385Y32262D01*
Y32008D01*
X47132Y31754D01*
X46624D01*
X46370Y32008D01*
X47893Y31754D02*
Y33278D01*
X48655D01*
X48909Y33024D01*
Y32516D01*
X48655Y32262D01*
X47893D01*
X49417Y33278D02*
X49925D01*
X49671D01*
Y31754D01*
X49417D01*
X49925D01*
X52210D02*
Y33278D01*
X52972D01*
X53226Y33024D01*
Y32516D01*
X52972Y32262D01*
X52210D01*
X53733Y31754D02*
X54241D01*
X53987D01*
Y32770D01*
X53733D01*
X55003Y31754D02*
Y32770D01*
X55765D01*
X56019Y32516D01*
Y31754D01*
X56527D02*
X57288D01*
X57542Y32008D01*
X57288Y32262D01*
X56780D01*
X56527Y32516D01*
X56780Y32770D01*
X57542D01*
X23273Y110744D02*
Y111760D01*
X23781Y112268D01*
X24289Y111760D01*
Y110744D01*
Y111506D01*
X23273D01*
X24797Y110744D02*
X25305D01*
X25051D01*
Y112268D01*
X24797Y112014D01*
D42*
X85758Y108730D02*
G03*
X85758Y108730I-100J0D01*
G01*
X18270Y19830D02*
Y60470D01*
X20810D01*
Y58565D02*
Y60470D01*
Y19830D02*
Y58565D01*
X18270Y19830D02*
X20810D01*
X11128Y8984D02*
Y49624D01*
X8588Y8984D02*
X11128D01*
X8588D02*
Y10889D01*
Y49624D01*
X11128D01*
X13668Y8984D02*
Y49624D01*
X11128Y8984D02*
X13668D01*
X11128D02*
Y10889D01*
Y49624D01*
X13668D01*
X78520Y22370D02*
X81060D01*
X78520D02*
Y42690D01*
X81060D01*
Y22370D02*
Y42690D01*
X48631Y29800D02*
X47965D01*
Y29300D01*
X48298Y29467D01*
X48465D01*
X48631Y29300D01*
Y28967D01*
X48465Y28800D01*
X48132D01*
X47965Y28967D01*
X48965Y29633D02*
X49131Y29800D01*
X49465D01*
X49631Y29633D01*
Y28967D01*
X49465Y28800D01*
X49131D01*
X48965Y28967D01*
Y29633D01*
X49964Y29467D02*
X50131D01*
Y29300D01*
X49964D01*
Y29467D01*
Y28967D02*
X50131D01*
Y28800D01*
X49964D01*
Y28967D01*
X51797Y28800D02*
Y29800D01*
X52130Y29467D01*
X52464Y29800D01*
Y28800D01*
X52797Y29800D02*
X53130D01*
X52963D01*
Y28800D01*
X52797D01*
X53130D01*
X54296Y29633D02*
X54130Y29800D01*
X53796D01*
X53630Y29633D01*
Y29467D01*
X53796Y29300D01*
X54130D01*
X54296Y29134D01*
Y28967D01*
X54130Y28800D01*
X53796D01*
X53630Y28967D01*
X55129Y29800D02*
X54796D01*
X54630Y29633D01*
Y28967D01*
X54796Y28800D01*
X55129D01*
X55296Y28967D01*
Y29633D01*
X55129Y29800D01*
X48631Y28120D02*
X47965D01*
Y27621D01*
X48298Y27787D01*
X48465D01*
X48631Y27621D01*
Y27287D01*
X48465Y27121D01*
X48132D01*
X47965Y27287D01*
X48965Y27121D02*
X49298D01*
X49131D01*
Y28120D01*
X48965Y27954D01*
X49798Y27787D02*
X49964D01*
Y27621D01*
X49798D01*
Y27787D01*
Y27287D02*
X49964D01*
Y27121D01*
X49798D01*
Y27287D01*
X51630Y27121D02*
Y28120D01*
X51964Y27787D01*
X52297Y28120D01*
Y27121D01*
X53130Y28120D02*
X52797D01*
X52630Y27954D01*
Y27287D01*
X52797Y27121D01*
X53130D01*
X53297Y27287D01*
Y27954D01*
X53130Y28120D01*
X54296Y27954D02*
X54130Y28120D01*
X53796D01*
X53630Y27954D01*
Y27787D01*
X53796Y27621D01*
X54130D01*
X54296Y27454D01*
Y27287D01*
X54130Y27121D01*
X53796D01*
X53630Y27287D01*
X54630Y28120D02*
X54963D01*
X54796D01*
Y27121D01*
X54630D01*
X54963D01*
X48631Y26441D02*
X47965D01*
Y25941D01*
X48298Y26108D01*
X48465D01*
X48631Y25941D01*
Y25608D01*
X48465Y25441D01*
X48132D01*
X47965Y25608D01*
X49631Y25441D02*
X48965D01*
X49631Y26108D01*
Y26274D01*
X49465Y26441D01*
X49131D01*
X48965Y26274D01*
X49964Y26108D02*
X50131D01*
Y25941D01*
X49964D01*
Y26108D01*
Y25608D02*
X50131D01*
Y25441D01*
X49964D01*
Y25608D01*
X52464Y26274D02*
X52297Y26441D01*
X51964D01*
X51797Y26274D01*
Y26108D01*
X51964Y25941D01*
X52297D01*
X52464Y25774D01*
Y25608D01*
X52297Y25441D01*
X51964D01*
X51797Y25608D01*
X53463Y26274D02*
X53297Y26441D01*
X52963D01*
X52797Y26274D01*
Y25608D01*
X52963Y25441D01*
X53297D01*
X53463Y25608D01*
X53796Y26441D02*
Y25441D01*
Y25774D01*
X54463Y26441D01*
X53963Y25941D01*
X54463Y25441D01*
X48631Y24761D02*
X47965D01*
Y24261D01*
X48298Y24428D01*
X48465D01*
X48631Y24261D01*
Y23928D01*
X48465Y23761D01*
X48132D01*
X47965Y23928D01*
X48965Y24595D02*
X49131Y24761D01*
X49465D01*
X49631Y24595D01*
Y24428D01*
X49465Y24261D01*
X49298D01*
X49465D01*
X49631Y24095D01*
Y23928D01*
X49465Y23761D01*
X49131D01*
X48965Y23928D01*
X49964Y24428D02*
X50131D01*
Y24261D01*
X49964D01*
Y24428D01*
Y23928D02*
X50131D01*
Y23761D01*
X49964D01*
Y23928D01*
X52464Y24595D02*
X52297Y24761D01*
X51964D01*
X51797Y24595D01*
Y24428D01*
X51964Y24261D01*
X52297D01*
X52464Y24095D01*
Y23928D01*
X52297Y23761D01*
X51964D01*
X51797Y23928D01*
X53463Y24595D02*
X53297Y24761D01*
X52963D01*
X52797Y24595D01*
Y24428D01*
X52963Y24261D01*
X53297D01*
X53463Y24095D01*
Y23928D01*
X53297Y23761D01*
X52963D01*
X52797Y23928D01*
X95900Y49797D02*
X94900D01*
X95233Y50130D01*
X94900Y50463D01*
X95900D01*
Y50963D02*
Y51296D01*
X95733Y51463D01*
X95400D01*
X95233Y51296D01*
Y50963D01*
X95400Y50796D01*
X95733D01*
X95900Y50963D01*
X95233Y51796D02*
X95733D01*
X95900Y51962D01*
Y52462D01*
X95233D01*
X95900Y52796D02*
Y53295D01*
X95733Y53462D01*
X95567Y53295D01*
Y52962D01*
X95400Y52796D01*
X95233Y52962D01*
Y53462D01*
X95900Y54295D02*
Y53962D01*
X95733Y53795D01*
X95400D01*
X95233Y53962D01*
Y54295D01*
X95400Y54462D01*
X95567D01*
Y53795D01*
X95233Y54795D02*
X95900D01*
X95567D01*
X95400Y54961D01*
X95233Y55128D01*
Y55295D01*
X95900Y55961D02*
X94900D01*
Y56294D02*
X95900D01*
X95233Y55795D02*
Y56294D01*
Y56461D01*
X95567Y55795D02*
Y56461D01*
X95233Y56794D02*
Y56961D01*
X95400D01*
Y56794D01*
X95233D01*
X95733D02*
Y56961D01*
X95900D01*
Y56794D01*
X95733D01*
X94900Y59293D02*
Y58627D01*
X95400D01*
X95233Y58960D01*
Y59127D01*
X95400Y59293D01*
X95733D01*
X95900Y59127D01*
Y58794D01*
X95733Y58627D01*
X95067Y59627D02*
X94900Y59793D01*
Y60126D01*
X95067Y60293D01*
X95233D01*
X95400Y60126D01*
Y59960D01*
Y60126D01*
X95567Y60293D01*
X95733D01*
X95900Y60126D01*
Y59793D01*
X95733Y59627D01*
X95067Y60626D02*
X94900Y60793D01*
Y61126D01*
X95067Y61293D01*
X95233D01*
X95400Y61126D01*
X95567Y61293D01*
X95733D01*
X95900Y61126D01*
Y60793D01*
X95733Y60626D01*
X95567D01*
X95400Y60793D01*
X95233Y60626D01*
X95067D01*
X95400Y60793D02*
Y61126D01*
Y61626D02*
Y62292D01*
X94900Y62626D02*
Y63292D01*
X95067D01*
X95733Y62626D01*
X95900D01*
X95067Y63625D02*
X94900Y63792D01*
Y64125D01*
X95067Y64292D01*
X95733D01*
X95900Y64125D01*
Y63792D01*
X95733Y63625D01*
X95067D01*
X95900Y65292D02*
Y64625D01*
X95233Y65292D01*
X95067D01*
X94900Y65125D01*
Y64792D01*
X95067Y64625D01*
X95900Y66125D02*
X94900D01*
X95400Y65625D01*
Y66291D01*
X94900Y67291D02*
X95067Y66958D01*
X95400Y66624D01*
X95733D01*
X95900Y66791D01*
Y67124D01*
X95733Y67291D01*
X95567D01*
X95400Y67124D01*
Y66624D01*
Y67624D02*
Y68291D01*
X95900Y69124D02*
X94900D01*
X95400Y68624D01*
Y69290D01*
X95067Y69623D02*
X94900Y69790D01*
Y70123D01*
X95067Y70290D01*
X95733D01*
X95900Y70123D01*
Y69790D01*
X95733Y69623D01*
X95067D01*
Y70623D02*
X94900Y70790D01*
Y71123D01*
X95067Y71290D01*
X95733D01*
X95900Y71123D01*
Y70790D01*
X95733Y70623D01*
X95067D01*
X95900Y71623D02*
Y71956D01*
Y71789D01*
X94900D01*
X95067Y71623D01*
X93800Y49797D02*
X92800D01*
X93133Y50130D01*
X92800Y50463D01*
X93800D01*
Y50963D02*
Y51296D01*
X93633Y51463D01*
X93300D01*
X93133Y51296D01*
Y50963D01*
X93300Y50796D01*
X93633D01*
X93800Y50963D01*
Y51796D02*
Y52129D01*
Y51962D01*
X92800D01*
Y51796D01*
X93800Y53129D02*
Y52796D01*
X93633Y52629D01*
X93300D01*
X93133Y52796D01*
Y53129D01*
X93300Y53295D01*
X93467D01*
Y52629D01*
X93133Y53629D02*
X93800Y54295D01*
X93467Y53962D01*
X93133Y54295D01*
X93800Y53629D01*
Y56128D02*
X92800D01*
X93300Y55628D01*
Y56294D01*
X92967Y56628D02*
X92800Y56794D01*
Y57127D01*
X92967Y57294D01*
X93633D01*
X93800Y57127D01*
Y56794D01*
X93633Y56628D01*
X92967D01*
X93300Y57627D02*
Y58294D01*
X93800Y58627D02*
X92800D01*
Y59127D01*
X92967Y59293D01*
X93300D01*
X93467Y59127D01*
Y58627D01*
X93800Y59627D02*
Y59960D01*
Y59793D01*
X93133D01*
Y59627D01*
X93800Y60460D02*
X93133D01*
Y60960D01*
X93300Y61126D01*
X93800D01*
X92967Y63126D02*
X92800Y62959D01*
Y62626D01*
X92967Y62459D01*
X93633D01*
X93800Y62626D01*
Y62959D01*
X93633Y63126D01*
X93800Y63625D02*
Y63959D01*
X93633Y64125D01*
X93300D01*
X93133Y63959D01*
Y63625D01*
X93300Y63459D01*
X93633D01*
X93800Y63625D01*
Y64458D02*
X93133D01*
Y64958D01*
X93300Y65125D01*
X93800D01*
Y65458D02*
X93133D01*
Y65958D01*
X93300Y66125D01*
X93800D01*
Y66958D02*
Y66624D01*
X93633Y66458D01*
X93300D01*
X93133Y66624D01*
Y66958D01*
X93300Y67124D01*
X93467D01*
Y66458D01*
X93133Y68124D02*
Y67624D01*
X93300Y67457D01*
X93633D01*
X93800Y67624D01*
Y68124D01*
X92967Y68624D02*
X93133D01*
Y68457D01*
Y68790D01*
Y68624D01*
X93633D01*
X93800Y68790D01*
Y69457D02*
Y69790D01*
X93633Y69957D01*
X93300D01*
X93133Y69790D01*
Y69457D01*
X93300Y69290D01*
X93633D01*
X93800Y69457D01*
X93133Y70290D02*
X93800D01*
X93467D01*
X93300Y70457D01*
X93133Y70623D01*
Y70790D01*
X6758Y48687D02*
X6592Y48854D01*
X6258D01*
X6092Y48687D01*
Y48521D01*
X6258Y48354D01*
X6592D01*
X6758Y48187D01*
Y48021D01*
X6592Y47854D01*
X6258D01*
X6092Y48021D01*
X7758Y48687D02*
X7591Y48854D01*
X7258D01*
X7092Y48687D01*
Y48521D01*
X7258Y48354D01*
X7591D01*
X7758Y48187D01*
Y48021D01*
X7591Y47854D01*
X7258D01*
X7092Y48021D01*
X6592Y42774D02*
Y43774D01*
X6092Y43274D01*
X6758D01*
X7092Y42941D02*
X7258Y42774D01*
X7591D01*
X7758Y42941D01*
Y43607D01*
X7591Y43774D01*
X7258D01*
X7092Y43607D01*
Y43441D01*
X7258Y43274D01*
X7758D01*
X6592Y40234D02*
Y41234D01*
X6092Y40734D01*
X6758D01*
X7092Y41234D02*
X7758D01*
Y41067D01*
X7092Y40401D01*
Y40234D01*
X6592Y37694D02*
Y38694D01*
X6092Y38194D01*
X6758D01*
X7758Y38694D02*
X7092D01*
Y38194D01*
X7425Y38361D01*
X7591D01*
X7758Y38194D01*
Y37861D01*
X7591Y37694D01*
X7258D01*
X7092Y37861D01*
X15164Y9754D02*
X14498D01*
X15164Y10421D01*
Y10587D01*
X14998Y10754D01*
X14665D01*
X14498Y10587D01*
X16164Y9754D02*
X15498D01*
X16164Y10421D01*
Y10587D01*
X15998Y10754D01*
X15664D01*
X15498Y10587D01*
X15164Y12294D02*
X14498D01*
X15164Y12961D01*
Y13127D01*
X14998Y13294D01*
X14665D01*
X14498Y13127D01*
X15998Y12294D02*
Y13294D01*
X15498Y12794D01*
X16164D01*
X15164Y14834D02*
X14498D01*
X15164Y15501D01*
Y15667D01*
X14998Y15834D01*
X14665D01*
X14498Y15667D01*
X16164Y15834D02*
X15831Y15667D01*
X15498Y15334D01*
Y15001D01*
X15664Y14834D01*
X15998D01*
X16164Y15001D01*
Y15167D01*
X15998Y15334D01*
X15498D01*
X15164Y17374D02*
X14498D01*
X15164Y18041D01*
Y18207D01*
X14998Y18374D01*
X14665D01*
X14498Y18207D01*
X15498D02*
X15664Y18374D01*
X15998D01*
X16164Y18207D01*
Y18041D01*
X15998Y17874D01*
X16164Y17707D01*
Y17541D01*
X15998Y17374D01*
X15664D01*
X15498Y17541D01*
Y17707D01*
X15664Y17874D01*
X15498Y18041D01*
Y18207D01*
X15664Y17874D02*
X15998D01*
X14498Y20747D02*
X14665Y20914D01*
X14998D01*
X15164Y20747D01*
Y20581D01*
X14998Y20414D01*
X14831D01*
X14998D01*
X15164Y20247D01*
Y20081D01*
X14998Y19914D01*
X14665D01*
X14498Y20081D01*
X15498Y20747D02*
X15664Y20914D01*
X15998D01*
X16164Y20747D01*
Y20081D01*
X15998Y19914D01*
X15664D01*
X15498Y20081D01*
Y20747D01*
X14498Y23287D02*
X14665Y23454D01*
X14998D01*
X15164Y23287D01*
Y23121D01*
X14998Y22954D01*
X14831D01*
X14998D01*
X15164Y22787D01*
Y22621D01*
X14998Y22454D01*
X14665D01*
X14498Y22621D01*
X16164Y22454D02*
X15498D01*
X16164Y23121D01*
Y23287D01*
X15998Y23454D01*
X15664D01*
X15498Y23287D01*
X14498Y25827D02*
X14665Y25994D01*
X14998D01*
X15164Y25827D01*
Y25661D01*
X14998Y25494D01*
X14831D01*
X14998D01*
X15164Y25327D01*
Y25161D01*
X14998Y24994D01*
X14665D01*
X14498Y25161D01*
X15998Y24994D02*
Y25994D01*
X15498Y25494D01*
X16164D01*
X14498Y28367D02*
X14665Y28534D01*
X14998D01*
X15164Y28367D01*
Y28201D01*
X14998Y28034D01*
X14831D01*
X14998D01*
X15164Y27867D01*
Y27701D01*
X14998Y27534D01*
X14665D01*
X14498Y27701D01*
X16164Y28534D02*
X15831Y28367D01*
X15498Y28034D01*
Y27701D01*
X15664Y27534D01*
X15998D01*
X16164Y27701D01*
Y27867D01*
X15998Y28034D01*
X15498D01*
X14498Y30907D02*
X14665Y31074D01*
X14998D01*
X15164Y30907D01*
Y30741D01*
X14998Y30574D01*
X14831D01*
X14998D01*
X15164Y30407D01*
Y30241D01*
X14998Y30074D01*
X14665D01*
X14498Y30241D01*
X15498Y30907D02*
X15664Y31074D01*
X15998D01*
X16164Y30907D01*
Y30741D01*
X15998Y30574D01*
X16164Y30407D01*
Y30241D01*
X15998Y30074D01*
X15664D01*
X15498Y30241D01*
Y30407D01*
X15664Y30574D01*
X15498Y30741D01*
Y30907D01*
X15664Y30574D02*
X15998D01*
X14998Y32614D02*
Y33614D01*
X14498Y33114D01*
X15164D01*
X15498Y33447D02*
X15664Y33614D01*
X15998D01*
X16164Y33447D01*
Y32781D01*
X15998Y32614D01*
X15664D01*
X15498Y32781D01*
Y33447D01*
X14998Y35154D02*
Y36154D01*
X14498Y35654D01*
X15164D01*
X16164Y35154D02*
X15498D01*
X16164Y35821D01*
Y35987D01*
X15998Y36154D01*
X15664D01*
X15498Y35987D01*
X14998Y37694D02*
Y38694D01*
X14498Y38194D01*
X15164D01*
X15998Y37694D02*
Y38694D01*
X15498Y38194D01*
X16164D01*
X14998Y40234D02*
Y41234D01*
X14498Y40734D01*
X15164D01*
X16164Y41234D02*
X15831Y41067D01*
X15498Y40734D01*
Y40401D01*
X15664Y40234D01*
X15998D01*
X16164Y40401D01*
Y40567D01*
X15998Y40734D01*
X15498D01*
X14998Y42774D02*
Y43774D01*
X14498Y43274D01*
X15164D01*
X15498Y43607D02*
X15664Y43774D01*
X15998D01*
X16164Y43607D01*
Y43441D01*
X15998Y43274D01*
X16164Y43107D01*
Y42941D01*
X15998Y42774D01*
X15664D01*
X15498Y42941D01*
Y43107D01*
X15664Y43274D01*
X15498Y43441D01*
Y43607D01*
X15664Y43274D02*
X15998D01*
X14498Y45314D02*
Y46314D01*
X14831Y45981D01*
X15164Y46314D01*
Y45314D01*
X15498Y46314D02*
X15831D01*
X15664D01*
Y45314D01*
X15498D01*
X15831D01*
X16997Y46147D02*
X16831Y46314D01*
X16497D01*
X16331Y46147D01*
Y45981D01*
X16497Y45814D01*
X16831D01*
X16997Y45647D01*
Y45481D01*
X16831Y45314D01*
X16497D01*
X16331Y45481D01*
X17830Y46314D02*
X17497D01*
X17330Y46147D01*
Y45481D01*
X17497Y45314D01*
X17830D01*
X17997Y45481D01*
Y46147D01*
X17830Y46314D01*
X15164Y48687D02*
X14998Y48854D01*
X14665D01*
X14498Y48687D01*
Y48521D01*
X14665Y48354D01*
X14998D01*
X15164Y48187D01*
Y48021D01*
X14998Y47854D01*
X14665D01*
X14498Y48021D01*
X16164Y48687D02*
X15998Y48854D01*
X15664D01*
X15498Y48687D01*
Y48021D01*
X15664Y47854D01*
X15998D01*
X16164Y48021D01*
X16497Y48854D02*
Y47854D01*
Y48187D01*
X17164Y48854D01*
X16664Y48354D01*
X17164Y47854D01*
X4426Y45314D02*
Y46314D01*
X4759Y45981D01*
X5092Y46314D01*
Y45314D01*
X5925Y46314D02*
X5592D01*
X5425Y46147D01*
Y45481D01*
X5592Y45314D01*
X5925D01*
X6092Y45481D01*
Y46147D01*
X5925Y46314D01*
X7092Y46147D02*
X6925Y46314D01*
X6592D01*
X6425Y46147D01*
Y45981D01*
X6592Y45814D01*
X6925D01*
X7092Y45647D01*
Y45481D01*
X6925Y45314D01*
X6592D01*
X6425Y45481D01*
X7425Y46314D02*
X7758D01*
X7591D01*
Y45314D01*
X7425D01*
X7758D01*
X6592Y35154D02*
Y36154D01*
X6092Y35654D01*
X6758D01*
X7092Y35987D02*
X7258Y36154D01*
X7591D01*
X7758Y35987D01*
Y35821D01*
X7591Y35654D01*
X7425D01*
X7591D01*
X7758Y35487D01*
Y35321D01*
X7591Y35154D01*
X7258D01*
X7092Y35321D01*
X6925Y32614D02*
Y33614D01*
X6425Y33114D01*
X7092D01*
X7425Y32614D02*
X7758D01*
X7591D01*
Y33614D01*
X7425Y33447D01*
X6092Y30907D02*
X6258Y31074D01*
X6592D01*
X6758Y30907D01*
Y30741D01*
X6592Y30574D01*
X6425D01*
X6592D01*
X6758Y30407D01*
Y30241D01*
X6592Y30074D01*
X6258D01*
X6092Y30241D01*
X7092D02*
X7258Y30074D01*
X7591D01*
X7758Y30241D01*
Y30907D01*
X7591Y31074D01*
X7258D01*
X7092Y30907D01*
Y30741D01*
X7258Y30574D01*
X7758D01*
X6092Y28367D02*
X6258Y28534D01*
X6592D01*
X6758Y28367D01*
Y28201D01*
X6592Y28034D01*
X6425D01*
X6592D01*
X6758Y27867D01*
Y27701D01*
X6592Y27534D01*
X6258D01*
X6092Y27701D01*
X7092Y28534D02*
X7758D01*
Y28367D01*
X7092Y27701D01*
Y27534D01*
X6092Y25827D02*
X6258Y25994D01*
X6592D01*
X6758Y25827D01*
Y25661D01*
X6592Y25494D01*
X6425D01*
X6592D01*
X6758Y25327D01*
Y25161D01*
X6592Y24994D01*
X6258D01*
X6092Y25161D01*
X7758Y25994D02*
X7092D01*
Y25494D01*
X7425Y25661D01*
X7591D01*
X7758Y25494D01*
Y25161D01*
X7591Y24994D01*
X7258D01*
X7092Y25161D01*
X6092Y23287D02*
X6258Y23454D01*
X6592D01*
X6758Y23287D01*
Y23121D01*
X6592Y22954D01*
X6425D01*
X6592D01*
X6758Y22787D01*
Y22621D01*
X6592Y22454D01*
X6258D01*
X6092Y22621D01*
X7092Y23287D02*
X7258Y23454D01*
X7591D01*
X7758Y23287D01*
Y23121D01*
X7591Y22954D01*
X7425D01*
X7591D01*
X7758Y22787D01*
Y22621D01*
X7591Y22454D01*
X7258D01*
X7092Y22621D01*
X6425Y20747D02*
X6592Y20914D01*
X6925D01*
X7092Y20747D01*
Y20581D01*
X6925Y20414D01*
X6758D01*
X6925D01*
X7092Y20247D01*
Y20081D01*
X6925Y19914D01*
X6592D01*
X6425Y20081D01*
X7425Y19914D02*
X7758D01*
X7591D01*
Y20914D01*
X7425Y20747D01*
X6758Y17374D02*
X6092D01*
X6758Y18041D01*
Y18207D01*
X6592Y18374D01*
X6258D01*
X6092Y18207D01*
X7092Y17541D02*
X7258Y17374D01*
X7591D01*
X7758Y17541D01*
Y18207D01*
X7591Y18374D01*
X7258D01*
X7092Y18207D01*
Y18041D01*
X7258Y17874D01*
X7758D01*
X6758Y14834D02*
X6092D01*
X6758Y15501D01*
Y15667D01*
X6592Y15834D01*
X6258D01*
X6092Y15667D01*
X7092Y15834D02*
X7758D01*
Y15667D01*
X7092Y15001D01*
Y14834D01*
X6758Y12294D02*
X6092D01*
X6758Y12961D01*
Y13127D01*
X6592Y13294D01*
X6258D01*
X6092Y13127D01*
X7758Y13294D02*
X7092D01*
Y12794D01*
X7425Y12961D01*
X7591D01*
X7758Y12794D01*
Y12461D01*
X7591Y12294D01*
X7258D01*
X7092Y12461D01*
X6758Y9754D02*
X6092D01*
X6758Y10421D01*
Y10587D01*
X6592Y10754D01*
X6258D01*
X6092Y10587D01*
X7092D02*
X7258Y10754D01*
X7591D01*
X7758Y10587D01*
Y10421D01*
X7591Y10254D01*
X7425D01*
X7591D01*
X7758Y10087D01*
Y9921D01*
X7591Y9754D01*
X7258D01*
X7092Y9921D01*
X48917Y39441D02*
X48751Y39274D01*
Y38941D01*
X48917Y38775D01*
X49584D01*
X49750Y38941D01*
Y39274D01*
X49584Y39441D01*
X49250D01*
Y39108D01*
X49750Y39774D02*
X48751D01*
X49750Y40441D01*
X48751D01*
Y40774D02*
X49750D01*
Y41274D01*
X49584Y41440D01*
X48917D01*
X48751Y41274D01*
Y40774D01*
X52290Y38108D02*
X51291D01*
X51624Y38441D01*
X51291Y38775D01*
X52290D01*
X51291Y39608D02*
Y39274D01*
X51457Y39108D01*
X52124D01*
X52290Y39274D01*
Y39608D01*
X52124Y39774D01*
X51457D01*
X51291Y39608D01*
X51457Y40774D02*
X51291Y40607D01*
Y40274D01*
X51457Y40107D01*
X51624D01*
X51790Y40274D01*
Y40607D01*
X51957Y40774D01*
X52124D01*
X52290Y40607D01*
Y40274D01*
X52124Y40107D01*
X51291Y41107D02*
Y41440D01*
Y41274D01*
X52290D01*
Y41107D01*
Y41440D01*
X53831Y40441D02*
Y39774D01*
X54330D01*
X54164Y40107D01*
Y40274D01*
X54330Y40441D01*
X54664D01*
X54830Y40274D01*
Y39941D01*
X54664Y39774D01*
X53831Y40774D02*
X54497D01*
X54830Y41107D01*
X54497Y41440D01*
X53831D01*
X49750Y47900D02*
X48751D01*
Y48400D01*
X48917Y48567D01*
X49250D01*
X49417Y48400D01*
Y47900D01*
Y48234D02*
X49750Y48567D01*
X48751Y49567D02*
Y48900D01*
X49750D01*
Y49567D01*
X49250Y48900D02*
Y49233D01*
X48917Y50566D02*
X48751Y50400D01*
Y50066D01*
X48917Y49900D01*
X49084D01*
X49250Y50066D01*
Y50400D01*
X49417Y50566D01*
X49584D01*
X49750Y50400D01*
Y50066D01*
X49584Y49900D01*
X48751Y51566D02*
Y50899D01*
X49750D01*
Y51566D01*
X49250Y50899D02*
Y51233D01*
X48751Y51899D02*
Y52566D01*
Y52232D01*
X49750D01*
X51457Y48567D02*
X51291Y48400D01*
Y48067D01*
X51457Y47900D01*
X51624D01*
X51790Y48067D01*
Y48400D01*
X51957Y48567D01*
X52124D01*
X52290Y48400D01*
Y48067D01*
X52124Y47900D01*
X51457Y49567D02*
X51291Y49400D01*
Y49067D01*
X51457Y48900D01*
X52124D01*
X52290Y49067D01*
Y49400D01*
X52124Y49567D01*
X51291Y49900D02*
X52290D01*
X51957D01*
X51291Y50566D01*
X51790Y50066D01*
X52290Y50566D01*
X54830Y47900D02*
X53831D01*
X54164Y48234D01*
X53831Y48567D01*
X54830D01*
X53831Y48900D02*
Y49233D01*
Y49067D01*
X54830D01*
Y48900D01*
Y49233D01*
X53997Y50400D02*
X53831Y50233D01*
Y49900D01*
X53997Y49733D01*
X54164D01*
X54330Y49900D01*
Y50233D01*
X54497Y50400D01*
X54664D01*
X54830Y50233D01*
Y49900D01*
X54664Y49733D01*
X53831Y51233D02*
Y50899D01*
X53997Y50733D01*
X54664D01*
X54830Y50899D01*
Y51233D01*
X54664Y51399D01*
X53997D01*
X53831Y51233D01*
X34661Y21814D02*
X34495Y21981D01*
X34162D01*
X33995Y21814D01*
Y21148D01*
X34162Y20981D01*
X34495D01*
X34661Y21148D01*
Y21481D01*
X34328D01*
X34995Y20981D02*
Y21981D01*
X35661Y20981D01*
Y21981D01*
X35994D02*
Y20981D01*
X36494D01*
X36661Y21148D01*
Y21814D01*
X36494Y21981D01*
X35994D01*
X27500Y81560D02*
Y82560D01*
X28166Y81560D01*
Y82560D01*
X28500Y81560D02*
X29166Y82227D01*
X29499Y81560D02*
Y82227D01*
X29833Y82560D01*
X30166Y82227D01*
Y81560D01*
Y82060D01*
X29499D01*
X60767Y10188D02*
X60601Y10354D01*
Y10687D01*
X60767Y10854D01*
X60934D01*
X61100Y10687D01*
Y10521D01*
Y10687D01*
X61267Y10854D01*
X61434D01*
X61600Y10687D01*
Y10354D01*
X61434Y10188D01*
X61600Y11187D02*
Y11520D01*
Y11354D01*
X60601D01*
X60767Y11187D01*
X58227Y9854D02*
X58061Y10021D01*
Y10354D01*
X58227Y10521D01*
X58394D01*
X58560Y10354D01*
Y10188D01*
Y10354D01*
X58727Y10521D01*
X58894D01*
X59060Y10354D01*
Y10021D01*
X58894Y9854D01*
X58227Y10854D02*
X58061Y11021D01*
Y11354D01*
X58227Y11520D01*
X58394D01*
X58560Y11354D01*
Y11187D01*
Y11354D01*
X58727Y11520D01*
X58894D01*
X59060Y11354D01*
Y11021D01*
X58894Y10854D01*
X55687Y9854D02*
X55521Y10021D01*
Y10354D01*
X55687Y10521D01*
X55854D01*
X56020Y10354D01*
Y10188D01*
Y10354D01*
X56187Y10521D01*
X56354D01*
X56520Y10354D01*
Y10021D01*
X56354Y9854D01*
X55521Y11520D02*
Y10854D01*
X56020D01*
X55854Y11187D01*
Y11354D01*
X56020Y11520D01*
X56354D01*
X56520Y11354D01*
Y11021D01*
X56354Y10854D01*
X53147Y9854D02*
X52981Y10021D01*
Y10354D01*
X53147Y10521D01*
X53314D01*
X53480Y10354D01*
Y10188D01*
Y10354D01*
X53647Y10521D01*
X53814D01*
X53980Y10354D01*
Y10021D01*
X53814Y9854D01*
X52981Y10854D02*
Y11520D01*
X53147D01*
X53814Y10854D01*
X53980D01*
X50607Y9854D02*
X50441Y10021D01*
Y10354D01*
X50607Y10521D01*
X50774D01*
X50940Y10354D01*
Y10188D01*
Y10354D01*
X51107Y10521D01*
X51274D01*
X51440Y10354D01*
Y10021D01*
X51274Y9854D01*
Y10854D02*
X51440Y11021D01*
Y11354D01*
X51274Y11520D01*
X50607D01*
X50441Y11354D01*
Y11021D01*
X50607Y10854D01*
X50774D01*
X50940Y11021D01*
Y11520D01*
X48900Y10687D02*
X47901D01*
X48400Y10188D01*
Y10854D01*
X48900Y11187D02*
Y11520D01*
Y11354D01*
X47901D01*
X48067Y11187D01*
X46360Y10354D02*
X45361D01*
X45860Y9854D01*
Y10521D01*
X45527Y10854D02*
X45361Y11021D01*
Y11354D01*
X45527Y11520D01*
X45694D01*
X45860Y11354D01*
Y11187D01*
Y11354D01*
X46027Y11520D01*
X46194D01*
X46360Y11354D01*
Y11021D01*
X46194Y10854D01*
X43820Y10354D02*
X42821D01*
X43320Y9854D01*
Y10521D01*
X42821Y11520D02*
Y10854D01*
X43320D01*
X43154Y11187D01*
Y11354D01*
X43320Y11520D01*
X43654D01*
X43820Y11354D01*
Y11021D01*
X43654Y10854D01*
X41280Y10354D02*
X40281D01*
X40780Y9854D01*
Y10521D01*
X40281Y10854D02*
Y11520D01*
X40447D01*
X41114Y10854D01*
X41280D01*
X38740Y10354D02*
X37741D01*
X38240Y9854D01*
Y10521D01*
X38574Y10854D02*
X38740Y11021D01*
Y11354D01*
X38574Y11520D01*
X37907D01*
X37741Y11354D01*
Y11021D01*
X37907Y10854D01*
X38074D01*
X38240Y11021D01*
Y11520D01*
X35201Y10854D02*
Y10188D01*
X35700D01*
X35534Y10521D01*
Y10687D01*
X35700Y10854D01*
X36034D01*
X36200Y10687D01*
Y10354D01*
X36034Y10188D01*
X36200Y11187D02*
Y11520D01*
Y11354D01*
X35201D01*
X35367Y11187D01*
X32661Y10521D02*
Y9854D01*
X33160D01*
X32994Y10188D01*
Y10354D01*
X33160Y10521D01*
X33494D01*
X33660Y10354D01*
Y10021D01*
X33494Y9854D01*
X32827Y10854D02*
X32661Y11021D01*
Y11354D01*
X32827Y11520D01*
X32994D01*
X33160Y11354D01*
Y11187D01*
Y11354D01*
X33327Y11520D01*
X33494D01*
X33660Y11354D01*
Y11021D01*
X33494Y10854D01*
X71760Y18647D02*
Y17980D01*
X71094Y18647D01*
X70927D01*
X70761Y18480D01*
Y18147D01*
X70927Y17980D01*
X71760Y19647D02*
Y18980D01*
X71094Y19647D01*
X70927D01*
X70761Y19480D01*
Y19147D01*
X70927Y18980D01*
X69220Y18647D02*
Y17980D01*
X68554Y18647D01*
X68387D01*
X68221Y18480D01*
Y18147D01*
X68387Y17980D01*
X69220Y19480D02*
X68221D01*
X68720Y18980D01*
Y19647D01*
X66680Y18647D02*
Y17980D01*
X66014Y18647D01*
X65847D01*
X65681Y18480D01*
Y18147D01*
X65847Y17980D01*
X65681Y19647D02*
X65847Y19313D01*
X66180Y18980D01*
X66514D01*
X66680Y19147D01*
Y19480D01*
X66514Y19647D01*
X66347D01*
X66180Y19480D01*
Y18980D01*
X64140Y18647D02*
Y17980D01*
X63474Y18647D01*
X63307D01*
X63141Y18480D01*
Y18147D01*
X63307Y17980D01*
Y18980D02*
X63141Y19147D01*
Y19480D01*
X63307Y19647D01*
X63474D01*
X63640Y19480D01*
X63807Y19647D01*
X63974D01*
X64140Y19480D01*
Y19147D01*
X63974Y18980D01*
X63807D01*
X63640Y19147D01*
X63474Y18980D01*
X63307D01*
X63640Y19147D02*
Y19480D01*
X60767Y17980D02*
X60601Y18147D01*
Y18480D01*
X60767Y18647D01*
X60934D01*
X61100Y18480D01*
Y18314D01*
Y18480D01*
X61267Y18647D01*
X61434D01*
X61600Y18480D01*
Y18147D01*
X61434Y17980D01*
X60767Y18980D02*
X60601Y19147D01*
Y19480D01*
X60767Y19647D01*
X61434D01*
X61600Y19480D01*
Y19147D01*
X61434Y18980D01*
X60767D01*
X58227Y17980D02*
X58061Y18147D01*
Y18480D01*
X58227Y18647D01*
X58394D01*
X58560Y18480D01*
Y18314D01*
Y18480D01*
X58727Y18647D01*
X58894D01*
X59060Y18480D01*
Y18147D01*
X58894Y17980D01*
X59060Y19647D02*
Y18980D01*
X58394Y19647D01*
X58227D01*
X58061Y19480D01*
Y19147D01*
X58227Y18980D01*
X55687Y17980D02*
X55521Y18147D01*
Y18480D01*
X55687Y18647D01*
X55854D01*
X56020Y18480D01*
Y18314D01*
Y18480D01*
X56187Y18647D01*
X56354D01*
X56520Y18480D01*
Y18147D01*
X56354Y17980D01*
X56520Y19480D02*
X55521D01*
X56020Y18980D01*
Y19647D01*
X53147Y17980D02*
X52981Y18147D01*
Y18480D01*
X53147Y18647D01*
X53314D01*
X53480Y18480D01*
Y18314D01*
Y18480D01*
X53647Y18647D01*
X53814D01*
X53980Y18480D01*
Y18147D01*
X53814Y17980D01*
X52981Y19647D02*
X53147Y19313D01*
X53480Y18980D01*
X53814D01*
X53980Y19147D01*
Y19480D01*
X53814Y19647D01*
X53647D01*
X53480Y19480D01*
Y18980D01*
X50607Y17980D02*
X50441Y18147D01*
Y18480D01*
X50607Y18647D01*
X50774D01*
X50940Y18480D01*
Y18314D01*
Y18480D01*
X51107Y18647D01*
X51274D01*
X51440Y18480D01*
Y18147D01*
X51274Y17980D01*
X50607Y18980D02*
X50441Y19147D01*
Y19480D01*
X50607Y19647D01*
X50774D01*
X50940Y19480D01*
X51107Y19647D01*
X51274D01*
X51440Y19480D01*
Y19147D01*
X51274Y18980D01*
X51107D01*
X50940Y19147D01*
X50774Y18980D01*
X50607D01*
X50940Y19147D02*
Y19480D01*
X48900Y18480D02*
X47901D01*
X48400Y17980D01*
Y18647D01*
X48067Y18980D02*
X47901Y19147D01*
Y19480D01*
X48067Y19647D01*
X48734D01*
X48900Y19480D01*
Y19147D01*
X48734Y18980D01*
X48067D01*
X46360Y18480D02*
X45361D01*
X45860Y17980D01*
Y18647D01*
X46360Y19647D02*
Y18980D01*
X45694Y19647D01*
X45527D01*
X45361Y19480D01*
Y19147D01*
X45527Y18980D01*
X43820Y18480D02*
X42821D01*
X43320Y17980D01*
Y18647D01*
X43820Y19480D02*
X42821D01*
X43320Y18980D01*
Y19647D01*
X41280Y18480D02*
X40281D01*
X40780Y17980D01*
Y18647D01*
X40281Y19647D02*
X40447Y19313D01*
X40780Y18980D01*
X41114D01*
X41280Y19147D01*
Y19480D01*
X41114Y19647D01*
X40947D01*
X40780Y19480D01*
Y18980D01*
X38740Y18480D02*
X37741D01*
X38240Y17980D01*
Y18647D01*
X37907Y18980D02*
X37741Y19147D01*
Y19480D01*
X37907Y19647D01*
X38074D01*
X38240Y19480D01*
X38407Y19647D01*
X38574D01*
X38740Y19480D01*
Y19147D01*
X38574Y18980D01*
X38407D01*
X38240Y19147D01*
X38074Y18980D01*
X37907D01*
X38240Y19147D02*
Y19480D01*
X35201Y18647D02*
Y17980D01*
X35700D01*
X35534Y18314D01*
Y18480D01*
X35700Y18647D01*
X36034D01*
X36200Y18480D01*
Y18147D01*
X36034Y17980D01*
X35367Y18980D02*
X35201Y19147D01*
Y19480D01*
X35367Y19647D01*
X36034D01*
X36200Y19480D01*
Y19147D01*
X36034Y18980D01*
X35367D01*
X32661Y18647D02*
Y17980D01*
X33160D01*
X32994Y18314D01*
Y18480D01*
X33160Y18647D01*
X33494D01*
X33660Y18480D01*
Y18147D01*
X33494Y17980D01*
X33660Y19647D02*
Y18980D01*
X32994Y19647D01*
X32827D01*
X32661Y19480D01*
Y19147D01*
X32827Y18980D01*
X28166Y44460D02*
X27833Y44293D01*
X27500Y43960D01*
Y43627D01*
X27667Y43460D01*
X28000D01*
X28166Y43627D01*
Y43793D01*
X28000Y43960D01*
X27500D01*
X27500Y18060D02*
X27833D01*
X27667D01*
Y19060D01*
X27500Y18893D01*
X29000Y19060D02*
X28333D01*
Y18560D01*
X28666Y18727D01*
X28833D01*
X29000Y18560D01*
Y18227D01*
X28833Y18060D01*
X28500D01*
X28333Y18227D01*
X27500Y20600D02*
Y21267D01*
X27833Y21600D01*
X28166Y21267D01*
Y20600D01*
Y21100D01*
X27500D01*
X28500Y20600D02*
X28833D01*
X28666D01*
Y21600D01*
X28500Y21433D01*
X29833Y20600D02*
Y21600D01*
X29333Y21100D01*
X29999D01*
X27500Y23140D02*
Y23807D01*
X27833Y24140D01*
X28166Y23807D01*
Y23140D01*
Y23640D01*
X27500D01*
X28500Y23140D02*
X28833D01*
X28666D01*
Y24140D01*
X28500Y23973D01*
X29333D02*
X29499Y24140D01*
X29833D01*
X29999Y23973D01*
Y23807D01*
X29833Y23640D01*
X29666D01*
X29833D01*
X29999Y23473D01*
Y23307D01*
X29833Y23140D01*
X29499D01*
X29333Y23307D01*
X27500Y25680D02*
Y26347D01*
X27833Y26680D01*
X28166Y26347D01*
Y25680D01*
Y26180D01*
X27500D01*
X28500Y25680D02*
X28833D01*
X28666D01*
Y26680D01*
X28500Y26513D01*
X29999Y25680D02*
X29333D01*
X29999Y26347D01*
Y26513D01*
X29833Y26680D01*
X29499D01*
X29333Y26513D01*
X27500Y28220D02*
Y28887D01*
X27833Y29220D01*
X28166Y28887D01*
Y28220D01*
Y28720D01*
X27500D01*
X28500Y28220D02*
X28833D01*
X28666D01*
Y29220D01*
X28500Y29053D01*
X29333Y28220D02*
X29666D01*
X29499D01*
Y29220D01*
X29333Y29053D01*
X27500Y30760D02*
Y31427D01*
X27833Y31760D01*
X28166Y31427D01*
Y30760D01*
Y31260D01*
X27500D01*
X28500Y30760D02*
X28833D01*
X28666D01*
Y31760D01*
X28500Y31593D01*
X29333D02*
X29499Y31760D01*
X29833D01*
X29999Y31593D01*
Y30927D01*
X29833Y30760D01*
X29499D01*
X29333Y30927D01*
Y31593D01*
X27500Y33300D02*
Y33967D01*
X27833Y34300D01*
X28166Y33967D01*
Y33300D01*
Y33800D01*
X27500D01*
X28500Y33467D02*
X28666Y33300D01*
X29000D01*
X29166Y33467D01*
Y34133D01*
X29000Y34300D01*
X28666D01*
X28500Y34133D01*
Y33967D01*
X28666Y33800D01*
X29166D01*
X27500Y35840D02*
Y36507D01*
X27833Y36840D01*
X28166Y36507D01*
Y35840D01*
Y36340D01*
X27500D01*
X28500Y36673D02*
X28666Y36840D01*
X29000D01*
X29166Y36673D01*
Y36507D01*
X29000Y36340D01*
X29166Y36173D01*
Y36007D01*
X29000Y35840D01*
X28666D01*
X28500Y36007D01*
Y36173D01*
X28666Y36340D01*
X28500Y36507D01*
Y36673D01*
X28666Y36340D02*
X29000D01*
X27500Y40920D02*
Y41587D01*
X27833Y41920D01*
X28166Y41587D01*
Y40920D01*
Y41420D01*
X27500D01*
X28500Y41920D02*
X29166D01*
Y41753D01*
X28500Y41087D01*
Y40920D01*
X27500Y46000D02*
Y46667D01*
X27833Y47000D01*
X28166Y46667D01*
Y46000D01*
Y46500D01*
X27500D01*
X29166Y47000D02*
X28500D01*
Y46500D01*
X28833Y46667D01*
X29000D01*
X29166Y46500D01*
Y46167D01*
X29000Y46000D01*
X28666D01*
X28500Y46167D01*
X27500Y48540D02*
Y49207D01*
X27833Y49540D01*
X28166Y49207D01*
Y48540D01*
Y49040D01*
X27500D01*
X29000Y48540D02*
Y49540D01*
X28500Y49040D01*
X29166D01*
X27500Y51080D02*
Y51747D01*
X27833Y52080D01*
X28166Y51747D01*
Y51080D01*
Y51580D01*
X27500D01*
X28500Y51913D02*
X28666Y52080D01*
X29000D01*
X29166Y51913D01*
Y51747D01*
X29000Y51580D01*
X28833D01*
X29000D01*
X29166Y51413D01*
Y51247D01*
X29000Y51080D01*
X28666D01*
X28500Y51247D01*
X27500Y53620D02*
Y54287D01*
X27833Y54620D01*
X28166Y54287D01*
Y53620D01*
Y54120D01*
X27500D01*
X29166Y53620D02*
X28500D01*
X29166Y54287D01*
Y54453D01*
X29000Y54620D01*
X28666D01*
X28500Y54453D01*
X27500Y56160D02*
Y56827D01*
X27833Y57160D01*
X28166Y56827D01*
Y56160D01*
Y56660D01*
X27500D01*
X28500Y56160D02*
X28833D01*
X28666D01*
Y57160D01*
X28500Y56993D01*
X27500Y58700D02*
Y59367D01*
X27833Y59700D01*
X28166Y59367D01*
Y58700D01*
Y59200D01*
X27500D01*
X28500Y59533D02*
X28666Y59700D01*
X29000D01*
X29166Y59533D01*
Y58867D01*
X29000Y58700D01*
X28666D01*
X28500Y58867D01*
Y59533D01*
X27500Y64780D02*
Y64113D01*
X27833Y63780D01*
X28166Y64113D01*
Y64780D01*
X28500D02*
X28833D01*
X28666D01*
Y63780D01*
X28500D01*
X28833D01*
X29333D02*
Y64780D01*
X29999Y63780D01*
Y64780D01*
X29236Y68360D02*
X29070Y68526D01*
X28737D01*
X28570Y68360D01*
Y67693D01*
X28737Y67527D01*
X29070D01*
X29236Y67693D01*
Y68026D01*
X28903D01*
X29570Y67527D02*
Y68526D01*
X30236Y67527D01*
Y68526D01*
X30569D02*
Y67527D01*
X31069D01*
X31236Y67693D01*
Y68360D01*
X31069Y68526D01*
X30569D01*
X28166Y72400D02*
X27500D01*
Y71900D01*
X27833Y72067D01*
X28000D01*
X28166Y71900D01*
Y71567D01*
X28000Y71400D01*
X27667D01*
X27500Y71567D01*
X28500Y72400D02*
Y71733D01*
X28833Y71400D01*
X29166Y71733D01*
Y72400D01*
X27500Y74773D02*
X27667Y74940D01*
X28000D01*
X28166Y74773D01*
Y74607D01*
X28000Y74440D01*
X27833D01*
X28000D01*
X28166Y74273D01*
Y74107D01*
X28000Y73940D01*
X27667D01*
X27500Y74107D01*
X28500Y73940D02*
Y74107D01*
X28666D01*
Y73940D01*
X28500D01*
X29333Y74773D02*
X29499Y74940D01*
X29833D01*
X29999Y74773D01*
Y74607D01*
X29833Y74440D01*
X29666D01*
X29833D01*
X29999Y74273D01*
Y74107D01*
X29833Y73940D01*
X29499D01*
X29333Y74107D01*
X30332Y74940D02*
Y74273D01*
X30666Y73940D01*
X30999Y74273D01*
Y74940D01*
X27500Y76480D02*
Y77480D01*
X28000D01*
X28166Y77313D01*
Y76980D01*
X28000Y76813D01*
X27500D01*
X27833D02*
X28166Y76480D01*
X29166Y77480D02*
X28500D01*
Y76480D01*
X29166D01*
X28500Y76980D02*
X28833D01*
X30166Y77313D02*
X29999Y77480D01*
X29666D01*
X29499Y77313D01*
Y77147D01*
X29666Y76980D01*
X29999D01*
X30166Y76813D01*
Y76647D01*
X29999Y76480D01*
X29666D01*
X29499Y76647D01*
X31165Y77480D02*
X30499D01*
Y76480D01*
X31165D01*
X30499Y76980D02*
X30832D01*
X31499Y77480D02*
X32165D01*
X31832D01*
Y76480D01*
X27500Y80020D02*
X27833D01*
X27667D01*
Y79020D01*
X27500D01*
X27833D01*
X28833Y80020D02*
X28500D01*
X28333Y79853D01*
Y79187D01*
X28500Y79020D01*
X28833D01*
X29000Y79187D01*
Y79853D01*
X28833Y80020D01*
X29333Y79020D02*
Y80020D01*
X29833D01*
X29999Y79853D01*
Y79520D01*
X29833Y79353D01*
X29333D01*
X29666D02*
X29999Y79020D01*
X30999Y80020D02*
X30332D01*
Y79020D01*
X30999D01*
X30332Y79520D02*
X30666D01*
X31999Y80020D02*
X31332D01*
Y79520D01*
X31665D01*
X31332D01*
Y79020D01*
X69164Y41920D02*
X69831D01*
X69497D01*
Y40920D01*
X70164Y41920D02*
X70830Y40920D01*
Y41920D02*
X70164Y40920D01*
X71164Y41753D02*
X71330Y41920D01*
X71663D01*
X71830Y41753D01*
Y41587D01*
X71663Y41420D01*
X71497D01*
X71663D01*
X71830Y41253D01*
Y41087D01*
X71663Y40920D01*
X71330D01*
X71164Y41087D01*
X69164Y38380D02*
Y39380D01*
X69664D01*
X69831Y39213D01*
Y38880D01*
X69664Y38713D01*
X69164D01*
X69497D02*
X69831Y38380D01*
X70164Y39380D02*
X70830Y38380D01*
Y39380D02*
X70164Y38380D01*
X71164Y39213D02*
X71330Y39380D01*
X71663D01*
X71830Y39213D01*
Y39047D01*
X71663Y38880D01*
X71497D01*
X71663D01*
X71830Y38713D01*
Y38547D01*
X71663Y38380D01*
X71330D01*
X71164Y38547D01*
X69164Y36840D02*
X69831D01*
X69497D01*
Y35840D01*
X70164Y36840D02*
X70830Y35840D01*
Y36840D02*
X70164Y35840D01*
X71830D02*
X71164D01*
X71830Y36507D01*
Y36673D01*
X71663Y36840D01*
X71330D01*
X71164Y36673D01*
X69164Y33300D02*
Y34300D01*
X69664D01*
X69831Y34133D01*
Y33800D01*
X69664Y33633D01*
X69164D01*
X69497D02*
X69831Y33300D01*
X70164Y34300D02*
X70830Y33300D01*
Y34300D02*
X70164Y33300D01*
X71830D02*
X71164D01*
X71830Y33967D01*
Y34133D01*
X71663Y34300D01*
X71330D01*
X71164Y34133D01*
X69497Y31760D02*
X70164D01*
X69831D01*
Y30760D01*
X70497Y31760D02*
X71164Y30760D01*
Y31760D02*
X70497Y30760D01*
X71497D02*
X71830D01*
X71663D01*
Y31760D01*
X71497Y31593D01*
X69497Y28220D02*
Y29220D01*
X69997D01*
X70164Y29053D01*
Y28720D01*
X69997Y28553D01*
X69497D01*
X69831D02*
X70164Y28220D01*
X70497Y29220D02*
X71164Y28220D01*
Y29220D02*
X70497Y28220D01*
X71497D02*
X71830D01*
X71663D01*
Y29220D01*
X71497Y29053D01*
X69831Y26513D02*
X69664Y26680D01*
X69331D01*
X69164Y26513D01*
Y26347D01*
X69331Y26180D01*
X69664D01*
X69831Y26013D01*
Y25847D01*
X69664Y25680D01*
X69331D01*
X69164Y25847D01*
X70164Y26680D02*
Y25680D01*
X70664D01*
X70830Y25847D01*
Y26513D01*
X70664Y26680D01*
X70164D01*
X71164Y25680D02*
Y26347D01*
X71497Y26680D01*
X71830Y26347D01*
Y25680D01*
Y26180D01*
X71164D01*
X69831Y23973D02*
X69664Y24140D01*
X69331D01*
X69164Y23973D01*
Y23807D01*
X69331Y23640D01*
X69664D01*
X69831Y23473D01*
Y23307D01*
X69664Y23140D01*
X69331D01*
X69164Y23307D01*
X70830Y23973D02*
X70664Y24140D01*
X70330D01*
X70164Y23973D01*
Y23307D01*
X70330Y23140D01*
X70664D01*
X70830Y23307D01*
X71164Y24140D02*
Y23140D01*
X71830D01*
X71164Y46833D02*
X71330Y47000D01*
X71663D01*
X71830Y46833D01*
Y46167D01*
X71663Y46000D01*
X71330D01*
X71164Y46167D01*
Y46833D01*
X71497Y48540D02*
X71830D01*
X71663D01*
Y49540D01*
X71497Y49373D01*
X71830Y51080D02*
X71164D01*
X71830Y51747D01*
Y51913D01*
X71663Y52080D01*
X71330D01*
X71164Y51913D01*
Y54453D02*
X71330Y54620D01*
X71663D01*
X71830Y54453D01*
Y54287D01*
X71663Y54120D01*
X71497D01*
X71663D01*
X71830Y53953D01*
Y53787D01*
X71663Y53620D01*
X71330D01*
X71164Y53787D01*
X71663Y56160D02*
Y57160D01*
X71164Y56660D01*
X71830D01*
Y59700D02*
X71164D01*
Y59200D01*
X71497Y59367D01*
X71663D01*
X71830Y59200D01*
Y58867D01*
X71663Y58700D01*
X71330D01*
X71164Y58867D01*
X71830Y62240D02*
X71497Y62073D01*
X71164Y61740D01*
Y61407D01*
X71330Y61240D01*
X71663D01*
X71830Y61407D01*
Y61573D01*
X71663Y61740D01*
X71164D01*
Y64780D02*
X71830D01*
Y64613D01*
X71164Y63947D01*
Y63780D01*
Y68423D02*
X71330Y68590D01*
X71663D01*
X71830Y68423D01*
Y68257D01*
X71663Y68090D01*
X71830Y67923D01*
Y67757D01*
X71663Y67590D01*
X71330D01*
X71164Y67757D01*
Y67923D01*
X71330Y68090D01*
X71164Y68257D01*
Y68423D01*
X71330Y68090D02*
X71663D01*
X71164Y70297D02*
X71330Y70130D01*
X71663D01*
X71830Y70297D01*
Y70963D01*
X71663Y71130D01*
X71330D01*
X71164Y70963D01*
Y70797D01*
X71330Y70630D01*
X71830D01*
X70330Y72670D02*
X70664D01*
X70497D01*
Y73670D01*
X70330Y73503D01*
X71164D02*
X71330Y73670D01*
X71663D01*
X71830Y73503D01*
Y72837D01*
X71663Y72670D01*
X71330D01*
X71164Y72837D01*
Y73503D01*
X70664Y75210D02*
X70997D01*
X70830D01*
Y76210D01*
X70664Y76043D01*
X71497Y75210D02*
X71830D01*
X71663D01*
Y76210D01*
X71497Y76043D01*
X70330Y77750D02*
X70664D01*
X70497D01*
Y78750D01*
X70330Y78583D01*
X71830Y77750D02*
X71164D01*
X71830Y78417D01*
Y78583D01*
X71663Y78750D01*
X71330D01*
X71164Y78583D01*
X70330Y80417D02*
X70664D01*
X70497D01*
Y81417D01*
X70330Y81250D01*
X71164D02*
X71330Y81417D01*
X71663D01*
X71830Y81250D01*
Y81084D01*
X71663Y80917D01*
X71497D01*
X71663D01*
X71830Y80750D01*
Y80584D01*
X71663Y80417D01*
X71330D01*
X71164Y80584D01*
X69831Y83663D02*
X69664Y83830D01*
X69331D01*
X69164Y83663D01*
Y82997D01*
X69331Y82830D01*
X69664D01*
X69831Y82997D01*
Y83330D01*
X69497D01*
X70164Y82830D02*
Y83830D01*
X70830Y82830D01*
Y83830D01*
X71164D02*
Y82830D01*
X71663D01*
X71830Y82997D01*
Y83663D01*
X71663Y83830D01*
X71164D01*
X68165Y85370D02*
Y86037D01*
X68498Y86370D01*
X68831Y86037D01*
Y85370D01*
Y85870D01*
X68165D01*
X69164Y85370D02*
Y86370D01*
X69664D01*
X69831Y86203D01*
Y85870D01*
X69664Y85703D01*
X69164D01*
X69497D02*
X69831Y85370D01*
X70830Y86370D02*
X70164D01*
Y85370D01*
X70830D01*
X70164Y85870D02*
X70497D01*
X71830Y86370D02*
X71164D01*
Y85870D01*
X71497D01*
X71164D01*
Y85370D01*
X56220Y89420D02*
X56553D01*
X56387D01*
Y90420D01*
X56220Y90253D01*
X57053Y90087D02*
X57220D01*
Y89920D01*
X57053D01*
Y90087D01*
Y89587D02*
X57220D01*
Y89420D01*
X57053D01*
Y89587D01*
X58886Y89420D02*
Y90420D01*
X59219Y90087D01*
X59552Y90420D01*
Y89420D01*
X59885Y90420D02*
X60219D01*
X60052D01*
Y89420D01*
X59885D01*
X60219D01*
X61385Y90253D02*
X61218Y90420D01*
X60885D01*
X60719Y90253D01*
Y90087D01*
X60885Y89920D01*
X61218D01*
X61385Y89753D01*
Y89587D01*
X61218Y89420D01*
X60885D01*
X60719Y89587D01*
X62218Y90420D02*
X61885D01*
X61718Y90253D01*
Y89587D01*
X61885Y89420D01*
X62218D01*
X62385Y89587D01*
Y90253D01*
X62218Y90420D01*
X49448D02*
X48781D01*
Y89920D01*
X49115Y90087D01*
X49281D01*
X49448Y89920D01*
Y89587D01*
X49281Y89420D01*
X48948D01*
X48781Y89587D01*
X49781Y90420D02*
Y89753D01*
X50114Y89420D01*
X50448Y89753D01*
Y90420D01*
X51780Y90087D02*
X51947D01*
Y89920D01*
X51780D01*
Y90087D01*
Y89587D02*
X51947D01*
Y89420D01*
X51780D01*
Y89587D01*
X53280Y89420D02*
X52614D01*
X53280Y90087D01*
Y90253D01*
X53113Y90420D01*
X52780D01*
X52614Y90253D01*
X56220Y92793D02*
X56387Y92960D01*
X56720D01*
X56886Y92793D01*
Y92627D01*
X56720Y92460D01*
X56553D01*
X56720D01*
X56886Y92293D01*
Y92127D01*
X56720Y91960D01*
X56387D01*
X56220Y92127D01*
X57220Y92627D02*
X57386D01*
Y92460D01*
X57220D01*
Y92627D01*
Y92127D02*
X57386D01*
Y91960D01*
X57220D01*
Y92127D01*
X59719Y92793D02*
X59552Y92960D01*
X59219D01*
X59052Y92793D01*
Y92627D01*
X59219Y92460D01*
X59552D01*
X59719Y92293D01*
Y92127D01*
X59552Y91960D01*
X59219D01*
X59052Y92127D01*
X60719Y92793D02*
X60552Y92960D01*
X60219D01*
X60052Y92793D01*
Y92127D01*
X60219Y91960D01*
X60552D01*
X60719Y92127D01*
X61052Y92960D02*
Y91960D01*
Y92293D01*
X61718Y92960D01*
X61218Y92460D01*
X61718Y91960D01*
X46949D02*
Y92960D01*
X47282Y92627D01*
X47615Y92960D01*
Y91960D01*
X48448Y92960D02*
X48115D01*
X47948Y92793D01*
Y92127D01*
X48115Y91960D01*
X48448D01*
X48615Y92127D01*
Y92793D01*
X48448Y92960D01*
X49615Y92793D02*
X49448Y92960D01*
X49115D01*
X48948Y92793D01*
Y92627D01*
X49115Y92460D01*
X49448D01*
X49615Y92293D01*
Y92127D01*
X49448Y91960D01*
X49115D01*
X48948Y92127D01*
X49948Y92960D02*
X50281D01*
X50114D01*
Y91960D01*
X49948D01*
X50281D01*
X51780Y92627D02*
X51947D01*
Y92460D01*
X51780D01*
Y92627D01*
Y92127D02*
X51947D01*
Y91960D01*
X51780D01*
Y92127D01*
X53113Y91960D02*
Y92960D01*
X52614Y92460D01*
X53280D01*
X56886Y95500D02*
X56220D01*
Y95000D01*
X56553Y95167D01*
X56720D01*
X56886Y95000D01*
Y94667D01*
X56720Y94500D01*
X56387D01*
X56220Y94667D01*
X57220Y95167D02*
X57386D01*
Y95000D01*
X57220D01*
Y95167D01*
Y94667D02*
X57386D01*
Y94500D01*
X57220D01*
Y94667D01*
X59052Y94500D02*
Y95500D01*
X59552D01*
X59719Y95333D01*
Y95000D01*
X59552Y94833D01*
X59052D01*
X59386D02*
X59719Y94500D01*
X60719Y95500D02*
X60052D01*
Y94500D01*
X60719D01*
X60052Y95000D02*
X60385D01*
X61718Y95333D02*
X61552Y95500D01*
X61218D01*
X61052Y95333D01*
Y95167D01*
X61218Y95000D01*
X61552D01*
X61718Y94833D01*
Y94667D01*
X61552Y94500D01*
X61218D01*
X61052Y94667D01*
X62718Y95500D02*
X62051D01*
Y94500D01*
X62718D01*
X62051Y95000D02*
X62385D01*
X63051Y95500D02*
X63718D01*
X63384D01*
Y94500D01*
X48448Y95333D02*
X48282Y95500D01*
X47948D01*
X47782Y95333D01*
Y94667D01*
X47948Y94500D01*
X48282D01*
X48448Y94667D01*
Y95000D01*
X48115D01*
X48781Y94500D02*
Y95500D01*
X49448Y94500D01*
Y95500D01*
X49781D02*
Y94500D01*
X50281D01*
X50448Y94667D01*
Y95333D01*
X50281Y95500D01*
X49781D01*
X51780Y95167D02*
X51947D01*
Y95000D01*
X51780D01*
Y95167D01*
Y94667D02*
X51947D01*
Y94500D01*
X51780D01*
Y94667D01*
X53280Y95500D02*
X52947Y95333D01*
X52614Y95000D01*
Y94667D01*
X52780Y94500D01*
X53113D01*
X53280Y94667D01*
Y94833D01*
X53113Y95000D01*
X52614D01*
X61958Y87473D02*
X61791Y87640D01*
X61458D01*
X61291Y87473D01*
Y87307D01*
X61458Y87140D01*
X61791D01*
X61958Y86973D01*
Y86807D01*
X61791Y86640D01*
X61458D01*
X61291Y86807D01*
X62957Y87473D02*
X62791Y87640D01*
X62457D01*
X62291Y87473D01*
Y86807D01*
X62457Y86640D01*
X62791D01*
X62957Y86807D01*
X63290Y87640D02*
Y86640D01*
X63957D01*
X61958Y84933D02*
X61791Y85100D01*
X61458D01*
X61291Y84933D01*
Y84767D01*
X61458Y84600D01*
X61791D01*
X61958Y84433D01*
Y84267D01*
X61791Y84100D01*
X61458D01*
X61291Y84267D01*
X62291Y85100D02*
Y84100D01*
X62791D01*
X62957Y84267D01*
Y84933D01*
X62791Y85100D01*
X62291D01*
X63290Y84100D02*
Y84767D01*
X63624Y85100D01*
X63957Y84767D01*
Y84100D01*
Y84600D01*
X63290D01*
X67164Y49540D02*
X67830D01*
X67497D01*
Y48540D01*
X68164Y49540D02*
X68830Y48540D01*
Y49540D02*
X68164Y48540D01*
X67164Y46000D02*
Y47000D01*
X67664D01*
X67830Y46833D01*
Y46500D01*
X67664Y46333D01*
X67164D01*
X67497D02*
X67830Y46000D01*
X68164Y47000D02*
X68830Y46000D01*
Y47000D02*
X68164Y46000D01*
D43*
X5297Y108219D02*
X12897D01*
Y118719D01*
X5297D02*
X12897D01*
X5297Y108219D02*
Y118719D01*
Y57219D02*
X12897D01*
Y67719D01*
X5297D02*
X12897D01*
X5297Y57219D02*
Y67719D01*
Y74219D02*
X12897D01*
Y84719D01*
X5297D02*
X12897D01*
X5297Y74219D02*
Y84719D01*
Y91219D02*
X12897D01*
Y101719D01*
X5297D02*
X12897D01*
X5297Y91219D02*
Y101719D01*
D44*
X73790Y10940D02*
X76330Y13480D01*
X24270Y10940D02*
X26810Y8400D01*
X26000Y110000D02*
Y112000D01*
X35000D01*
Y110000D02*
Y112000D01*
X68340Y110000D02*
Y116000D01*
X56340D02*
X68340D01*
X56340Y110000D02*
Y116000D01*
X23000Y110000D02*
X26000D01*
X35000D02*
X56340D01*
X23000Y10940D02*
Y110000D01*
Y10940D02*
X24270D01*
X63630D02*
X73790D01*
X76330Y13480D02*
Y110000D01*
X68340D02*
X76330D01*
X61090Y8400D02*
X63630Y10940D01*
X26810Y8400D02*
X61090D01*
D45*
X82483Y49660D02*
Y108080D01*
X91703Y49660D02*
Y108080D01*
X82483Y49660D02*
X91703D01*
X82483Y108080D02*
X91703D01*
%TF.MD5,d33c16213223830b489a9a377b45b92c*%
M02*
