%TF.GenerationSoftware,Altium Limited,Altium Designer,21.8.1 (53)*%
G04 Layer_Color=16711935*
%FSLAX43Y43*%
%MOMM*%
%TF.SameCoordinates,8EB70333-0A29-48E7-A932-0FA81BCCDE64*%
%TF.FilePolarity,Positive*%
%TF.FileFunction,Other,Mechanical_13*%
%TF.Part,Single*%
G01*
G75*
%TA.AperFunction,NonConductor*%
%ADD11C,0.254*%
%ADD42C,0.200*%
%ADD45C,0.127*%
D11*
X85905Y27866D02*
Y33856D01*
X91895D01*
Y27866D02*
Y33856D01*
X85905Y27866D02*
X91895D01*
D42*
X85758Y108730D02*
G03*
X85758Y108730I-100J0D01*
G01*
X5297Y108219D02*
X12897D01*
Y118719D01*
X5297D02*
X12897D01*
X5297Y108219D02*
Y118719D01*
Y57219D02*
X12897D01*
Y67719D01*
X5297D02*
X12897D01*
X5297Y57219D02*
Y67719D01*
Y74219D02*
X12897D01*
Y84719D01*
X5297D02*
X12897D01*
X5297Y74219D02*
Y84719D01*
Y91219D02*
X12897D01*
Y101719D01*
X5297D02*
X12897D01*
X5297Y91219D02*
Y101719D01*
D45*
X82483Y49660D02*
X91703D01*
Y108080D01*
X82483D02*
X91703D01*
X82483Y49660D02*
Y108080D01*
Y49660D02*
X91703D01*
Y108080D01*
X82483D02*
X91703D01*
%TF.MD5,63d6dbaff6dc8531e21d89231cc2087e*%
M02*
