%TF.GenerationSoftware,Altium Limited,Altium Designer,21.8.1 (53)*%
G04 Layer_Color=16711935*
%FSLAX43Y43*%
%MOMM*%
%TF.SameCoordinates,8EB70333-0A29-48E7-A932-0FA81BCCDE64*%
%TF.FilePolarity,Negative*%
%TF.FileFunction,Soldermask,Bot*%
%TF.Part,Single*%
G01*
G75*
%TA.AperFunction,ComponentPad*%
%ADD29C,1.703*%
%ADD30R,1.703X1.703*%
%ADD31R,2.003X2.003*%
%ADD32C,2.003*%
%ADD33C,2.203*%
%ADD34C,1.727*%
%ADD35O,14.203X1.727*%
%ADD36C,1.803*%
%ADD37R,1.803X1.803*%
%ADD38R,2.003X2.003*%
%TA.AperFunction,WasherPad*%
%ADD39C,1.727*%
%TA.AperFunction,ComponentPad*%
%ADD40R,1.803X1.803*%
%TA.AperFunction,ViaPad*%
%ADD41C,1.473*%
D29*
X9858Y48354D02*
D03*
X12398D02*
D03*
Y45814D02*
D03*
X9858D02*
D03*
Y43274D02*
D03*
X12398D02*
D03*
Y40734D02*
D03*
X9858D02*
D03*
Y38194D02*
D03*
X12398D02*
D03*
Y35654D02*
D03*
X9858D02*
D03*
Y33114D02*
D03*
X12398D02*
D03*
Y30574D02*
D03*
X9858D02*
D03*
Y28034D02*
D03*
X12398D02*
D03*
Y25494D02*
D03*
X9858D02*
D03*
Y22954D02*
D03*
X12398D02*
D03*
Y20414D02*
D03*
X9858D02*
D03*
Y17874D02*
D03*
X12398D02*
D03*
Y15334D02*
D03*
X9858D02*
D03*
Y12794D02*
D03*
X12398D02*
D03*
X19540Y56660D02*
D03*
Y54120D02*
D03*
Y51580D02*
D03*
Y49040D02*
D03*
Y46500D02*
D03*
Y43960D02*
D03*
Y41420D02*
D03*
Y38880D02*
D03*
Y36340D02*
D03*
Y33800D02*
D03*
Y31260D02*
D03*
Y28720D02*
D03*
Y26180D02*
D03*
Y23640D02*
D03*
Y21100D02*
D03*
D30*
X12398Y10254D02*
D03*
X9858D02*
D03*
X19540Y59200D02*
D03*
D31*
X79790Y41420D02*
D03*
D32*
Y38880D02*
D03*
Y36340D02*
D03*
Y33800D02*
D03*
Y31260D02*
D03*
Y28720D02*
D03*
Y26180D02*
D03*
Y23640D02*
D03*
X86650Y27611D02*
D03*
Y34111D02*
D03*
X91150D02*
D03*
Y27611D02*
D03*
X68000Y89920D02*
D03*
X70540D02*
D03*
Y92460D02*
D03*
X68000D02*
D03*
X70540Y95000D02*
D03*
X68000D02*
D03*
X51790Y43400D02*
D03*
X49250D02*
D03*
Y45940D02*
D03*
X51790D02*
D03*
X54330D02*
D03*
Y43400D02*
D03*
X25540Y82060D02*
D03*
Y79520D02*
D03*
Y64280D02*
D03*
Y76980D02*
D03*
X73790Y23640D02*
D03*
Y26180D02*
D03*
Y28720D02*
D03*
Y31260D02*
D03*
Y33800D02*
D03*
Y36340D02*
D03*
Y38880D02*
D03*
Y41420D02*
D03*
D33*
X9397Y115969D02*
D03*
Y110969D02*
D03*
Y64969D02*
D03*
Y59969D02*
D03*
Y81969D02*
D03*
Y76969D02*
D03*
Y98969D02*
D03*
Y93969D02*
D03*
D34*
X73800Y19830D02*
D03*
Y94760D02*
D03*
X30620Y43960D02*
D03*
X25540Y13480D02*
D03*
Y96030D02*
D03*
D35*
X61830Y81400D02*
D03*
D36*
X73790Y90950D02*
D03*
Y88410D02*
D03*
Y85870D02*
D03*
Y80790D02*
D03*
Y78250D02*
D03*
Y75710D02*
D03*
Y73170D02*
D03*
Y70630D02*
D03*
Y68090D02*
D03*
Y64280D02*
D03*
Y61740D02*
D03*
Y59200D02*
D03*
Y56660D02*
D03*
Y54120D02*
D03*
Y51580D02*
D03*
Y49040D02*
D03*
Y46500D02*
D03*
X25540Y18560D02*
D03*
Y21100D02*
D03*
Y23640D02*
D03*
Y26180D02*
D03*
Y28720D02*
D03*
Y33800D02*
D03*
Y36340D02*
D03*
Y41420D02*
D03*
Y31260D02*
D03*
Y43960D02*
D03*
Y46500D02*
D03*
Y49040D02*
D03*
Y51580D02*
D03*
Y54120D02*
D03*
Y56660D02*
D03*
Y59200D02*
D03*
X33160Y13480D02*
D03*
X35700D02*
D03*
X38240D02*
D03*
X40780D02*
D03*
X43320D02*
D03*
X45860D02*
D03*
X48400D02*
D03*
X50940D02*
D03*
X53480D02*
D03*
X56020D02*
D03*
X58560D02*
D03*
X61100D02*
D03*
X63640D02*
D03*
X66180D02*
D03*
X68720D02*
D03*
X71260D02*
D03*
X33160Y16020D02*
D03*
X35700D02*
D03*
X38240D02*
D03*
X40780D02*
D03*
X43320D02*
D03*
X45860D02*
D03*
X48400D02*
D03*
X50940D02*
D03*
X53480D02*
D03*
X56020D02*
D03*
X58560D02*
D03*
X61100D02*
D03*
X63640D02*
D03*
X66180D02*
D03*
X68720D02*
D03*
X71260D02*
D03*
X88199Y54740D02*
D03*
X85659D02*
D03*
X88199Y57280D02*
D03*
X85659D02*
D03*
X88199Y59820D02*
D03*
X85659D02*
D03*
X88199Y62360D02*
D03*
X85659D02*
D03*
X88199Y64900D02*
D03*
X85659D02*
D03*
X88199Y67440D02*
D03*
X85659D02*
D03*
X88199Y69980D02*
D03*
X85659D02*
D03*
X88199Y72520D02*
D03*
X85659D02*
D03*
X88199Y75060D02*
D03*
X85659D02*
D03*
X88199Y77600D02*
D03*
X85659D02*
D03*
X88199Y80140D02*
D03*
X85659D02*
D03*
X88199Y82680D02*
D03*
X85659D02*
D03*
X88199Y85220D02*
D03*
X85659D02*
D03*
X88199Y87760D02*
D03*
X85659D02*
D03*
X88199Y90300D02*
D03*
X85659D02*
D03*
X88199Y92840D02*
D03*
X85659D02*
D03*
X88199Y95380D02*
D03*
X85659D02*
D03*
X88199Y97920D02*
D03*
X85659D02*
D03*
X88199Y100460D02*
D03*
X85659D02*
D03*
X88199Y103000D02*
D03*
D37*
X73790Y83330D02*
D03*
D38*
X25540Y66820D02*
D03*
Y69360D02*
D03*
Y71900D02*
D03*
Y74440D02*
D03*
X30620Y13480D02*
D03*
Y16020D02*
D03*
X73800Y13480D02*
D03*
Y16020D02*
D03*
D39*
X3000Y122000D02*
D03*
X96000D02*
D03*
Y3000D02*
D03*
X3000D02*
D03*
D40*
X85659Y103000D02*
D03*
D41*
X94107Y85217D02*
D03*
X94615Y112268D02*
D03*
X95631Y90678D02*
D03*
X41989Y90852D02*
D03*
X31067Y83359D02*
D03*
X61000Y65833D02*
D03*
X34877Y44243D02*
D03*
X61000Y71548D02*
D03*
Y74469D02*
D03*
Y69135D02*
D03*
X60023Y56308D02*
D03*
%TF.MD5,b87591d2d682a29d85a27e2abb583fcc*%
M02*
