M48
;Layer_Color=9474304
;FILE_FORMAT=4:3
METRIC,LZ
;TYPE=PLATED
T1F00S00C0.711
T2F00S00C0.900
T3F00S00C1.000
T4F00S00C1.300
;TYPE=NON_PLATED
T6F00S00C4.000
%
T01
X0034877Y0044243
X0031067Y0083359
X0041989Y0090852
X0061Y0074469
Y0071548
Y0069135
Y0065833
X0060023Y0056308
X0094107Y0085217
X0095631Y0090678
X0094615Y0112268
T02
X001954Y00211
Y002364
Y002618
Y002872
Y003126
Y00338
Y003634
Y003888
Y004142
Y004396
Y00465
Y004904
Y005158
Y005412
Y005666
Y00592
X0085659Y005982
Y005728
Y005474
X0088199
Y005728
Y005982
Y006236
X0085659
Y00649
X0088199
Y006744
X0085659
Y006998
X0088199
Y007252
X0085659
Y007506
X0088199
Y00776
X0085659
Y008014
X0088199
Y008268
X0085659
Y008522
X0088199
Y008776
X0085659
Y00903
X0088199
Y009284
X0085659
Y009538
X0088199
Y009792
X0085659
Y010046
X0088199
Y0103
X0085659
T03
X0009858Y0010254
Y0012794
X0012398
Y0010254
X003062Y001348
X003316
X00357
X003824
X004078
X004332
X004586
X00484
X005094
X005348
X005602
X005856
X00611
X006364
X006618
X006872
X007126
X00738
Y001602
X007126
X006872
X006618
X006364
X00611
X005856
X005602
X007379Y002364
Y002618
Y002872
Y003126
Y00338
Y003634
Y003888
Y004142
Y00465
Y004904
Y005158
X007979Y004142
Y003888
Y003634
Y00338
Y003126
Y002872
Y002618
Y002364
X008665Y0027611
X009115
Y0034111
X008665
X005433Y00434
Y004594
X005179
Y00434
X004925
Y004594
X002554Y00465
Y004396
Y004142
Y003634
Y00338
Y003126
Y002872
Y002618
Y002364
Y00211
Y001856
X003062Y001602
X003316
X00357
X003824
X004078
X004332
X004586
X00484
X005094
X005348
X002554Y004904
Y005158
X0012398Y0048354
X0009858
Y0045814
X0012398
Y0043274
X0009858
Y0040734
X0012398
Y0038194
X0009858
Y0035654
X0012398
Y0033114
X0009858
Y0030574
X0012398
Y0028034
X0009858
Y0025494
X0012398
Y0022954
X0009858
Y0020414
X0012398
Y0017874
X0009858
Y0015334
X0012398
X002554Y005412
Y005666
Y00592
Y006428
Y006682
Y006936
Y00719
Y007444
Y007698
Y007952
Y008206
X007379Y008333
Y008587
Y008841
Y009095
X007054Y008992
X0068
Y009246
X007054
X007379Y008079
Y007825
Y007571
Y007317
Y007063
Y006809
Y006428
Y006174
Y00592
Y005666
Y005412
X007054Y0095
X0068
T04
X0009397Y0059969
Y0064969
Y0076969
Y0081969
Y0093969
Y0098969
Y0110969
Y0115969
T06
X0003Y0003
X002554Y001348
X0096Y0003
X00738Y001983
X003062Y004396
X0096Y0122
X00738Y009476
X002554Y009603
X0003Y0122
M30
