%TF.GenerationSoftware,Altium Limited,Altium Designer,21.8.1 (53)*%
G04 Layer_Physical_Order=3*
G04 Layer_Color=16440176*
%FSLAX43Y43*%
%MOMM*%
%TF.SameCoordinates,8EB70333-0A29-48E7-A932-0FA81BCCDE64*%
%TF.FilePolarity,Positive*%
%TF.FileFunction,Copper,L3,Inr,Signal*%
%TF.Part,Single*%
G01*
G75*
%TA.AperFunction,Conductor*%
%ADD12C,0.400*%
%ADD13C,0.800*%
%TA.AperFunction,ComponentPad*%
%ADD16C,1.500*%
%ADD17R,1.500X1.500*%
%ADD18R,1.800X1.800*%
%ADD19C,1.800*%
%ADD20C,2.000*%
%ADD21C,1.524*%
%ADD22O,14.000X1.524*%
%ADD23C,1.600*%
%ADD24R,1.600X1.600*%
%ADD25R,1.800X1.800*%
%TA.AperFunction,WasherPad*%
%ADD26C,1.524*%
%TA.AperFunction,ComponentPad*%
%ADD27R,1.600X1.600*%
%TA.AperFunction,ViaPad*%
%ADD28C,1.270*%
D12*
X93651Y110283D02*
X94107Y109827D01*
Y85217D02*
Y109827D01*
X91059Y95380D02*
X92889D01*
X91031Y59820D02*
X91265Y59586D01*
Y43715D02*
Y59586D01*
X88199Y59820D02*
X91031D01*
Y43481D02*
X91265Y43715D01*
X70183Y43481D02*
X91031D01*
X88199Y57280D02*
X88243Y57324D01*
X89888D02*
X90122Y57090D01*
Y45112D02*
Y57090D01*
X70056Y44878D02*
X89888D01*
X88243Y57324D02*
X89888D01*
Y44878D02*
X90122Y45112D01*
X20018Y110283D02*
X93651D01*
X92889Y95380D02*
X93123Y95614D01*
X92889Y109140D02*
X93123Y108906D01*
X20653Y109140D02*
X92889D01*
X93123Y95614D02*
Y108906D01*
X92000Y97710D02*
X92234Y97944D01*
X92000Y107870D02*
X92234Y107636D01*
X88409Y97710D02*
X92000D01*
X21923Y107870D02*
X92000D01*
X92234Y97944D02*
Y107636D01*
X51790Y43400D02*
X53360Y41830D01*
X18830Y52834D02*
X32956D01*
X15192Y62658D02*
X45672D01*
X15954Y61769D02*
X45037D01*
X16970Y60880D02*
X44402D01*
X25053Y55374D02*
X41780D01*
X27892Y59737D02*
X43386D01*
X41780Y55374D02*
X42878Y54276D01*
X43386Y59737D02*
X44148Y58975D01*
X44402Y60880D02*
X45545Y59737D01*
X45037Y61769D02*
X45672Y61134D01*
Y60753D02*
Y61134D01*
Y60753D02*
X46307Y60118D01*
X45672Y62658D02*
X47196Y61134D01*
X26101Y57946D02*
X27892Y59737D01*
X32956Y52834D02*
X33038Y52752D01*
X40973D01*
X38351Y47754D02*
X39449Y46656D01*
X40973Y52752D02*
X41354Y52371D01*
X42878Y18118D02*
Y54276D01*
X44148Y33956D02*
Y58975D01*
X45545Y34591D02*
Y59737D01*
X46307Y36242D02*
Y60118D01*
X47196Y37893D02*
Y61134D01*
X19136Y55419D02*
X25008D01*
X18380Y57946D02*
X26101D01*
X25008Y55419D02*
X25053Y55374D01*
X17986Y65579D02*
X19285Y64280D01*
X25540D01*
X69421Y6016D02*
X70006Y6601D01*
X67282Y6778D02*
X67516Y7012D01*
X63833Y7667D02*
X64926Y8760D01*
X67516Y7012D02*
Y10892D01*
X61294Y8410D02*
X62386Y9502D01*
X59231Y9064D02*
X59846Y9679D01*
X70006Y6601D02*
Y14766D01*
X67466Y10942D02*
X67516Y10892D01*
X64926Y8760D02*
Y14766D01*
X62386Y9502D02*
Y14766D01*
X59846Y9679D02*
Y14766D01*
X67466Y10942D02*
Y14766D01*
X59846D02*
X61100Y16020D01*
X64926Y14766D02*
X66180Y16020D01*
X62386Y14766D02*
X63640Y16020D01*
X67466Y14766D02*
X68720Y16020D01*
X70006Y14766D02*
X71260Y16020D01*
X53360Y41830D02*
X68532D01*
X70183Y43481D01*
X54330Y43400D02*
X68578D01*
X70056Y44878D01*
X88199Y97920D02*
X88409Y97710D01*
X74814Y92304D02*
X80089Y97579D01*
X70540Y89920D02*
X72924Y92304D01*
X74814D01*
X80406Y97920D02*
X85659D01*
X61000Y65833D02*
X75898D01*
X77930Y67865D02*
Y75993D01*
X82077Y80140D02*
X85659D01*
X77930Y75993D02*
X82077Y80140D01*
X13668Y6016D02*
X69421D01*
X14283Y6778D02*
X67282D01*
X57306Y14766D02*
X58560Y16020D01*
X75898Y65833D02*
X77930Y67865D01*
X88199Y85220D02*
X88369Y85391D01*
X80089Y97579D02*
Y97603D01*
X80406Y97920D01*
X44431Y88410D02*
X73790D01*
X4143Y29604D02*
Y54276D01*
X4886Y32832D02*
Y53495D01*
X5540Y34684D02*
Y52681D01*
X6302Y37042D02*
Y52518D01*
Y37042D02*
X6536Y36808D01*
X7318Y39925D02*
Y51355D01*
X7572Y51609D01*
X7318Y39925D02*
X7713Y39530D01*
X6536Y36808D02*
X9133D01*
X8207Y43222D02*
Y50105D01*
X8441Y50339D01*
X8207Y43222D02*
X9359Y42070D01*
X9133Y36808D02*
X9183Y36858D01*
X7713Y39530D02*
X11194D01*
X12398Y7286D02*
Y10254D01*
Y7286D02*
X13668Y6016D01*
X12398Y12794D02*
X14049Y11143D01*
X12398Y15334D02*
X14703Y13029D01*
X14049Y7012D02*
Y11143D01*
Y7012D02*
X14283Y6778D01*
X12398Y17874D02*
X15954Y14318D01*
X14703Y9025D02*
Y13029D01*
X12398Y20414D02*
X17224Y15588D01*
X14703Y9025D02*
X16061Y7667D01*
X12398Y22954D02*
X18367Y16985D01*
X15954Y8790D02*
Y14318D01*
Y8790D02*
X16334Y8410D01*
X17224Y10461D02*
Y15588D01*
Y10461D02*
X18621Y9064D01*
X18367Y10568D02*
Y16985D01*
Y10568D02*
X19217Y9718D01*
X19510Y11985D02*
Y17573D01*
X18336Y19672D02*
X21796Y16212D01*
X19510Y11985D02*
X21123Y10372D01*
X21796Y12092D02*
Y16212D01*
Y12092D02*
X22862Y11026D01*
X4143Y29604D02*
X4377Y29370D01*
X4886Y32832D02*
X5808Y31910D01*
X5540Y34684D02*
X5774Y34450D01*
X4377Y29370D02*
X11194D01*
X5774Y34450D02*
X11194D01*
X5808Y31910D02*
X11194D01*
Y29370D02*
X12398Y30574D01*
X11194Y34450D02*
X12398Y35654D01*
X11194Y31910D02*
X12398Y33114D01*
Y25494D02*
X12548Y25344D01*
Y24535D02*
Y25344D01*
X12398Y28034D02*
X18336Y22096D01*
X12548Y24535D02*
X19510Y17573D01*
X18336Y19672D02*
Y22096D01*
X22862Y11026D02*
X50555D01*
X19217Y9718D02*
X55470D01*
X21123Y10372D02*
X53611D01*
X16334Y8410D02*
X61294D01*
X18621Y9064D02*
X59231D01*
X16061Y7667D02*
X63833D01*
X55470Y9718D02*
X57306Y11554D01*
Y14766D01*
X53611Y10372D02*
X54766Y11527D01*
X50555Y11026D02*
X52226Y12697D01*
Y14766D01*
X53480Y16020D01*
X54766Y11527D02*
Y14766D01*
X56020Y16020D01*
X41354Y19134D02*
Y52371D01*
X33160Y16020D02*
X39449Y22309D01*
Y46656D01*
X38240Y16020D02*
X41354Y19134D01*
X9183Y36858D02*
X11062D01*
X9359Y42070D02*
X11194D01*
X11062Y36858D02*
X12398Y38194D01*
X11194Y39530D02*
X12398Y40734D01*
X11194Y42070D02*
X12398Y43274D01*
X8441Y50339D02*
X16335D01*
X12398Y48354D02*
X18523D01*
X16335Y50339D02*
X18830Y52834D01*
X17986Y108251D02*
X20018Y110283D01*
X19256Y78787D02*
Y107743D01*
X20653Y109140D01*
X17986Y65579D02*
Y108251D01*
X20653Y81454D02*
Y106600D01*
X21923Y107870D01*
X7572Y51609D02*
X15593D01*
X14069Y56181D02*
X14303Y56415D01*
Y61769D01*
X15192Y62658D01*
X14430Y55038D02*
X15192Y55800D01*
Y61007D01*
X14811Y54022D02*
X16335Y55546D01*
X15192Y61007D02*
X15954Y61769D01*
X16335Y55546D02*
Y60245D01*
X15593Y51609D02*
X17317Y53333D01*
X15065Y52752D02*
X18113Y55800D01*
X16335Y60245D02*
X16970Y60880D01*
X17317Y53333D02*
Y53600D01*
X18113Y55800D02*
Y57679D01*
X17317Y53600D02*
X19136Y55419D01*
X18113Y57679D02*
X18380Y57946D01*
X18523Y48354D02*
X19123Y47754D01*
X38351D01*
X40780Y16020D02*
X42878Y18118D01*
X43320Y16020D02*
X45545Y18245D01*
X44148Y33956D02*
X45545Y32559D01*
Y18245D02*
Y32559D01*
Y34591D02*
X46942Y33194D01*
X45860Y16020D02*
X46942Y17102D01*
Y33194D01*
X46307Y36242D02*
X48400Y34149D01*
Y16020D02*
Y34149D01*
X47196Y37893D02*
X50940Y34149D01*
Y16020D02*
Y34149D01*
X6302Y52518D02*
X6536Y52752D01*
X4143Y54276D02*
X6048Y56181D01*
X4886Y53495D02*
X6429Y55038D01*
X5540Y52681D02*
X6881Y54022D01*
X6048Y56181D02*
X14069D01*
X6429Y55038D02*
X14430D01*
X6536Y52752D02*
X15065D01*
X6881Y54022D02*
X14811D01*
X19256Y78787D02*
X21063Y76980D01*
X25540D01*
X20653Y81454D02*
X22587Y79520D01*
X25540D01*
X41989Y90852D02*
X44431Y88410D01*
D13*
X93599Y38100D02*
Y81915D01*
X91059Y84455D02*
X93599Y81915D01*
X92837Y37338D02*
X93599Y38100D01*
X86650Y36866D02*
X87122Y37338D01*
X86650Y34111D02*
Y36866D01*
X87122Y37338D02*
X92837D01*
X91059Y84455D02*
Y95380D01*
X88199D02*
X91059D01*
D16*
X9858Y48354D02*
D03*
X12398D02*
D03*
Y45814D02*
D03*
X9858D02*
D03*
Y43274D02*
D03*
X12398D02*
D03*
Y40734D02*
D03*
X9858D02*
D03*
Y38194D02*
D03*
X12398D02*
D03*
Y35654D02*
D03*
X9858D02*
D03*
Y33114D02*
D03*
X12398D02*
D03*
Y30574D02*
D03*
X9858D02*
D03*
Y28034D02*
D03*
X12398D02*
D03*
Y25494D02*
D03*
X9858D02*
D03*
Y22954D02*
D03*
X12398D02*
D03*
Y20414D02*
D03*
X9858D02*
D03*
Y17874D02*
D03*
X12398D02*
D03*
Y15334D02*
D03*
X9858D02*
D03*
Y12794D02*
D03*
X12398D02*
D03*
X19540Y56660D02*
D03*
Y54120D02*
D03*
Y51580D02*
D03*
Y49040D02*
D03*
Y46500D02*
D03*
Y43960D02*
D03*
Y41420D02*
D03*
Y38880D02*
D03*
Y36340D02*
D03*
Y33800D02*
D03*
Y31260D02*
D03*
Y28720D02*
D03*
Y26180D02*
D03*
Y23640D02*
D03*
Y21100D02*
D03*
D17*
X12398Y10254D02*
D03*
X9858D02*
D03*
X19540Y59200D02*
D03*
D18*
X79790Y41420D02*
D03*
D19*
Y38880D02*
D03*
Y36340D02*
D03*
Y33800D02*
D03*
Y31260D02*
D03*
Y28720D02*
D03*
Y26180D02*
D03*
Y23640D02*
D03*
X86650Y27611D02*
D03*
Y34111D02*
D03*
X91150D02*
D03*
Y27611D02*
D03*
X68000Y89920D02*
D03*
X70540D02*
D03*
Y92460D02*
D03*
X68000D02*
D03*
X70540Y95000D02*
D03*
X68000D02*
D03*
X51790Y43400D02*
D03*
X49250D02*
D03*
Y45940D02*
D03*
X51790D02*
D03*
X54330D02*
D03*
Y43400D02*
D03*
X25540Y82060D02*
D03*
Y79520D02*
D03*
Y64280D02*
D03*
Y76980D02*
D03*
X73790Y23640D02*
D03*
Y26180D02*
D03*
Y28720D02*
D03*
Y31260D02*
D03*
Y33800D02*
D03*
Y36340D02*
D03*
Y38880D02*
D03*
Y41420D02*
D03*
D20*
X9397Y115969D02*
D03*
Y110969D02*
D03*
Y64969D02*
D03*
Y59969D02*
D03*
Y81969D02*
D03*
Y76969D02*
D03*
Y98969D02*
D03*
Y93969D02*
D03*
D21*
X73800Y19830D02*
D03*
Y94760D02*
D03*
X30620Y43960D02*
D03*
X25540Y13480D02*
D03*
Y96030D02*
D03*
D22*
X61830Y81400D02*
D03*
D23*
X73790Y90950D02*
D03*
Y88410D02*
D03*
Y85870D02*
D03*
Y80790D02*
D03*
Y78250D02*
D03*
Y75710D02*
D03*
Y73170D02*
D03*
Y70630D02*
D03*
Y68090D02*
D03*
Y64280D02*
D03*
Y61740D02*
D03*
Y59200D02*
D03*
Y56660D02*
D03*
Y54120D02*
D03*
Y51580D02*
D03*
Y49040D02*
D03*
Y46500D02*
D03*
X25540Y18560D02*
D03*
Y21100D02*
D03*
Y23640D02*
D03*
Y26180D02*
D03*
Y28720D02*
D03*
Y33800D02*
D03*
Y36340D02*
D03*
Y41420D02*
D03*
Y31260D02*
D03*
Y43960D02*
D03*
Y46500D02*
D03*
Y49040D02*
D03*
Y51580D02*
D03*
Y54120D02*
D03*
Y56660D02*
D03*
Y59200D02*
D03*
X33160Y13480D02*
D03*
X35700D02*
D03*
X38240D02*
D03*
X40780D02*
D03*
X43320D02*
D03*
X45860D02*
D03*
X48400D02*
D03*
X50940D02*
D03*
X53480D02*
D03*
X56020D02*
D03*
X58560D02*
D03*
X61100D02*
D03*
X63640D02*
D03*
X66180D02*
D03*
X68720D02*
D03*
X71260D02*
D03*
X33160Y16020D02*
D03*
X35700D02*
D03*
X38240D02*
D03*
X40780D02*
D03*
X43320D02*
D03*
X45860D02*
D03*
X48400D02*
D03*
X50940D02*
D03*
X53480D02*
D03*
X56020D02*
D03*
X58560D02*
D03*
X61100D02*
D03*
X63640D02*
D03*
X66180D02*
D03*
X68720D02*
D03*
X71260D02*
D03*
X88199Y54740D02*
D03*
X85659D02*
D03*
X88199Y57280D02*
D03*
X85659D02*
D03*
X88199Y59820D02*
D03*
X85659D02*
D03*
X88199Y62360D02*
D03*
X85659D02*
D03*
X88199Y64900D02*
D03*
X85659D02*
D03*
X88199Y67440D02*
D03*
X85659D02*
D03*
X88199Y69980D02*
D03*
X85659D02*
D03*
X88199Y72520D02*
D03*
X85659D02*
D03*
X88199Y75060D02*
D03*
X85659D02*
D03*
X88199Y77600D02*
D03*
X85659D02*
D03*
X88199Y80140D02*
D03*
X85659D02*
D03*
X88199Y82680D02*
D03*
X85659D02*
D03*
X88199Y85220D02*
D03*
X85659D02*
D03*
X88199Y87760D02*
D03*
X85659D02*
D03*
X88199Y90300D02*
D03*
X85659D02*
D03*
X88199Y92840D02*
D03*
X85659D02*
D03*
X88199Y95380D02*
D03*
X85659D02*
D03*
X88199Y97920D02*
D03*
X85659D02*
D03*
X88199Y100460D02*
D03*
X85659D02*
D03*
X88199Y103000D02*
D03*
D24*
X73790Y83330D02*
D03*
D25*
X25540Y66820D02*
D03*
Y69360D02*
D03*
Y71900D02*
D03*
Y74440D02*
D03*
X30620Y13480D02*
D03*
Y16020D02*
D03*
X73800Y13480D02*
D03*
Y16020D02*
D03*
D26*
X3000Y122000D02*
D03*
X96000D02*
D03*
Y3000D02*
D03*
X3000D02*
D03*
D27*
X85659Y103000D02*
D03*
D28*
X94107Y85217D02*
D03*
X94615Y112268D02*
D03*
X95631Y90678D02*
D03*
X41989Y90852D02*
D03*
X31067Y83359D02*
D03*
X61000Y65833D02*
D03*
X34877Y44243D02*
D03*
X61000Y71548D02*
D03*
Y74469D02*
D03*
Y69135D02*
D03*
X60023Y56308D02*
D03*
%TF.MD5,a4e2d8366e7de11d43870fe587e6fd96*%
M02*
