%TF.GenerationSoftware,Altium Limited,Altium Designer,21.8.1 (53)*%
G04 Layer_Physical_Order=1*
G04 Layer_Color=255*
%FSLAX43Y43*%
%MOMM*%
%TF.SameCoordinates,5F523219-7FD1-4E24-926C-018E4D8E6641*%
%TF.FilePolarity,Positive*%
%TF.FileFunction,Copper,L1,Top,Signal*%
%TF.Part,Single*%
G01*
G75*
%TA.AperFunction,NonConductor*%
%ADD10C,0.203*%
%TA.AperFunction,Conductor*%
%ADD11C,3.000*%
%ADD12C,0.400*%
%TA.AperFunction,ComponentPad*%
%ADD13O,1.000X2.000*%
%ADD14O,1.000X2.000*%
%ADD15C,3.500*%
%ADD16C,1.524*%
%ADD17O,12.000X3.500*%
%ADD18C,1.400*%
%ADD19C,1.416*%
%ADD20R,1.500X1.500*%
%ADD21C,1.500*%
%TA.AperFunction,ViaPad*%
%ADD22C,1.524*%
%TA.AperFunction,ComponentPad*%
%ADD23C,1.800*%
D10*
X66356Y57000D02*
G03*
X66356Y57000I-2356J0D01*
G01*
D02*
G03*
X66356Y57000I-2356J0D01*
G01*
X57350Y26437D02*
G03*
X57838Y28670I-4868J2233D01*
G01*
D02*
G03*
X57350Y30903I-5356J0D01*
G01*
X31000Y50517D02*
G03*
X31483Y51000I0J483D01*
G01*
X31000Y50517D02*
G03*
X31483Y51000I0J483D01*
G01*
X50838Y47670D02*
G03*
X50838Y47670I-2356J0D01*
G01*
D02*
G03*
X50838Y47670I-2356J0D01*
G01*
X30909Y21463D02*
G03*
X30909Y21463I-1064J0D01*
G01*
X28369D02*
G03*
X28369Y21463I-1064J0D01*
G01*
X22860Y28242D02*
G03*
X22467Y28079I0J-556D01*
G01*
X22860Y28242D02*
G03*
X22467Y28079I0J-556D01*
G01*
X22922Y18486D02*
G03*
X21431Y19059I-856J0D01*
G01*
X47482Y16314D02*
G03*
X49477Y16700I0J5356D01*
G01*
X66356Y4000D02*
G03*
X66356Y4000I-2356J0D01*
G01*
D02*
G03*
X66356Y4000I-2356J0D01*
G01*
X50838Y9670D02*
G03*
X50838Y9670I-2356J0D01*
G01*
D02*
G03*
X50838Y9670I-2356J0D01*
G01*
X43487Y16700D02*
G03*
X45482Y16314I1995J4970D01*
G01*
X22622Y16835D02*
G03*
X22922Y17486I-556J651D01*
G01*
X21431Y16913D02*
G03*
X21510Y16835I635J573D01*
G01*
X22459Y14986D02*
G03*
X22622Y15379I-393J393D01*
G01*
X22459Y14986D02*
G03*
X22622Y15379I-393J393D01*
G01*
X34711Y14224D02*
G03*
X34711Y14224I-1056J0D01*
G01*
X31450Y7334D02*
G03*
X31450Y7334I-1256J0D01*
G01*
Y9874D02*
G03*
X31450Y9874I-1256J0D01*
G01*
X27091Y14224D02*
G03*
X27091Y14224I-1056J0D01*
G01*
X21044Y8561D02*
G03*
X23106Y9117I956J556D01*
G01*
D02*
G03*
X21044Y9673I-1106J0D01*
G01*
X21832Y14589D02*
G03*
X22225Y14752I0J556D01*
G01*
X21832Y14589D02*
G03*
X22225Y14752I0J556D01*
G01*
X23106Y6577D02*
G03*
X23106Y6577I-1106J0D01*
G01*
X21407Y33242D02*
G03*
X21407Y33242I-1118J0D01*
G01*
X19133Y24745D02*
G03*
X18970Y24352I393J-393D01*
G01*
X19133Y24745D02*
G03*
X18970Y24352I393J-393D01*
G01*
X21431Y19059D02*
G03*
X20161Y19059I-635J-573D01*
G01*
Y16913D02*
G03*
X21431Y16913I635J573D01*
G01*
X18670Y17486D02*
G03*
X20161Y16913I856J0D01*
G01*
X18970Y19137D02*
G03*
X18670Y18486I556J-651D01*
G01*
X20161Y19059D02*
G03*
X20082Y19137I-635J-573D01*
G01*
X15350Y18186D02*
G03*
X16042Y19177I-364J991D01*
G01*
D02*
G03*
X14239Y18431I-1056J0D01*
G01*
X15188Y17702D02*
G03*
X15350Y18095I-393J393D01*
G01*
X15188Y17702D02*
G03*
X15350Y18095I-393J393D01*
G01*
X6356Y47000D02*
G03*
X6356Y47000I-2356J0D01*
G01*
D02*
G03*
X6356Y47000I-2356J0D01*
G01*
X6059Y29083D02*
G03*
X6059Y29083I-1106J0D01*
G01*
Y26543D02*
G03*
X6059Y26543I-1106J0D01*
G01*
X6789Y20540D02*
G03*
X6396Y20703I-393J-393D01*
G01*
X8422Y19177D02*
G03*
X7124Y20205I-1056J0D01*
G01*
X6789Y20540D02*
G03*
X6396Y20703I-393J-393D01*
G01*
X6338Y19419D02*
G03*
X8422Y19177I1028J-242D01*
G01*
X6956Y17700D02*
G03*
X6793Y18093I-556J0D01*
G01*
X6956Y17700D02*
G03*
X6793Y18093I-556J0D01*
G01*
X5844Y16278D02*
G03*
X6007Y15885I556J0D01*
G01*
X5844Y16278D02*
G03*
X6007Y15885I556J0D01*
G01*
X4397Y19147D02*
G03*
X4560Y18754I556J0D01*
G01*
X4397Y19147D02*
G03*
X4560Y18754I556J0D01*
G01*
X5056Y17610D02*
G03*
X5056Y17610I-1056J0D01*
G01*
X19844Y15701D02*
G03*
X19451Y15538I0J-556D01*
G01*
X19844Y15701D02*
G03*
X19451Y15538I0J-556D01*
G01*
X16042Y15311D02*
G03*
X16042Y15311I-1056J0D01*
G01*
X15450Y11537D02*
G03*
X15287Y11144I393J-393D01*
G01*
X15450Y11537D02*
G03*
X15287Y11144I393J-393D01*
G01*
X13859Y11716D02*
G03*
X13696Y12109I-556J0D01*
G01*
X13859Y11716D02*
G03*
X13696Y12109I-556J0D01*
G01*
X20420Y9673D02*
G03*
X20027Y9510I0J-556D01*
G01*
X20420Y9673D02*
G03*
X20027Y9510I0J-556D01*
G01*
X17099Y8334D02*
G03*
X16399Y9460I-1256J0D01*
G01*
X17145Y5286D02*
G03*
X17538Y5449I0J556D01*
G01*
X17145Y5286D02*
G03*
X17538Y5449I0J556D01*
G01*
X15287Y9460D02*
G03*
X17099Y8334I556J-1126D01*
G01*
X13859Y7208D02*
G03*
X14559Y8334I-556J1126D01*
G01*
D02*
G03*
X13859Y9460I-1256J0D01*
G01*
X11291Y15377D02*
G03*
X11128Y14984I393J-393D01*
G01*
Y13335D02*
G03*
X11291Y12942I556J0D01*
G01*
X11128Y13335D02*
G03*
X11291Y12942I556J0D01*
G01*
X8422Y15311D02*
G03*
X7124Y16339I-1056J0D01*
G01*
X6338Y15553D02*
G03*
X8422Y15311I1028J-242D01*
G01*
X11291Y15377D02*
G03*
X11128Y14984I393J-393D01*
G01*
X7403Y10383D02*
G03*
X7010Y10546I-393J-393D01*
G01*
X12747Y9460D02*
G03*
X12747Y7208I556J-1126D01*
G01*
X12019Y8334D02*
G03*
X9637Y8890I-1256J0D01*
G01*
X7403Y10383D02*
G03*
X7010Y10546I-393J-393D01*
G01*
X4898D02*
G03*
X4898Y9434I-898J-556D01*
G01*
X9637Y7778D02*
G03*
X12019Y8334I1126J556D01*
G01*
X13323Y5449D02*
G03*
X13716Y5286I393J393D01*
G01*
X12747Y6255D02*
G03*
X12910Y5862I556J0D01*
G01*
X12747Y6255D02*
G03*
X12910Y5862I556J0D01*
G01*
X8273Y7941D02*
G03*
X8666Y7778I393J393D01*
G01*
X8273Y7941D02*
G03*
X8666Y7778I393J393D01*
G01*
X13323Y5449D02*
G03*
X13716Y5286I393J393D01*
G01*
X6356Y4000D02*
G03*
X6356Y4000I-2356J0D01*
G01*
D02*
G03*
X6356Y4000I-2356J0D01*
G01*
X66133Y60517D02*
X67517Y59133D01*
X66851Y60517D02*
X67517Y59851D01*
X65414Y60517D02*
X67517Y58414D01*
X64917Y59170D02*
X66265Y60517D01*
X65377Y58911D02*
X66983Y60517D01*
X66055Y58152D02*
X67517Y59615D01*
X66266Y57645D02*
X67517Y58896D01*
X65755Y58571D02*
X67517Y60333D01*
X64696Y60517D02*
X67517Y57696D01*
X61822Y60517D02*
X63145Y59195D01*
X61104Y60517D02*
X62674Y58947D01*
X60385Y60517D02*
X62286Y58616D01*
X59667Y60517D02*
X61977Y58207D01*
X58948Y60517D02*
X61754Y57711D01*
X64357Y59328D02*
X65546Y60517D01*
X63638Y59328D02*
X64828Y60517D01*
X62540D02*
X63719Y59339D01*
X63259Y60517D02*
X64467Y59309D01*
X55356Y60517D02*
X67517Y48356D01*
X56075Y60517D02*
X67517Y49075D01*
X54638Y60517D02*
X67517Y47638D01*
X53919Y60517D02*
X67517Y46919D01*
X53201Y60517D02*
X67517Y46201D01*
X52483Y60517D02*
X67517Y45483D01*
X51764Y60517D02*
X67517Y44764D01*
X51046Y60517D02*
X67517Y44046D01*
X51363Y40587D02*
X67517Y56741D01*
X63977Y60517D02*
X67517Y56977D01*
X58230Y60517D02*
X61647Y57101D01*
X57511Y60517D02*
X61761Y56268D01*
X56793Y60517D02*
X67517Y49793D01*
X66356Y57016D02*
X67517Y58178D01*
X66309Y57467D02*
X67517Y56259D01*
X66190Y56132D02*
X67517Y57459D01*
X50100Y49382D02*
X61236Y60517D01*
X49691Y49691D02*
X60517Y60517D01*
X50431Y48994D02*
X61954Y60517D01*
X49196Y49915D02*
X59799Y60517D01*
X49691Y49691D02*
X60517Y60517D01*
X50821Y47948D02*
X63391Y60517D01*
X50790Y47198D02*
X64110Y60517D01*
X31483D02*
X67517D01*
X50678Y48523D02*
X62673Y60517D01*
X43461Y48489D02*
X55488Y60517D01*
X43101Y48849D02*
X54770Y60517D01*
X43820Y48130D02*
X56207Y60517D01*
X41816Y49000D02*
X53333Y60517D01*
X42534Y49000D02*
X54052Y60517D01*
X48586Y50023D02*
X59081Y60517D01*
X47756Y49911D02*
X58362Y60517D01*
X44179Y47771D02*
X56925Y60517D01*
X44538Y47412D02*
X57644Y60517D01*
X43861D02*
X67517Y36861D01*
X44580Y60517D02*
X67517Y37580D01*
X43143Y60517D02*
X67517Y36143D01*
X42425Y60517D02*
X67517Y35425D01*
X41706Y60517D02*
X67517Y34706D01*
X40988Y60517D02*
X67517Y33988D01*
X40269Y60517D02*
X67517Y33269D01*
X39551Y60517D02*
X67517Y32551D01*
X31648Y60517D02*
X67517Y24648D01*
X49609Y60517D02*
X67517Y42609D01*
X50327Y60517D02*
X67517Y43327D01*
X48890Y60517D02*
X67517Y41890D01*
X48172Y60517D02*
X67517Y41172D01*
X47454Y60517D02*
X67517Y40454D01*
X48130Y43820D02*
X61672Y57362D01*
X46735Y60517D02*
X67517Y39735D01*
X46017Y60517D02*
X67517Y39017D01*
X45298Y60517D02*
X67517Y38298D01*
X57350Y32205D02*
X67517Y42373D01*
X57350Y32924D02*
X67517Y43091D01*
X57350Y31487D02*
X67517Y41654D01*
X57350Y34361D02*
X67517Y44528D01*
X57350Y33642D02*
X67517Y43810D01*
X57734Y29716D02*
X67517Y39499D01*
X57822Y29085D02*
X67517Y38781D01*
X57391Y30810D02*
X67517Y40936D01*
X57588Y30288D02*
X67517Y40217D01*
X66195Y56145D02*
X67517Y54822D01*
X66339Y56719D02*
X67517Y55540D01*
X65947Y55674D02*
X67517Y54104D01*
X65616Y55286D02*
X67517Y53385D01*
X65207Y54977D02*
X67517Y52667D01*
X64711Y54754D02*
X67517Y51948D01*
X64101Y54647D02*
X67517Y51230D01*
X63268Y54761D02*
X67517Y50511D01*
X57350Y30903D02*
Y34600D01*
Y31224D02*
X67517Y21056D01*
X57350Y32660D02*
X67517Y22493D01*
X57597Y30259D02*
X67517Y20338D01*
X57350Y34097D02*
X67517Y23930D01*
X57350Y33379D02*
X67517Y23211D01*
X57795Y29341D02*
X67517Y19619D01*
X57837Y28581D02*
X67517Y18901D01*
X57784Y27916D02*
X67517Y18183D01*
X57664Y27317D02*
X67517Y17464D01*
X57718Y27544D02*
X67517Y37344D01*
X57829Y28374D02*
X67517Y38062D01*
X57367Y26475D02*
X67517Y36625D01*
X57350Y25739D02*
X67517Y35907D01*
X57350Y25021D02*
X67517Y35188D01*
X57350Y23900D02*
Y26437D01*
Y24303D02*
X67517Y34470D01*
X53159Y38791D02*
X67517Y53149D01*
X52800Y39150D02*
X67517Y53867D01*
X53518Y38432D02*
X67517Y52431D01*
X52082Y39868D02*
X67517Y55304D01*
X52441Y39509D02*
X67517Y54586D01*
X54596Y37354D02*
X67517Y50275D01*
X54955Y36995D02*
X67517Y49557D01*
X53878Y38072D02*
X67517Y51712D01*
X54237Y37713D02*
X67517Y50994D01*
X49567Y42383D02*
X62429Y55245D01*
X49208Y42742D02*
X62089Y55623D01*
X51722Y40228D02*
X67517Y56023D01*
X48489Y43461D02*
X61672Y56643D01*
X48849Y43101D02*
X61830Y56083D01*
X50645Y41305D02*
X63984Y54644D01*
X51004Y40946D02*
X64868Y54810D01*
X49926Y42024D02*
X62848Y54945D01*
X50286Y41664D02*
X63355Y54734D01*
X50585Y46609D02*
X67517Y29677D01*
X50776Y47137D02*
X67517Y30396D01*
X50302Y46174D02*
X67517Y28959D01*
X49939Y45819D02*
X67517Y28240D01*
X47172Y45713D02*
X67517Y25367D01*
X49496Y45544D02*
X67517Y27522D01*
X57350Y31942D02*
X67517Y21775D01*
X48958Y45363D02*
X67517Y26804D01*
X48279Y45323D02*
X67517Y26085D01*
X55674Y36276D02*
X67517Y48120D01*
X55314Y36636D02*
X67517Y48838D01*
X50834Y47797D02*
X67517Y31114D01*
X42950Y49000D02*
X57350Y34600D01*
X50548Y48802D02*
X67517Y31833D01*
X56751Y35199D02*
X67517Y45965D01*
X57111Y34839D02*
X67517Y45246D01*
X56033Y35917D02*
X67517Y47402D01*
X56392Y35558D02*
X67517Y46683D01*
X36677Y60517D02*
X47421Y49773D01*
X35959Y60517D02*
X46986Y49490D01*
X35240Y60517D02*
X46631Y49127D01*
X32476Y49000D02*
X43994Y60517D01*
X33195Y49000D02*
X44712Y60517D01*
X38833D02*
X49614Y49736D01*
X41097Y49000D02*
X52615Y60517D01*
X38114D02*
X48609Y50022D01*
X37396Y60517D02*
X47949Y49964D01*
X31483Y56373D02*
X38855Y49000D01*
X31483Y55654D02*
X38137Y49000D01*
X31758D02*
X43275Y60517D01*
X31483Y60219D02*
X31781Y60517D01*
X31483Y57091D02*
X39574Y49000D01*
X31483Y53499D02*
X35981Y49000D01*
X31483Y52780D02*
X35263Y49000D01*
X31483Y54936D02*
X37418Y49000D01*
X31483Y54217D02*
X36700Y49000D01*
X36787D02*
X48304Y60517D01*
X36068Y49000D02*
X47586Y60517D01*
X37505Y49000D02*
X49023Y60517D01*
X35350Y49000D02*
X46867Y60517D01*
X32367D02*
X46525Y46360D01*
X39661Y49000D02*
X51178Y60517D01*
X40379Y49000D02*
X51896Y60517D01*
X38224Y49000D02*
X49741Y60517D01*
X38942Y49000D02*
X50459Y60517D01*
X34632Y49000D02*
X46149Y60517D01*
X33913Y49000D02*
X45431Y60517D01*
X34522D02*
X46356Y48684D01*
X33804Y60517D02*
X46175Y48146D01*
X33085Y60517D02*
X46135Y47467D01*
X31483Y58528D02*
X41010Y49000D01*
X31483Y57809D02*
X40292Y49000D01*
X31483Y59965D02*
X42447Y49000D01*
X31483Y59246D02*
X41729Y49000D01*
X31483Y54472D02*
X37528Y60517D01*
X31483Y55190D02*
X36810Y60517D01*
X31483Y53754D02*
X38246Y60517D01*
X31483Y56627D02*
X35373Y60517D01*
X31483Y55909D02*
X36091Y60517D01*
X31483Y52317D02*
X39683Y60517D01*
X31483Y51598D02*
X40402Y60517D01*
X31483Y53035D02*
X38965Y60517D01*
X31462Y50859D02*
X41120Y60517D01*
X31483Y58064D02*
X33936Y60517D01*
X31483Y58783D02*
X33217Y60517D01*
X31483Y57346D02*
X34654Y60517D01*
X31483Y59501D02*
X32499Y60517D01*
X31483Y51000D02*
Y60517D01*
X25292Y49000D02*
X26809Y50517D01*
X25843D02*
X27360Y49000D01*
X31483Y52062D02*
X34545Y49000D01*
X31391Y50717D02*
X33108Y49000D01*
X31483Y51344D02*
X33826Y49000D01*
X30321D02*
X41838Y60517D01*
X31039Y49000D02*
X42557Y60517D01*
X30154Y50517D02*
X31671Y49000D01*
X30872Y50517D02*
X32389Y49000D01*
X29435Y50517D02*
X30953Y49000D01*
X29603D02*
X31141Y50538D01*
X26729Y49000D02*
X28246Y50517D01*
X26561D02*
X28079Y49000D01*
X27280Y50517D02*
X28797Y49000D01*
X22418D02*
X23936Y50517D01*
X26011Y49000D02*
X27528Y50517D01*
X28166Y49000D02*
X29683Y50517D01*
X28884Y49000D02*
X30402Y50517D01*
X27447Y49000D02*
X28965Y50517D01*
X27998D02*
X29516Y49000D01*
X46334Y45616D02*
X46770Y46052D01*
X45975Y45975D02*
X46461Y46461D01*
X45975Y45975D02*
X46461Y46461D01*
X47412Y44538D02*
X48204Y45331D01*
X47771Y44179D02*
X48954Y45362D01*
X46693Y45257D02*
X47158Y45721D01*
X47053Y44897D02*
X47629Y45474D01*
X44897Y47053D02*
X46241Y48396D01*
X28717Y50517D02*
X30234Y49000D01*
X45257Y46693D02*
X46129Y47566D01*
X24574Y49000D02*
X26091Y50517D01*
X25125D02*
X26642Y49000D01*
X45616Y46334D02*
X46237Y46956D01*
X33900Y25500D02*
X34100Y25300D01*
X24570Y27130D02*
X26150Y25550D01*
X33900D01*
X32850D02*
X34100Y24300D01*
X33568Y25550D02*
X34100Y25018D01*
X32132Y25550D02*
X34100Y23582D01*
X31413Y25550D02*
X34100Y22863D01*
X30318Y22416D02*
X33453Y25550D01*
X30904Y21564D02*
X34100Y24761D01*
Y21500D02*
Y25300D01*
X30695Y25550D02*
X34100Y22145D01*
X30707Y22086D02*
X34011Y25389D01*
X28008Y22261D02*
X31297Y25550D01*
X27531Y22502D02*
X30579Y25550D01*
X28301Y21835D02*
X32016Y25550D01*
X27103D02*
X30180Y22472D01*
X26384Y25550D02*
X29474Y22460D01*
X29701Y22517D02*
X32734Y25550D01*
X28316Y21131D02*
X28791Y21607D01*
X23688Y50517D02*
X25205Y49000D01*
X23137D02*
X24654Y50517D01*
X23855Y49000D02*
X25373Y50517D01*
X22251D02*
X23768Y49000D01*
X22969Y50517D02*
X24487Y49000D01*
X24406Y50517D02*
X25924Y49000D01*
X23213Y28242D02*
X23700Y28729D01*
X20995Y32376D02*
X23700Y29671D01*
X22860Y28242D02*
X23700D01*
X21700Y49000D02*
X23217Y50517D01*
X21533D02*
X23050Y49000D01*
X21090Y34021D02*
X23700Y36632D01*
X20814Y50517D02*
X22331Y49000D01*
X20982D02*
X22499Y50517D01*
X21357Y33570D02*
X23700Y35913D01*
X21393Y33415D02*
X23700Y31108D01*
X21323Y32818D02*
X23700Y35195D01*
X21308Y32782D02*
X23700Y30389D01*
X24085Y27130D02*
X29048Y22168D01*
X22869Y26910D02*
X27254Y22525D01*
X23367Y27130D02*
X28806Y21691D01*
X22510Y26550D02*
X26714Y22347D01*
X20778Y19341D02*
X26987Y25550D01*
X22677Y19085D02*
X29142Y25550D01*
X22914Y18603D02*
X29861Y25550D01*
X22204Y19330D02*
X28424Y25550D01*
X21319Y19163D02*
X27705Y25550D01*
X23700Y28242D02*
Y37650D01*
X23090Y27130D02*
X24570D01*
X22151Y26191D02*
X26371Y21971D01*
X22922Y17893D02*
X26266Y21237D01*
X22922Y17486D02*
Y18486D01*
X21792Y25832D02*
X26245Y21379D01*
X50699Y10467D02*
X67517Y27286D01*
X50461Y10948D02*
X67517Y28004D01*
X50828Y9878D02*
X67517Y26567D01*
X49739Y11662D02*
X67517Y29441D01*
X50139Y11344D02*
X67517Y28723D01*
X55983Y22533D02*
X67517Y10998D01*
X55624Y22174D02*
X67517Y10280D01*
X55264Y21814D02*
X67517Y9561D01*
X50767Y9099D02*
X67517Y25849D01*
X57350Y24758D02*
X67517Y14590D01*
X57490Y26773D02*
X67517Y16746D01*
X57350Y24039D02*
X67517Y13872D01*
X57350Y26195D02*
X67517Y16027D01*
X57350Y25476D02*
X67517Y15309D01*
X57060Y23610D02*
X67517Y13154D01*
X56701Y23251D02*
X67517Y12435D01*
X50150Y16700D02*
X57350Y23900D01*
X56342Y22892D02*
X67517Y11717D01*
X53828Y20378D02*
X67517Y6688D01*
X54187Y20737D02*
X67517Y7406D01*
Y483D02*
Y60517D01*
X53468Y20018D02*
X67517Y5969D01*
X53109Y19659D02*
X67517Y5251D01*
X52750Y19300D02*
X67517Y4533D01*
X52391Y18941D02*
X67517Y3814D01*
X50054Y483D02*
X67517Y17946D01*
X50772Y483D02*
X67517Y17228D01*
X54546Y21096D02*
X67517Y8125D01*
X54905Y21455D02*
X67517Y8843D01*
X52032Y18582D02*
X64273Y6340D01*
X51672Y18222D02*
X63577Y6317D01*
X51313Y17863D02*
X63030Y6146D01*
X50954Y17504D02*
X62579Y5879D01*
X50595Y17145D02*
X62209Y5530D01*
X50236Y16786D02*
X61918Y5103D01*
X49603Y16700D02*
X61718Y4585D01*
X47864Y11943D02*
X67517Y31596D01*
X48658Y12019D02*
X67517Y30878D01*
X49254Y11896D02*
X67517Y30160D01*
X27821Y25550D02*
X52888Y483D01*
X35685D02*
X67517Y32315D01*
X49477Y16700D02*
X50150D01*
X42869Y483D02*
X67517Y25131D01*
X43588Y483D02*
X67517Y24412D01*
X47945Y16334D02*
X48311Y16700D01*
X47447D02*
X47822Y16325D01*
X47207Y16314D02*
X47592Y16700D01*
X43137D02*
X47887Y11949D01*
X42418Y16700D02*
X47371Y11747D01*
X48884Y16700D02*
X49039Y16546D01*
X48811Y16482D02*
X49029Y16700D01*
X43487D02*
X49477D01*
X48166D02*
X48461Y16405D01*
X45743Y483D02*
X67517Y22257D01*
X44306Y483D02*
X67517Y23694D01*
X46462Y483D02*
X67517Y21538D01*
X34248Y483D02*
X67517Y33752D01*
X34967Y483D02*
X67517Y33033D01*
X48617Y483D02*
X67517Y19383D01*
X49335Y483D02*
X67517Y18665D01*
X47180Y483D02*
X67517Y20820D01*
X47898Y483D02*
X67517Y20102D01*
X29258Y25550D02*
X54325Y483D01*
X30854Y21798D02*
X52170Y483D01*
X45025D02*
X67517Y22975D01*
X28367Y21412D02*
X49296Y483D01*
X28539Y25550D02*
X53607Y483D01*
X30842Y21092D02*
X51452Y483D01*
X33530D02*
X49747Y16700D01*
X30073Y20424D02*
X50015Y483D01*
X30550Y20666D02*
X50733Y483D01*
X66351Y3848D02*
X67517Y5015D01*
X66299Y4515D02*
X67517Y5733D01*
X66340Y4273D02*
X67517Y3096D01*
X66111Y5045D02*
X67517Y6452D01*
X66036Y2814D02*
X67517Y4296D01*
X66317Y3577D02*
X67517Y2377D01*
X66146Y3030D02*
X67517Y1659D01*
X65879Y2579D02*
X67517Y940D01*
X64422Y483D02*
X67517Y3578D01*
X65029Y6119D02*
X67517Y8607D01*
X64495Y6303D02*
X67517Y9325D01*
X65470Y5841D02*
X67517Y7888D01*
X63823Y6349D02*
X67517Y10044D01*
X62755Y6000D02*
X67517Y10762D01*
X65830Y5483D02*
X67517Y7170D01*
X57238Y483D02*
X62000Y5245D01*
X65141Y483D02*
X67517Y2859D01*
X65530Y2209D02*
X67257Y483D01*
X65859D02*
X67517Y2141D01*
X63704Y483D02*
X65186Y1964D01*
X65103Y1918D02*
X66538Y483D01*
X66577D02*
X67517Y1423D01*
X67296Y483D02*
X67517Y704D01*
X63939Y1645D02*
X65102Y483D01*
X64585Y1718D02*
X65820Y483D01*
X60112D02*
X62159Y2530D01*
X59393Y483D02*
X61881Y2971D01*
X60830Y483D02*
X62517Y2170D01*
X57956Y483D02*
X61651Y4177D01*
X58675Y483D02*
X61697Y3505D01*
X62985Y483D02*
X64152Y1649D01*
X62997Y1868D02*
X64383Y483D01*
X61548D02*
X62955Y1889D01*
X62267Y483D02*
X63486Y1701D01*
X48461Y16405D02*
X61868Y2997D01*
X49039Y16546D02*
X61645Y3939D01*
X47822Y16325D02*
X63665Y483D01*
X45678Y16314D02*
X61509Y483D01*
X46396Y16314D02*
X62228Y483D01*
X47115Y16314D02*
X62946Y483D01*
X48194Y7332D02*
X55044Y483D01*
X44044Y16511D02*
X48530Y12025D01*
X45482Y16314D02*
X47482D01*
X44931Y16343D02*
X49461Y11812D01*
X32812Y483D02*
X48811Y16482D01*
X34702Y14358D02*
X48578Y483D01*
X41433D02*
X48274Y7324D01*
X42151Y483D02*
X49053Y7385D01*
X34596Y13746D02*
X47859Y483D01*
X40714D02*
X47685Y7453D01*
X53646Y483D02*
X67517Y14354D01*
X52927Y483D02*
X67517Y15073D01*
X54364Y483D02*
X67517Y13636D01*
X51491Y483D02*
X67517Y16509D01*
X52209Y483D02*
X67517Y15791D01*
X55801Y483D02*
X67517Y12199D01*
X56519Y483D02*
X67517Y11481D01*
X50624Y10649D02*
X60791Y483D01*
X55083D02*
X67517Y12917D01*
X50761Y9075D02*
X59354Y483D01*
X50559Y8559D02*
X58636Y483D01*
X50837Y9718D02*
X60073Y483D01*
X31375D02*
X47207Y16314D01*
X32093Y483D02*
X47945Y16334D01*
X49896Y7786D02*
X57199Y483D01*
X50267Y8133D02*
X57917Y483D01*
X48894Y7351D02*
X55762Y483D01*
X49444Y7520D02*
X56481Y483D01*
X45067Y16330D02*
X45437Y16700D01*
X44574D02*
X44931Y16343D01*
X45292Y16700D02*
X45678Y16314D01*
X44436Y16418D02*
X44718Y16700D01*
X46488Y16314D02*
X46874Y16700D01*
X46729D02*
X47115Y16314D01*
X45770D02*
X46155Y16700D01*
X46011D02*
X46396Y16314D01*
X34100Y21500D02*
X38900Y16700D01*
X33924Y15245D02*
X37139Y18461D01*
X33049Y15088D02*
X36780Y18820D01*
X28189Y20872D02*
X33790Y15271D01*
X27813Y20529D02*
X33177Y15165D01*
X43864Y16565D02*
X44000Y16700D01*
X43855D02*
X44044Y16511D01*
X38900Y16700D02*
X43487D01*
X34384Y14987D02*
X37499Y18101D01*
X41700Y16700D02*
X46945Y11455D01*
X40982Y16700D02*
X46598Y11084D01*
X40263Y16700D02*
X46332Y10632D01*
X39545Y16700D02*
X46163Y10082D01*
X29976Y25550D02*
X46144Y9382D01*
X29938Y483D02*
X45770Y16314D01*
X30656Y483D02*
X46488Y16314D01*
X28501Y483D02*
X44436Y16418D01*
X29219Y483D02*
X45067Y16330D01*
X34611Y13777D02*
X38217Y17383D01*
X34661Y14545D02*
X37858Y17742D01*
X31449Y9897D02*
X38576Y17024D01*
X27221Y20403D02*
X32792Y14832D01*
X30737Y8466D02*
X38971Y16700D01*
X31398Y7690D02*
X40408Y16700D01*
X31395Y6969D02*
X41126Y16700D01*
X31144Y8155D02*
X39689Y16700D01*
X27783Y483D02*
X43864Y16565D01*
X26606Y15112D02*
X34100Y22605D01*
X26056Y15279D02*
X34100Y23324D01*
X26955Y14742D02*
X34100Y21887D01*
X22809Y17061D02*
X26507Y20760D01*
X22622Y16156D02*
X26933Y20467D01*
X22922Y18236D02*
X25888Y15269D01*
X22922Y17518D02*
X25384Y15055D01*
X22622Y15437D02*
X27637Y20452D01*
X21510Y15701D02*
Y16835D01*
X22622Y15379D02*
Y16835D01*
X21402Y16882D02*
X21510Y16774D01*
X20926Y16640D02*
X21510Y16055D01*
X20730Y15701D02*
X21510Y16481D01*
X21448Y15701D02*
X21510Y15763D01*
X22595Y7509D02*
X35343Y20257D01*
X22987Y8618D02*
X34984Y20616D01*
X22949Y7144D02*
X35703Y19897D01*
X20714Y24754D02*
X44986Y483D01*
X21073Y25114D02*
X45704Y483D01*
X26346D02*
X42563Y16700D01*
X27064Y483D02*
X43282Y16700D01*
X23106Y6582D02*
X36062Y19538D01*
X25627Y483D02*
X41845Y16700D01*
X27088Y14157D02*
X34266Y21334D01*
X22820Y12763D02*
X34100Y24042D01*
X23065Y9415D02*
X34625Y20975D01*
X21432Y25473D02*
X32602Y14303D01*
X21384Y12763D02*
X29222Y20601D01*
X22750Y16971D02*
X25070Y14651D01*
X22622Y15663D02*
X29769Y8515D01*
X22622Y16381D02*
X25004Y13999D01*
X22102Y12763D02*
X29744Y20404D01*
X30974Y10858D02*
X33334Y13218D01*
X31301Y10467D02*
X34102Y13268D01*
X30491Y11094D02*
X32892Y13495D01*
X29713Y11034D02*
X32634Y13955D01*
X30041Y6088D02*
X35646Y483D01*
X23106Y11586D02*
X34209Y483D01*
X27080Y14077D02*
X30038Y11120D01*
X26866Y13573D02*
X29512Y10928D01*
X23106Y12329D02*
X24980Y14203D01*
X23106Y11611D02*
X25147Y13653D01*
X26462Y13259D02*
X29150Y10571D01*
X30372Y8631D02*
X30437Y8566D01*
X23106Y10892D02*
X25517Y13304D01*
X25810Y13193D02*
X28951Y10052D01*
X34263Y13361D02*
X47141Y483D01*
X36404D02*
X46209Y10288D01*
X37122Y483D02*
X46133Y9494D01*
X31440Y9718D02*
X40675Y483D01*
X33734Y13171D02*
X46423Y483D01*
X39277D02*
X46808Y8013D01*
X39996Y483D02*
X47204Y7691D01*
X37840Y483D02*
X46256Y8898D01*
X38559Y483D02*
X46490Y8413D01*
X31248Y9192D02*
X39957Y483D01*
X31375Y6909D02*
X37802Y483D01*
X31426Y7577D02*
X38520Y483D01*
X30891Y8830D02*
X39238Y483D01*
X31101Y6465D02*
X37083Y483D01*
X24909D02*
X30559Y6133D01*
X30674Y6174D02*
X36365Y483D01*
X23472D02*
X29373Y6384D01*
X24191Y483D02*
X29838Y6130D01*
X22806Y9874D02*
X26102Y13171D01*
X23106Y10551D02*
Y12763D01*
X22514Y15051D02*
X29325Y8241D01*
X20894Y12763D02*
X23106D01*
X22155Y14693D02*
X29034Y7814D01*
X22371Y10158D02*
X22765Y10551D01*
X20894D02*
X23106D01*
X22225Y14752D02*
X22459Y14986D01*
X20821Y14589D02*
X22648Y12763D01*
X20894Y10551D02*
Y12763D01*
X21666Y10171D02*
X22046Y10551D01*
X21985D02*
X22382Y10154D01*
X21267Y10551D02*
X21652Y10166D01*
X20650Y8561D02*
X21044D01*
X23106Y12305D02*
X34928Y483D01*
X23049Y8769D02*
X31336Y483D01*
X23106Y10868D02*
X33491Y483D01*
X22704Y10551D02*
X32773Y483D01*
X23037Y9499D02*
X32054Y483D01*
X22773Y8327D02*
X30617Y483D01*
X23105Y6558D02*
X29181Y483D01*
X21317D02*
X29601Y8767D01*
X22322Y8059D02*
X29899Y483D01*
X22050Y7681D02*
X22499Y8130D01*
X21561Y8102D02*
X21981Y7682D01*
X22035Y483D02*
X28940Y7387D01*
X21540Y14589D02*
X28948Y7181D01*
X22754Y483D02*
X29062Y6791D01*
X22944Y6001D02*
X28462Y483D01*
X22036Y5472D02*
X27025Y483D01*
X22587Y5640D02*
X27744Y483D01*
X18826Y49000D02*
X20344Y50517D01*
X18659D02*
X20176Y49000D01*
X19377Y50517D02*
X20895Y49000D01*
X17940Y50517D02*
X19458Y49000D01*
X18108D02*
X19625Y50517D01*
X20096D02*
X21613Y49000D01*
X20263D02*
X21781Y50517D01*
X17450Y49000D02*
X42950D01*
X19545D02*
X21062Y50517D01*
X15067D02*
X17450Y48134D01*
X15785Y50517D02*
X17450Y48853D01*
X14348Y50517D02*
X17450Y47416D01*
X13630Y50517D02*
X17450Y46697D01*
X12912Y50517D02*
X17450Y45979D01*
X16504Y50517D02*
X18021Y49000D01*
X17222Y50517D02*
X18739Y49000D01*
X12193Y50517D02*
X17450Y45261D01*
X11475Y50517D02*
X17450Y44542D01*
X10038Y50517D02*
X23700Y36855D01*
X10756Y50517D02*
X23700Y37574D01*
X9319Y50517D02*
X23700Y36137D01*
X8601Y50517D02*
X23700Y35418D01*
X7883Y50517D02*
X23700Y34700D01*
X17450Y43900D02*
X23700Y37650D01*
X7164Y50517D02*
X23700Y33982D01*
X6446Y50517D02*
X23700Y33263D01*
X6066Y45868D02*
X23693Y28242D01*
X6356Y47015D02*
X19423Y33948D01*
X17450Y43900D02*
Y49000D01*
X6273Y46380D02*
X19193Y33460D01*
X6168Y47922D02*
X19829Y34261D01*
X5770Y45446D02*
X22974Y28242D01*
X6058Y29048D02*
X19180Y42170D01*
X6015Y26849D02*
X20258Y41092D01*
X5917Y29625D02*
X18821Y42529D01*
X5951Y26066D02*
X20617Y40733D01*
X5727Y50517D02*
X23700Y32545D01*
X4290Y50517D02*
X20462Y34346D01*
X483Y32093D02*
X18907Y50517D01*
X483Y33530D02*
X17470Y50517D01*
X483Y32812D02*
X18188Y50517D01*
X5040Y30185D02*
X18103Y43247D01*
X5572Y29999D02*
X18462Y42888D01*
X483Y50517D02*
X31000D01*
X5009D02*
X23700Y31826D01*
X483Y34248D02*
X16752Y50517D01*
X483Y34967D02*
X16033Y50517D01*
X483Y31375D02*
X17450Y48342D01*
X483Y36404D02*
X14596Y50517D01*
X483Y35685D02*
X15315Y50517D01*
X483Y29219D02*
X17450Y46187D01*
X483Y28501D02*
X17450Y45468D01*
X483Y30656D02*
X17450Y47624D01*
X483Y29938D02*
X17450Y46905D01*
X5395Y45102D02*
X22443Y28055D01*
X483Y45704D02*
X20288Y25899D01*
X483Y44986D02*
X19928Y25540D01*
X483Y47141D02*
X21006Y26618D01*
X483Y46423D02*
X20647Y26258D01*
X4939Y44840D02*
X22084Y27695D01*
X5753Y27306D02*
X19899Y41451D01*
X4385Y44676D02*
X21724Y27336D01*
X3675Y44667D02*
X21365Y26977D01*
X483Y26346D02*
X17743Y43607D01*
X483Y27064D02*
X17450Y44032D01*
X483Y43549D02*
X19210Y24822D01*
X483Y27783D02*
X17450Y44750D01*
X483Y44267D02*
X19569Y25181D01*
X5316Y27587D02*
X19539Y41811D01*
X483Y41394D02*
X18970Y22906D01*
X483Y42831D02*
X18970Y24343D01*
X483Y42112D02*
X18970Y23624D01*
X20507Y32146D02*
X23700Y28953D01*
X20650Y34300D02*
X23700Y37350D01*
X20082Y21518D02*
X25132Y26568D01*
X20082Y22955D02*
X24257Y27130D01*
X20082Y22237D02*
X24772Y26928D01*
X20082Y20082D02*
X25850Y25850D01*
X20082Y19363D02*
X26268Y25550D01*
X20082Y20800D02*
X25491Y26209D01*
X20082Y20082D02*
X25850Y25850D01*
X19933Y34301D02*
X23491Y37859D01*
X20082Y24122D02*
X23090Y27130D01*
X20082Y23674D02*
X23538Y27130D01*
X19133Y24745D02*
X22467Y28079D01*
X20082Y21076D02*
X21845Y19313D01*
X15969Y19561D02*
X18970Y22563D01*
X20082Y19639D02*
X20452Y19269D01*
X20082Y20358D02*
X21198Y19241D01*
X20011Y15701D02*
X20956Y16646D01*
X20043Y16804D02*
X21147Y15701D01*
X19498Y16631D02*
X20428Y15701D01*
X19844D02*
X21510D01*
X20082Y19137D02*
Y24122D01*
X18970Y19137D02*
Y24352D01*
X15996Y18870D02*
X18970Y21844D01*
X16020Y19391D02*
X19723Y15687D01*
X18670Y17486D02*
Y18486D01*
X15877Y15877D02*
X18697Y18697D01*
X15877Y15877D02*
X18697Y18697D01*
X6059Y24019D02*
X21695Y39655D01*
X6059Y24738D02*
X21336Y40014D01*
X6059Y23301D02*
X22054Y39296D01*
X5711Y25109D02*
X20976Y40374D01*
X5509Y22032D02*
X22413Y38937D01*
X7299Y20230D02*
X19510Y32441D01*
X7884Y20097D02*
X19961Y32174D01*
X5509Y21314D02*
X22772Y38578D01*
X5616Y20703D02*
X23132Y38218D01*
X6334Y20703D02*
X19230Y33598D01*
X483Y39238D02*
X18970Y20751D01*
X483Y38520D02*
X18970Y20032D01*
X483Y40675D02*
X18970Y22187D01*
X483Y39957D02*
X18970Y21469D01*
X15185Y20214D02*
X18970Y23999D01*
X15670Y19981D02*
X18970Y23281D01*
X6839Y20489D02*
X19231Y32881D01*
X6013Y29398D02*
X15200Y20211D01*
X7062Y16401D02*
X23700Y33039D01*
X8421Y19198D02*
X23700Y34476D01*
X7694Y16315D02*
X23700Y32321D01*
X483Y37802D02*
X18970Y19314D01*
X6956Y17014D02*
X23700Y33758D01*
X14929Y16366D02*
X18970Y20407D01*
X15510Y16228D02*
X18970Y19689D01*
X8254Y19748D02*
X20713Y32208D01*
X8134Y16036D02*
X23700Y31603D01*
X483Y35646D02*
X18671Y17458D01*
X483Y37083D02*
X18741Y18825D01*
X483Y36365D02*
X18670Y18177D01*
X15350Y18095D02*
Y18186D01*
X14293Y16807D02*
X14758Y16342D01*
X5944Y48331D02*
X8131Y50517D01*
X5612Y48717D02*
X7412Y50517D01*
X6193Y47861D02*
X8849Y50517D01*
X4705Y49248D02*
X5975Y50517D01*
X5202Y49026D02*
X6694Y50517D01*
X6338Y47288D02*
X9567Y50517D01*
X6311Y46542D02*
X10286Y50517D01*
X2854D02*
X4015Y49356D01*
X2135Y50517D02*
X3380Y49273D01*
X3256Y49235D02*
X4538Y50517D01*
X1417D02*
X2868Y49066D01*
X698Y50517D02*
X2446Y48770D01*
X4093Y49354D02*
X5257Y50517D01*
X3572D02*
X4922Y49168D01*
X483Y42151D02*
X3139Y44807D01*
X483Y41433D02*
X3712Y44662D01*
X5991Y28701D02*
X14553Y20140D01*
X5703Y28271D02*
X14151Y19823D01*
X5240Y28015D02*
X13940Y19316D01*
X6057Y26480D02*
X14226Y18311D01*
X5879Y25939D02*
X13866Y17952D01*
X4993Y25109D02*
X5430Y25545D01*
X5511Y25589D02*
X5991Y25109D01*
X483Y34209D02*
X4571Y30121D01*
X483Y33491D02*
X4141Y29833D01*
X483Y32773D02*
X3885Y29370D01*
X483Y40714D02*
X4458Y44689D01*
X483Y34928D02*
X5268Y30143D01*
X4602Y27591D02*
X4988Y27978D01*
X4944Y25437D02*
X5273Y25109D01*
X4425Y28111D02*
X4890Y27647D01*
X4274Y25109D02*
X4647Y25481D01*
X483Y39996D02*
X11004Y50517D01*
X483Y47180D02*
X3820Y50517D01*
X483Y39277D02*
X11723Y50517D01*
X483Y48617D02*
X2383Y50517D01*
X483Y47898D02*
X3102Y50517D01*
X483Y43588D02*
X2283Y45388D01*
X483Y42869D02*
X2669Y45056D01*
X483Y50015D02*
X2102Y48395D01*
X483Y38559D02*
X12441Y50517D01*
X483Y49296D02*
X1840Y47939D01*
X483Y48578D02*
X1676Y47385D01*
X483Y47859D02*
X1667Y46675D01*
X483Y50054D02*
X946Y50517D01*
X483Y49335D02*
X1665Y50517D01*
X483Y45025D02*
X1752Y46295D01*
X483Y44306D02*
X1974Y45798D01*
X483Y46462D02*
X1765Y47744D01*
X483Y45743D02*
X1646Y46907D01*
X483Y31336D02*
X4349Y27469D01*
X483Y30617D02*
X3999Y27101D01*
X483Y29181D02*
X4555Y25109D01*
X483Y37840D02*
X13160Y50517D01*
X483Y37122D02*
X13878Y50517D01*
X483Y22035D02*
X4190Y25743D01*
X483Y25588D02*
X4397Y21674D01*
X483Y24909D02*
X4037Y28464D01*
X483Y24191D02*
X4411Y28119D01*
X483Y25627D02*
X3851Y28996D01*
X483Y28462D02*
X3847Y25097D01*
X483Y27744D02*
X3847Y24379D01*
X483Y32054D02*
X3981Y28555D01*
X483Y29899D02*
X3847Y26534D01*
X483Y26307D02*
X3847Y22942D01*
X483Y22754D02*
X3909Y26180D01*
X483Y27025D02*
X3847Y23660D01*
X483Y23472D02*
X3905Y26894D01*
X6789Y20540D02*
X7124Y20205D01*
X5509Y20703D02*
X6396D01*
X14239Y18325D02*
Y18431D01*
X6695Y18190D02*
X6795Y18289D01*
X6336Y18549D02*
X6446Y18659D01*
X6059Y22897D02*
Y25109D01*
X5991D02*
X6059Y25041D01*
X5509Y19377D02*
Y19591D01*
Y22897D02*
X6059D01*
X5509Y20703D02*
Y22897D01*
X6166Y19591D02*
X6338Y19419D01*
X5977Y18909D02*
X6313Y19244D01*
X5618Y19268D02*
X5941Y19591D01*
X5761D02*
X6320Y19032D01*
X6059Y25041D02*
X13507Y17593D01*
X6059Y24323D02*
X13148Y17234D01*
X6059Y23605D02*
X12789Y16874D01*
X6047Y22897D02*
X12429Y16515D01*
X5509Y22718D02*
X12070Y16156D01*
X13934Y16448D02*
X14283Y16099D01*
X13574Y16089D02*
X13993Y15670D01*
X6956Y16960D02*
X7568Y16348D01*
X8418Y19090D02*
X11711Y15797D01*
X6955Y17731D02*
X7345Y18122D01*
X6956Y16508D02*
Y17700D01*
X5509Y19377D02*
X6793Y18093D01*
X6956Y16508D02*
X7124Y16339D01*
X5844Y16278D02*
Y17470D01*
X5509Y21999D02*
X7279Y20229D01*
X5509Y22751D02*
X5655Y22897D01*
X4397Y20147D02*
Y22897D01*
X3847Y25109D02*
X6059D01*
X483Y23433D02*
X4397Y19518D01*
X5509Y21281D02*
X6087Y20703D01*
X5509Y19591D02*
X6166D01*
X4397Y19147D02*
Y20147D01*
X483Y20598D02*
X3847Y23963D01*
Y22897D02*
Y25109D01*
X483Y24152D02*
X4397Y20237D01*
X483Y21317D02*
X3847Y24682D01*
X483Y24870D02*
X4397Y20955D01*
X3847Y22897D02*
X4397D01*
X3892D02*
X4397Y22392D01*
X483Y19880D02*
X3847Y23245D01*
X483Y19162D02*
X4218Y22897D01*
X4264Y18632D02*
X4483Y18851D01*
X4560Y18754D02*
X5844Y17470D01*
X483Y22715D02*
X5844Y17353D01*
X5004Y17936D02*
X5191Y18123D01*
X5041Y17438D02*
X5844Y16635D01*
X4726Y18376D02*
X4832Y18482D01*
X4962Y17175D02*
X5551Y17764D01*
X483Y17725D02*
X4397Y21640D01*
X483Y21278D02*
X3333Y18428D01*
X483Y17006D02*
X4397Y20921D01*
X483Y21996D02*
X3828Y18651D01*
X483Y18443D02*
X4397Y22358D01*
X3371Y18457D02*
X4397Y19484D01*
X483Y19841D02*
X2978Y17346D01*
X483Y20559D02*
X3026Y18016D01*
X483Y16288D02*
X4397Y20203D01*
X20074Y14589D02*
X21832D01*
X19729Y14244D02*
X21211Y12763D01*
X20103Y14589D02*
X21929Y12763D01*
X16399Y10651D02*
X20337Y14589D01*
X16399Y9933D02*
X21055Y14589D01*
X19370Y13885D02*
X20894Y12361D01*
X19011Y13526D02*
X20894Y11642D01*
X18652Y13167D02*
X20894Y10924D01*
X18292Y12808D02*
X21210Y9890D01*
X16042Y15323D02*
X18670Y17952D01*
X15949Y18744D02*
X19303Y15389D01*
X15632Y18342D02*
X18943Y15030D01*
X16017Y15083D02*
X17507Y13593D01*
X16399Y10914D02*
X20074Y14589D01*
X15773Y14608D02*
X17147Y13234D01*
X15450Y11537D02*
X19451Y15538D01*
X20082Y22513D02*
X42112Y483D01*
X20082Y21795D02*
X41394Y483D01*
X20355Y24395D02*
X44267Y483D01*
X20082Y23950D02*
X43549Y483D01*
X20082Y23232D02*
X42831Y483D01*
X17725D02*
X36421Y19179D01*
X18443Y483D02*
X32791Y14830D01*
X16553Y9369D02*
X21774Y14589D01*
X16906Y9003D02*
X28892Y20990D01*
X17933Y12448D02*
X20709Y9673D01*
X17574Y12089D02*
X20095Y9568D01*
X17215Y11730D02*
X19731Y9214D01*
X17091Y8470D02*
X20894Y12273D01*
X15737Y6398D02*
X20894Y11555D01*
X16856Y11371D02*
X19372Y8855D01*
X16496Y11012D02*
X19013Y8495D01*
X16399Y9460D02*
Y10914D01*
X16455Y6398D02*
X20894Y10837D01*
X12240Y14395D02*
X18970Y21126D01*
X15325Y17930D02*
X18584Y14671D01*
X15011Y17526D02*
X18225Y14312D01*
X8389Y15573D02*
X23700Y30884D01*
X8205Y14670D02*
X23700Y30166D01*
X14652Y17166D02*
X17866Y13953D01*
X15344Y14319D02*
X16788Y12875D01*
X14625Y14319D02*
X16429Y12516D01*
X13621Y12184D02*
X18700Y17263D01*
X13215Y15729D02*
X13994Y14951D01*
X12240Y13676D02*
X13932Y15369D01*
X11291Y15377D02*
X14239Y18325D01*
X12240Y14754D02*
X15188Y17702D01*
X12902Y12902D02*
X14420Y14420D01*
X13262Y12543D02*
X14974Y14256D01*
X12543Y13262D02*
X14069Y14788D01*
X12902Y12902D02*
X14420Y14420D01*
X13859Y10985D02*
X19504Y16631D01*
X13859Y11703D02*
X18981Y16826D01*
X13859Y10266D02*
X20349Y16757D01*
X12856Y15370D02*
X16070Y12157D01*
X4858Y10605D02*
X23700Y29447D01*
X12497Y15011D02*
X15711Y11797D01*
X12240Y14550D02*
X15364Y11425D01*
X12240Y13831D02*
X15287Y10784D01*
X5517Y10546D02*
X13949Y18978D01*
X6235Y10546D02*
X14182Y18493D01*
X13859Y9548D02*
X15287Y10977D01*
Y9460D02*
Y11144D01*
X13859Y11494D02*
X15287Y10065D01*
X13859Y9460D02*
Y11716D01*
X20449Y9673D02*
X21328Y10551D01*
X20420Y9673D02*
X21044D01*
X16915Y6398D02*
X20027Y9510D01*
X20517Y8428D02*
X21424Y7521D01*
X20158Y8069D02*
X21063Y7163D01*
X19798Y7710D02*
X20895Y6613D01*
X17538Y5449D02*
X20650Y8561D01*
X16399Y9672D02*
X18294Y7777D01*
X17096Y8256D02*
X17935Y7418D01*
X15074Y9326D02*
X15287Y9540D01*
X16399Y10391D02*
X18653Y8136D01*
X16930Y7705D02*
X17576Y7058D01*
X16591Y7325D02*
X17217Y6699D01*
X15254Y7225D02*
X16081Y6398D01*
X16094Y7104D02*
X16800Y6398D01*
X19880Y483D02*
X28974Y9577D01*
X19439Y7350D02*
X26307Y483D01*
X20598D02*
X29210Y9094D01*
X19080Y6991D02*
X25588Y483D01*
X19162D02*
X29034Y10355D01*
X18361Y6273D02*
X24152Y483D01*
X18721Y6632D02*
X24870Y483D01*
X17643Y5554D02*
X22715Y483D01*
X18002Y5914D02*
X23433Y483D01*
X17006D02*
X21995Y5471D01*
X15569Y483D02*
X21068Y5982D01*
X16288Y483D02*
X21433Y5628D01*
X16474Y5286D02*
X21278Y483D01*
X17191Y5288D02*
X21996Y483D01*
X15037Y5286D02*
X19841Y483D01*
X15756Y5286D02*
X20559Y483D01*
X14490Y8743D02*
X14851Y9103D01*
X14250Y7510D02*
X15363Y6398D01*
X13859Y10776D02*
X15214Y9420D01*
X14220Y9191D02*
X15287Y10258D01*
X14300Y6398D02*
X15174Y7271D01*
X15019Y6398D02*
X15707Y7086D01*
X13946Y6398D02*
X16915D01*
X13716Y5286D02*
X17145D01*
X14507Y8690D02*
X14613Y8585D01*
X14529Y8063D02*
X14603Y8137D01*
X13859Y10057D02*
X14834Y9082D01*
X14506Y7973D02*
X14734Y7745D01*
X13859Y6485D02*
X13946Y6398D01*
X13859Y6674D02*
X14808Y7624D01*
X13859Y7183D02*
X14644Y6398D01*
X13414Y483D02*
X21243Y8311D01*
X12696Y483D02*
X20775Y8561D01*
X14133Y483D02*
X21702Y8052D01*
X10271Y7179D02*
X16967Y483D01*
X11055Y7113D02*
X17686Y483D01*
X14319Y5286D02*
X19123Y483D01*
X14851D02*
X20896Y6527D01*
X483Y483D02*
X67517D01*
X13585Y5302D02*
X18404Y483D01*
X8953Y7778D02*
X16249Y483D01*
X6579Y9434D02*
X15531Y483D01*
X9104D02*
X13907Y5286D01*
X5142Y9434D02*
X14094Y483D01*
X5860Y9434D02*
X14812Y483D01*
X11259D02*
X16063Y5286D01*
X11977Y483D02*
X16781Y5286D01*
X9822Y483D02*
X14626Y5286D01*
X10540Y483D02*
X15344Y5286D01*
X12240Y13565D02*
Y14754D01*
X8402Y15514D02*
X12747Y11168D01*
X8225Y18564D02*
X11352Y15438D01*
X8326Y14872D02*
X12747Y10450D01*
X12240Y13565D02*
X13696Y12109D01*
X11291Y12942D02*
X12747Y11486D01*
X7838Y18233D02*
X11128Y14943D01*
X7221Y18131D02*
X11128Y14224D01*
X6956Y17679D02*
X11128Y13506D01*
Y13335D02*
Y14984D01*
X6953Y10546D02*
X11128Y14721D01*
X12747Y9460D02*
Y11486D01*
X10146Y9427D02*
X12476Y11757D01*
X8893Y8893D02*
X12117Y12117D01*
X8006Y14472D02*
X12747Y9732D01*
X7497Y14264D02*
X12479Y9281D01*
X11845Y8971D02*
X12747Y9874D01*
X11003Y9566D02*
X12747Y11311D01*
X11503Y9348D02*
X12747Y10592D01*
X8534Y9252D02*
X11757Y12476D01*
X8174Y9611D02*
X11398Y12835D01*
X8893Y8893D02*
X12117Y12117D01*
X7456Y10330D02*
X11128Y14002D01*
X7815Y9970D02*
X11131Y13286D01*
X7403Y10383D02*
X8896Y8890D01*
X6780Y9434D02*
X8273Y7941D01*
X4818Y16943D02*
X6319Y15442D01*
X483Y11259D02*
X5844Y16621D01*
X483Y16249D02*
X6186Y10546D01*
X483Y11977D02*
X5844Y17339D01*
X483Y16967D02*
X6904Y10546D01*
X6007Y15885D02*
X6338Y15553D01*
X4898Y10546D02*
X7010D01*
X3851Y11035D02*
X7105Y14289D01*
X4470Y10935D02*
X8007Y14473D01*
X483Y13414D02*
X3674Y16606D01*
X483Y14133D02*
X3234Y16884D01*
X483Y12696D02*
X4435Y16648D01*
X483Y15569D02*
X3153Y18239D01*
X483Y14851D02*
X2978Y17346D01*
X483Y14094D02*
X3607Y10970D01*
X483Y13375D02*
X3190Y10667D01*
X483Y14812D02*
X4290Y11005D01*
X483Y15531D02*
X5468Y10546D01*
X3736Y16588D02*
X10734Y9589D01*
X483Y17686D02*
X9279Y8890D01*
X4406Y16636D02*
X12169Y8873D01*
X483Y19123D02*
X10166Y9439D01*
X483Y18404D02*
X9776Y9111D01*
X483Y11938D02*
X11938Y483D01*
X483Y11220D02*
X11220Y483D01*
X483Y9104D02*
X6363Y14984D01*
X483Y8385D02*
X6641Y14544D01*
X483Y9822D02*
X6276Y15616D01*
X483Y12657D02*
X2961Y10178D01*
X483Y10540D02*
X5927Y15985D01*
X483Y483D02*
Y50517D01*
Y6948D02*
X3055Y9520D01*
X483Y9783D02*
X3912Y6354D01*
X483Y7667D02*
X2955Y10139D01*
X483Y10502D02*
X4752Y6232D01*
X13859Y6485D02*
Y7208D01*
X11868Y7737D02*
X12747Y6858D01*
Y6255D02*
Y7208D01*
X11540Y7347D02*
X12763Y6124D01*
X12910Y5862D02*
X13323Y5449D01*
X9608Y8890D02*
X9670Y8951D01*
X8896Y8890D02*
X9637D01*
X5666Y5666D02*
X8107Y8107D01*
X4898Y9434D02*
X6780D01*
X5267Y5986D02*
X7748Y8466D01*
X8666Y7778D02*
X9637D01*
X5666Y5666D02*
X8107Y8107D01*
X6230Y483D02*
X12747Y7000D01*
X6279Y3406D02*
X10126Y7252D01*
X6948Y483D02*
X12747Y6282D01*
X4793Y483D02*
X12149Y7839D01*
X5512Y483D02*
X12446Y7417D01*
X8385Y483D02*
X13338Y5435D01*
X6232Y4752D02*
X10502Y483D01*
X7667D02*
X12978Y5794D01*
X6348Y4192D02*
X9749Y7594D01*
X6249Y3299D02*
X9065Y483D01*
X6354Y3912D02*
X9783Y483D01*
X5986Y5267D02*
X8517Y7799D01*
X6221Y4784D02*
X9215Y7778D01*
X5720Y2391D02*
X7628Y483D01*
X6028Y2801D02*
X8346Y483D01*
X4865Y1809D02*
X6191Y483D01*
X5334Y2058D02*
X6909Y483D01*
X4192Y6348D02*
X7030Y9185D01*
X3406Y6279D02*
X6561Y9434D01*
X483Y6230D02*
X3385Y9132D01*
X483Y4793D02*
X5124Y9434D01*
X483Y4075D02*
X5842Y9434D01*
X4784Y6221D02*
X7389Y8826D01*
X483Y9065D02*
X3299Y6249D01*
X483Y5512D02*
X3909Y8938D01*
X483Y6909D02*
X2058Y5334D01*
X483Y6191D02*
X1809Y4865D01*
X483Y5473D02*
X1663Y4293D01*
X483Y8346D02*
X2801Y6028D01*
X483Y7628D02*
X2391Y5720D01*
X483Y2638D02*
X1652Y3808D01*
X483Y1919D02*
X1779Y3216D01*
X483Y4754D02*
X1688Y3549D01*
X483Y3356D02*
X1721Y4594D01*
X4188Y8951D02*
X12657Y483D01*
X4075D02*
X10674Y7082D01*
X4677Y9180D02*
X13375Y483D01*
X483Y4036D02*
X4036Y483D01*
X3549Y1688D02*
X4754Y483D01*
X4293Y1663D02*
X5473Y483D01*
X2638D02*
X3808Y1652D01*
X3356Y483D02*
X4594Y1721D01*
X483Y2599D02*
X2599Y483D01*
X483D02*
X2334Y2334D01*
X483Y483D02*
X2334Y2334D01*
X483Y1201D02*
X2014Y2733D01*
X483Y3317D02*
X3317Y483D01*
X1201D02*
X2733Y2014D01*
X1919Y483D02*
X3216Y1779D01*
X483Y1881D02*
X1881Y483D01*
X483Y1162D02*
X1162Y483D01*
D11*
X38707Y21670D02*
X46482D01*
X36950Y23427D02*
Y37835D01*
Y23427D02*
X38707Y21670D01*
X36050Y38735D02*
X36950Y37835D01*
X20289Y46242D02*
X27796Y38735D01*
X46482Y35670D02*
Y40386D01*
X32289Y46242D02*
X40626D01*
X46482Y40386D01*
X27796Y38735D02*
X36050D01*
D12*
X6400Y16278D02*
Y17700D01*
Y16278D02*
X7366Y15311D01*
X4953Y19147D02*
X6400Y17700D01*
X4953Y19147D02*
Y20147D01*
X6396D02*
X7366Y19177D01*
X4953Y20147D02*
X6396D01*
X4953D02*
Y24003D01*
X11684Y13335D02*
Y14984D01*
X14795Y18095D02*
Y18986D01*
X14986Y19177D01*
X11684Y14984D02*
X14795Y18095D01*
X7010Y9990D02*
X8666Y8334D01*
X4000Y9990D02*
X7010D01*
X8666Y8334D02*
X10763D01*
X22860Y27686D02*
X30861D01*
X32289Y29114D01*
Y33242D01*
X13303Y6255D02*
X13716Y5842D01*
X13303Y6255D02*
Y8334D01*
X17145Y5842D02*
X20420Y9117D01*
X22000D01*
X13716Y5842D02*
X17145D01*
X22066Y15379D02*
Y17986D01*
X15843Y11144D02*
X19844Y15145D01*
X21832D02*
X22066Y15379D01*
X19844Y15145D02*
X21832D01*
X15843Y8334D02*
Y11144D01*
X19526Y24352D02*
X22860Y27686D01*
X19526Y17986D02*
Y24352D01*
X11684Y13335D02*
X13303Y11716D01*
Y8334D02*
Y11716D01*
D13*
X19526Y17986D02*
D03*
X20796D02*
D03*
D14*
X22066D02*
D03*
D15*
X32289Y46242D02*
D03*
X20289D02*
D03*
X26289Y31242D02*
D03*
D16*
X20289Y33242D02*
D03*
X32289D02*
D03*
X48482Y9670D02*
D03*
Y47670D02*
D03*
D17*
X46482Y35670D02*
D03*
Y21670D02*
D03*
X51482Y28670D02*
D03*
D18*
X4000Y9990D02*
D03*
Y17610D02*
D03*
X14986Y15311D02*
D03*
X7366D02*
D03*
Y19177D02*
D03*
X14986D02*
D03*
X26035Y14224D02*
D03*
X33655D02*
D03*
D19*
X27305Y21463D02*
D03*
X29845D02*
D03*
D20*
X4953Y24003D02*
D03*
X22000Y11657D02*
D03*
D21*
X4953Y26543D02*
D03*
Y29083D02*
D03*
X22000Y9117D02*
D03*
Y6577D02*
D03*
D22*
X64000Y57000D02*
D03*
Y4000D02*
D03*
X4000Y47000D02*
D03*
Y4000D02*
D03*
D23*
X30194Y9874D02*
D03*
Y7334D02*
D03*
X15843Y8334D02*
D03*
X13303D02*
D03*
X10763D02*
D03*
%TF.MD5,9b45597da10d6374d9d262f9115a6ba0*%
M02*
