%TF.GenerationSoftware,Altium Limited,Altium Designer,21.8.1 (53)*%
G04 Layer_Physical_Order=2*
G04 Layer_Color=16711680*
%FSLAX43Y43*%
%MOMM*%
%TF.SameCoordinates,5F523219-7FD1-4E24-926C-018E4D8E6641*%
%TF.FilePolarity,Positive*%
%TF.FileFunction,Copper,L2,Bot,Signal*%
%TF.Part,Single*%
G01*
G75*
%TA.AperFunction,NonConductor*%
%ADD10C,0.203*%
%TA.AperFunction,Conductor*%
%ADD11C,3.000*%
%ADD12C,0.400*%
%TA.AperFunction,ComponentPad*%
%ADD13O,1.000X2.000*%
%ADD14O,1.000X2.000*%
%ADD15C,3.500*%
%ADD16C,1.524*%
%ADD17O,12.000X3.500*%
%ADD18C,1.400*%
%ADD19C,1.416*%
%ADD20R,1.500X1.500*%
%ADD21C,1.500*%
%TA.AperFunction,ViaPad*%
%ADD22C,1.524*%
%TA.AperFunction,ComponentPad*%
%ADD23C,1.800*%
%TA.AperFunction,NonConductor*%
%ADD24C,0.254*%
D10*
X66356Y57000D02*
G03*
X66356Y57000I-2356J0D01*
G01*
D02*
G03*
X66356Y57000I-2356J0D01*
G01*
X57350Y26437D02*
G03*
X57838Y28670I-4868J2233D01*
G01*
D02*
G03*
X57350Y30903I-5356J0D01*
G01*
X50838Y47670D02*
G03*
X50838Y47670I-2356J0D01*
G01*
D02*
G03*
X50838Y47670I-2356J0D01*
G01*
X31000Y50517D02*
G03*
X31483Y51000I0J483D01*
G01*
X31000Y50517D02*
G03*
X31483Y51000I0J483D01*
G01*
X34211Y17653D02*
G03*
X34048Y18046I-556J0D01*
G01*
X34211Y17653D02*
G03*
X34048Y18046I-556J0D01*
G01*
X30909Y21463D02*
G03*
X30093Y20429I-1064J0D01*
G01*
X30879Y21215D02*
G03*
X30909Y21463I-1034J248D01*
G01*
X26398Y20907D02*
G03*
X28369Y21463I907J556D01*
G01*
D02*
G03*
X26398Y22019I-1064J0D01*
G01*
X23955Y19304D02*
G03*
X24118Y18911I556J0D01*
G01*
X23955Y19304D02*
G03*
X24118Y18911I556J0D01*
G01*
X47482Y16314D02*
G03*
X49477Y16700I0J5356D01*
G01*
X66356Y4000D02*
G03*
X66356Y4000I-2356J0D01*
G01*
D02*
G03*
X66356Y4000I-2356J0D01*
G01*
X50838Y9670D02*
G03*
X50838Y9670I-2356J0D01*
G01*
D02*
G03*
X50838Y9670I-2356J0D01*
G01*
X43487Y16700D02*
G03*
X45482Y16314I1995J4970D01*
G01*
X34711Y14224D02*
G03*
X34211Y15122I-1056J0D01*
G01*
X33099D02*
G03*
X34711Y14224I556J-898D01*
G01*
X30750Y13621D02*
G03*
X30587Y14014I-556J0D01*
G01*
X30750Y13621D02*
G03*
X30587Y14014I-556J0D01*
G01*
X24567Y14780D02*
G03*
X24174Y14617I0J-556D01*
G01*
X24567Y14780D02*
G03*
X24174Y14617I0J-556D01*
G01*
X27091Y14224D02*
G03*
X25137Y14780I-1056J0D01*
G01*
Y13668D02*
G03*
X27091Y14224I898J556D01*
G01*
X31450Y7334D02*
G03*
X28948Y7178I-1256J0D01*
G01*
X31450Y9874D02*
G03*
X30750Y11000I-1256J0D01*
G01*
X29580Y6239D02*
G03*
X31450Y7334I614J1095D01*
G01*
X29638Y11000D02*
G03*
X31450Y9874I556J-1126D01*
G01*
X29133Y6021D02*
G03*
X29526Y6184I0J556D01*
G01*
X29133Y6021D02*
G03*
X29526Y6184I0J556D01*
G01*
X21407Y33242D02*
G03*
X19319Y33798I-1118J0D01*
G01*
X17748D02*
G03*
X17355Y33635I0J-556D01*
G01*
X17748Y33798D02*
G03*
X17355Y33635I0J-556D01*
G01*
X19319Y32686D02*
G03*
X21407Y33242I970J556D01*
G01*
X18855Y19443D02*
G03*
X18462Y19606I-393J-393D01*
G01*
X18855Y19443D02*
G03*
X18462Y19606I-393J-393D01*
G01*
X21431Y19059D02*
G03*
X20161Y19059I-635J-573D01*
G01*
X22922Y18486D02*
G03*
X21431Y19059I-856J0D01*
G01*
X20161D02*
G03*
X19081Y19217I-635J-573D01*
G01*
X18518Y18208D02*
G03*
X18670Y18100I393J393D01*
G01*
X18518Y18208D02*
G03*
X18670Y18100I393J393D01*
G01*
X6356Y47000D02*
G03*
X6356Y47000I-2356J0D01*
G01*
D02*
G03*
X6356Y47000I-2356J0D01*
G01*
X6059Y29083D02*
G03*
X6059Y29083I-1106J0D01*
G01*
X11049Y25987D02*
G03*
X11442Y26150I0J556D01*
G01*
X11049Y25987D02*
G03*
X11442Y26150I0J556D01*
G01*
X17250Y22019D02*
G03*
X16694Y21463I0J-556D01*
G01*
X17250Y22019D02*
G03*
X16694Y21463I0J-556D01*
G01*
Y19216D02*
G03*
X16669Y19050I530J-166D01*
G01*
X16694Y19216D02*
G03*
X16669Y19050I530J-166D01*
G01*
X16694Y19216D02*
G03*
X16669Y19050I530J-166D01*
G01*
X8422Y19177D02*
G03*
X8422Y19177I-1056J0D01*
G01*
X16042D02*
G03*
X16042Y19177I-1056J0D01*
G01*
X5909Y27099D02*
G03*
X5909Y25987I-956J-556D01*
G01*
X21431Y16913D02*
G03*
X22922Y17486I635J573D01*
G01*
X21352Y16835D02*
G03*
X21431Y16913I-556J651D01*
G01*
X21189Y14853D02*
G03*
X21352Y15246I-393J393D01*
G01*
X21189Y14853D02*
G03*
X21352Y15246I-393J393D01*
G01*
X18670Y17486D02*
G03*
X20161Y16913I856J0D01*
G01*
X17617Y17157D02*
G03*
X17780Y17550I-393J393D01*
G01*
X17617Y17157D02*
G03*
X17780Y17550I-393J393D01*
G01*
X20161Y16913D02*
G03*
X20240Y16835I635J573D01*
G01*
X18800Y12694D02*
G03*
X19193Y12857I0J556D01*
G01*
X18800Y12694D02*
G03*
X19193Y12857I0J556D01*
G01*
X16042Y15311D02*
G03*
X16014Y15553I-1056J0D01*
G01*
X15228Y16339D02*
G03*
X16042Y15311I-242J-1028D01*
G01*
X23106Y9117D02*
G03*
X23106Y9117I-1106J0D01*
G01*
X22956Y7133D02*
G03*
X22956Y6021I-956J-556D01*
G01*
X17099Y8334D02*
G03*
X17099Y8334I-1256J0D01*
G01*
X8422Y15311D02*
G03*
X8422Y15311I-1056J0D01*
G01*
X6006Y16160D02*
G03*
X5843Y16553I-556J0D01*
G01*
X6006Y16160D02*
G03*
X5843Y16553I-556J0D01*
G01*
X5291Y12857D02*
G03*
X5684Y12694I393J393D01*
G01*
X5291Y12857D02*
G03*
X5684Y12694I393J393D01*
G01*
X5028Y17368D02*
G03*
X5056Y17610I-1028J242D01*
G01*
D02*
G03*
X4242Y16582I-1056J0D01*
G01*
X4894Y13484D02*
G03*
X5057Y13091I556J0D01*
G01*
X4894Y13484D02*
G03*
X5057Y13091I556J0D01*
G01*
X14559Y8334D02*
G03*
X14559Y8334I-1256J0D01*
G01*
X12019D02*
G03*
X12019Y8334I-1256J0D01*
G01*
X5056Y9990D02*
G03*
X5056Y9990I-1056J0D01*
G01*
X6356Y4000D02*
G03*
X6356Y4000I-2356J0D01*
G01*
D02*
G03*
X6356Y4000I-2356J0D01*
G01*
X66133Y60517D02*
X67517Y59133D01*
X66851Y60517D02*
X67517Y59851D01*
X65377Y58911D02*
X66983Y60517D01*
X64357Y59328D02*
X65546Y60517D01*
X64917Y59170D02*
X66265Y60517D01*
X66055Y58152D02*
X67517Y59615D01*
X65755Y58571D02*
X67517Y60333D01*
X66266Y57645D02*
X67517Y58896D01*
X65414Y60517D02*
X67517Y58414D01*
X64696Y60517D02*
X67517Y57696D01*
X61104Y60517D02*
X62674Y58947D01*
X60385Y60517D02*
X62286Y58616D01*
X59667Y60517D02*
X61977Y58207D01*
X58948Y60517D02*
X61754Y57711D01*
X58230Y60517D02*
X61647Y57101D01*
X63638Y59328D02*
X64828Y60517D01*
X63259D02*
X64467Y59309D01*
X62540Y60517D02*
X63719Y59339D01*
X61822Y60517D02*
X63145Y59195D01*
X56075Y60517D02*
X67517Y49075D01*
X56793Y60517D02*
X67517Y49793D01*
X55356Y60517D02*
X67517Y48356D01*
X54638Y60517D02*
X67517Y47638D01*
X53919Y60517D02*
X67517Y46919D01*
X53201Y60517D02*
X67517Y46201D01*
X66190Y56132D02*
X67517Y57459D01*
X52483Y60517D02*
X67517Y45483D01*
X51764Y60517D02*
X67517Y44764D01*
X51046Y60517D02*
X67517Y44046D01*
X63977Y60517D02*
X67517Y56977D01*
X57511Y60517D02*
X61761Y56268D01*
X50821Y47948D02*
X63391Y60517D01*
X50678Y48523D02*
X62673Y60517D01*
X50790Y47198D02*
X64110Y60517D01*
X66356Y57016D02*
X67517Y58178D01*
X66309Y57467D02*
X67517Y56259D01*
X49196Y49915D02*
X59799Y60517D01*
X48586Y50023D02*
X59081Y60517D01*
X47756Y49911D02*
X58362Y60517D01*
X43461Y48489D02*
X55488Y60517D01*
X43820Y48130D02*
X56207Y60517D01*
X50100Y49382D02*
X61236Y60517D01*
X49691Y49691D02*
X60517Y60517D01*
X50431Y48994D02*
X61954Y60517D01*
X31483D02*
X67517D01*
X49691Y49691D02*
X60517Y60517D01*
X39661Y49000D02*
X51178Y60517D01*
X38942Y49000D02*
X50459Y60517D01*
X40379Y49000D02*
X51896Y60517D01*
X38833D02*
X49614Y49736D01*
X38224Y49000D02*
X49741Y60517D01*
X42534Y49000D02*
X54052Y60517D01*
X43101Y48849D02*
X54770Y60517D01*
X41097Y49000D02*
X52615Y60517D01*
X41816Y49000D02*
X53333Y60517D01*
X44580D02*
X67517Y37580D01*
X45298Y60517D02*
X67517Y38298D01*
X43861Y60517D02*
X67517Y36861D01*
X43143Y60517D02*
X67517Y36143D01*
X42425Y60517D02*
X67517Y35425D01*
X40988Y60517D02*
X67517Y33988D01*
X41706Y60517D02*
X67517Y34706D01*
X40269Y60517D02*
X67517Y33269D01*
X39551Y60517D02*
X67517Y32551D01*
X31648Y60517D02*
X67517Y24648D01*
X49609Y60517D02*
X67517Y42609D01*
X50327Y60517D02*
X67517Y43327D01*
X48890Y60517D02*
X67517Y41890D01*
X44179Y47771D02*
X56925Y60517D01*
X44538Y47412D02*
X57644Y60517D01*
X48172D02*
X67517Y41172D01*
X47454Y60517D02*
X67517Y40454D01*
X46735Y60517D02*
X67517Y39735D01*
X46017Y60517D02*
X67517Y39017D01*
X57350Y32924D02*
X67517Y43091D01*
X57350Y33642D02*
X67517Y43810D01*
X57350Y32205D02*
X67517Y42373D01*
X57111Y34839D02*
X67517Y45246D01*
X57350Y34361D02*
X67517Y44528D01*
X57734Y29716D02*
X67517Y39499D01*
X57588Y30288D02*
X67517Y40217D01*
X57822Y29085D02*
X67517Y38781D01*
X57350Y31487D02*
X67517Y41654D01*
X57391Y30810D02*
X67517Y40936D01*
X66195Y56145D02*
X67517Y54822D01*
X66339Y56719D02*
X67517Y55540D01*
X65947Y55674D02*
X67517Y54104D01*
X65616Y55286D02*
X67517Y53385D01*
X65207Y54977D02*
X67517Y52667D01*
X64711Y54754D02*
X67517Y51948D01*
X64101Y54647D02*
X67517Y51230D01*
X63268Y54761D02*
X67517Y50511D01*
X57350Y30903D02*
Y34600D01*
Y31942D02*
X67517Y21775D01*
X57350Y32660D02*
X67517Y22493D01*
X57350Y31224D02*
X67517Y21056D01*
X57350Y34097D02*
X67517Y23930D01*
X57350Y33379D02*
X67517Y23211D01*
X57837Y28581D02*
X67517Y18901D01*
X57795Y29341D02*
X67517Y19619D01*
X57784Y27916D02*
X67517Y18183D01*
X57597Y30259D02*
X67517Y20338D01*
X57664Y27317D02*
X67517Y17464D01*
X57718Y27544D02*
X67517Y37344D01*
X57829Y28374D02*
X67517Y38062D01*
X57367Y26475D02*
X67517Y36625D01*
X57350Y25739D02*
X67517Y35907D01*
X57350Y25021D02*
X67517Y35188D01*
X57350Y23900D02*
Y26437D01*
Y24303D02*
X67517Y34470D01*
X51722Y40228D02*
X67517Y56023D01*
X51363Y40587D02*
X67517Y56741D01*
X52082Y39868D02*
X67517Y55304D01*
X50645Y41305D02*
X63984Y54644D01*
X51004Y40946D02*
X64868Y54810D01*
X53518Y38432D02*
X67517Y52431D01*
X53159Y38791D02*
X67517Y53149D01*
X53878Y38072D02*
X67517Y51712D01*
X52441Y39509D02*
X67517Y54586D01*
X52800Y39150D02*
X67517Y53867D01*
X49208Y42742D02*
X62089Y55623D01*
X48849Y43101D02*
X61830Y56083D01*
X49567Y42383D02*
X62429Y55245D01*
X48130Y43820D02*
X61672Y57362D01*
X48489Y43461D02*
X61672Y56643D01*
X49926Y42024D02*
X62848Y54945D01*
X50286Y41664D02*
X63355Y54734D01*
X50776Y47137D02*
X67517Y30396D01*
X50834Y47797D02*
X67517Y31114D01*
X50585Y46609D02*
X67517Y29677D01*
X50548Y48802D02*
X67517Y31833D01*
X50302Y46174D02*
X67517Y28959D01*
X49496Y45544D02*
X67517Y27522D01*
X49939Y45819D02*
X67517Y28240D01*
X48958Y45363D02*
X67517Y26804D01*
X48279Y45323D02*
X67517Y26085D01*
X47172Y45713D02*
X67517Y25367D01*
X54955Y36995D02*
X67517Y49557D01*
X54596Y37354D02*
X67517Y50275D01*
X55314Y36636D02*
X67517Y48838D01*
X54237Y37713D02*
X67517Y50994D01*
X42950Y49000D02*
X57350Y34600D01*
X56392Y35558D02*
X67517Y46683D01*
X56751Y35199D02*
X67517Y45965D01*
X55674Y36276D02*
X67517Y48120D01*
X56033Y35917D02*
X67517Y47402D01*
X31758Y49000D02*
X43275Y60517D01*
X31483Y51598D02*
X40402Y60517D01*
X32476Y49000D02*
X43994Y60517D01*
X31483Y53035D02*
X38965Y60517D01*
X31483Y52317D02*
X39683Y60517D01*
X38114D02*
X48609Y50022D01*
X37396Y60517D02*
X47949Y49964D01*
X36677Y60517D02*
X47421Y49773D01*
X35959Y60517D02*
X46986Y49490D01*
X35240Y60517D02*
X46631Y49127D01*
X31483Y54472D02*
X37528Y60517D01*
X31483Y58064D02*
X33936Y60517D01*
X31483Y53754D02*
X38246Y60517D01*
X31483Y60219D02*
X31781Y60517D01*
X31483Y51000D02*
Y60517D01*
Y52780D02*
X35263Y49000D01*
X31483Y52062D02*
X34545Y49000D01*
X31483Y54217D02*
X36700Y49000D01*
X31483Y53499D02*
X35981Y49000D01*
X35350D02*
X46867Y60517D01*
X34632Y49000D02*
X46149Y60517D01*
X34522D02*
X46356Y48684D01*
X33804Y60517D02*
X46175Y48146D01*
X32367Y60517D02*
X46525Y46360D01*
X37505Y49000D02*
X49023Y60517D01*
X44897Y47053D02*
X46241Y48396D01*
X45616Y46334D02*
X46237Y46956D01*
X36068Y49000D02*
X47586Y60517D01*
X36787Y49000D02*
X48304Y60517D01*
X33913Y49000D02*
X45431Y60517D01*
X33195Y49000D02*
X44712Y60517D01*
X33085D02*
X46135Y47467D01*
X31483Y57091D02*
X39574Y49000D01*
X31483Y56373D02*
X38855Y49000D01*
X31483Y51344D02*
X33826Y49000D01*
X45257Y46693D02*
X46129Y47566D01*
X31483Y55654D02*
X38137Y49000D01*
X31483Y54936D02*
X37418Y49000D01*
X31483Y56627D02*
X35373Y60517D01*
X31483Y57346D02*
X34654Y60517D01*
X31483Y55909D02*
X36091Y60517D01*
X31483Y59501D02*
X32499Y60517D01*
X31483Y58783D02*
X33217Y60517D01*
X31462Y50859D02*
X41120Y60517D01*
X31483Y55190D02*
X36810Y60517D01*
X29435Y50517D02*
X30953Y49000D01*
X27280Y50517D02*
X28797Y49000D01*
X26729D02*
X28246Y50517D01*
X27447Y49000D02*
X28965Y50517D01*
X26011Y49000D02*
X27528Y50517D01*
X26561D02*
X28079Y49000D01*
X28717Y50517D02*
X30234Y49000D01*
X28884D02*
X30402Y50517D01*
X27998D02*
X29516Y49000D01*
X28166D02*
X29683Y50517D01*
X31483Y59965D02*
X42447Y49000D01*
X31483Y59246D02*
X41729Y49000D01*
X31483Y58528D02*
X41010Y49000D01*
X30321D02*
X41838Y60517D01*
X31039Y49000D02*
X42557Y60517D01*
X31391Y50717D02*
X33108Y49000D01*
X30872Y50517D02*
X32389Y49000D01*
X31483Y57809D02*
X40292Y49000D01*
X29603D02*
X31141Y50538D01*
X30154Y50517D02*
X31671Y49000D01*
X23855D02*
X25373Y50517D01*
X23688D02*
X25205Y49000D01*
X24406Y50517D02*
X25924Y49000D01*
X22969Y50517D02*
X24487Y49000D01*
X23137D02*
X24654Y50517D01*
X25292Y49000D02*
X26809Y50517D01*
X25843D02*
X27360Y49000D01*
X24574D02*
X26091Y50517D01*
X25125D02*
X26642Y49000D01*
X46693Y45257D02*
X47158Y45721D01*
X46334Y45616D02*
X46770Y46052D01*
X47053Y44897D02*
X47629Y45474D01*
X45975Y45975D02*
X46461Y46461D01*
X45975Y45975D02*
X46461Y46461D01*
X47771Y44179D02*
X48954Y45362D01*
X47412Y44538D02*
X48204Y45331D01*
X34100Y21500D02*
Y25300D01*
X30695Y25550D02*
X34100Y22145D01*
X30904Y21564D02*
X34100Y24761D01*
X32850Y25550D02*
X34100Y24300D01*
X33568Y25550D02*
X34100Y25018D01*
X30318Y22416D02*
X33453Y25550D01*
X29701Y22517D02*
X32734Y25550D01*
X28301Y21835D02*
X32016Y25550D01*
X33900Y25500D02*
X34100Y25300D01*
X32132Y25550D02*
X34100Y23582D01*
X31413Y25550D02*
X34100Y22863D01*
X30707Y22086D02*
X34011Y25389D01*
X33231Y18863D02*
X34984Y20616D01*
X32872Y19222D02*
X34625Y20975D01*
X33590Y18503D02*
X35343Y20257D01*
X32153Y19940D02*
X34100Y21887D01*
X32513Y19581D02*
X34266Y21334D01*
X34210Y17686D02*
X36062Y19538D01*
X34211Y16968D02*
X36421Y19179D01*
X33950Y18144D02*
X35703Y19897D01*
X31435Y20659D02*
X34100Y23324D01*
X31076Y21018D02*
X34100Y24042D01*
X31794Y20299D02*
X34100Y22605D01*
X28316Y21131D02*
X28791Y21607D01*
X30879Y21215D02*
X34048Y18046D01*
X30093Y20429D02*
X33099Y17423D01*
X30073Y20424D02*
X33099Y17398D01*
X27103Y25550D02*
X30180Y22472D01*
X26384Y25550D02*
X29474Y22460D01*
X26329Y22019D02*
X29861Y25550D01*
X24892Y22019D02*
X28424Y25550D01*
X25611Y22019D02*
X29142Y25550D01*
X28008Y22261D02*
X31297Y25550D01*
X27531Y22502D02*
X30579Y25550D01*
X26150D02*
X33900D01*
X23700Y28000D02*
X26150Y25550D01*
X23700Y28000D02*
Y37650D01*
X24174Y22019D02*
X27705Y25550D01*
X22737Y22019D02*
X26268Y25550D01*
X23455Y22019D02*
X26987Y25550D01*
X25067Y20907D02*
X26398D01*
X25067Y20756D02*
X25218Y20907D01*
X24511Y22019D02*
X26398D01*
X23843Y20907D02*
X23955Y20795D01*
X26252Y18349D02*
X28892Y20990D01*
X25174Y19427D02*
X26507Y20760D01*
X26611Y17990D02*
X29222Y20601D01*
X25067Y20038D02*
X25936Y20907D01*
X25067Y19534D02*
Y20907D01*
X26970Y17631D02*
X29744Y20404D01*
X27329Y17271D02*
X30290Y20232D01*
X25533Y19067D02*
X26933Y20467D01*
X25892Y18708D02*
X27637Y20452D01*
X23955Y19304D02*
Y20907D01*
X23124D02*
X23955Y20076D01*
X22677Y19085D02*
X23955Y20363D01*
X22914Y18603D02*
X23955Y19645D01*
X22922Y17486D02*
Y18486D01*
Y17893D02*
X24039Y19010D01*
X22809Y17061D02*
X24388Y18641D01*
X50699Y10467D02*
X67517Y27286D01*
X50461Y10948D02*
X67517Y28004D01*
X50828Y9878D02*
X67517Y26567D01*
X49739Y11662D02*
X67517Y29441D01*
X50139Y11344D02*
X67517Y28723D01*
X55983Y22533D02*
X67517Y10998D01*
X56342Y22892D02*
X67517Y11717D01*
X55624Y22174D02*
X67517Y10280D01*
X55264Y21814D02*
X67517Y9561D01*
X50767Y9099D02*
X67517Y25849D01*
X57350Y24758D02*
X67517Y14590D01*
X57490Y26773D02*
X67517Y16746D01*
X57350Y24039D02*
X67517Y13872D01*
X57350Y26195D02*
X67517Y16027D01*
X57350Y25476D02*
X67517Y15309D01*
X57060Y23610D02*
X67517Y13154D01*
X56701Y23251D02*
X67517Y12435D01*
X49477Y16700D02*
X50150D01*
X57350Y23900D01*
X53828Y20378D02*
X67517Y6688D01*
X54187Y20737D02*
X67517Y7406D01*
Y483D02*
Y60517D01*
X53468Y20018D02*
X67517Y5969D01*
X53109Y19659D02*
X67517Y5251D01*
X52391Y18941D02*
X67517Y3814D01*
X52750Y19300D02*
X67517Y4533D01*
X50772Y483D02*
X67517Y17228D01*
X49335Y483D02*
X67517Y18665D01*
X50054Y483D02*
X67517Y17946D01*
X54546Y21096D02*
X67517Y8125D01*
X54905Y21455D02*
X67517Y8843D01*
X52032Y18582D02*
X64273Y6340D01*
X51672Y18222D02*
X63577Y6317D01*
X51313Y17863D02*
X63030Y6146D01*
X50954Y17504D02*
X62579Y5879D01*
X50595Y17145D02*
X62209Y5530D01*
X50236Y16786D02*
X61918Y5103D01*
X49603Y16700D02*
X61718Y4585D01*
X48658Y12019D02*
X67517Y30878D01*
X48811Y16482D02*
X49029Y16700D01*
X49254Y11896D02*
X67517Y30160D01*
X48166Y16700D02*
X48461Y16405D01*
X47864Y11943D02*
X67517Y31596D01*
X48884Y16700D02*
X49039Y16546D01*
X61645Y3939D01*
X43487Y16700D02*
X49477D01*
X44044Y16511D02*
X48530Y12025D01*
X46729Y16700D02*
X47115Y16314D01*
X46488D02*
X46874Y16700D01*
X42418D02*
X47371Y11747D01*
X41700Y16700D02*
X46945Y11455D01*
X40982Y16700D02*
X46598Y11084D01*
X47945Y16334D02*
X48311Y16700D01*
X47447D02*
X47822Y16325D01*
X47207Y16314D02*
X47592Y16700D01*
X43137D02*
X47887Y11949D01*
X42869Y483D02*
X67517Y25131D01*
X35685Y483D02*
X67517Y32315D01*
X43588Y483D02*
X67517Y24412D01*
X34248Y483D02*
X67517Y33752D01*
X34967Y483D02*
X67517Y33033D01*
X47898Y483D02*
X67517Y20102D01*
X47180Y483D02*
X67517Y20820D01*
X48617Y483D02*
X67517Y19383D01*
X44306Y483D02*
X67517Y23694D01*
X46462Y483D02*
X67517Y21538D01*
X45025Y483D02*
X67517Y22975D01*
X29258Y25550D02*
X54325Y483D01*
X45743D02*
X67517Y22257D01*
X27821Y25550D02*
X52888Y483D01*
X28539Y25550D02*
X53607Y483D01*
X34205Y17729D02*
X51452Y483D01*
X34211Y17005D02*
X50733Y483D01*
X30854Y21798D02*
X52170Y483D01*
X33530D02*
X49747Y16700D01*
X66299Y4515D02*
X67517Y5733D01*
X66111Y5045D02*
X67517Y6452D01*
X66351Y3848D02*
X67517Y5015D01*
X65830Y5483D02*
X67517Y7170D01*
X66036Y2814D02*
X67517Y4296D01*
X66317Y3577D02*
X67517Y2377D01*
X66340Y4273D02*
X67517Y3096D01*
X66146Y3030D02*
X67517Y1659D01*
X65879Y2579D02*
X67517Y940D01*
X64422Y483D02*
X67517Y3578D01*
X65029Y6119D02*
X67517Y8607D01*
X64495Y6303D02*
X67517Y9325D01*
X65470Y5841D02*
X67517Y7888D01*
X63823Y6349D02*
X67517Y10044D01*
X62755Y6000D02*
X67517Y10762D01*
X63704Y483D02*
X65186Y1964D01*
X63939Y1645D02*
X65102Y483D01*
X65141D02*
X67517Y2859D01*
X65530Y2209D02*
X67257Y483D01*
X65859D02*
X67517Y2141D01*
X55801Y483D02*
X67517Y12199D01*
X56519Y483D02*
X67517Y11481D01*
X66577Y483D02*
X67517Y1423D01*
X65103Y1918D02*
X66538Y483D01*
X67296D02*
X67517Y704D01*
X62997Y1868D02*
X64383Y483D01*
X64585Y1718D02*
X65820Y483D01*
X59393D02*
X61881Y2971D01*
X58675Y483D02*
X61697Y3505D01*
X60112Y483D02*
X62159Y2530D01*
X57238Y483D02*
X62000Y5245D01*
X57956Y483D02*
X61651Y4177D01*
X62267Y483D02*
X63486Y1701D01*
X62985Y483D02*
X64152Y1649D01*
X60830Y483D02*
X62517Y2170D01*
X61548Y483D02*
X62955Y1889D01*
X48461Y16405D02*
X61868Y2997D01*
X44931Y16343D02*
X49461Y11812D01*
X45678Y16314D02*
X61509Y483D01*
X32812D02*
X48811Y16482D01*
X34211Y16287D02*
X50015Y483D01*
X42151D02*
X49053Y7385D01*
X34211Y15568D02*
X49296Y483D01*
X34702Y14358D02*
X48578Y483D01*
X34596Y13746D02*
X47859Y483D01*
X45482Y16314D02*
X47482D01*
X38559Y483D02*
X46490Y8413D01*
X31375Y483D02*
X47207Y16314D01*
X34263Y13361D02*
X47141Y483D01*
X40714D02*
X47685Y7453D01*
X41433Y483D02*
X48274Y7324D01*
X39277Y483D02*
X46808Y8013D01*
X39996Y483D02*
X47204Y7691D01*
X51491Y483D02*
X67517Y16509D01*
X47822Y16325D02*
X63665Y483D01*
X52209D02*
X67517Y15791D01*
X46396Y16314D02*
X62228Y483D01*
X47115Y16314D02*
X62946Y483D01*
X54364D02*
X67517Y13636D01*
X53646Y483D02*
X67517Y14354D01*
X55083Y483D02*
X67517Y12917D01*
X50624Y10649D02*
X60791Y483D01*
X52927D02*
X67517Y15073D01*
X50761Y9075D02*
X59354Y483D01*
X50559Y8559D02*
X58636Y483D01*
X50837Y9718D02*
X60073Y483D01*
X32093D02*
X47945Y16334D01*
X50267Y8133D02*
X57917Y483D01*
X49444Y7520D02*
X56481Y483D01*
X49896Y7786D02*
X57199Y483D01*
X48194Y7332D02*
X55044Y483D01*
X48894Y7351D02*
X55762Y483D01*
X44436Y16418D02*
X44718Y16700D01*
X43864Y16565D02*
X44000Y16700D01*
X44574D02*
X44931Y16343D01*
X38900Y16700D02*
X43487D01*
X43855D02*
X44044Y16511D01*
X45770Y16314D02*
X46155Y16700D01*
X45292D02*
X45678Y16314D01*
X46011Y16700D02*
X46396Y16314D01*
X45067Y16330D02*
X45437Y16700D01*
X34211Y15532D02*
X37139Y18461D01*
X34211Y16250D02*
X36780Y18820D01*
X34384Y14987D02*
X37499Y18101D01*
X34100Y21500D02*
X38900Y16700D01*
X29485Y15116D02*
X32445Y18077D01*
X34211Y15122D02*
Y17653D01*
X34661Y14545D02*
X37858Y17742D01*
X33099Y15122D02*
Y17423D01*
X29844Y14757D02*
X32805Y17718D01*
X31144Y8155D02*
X39689Y16700D01*
X31449Y9897D02*
X38576Y17024D01*
X31398Y7690D02*
X40408Y16700D01*
X29976Y25550D02*
X46144Y9382D01*
X30737Y8466D02*
X38971Y16700D01*
X40263D02*
X46332Y10632D01*
X39545Y16700D02*
X46163Y10082D01*
X31395Y6969D02*
X41126Y16700D01*
X29938Y483D02*
X45770Y16314D01*
X30656Y483D02*
X46488Y16314D01*
X34611Y13777D02*
X38217Y17383D01*
X30750Y13507D02*
X33099Y15857D01*
X30203Y14398D02*
X33099Y17294D01*
X30562Y14039D02*
X33099Y16576D01*
X30750Y12789D02*
X32791Y14830D01*
X28189Y20872D02*
X33099Y15961D01*
X28367Y21412D02*
X33099Y16680D01*
X27813Y20529D02*
X33099Y15243D01*
X27689Y16912D02*
X30649Y19873D01*
X27221Y20403D02*
X32792Y14832D01*
X28766Y15835D02*
X31727Y18795D01*
X28407Y16194D02*
X31368Y19155D01*
X29125Y15475D02*
X32086Y18436D01*
X28048Y16553D02*
X31008Y19514D01*
X26955Y14742D02*
X27621Y15408D01*
X26056Y15279D02*
X26903Y16126D01*
X22922Y17518D02*
X25384Y15055D01*
X24837Y14780D02*
X26544Y16486D01*
X22922Y18236D02*
X25888Y15269D01*
X22750Y16971D02*
X24941Y14780D01*
X26606Y15112D02*
X27262Y15767D01*
X24567Y14780D02*
X25137D01*
X25279Y20907D02*
X45704Y483D01*
X25998Y20907D02*
X32602Y14303D01*
X25627Y483D02*
X41845Y16700D01*
X25067Y20402D02*
X44986Y483D01*
X25067Y19683D02*
X44267Y483D01*
X28501D02*
X44436Y16418D01*
X27783Y483D02*
X43864Y16565D01*
X29219Y483D02*
X45067Y16330D01*
X26346Y483D02*
X42563Y16700D01*
X27064Y483D02*
X43282Y16700D01*
X27088Y14157D02*
X27980Y15049D01*
X25067Y19534D02*
X30587Y14014D01*
X24118Y18911D02*
X29638Y13391D01*
X23065Y9415D02*
X28340Y14690D01*
X27080Y14077D02*
X29638Y11519D01*
X22987Y8618D02*
X28699Y14330D01*
X22595Y7509D02*
X29058Y13971D01*
X30974Y10858D02*
X33334Y13218D01*
X30750Y11352D02*
X32892Y13495D01*
X31301Y10467D02*
X34102Y13268D01*
X30750Y12071D02*
X32634Y13955D01*
X30750Y11000D02*
Y13621D01*
X27234Y6021D02*
X32773Y483D01*
X30372Y8631D02*
X30437Y8566D01*
X29638Y11000D02*
Y13391D01*
X27967Y7133D02*
X29601Y8767D01*
X26866Y13573D02*
X29512Y10928D01*
X27248Y7133D02*
X29210Y9094D01*
X29526Y6184D02*
X29580Y6239D01*
X28685Y7133D02*
X28940Y7387D01*
X30750Y11845D02*
X42112Y483D01*
X30750Y11127D02*
X41394Y483D01*
X33734Y13171D02*
X46423Y483D01*
X30750Y13282D02*
X43549Y483D01*
X30750Y12564D02*
X42831Y483D01*
X36404D02*
X46209Y10288D01*
X37122Y483D02*
X46133Y9494D01*
X37840Y483D02*
X46256Y8898D01*
X31248Y9192D02*
X39957Y483D01*
X31440Y9718D02*
X40675Y483D01*
X31375Y6909D02*
X37802Y483D01*
X31101Y6465D02*
X37083Y483D01*
X31426Y7577D02*
X38520Y483D01*
X30674Y6174D02*
X36365Y483D01*
X30891Y8830D02*
X39238Y483D01*
X29346Y6064D02*
X34928Y483D01*
X30041Y6088D02*
X35646Y483D01*
X27952Y6021D02*
X33491Y483D01*
X28671Y6021D02*
X34209Y483D01*
X26462Y13259D02*
X29150Y10571D01*
X25810Y13193D02*
X28951Y10052D01*
X24706Y13578D02*
X29769Y8515D01*
X24347Y13219D02*
X29325Y8241D01*
X22949Y7144D02*
X29417Y13612D01*
X23988Y12859D02*
X29034Y7814D01*
X23629Y12500D02*
X28948Y7181D01*
X23270Y12141D02*
X28278Y7133D01*
X23106Y11586D02*
X27559Y7133D01*
X23106Y10868D02*
X26841Y7133D01*
X23106Y11611D02*
X25147Y13653D01*
X24797Y13668D02*
X25137D01*
X23106Y10892D02*
X25517Y13304D01*
X23106Y11977D02*
X24797Y13668D01*
X22806Y9874D02*
X26102Y13171D01*
X23106Y10551D02*
Y11977D01*
X23049Y8769D02*
X24686Y7133D01*
X22704Y10551D02*
X26123Y7133D01*
X23037Y9499D02*
X25404Y7133D01*
X25093D02*
X29638Y11678D01*
X24375Y7133D02*
X29638Y12396D01*
X24909Y483D02*
X30559Y6133D01*
X23656Y7133D02*
X29638Y13115D01*
X24191Y483D02*
X29838Y6130D01*
X25797Y6021D02*
X31336Y483D01*
X26515Y6021D02*
X32054Y483D01*
X24360Y6021D02*
X29899Y483D01*
X25079Y6021D02*
X30617Y483D01*
X25812Y7133D02*
X29034Y10355D01*
X22956Y7133D02*
X28903D01*
X26530D02*
X28974Y9577D01*
X22773Y8327D02*
X23967Y7133D01*
X22754Y483D02*
X28292Y6021D01*
X23472Y483D02*
X29011Y6021D01*
X23642D02*
X29181Y483D01*
X22956Y6021D02*
X29133D01*
X22944Y6001D02*
X28462Y483D01*
X20814Y50517D02*
X22331Y49000D01*
X20263D02*
X21781Y50517D01*
X20982Y49000D02*
X22499Y50517D01*
X19545Y49000D02*
X21062Y50517D01*
X20096D02*
X21613Y49000D01*
X22251Y50517D02*
X23768Y49000D01*
X21700D02*
X23217Y50517D01*
X22418Y49000D02*
X23936Y50517D01*
X17450Y49000D02*
X42950D01*
X21533Y50517D02*
X23050Y49000D01*
X17222Y50517D02*
X18739Y49000D01*
X16504Y50517D02*
X18021Y49000D01*
X17940Y50517D02*
X19458Y49000D01*
X15785Y50517D02*
X17450Y48853D01*
X15067Y50517D02*
X17450Y48134D01*
X18826Y49000D02*
X20344Y50517D01*
X19377D02*
X20895Y49000D01*
X18108D02*
X19625Y50517D01*
X18659D02*
X20176Y49000D01*
X19933Y34301D02*
X23491Y37859D01*
X17992Y33798D02*
X22772Y38578D01*
X18711Y33798D02*
X23132Y38218D01*
X17450Y43900D02*
X23700Y37650D01*
X10756Y50517D02*
X23700Y37574D01*
X21323Y32818D02*
X23700Y35195D01*
X21357Y33570D02*
X23700Y35913D01*
X21393Y33415D02*
X23700Y31108D01*
X20650Y34300D02*
X23700Y37350D01*
X21090Y34021D02*
X23700Y36632D01*
X12912Y50517D02*
X17450Y45979D01*
X14348Y50517D02*
X17450Y47416D01*
Y43900D02*
Y49000D01*
X11475Y50517D02*
X17450Y44542D01*
X10575Y27099D02*
X22413Y38937D01*
X17748Y33798D02*
X19319D01*
X9319Y50517D02*
X23700Y36137D01*
X10038Y50517D02*
X23700Y36855D01*
X8601Y50517D02*
X23700Y35418D01*
X7883Y50517D02*
X23700Y34700D01*
X4290Y50517D02*
X20462Y34346D01*
X6446Y50517D02*
X23700Y33263D01*
X7164Y50517D02*
X23700Y33982D01*
X5727Y50517D02*
X23700Y32545D01*
X483Y50517D02*
X31000D01*
X5009D02*
X23700Y31826D01*
X6168Y47922D02*
X19829Y34261D01*
X483Y32093D02*
X18907Y50517D01*
X483Y31375D02*
X17450Y48342D01*
X483Y33530D02*
X17470Y50517D01*
X483Y32812D02*
X18188Y50517D01*
X6356Y47015D02*
X19423Y33948D01*
X6273Y46380D02*
X18855Y33798D01*
X6066Y45868D02*
X18137Y33798D01*
X5770Y45446D02*
X17485Y33731D01*
X6264Y27099D02*
X20258Y41092D01*
X6058Y29048D02*
X19180Y42170D01*
X6983Y27099D02*
X20617Y40733D01*
X5316Y27587D02*
X19539Y41811D01*
X5753Y27306D02*
X19899Y41451D01*
X9856Y27099D02*
X22054Y39296D01*
X9138Y27099D02*
X21695Y39655D01*
X8421Y19198D02*
X23700Y34476D01*
X7701Y27099D02*
X20976Y40374D01*
X8420Y27099D02*
X21336Y40014D01*
X483Y28501D02*
X17450Y45468D01*
X483Y29219D02*
X17450Y46187D01*
X483Y27783D02*
X17450Y44750D01*
X483Y30656D02*
X17450Y47624D01*
X483Y29938D02*
X17450Y46905D01*
X5572Y29999D02*
X18462Y42888D01*
X5917Y29625D02*
X18821Y42529D01*
X5040Y30185D02*
X18103Y43247D01*
X483Y26346D02*
X17743Y43607D01*
X19145Y22019D02*
X24413Y27287D01*
X19248Y32686D02*
X23700Y28234D01*
X19863Y22019D02*
X24772Y26928D01*
X18529Y32686D02*
X29048Y22168D01*
X18426Y22019D02*
X24054Y27646D01*
X22019Y22019D02*
X25850Y25850D01*
X22019Y22019D02*
X25850Y25850D01*
X22406Y20907D02*
X23955Y19358D01*
X20582Y22019D02*
X25132Y26568D01*
X21300Y22019D02*
X25491Y26209D01*
X20995Y32376D02*
X23700Y29671D01*
X21308Y32782D02*
X23700Y30389D01*
X20507Y32146D02*
X23700Y28953D01*
X18169Y19606D02*
X19471Y20907D01*
X18784Y19503D02*
X20189Y20907D01*
X20778Y19341D02*
X22344Y20907D01*
X20250D02*
X21845Y19313D01*
X19948Y19230D02*
X21626Y20907D01*
X21319Y19163D02*
X23063Y20907D01*
X19315Y19315D02*
X20907Y20907D01*
X19532D02*
X21198Y19241D01*
X22204Y19330D02*
X23781Y20907D01*
X19315Y19315D02*
X20907Y20907D01*
X18855Y19443D02*
X19081Y19217D01*
X18095Y20907D02*
X19674Y19329D01*
X18814Y20907D02*
X20452Y19269D01*
X18670Y17486D02*
Y18100D01*
X18232Y18494D02*
X18518Y18208D01*
X17535Y32244D02*
X27254Y22525D01*
X17176Y31884D02*
X26714Y22347D01*
X16817Y31525D02*
X26323Y22019D01*
X16098Y30807D02*
X24887Y22019D01*
X16458Y31166D02*
X25605Y22019D01*
X17250D02*
X24511D01*
X15739Y30448D02*
X24168Y22019D01*
X17708D02*
X23700Y28011D01*
X15021Y29729D02*
X22731Y22019D01*
X15380Y30088D02*
X23450Y22019D01*
X14302Y29011D02*
X21295Y22019D01*
X17978Y32686D02*
X19319D01*
X14662Y29370D02*
X22013Y22019D01*
X11442Y26150D02*
X17978Y32686D01*
X13943Y28651D02*
X20576Y22019D01*
X13225Y27933D02*
X19139Y22019D01*
X13584Y28292D02*
X19858Y22019D01*
X12506Y27215D02*
X17702Y22019D01*
X12866Y27574D02*
X18421Y22019D01*
X17895Y32603D02*
X28806Y21691D01*
X7884Y20097D02*
X19961Y32174D01*
X8254Y19748D02*
X20713Y32208D01*
X7299Y20230D02*
X19510Y32441D01*
X4726Y18376D02*
X19036Y32686D01*
X17806Y20907D02*
X23955D01*
X17806Y19961D02*
X18752Y20907D01*
X17806Y20479D02*
X18775Y19509D01*
X15185Y20214D02*
X23700Y28729D01*
X17780Y18349D02*
X18671Y17458D01*
X17806Y20679D02*
X18034Y20907D01*
X17806Y19760D02*
X17960Y19606D01*
X17806D02*
X18462D01*
X17806D02*
Y20907D01*
X4264Y18632D02*
X18318Y32686D01*
X17780Y17780D02*
X18363Y18363D01*
X17780Y17780D02*
X18363Y18363D01*
X17780Y18494D02*
X18232D01*
X17780Y17550D02*
Y18494D01*
X5944Y48331D02*
X8131Y50517D01*
X5612Y48717D02*
X7412Y50517D01*
X6193Y47861D02*
X8849Y50517D01*
X4705Y49248D02*
X5975Y50517D01*
X5202Y49026D02*
X6694Y50517D01*
X13630D02*
X17450Y46697D01*
X6338Y47288D02*
X9567Y50517D01*
X12193D02*
X17450Y45261D01*
X6311Y46542D02*
X10286Y50517D01*
X2854D02*
X4015Y49356D01*
X2135Y50517D02*
X3380Y49273D01*
X3256Y49235D02*
X4538Y50517D01*
X1417D02*
X2868Y49066D01*
X698Y50517D02*
X2446Y48770D01*
X4093Y49354D02*
X5257Y50517D01*
X3572D02*
X4922Y49168D01*
X483Y45743D02*
X1646Y46907D01*
X483Y45025D02*
X1752Y46295D01*
X5395Y45102D02*
X17109Y33389D01*
X4939Y44840D02*
X16750Y33029D01*
X483Y44986D02*
X14594Y30874D01*
X483Y46423D02*
X15313Y31592D01*
X483Y45704D02*
X14954Y31233D01*
X4385Y44676D02*
X16390Y32670D01*
X3675Y44667D02*
X16031Y32311D01*
X10819Y27099D02*
X17355Y33635D01*
X483Y44267D02*
X14235Y30515D01*
X483Y27064D02*
X17450Y44032D01*
X483Y42869D02*
X2669Y45056D01*
X483Y42151D02*
X3139Y44807D01*
X483Y44306D02*
X1974Y45798D01*
X483Y43588D02*
X2283Y45388D01*
X483Y43549D02*
X13876Y30156D01*
X483Y41433D02*
X3712Y44662D01*
X483Y40714D02*
X4458Y44689D01*
X483Y38559D02*
X12441Y50517D01*
X483Y39277D02*
X11723Y50517D01*
X483Y37840D02*
X13160Y50517D01*
X483Y47180D02*
X3820Y50517D01*
X483Y39996D02*
X11004Y50517D01*
X483Y34967D02*
X16033Y50517D01*
X483Y35685D02*
X15315Y50517D01*
X483Y34248D02*
X16752Y50517D01*
X483Y37122D02*
X13878Y50517D01*
X483Y36404D02*
X14596Y50517D01*
X483Y48617D02*
X2383Y50517D01*
X483Y50015D02*
X2102Y48395D01*
X483Y47898D02*
X3102Y50517D01*
X483Y50054D02*
X946Y50517D01*
X483Y49335D02*
X1665Y50517D01*
X483Y47859D02*
X1667Y46675D01*
X483Y46462D02*
X1765Y47744D01*
X483Y49296D02*
X1840Y47939D01*
X483Y48578D02*
X1676Y47385D01*
X483Y42112D02*
X13157Y29437D01*
X483Y41394D02*
X12798Y29078D01*
X483Y40675D02*
X12439Y28719D01*
X483Y47141D02*
X15672Y31952D01*
X483Y42831D02*
X13517Y29796D01*
X483Y38520D02*
X11361Y27641D01*
X483Y37802D02*
X11002Y27282D01*
X483Y37083D02*
X10467Y27099D01*
X483Y39957D02*
X12080Y28360D01*
X483Y39238D02*
X11721Y28000D01*
X483Y34928D02*
X5268Y30143D01*
X483Y34209D02*
X4571Y30121D01*
X483Y33491D02*
X4141Y29833D01*
X483Y36365D02*
X9749Y27099D01*
X483Y35646D02*
X9030Y27099D01*
X483Y31336D02*
X4349Y27469D01*
X483Y30617D02*
X3999Y27101D01*
X483Y32773D02*
X3885Y29370D01*
X483Y32054D02*
X3981Y28555D01*
X12147Y26855D02*
X17030Y21973D01*
X11788Y26496D02*
X16706Y21578D01*
X5909Y27099D02*
X10819D01*
X11429Y26137D02*
X16694Y20871D01*
X5909Y25987D02*
X11049D01*
X6059Y23301D02*
X8745Y25987D01*
X6013Y29398D02*
X8312Y27099D01*
X5991Y28701D02*
X7593Y27099D01*
X6059Y24738D02*
X7308Y25987D01*
X5703Y28271D02*
X6875Y27099D01*
X5711Y25109D02*
X6590Y25987D01*
X6059Y24019D02*
X8027Y25987D01*
X6059Y22897D02*
Y25109D01*
X5511Y25589D02*
X5991Y25109D01*
X6059Y25041D01*
X15969Y19561D02*
X16694Y20287D01*
X15670Y19981D02*
X16694Y21005D01*
Y19216D02*
Y21463D01*
X10860Y25987D02*
X16694Y20153D01*
X10142Y25987D02*
X16694Y19435D01*
X16669Y17780D02*
Y19050D01*
X15996Y18870D02*
X16694Y19568D01*
X9423Y25987D02*
X15200Y20211D01*
X8705Y25987D02*
X14553Y20140D01*
X7986Y25987D02*
X14151Y19823D01*
X7268Y25987D02*
X13940Y19316D01*
X16020Y19391D02*
X16669Y18742D01*
X15949Y18744D02*
X16669Y18023D01*
X15632Y18342D02*
X16431Y17542D01*
X4602Y27591D02*
X4988Y27978D01*
X4425Y28111D02*
X4890Y27647D01*
X5240Y28015D02*
X6157Y27099D01*
X483Y29181D02*
X4555Y25109D01*
X483Y24191D02*
X4411Y28119D01*
X4944Y25437D02*
X5273Y25109D01*
X4274D02*
X4647Y25481D01*
X4993Y25109D02*
X5430Y25545D01*
X3847Y25109D02*
X6059D01*
X483Y24909D02*
X4037Y28464D01*
X483Y28462D02*
X3847Y25097D01*
X483Y27744D02*
X3847Y24379D01*
X483Y29899D02*
X3847Y26534D01*
X483Y25627D02*
X3851Y28996D01*
X483Y26307D02*
X3847Y22942D01*
Y22897D02*
Y25109D01*
X483Y27025D02*
X3847Y23660D01*
X483Y23472D02*
X3905Y26894D01*
X3371Y18457D02*
X10901Y25987D01*
X483Y18443D02*
X4937Y22897D01*
X483Y17725D02*
X5655Y22897D01*
X483Y25588D02*
X6422Y19649D01*
X483Y24870D02*
X6320Y19032D01*
X4610Y22897D02*
X7279Y20229D01*
X5004Y17936D02*
X6313Y19244D01*
X3847Y22897D02*
X6059D01*
X3892D02*
X6753Y20036D01*
X483Y20598D02*
X3847Y23963D01*
X483Y21317D02*
X3847Y24682D01*
X483Y19880D02*
X3847Y23245D01*
X483Y22754D02*
X3909Y26180D01*
X483Y22035D02*
X4190Y25743D01*
X483Y21278D02*
X3333Y18428D01*
X483Y20559D02*
X3026Y18016D01*
X483Y19162D02*
X4218Y22897D01*
X483Y21996D02*
X3828Y18651D01*
X21402Y16882D02*
X23921Y14363D01*
X21352Y15246D02*
Y16835D01*
Y15604D02*
X22491Y16743D01*
X21352Y16323D02*
X21729Y16700D01*
X22330Y16672D02*
X24294Y14708D01*
X17780Y17630D02*
X20087Y15323D01*
X17576Y17116D02*
X19728Y14964D01*
X20240Y15476D02*
Y16835D01*
X20043Y16804D02*
X20240Y16607D01*
X19498Y16631D02*
X20240Y15889D01*
X21687Y20907D02*
X29638Y12956D01*
X21384Y12763D02*
X25825Y17204D01*
X22102Y12763D02*
X26184Y16845D01*
X21352Y16214D02*
X23562Y14004D01*
X20969Y20907D02*
X29638Y12238D01*
X21352Y15496D02*
X23202Y13645D01*
X21230Y14899D02*
X22843Y13286D01*
X22320Y12763D02*
X24174Y14617D01*
X20873Y14537D02*
X22484Y12927D01*
X20894Y12763D02*
X22320D01*
X20155Y13819D02*
X21211Y12763D01*
X19193Y12857D02*
X21189Y14853D01*
X20514Y14178D02*
X21929Y12763D01*
X18116Y13806D02*
X20240Y15930D01*
X18570Y13806D02*
X20240Y15476D01*
X19795Y13460D02*
X20894Y12361D01*
X19436Y13101D02*
X20894Y11642D01*
X8134Y16036D02*
X23700Y31603D01*
X7694Y16315D02*
X23700Y32321D01*
X8389Y15573D02*
X23700Y30884D01*
X6936Y16276D02*
X23700Y33039D01*
X6006Y16063D02*
X23700Y33758D01*
X17217Y16757D02*
X19369Y14605D01*
X16858Y16397D02*
X19010Y14245D01*
X16499Y16038D02*
X18651Y13886D01*
X16042Y15323D02*
X18670Y17952D01*
X8205Y14670D02*
X23700Y30166D01*
X15125Y18131D02*
X16072Y17183D01*
X6549Y25987D02*
X15713Y16824D01*
X14929Y16366D02*
X16669Y18106D01*
X5879Y25939D02*
X15354Y16465D01*
X6059Y25041D02*
X14758Y16342D01*
X16014Y15553D02*
X17617Y17157D01*
X15228Y16339D02*
X16669Y17780D01*
X16553Y9369D02*
X25107Y17923D01*
X16040Y9574D02*
X24748Y18282D01*
X16906Y9003D02*
X25466Y17563D01*
X8058Y13806D02*
X23700Y29447D01*
X15242Y13806D02*
X18700Y17263D01*
X16679Y13806D02*
X19504Y16631D01*
X16139Y15679D02*
X18013Y13806D01*
X17398D02*
X20240Y16648D01*
X6006Y13806D02*
X18570D01*
X15961D02*
X18981Y16826D01*
X11650Y13806D02*
X16669Y18824D01*
X10932Y13806D02*
X15293Y18167D01*
X16017Y15083D02*
X17294Y13806D01*
X483Y16249D02*
X16249Y483D01*
X483Y15531D02*
X15531Y483D01*
X15344Y14319D02*
X15858Y13806D01*
X15773Y14608D02*
X16576Y13806D01*
X14524D02*
X14974Y14256D01*
X14625Y14319D02*
X15139Y13806D01*
X21666Y10171D02*
X22046Y10551D01*
X21267D02*
X21652Y10166D01*
X21985Y10551D02*
X22382Y10154D01*
X18406Y12694D02*
X21210Y9890D01*
X16250Y12694D02*
X21424Y7521D01*
X22371Y10158D02*
X22765Y10551D01*
X21561Y8102D02*
X21981Y7682D01*
X22050Y7681D02*
X22499Y8130D01*
X20894Y10551D02*
X23106D01*
X20894D02*
Y12763D01*
X19060Y12759D02*
X20894Y10924D01*
X17687Y12694D02*
X20942Y9439D01*
X16969Y12694D02*
X20985Y8678D01*
X15532Y12694D02*
X21063Y7163D01*
X17091Y8470D02*
X20894Y12273D01*
X19162Y483D02*
X24700Y6021D01*
X18443Y483D02*
X23982Y6021D01*
X19880Y483D02*
X25419Y6021D01*
X16930Y7705D02*
X24152Y483D01*
X17096Y8256D02*
X24870Y483D01*
X22035D02*
X27574Y6021D01*
X22036Y5472D02*
X27025Y483D01*
X22587Y5640D02*
X27744Y483D01*
X20598D02*
X26137Y6021D01*
X21317Y483D02*
X26856Y6021D01*
X22322Y8059D02*
X23249Y7133D01*
X16591Y7325D02*
X23433Y483D01*
X15254Y7225D02*
X21996Y483D01*
X16094Y7104D02*
X22715Y483D01*
X17006D02*
X21995Y5471D01*
X17725Y483D02*
X23264Y6021D01*
X15569Y483D02*
X21068Y5982D01*
X16288Y483D02*
X21433Y5628D01*
X13798Y9488D02*
X17005Y12694D01*
X13175Y9583D02*
X16287Y12694D01*
X14220Y9191D02*
X17723Y12694D01*
X12658D02*
X15765Y9587D01*
X11845Y8971D02*
X15568Y12694D01*
X15074Y9326D02*
X18442Y12694D01*
X14813D02*
X20895Y6613D01*
X5684Y12694D02*
X18800D01*
X11940D02*
X15214Y9420D01*
X11503Y9348D02*
X14850Y12694D01*
X14490Y8743D02*
X14851Y9103D01*
X11221Y12694D02*
X14834Y9082D01*
X5015Y10280D02*
X14812Y483D01*
X14507Y8690D02*
X14613Y8585D01*
X14506Y7973D02*
X14734Y7745D01*
X7667Y483D02*
X14808Y7624D01*
X8385Y483D02*
X15174Y7271D01*
X13377Y12694D02*
X25588Y483D01*
X12696D02*
X20959Y8746D01*
X14095Y12694D02*
X26307Y483D01*
X11259D02*
X21328Y10551D01*
X11977Y483D02*
X20946Y9451D01*
X14133Y483D02*
X21702Y8052D01*
X14250Y7510D02*
X21278Y483D01*
X14851D02*
X20896Y6527D01*
X483Y483D02*
X67517D01*
X13414D02*
X21243Y8311D01*
X11868Y7737D02*
X19123Y483D01*
X11540Y7347D02*
X18404Y483D01*
X13842Y7200D02*
X20559Y483D01*
X9822D02*
X20894Y11555D01*
X10540Y483D02*
X20894Y10837D01*
X11055Y7113D02*
X17686Y483D01*
X13244Y7080D02*
X19841Y483D01*
X9104D02*
X15707Y7086D01*
X10271Y7179D02*
X16967Y483D01*
X6059Y24323D02*
X14283Y16099D01*
X6059Y23605D02*
X13993Y15670D01*
X6047Y22897D02*
X13994Y14951D01*
X5451Y16945D02*
X6795Y18289D01*
X5329Y22897D02*
X14421Y13806D01*
X6621D02*
X7105Y14289D01*
X7221Y18131D02*
X11547Y13806D01*
X5810Y16586D02*
X7345Y18122D01*
X6006Y15036D02*
X7236Y13806D01*
X6006Y15755D02*
X6319Y15442D01*
X6006Y13806D02*
Y16160D01*
X5091Y17304D02*
X6446Y18659D01*
X6006Y13908D02*
X6641Y14544D01*
X6006Y14318D02*
X6518Y13806D01*
X6006Y15345D02*
X6402Y15741D01*
X6006Y14627D02*
X6363Y14984D01*
X8777Y13806D02*
X13949Y18978D01*
X8418Y19090D02*
X13702Y13806D01*
X9495D02*
X14182Y18493D01*
X7838Y18233D02*
X12265Y13806D01*
X8225Y18564D02*
X12984Y13806D01*
X13806D02*
X14420Y14420D01*
X13087Y13806D02*
X14069Y14788D01*
X13806Y13806D02*
X14420Y14420D01*
X10213Y13806D02*
X14602Y18194D01*
X12369Y13806D02*
X13932Y15369D01*
X8326Y14872D02*
X9392Y13806D01*
X8006Y14472D02*
X8673Y13806D01*
X8402Y15514D02*
X10110Y13806D01*
X7340D02*
X8007Y14473D01*
X7497Y14264D02*
X7955Y13806D01*
X8348Y12694D02*
X12169Y8873D01*
X5389Y12779D02*
X9542Y8626D01*
X483Y23433D02*
X7568Y16348D01*
X483Y22715D02*
X6926Y16271D01*
X483Y24152D02*
X10829Y13806D01*
X483Y17006D02*
X9464Y25987D01*
X483Y16288D02*
X10182Y25987D01*
X5028Y17368D02*
X5843Y16553D01*
X5041Y17438D02*
X6527Y15952D01*
X4894Y13484D02*
Y15930D01*
X483Y15569D02*
X3153Y18239D01*
X483Y14851D02*
X2978Y17346D01*
X483Y18404D02*
X4894Y13992D01*
X483Y19841D02*
X2978Y17346D01*
X483Y19123D02*
X4894Y14711D01*
X4242Y16582D02*
X4894Y15930D01*
X3736Y16588D02*
X4894Y15429D01*
X483Y14133D02*
X3234Y16884D01*
X483Y13414D02*
X3674Y16606D01*
X483Y9104D02*
X4894Y13515D01*
X483Y17686D02*
X4979Y13189D01*
X483Y16967D02*
X9608Y7842D01*
X3851Y11035D02*
X5532Y12716D01*
X5057Y13091D02*
X5291Y12857D01*
X3406Y6279D02*
X9821Y12694D01*
X483Y8385D02*
X5123Y13026D01*
X483Y4075D02*
X9102Y12694D01*
X483Y11259D02*
X4894Y15671D01*
X483Y11977D02*
X4665Y16160D01*
X483Y10540D02*
X4894Y14952D01*
X483Y12696D02*
X4306Y16519D01*
X483Y483D02*
Y50517D01*
Y14094D02*
X3607Y10970D01*
X483Y13375D02*
X3190Y10667D01*
X483Y14812D02*
X4290Y11005D01*
X483Y9822D02*
X4894Y14234D01*
X10146Y9427D02*
X13413Y12694D01*
X9785D02*
X12942Y9537D01*
X9066Y12694D02*
X12479Y9281D01*
X5666Y5666D02*
X12694Y12694D01*
X5666Y5666D02*
X12694Y12694D01*
X14529Y8063D02*
X14603Y8137D01*
X11003Y9566D02*
X14131Y12694D01*
X10503D02*
X13659Y9538D01*
X6911Y12694D02*
X10166Y9439D01*
X5052Y10081D02*
X7665Y12694D01*
X6192D02*
X9776Y9111D01*
X4470Y10935D02*
X6229Y12694D01*
X4858Y10605D02*
X6947Y12694D01*
X7629D02*
X10734Y9589D01*
X5267Y5986D02*
X11976Y12694D01*
X4192Y6348D02*
X10539Y12694D01*
X4784Y6221D02*
X11258Y12694D01*
X4980Y9597D02*
X14094Y483D01*
X4793D02*
X12149Y7839D01*
X5512Y483D02*
X12446Y7417D01*
X4188Y8951D02*
X12657Y483D01*
X4677Y9180D02*
X13375Y483D01*
X6279Y3406D02*
X10126Y7252D01*
X6354Y3912D02*
X9783Y483D01*
X6948D02*
X13574Y7108D01*
X6230Y483D02*
X12894Y7147D01*
X6232Y4752D02*
X10502Y483D01*
X6348Y4192D02*
X9749Y7594D01*
X6221Y4784D02*
X9531Y8094D01*
X6249Y3299D02*
X9065Y483D01*
X5986Y5267D02*
X9670Y8951D01*
X6028Y2801D02*
X8346Y483D01*
X5334Y2058D02*
X6909Y483D01*
X5720Y2391D02*
X7628Y483D01*
X4293Y1663D02*
X5473Y483D01*
X4865Y1809D02*
X6191Y483D01*
X483Y7667D02*
X2955Y10139D01*
X483Y10502D02*
X4752Y6232D01*
X483Y12657D02*
X2961Y10178D01*
X483Y4793D02*
X8384Y12694D01*
X483Y6230D02*
X3385Y9132D01*
X483Y9065D02*
X3299Y6249D01*
X483Y5512D02*
X3909Y8938D01*
X483Y6948D02*
X3055Y9520D01*
X483Y9783D02*
X3912Y6354D01*
X483Y6909D02*
X2058Y5334D01*
X483Y6191D02*
X1809Y4865D01*
X483Y5473D02*
X1663Y4293D01*
X483Y8346D02*
X2801Y6028D01*
X483Y7628D02*
X2391Y5720D01*
X483Y2638D02*
X1652Y3808D01*
X483Y1919D02*
X1779Y3216D01*
X483Y4754D02*
X1688Y3549D01*
X483Y3356D02*
X1721Y4594D01*
X4075Y483D02*
X10674Y7082D01*
X483Y11938D02*
X11938Y483D01*
X483Y11220D02*
X11220Y483D01*
X3356D02*
X4594Y1721D01*
X3549Y1688D02*
X4754Y483D01*
X483Y4036D02*
X4036Y483D01*
X2638D02*
X3808Y1652D01*
X483Y2599D02*
X2599Y483D01*
X483D02*
X2334Y2334D01*
X483Y483D02*
X2334Y2334D01*
X483Y1201D02*
X2014Y2733D01*
X483Y3317D02*
X3317Y483D01*
X1201D02*
X2733Y2014D01*
X1919Y483D02*
X3216Y1779D01*
X483Y1881D02*
X1881Y483D01*
X483Y1162D02*
X1162Y483D01*
D11*
X28658Y31242D02*
X31230Y28670D01*
X51482D01*
X26289Y31242D02*
X28658D01*
D12*
X17250Y19076D02*
Y21463D01*
X17225Y19050D02*
X17250Y19076D01*
X17225Y17550D02*
Y19050D01*
X14986Y15311D02*
X17225Y17550D01*
X18800Y13250D02*
X20796Y15246D01*
Y17986D01*
X5450Y13484D02*
X5684Y13250D01*
X18800D01*
X5450Y13484D02*
Y16160D01*
X4000Y17610D02*
X5450Y16160D01*
X17225Y19050D02*
X18462D01*
X18911Y18601D01*
X24511Y21463D02*
X27305D01*
X17250D02*
X24511D01*
Y19304D02*
Y21463D01*
Y19304D02*
X30194Y13621D01*
Y9874D02*
Y13621D01*
X29133Y6577D02*
X29890Y7334D01*
X30194D01*
X22000Y6577D02*
X29133D01*
X33655Y14224D02*
Y17653D01*
X29845Y21463D02*
X33655Y17653D01*
X22000Y11657D02*
X24567Y14224D01*
X26035D01*
X17748Y33242D02*
X20289D01*
X11049Y26543D02*
X17748Y33242D01*
X4953Y26543D02*
X11049D01*
X19526Y17986D02*
Y18324D01*
X19249Y18601D02*
X19526Y18324D01*
X18911Y18601D02*
X19249D01*
D13*
X19526Y17986D02*
D03*
X20796D02*
D03*
D14*
X22066D02*
D03*
D15*
X32289Y46242D02*
D03*
X20289D02*
D03*
X26289Y31242D02*
D03*
D16*
X20289Y33242D02*
D03*
X32289D02*
D03*
X48482Y9670D02*
D03*
Y47670D02*
D03*
D17*
X46482Y35670D02*
D03*
Y21670D02*
D03*
X51482Y28670D02*
D03*
D18*
X4000Y9990D02*
D03*
Y17610D02*
D03*
X14986Y15311D02*
D03*
X7366D02*
D03*
Y19177D02*
D03*
X14986D02*
D03*
X26035Y14224D02*
D03*
X33655D02*
D03*
D19*
X27305Y21463D02*
D03*
X29845D02*
D03*
D20*
X4953Y24003D02*
D03*
X22000Y11657D02*
D03*
D21*
X4953Y26543D02*
D03*
Y29083D02*
D03*
X22000Y9117D02*
D03*
Y6577D02*
D03*
D22*
X64000Y57000D02*
D03*
Y4000D02*
D03*
X4000Y47000D02*
D03*
Y4000D02*
D03*
D23*
X30194Y9874D02*
D03*
Y7334D02*
D03*
X15843Y8334D02*
D03*
X13303D02*
D03*
X10763D02*
D03*
D24*
X22066Y17986D02*
Y19240D01*
Y17986D02*
X22820D01*
X22066Y16732D02*
Y17986D01*
X15843Y8334D02*
X16997D01*
X15843D02*
Y9488D01*
Y7180D02*
Y8334D01*
X14689D02*
X15843D01*
%TF.MD5,5d39bd19b0d953c7fe212f6853a752b5*%
M02*
