M48
;Layer_Color=9474304
;FILE_FORMAT=4:3
METRIC,LZ
;TYPE=PLATED
T1F00S00C0.762
T2F00S00C0.850
T3F00S00C0.900
T4F00S00C0.910
T5F00S00C1.000
T7F00S00C2.000
T8F00S00C4.000
;TYPE=NON_PLATED
T9F00S00C4.000
%
T01
X0020289Y0033242
X0032289
T02
X0004Y000999
X0026035Y0014224
X0033655
X0014986Y0015311
Y0019177
X0007366
Y0015311
X0004Y001761
T03
X0022Y0006577
Y0009117
Y0011657
X0022066Y0017986
X0020796
X0019526
X0004953Y0024003
Y0026543
Y0029083
T04
X0027305Y0021463
X0029845
T05
X0010763Y0008334
X0013303
X0015843
X0030194Y0007334
Y0009874
T07
X0026289Y0031242
X0020289Y0046242
X0032289
T08
X0004Y0004
X0064
X0004Y0047
X0064Y0057
T09
X0048482Y000967
Y004767
M30
