%TF.GenerationSoftware,Altium Limited,Altium Designer,21.8.1 (53)*%
G04 Layer_Color=16711935*
%FSLAX43Y43*%
%MOMM*%
%TF.SameCoordinates,5F523219-7FD1-4E24-926C-018E4D8E6641*%
%TF.FilePolarity,Negative*%
%TF.FileFunction,Soldermask,Bot*%
%TF.Part,Single*%
G01*
G75*
%TA.AperFunction,ComponentPad*%
%ADD25O,1.203X2.203*%
%ADD26O,1.203X2.203*%
%ADD27C,3.703*%
%ADD28C,1.727*%
%ADD29O,12.203X3.703*%
%ADD30C,1.603*%
%ADD31C,1.619*%
%ADD32R,1.703X1.703*%
%ADD33C,1.703*%
%TA.AperFunction,ViaPad*%
%ADD34C,1.727*%
%TA.AperFunction,ComponentPad*%
%ADD35C,2.003*%
D25*
X19526Y17986D02*
D03*
X20796D02*
D03*
D26*
X22066D02*
D03*
D27*
X32289Y46242D02*
D03*
X20289D02*
D03*
X26289Y31242D02*
D03*
D28*
X20289Y33242D02*
D03*
X32289D02*
D03*
X48482Y9670D02*
D03*
Y47670D02*
D03*
D29*
X46482Y35670D02*
D03*
Y21670D02*
D03*
X51482Y28670D02*
D03*
D30*
X4000Y9990D02*
D03*
Y17610D02*
D03*
X14986Y15311D02*
D03*
X7366D02*
D03*
Y19177D02*
D03*
X14986D02*
D03*
X26035Y14224D02*
D03*
X33655D02*
D03*
D31*
X27305Y21463D02*
D03*
X29845D02*
D03*
D32*
X4953Y24003D02*
D03*
X22000Y11657D02*
D03*
D33*
X4953Y26543D02*
D03*
Y29083D02*
D03*
X22000Y9117D02*
D03*
Y6577D02*
D03*
D34*
X64000Y57000D02*
D03*
Y4000D02*
D03*
X4000Y47000D02*
D03*
Y4000D02*
D03*
D35*
X30194Y9874D02*
D03*
Y7334D02*
D03*
X15843Y8334D02*
D03*
X13303D02*
D03*
X10763D02*
D03*
%TF.MD5,80daa13b16730a7f2da6935940bd9145*%
M02*
