M48
;Layer_Color=9474304
;FILE_FORMAT=4:3
METRIC,LZ
;TYPE=PLATED
T1F00S00C1.200
T2F00S00C1.300
T3F00S00C3.000
%
T01
X0032172Y000977
X0034712
X0037252
X0039792
Y001231
X0037252
X0034712
X0032172
T02
X00061Y001025
X00522
Y001525
Y003175
Y003675
X001865Y002803
Y002041
X00061Y001525
Y003175
Y003675
T03
X00035Y00035
X00548
Y00435
X00035
M30
