%TF.GenerationSoftware,Altium Limited,Altium Designer,21.8.1 (53)*%
G04 Layer_Physical_Order=1*
G04 Layer_Color=255*
%FSLAX43Y43*%
%MOMM*%
%TF.SameCoordinates,7B22A04A-8AF3-4E57-AB0C-0AC604AFDBEB*%
%TF.FilePolarity,Positive*%
%TF.FileFunction,Copper,L1,Top,Signal*%
%TF.Part,Single*%
G01*
G75*
%TA.AperFunction,NonConductor*%
%ADD10C,0.203*%
%ADD11C,0.254*%
%TA.AperFunction,Conductor*%
%ADD12C,0.400*%
%TA.AperFunction,ComponentPad*%
%ADD13C,2.000*%
%ADD14R,2.000X2.000*%
%ADD15R,1.950X1.950*%
%ADD16C,1.950*%
%TA.AperFunction,ViaPad*%
%ADD17C,1.524*%
D10*
X56656Y43500D02*
G03*
X56656Y43500I-1856J0D01*
G01*
D02*
G03*
X56656Y43500I-1856J0D01*
G01*
X53531Y36750D02*
G03*
X53531Y36750I-1331J0D01*
G01*
Y31750D02*
G03*
X50991Y32306I-1331J0D01*
G01*
Y31194D02*
G03*
X53531Y31750I1209J556D01*
G01*
Y15250D02*
G03*
X53531Y15250I-1331J0D01*
G01*
X33443Y37143D02*
G03*
X33050Y37306I-393J-393D01*
G01*
X33443Y37143D02*
G03*
X33050Y37306I-393J-393D01*
G01*
X45938Y32306D02*
G03*
X45545Y32143I0J-556D01*
G01*
X45938Y32306D02*
G03*
X45545Y32143I0J-556D01*
G01*
X43755Y30353D02*
G03*
X43592Y29960I393J-393D01*
G01*
X43755Y30353D02*
G03*
X43592Y29960I393J-393D01*
G01*
X35268Y35088D02*
G03*
X35105Y35481I-556J0D01*
G01*
X35268Y35088D02*
G03*
X35105Y35481I-556J0D01*
G01*
X53531Y10250D02*
G03*
X53531Y10250I-1331J0D01*
G01*
X56656Y3500D02*
G03*
X56656Y3500I-1856J0D01*
G01*
D02*
G03*
X56656Y3500I-1856J0D01*
G01*
X44541Y7937D02*
G03*
X44704Y8330I-393J393D01*
G01*
X44541Y7937D02*
G03*
X44704Y8330I-393J393D01*
G01*
X43914Y7540D02*
G03*
X44307Y7703I0J556D01*
G01*
X43914Y7540D02*
G03*
X44307Y7703I0J556D01*
G01*
X38522Y11836D02*
G03*
X39318Y11040I1270J474D01*
G01*
X40266D02*
G03*
X41148Y12310I-474J1270D01*
G01*
D02*
G03*
X38522Y12784I-1356J0D01*
G01*
X35982Y11836D02*
G03*
X36778Y11040I1270J474D01*
G01*
X37726D02*
G03*
X38522Y11836I-474J1270D01*
G01*
Y12784D02*
G03*
X35982Y12784I-1270J-474D01*
G01*
X39318Y11040D02*
G03*
X38522Y10244I474J-1270D01*
G01*
X41148Y9770D02*
G03*
X40266Y11040I-1356J0D01*
G01*
X36778D02*
G03*
X35982Y10244I474J-1270D01*
G01*
X38522D02*
G03*
X37726Y11040I-1270J-474D01*
G01*
X40558Y8652D02*
G03*
X41148Y9770I-766J1118D01*
G01*
X35982Y9296D02*
G03*
X37733Y8503I1270J474D01*
G01*
X35982Y12784D02*
G03*
X35268Y13547I-1270J-474D01*
G01*
X35186Y11040D02*
G03*
X35982Y11836I-474J1270D01*
G01*
X34156Y13547D02*
G03*
X33442Y12784I556J-1237D01*
G01*
Y11836D02*
G03*
X34238Y11040I1270J474D01*
G01*
X33442Y12784D02*
G03*
X31513Y11126I-1270J-474D01*
G01*
X32831D02*
G03*
X33442Y11836I-659J1184D01*
G01*
X34238Y11040D02*
G03*
X33528Y10429I474J-1270D01*
G01*
X35982Y10244D02*
G03*
X35186Y11040I-1270J-474D01*
G01*
X33528Y9111D02*
G03*
X34156Y8533I1184J659D01*
G01*
X35268D02*
G03*
X35982Y9296I-556J1237D01*
G01*
X38533Y7703D02*
G03*
X38926Y7540I393J393D01*
G01*
X38533Y7703D02*
G03*
X38926Y7540I393J393D01*
G01*
X35105Y6569D02*
G03*
X35268Y6962I-393J393D01*
G01*
X35105Y6569D02*
G03*
X35268Y6962I-393J393D01*
G01*
X34330Y6024D02*
G03*
X34723Y6187I0J556D01*
G01*
X34330Y6024D02*
G03*
X34723Y6187I0J556D01*
G01*
X15499Y25353D02*
G03*
X15106Y25516I-393J-393D01*
G01*
X15896Y24726D02*
G03*
X15733Y25119I-556J0D01*
G01*
X15896Y24726D02*
G03*
X15733Y25119I-556J0D01*
G01*
X15499Y25353D02*
G03*
X15106Y25516I-393J-393D01*
G01*
X5356Y43500D02*
G03*
X5356Y43500I-1856J0D01*
G01*
D02*
G03*
X5356Y43500I-1856J0D01*
G01*
X7309Y37306D02*
G03*
X7309Y36194I-1209J-556D01*
G01*
X6656Y30541D02*
G03*
X7431Y31750I-556J1209D01*
G01*
X6327Y24567D02*
G03*
X6720Y24404I393J393D01*
G01*
X6327Y24567D02*
G03*
X6720Y24404I393J393D01*
G01*
X7431Y31750D02*
G03*
X5544Y30541I-1331J0D01*
G01*
Y25580D02*
G03*
X5707Y25187I556J0D01*
G01*
X5544Y25580D02*
G03*
X5707Y25187I556J0D01*
G01*
X19981Y20410D02*
G03*
X19981Y20410I-1331J0D01*
G01*
X17087Y6187D02*
G03*
X17480Y6024I393J393D01*
G01*
X17087Y6187D02*
G03*
X17480Y6024I393J393D01*
G01*
X7431Y15250D02*
G03*
X7431Y15250I-1331J0D01*
G01*
Y10250D02*
G03*
X7431Y10250I-1331J0D01*
G01*
X14784Y8720D02*
G03*
X14947Y8327I556J0D01*
G01*
X14784Y8720D02*
G03*
X14947Y8327I556J0D01*
G01*
X5356Y3500D02*
G03*
X5356Y3500I-1856J0D01*
G01*
D02*
G03*
X5356Y3500I-1856J0D01*
G01*
X57643Y46017D02*
X57817Y45843D01*
X56925Y46017D02*
X57817Y45125D01*
X55824Y45048D02*
X56794Y46017D01*
X56206Y44711D02*
X57512Y46017D01*
X56487Y44274D02*
X57817Y45604D01*
X56643Y43712D02*
X57817Y44886D01*
X56206Y46017D02*
X57817Y44406D01*
X55488Y46017D02*
X57817Y43688D01*
X54692Y45352D02*
X55357Y46017D01*
X54769D02*
X55624Y45162D01*
X54051Y46017D02*
X54715Y45354D01*
X53333Y46017D02*
X54122Y45227D01*
X55335Y45277D02*
X56075Y46017D01*
X55904Y42009D02*
X57817Y40096D01*
X53854Y41903D02*
X57817Y37940D01*
X52942Y37855D02*
X57817Y42731D01*
X53302Y37496D02*
X57817Y42012D01*
X55437Y41757D02*
X57817Y39377D01*
X54832Y41645D02*
X57817Y38659D01*
X53510Y36986D02*
X57817Y41294D01*
X53383Y36141D02*
X57817Y40575D01*
X56462Y44324D02*
X57817Y42969D01*
X56559Y42909D02*
X57817Y44167D01*
X56654Y43415D02*
X57817Y42251D01*
X56527Y42822D02*
X57817Y41533D01*
X56267Y42364D02*
X57817Y40814D01*
X49022Y46017D02*
X57817Y37222D01*
X48304Y46017D02*
X57817Y36504D01*
X47585Y46017D02*
X57817Y35785D01*
X46867Y46017D02*
X57817Y35067D01*
X52429Y38061D02*
X57817Y43449D01*
X51574Y37924D02*
X55391Y41741D01*
X46148Y46017D02*
X57817Y34348D01*
X45430Y46017D02*
X57817Y33630D01*
X50459Y46017D02*
X52945Y43532D01*
X44711Y46017D02*
X52783Y37946D01*
X43993Y46017D02*
X51953Y38057D01*
X43275Y46017D02*
X51446Y37846D01*
X52614Y46017D02*
X53664Y44967D01*
X51896Y46017D02*
X53309Y44604D01*
X51177Y46017D02*
X53057Y44137D01*
X49740Y46017D02*
X53203Y42554D01*
X40401Y46017D02*
X57817Y28601D01*
X35268Y24491D02*
X53252Y42476D01*
X35268Y27365D02*
X53920Y46017D01*
X35268Y26647D02*
X54638Y46017D01*
X50266Y32306D02*
X57817Y39857D01*
X35268Y22336D02*
X54588Y41657D01*
X35268Y23773D02*
X53589Y42094D01*
X35268Y23054D02*
X54026Y41813D01*
X38964Y46017D02*
X51929Y33053D01*
X38246Y46017D02*
X51429Y32834D01*
X35268Y29520D02*
X51765Y46017D01*
X35268Y28802D02*
X52483Y46017D01*
X39683D02*
X52729Y32971D01*
X35268Y25210D02*
X53023Y42965D01*
X35268Y28083D02*
X53202Y46017D01*
X35268Y25928D02*
X52948Y43608D01*
X53507Y36503D02*
X57817Y32193D01*
X53514Y31961D02*
X57817Y36265D01*
X52959Y32843D02*
X57817Y37702D01*
X53313Y32479D02*
X57817Y36983D01*
X53296Y35996D02*
X57817Y31475D01*
X53348Y31076D02*
X57817Y35546D01*
X52934Y35640D02*
X57817Y30756D01*
X52418Y35437D02*
X57817Y30038D01*
X52454Y33056D02*
X57817Y38420D01*
X53396Y37333D02*
X57817Y32911D01*
X51632Y32953D02*
X57817Y39138D01*
X48829Y32306D02*
X51964Y35440D01*
X49548Y32306D02*
X52809Y35567D01*
X52473Y16552D02*
X57817Y21896D01*
X51676Y16473D02*
X57817Y22615D01*
X50195Y31194D02*
X57817Y23572D01*
X49477Y31194D02*
X57817Y22854D01*
X53322Y15965D02*
X57817Y20459D01*
X53517Y15441D02*
X57817Y19741D01*
X52973Y16333D02*
X57817Y21178D01*
X53308Y14513D02*
X57817Y19023D01*
X53421Y32279D02*
X57817Y27883D01*
X53503Y31479D02*
X57817Y27164D01*
X51545Y35592D02*
X57817Y29319D01*
X53284Y30979D02*
X57817Y26446D01*
X52916Y30629D02*
X57817Y25727D01*
X52393Y30433D02*
X57817Y25009D01*
X51471Y30637D02*
X57817Y24290D01*
X44704Y18840D02*
X57817Y31954D01*
X44704Y18122D02*
X57817Y31236D01*
X44704Y20277D02*
X57817Y33391D01*
X44704Y19559D02*
X57817Y32673D01*
X47321Y31194D02*
X57817Y20698D01*
X46603Y31194D02*
X57817Y19980D01*
X46026Y31052D02*
X57817Y19261D01*
X45667Y30693D02*
X57817Y18543D01*
X48111Y32306D02*
X51454Y35648D01*
X48758Y31194D02*
X57817Y22135D01*
X44704Y21714D02*
X57817Y34828D01*
X44704Y20996D02*
X57817Y34110D01*
X44704Y23151D02*
X51989Y30436D01*
X48040Y31194D02*
X57817Y21417D01*
X44704Y23869D02*
X51471Y30637D01*
X44704Y22433D02*
X52873Y30602D01*
X44704Y15248D02*
X57817Y28362D01*
X44704Y28065D02*
X57817Y14951D01*
X44704Y15967D02*
X57817Y29081D01*
X44704Y28783D02*
X57817Y15669D01*
X44704Y13811D02*
X57817Y26925D01*
X44704Y26628D02*
X57817Y13514D01*
X44704Y14530D02*
X57817Y27644D01*
X44704Y27346D02*
X57817Y14233D01*
X45308Y30334D02*
X57817Y17825D01*
X44949Y29975D02*
X57817Y17106D01*
X44704Y17404D02*
X57817Y30517D01*
X44704Y16685D02*
X57817Y29799D01*
X44704Y23754D02*
X51909Y16548D01*
X44704Y23036D02*
X51415Y16324D01*
X44704Y24473D02*
X52689Y16488D01*
X44704Y29502D02*
X57817Y16388D01*
X35245Y35245D02*
X46017Y46017D01*
X35245Y35245D02*
X46017Y46017D01*
X34574Y36011D02*
X44581Y46017D01*
X34934Y35652D02*
X45299Y46017D01*
X42556D02*
X51090Y37484D01*
X41838Y46017D02*
X50887Y36968D01*
X41119Y46017D02*
X51042Y36095D01*
X35268Y34549D02*
X46736Y46017D01*
X33856Y36730D02*
X43144Y46017D01*
X34215Y36370D02*
X43862Y46017D01*
X32995Y37306D02*
X41707Y46017D01*
X33497Y37089D02*
X42425Y46017D01*
X33443Y37143D02*
X35105Y35481D01*
X32820Y36194D02*
X34156Y34858D01*
X36090Y46017D02*
X49802Y32306D01*
X36809Y46017D02*
X50521Y32306D01*
X35268Y31675D02*
X49610Y46017D01*
X35268Y30957D02*
X50328Y46017D01*
X45956Y32306D02*
X51026Y37376D01*
X46674Y32306D02*
X50889Y36521D01*
X37527Y46017D02*
X51079Y32466D01*
X35268Y30239D02*
X51046Y46017D01*
X35268Y33831D02*
X47454Y46017D01*
X33935D02*
X47647Y32306D01*
X32498Y46017D02*
X46210Y32306D01*
X33217Y46017D02*
X46929Y32306D01*
X35268Y32394D02*
X48891Y46017D01*
X35372D02*
X49084Y32306D01*
X35268Y33112D02*
X48173Y46017D01*
X34654D02*
X48365Y32306D01*
X29403Y37306D02*
X38115Y46017D01*
X30121Y37306D02*
X38833Y46017D01*
X27966Y37306D02*
X36678Y46017D01*
X28685Y37306D02*
X37396Y46017D01*
X32277Y37306D02*
X40988Y46017D01*
X31780D02*
X45604Y32194D01*
X30840Y37306D02*
X39552Y46017D01*
X31558Y37306D02*
X40270Y46017D01*
X26529Y37306D02*
X35241Y46017D01*
X27248Y37306D02*
X35959Y46017D01*
X25092Y37306D02*
X33804Y46017D01*
X25811Y37306D02*
X34523Y46017D01*
X32263Y36194D02*
X34156Y34301D01*
X31545Y36194D02*
X34156Y33583D01*
X30827Y36194D02*
X34156Y32865D01*
X30108Y36194D02*
X34156Y32146D01*
X28188Y46017D02*
X43804Y30401D01*
X26751Y46017D02*
X43592Y29176D01*
X26033Y46017D02*
X43592Y28458D01*
X25314Y46017D02*
X43592Y27739D01*
X31061Y46017D02*
X45241Y31838D01*
X30343Y46017D02*
X44882Y31479D01*
X29625Y46017D02*
X44522Y31120D01*
X28906Y46017D02*
X44163Y30761D01*
X29390Y36194D02*
X34156Y31428D01*
X28671Y36194D02*
X34156Y30709D01*
X27953Y36194D02*
X34156Y29991D01*
X27469Y46017D02*
X43592Y29894D01*
X27234Y36194D02*
X34156Y29272D01*
X26516Y36194D02*
X34156Y28554D01*
X25798Y36194D02*
X34156Y27836D01*
X25079Y36194D02*
X34156Y27117D01*
X45938Y32306D02*
X50991D01*
X47392D02*
X51095Y36008D01*
X44704Y28180D02*
X47718Y31194D01*
X44704Y27461D02*
X48437Y31194D01*
X46168D02*
X50991D01*
X50913D02*
X51087Y31021D01*
X44704Y26743D02*
X49155Y31194D01*
X44704Y26025D02*
X49873Y31194D01*
X43755Y30353D02*
X45545Y32143D01*
X44704Y29730D02*
X46168Y31194D01*
X44704Y29617D02*
X46281Y31194D01*
X44704Y28898D02*
X47000Y31194D01*
X44704Y22317D02*
X51069Y15952D01*
X44704Y21599D02*
X50881Y15422D01*
X44704Y25306D02*
X50592Y31194D01*
X44704Y24588D02*
X51107Y30991D01*
X44704Y20881D02*
X51145Y14439D01*
X40188Y13606D02*
X43592Y17011D01*
X39496Y13633D02*
X43592Y17729D01*
X37917Y13491D02*
X43592Y19166D01*
X35268Y19462D02*
X43592Y27787D01*
X35268Y27443D02*
X43592Y19118D01*
X35268Y20181D02*
X43592Y28506D01*
X35268Y28161D02*
X43592Y19836D01*
X37368Y13661D02*
X43592Y19885D01*
X35268Y15230D02*
X36883Y13614D01*
X35268Y18744D02*
X43592Y27069D01*
X35268Y26724D02*
X43592Y18400D01*
X35268Y29598D02*
X43592Y21273D01*
X35268Y20899D02*
X43592Y29224D01*
X35268Y30317D02*
X43592Y21992D01*
X35268Y21618D02*
X43592Y29942D01*
X35268Y26006D02*
X43592Y17681D01*
X35268Y17307D02*
X43592Y25632D01*
X35268Y28880D02*
X43592Y20555D01*
X35268Y18025D02*
X43592Y26350D01*
X35268Y34627D02*
X43592Y26302D01*
X35268Y33909D02*
X43592Y25584D01*
X35268Y31753D02*
X43592Y23429D01*
X35268Y31035D02*
X43592Y22710D01*
X35268Y33190D02*
X43592Y24865D01*
X35268Y32472D02*
X43592Y24147D01*
X35268Y23851D02*
X43592Y15526D01*
X35268Y15152D02*
X43592Y23477D01*
X35268Y24569D02*
X43592Y16244D01*
X35268Y15870D02*
X43592Y24195D01*
X35268Y22414D02*
X43592Y14089D01*
X35268Y13715D02*
X43592Y22040D01*
X35268Y23132D02*
X43592Y14808D01*
X35268Y14433D02*
X43592Y22758D01*
X35268Y25288D02*
X43592Y16963D01*
X35268Y16589D02*
X43592Y24913D01*
X34156Y13547D02*
Y34858D01*
X35268Y13547D02*
Y35088D01*
Y15948D02*
X37594Y13622D01*
X35268Y17385D02*
X39149Y13503D01*
X35268Y18103D02*
X39708Y13663D01*
X32335Y13656D02*
X34156Y15477D01*
X53334Y10947D02*
X57817Y15431D01*
X53498Y14959D02*
X57817Y10640D01*
X52989Y11321D02*
X57817Y16149D01*
X44704Y10219D02*
X57817Y23333D01*
X53520Y10415D02*
X57817Y14712D01*
X53274Y14465D02*
X57817Y9922D01*
X53224Y9400D02*
X57817Y13994D01*
X52902Y14119D02*
X57817Y9204D01*
X44704Y19444D02*
X52642Y11505D01*
X51724Y11493D02*
X57817Y17586D01*
X44704Y13093D02*
X57817Y26207D01*
X44704Y25909D02*
X57817Y12796D01*
X52497Y11547D02*
X57817Y16867D01*
X53438Y15739D02*
X57817Y11359D01*
X44704Y8783D02*
X50898Y14977D01*
X51389Y14195D02*
X57817Y7767D01*
Y483D02*
Y46017D01*
X45025Y483D02*
X57817Y13275D01*
X45743Y483D02*
X57817Y12557D01*
X53455Y10692D02*
X57817Y6330D01*
X47898Y483D02*
X57817Y10402D01*
X46462Y483D02*
X57817Y11838D01*
X47180Y483D02*
X57817Y11120D01*
X52372Y13931D02*
X57817Y8485D01*
X44704Y13696D02*
X53539Y4861D01*
X44704Y8330D02*
Y29730D01*
Y15133D02*
X54505Y5332D01*
X44704Y11541D02*
X52957Y3288D01*
X44704Y10823D02*
X55044Y483D01*
X44704Y12978D02*
X53216Y4466D01*
X44704Y12260D02*
X53002Y3961D01*
X44704Y25191D02*
X57817Y12077D01*
X44704Y11656D02*
X57817Y24770D01*
X44704Y12375D02*
X57817Y25488D01*
X35268Y20259D02*
X43592Y11934D01*
X44704Y18725D02*
X51886Y11543D01*
X44704Y18007D02*
X51398Y11312D01*
X35268Y19540D02*
X43592Y11215D01*
X40424Y10969D02*
X43592Y14137D01*
X35603Y13332D02*
X43592Y21321D01*
X35918Y12929D02*
X43592Y20603D01*
X35268Y21696D02*
X43592Y13371D01*
X35268Y20977D02*
X43592Y12652D01*
X40980Y12962D02*
X43592Y15574D01*
X41144Y12407D02*
X43592Y14856D01*
X40655Y13355D02*
X43592Y16292D01*
X38307Y13162D02*
X43592Y18448D01*
X44704Y20162D02*
X57817Y7048D01*
X44704Y15852D02*
X55257Y5299D01*
X44704Y10938D02*
X57817Y24052D01*
X39996Y483D02*
X57817Y18304D01*
X44704Y14415D02*
X53962Y5156D01*
X39277Y483D02*
X52937Y14142D01*
X37840Y483D02*
X51485Y14128D01*
X38559Y483D02*
X52009Y13933D01*
X44704Y16570D02*
X50877Y10396D01*
X44704Y9501D02*
X50977Y15774D01*
X44704Y17288D02*
X51058Y10934D01*
X35268Y18822D02*
X43592Y10497D01*
X40823Y10650D02*
X43592Y13419D01*
X41145Y12226D02*
X43592Y9779D01*
X37122Y483D02*
X51117Y14477D01*
X40714Y483D02*
X50957Y10726D01*
X53262Y9448D02*
X57817Y4893D01*
X56308Y4582D02*
X57817Y6091D01*
X52884Y9108D02*
X57817Y4175D01*
X52346Y8927D02*
X57817Y3456D01*
X56656Y3492D02*
X57817Y4654D01*
X56599Y3957D02*
X57817Y2738D01*
X56553Y4108D02*
X57817Y5373D01*
X56326Y2445D02*
X57817Y3936D01*
X54923Y5352D02*
X57817Y8246D01*
X55506Y5216D02*
X57817Y7528D01*
X53493Y9936D02*
X57817Y5611D01*
X54050Y5197D02*
X57817Y8965D01*
X55958Y4950D02*
X57817Y6809D01*
X56632Y3205D02*
X57817Y2019D01*
X56456Y2662D02*
X57817Y1301D01*
X55083Y483D02*
X57817Y3217D01*
X55801Y483D02*
X57817Y2499D01*
X56519Y483D02*
X57817Y1781D01*
X57238Y483D02*
X57817Y1062D01*
X56161Y2239D02*
X57817Y583D01*
X55766Y1916D02*
X57199Y483D01*
X54364D02*
X55855Y1974D01*
X54588Y1657D02*
X55762Y483D01*
X55261Y1702D02*
X56481Y483D01*
X52927D02*
X54192Y1747D01*
X53646Y483D02*
X54808Y1644D01*
X41433Y483D02*
X50903Y9953D01*
X42151Y483D02*
X51129Y9460D01*
X37697Y8490D02*
X45704Y483D01*
X39365Y7540D02*
X46423Y483D01*
X41520Y7540D02*
X48578Y483D01*
X42239Y7540D02*
X49296Y483D01*
X40083Y7540D02*
X47141Y483D01*
X40802Y7540D02*
X47859Y483D01*
X35795Y8955D02*
X44267Y483D01*
X37037Y8432D02*
X44986Y483D01*
X44307Y7703D02*
X44541Y7937D01*
X38926Y7540D02*
X43914D01*
X44704Y9386D02*
X53607Y483D01*
X48617D02*
X57817Y9683D01*
X44306Y483D02*
X53050Y9226D01*
X44704Y10104D02*
X54325Y483D01*
X51491D02*
X53350Y2342D01*
X52209Y483D02*
X53718Y1992D01*
X49335Y483D02*
X53103Y4250D01*
X50772Y483D02*
X53084Y2794D01*
X44618Y8034D02*
X52170Y483D01*
X44704Y8667D02*
X52888Y483D01*
X42869D02*
X51503Y9116D01*
X43588Y483D02*
X52035Y8930D01*
X44267Y7667D02*
X51452Y483D01*
X50054D02*
X52948Y3377D01*
X42957Y7540D02*
X50015Y483D01*
X43675Y7540D02*
X50733Y483D01*
X35268Y16667D02*
X38753Y13181D01*
X38313Y11466D02*
X38948Y10831D01*
X38440Y10422D02*
X39140Y11122D01*
X38115Y10815D02*
X38747Y11447D01*
X37926Y11134D02*
X38616Y10444D01*
X35268Y13793D02*
X36076Y12984D01*
X35923Y11701D02*
X36643Y10981D01*
X35767Y10622D02*
X36400Y11255D01*
X35377Y10951D02*
X36071Y11645D01*
X35610Y11295D02*
X36237Y10668D01*
X41123Y9512D02*
X43592Y11982D01*
Y8652D02*
Y29960D01*
X41081Y10189D02*
X43592Y12700D01*
X40985Y11667D02*
X43592Y9060D01*
X41699Y8652D02*
X43592Y10545D01*
X42417Y8652D02*
X43592Y9827D01*
X40663Y11271D02*
X43283Y8652D01*
X40981D02*
X43592Y11263D01*
X41096Y9401D02*
X41846Y8652D01*
X41104Y10112D02*
X42564Y8652D01*
X35268Y14511D02*
X36408Y13371D01*
X33249Y13133D02*
X34156Y14041D01*
X32870Y13472D02*
X34156Y14759D01*
X31343Y13383D02*
X34156Y16196D01*
X33397Y11126D02*
X33690Y11419D01*
X33255Y11495D02*
X33897Y10853D01*
X31397Y11198D02*
X31469Y11126D01*
X32831D02*
X33528D01*
X30816D02*
X31513D01*
X31241D02*
X31349Y11233D01*
X33528Y10538D02*
X34093Y11104D01*
X33528Y10429D02*
Y11126D01*
Y8414D02*
Y9111D01*
X30816Y8414D02*
Y11126D01*
X26533Y7136D02*
X31010Y11612D01*
X25096Y7136D02*
X31099Y13139D01*
X25815Y7136D02*
X30826Y12147D01*
X28688Y7136D02*
X30816Y9264D01*
X27251Y7136D02*
X30816Y10701D01*
X27970Y7136D02*
X30816Y9982D01*
X40853Y8926D02*
X41127Y8652D01*
X43136D02*
X43592Y9108D01*
X40558Y8652D02*
X43592D01*
X35268Y7968D02*
X36207Y8907D01*
X37733Y8503D02*
X38533Y7703D01*
X35268Y7249D02*
X36600Y8582D01*
X34156Y7192D02*
Y8533D01*
X35268Y6962D02*
Y8533D01*
X33528Y9067D02*
X33600Y8995D01*
X33937Y8658D02*
X34156Y8438D01*
X34100Y7136D02*
X34156Y7192D01*
X33462Y8414D02*
X34156Y7720D01*
X33717Y7136D02*
X34156Y7575D01*
X35268Y8046D02*
X42831Y483D01*
X35418Y8613D02*
X43549Y483D01*
X34248D02*
X41306Y7540D01*
X34967Y483D02*
X42025Y7540D01*
X35685Y483D02*
X42743Y7540D01*
X36404Y483D02*
X43461Y7540D01*
X35193Y6684D02*
X41394Y483D01*
X35268Y7327D02*
X42112Y483D01*
X34847Y6311D02*
X40675Y483D01*
X34723Y6187D02*
X35105Y6569D01*
X33530Y483D02*
X40588Y7540D01*
X34409Y6030D02*
X39957Y483D01*
X33697Y6024D02*
X39238Y483D01*
X32025Y8414D02*
X33304Y7136D01*
X32280D02*
X33860Y8715D01*
X30816Y8414D02*
X33528D01*
X31562Y7136D02*
X32841Y8414D01*
X32743D02*
X34022Y7136D01*
X32999D02*
X34156Y8293D01*
X27064Y483D02*
X32606Y6024D01*
X27231D02*
X32773Y483D01*
X30844Y7136D02*
X32122Y8414D01*
X31307D02*
X32585Y7136D01*
X29407D02*
X30816Y8545D01*
X30125Y7136D02*
X31404Y8414D01*
X26346Y483D02*
X31888Y6024D01*
X26512D02*
X32054Y483D01*
X25627D02*
X31169Y6024D01*
X25794D02*
X31336Y483D01*
X30656D02*
X38205Y8031D01*
X31375Y483D02*
X38565Y7673D01*
X29219Y483D02*
X37155Y8418D01*
X29938Y483D02*
X37846Y8390D01*
X32812Y483D02*
X39869Y7540D01*
X32978Y6024D02*
X38520Y483D01*
X32093D02*
X39151Y7540D01*
X32260Y6024D02*
X37802Y483D01*
X28501D02*
X34043Y6024D01*
X28668D02*
X34209Y483D01*
X27783D02*
X33324Y6024D01*
X27949D02*
X33491Y483D01*
X30823Y6024D02*
X36365Y483D01*
X31541Y6024D02*
X37083Y483D01*
X29386Y6024D02*
X34928Y483D01*
X30105Y6024D02*
X35646Y483D01*
X18627Y37306D02*
X27338Y46017D01*
X18848D02*
X27560Y37306D01*
X17908D02*
X26620Y46017D01*
X18130D02*
X26842Y37306D01*
X20063D02*
X28775Y46017D01*
X20285D02*
X28997Y37306D01*
X19345D02*
X28057Y46017D01*
X19567D02*
X28279Y37306D01*
X15753D02*
X24465Y46017D01*
X15975D02*
X24686Y37306D01*
X15035D02*
X23746Y46017D01*
X15256D02*
X23968Y37306D01*
X17190D02*
X25902Y46017D01*
X17411D02*
X26123Y37306D01*
X16471D02*
X25183Y46017D01*
X16693D02*
X25405Y37306D01*
X23877Y46017D02*
X32589Y37306D01*
X24374D02*
X33086Y46017D01*
X23159D02*
X31871Y37306D01*
X23656D02*
X32367Y46017D01*
X24596D02*
X43592Y27021D01*
X22924Y36194D02*
X34156Y24962D01*
X17949Y21541D02*
X32602Y36194D01*
X17895D02*
X34156Y19933D01*
X21500Y37306D02*
X30212Y46017D01*
X21722D02*
X30434Y37306D01*
X20782D02*
X29494Y46017D01*
X21004D02*
X29715Y37306D01*
X22440Y46017D02*
X31152Y37306D01*
X22937D02*
X31649Y46017D01*
X22219Y37306D02*
X30931Y46017D01*
X18584Y29361D02*
X25418Y36194D01*
X10006Y37306D02*
X18717Y46017D01*
X10227D02*
X18939Y37306D01*
X9287D02*
X17999Y46017D01*
X9509D02*
X18221Y37306D01*
X10724D02*
X19436Y46017D01*
X10946D02*
X19658Y37306D01*
X483Y46017D02*
X57817D01*
X7309Y37306D02*
X33050D01*
X7248Y37422D02*
X15844Y46017D01*
X7354D02*
X16065Y37306D01*
X6912Y37804D02*
X15125Y46017D01*
X6635D02*
X15347Y37306D01*
X8569D02*
X17281Y46017D01*
X8790D02*
X17502Y37306D01*
X7850D02*
X16562Y46017D01*
X8072D02*
X16784Y37306D01*
X13101Y46017D02*
X21813Y37306D01*
X13598D02*
X22309Y46017D01*
X12383D02*
X21094Y37306D01*
X12879D02*
X21591Y46017D01*
X14316Y37306D02*
X23028Y46017D01*
X14538D02*
X23250Y37306D01*
X13819Y46017D02*
X22531Y37306D01*
X7309Y36194D02*
X32820D01*
X11664Y46017D02*
X20376Y37306D01*
X12161D02*
X20873Y46017D01*
X11442Y37306D02*
X20154Y46017D01*
X6656Y27490D02*
X15360Y36194D01*
X9274D02*
X17319Y28149D01*
X7837Y36194D02*
X17319Y26712D01*
X6656Y26771D02*
X16079Y36194D01*
X6656Y26053D02*
X16797Y36194D01*
X19981Y27883D02*
X28292Y36194D01*
X19981Y27165D02*
X29010Y36194D01*
X19981Y29320D02*
X26855Y36194D01*
X19981Y28602D02*
X27573Y36194D01*
X24361D02*
X34156Y26399D01*
X23642Y36194D02*
X34156Y25680D01*
X22206Y36194D02*
X34156Y24244D01*
X21487Y36194D02*
X34156Y23525D01*
X17866Y29361D02*
X24700Y36194D01*
X19303Y29361D02*
X26136Y36194D01*
X17319Y29361D02*
X19981D01*
X17319Y26699D02*
Y29361D01*
Y26699D02*
X19981D01*
Y29361D01*
X15896Y24517D02*
X18078Y26699D01*
X15896Y23798D02*
X18797Y26699D01*
X20769Y36194D02*
X34156Y22807D01*
X20050Y36194D02*
X34156Y22088D01*
X19332Y36194D02*
X34156Y21370D01*
X18613Y36194D02*
X34156Y20651D01*
X19954Y20673D02*
X34148Y34866D01*
X19863Y19863D02*
X34156Y34156D01*
X19372Y21528D02*
X33430Y35585D01*
X19738Y21175D02*
X33789Y35226D01*
X18852Y21725D02*
X33070Y35944D01*
X15896Y23825D02*
X18100Y21621D01*
X15896Y23080D02*
X19515Y26699D01*
X15896Y24544D02*
X18700Y21740D01*
X15896Y23107D02*
X17681Y21322D01*
X12148Y36194D02*
X18981Y29361D01*
X12866Y36194D02*
X19700Y29361D01*
X8992Y25516D02*
X19671Y36194D01*
X9710Y25516D02*
X20389Y36194D01*
X11866Y25516D02*
X22544Y36194D01*
X12584Y25516D02*
X23263Y36194D01*
X10429Y25516D02*
X21108Y36194D01*
X11147Y25516D02*
X21826Y36194D01*
X10711D02*
X17545Y29361D01*
X9992Y36194D02*
X17319Y28867D01*
X8556Y36194D02*
X17319Y27431D01*
X6893Y25572D02*
X17515Y36194D01*
X11429D02*
X18263Y29361D01*
X8273Y25516D02*
X18952Y36194D01*
X6950Y25516D02*
X15106D01*
X7555D02*
X18234Y36194D01*
X15896Y21643D02*
X30447Y36194D01*
X15896Y20925D02*
X31165Y36194D01*
X13302Y25516D02*
X23981Y36194D01*
X15896Y22361D02*
X29729Y36194D01*
X15896Y22389D02*
X17405Y20879D01*
X15896Y21670D02*
X17331Y20235D01*
X15755Y25095D02*
X17360Y26699D01*
X15896Y20206D02*
X31884Y36194D01*
X15383Y25441D02*
X17319Y27377D01*
X14021Y25516D02*
X17319Y28814D01*
X14739Y25516D02*
X17319Y28096D01*
X15499Y25353D02*
X15733Y25119D01*
X4248Y45198D02*
X5067Y46017D01*
X4691Y44923D02*
X5786Y46017D01*
X3679Y45347D02*
X4349Y46017D01*
X3043D02*
X3718Y45343D01*
X5268Y44063D02*
X7223Y46017D01*
X5354Y43431D02*
X7941Y46017D01*
X5033Y44546D02*
X6504Y46017D01*
X2325D02*
X3043Y45299D01*
X2852Y45239D02*
X3631Y46017D01*
X1606D02*
X2537Y45086D01*
X888Y46017D02*
X2141Y44764D01*
X483Y44986D02*
X1669Y43800D01*
X5685Y38014D02*
X13688Y46017D01*
X5198D02*
X13910Y37306D01*
X3762Y46017D02*
X12473Y37306D01*
X4480Y46017D02*
X13192Y37306D01*
X6429Y38039D02*
X14407Y46017D01*
X5917D02*
X14629Y37306D01*
X5299Y43044D02*
X11036Y37306D01*
X5343Y43718D02*
X11755Y37306D01*
X4764Y42141D02*
X9600Y37306D01*
X5086Y42537D02*
X10318Y37306D01*
X4341Y41846D02*
X8881Y37306D01*
X3050Y41700D02*
X7444Y37306D01*
X3800Y41669D02*
X8163Y37306D01*
X483Y43549D02*
X5958Y38073D01*
X483Y37840D02*
X8660Y46017D01*
X483Y44306D02*
X2194Y46017D01*
X483Y43588D02*
X2912Y46017D01*
X483Y39277D02*
X2937Y41732D01*
X483Y38559D02*
X3569Y41646D01*
X483Y39996D02*
X2454Y41967D01*
X483Y42831D02*
X5420Y37894D01*
X483Y45704D02*
X1846Y44341D01*
X483Y44267D02*
X1700Y43050D01*
X483Y45743D02*
X757Y46017D01*
X483Y45025D02*
X1475Y46017D01*
X483Y41433D02*
X1802Y42752D01*
X483Y40714D02*
X2077Y42309D01*
X483Y42869D02*
X1761Y44148D01*
X483Y42151D02*
X1653Y43321D01*
X483Y35685D02*
X10815Y46017D01*
X483Y34967D02*
X11533Y46017D01*
X483Y37122D02*
X9378Y46017D01*
X483Y36404D02*
X10096Y46017D01*
X483Y39238D02*
X6935Y32786D01*
X483Y39957D02*
X14924Y25516D01*
X483Y34248D02*
X12252Y46017D01*
X483Y33530D02*
X12970Y46017D01*
X483Y40675D02*
X4842Y36316D01*
X483Y38520D02*
X5933Y33070D01*
X483Y42112D02*
X5040Y37555D01*
X483Y41394D02*
X4808Y37068D01*
X483Y37083D02*
X5028Y32538D01*
X483Y32093D02*
X4811Y36421D01*
X483Y37802D02*
X5402Y32883D01*
X483Y32812D02*
X4836Y37165D01*
X7259Y32404D02*
X11050Y36194D01*
X7427Y31853D02*
X11768Y36194D01*
X6656Y30364D02*
X12486Y36194D01*
X6656Y29645D02*
X13205Y36194D01*
X6656Y30192D02*
X11332Y25516D01*
X6656Y29473D02*
X10613Y25516D01*
X6656Y28927D02*
X13923Y36194D01*
X6656Y28208D02*
X14642Y36194D01*
X6928Y32791D02*
X10331Y36194D01*
X6656Y25810D02*
Y30541D01*
X6452Y33033D02*
X9613Y36194D01*
X6656Y26600D02*
X7740Y25516D01*
X6656Y25810D02*
X6950Y25516D01*
X6656Y28036D02*
X9176Y25516D01*
X6656Y27318D02*
X8458Y25516D01*
X14598Y24404D02*
X14784Y24218D01*
X13880Y24404D02*
X14784Y23500D01*
X6720Y24404D02*
X14784D01*
X13161D02*
X14784Y22781D01*
X12443Y24404D02*
X14784Y22063D01*
X11725Y24404D02*
X14784Y21345D01*
X11006Y24404D02*
X14784Y20626D01*
X10288Y24404D02*
X14784Y19908D01*
X7233Y31052D02*
X12769Y25516D01*
X7420Y31583D02*
X13487Y25516D01*
X6888Y30678D02*
X12050Y25516D01*
X7136Y32585D02*
X14205Y25516D01*
X6656Y28755D02*
X9895Y25516D01*
X6656Y25881D02*
X7021Y25516D01*
X5727Y33027D02*
X8894Y36194D01*
X483Y29938D02*
X5970Y35426D01*
X483Y29219D02*
X7458Y36194D01*
X483Y28501D02*
X8176Y36194D01*
X483Y32054D02*
X5544Y26992D01*
X483Y33491D02*
X5544Y28429D01*
X483Y32773D02*
X5544Y27711D01*
X483Y35646D02*
X4859Y31270D01*
X483Y30656D02*
X5428Y35602D01*
X483Y36365D02*
X4802Y32045D01*
X483Y31375D02*
X5046Y35938D01*
X483Y27783D02*
X4823Y32123D01*
X483Y27064D02*
X4817Y31398D01*
X483Y34928D02*
X5544Y29866D01*
X483Y34209D02*
X5544Y29148D01*
X483Y21317D02*
X5544Y26379D01*
X483Y20598D02*
X5544Y25660D01*
X483Y30617D02*
X5545Y25555D01*
X483Y22035D02*
X5544Y27097D01*
X5707Y25187D02*
X6327Y24567D01*
X483Y19880D02*
X5748Y25146D01*
X483Y25627D02*
X5446Y30591D01*
X5544Y25580D02*
Y30541D01*
X483Y26346D02*
X5059Y30922D01*
X483Y31336D02*
X5544Y26274D01*
X483Y23472D02*
X5544Y28534D01*
X483Y22754D02*
X5544Y27815D01*
X483Y24909D02*
X5544Y29971D01*
X483Y24191D02*
X5544Y29252D01*
X19863Y19863D02*
X34156Y34156D01*
X19981Y29080D02*
X34156Y14904D01*
X17177Y36194D02*
X34156Y19215D01*
X16458Y36194D02*
X34156Y18496D01*
X19981Y27643D02*
X34103Y13521D01*
X19981Y26925D02*
X33697Y13208D01*
X19981Y28361D02*
X34156Y14186D01*
X16015Y8831D02*
X34156Y26972D01*
X18769Y26699D02*
X31843Y13625D01*
X19487Y26699D02*
X32586Y13601D01*
X18051Y26699D02*
X31357Y13393D01*
X17332Y26699D02*
X31015Y13017D01*
X19980Y20460D02*
X30816Y9623D01*
X19861Y19860D02*
X30816Y8905D01*
X20067Y7136D02*
X34156Y21225D01*
X20786Y7136D02*
X34156Y20506D01*
X18630Y7136D02*
X34156Y22662D01*
X19349Y7136D02*
X34156Y21943D01*
X22941Y7136D02*
X34156Y18351D01*
X23659Y7136D02*
X34156Y17633D01*
X21504Y7136D02*
X34156Y19788D01*
X22222Y7136D02*
X34156Y19070D01*
X17093Y7753D02*
X34156Y24817D01*
X17452Y7394D02*
X34156Y24098D01*
X16374Y8472D02*
X34156Y26254D01*
X16733Y8112D02*
X34156Y25535D01*
X19119Y19165D02*
X31149Y7136D01*
X19562Y19441D02*
X31867Y7136D01*
X17912D02*
X34156Y23380D01*
X18475Y19091D02*
X30430Y7136D01*
X15740Y36194D02*
X34156Y17778D01*
X15021Y36194D02*
X34156Y17059D01*
X14303Y36194D02*
X34156Y16341D01*
X13585Y36194D02*
X34156Y15623D01*
X15896Y13740D02*
X34156Y32001D01*
X15896Y13022D02*
X34156Y31283D01*
X15896Y15177D02*
X34156Y33438D01*
X15896Y14459D02*
X34156Y32720D01*
X15896Y18769D02*
X17335Y20208D01*
X15896Y18051D02*
X17532Y19688D01*
X15896Y19488D02*
X17519Y21111D01*
X7244Y36070D02*
X30828Y12485D01*
X15896Y16614D02*
X18387Y19106D01*
X15896Y15896D02*
X19197Y19197D01*
X15896Y17332D02*
X17885Y19322D01*
X15896Y15896D02*
X19197Y19197D01*
X15896Y12303D02*
X34156Y30564D01*
X6905Y35690D02*
X31060Y11535D01*
X6418Y35458D02*
X30816Y11060D01*
X5666Y35492D02*
X30816Y10341D01*
X15896Y10148D02*
X34156Y28409D01*
X15896Y9430D02*
X34156Y27691D01*
X15896Y11585D02*
X34156Y29846D01*
X15896Y10867D02*
X34156Y29127D01*
X15896Y20233D02*
X28993Y7136D01*
X15896Y19515D02*
X28275Y7136D01*
X15896Y8950D02*
Y24726D01*
Y20952D02*
X29712Y7136D01*
X15896Y18078D02*
X26838Y7136D01*
X15896Y17360D02*
X26120Y7136D01*
X15896Y18796D02*
X27556Y7136D01*
X483Y18404D02*
X18404Y483D01*
X24378Y7136D02*
X34156Y16914D01*
X18443Y483D02*
X23985Y6024D01*
X17710Y7136D02*
X34100D01*
X17891Y6024D02*
X23433Y483D01*
X19162D02*
X24703Y6024D01*
X19328D02*
X24870Y483D01*
X17480Y6024D02*
X34330D01*
X18610D02*
X24152Y483D01*
X15896Y8950D02*
X17710Y7136D01*
X15896Y10894D02*
X19654Y7136D01*
X15896Y9457D02*
X18217Y7136D01*
X17725Y483D02*
X23267Y6024D01*
X16288Y483D02*
X21830Y6024D01*
X17006Y483D02*
X22548Y6024D01*
X23472Y483D02*
X29014Y6024D01*
X23639D02*
X29181Y483D01*
X22754D02*
X28295Y6024D01*
X22920D02*
X28462Y483D01*
X24909D02*
X30451Y6024D01*
X25076D02*
X30617Y483D01*
X24191D02*
X29732Y6024D01*
X24357D02*
X29899Y483D01*
X20598D02*
X26140Y6024D01*
X20765D02*
X26307Y483D01*
X19880D02*
X25422Y6024D01*
X20047D02*
X25588Y483D01*
X22035D02*
X27577Y6024D01*
X22202D02*
X27744Y483D01*
X21317D02*
X26859Y6024D01*
X21483D02*
X27025Y483D01*
X15896Y15923D02*
X24683Y7136D01*
X15896Y15204D02*
X23964Y7136D01*
X15896Y16641D02*
X25401Y7136D01*
X7203Y15995D02*
X22715Y483D01*
X15896Y13768D02*
X22528Y7136D01*
X15896Y13049D02*
X21809Y7136D01*
X15896Y14486D02*
X23246Y7136D01*
X483Y483D02*
X57817D01*
X15896Y12331D02*
X21091Y7136D01*
X6874Y14168D02*
X20559Y483D01*
X5580Y14025D02*
X19123Y483D01*
X6375Y13948D02*
X19841Y483D01*
X15896Y11612D02*
X20372Y7136D01*
X15896Y10175D02*
X18935Y7136D01*
X14947Y8327D02*
X17087Y6187D01*
X6857Y9156D02*
X15531Y483D01*
X7417Y15062D02*
X21996Y483D01*
X12696D02*
X18238Y6024D01*
X7223Y14537D02*
X21278Y483D01*
X7251Y10917D02*
X17686Y483D01*
X14851D02*
X20393Y6024D01*
X15569Y483D02*
X21111Y6024D01*
X13414Y483D02*
X18956Y6024D01*
X14133Y483D02*
X19674Y6024D01*
X8385Y483D02*
X15588Y7686D01*
X9104Y483D02*
X15948Y7327D01*
X7212Y9519D02*
X16249Y483D01*
X7413Y10037D02*
X16967Y483D01*
X11259D02*
X17025Y6249D01*
X11977Y483D02*
X17519Y6024D01*
X9822Y483D02*
X16307Y6967D01*
X10540Y483D02*
X16666Y6608D01*
X9569Y24404D02*
X14784Y19189D01*
X8851Y24404D02*
X14784Y18471D01*
X8132Y24404D02*
X14784Y17752D01*
X6695Y24405D02*
X14784Y16316D01*
X7414Y24404D02*
X14784Y17034D01*
X7428Y15331D02*
X14784Y22687D01*
X6941Y16281D02*
X14784Y24124D01*
X7267Y15888D02*
X14784Y23405D01*
X5760Y16536D02*
X13628Y24404D01*
X6470Y16528D02*
X14347Y24404D01*
X483Y21996D02*
X5912Y16567D01*
X483Y22715D02*
X6845Y16353D01*
X483Y19841D02*
X4798Y15525D01*
X483Y19123D02*
X4875Y14730D01*
X483Y21278D02*
X5387Y16373D01*
X483Y20559D02*
X5018Y16024D01*
X3171Y5326D02*
X14784Y16940D01*
X3880Y5316D02*
X14784Y16221D01*
X483Y7667D02*
X14784Y21969D01*
X483Y6948D02*
X14784Y21250D01*
X4812Y4812D02*
X14784Y14784D01*
X5121Y4403D02*
X14784Y14066D01*
X4403Y5121D02*
X14784Y15503D01*
X4812Y4812D02*
X14784Y14784D01*
X6957Y11268D02*
X14784Y19095D01*
Y8720D02*
Y24404D01*
X5799Y11546D02*
X14784Y20532D01*
X6492Y11521D02*
X14784Y19813D01*
X7278Y10870D02*
X14784Y18377D01*
X7430Y10303D02*
X14784Y17658D01*
X483Y17686D02*
X6767Y11401D01*
X483Y28462D02*
X14784Y14160D01*
X483Y27744D02*
X14784Y13442D01*
X483Y29899D02*
X14784Y15597D01*
X483Y29181D02*
X14784Y14879D01*
X483Y13414D02*
X11473Y24404D01*
X483Y12696D02*
X12191Y24404D01*
X483Y27025D02*
X14784Y12723D01*
X483Y26307D02*
X14784Y12005D01*
X483Y17725D02*
X7162Y24404D01*
X483Y17006D02*
X7881Y24404D01*
X483Y19162D02*
X6108Y24787D01*
X483Y18443D02*
X6493Y24453D01*
X483Y14851D02*
X10036Y24404D01*
X483Y14133D02*
X10754Y24404D01*
X483Y16288D02*
X8599Y24404D01*
X483Y15569D02*
X9318Y24404D01*
X483Y11977D02*
X12910Y24404D01*
X483Y24152D02*
X14784Y9850D01*
X483Y25588D02*
X14784Y11287D01*
X483Y24870D02*
X14784Y10568D01*
X483Y9104D02*
X5462Y14083D01*
X483Y8385D02*
X6019Y13922D01*
X483Y16967D02*
X5887Y11563D01*
X483Y23433D02*
X14784Y9131D01*
X483Y11259D02*
X4814Y15590D01*
X483Y15531D02*
X5006Y11007D01*
X483Y16249D02*
X5369Y11362D01*
X483Y483D02*
Y46017D01*
Y9822D02*
X5069Y14409D01*
X483Y14094D02*
X4899Y9677D01*
X483Y10540D02*
X4822Y14880D01*
X483Y14812D02*
X4793Y10501D01*
X5326Y3171D02*
X14784Y12629D01*
X5316Y3880D02*
X14784Y13348D01*
X2686Y1833D02*
X4036Y483D01*
X1919D02*
X3120Y1684D01*
X2638Y483D02*
X3829Y1674D01*
X4793Y483D02*
X14784Y10474D01*
X5512Y483D02*
X14784Y9755D01*
X3356Y483D02*
X14784Y11911D01*
X4075Y483D02*
X14784Y11192D01*
X6948Y483D02*
X14878Y8412D01*
X7667Y483D02*
X15229Y8045D01*
X6230Y483D02*
X14784Y9037D01*
X6351Y8943D02*
X14812Y483D01*
X5355Y3474D02*
X8346Y483D01*
X5527Y9049D02*
X14094Y483D01*
X5089Y4458D02*
X9065Y483D01*
X5244Y2866D02*
X7628Y483D01*
X4639Y2035D02*
X6191Y483D01*
X4993Y2399D02*
X6909Y483D01*
X3590Y1647D02*
X4754Y483D01*
X4181Y1774D02*
X5473Y483D01*
X483Y4793D02*
X5082Y9393D01*
X483Y4075D02*
X5480Y9072D01*
X483Y6230D02*
X4804Y10551D01*
X483Y5512D02*
X4829Y9858D01*
X483Y8346D02*
X3474Y5355D01*
X483Y9065D02*
X4458Y5089D01*
X483Y3356D02*
X6047Y8920D01*
X483Y6191D02*
X2035Y4639D01*
X483Y5473D02*
X1774Y4181D01*
X483Y7628D02*
X2866Y5244D01*
X483Y6909D02*
X2399Y4993D01*
X483Y2638D02*
X1674Y3829D01*
X483Y1919D02*
X1684Y3120D01*
X483Y4754D02*
X1647Y3590D01*
X483Y4036D02*
X1833Y2686D01*
X483Y11938D02*
X11938Y483D01*
X483Y11220D02*
X11220Y483D01*
X483Y13375D02*
X13375Y483D01*
X483Y12657D02*
X12657Y483D01*
X483Y3317D02*
X3317Y483D01*
X483Y10502D02*
X10502Y483D01*
X483Y9783D02*
X9783Y483D01*
X483D02*
X2188Y2188D01*
X483Y483D02*
X2188Y2188D01*
X483Y1201D02*
X1879Y2597D01*
X483Y2599D02*
X2599Y483D01*
X483Y1162D02*
X1162Y483D01*
X1201D02*
X2597Y1879D01*
X483Y1881D02*
X1881Y483D01*
D11*
X54800Y43500D02*
X56554D01*
X53046D02*
X54800D01*
Y45254D01*
Y41746D02*
Y43500D01*
Y3500D02*
X56554D01*
X53046D02*
X54800D01*
Y5254D01*
Y1746D02*
Y3500D01*
X32172Y8516D02*
Y9770D01*
X30918D02*
X32172D01*
X18650Y20410D02*
Y21639D01*
Y20410D02*
X19879D01*
X17421D02*
X18650D01*
X3500Y43500D02*
X5254D01*
X3500D02*
Y45254D01*
Y41746D02*
Y43500D01*
X1746D02*
X3500D01*
X18650Y19181D02*
Y20410D01*
X6100Y10250D02*
Y11479D01*
Y10250D02*
X7329D01*
X6100Y9021D02*
Y10250D01*
X4871D02*
X6100D01*
X3500Y1746D02*
Y3500D01*
X1746D02*
X3500D01*
Y5254D01*
Y3500D02*
X5254D01*
D12*
X33050Y36750D02*
X34712Y35088D01*
X15340Y8720D02*
X17480Y6580D01*
X34330D02*
X34712Y6962D01*
X17480Y6580D02*
X34330D01*
X6100Y36750D02*
X33050D01*
X34712Y12310D02*
Y35088D01*
X44148Y8330D02*
Y29960D01*
X43914Y8096D02*
X44148Y8330D01*
Y29960D02*
X45938Y31750D01*
X52200D01*
X15340Y8720D02*
Y24726D01*
X34712Y6962D02*
Y9770D01*
X6720Y24960D02*
X15106D01*
X38926Y8096D02*
X43914D01*
X6100Y25580D02*
X6720Y24960D01*
X6100Y25580D02*
Y31750D01*
X37252Y9770D02*
X38926Y8096D01*
X15106Y24960D02*
X15340Y24726D01*
D13*
X39792Y12310D02*
D03*
Y9770D02*
D03*
X37252Y12310D02*
D03*
Y9770D02*
D03*
X34712Y12310D02*
D03*
Y9770D02*
D03*
X32172Y12310D02*
D03*
D14*
Y9770D02*
D03*
D15*
X18650Y28030D02*
D03*
D16*
Y20410D02*
D03*
X52200Y15250D02*
D03*
Y10250D02*
D03*
X6100Y31750D02*
D03*
Y36750D02*
D03*
X52200D02*
D03*
Y31750D02*
D03*
X6100Y10250D02*
D03*
Y15250D02*
D03*
D17*
X3500Y43500D02*
D03*
Y3500D02*
D03*
X54800D02*
D03*
Y43500D02*
D03*
%TF.MD5,cd1dd68dd049a8e269793debf0761a71*%
M02*
