M48
;Layer_Color=9474304
;FILE_FORMAT=4:3
METRIC,LZ
;TYPE=PLATED
T1F00S00C0.711
T2F00S00C1.000
T3F00S00C1.020
T4F00S00C1.300
T5F00S00C4.000
;TYPE=NON_PLATED
T7F00S00C4.000
%
T01
X007493Y000401
X0033528Y0052324
X0038735Y0055245
X0044831Y0061722
X0028829Y0077216
T02
X0009Y0008295
Y0010835
Y0013375
X0021
Y0010835
Y0008295
X004471Y0007735
Y0005195
X004725
Y0007735
X004979
Y0005195
X006925Y0008295
Y0010835
Y0013375
Y0015915
Y0018455
Y0020995
Y0023535
Y0026075
Y0029885
Y0032425
Y0034965
Y0037505
Y0040045
Y0042585
Y0045125
Y0047665
Y0050205
Y0052745
X0066Y0051715
X006346
X007505Y0042585
Y0040045
Y0037505
Y0034965
X0021Y0036235
Y0038775
Y0041315
Y0043855
Y0033695
Y0031155
Y0028615
Y0026075
Y0020995
Y0018455
Y0015915
X0009
Y0018455
Y0020995
X006346Y0054255
Y0056795
X0066
Y0054255
X0080435Y0069088
X0084935
Y0075588
X0080435
T03
X008125Y0009565
Y0012105
X008379
Y0009565
Y0014645
Y0017185
Y0019725
Y0022265
Y0024805
Y0027345
Y0029885
Y0032425
Y0034965
Y0037505
Y0040045
Y0042585
Y0045125
Y0047665
Y0050205
Y0052745
X008125
Y0050205
Y0047665
Y0045125
Y0042585
Y0040045
Y0037505
Y0034965
Y0032425
Y0029885
Y0027345
Y0024805
Y0022265
Y0019725
Y0017185
Y0014645
Y0055285
Y0057825
X008379
Y0055285
T04
X0009Y0029995
Y0034995
Y0043995
Y0048995
Y0057995
Y0062995
Y0071995
Y0076995
T05
X0004Y0004
X0093
X0004Y0086
X0093
T07
X002608Y0005795
X005402
X0021Y0057825
X006926Y0056555
M30
