%TF.GenerationSoftware,Altium Limited,Altium Designer,21.8.1 (53)*%
G04 Layer_Color=65535*
%FSLAX43Y43*%
%MOMM*%
%TF.SameCoordinates,E96829AD-C41B-4C4D-B55E-E99DFAFB1E42*%
%TF.FilePolarity,Positive*%
%TF.FileFunction,Legend,Top*%
%TF.Part,Single*%
G01*
G75*
%TA.AperFunction,NonConductor*%
%ADD11C,0.254*%
%ADD32C,0.200*%
%ADD33C,0.400*%
%ADD34C,0.127*%
%ADD35C,0.100*%
G36*
X65487Y8116D02*
Y8110D01*
X65493D01*
Y8104D01*
X65499D01*
Y8092D01*
X65505D01*
Y8038D01*
X65499D01*
Y8026D01*
X65493D01*
Y8020D01*
X65487D01*
Y8014D01*
X65481D01*
Y8008D01*
X65469D01*
Y8002D01*
X65445D01*
Y7997D01*
X65427D01*
Y8002D01*
X65409D01*
Y8008D01*
X65397D01*
Y8014D01*
X65391D01*
Y8020D01*
X65379D01*
Y8026D01*
X65367D01*
Y8032D01*
X65361D01*
Y8038D01*
X65349D01*
Y8044D01*
X65337D01*
Y8050D01*
X65326D01*
Y8056D01*
X65320D01*
Y8062D01*
X65308D01*
Y8068D01*
X65296D01*
Y8074D01*
X65290D01*
Y8080D01*
X65278D01*
Y8086D01*
X65266D01*
Y8092D01*
X65254D01*
Y8098D01*
X65248D01*
Y8104D01*
X65236D01*
Y8110D01*
X65224D01*
Y8116D01*
X65218D01*
Y8122D01*
X65206D01*
Y8128D01*
X65194D01*
Y8134D01*
X65182D01*
Y8140D01*
X65176D01*
Y8146D01*
X65164D01*
Y8152D01*
X65153D01*
Y8158D01*
X65147D01*
Y8164D01*
X65135D01*
Y8170D01*
X65123D01*
Y8176D01*
X65111D01*
Y8181D01*
X65105D01*
Y8187D01*
X65093D01*
Y8193D01*
X65081D01*
Y8199D01*
X65075D01*
Y8205D01*
X65063D01*
Y8211D01*
X65051D01*
Y8217D01*
X65039D01*
Y8223D01*
X65033D01*
Y8229D01*
X65021D01*
Y8235D01*
X65009D01*
Y8241D01*
X65003D01*
Y8247D01*
X64991D01*
Y8253D01*
X64979D01*
Y8259D01*
X64968D01*
Y8265D01*
X64962D01*
Y8271D01*
X64950D01*
Y8277D01*
X64938D01*
Y8283D01*
X64932D01*
Y8289D01*
X64920D01*
Y8301D01*
X64932D01*
Y8307D01*
X64944D01*
Y8313D01*
X64950D01*
Y8319D01*
X64962D01*
Y8325D01*
X64974D01*
Y8331D01*
X64985D01*
Y8337D01*
X64991D01*
Y8343D01*
X65003D01*
Y8349D01*
X65015D01*
Y8354D01*
X65021D01*
Y8360D01*
X65033D01*
Y8366D01*
X65045D01*
Y8372D01*
X65057D01*
Y8378D01*
X65063D01*
Y8384D01*
X65075D01*
Y8390D01*
X65087D01*
Y8396D01*
X65093D01*
Y8402D01*
X65105D01*
Y8408D01*
X65117D01*
Y8414D01*
X65129D01*
Y8420D01*
X65135D01*
Y8426D01*
X65147D01*
Y8432D01*
X65159D01*
Y8438D01*
X65164D01*
Y8444D01*
X65176D01*
Y8450D01*
X65188D01*
Y8456D01*
X65200D01*
Y8462D01*
X65206D01*
Y8468D01*
X65218D01*
Y8474D01*
X65230D01*
Y8480D01*
X65236D01*
Y8486D01*
X65248D01*
Y8492D01*
X65260D01*
Y8498D01*
X65272D01*
Y8504D01*
X65278D01*
Y8510D01*
X65290D01*
Y8516D01*
X65302D01*
Y8522D01*
X65308D01*
Y8528D01*
X65320D01*
Y8533D01*
X65332D01*
Y8539D01*
X65343D01*
Y8545D01*
X65349D01*
Y8551D01*
X65361D01*
Y8557D01*
X65373D01*
Y8563D01*
X65379D01*
Y8569D01*
X65391D01*
Y8575D01*
X65403D01*
Y8581D01*
X65415D01*
Y8587D01*
X65433D01*
Y8593D01*
X65451D01*
Y8587D01*
X65475D01*
Y8581D01*
X65481D01*
Y8575D01*
X65487D01*
Y8569D01*
X65493D01*
Y8563D01*
X65499D01*
Y8551D01*
X65505D01*
Y8498D01*
X65499D01*
Y8486D01*
X65493D01*
Y8480D01*
X65487D01*
Y8474D01*
X65481D01*
Y8468D01*
X65469D01*
Y8462D01*
X65463D01*
Y8456D01*
X65451D01*
Y8450D01*
X65439D01*
Y8444D01*
X65427D01*
Y8438D01*
X65421D01*
Y8432D01*
X65409D01*
Y8426D01*
X65397D01*
Y8420D01*
X65391D01*
Y8414D01*
X65379D01*
Y8408D01*
X65367D01*
Y8402D01*
X65355D01*
Y8396D01*
X65349D01*
Y8390D01*
X65337D01*
Y8384D01*
X65326D01*
Y8378D01*
X65320D01*
Y8372D01*
X65308D01*
Y8366D01*
X65296D01*
Y8360D01*
X66107D01*
Y8229D01*
X65296D01*
Y8223D01*
X65308D01*
Y8217D01*
X65320D01*
Y8211D01*
X65332D01*
Y8205D01*
X65337D01*
Y8199D01*
X65349D01*
Y8193D01*
X65361D01*
Y8187D01*
X65367D01*
Y8181D01*
X65379D01*
Y8176D01*
X65391D01*
Y8170D01*
X65403D01*
Y8164D01*
X65409D01*
Y8158D01*
X65421D01*
Y8152D01*
X65433D01*
Y8146D01*
X65439D01*
Y8140D01*
X65451D01*
Y8134D01*
X65463D01*
Y8128D01*
X65475D01*
Y8122D01*
X65481D01*
Y8116D01*
X65487D01*
D02*
G37*
G36*
X65540Y11014D02*
Y11020D01*
X65534D01*
Y11026D01*
X65528D01*
Y11038D01*
X65522D01*
Y11091D01*
X65528D01*
Y11103D01*
X65534D01*
Y11109D01*
X65540D01*
Y11115D01*
X65546D01*
Y11121D01*
X65558D01*
Y11127D01*
X65582D01*
Y11133D01*
X65600D01*
Y11127D01*
X65618D01*
Y11121D01*
X65630D01*
Y11115D01*
X65636D01*
Y11109D01*
X65648D01*
Y11103D01*
X65660D01*
Y11097D01*
X65666D01*
Y11091D01*
X65678D01*
Y11085D01*
X65690D01*
Y11079D01*
X65701D01*
Y11073D01*
X65707D01*
Y11068D01*
X65719D01*
Y11062D01*
X65731D01*
Y11056D01*
X65737D01*
Y11050D01*
X65749D01*
Y11044D01*
X65761D01*
Y11038D01*
X65773D01*
Y11032D01*
X65779D01*
Y11026D01*
X65791D01*
Y11020D01*
X65803D01*
Y11014D01*
X65809D01*
Y11008D01*
X65821D01*
Y11002D01*
X65833D01*
Y10996D01*
X65845D01*
Y10990D01*
X65851D01*
Y10984D01*
X65863D01*
Y10978D01*
X65874D01*
Y10972D01*
X65880D01*
Y10966D01*
X65892D01*
Y10960D01*
X65904D01*
Y10954D01*
X65916D01*
Y10948D01*
X65922D01*
Y10942D01*
X65934D01*
Y10936D01*
X65946D01*
Y10930D01*
X65952D01*
Y10924D01*
X65964D01*
Y10918D01*
X65976D01*
Y10912D01*
X65988D01*
Y10906D01*
X65994D01*
Y10900D01*
X66006D01*
Y10894D01*
X66018D01*
Y10889D01*
X66024D01*
Y10883D01*
X66036D01*
Y10877D01*
X66048D01*
Y10871D01*
X66059D01*
Y10865D01*
X66065D01*
Y10859D01*
X66077D01*
Y10853D01*
X66089D01*
Y10847D01*
X66095D01*
Y10841D01*
X66107D01*
Y10829D01*
X66095D01*
Y10823D01*
X66083D01*
Y10817D01*
X66077D01*
Y10811D01*
X66065D01*
Y10805D01*
X66053D01*
Y10799D01*
X66042D01*
Y10793D01*
X66036D01*
Y10787D01*
X66024D01*
Y10781D01*
X66012D01*
Y10775D01*
X66006D01*
Y10769D01*
X65994D01*
Y10763D01*
X65982D01*
Y10757D01*
X65970D01*
Y10751D01*
X65964D01*
Y10745D01*
X65952D01*
Y10739D01*
X65940D01*
Y10733D01*
X65934D01*
Y10727D01*
X65922D01*
Y10721D01*
X65910D01*
Y10716D01*
X65898D01*
Y10710D01*
X65892D01*
Y10704D01*
X65880D01*
Y10698D01*
X65868D01*
Y10692D01*
X65863D01*
Y10686D01*
X65851D01*
Y10680D01*
X65839D01*
Y10674D01*
X65827D01*
Y10668D01*
X65821D01*
Y10662D01*
X65809D01*
Y10656D01*
X65797D01*
Y10650D01*
X65791D01*
Y10644D01*
X65779D01*
Y10638D01*
X65767D01*
Y10632D01*
X65755D01*
Y10626D01*
X65749D01*
Y10620D01*
X65737D01*
Y10614D01*
X65725D01*
Y10608D01*
X65719D01*
Y10602D01*
X65707D01*
Y10596D01*
X65695D01*
Y10590D01*
X65684D01*
Y10584D01*
X65678D01*
Y10578D01*
X65666D01*
Y10572D01*
X65654D01*
Y10566D01*
X65648D01*
Y10560D01*
X65636D01*
Y10554D01*
X65624D01*
Y10548D01*
X65612D01*
Y10542D01*
X65594D01*
Y10537D01*
X65576D01*
Y10542D01*
X65552D01*
Y10548D01*
X65546D01*
Y10554D01*
X65540D01*
Y10560D01*
X65534D01*
Y10566D01*
X65528D01*
Y10578D01*
X65522D01*
Y10632D01*
X65528D01*
Y10644D01*
X65534D01*
Y10650D01*
X65540D01*
Y10656D01*
X65546D01*
Y10662D01*
X65558D01*
Y10668D01*
X65564D01*
Y10674D01*
X65576D01*
Y10680D01*
X65588D01*
Y10686D01*
X65600D01*
Y10692D01*
X65606D01*
Y10698D01*
X65618D01*
Y10704D01*
X65630D01*
Y10710D01*
X65636D01*
Y10716D01*
X65648D01*
Y10721D01*
X65660D01*
Y10727D01*
X65672D01*
Y10733D01*
X65678D01*
Y10739D01*
X65690D01*
Y10745D01*
X65701D01*
Y10751D01*
X65707D01*
Y10757D01*
X65719D01*
Y10763D01*
X65731D01*
Y10769D01*
X64920D01*
Y10900D01*
X65731D01*
Y10906D01*
X65719D01*
Y10912D01*
X65707D01*
Y10918D01*
X65695D01*
Y10924D01*
X65690D01*
Y10930D01*
X65678D01*
Y10936D01*
X65666D01*
Y10942D01*
X65660D01*
Y10948D01*
X65648D01*
Y10954D01*
X65636D01*
Y10960D01*
X65624D01*
Y10966D01*
X65618D01*
Y10972D01*
X65606D01*
Y10978D01*
X65594D01*
Y10984D01*
X65588D01*
Y10990D01*
X65576D01*
Y10996D01*
X65564D01*
Y11002D01*
X65552D01*
Y11008D01*
X65546D01*
Y11014D01*
X65540D01*
D02*
G37*
D11*
X80028Y67834D02*
G03*
X80028Y67834I-99J0D01*
G01*
X44710Y5195D02*
X51659D01*
X51734Y5270D01*
Y11470D01*
X43210Y3695D02*
Y9235D01*
X51290Y3695D02*
Y9235D01*
X43210D02*
X51290D01*
X43210Y3695D02*
X51290D01*
X67750Y6795D02*
Y27575D01*
X70750Y6795D02*
Y27575D01*
X67750Y6795D02*
X70750D01*
X67750Y27575D02*
X70750D01*
X61960Y50215D02*
X66000D01*
X61960D02*
Y58295D01*
X66000D01*
X59989Y46395D02*
X60489D01*
X59989Y48935D02*
X60489D01*
Y46395D02*
Y48935D01*
Y47665D02*
X60878D01*
X62529Y49316D01*
X65958D01*
X68117Y51475D01*
X69260D01*
X69250Y50205D02*
Y52745D01*
X70750Y28385D02*
Y54245D01*
X67750Y28385D02*
Y50205D01*
Y28385D02*
X70750D01*
X19500Y22495D02*
X22500D01*
X19500Y6795D02*
X22500D01*
X19500D02*
Y22495D01*
Y24575D02*
X22500D01*
X19500Y45355D02*
X22500D01*
X19500Y24575D02*
Y45355D01*
X22500Y6795D02*
Y22495D01*
Y24575D02*
Y45355D01*
X23030Y31155D02*
X23530D01*
X23030Y28485D02*
X23530D01*
Y31152D01*
X41949Y50755D02*
Y57755D01*
X59638Y50755D02*
Y57755D01*
X41949D02*
X59638D01*
X41949Y50755D02*
X59638D01*
X51734Y11470D02*
X58592D01*
X53639Y11343D02*
Y11470D01*
X56179Y11343D02*
Y11470D01*
X58592Y11343D02*
Y11470D01*
X36636Y84215D02*
X43636D01*
X79690Y69838D02*
Y74838D01*
X81429Y69343D02*
X83865D01*
X81373Y75333D02*
X83964D01*
X85680Y69838D02*
Y74838D01*
X18923Y72263D02*
Y73279D01*
X19431Y73787D01*
X19939Y73279D01*
Y72263D01*
Y73025D01*
X18923D01*
X20447Y72263D02*
X20955D01*
X20701D01*
Y73787D01*
X20447Y73533D01*
X37364Y7227D02*
X37872D01*
X37618D01*
Y5703D01*
X37364D01*
X37872D01*
X39649Y6973D02*
X39395Y7227D01*
X38887D01*
X38633Y6973D01*
Y5957D01*
X38887Y5703D01*
X39395D01*
X39649Y5957D01*
X41172Y6973D02*
X40919Y7227D01*
X40411D01*
X40157Y6973D01*
Y6719D01*
X40411Y6465D01*
X40919D01*
X41172Y6211D01*
Y5957D01*
X40919Y5703D01*
X40411D01*
X40157Y5957D01*
X41680Y5703D02*
Y7227D01*
X42442D01*
X42696Y6973D01*
Y6465D01*
X42442Y6211D01*
X41680D01*
X36836Y15280D02*
Y16296D01*
X37344Y16804D01*
X37852Y16296D01*
Y15280D01*
Y16042D01*
X36836D01*
X38360Y16804D02*
X39376D01*
X38868D01*
Y15280D01*
X39883D02*
Y16804D01*
X40391Y16296D01*
X40899Y16804D01*
Y15280D01*
X42423Y16804D02*
X41407D01*
Y15280D01*
X42423D01*
X41407Y16042D02*
X41915D01*
X43946Y16550D02*
X43692Y16804D01*
X43184D01*
X42930Y16550D01*
Y15534D01*
X43184Y15280D01*
X43692D01*
X43946Y15534D01*
Y16042D01*
X43438D01*
X44454Y15280D02*
Y16296D01*
X44962Y16804D01*
X45470Y16296D01*
Y15280D01*
Y16042D01*
X44454D01*
X45977Y16550D02*
X46231Y16804D01*
X46739D01*
X46993Y16550D01*
Y16296D01*
X46739Y16042D01*
X46485D01*
X46739D01*
X46993Y15788D01*
Y15534D01*
X46739Y15280D01*
X46231D01*
X45977Y15534D01*
X48517Y15280D02*
X47501D01*
X48517Y16296D01*
Y16550D01*
X48263Y16804D01*
X47755D01*
X47501Y16550D01*
X49024D02*
X49278Y16804D01*
X49786D01*
X50040Y16550D01*
Y16296D01*
X49786Y16042D01*
X50040Y15788D01*
Y15534D01*
X49786Y15280D01*
X49278D01*
X49024Y15534D01*
Y15788D01*
X49278Y16042D01*
X49024Y16296D01*
Y16550D01*
X49278Y16042D02*
X49786D01*
X50548Y15280D02*
Y16804D01*
X51310D01*
X51564Y16550D01*
Y16042D01*
X51310Y15788D01*
X50548D01*
X48127Y50241D02*
X48635D01*
X48381D01*
Y48717D01*
X48127D01*
X48635D01*
X50413Y49987D02*
X50159Y50241D01*
X49651D01*
X49397Y49987D01*
Y48971D01*
X49651Y48717D01*
X50159D01*
X50413Y48971D01*
X51936Y49987D02*
X51682Y50241D01*
X51174D01*
X50920Y49987D01*
Y49733D01*
X51174Y49479D01*
X51682D01*
X51936Y49225D01*
Y48971D01*
X51682Y48717D01*
X51174D01*
X50920Y48971D01*
X52444Y48717D02*
Y50241D01*
X53206D01*
X53460Y49987D01*
Y49479D01*
X53206Y49225D01*
X52444D01*
X43557Y58269D02*
Y59285D01*
X44065Y59793D01*
X44573Y59285D01*
Y58269D01*
Y59031D01*
X43557D01*
X45080Y59793D02*
X46096D01*
X45588D01*
Y58269D01*
X46604D02*
Y59793D01*
X47112Y59285D01*
X47620Y59793D01*
Y58269D01*
X49143Y59793D02*
X48127D01*
Y58269D01*
X49143D01*
X48127Y59031D02*
X48635D01*
X50667Y59539D02*
X50413Y59793D01*
X49905D01*
X49651Y59539D01*
Y58523D01*
X49905Y58269D01*
X50413D01*
X50667Y58523D01*
Y59031D01*
X50159D01*
X51174Y58269D02*
Y59285D01*
X51682Y59793D01*
X52190Y59285D01*
Y58269D01*
Y59031D01*
X51174D01*
X52698Y58269D02*
X53206D01*
X52952D01*
Y59793D01*
X52698Y59539D01*
X54983Y59793D02*
X54475Y59539D01*
X53967Y59031D01*
Y58523D01*
X54221Y58269D01*
X54729D01*
X54983Y58523D01*
Y58777D01*
X54729Y59031D01*
X53967D01*
X55491Y59793D02*
Y58523D01*
X55745Y58269D01*
X56253D01*
X56507Y58523D01*
Y59793D01*
X58030Y58269D02*
X57014D01*
X58030Y59285D01*
Y59539D01*
X57776Y59793D01*
X57268D01*
X57014Y59539D01*
X37343Y84703D02*
Y86227D01*
X38105D01*
X38359Y85973D01*
Y85465D01*
X38105Y85211D01*
X37343D01*
X37851D02*
X38359Y84703D01*
X38866D02*
Y85719D01*
X39374Y86227D01*
X39882Y85719D01*
Y84703D01*
Y85465D01*
X38866D01*
X40390Y86227D02*
Y84703D01*
X41152D01*
X41406Y84957D01*
Y85973D01*
X41152Y86227D01*
X40390D01*
X41913Y84703D02*
Y86227D01*
X42421Y85719D01*
X42929Y86227D01*
Y84703D01*
X32138Y81536D02*
Y82552D01*
X32645Y83059D01*
X33153Y82552D01*
Y81536D01*
Y82298D01*
X32138D01*
X33661Y82552D02*
Y81536D01*
Y82044D01*
X33915Y82298D01*
X34169Y82552D01*
X34423D01*
X36200Y83059D02*
Y81536D01*
X35439D01*
X35185Y81790D01*
Y82298D01*
X35439Y82552D01*
X36200D01*
X36708D02*
Y81790D01*
X36962Y81536D01*
X37724D01*
Y82552D01*
X38232Y81536D02*
X38739D01*
X38486D01*
Y82552D01*
X38232D01*
X39501Y81536D02*
Y82552D01*
X40263D01*
X40517Y82298D01*
Y81536D01*
X41279D02*
X41786D01*
X42040Y81790D01*
Y82298D01*
X41786Y82552D01*
X41279D01*
X41025Y82298D01*
Y81790D01*
X41279Y81536D01*
X44072Y83059D02*
Y81790D01*
X44326Y81536D01*
X44833D01*
X45087Y81790D01*
Y83059D01*
X45595Y81536D02*
Y82552D01*
X46357D01*
X46611Y82298D01*
Y81536D01*
X47373D02*
X47881D01*
X48134Y81790D01*
Y82298D01*
X47881Y82552D01*
X47373D01*
X47119Y82298D01*
Y81790D01*
X47373Y81536D01*
X34804Y80747D02*
X34550Y81001D01*
X34042D01*
X33788Y80747D01*
Y79732D01*
X34042Y79478D01*
X34550D01*
X34804Y79732D01*
X35565Y79478D02*
X36073D01*
X36327Y79732D01*
Y80239D01*
X36073Y80493D01*
X35565D01*
X35312Y80239D01*
Y79732D01*
X35565Y79478D01*
X36835D02*
Y80493D01*
X37597D01*
X37851Y80239D01*
Y79478D01*
X38359D02*
Y80493D01*
X39120D01*
X39374Y80239D01*
Y79478D01*
X40644D02*
X40136D01*
X39882Y79732D01*
Y80239D01*
X40136Y80493D01*
X40644D01*
X40898Y80239D01*
Y79985D01*
X39882D01*
X42421Y80493D02*
X41660D01*
X41406Y80239D01*
Y79732D01*
X41660Y79478D01*
X42421D01*
X43183Y80747D02*
Y80493D01*
X42929D01*
X43437D01*
X43183D01*
Y79732D01*
X43437Y79478D01*
X44453D02*
X44960D01*
X45214Y79732D01*
Y80239D01*
X44960Y80493D01*
X44453D01*
X44199Y80239D01*
Y79732D01*
X44453Y79478D01*
X45722Y80493D02*
Y79478D01*
Y79985D01*
X45976Y80239D01*
X46230Y80493D01*
X46484D01*
X40644Y77165D02*
X40390Y77419D01*
X40136Y77165D01*
X39882D01*
X39628Y77419D01*
Y77673D01*
X39882Y77927D01*
X39628Y78181D01*
Y78435D01*
X39882Y78689D01*
X40136D01*
X40390Y78435D01*
Y78181D01*
X40136Y77927D01*
X40390Y77673D01*
Y77419D01*
X40644Y77927D02*
X40390Y77673D01*
X39882Y77927D02*
X40136D01*
X34550Y76377D02*
Y74853D01*
X35312D01*
X35565Y75107D01*
Y75361D01*
X35312Y75615D01*
X34550D01*
X35312D01*
X35565Y75869D01*
Y76123D01*
X35312Y76377D01*
X34550D01*
X36073Y75869D02*
Y74853D01*
Y75361D01*
X36327Y75615D01*
X36581Y75869D01*
X36835D01*
X38359Y74853D02*
X37851D01*
X37597Y75107D01*
Y75615D01*
X37851Y75869D01*
X38359D01*
X38612Y75615D01*
Y75361D01*
X37597D01*
X39374Y75869D02*
X39882D01*
X40136Y75615D01*
Y74853D01*
X39374D01*
X39120Y75107D01*
X39374Y75361D01*
X40136D01*
X40644Y74853D02*
Y76377D01*
Y75361D02*
X41406Y75869D01*
X40644Y75361D02*
X41406Y74853D01*
X42421D02*
X42929D01*
X43183Y75107D01*
Y75615D01*
X42929Y75869D01*
X42421D01*
X42167Y75615D01*
Y75107D01*
X42421Y74853D01*
X43691Y75869D02*
Y75107D01*
X43945Y74853D01*
X44707D01*
Y75869D01*
X45468Y76123D02*
Y75869D01*
X45214D01*
X45722D01*
X45468D01*
Y75107D01*
X45722Y74853D01*
D32*
X81350Y63555D02*
G03*
X81350Y63555I-100J0D01*
G01*
X7730Y7025D02*
X10270D01*
X7730Y22265D02*
X10270D01*
Y7025D02*
Y22265D01*
X7730Y7025D02*
Y22265D01*
X73780Y43855D02*
X76320D01*
Y33695D02*
Y43855D01*
X73780Y33695D02*
Y43855D01*
Y33695D02*
X76320D01*
X74550Y45333D02*
X74384Y45500D01*
X74050D01*
X73884Y45333D01*
Y45167D01*
X74050Y45000D01*
X74384D01*
X74550Y44833D01*
Y44667D01*
X74384Y44500D01*
X74050D01*
X73884Y44667D01*
X74883Y44500D02*
Y45500D01*
X75383D01*
X75550Y45333D01*
Y45000D01*
X75383Y44833D01*
X74883D01*
X75883Y45500D02*
X76216D01*
X76050D01*
Y44500D01*
X75883D01*
X76216D01*
X4834Y7795D02*
Y8462D01*
X5167Y8795D01*
X5500Y8462D01*
Y7795D01*
Y8295D01*
X4834D01*
X6500Y8795D02*
X5834D01*
Y8295D01*
X6167Y8462D01*
X6333D01*
X6500Y8295D01*
Y7962D01*
X6333Y7795D01*
X6000D01*
X5834Y7962D01*
X4834Y20495D02*
Y21162D01*
X5167Y21495D01*
X5500Y21162D01*
Y20495D01*
Y20995D01*
X4834D01*
X5834Y21328D02*
X6000Y21495D01*
X6333D01*
X6500Y21328D01*
Y20662D01*
X6333Y20495D01*
X6000D01*
X5834Y20662D01*
Y21328D01*
X15436Y35256D02*
X15603Y35422D01*
Y35756D01*
X15436Y35922D01*
X15269D01*
X15103Y35756D01*
Y35422D01*
X14936Y35256D01*
X14770D01*
X14603Y35422D01*
Y35756D01*
X14770Y35922D01*
X15603Y34923D02*
X14603D01*
Y34423D01*
X14770Y34256D01*
X15436D01*
X15603Y34423D01*
Y34923D01*
X14603Y33923D02*
X15269D01*
X15603Y33590D01*
X15269Y33256D01*
X14603D01*
X15103D01*
Y33923D01*
X14603Y32923D02*
X15269Y32257D01*
X15436Y31257D02*
X15603Y31424D01*
Y31757D01*
X15436Y31924D01*
X15269D01*
X15103Y31757D01*
Y31424D01*
X14936Y31257D01*
X14770D01*
X14603Y31424D01*
Y31757D01*
X14770Y31924D01*
X15436Y30257D02*
X15603Y30424D01*
Y30757D01*
X15436Y30924D01*
X14770D01*
X14603Y30757D01*
Y30424D01*
X14770Y30257D01*
X15603Y29924D02*
X14603D01*
Y29258D01*
X15436Y47923D02*
X15603Y47756D01*
Y47423D01*
X15436Y47256D01*
X15269D01*
X15103Y47423D01*
Y47590D01*
Y47423D01*
X14936Y47256D01*
X14770D01*
X14603Y47423D01*
Y47756D01*
X14770Y47923D01*
X15603Y46923D02*
X14936D01*
X14603Y46590D01*
X14936Y46257D01*
X15603D01*
X15436Y45924D02*
X15603Y45757D01*
Y45424D01*
X15436Y45257D01*
X15269D01*
X15103Y45424D01*
Y45590D01*
Y45424D01*
X14936Y45257D01*
X14770D01*
X14603Y45424D01*
Y45757D01*
X14770Y45924D01*
X15603Y60757D02*
Y61423D01*
X15103D01*
X15269Y61090D01*
Y60923D01*
X15103Y60757D01*
X14770D01*
X14603Y60923D01*
Y61256D01*
X14770Y61423D01*
X15603Y60423D02*
X14936D01*
X14603Y60090D01*
X14936Y59757D01*
X15603D01*
X15436Y75256D02*
X15603Y75423D01*
Y75756D01*
X15436Y75923D01*
X14770D01*
X14603Y75756D01*
Y75423D01*
X14770Y75256D01*
X15103D01*
Y75590D01*
X14603Y74923D02*
X15603D01*
X14603Y74257D01*
X15603D01*
Y73924D02*
X14603D01*
Y73424D01*
X14770Y73257D01*
X15436D01*
X15603Y73424D01*
Y73924D01*
X80519Y77478D02*
Y78478D01*
X81019D01*
X81185Y78311D01*
Y77978D01*
X81019Y77811D01*
X80519D01*
X80852D02*
X81185Y77478D01*
X82019D02*
X81685D01*
X81519Y77645D01*
Y77978D01*
X81685Y78145D01*
X82019D01*
X82185Y77978D01*
Y77811D01*
X81519D01*
X82518Y77478D02*
X83018D01*
X83185Y77645D01*
X83018Y77811D01*
X82685D01*
X82518Y77978D01*
X82685Y78145D01*
X83185D01*
X84018Y77478D02*
X83685D01*
X83518Y77645D01*
Y77978D01*
X83685Y78145D01*
X84018D01*
X84185Y77978D01*
Y77811D01*
X83518D01*
X84684Y78311D02*
Y78145D01*
X84518D01*
X84851D01*
X84684D01*
Y77645D01*
X84851Y77478D01*
X89391Y23592D02*
X88391D01*
X88724Y23925D01*
X88391Y24258D01*
X89391D01*
Y24758D02*
Y25091D01*
X89224Y25258D01*
X88891D01*
X88724Y25091D01*
Y24758D01*
X88891Y24591D01*
X89224D01*
X89391Y24758D01*
Y25591D02*
Y25924D01*
Y25758D01*
X88391D01*
Y25591D01*
X89391Y26924D02*
Y26591D01*
X89224Y26424D01*
X88891D01*
X88724Y26591D01*
Y26924D01*
X88891Y27090D01*
X89058D01*
Y26424D01*
X88724Y27424D02*
X89391Y28090D01*
X89058Y27757D01*
X88724Y28090D01*
X89391Y27424D01*
Y29923D02*
X88391D01*
X88891Y29423D01*
Y30090D01*
X88558Y30423D02*
X88391Y30589D01*
Y30923D01*
X88558Y31089D01*
X89224D01*
X89391Y30923D01*
Y30589D01*
X89224Y30423D01*
X88558D01*
X88891Y31422D02*
Y32089D01*
X89391Y32422D02*
X88391D01*
Y32922D01*
X88558Y33089D01*
X88891D01*
X89058Y32922D01*
Y32422D01*
X89391Y33422D02*
Y33755D01*
Y33588D01*
X88724D01*
Y33422D01*
X89391Y34255D02*
X88724D01*
Y34755D01*
X88891Y34921D01*
X89391D01*
X88558Y36921D02*
X88391Y36754D01*
Y36421D01*
X88558Y36254D01*
X89224D01*
X89391Y36421D01*
Y36754D01*
X89224Y36921D01*
X89391Y37421D02*
Y37754D01*
X89224Y37920D01*
X88891D01*
X88724Y37754D01*
Y37421D01*
X88891Y37254D01*
X89224D01*
X89391Y37421D01*
Y38254D02*
X88724D01*
Y38753D01*
X88891Y38920D01*
X89391D01*
Y39253D02*
X88724D01*
Y39753D01*
X88891Y39920D01*
X89391D01*
Y40753D02*
Y40420D01*
X89224Y40253D01*
X88891D01*
X88724Y40420D01*
Y40753D01*
X88891Y40919D01*
X89058D01*
Y40253D01*
X88724Y41919D02*
Y41419D01*
X88891Y41253D01*
X89224D01*
X89391Y41419D01*
Y41919D01*
X88558Y42419D02*
X88724D01*
Y42252D01*
Y42586D01*
Y42419D01*
X89224D01*
X89391Y42586D01*
Y43252D02*
Y43585D01*
X89224Y43752D01*
X88891D01*
X88724Y43585D01*
Y43252D01*
X88891Y43085D01*
X89224D01*
X89391Y43252D01*
X88724Y44085D02*
X89391D01*
X89058D01*
X88891Y44252D01*
X88724Y44418D01*
Y44585D01*
X91491Y23008D02*
X90491D01*
X90824Y23342D01*
X90491Y23675D01*
X91491D01*
Y24175D02*
Y24508D01*
X91324Y24675D01*
X90991D01*
X90824Y24508D01*
Y24175D01*
X90991Y24008D01*
X91324D01*
X91491Y24175D01*
X90824Y25008D02*
X91324D01*
X91491Y25174D01*
Y25674D01*
X90824D01*
X91491Y26008D02*
Y26507D01*
X91324Y26674D01*
X91158Y26507D01*
Y26174D01*
X90991Y26008D01*
X90824Y26174D01*
Y26674D01*
X91491Y27507D02*
Y27174D01*
X91324Y27007D01*
X90991D01*
X90824Y27174D01*
Y27507D01*
X90991Y27674D01*
X91158D01*
Y27007D01*
X90824Y28007D02*
X91491D01*
X91158D01*
X90991Y28173D01*
X90824Y28340D01*
Y28507D01*
X91491Y29173D02*
X90491D01*
Y29506D02*
X91491D01*
X90824Y29007D02*
Y29506D01*
Y29673D01*
X91158Y29007D02*
Y29673D01*
X90824Y30006D02*
Y30173D01*
X90991D01*
Y30006D01*
X90824D01*
X91324D02*
Y30173D01*
X91491D01*
Y30006D01*
X91324D01*
X90491Y32505D02*
Y31839D01*
X90991D01*
X90824Y32172D01*
Y32339D01*
X90991Y32505D01*
X91324D01*
X91491Y32339D01*
Y32006D01*
X91324Y31839D01*
X90658Y32839D02*
X90491Y33005D01*
Y33338D01*
X90658Y33505D01*
X90824D01*
X90991Y33338D01*
Y33172D01*
Y33338D01*
X91158Y33505D01*
X91324D01*
X91491Y33338D01*
Y33005D01*
X91324Y32839D01*
X90658Y33838D02*
X90491Y34005D01*
Y34338D01*
X90658Y34505D01*
X90824D01*
X90991Y34338D01*
X91158Y34505D01*
X91324D01*
X91491Y34338D01*
Y34005D01*
X91324Y33838D01*
X91158D01*
X90991Y34005D01*
X90824Y33838D01*
X90658D01*
X90991Y34005D02*
Y34338D01*
Y34838D02*
Y35504D01*
X90491Y35838D02*
Y36504D01*
X90658D01*
X91324Y35838D01*
X91491D01*
X90658Y36837D02*
X90491Y37004D01*
Y37337D01*
X90658Y37504D01*
X91324D01*
X91491Y37337D01*
Y37004D01*
X91324Y36837D01*
X90658D01*
X91491Y38503D02*
Y37837D01*
X90824Y38503D01*
X90658D01*
X90491Y38337D01*
Y38004D01*
X90658Y37837D01*
X91491Y39337D02*
X90491D01*
X90991Y38837D01*
Y39503D01*
X90491Y40503D02*
X90658Y40170D01*
X90991Y39836D01*
X91324D01*
X91491Y40003D01*
Y40336D01*
X91324Y40503D01*
X91158D01*
X90991Y40336D01*
Y39836D01*
Y40836D02*
Y41503D01*
X91491Y42336D02*
X90491D01*
X90991Y41836D01*
Y42502D01*
X90658Y42835D02*
X90491Y43002D01*
Y43335D01*
X90658Y43502D01*
X91324D01*
X91491Y43335D01*
Y43002D01*
X91324Y42835D01*
X90658D01*
Y43835D02*
X90491Y44002D01*
Y44335D01*
X90658Y44502D01*
X91324D01*
X91491Y44335D01*
Y44002D01*
X91324Y43835D01*
X90658D01*
X91491Y44835D02*
Y45168D01*
Y45001D01*
X90491D01*
X90658Y44835D01*
X53267Y8856D02*
X53101Y8689D01*
Y8356D01*
X53267Y8190D01*
X53934D01*
X54100Y8356D01*
Y8689D01*
X53934Y8856D01*
X53600D01*
Y8523D01*
X54100Y9189D02*
X53101D01*
X54100Y9856D01*
X53101D01*
Y10189D02*
X54100D01*
Y10689D01*
X53934Y10855D01*
X53267D01*
X53101Y10689D01*
Y10189D01*
X56640Y7523D02*
X55641D01*
X55974Y7856D01*
X55641Y8190D01*
X56640D01*
X55641Y9023D02*
Y8689D01*
X55807Y8523D01*
X56474D01*
X56640Y8689D01*
Y9023D01*
X56474Y9189D01*
X55807D01*
X55641Y9023D01*
X55807Y10189D02*
X55641Y10022D01*
Y9689D01*
X55807Y9523D01*
X55974D01*
X56140Y9689D01*
Y10022D01*
X56307Y10189D01*
X56474D01*
X56640Y10022D01*
Y9689D01*
X56474Y9523D01*
X55641Y10522D02*
Y10855D01*
Y10689D01*
X56640D01*
Y10522D01*
Y10855D01*
X58181Y9856D02*
Y9189D01*
X58680D01*
X58514Y9523D01*
Y9689D01*
X58680Y9856D01*
X59014D01*
X59180Y9689D01*
Y9356D01*
X59014Y9189D01*
X58181Y10189D02*
X58847D01*
X59180Y10522D01*
X58847Y10855D01*
X58181D01*
X45210Y9695D02*
X44211D01*
Y10195D01*
X44377Y10362D01*
X44710D01*
X44877Y10195D01*
Y9695D01*
Y10029D02*
X45210Y10362D01*
X44211Y11362D02*
Y10695D01*
X45210D01*
Y11362D01*
X44710Y10695D02*
Y11028D01*
X44377Y12361D02*
X44211Y12195D01*
Y11861D01*
X44377Y11695D01*
X44544D01*
X44710Y11861D01*
Y12195D01*
X44877Y12361D01*
X45044D01*
X45210Y12195D01*
Y11861D01*
X45044Y11695D01*
X44211Y13361D02*
Y12694D01*
X45210D01*
Y13361D01*
X44710Y12694D02*
Y13028D01*
X44211Y13694D02*
Y14361D01*
Y14027D01*
X45210D01*
X46917Y10362D02*
X46751Y10195D01*
Y9862D01*
X46917Y9695D01*
X47084D01*
X47250Y9862D01*
Y10195D01*
X47417Y10362D01*
X47584D01*
X47750Y10195D01*
Y9862D01*
X47584Y9695D01*
X46917Y11362D02*
X46751Y11195D01*
Y10862D01*
X46917Y10695D01*
X47584D01*
X47750Y10862D01*
Y11195D01*
X47584Y11362D01*
X46751Y11695D02*
X47750D01*
X47417D01*
X46751Y12361D01*
X47250Y11861D01*
X47750Y12361D01*
X50290Y9695D02*
X49291D01*
X49624Y10029D01*
X49291Y10362D01*
X50290D01*
X49291Y10695D02*
Y11028D01*
Y10862D01*
X50290D01*
Y10695D01*
Y11028D01*
X49457Y12195D02*
X49291Y12028D01*
Y11695D01*
X49457Y11528D01*
X49624D01*
X49790Y11695D01*
Y12028D01*
X49957Y12195D01*
X50124D01*
X50290Y12028D01*
Y11695D01*
X50124Y11528D01*
X49291Y13028D02*
Y12694D01*
X49457Y12528D01*
X50124D01*
X50290Y12694D01*
Y13028D01*
X50124Y13194D01*
X49457D01*
X49291Y13028D01*
X62624Y7795D02*
Y8795D01*
X63124D01*
X63290Y8628D01*
Y8295D01*
X63124Y8128D01*
X62624D01*
X62957D02*
X63290Y7795D01*
X63624Y8795D02*
X64290Y7795D01*
Y8795D02*
X63624Y7795D01*
X62624Y11335D02*
X63290D01*
X62957D01*
Y10335D01*
X63624Y11335D02*
X64290Y10335D01*
Y11335D02*
X63624Y10335D01*
X66624Y26575D02*
X67290D01*
Y26408D01*
X66624Y25742D01*
Y25575D01*
X67290Y24035D02*
X66957Y23868D01*
X66624Y23535D01*
Y23202D01*
X66790Y23035D01*
X67123D01*
X67290Y23202D01*
Y23368D01*
X67123Y23535D01*
X66624D01*
X67290Y21495D02*
X66624D01*
Y20995D01*
X66957Y21162D01*
X67123D01*
X67290Y20995D01*
Y20662D01*
X67123Y20495D01*
X66790D01*
X66624Y20662D01*
X67123Y17955D02*
Y18955D01*
X66624Y18455D01*
X67290D01*
X66624Y16248D02*
X66790Y16415D01*
X67123D01*
X67290Y16248D01*
Y16082D01*
X67123Y15915D01*
X66957D01*
X67123D01*
X67290Y15748D01*
Y15582D01*
X67123Y15415D01*
X66790D01*
X66624Y15582D01*
X67290Y12875D02*
X66624D01*
X67290Y13542D01*
Y13708D01*
X67123Y13875D01*
X66790D01*
X66624Y13708D01*
X66957Y10335D02*
X67290D01*
X67123D01*
Y11335D01*
X66957Y11168D01*
X66624Y8628D02*
X66790Y8795D01*
X67123D01*
X67290Y8628D01*
Y7962D01*
X67123Y7795D01*
X66790D01*
X66624Y7962D01*
Y8628D01*
X57418Y46728D02*
X57251Y46895D01*
X56918D01*
X56751Y46728D01*
Y46562D01*
X56918Y46395D01*
X57251D01*
X57418Y46228D01*
Y46062D01*
X57251Y45895D01*
X56918D01*
X56751Y46062D01*
X57751Y46895D02*
Y45895D01*
X58251D01*
X58417Y46062D01*
Y46728D01*
X58251Y46895D01*
X57751D01*
X58750Y45895D02*
Y46562D01*
X59084Y46895D01*
X59417Y46562D01*
Y45895D01*
Y46395D01*
X58750D01*
X57418Y49268D02*
X57251Y49435D01*
X56918D01*
X56751Y49268D01*
Y49102D01*
X56918Y48935D01*
X57251D01*
X57418Y48768D01*
Y48602D01*
X57251Y48435D01*
X56918D01*
X56751Y48602D01*
X58417Y49268D02*
X58251Y49435D01*
X57917D01*
X57751Y49268D01*
Y48602D01*
X57917Y48435D01*
X58251D01*
X58417Y48602D01*
X58750Y49435D02*
Y48435D01*
X59417D01*
X22960Y43355D02*
Y44355D01*
X23626Y43355D01*
Y44355D01*
X23960Y43355D02*
X24626Y44021D01*
X24959Y43355D02*
Y44021D01*
X25293Y44355D01*
X25626Y44021D01*
Y43355D01*
Y43855D01*
X24959D01*
X22960Y41815D02*
X23293D01*
X23127D01*
Y40815D01*
X22960D01*
X23293D01*
X24293Y41815D02*
X23960D01*
X23793Y41648D01*
Y40982D01*
X23960Y40815D01*
X24293D01*
X24460Y40982D01*
Y41648D01*
X24293Y41815D01*
X24793Y40815D02*
Y41815D01*
X25293D01*
X25459Y41648D01*
Y41315D01*
X25293Y41148D01*
X24793D01*
X25126D02*
X25459Y40815D01*
X26459Y41815D02*
X25792D01*
Y40815D01*
X26459D01*
X25792Y41315D02*
X26126D01*
X27459Y41815D02*
X26792D01*
Y41315D01*
X27125D01*
X26792D01*
Y40815D01*
X22960Y38275D02*
Y39275D01*
X23460D01*
X23626Y39108D01*
Y38775D01*
X23460Y38608D01*
X22960D01*
X23293D02*
X23626Y38275D01*
X24626Y39275D02*
X23960D01*
Y38275D01*
X24626D01*
X23960Y38775D02*
X24293D01*
X25626Y39108D02*
X25459Y39275D01*
X25126D01*
X24959Y39108D01*
Y38941D01*
X25126Y38775D01*
X25459D01*
X25626Y38608D01*
Y38442D01*
X25459Y38275D01*
X25126D01*
X24959Y38442D01*
X26625Y39275D02*
X25959D01*
Y38275D01*
X26625D01*
X25959Y38775D02*
X26292D01*
X26959Y39275D02*
X27625D01*
X27292D01*
Y38275D01*
X22960Y36568D02*
X23127Y36735D01*
X23460D01*
X23626Y36568D01*
Y36401D01*
X23460Y36235D01*
X23293D01*
X23460D01*
X23626Y36068D01*
Y35902D01*
X23460Y35735D01*
X23127D01*
X22960Y35902D01*
X23960Y35735D02*
Y35902D01*
X24126D01*
Y35735D01*
X23960D01*
X24793Y36568D02*
X24959Y36735D01*
X25293D01*
X25459Y36568D01*
Y36401D01*
X25293Y36235D01*
X25126D01*
X25293D01*
X25459Y36068D01*
Y35902D01*
X25293Y35735D01*
X24959D01*
X24793Y35902D01*
X25792Y36735D02*
Y36068D01*
X26126Y35735D01*
X26459Y36068D01*
Y36735D01*
X23626Y34195D02*
X22960D01*
Y33695D01*
X23293Y33861D01*
X23460D01*
X23626Y33695D01*
Y33362D01*
X23460Y33195D01*
X23127D01*
X22960Y33362D01*
X23960Y34195D02*
Y33528D01*
X24293Y33195D01*
X24626Y33528D01*
Y34195D01*
X22960Y26575D02*
Y25908D01*
X23293Y25575D01*
X23626Y25908D01*
Y26575D01*
X23960D02*
X24293D01*
X24126D01*
Y25575D01*
X23960D01*
X24293D01*
X24793D02*
Y26575D01*
X25459Y25575D01*
Y26575D01*
X22960Y20495D02*
Y21161D01*
X23293Y21495D01*
X23626Y21161D01*
Y20495D01*
Y20995D01*
X22960D01*
X23960Y21328D02*
X24126Y21495D01*
X24460D01*
X24626Y21328D01*
Y20662D01*
X24460Y20495D01*
X24126D01*
X23960Y20662D01*
Y21328D01*
X22960Y17955D02*
Y18621D01*
X23293Y18955D01*
X23626Y18621D01*
Y17955D01*
Y18455D01*
X22960D01*
X23960Y17955D02*
X24293D01*
X24126D01*
Y18955D01*
X23960Y18788D01*
X22960Y15415D02*
Y16081D01*
X23293Y16415D01*
X23626Y16081D01*
Y15415D01*
Y15915D01*
X22960D01*
X24626Y15415D02*
X23960D01*
X24626Y16081D01*
Y16248D01*
X24460Y16415D01*
X24126D01*
X23960Y16248D01*
X22960Y12875D02*
Y13541D01*
X23293Y13875D01*
X23626Y13541D01*
Y12875D01*
Y13375D01*
X22960D01*
X23960Y13708D02*
X24126Y13875D01*
X24460D01*
X24626Y13708D01*
Y13541D01*
X24460Y13375D01*
X24293D01*
X24460D01*
X24626Y13208D01*
Y13042D01*
X24460Y12875D01*
X24126D01*
X23960Y13042D01*
X22960Y10335D02*
Y11001D01*
X23293Y11335D01*
X23626Y11001D01*
Y10335D01*
Y10835D01*
X22960D01*
X24460Y10335D02*
Y11335D01*
X23960Y10835D01*
X24626D01*
X22960Y7795D02*
Y8461D01*
X23293Y8795D01*
X23626Y8461D01*
Y7795D01*
Y8295D01*
X22960D01*
X24626Y8795D02*
X23960D01*
Y8295D01*
X24293Y8461D01*
X24460D01*
X24626Y8295D01*
Y7962D01*
X24460Y7795D01*
X24126D01*
X23960Y7962D01*
X24696Y30158D02*
X24530Y30325D01*
X24197D01*
X24030Y30158D01*
Y29492D01*
X24197Y29325D01*
X24530D01*
X24696Y29492D01*
Y29825D01*
X24363D01*
X25030Y29325D02*
Y30325D01*
X25696Y29325D01*
Y30325D01*
X26029D02*
Y29325D01*
X26529D01*
X26696Y29492D01*
Y30158D01*
X26529Y30325D01*
X26029D01*
X43908Y57128D02*
X43742Y57295D01*
X43408D01*
X43242Y57128D01*
Y56462D01*
X43408Y56295D01*
X43742D01*
X43908Y56462D01*
Y56795D01*
X43575D01*
X44241Y56295D02*
Y57295D01*
X44908Y56295D01*
Y57295D01*
X45241D02*
Y56295D01*
X45741D01*
X45908Y56462D01*
Y57128D01*
X45741Y57295D01*
X45241D01*
X47240Y56962D02*
X47407D01*
Y56795D01*
X47240D01*
Y56962D01*
Y56462D02*
X47407D01*
Y56295D01*
X47240D01*
Y56462D01*
X48740Y57295D02*
X48407Y57128D01*
X48074Y56795D01*
Y56462D01*
X48240Y56295D01*
X48573D01*
X48740Y56462D01*
Y56628D01*
X48573Y56795D01*
X48074D01*
X52346Y57295D02*
X51680D01*
Y56795D01*
X52013Y56962D01*
X52180D01*
X52346Y56795D01*
Y56462D01*
X52180Y56295D01*
X51847D01*
X51680Y56462D01*
X52680Y56962D02*
X52846D01*
Y56795D01*
X52680D01*
Y56962D01*
Y56462D02*
X52846D01*
Y56295D01*
X52680D01*
Y56462D01*
X54512Y56295D02*
Y57295D01*
X55012D01*
X55179Y57128D01*
Y56795D01*
X55012Y56628D01*
X54512D01*
X54846D02*
X55179Y56295D01*
X56179Y57295D02*
X55512D01*
Y56295D01*
X56179D01*
X55512Y56795D02*
X55845D01*
X57178Y57128D02*
X57012Y57295D01*
X56678D01*
X56512Y57128D01*
Y56962D01*
X56678Y56795D01*
X57012D01*
X57178Y56628D01*
Y56462D01*
X57012Y56295D01*
X56678D01*
X56512Y56462D01*
X58178Y57295D02*
X57511D01*
Y56295D01*
X58178D01*
X57511Y56795D02*
X57845D01*
X58511Y57295D02*
X59178D01*
X58844D01*
Y56295D01*
X42409Y53755D02*
Y54755D01*
X42742Y54422D01*
X43075Y54755D01*
Y53755D01*
X43908Y54755D02*
X43575D01*
X43408Y54588D01*
Y53922D01*
X43575Y53755D01*
X43908D01*
X44075Y53922D01*
Y54588D01*
X43908Y54755D01*
X45075Y54588D02*
X44908Y54755D01*
X44575D01*
X44408Y54588D01*
Y54422D01*
X44575Y54255D01*
X44908D01*
X45075Y54088D01*
Y53922D01*
X44908Y53755D01*
X44575D01*
X44408Y53922D01*
X45408Y54755D02*
X45741D01*
X45574D01*
Y53755D01*
X45408D01*
X45741D01*
X47240Y54422D02*
X47407D01*
Y54255D01*
X47240D01*
Y54422D01*
Y53922D02*
X47407D01*
Y53755D01*
X47240D01*
Y53922D01*
X48573Y53755D02*
Y54755D01*
X48074Y54255D01*
X48740D01*
X51680Y54588D02*
X51847Y54755D01*
X52180D01*
X52346Y54588D01*
Y54422D01*
X52180Y54255D01*
X52013D01*
X52180D01*
X52346Y54088D01*
Y53922D01*
X52180Y53755D01*
X51847D01*
X51680Y53922D01*
X52680Y54422D02*
X52846D01*
Y54255D01*
X52680D01*
Y54422D01*
Y53922D02*
X52846D01*
Y53755D01*
X52680D01*
Y53922D01*
X55179Y54588D02*
X55012Y54755D01*
X54679D01*
X54512Y54588D01*
Y54422D01*
X54679Y54255D01*
X55012D01*
X55179Y54088D01*
Y53922D01*
X55012Y53755D01*
X54679D01*
X54512Y53922D01*
X56179Y54588D02*
X56012Y54755D01*
X55679D01*
X55512Y54588D01*
Y53922D01*
X55679Y53755D01*
X56012D01*
X56179Y53922D01*
X56512Y54755D02*
Y53755D01*
Y54088D01*
X57178Y54755D01*
X56678Y54255D01*
X57178Y53755D01*
X44908Y52215D02*
X44241D01*
Y51715D01*
X44575Y51882D01*
X44741D01*
X44908Y51715D01*
Y51382D01*
X44741Y51215D01*
X44408D01*
X44241Y51382D01*
X45241Y52215D02*
Y51548D01*
X45574Y51215D01*
X45908Y51548D01*
Y52215D01*
X47240Y51882D02*
X47407D01*
Y51715D01*
X47240D01*
Y51882D01*
Y51382D02*
X47407D01*
Y51215D01*
X47240D01*
Y51382D01*
X48740Y51215D02*
X48074D01*
X48740Y51882D01*
Y52048D01*
X48573Y52215D01*
X48240D01*
X48074Y52048D01*
X51680Y51215D02*
X52013D01*
X51847D01*
Y52215D01*
X51680Y52048D01*
X52513Y51882D02*
X52680D01*
Y51715D01*
X52513D01*
Y51882D01*
Y51382D02*
X52680D01*
Y51215D01*
X52513D01*
Y51382D01*
X54346Y51215D02*
Y52215D01*
X54679Y51882D01*
X55012Y52215D01*
Y51215D01*
X55345Y52215D02*
X55679D01*
X55512D01*
Y51215D01*
X55345D01*
X55679D01*
X56845Y52048D02*
X56678Y52215D01*
X56345D01*
X56179Y52048D01*
Y51882D01*
X56345Y51715D01*
X56678D01*
X56845Y51548D01*
Y51382D01*
X56678Y51215D01*
X56345D01*
X56179Y51382D01*
X57678Y52215D02*
X57345D01*
X57178Y52048D01*
Y51382D01*
X57345Y51215D01*
X57678D01*
X57845Y51382D01*
Y52048D01*
X57678Y52215D01*
X66624Y30218D02*
X66790Y30385D01*
X67123D01*
X67290Y30218D01*
Y30052D01*
X67123Y29885D01*
X67290Y29718D01*
Y29552D01*
X67123Y29385D01*
X66790D01*
X66624Y29552D01*
Y29718D01*
X66790Y29885D01*
X66624Y30052D01*
Y30218D01*
X66790Y29885D02*
X67123D01*
X66624Y32092D02*
X66790Y31925D01*
X67123D01*
X67290Y32092D01*
Y32758D01*
X67123Y32925D01*
X66790D01*
X66624Y32758D01*
Y32592D01*
X66790Y32425D01*
X67290D01*
X65790Y34465D02*
X66124D01*
X65957D01*
Y35465D01*
X65790Y35298D01*
X66624D02*
X66790Y35465D01*
X67123D01*
X67290Y35298D01*
Y34632D01*
X67123Y34465D01*
X66790D01*
X66624Y34632D01*
Y35298D01*
X66124Y37005D02*
X66457D01*
X66290D01*
Y38005D01*
X66124Y37838D01*
X66957Y37005D02*
X67290D01*
X67123D01*
Y38005D01*
X66957Y37838D01*
X65790Y39545D02*
X66124D01*
X65957D01*
Y40545D01*
X65790Y40378D01*
X67290Y39545D02*
X66624D01*
X67290Y40212D01*
Y40378D01*
X67123Y40545D01*
X66790D01*
X66624Y40378D01*
X65790Y42212D02*
X66124D01*
X65957D01*
Y43212D01*
X65790Y43045D01*
X66624D02*
X66790Y43212D01*
X67123D01*
X67290Y43045D01*
Y42879D01*
X67123Y42712D01*
X66957D01*
X67123D01*
X67290Y42545D01*
Y42379D01*
X67123Y42212D01*
X66790D01*
X66624Y42379D01*
X65291Y45458D02*
X65124Y45625D01*
X64791D01*
X64624Y45458D01*
Y44792D01*
X64791Y44625D01*
X65124D01*
X65291Y44792D01*
Y45125D01*
X64957D01*
X65624Y44625D02*
Y45625D01*
X66290Y44625D01*
Y45625D01*
X66624D02*
Y44625D01*
X67123D01*
X67290Y44792D01*
Y45458D01*
X67123Y45625D01*
X66624D01*
X63625Y47165D02*
Y47832D01*
X63958Y48165D01*
X64291Y47832D01*
Y47165D01*
Y47665D01*
X63625D01*
X64624Y47165D02*
Y48165D01*
X65124D01*
X65291Y47998D01*
Y47665D01*
X65124Y47498D01*
X64624D01*
X64957D02*
X65291Y47165D01*
X66290Y48165D02*
X65624D01*
Y47165D01*
X66290D01*
X65624Y47665D02*
X65957D01*
X67290Y48165D02*
X66624D01*
Y47665D01*
X66957D01*
X66624D01*
Y47165D01*
D33*
X70376Y5755D02*
X71790Y7279D01*
X63800Y71795D02*
X71790D01*
X63800D02*
Y77795D01*
X51800D02*
X63800D01*
X30460Y71795D02*
Y73795D01*
X21460D02*
X30460D01*
X21460Y71795D02*
Y73795D01*
X71790Y7279D02*
Y71795D01*
X57576Y5755D02*
X70376D01*
X19730D02*
X22270Y3215D01*
X18460Y5755D02*
Y71795D01*
Y5755D02*
X19730D01*
X22270Y3215D02*
X55036D01*
X57576Y5755D01*
X18460Y71795D02*
X21460D01*
X30460D02*
X51800D01*
Y77795D01*
D34*
X78075Y62905D02*
X87295D01*
X78075Y4485D02*
X87295D01*
Y62905D01*
X78075Y4485D02*
Y62905D01*
D35*
X4900Y55245D02*
Y65745D01*
X12500D01*
Y55245D02*
Y65745D01*
X4900Y55245D02*
X12500D01*
X4900Y69245D02*
Y79745D01*
X12500D01*
Y69245D02*
Y79745D01*
X4900Y69245D02*
X12500D01*
X4900Y41245D02*
Y51745D01*
X12500D01*
Y41245D02*
Y51745D01*
X4900Y41245D02*
X12500D01*
X4900Y27245D02*
Y37745D01*
X12500D01*
Y27245D02*
Y37745D01*
X4900Y27245D02*
X12500D01*
%TF.MD5,4bab00fa5cebc327474acd64c39ec3ac*%
M02*
