%TF.GenerationSoftware,Altium Limited,Altium Designer,21.8.1 (53)*%
G04 Layer_Color=16711935*
%FSLAX43Y43*%
%MOMM*%
%TF.SameCoordinates,E96829AD-C41B-4C4D-B55E-E99DFAFB1E42*%
%TF.FilePolarity,Positive*%
%TF.FileFunction,Other,Mechanical_13*%
%TF.Part,Single*%
G01*
G75*
%TA.AperFunction,NonConductor*%
%ADD11C,0.254*%
%ADD32C,0.200*%
%ADD34C,0.127*%
D11*
X79690Y69343D02*
Y75333D01*
X85680D01*
Y69343D02*
Y75333D01*
X79690Y69343D02*
X85680D01*
D32*
X81350Y63555D02*
G03*
X81350Y63555I-100J0D01*
G01*
X4900Y55245D02*
Y65745D01*
X12500D01*
Y55245D02*
Y65745D01*
X4900Y55245D02*
X12500D01*
X4900Y69245D02*
Y79745D01*
X12500D01*
Y69245D02*
Y79745D01*
X4900Y69245D02*
X12500D01*
X4900Y41245D02*
Y51745D01*
X12500D01*
Y41245D02*
Y51745D01*
X4900Y41245D02*
X12500D01*
X4900Y27245D02*
Y37745D01*
X12500D01*
Y27245D02*
Y37745D01*
X4900Y27245D02*
X12500D01*
D34*
X78075Y62905D02*
X87295D01*
Y4485D02*
Y62905D01*
X78075Y4485D02*
X87295D01*
X78075D02*
Y62905D01*
X87295D01*
Y4485D02*
Y62905D01*
X78075Y4485D02*
X87295D01*
%TF.MD5,62da48707432c23b0b8a6f1689d94150*%
M02*
