%TF.GenerationSoftware,Altium Limited,Altium Designer,21.8.1 (53)*%
G04 Layer_Physical_Order=1*
G04 Layer_Color=255*
%FSLAX43Y43*%
%MOMM*%
%TF.SameCoordinates,E96829AD-C41B-4C4D-B55E-E99DFAFB1E42*%
%TF.FilePolarity,Positive*%
%TF.FileFunction,Copper,L1,Top,Signal*%
%TF.Part,Single*%
G01*
G75*
%TA.AperFunction,NonConductor*%
%ADD10C,0.203*%
%ADD11C,0.254*%
%TA.AperFunction,Conductor*%
%ADD12C,0.400*%
%ADD13C,0.800*%
%TA.AperFunction,ComponentPad*%
%ADD14C,1.524*%
%ADD15C,1.800*%
%ADD16O,14.000X1.524*%
%ADD17R,1.800X1.800*%
%ADD18R,1.370X1.370*%
%ADD19C,1.370*%
%TA.AperFunction,ViaPad*%
%ADD20C,5.500*%
%TA.AperFunction,ComponentPad*%
%ADD21C,1.950*%
%TA.AperFunction,ViaPad*%
%ADD22C,1.270*%
D10*
X71616Y56555D02*
G03*
X69260Y58911I-2356J0D01*
G01*
X70655Y54657D02*
G03*
X71616Y56555I-1395J1898D01*
G01*
X69260Y58911D02*
G03*
X67126Y57552I0J-2356D01*
G01*
X66995Y55907D02*
G03*
X67865Y54657I2265J648D01*
G01*
X65146Y43195D02*
G03*
X63290Y45051I-1856J0D01*
G01*
Y41339D02*
G03*
X65146Y43195I0J1856D01*
G01*
X51290Y45051D02*
G03*
X49434Y43195I0J-1856D01*
G01*
D02*
G03*
X51290Y41339I1856J0D01*
G01*
X23356Y57825D02*
G03*
X21000Y60181I-2356J0D01*
G01*
D02*
G03*
X18644Y57825I0J-2356D01*
G01*
D02*
G03*
X21000Y55469I2356J0D01*
G01*
D02*
G03*
X23356Y57825I0J2356D01*
G01*
X54020Y8151D02*
G03*
X51664Y5795I0J-2356D01*
G01*
X56376D02*
G03*
X54020Y8151I-2356J0D01*
G01*
Y3439D02*
G03*
X56376Y5795I0J2356D01*
G01*
X51664D02*
G03*
X54020Y3439I2356J0D01*
G01*
X26080D02*
G03*
X28436Y5795I0J2356D01*
G01*
D02*
G03*
X26080Y8151I-2356J0D01*
G01*
X23724Y5795D02*
G03*
X26080Y3439I2356J0D01*
G01*
Y8151D02*
G03*
X23724Y5795I0J-2356D01*
G01*
X96106Y87485D02*
X96517Y87896D01*
X96106Y87300D02*
X96517Y86888D01*
X96043Y89517D02*
X96517Y89043D01*
X95781Y87878D02*
X96517Y88615D01*
X96106Y86581D02*
X96517Y86169D01*
X96106Y86048D02*
X96517Y86460D01*
X96106Y84447D02*
Y87553D01*
Y86766D02*
X96517Y87178D01*
X94606Y89517D02*
X96517Y87606D01*
X95421Y88237D02*
X96517Y89333D01*
X95062Y88596D02*
X95983Y89517D01*
X95325D02*
X96517Y88325D01*
X84548Y89517D02*
X96517Y77548D01*
X83830Y89517D02*
X96517Y76830D01*
X94553Y89106D02*
X96106Y87553D01*
X94300Y89106D02*
X96106Y87300D01*
Y85144D02*
X96517Y84733D01*
X96106Y84611D02*
X96517Y85023D01*
X96106Y85863D02*
X96517Y85451D01*
X96106Y85329D02*
X96517Y85741D01*
X95377Y83718D02*
X96517Y82577D01*
X95017Y83359D02*
X96517Y81859D01*
X96095Y84437D02*
X96517Y84014D01*
X95736Y84077D02*
X96517Y83296D01*
X94553Y82894D02*
X96106Y84447D01*
X94658Y83000D02*
X96517Y81140D01*
X94389Y82894D02*
X96106Y84611D01*
X92608Y82894D02*
X96517Y78985D01*
X91890Y82894D02*
X96517Y78267D01*
X94045Y82894D02*
X96517Y80422D01*
X93327Y82894D02*
X96517Y79704D01*
X92451Y89517D02*
X92863Y89106D01*
X92698D02*
X93110Y89517D01*
X91732D02*
X92144Y89106D01*
X91979D02*
X92391Y89517D01*
X93416Y89106D02*
X93828Y89517D01*
X93888D02*
X94300Y89106D01*
X91014Y89517D02*
X91437Y89095D01*
X93169Y89517D02*
X93581Y89106D01*
X89577Y89517D02*
X90718Y88377D01*
X90296Y89517D02*
X91077Y88736D01*
X88140Y89517D02*
X90000Y87658D01*
X88859Y89517D02*
X90359Y88017D01*
X85985Y89517D02*
X89894Y85608D01*
X85267Y89517D02*
X89894Y84890D01*
X87422Y89517D02*
X89894Y87045D01*
X86704Y89517D02*
X89894Y86327D01*
X94703Y88956D02*
X95265Y89517D01*
X91447Y89106D02*
X94553D01*
X94135D02*
X94546Y89517D01*
X91447Y82894D02*
X94553D01*
X89894Y84447D02*
X91447Y82894D01*
X89894Y87553D02*
X91447Y89106D01*
X84746Y76844D02*
X91122Y83219D01*
X89894Y84447D02*
Y87553D01*
X84307Y76844D02*
X85563D01*
X85465D02*
X91515Y82894D01*
X85873Y76533D02*
X92234Y82894D01*
X83679Y76216D02*
X84307Y76844D01*
X85563D02*
X86191Y76216D01*
X86146Y64593D02*
X96517Y74965D01*
X86182Y74952D02*
X96517Y64617D01*
X85856Y70051D02*
X96517Y80712D01*
X86191Y75662D02*
X96517Y65335D01*
X87224Y63516D02*
X96517Y72810D01*
X87583Y63157D02*
X96517Y72091D01*
X86505Y64234D02*
X96517Y74246D01*
X86864Y63875D02*
X96517Y73528D01*
X85430Y70344D02*
X96517Y81431D01*
X85428Y65312D02*
X96517Y76402D01*
X83111Y89517D02*
X96517Y76111D01*
X84712Y70344D02*
X96517Y82149D01*
X85365Y74332D02*
X96517Y63180D01*
X84646Y74332D02*
X96517Y62461D01*
X85787Y64953D02*
X96517Y75683D01*
X85823Y74593D02*
X96517Y63898D01*
X88474Y59737D02*
X96517Y67781D01*
X88474Y59019D02*
X96517Y67062D01*
X88474Y61174D02*
X96517Y69217D01*
X88474Y60455D02*
X96517Y68499D01*
X88474Y56863D02*
X96517Y64907D01*
X88474Y56145D02*
X96517Y64188D01*
X88474Y58300D02*
X96517Y66344D01*
X88474Y57582D02*
X96517Y65625D01*
X88474Y61892D02*
X96517Y69936D01*
X86191Y69196D02*
X96517Y58869D01*
X87942Y62797D02*
X96517Y71373D01*
X88301Y62438D02*
X96517Y70654D01*
X85399Y67832D02*
X96517Y56714D01*
X84681Y67832D02*
X96517Y55996D01*
X86191Y68478D02*
X96517Y58151D01*
X85840Y68110D02*
X96517Y57432D01*
X86191Y76133D02*
X92952Y82894D01*
X86191Y75414D02*
X93671Y82894D01*
X86191Y74960D02*
Y76216D01*
Y68948D02*
X96517Y79275D01*
X84923Y65526D02*
X96517Y77120D01*
X86191Y69667D02*
X96517Y79994D01*
X85563Y74332D02*
X86191Y74960D01*
X83679D02*
Y76216D01*
X83486Y65526D02*
X96517Y78557D01*
X84205Y65526D02*
X96517Y77838D01*
X83679Y74960D02*
X84307Y74332D01*
X85563D01*
X86191Y68460D02*
Y69716D01*
X85563Y67832D02*
X86191Y68460D01*
X85563Y70344D02*
X86191Y69716D01*
X84458Y65526D02*
X85214D01*
X85592Y65148D02*
X88096Y62643D01*
X84458Y64014D02*
X85608Y62865D01*
X85214Y65526D02*
X85592Y65148D01*
X85214Y65526D02*
X85592Y65148D01*
X84307Y70344D02*
X85563D01*
X83679Y68460D02*
X84307Y67832D01*
X83679Y69716D02*
X84307Y70344D01*
X83679Y68460D02*
Y69716D01*
X84307Y67832D02*
X85563D01*
X84458Y65526D02*
X85214D01*
X82768D02*
X85075Y67832D01*
X81675Y89517D02*
X96517Y74675D01*
X80956Y89517D02*
X96517Y73956D01*
X82393Y89517D02*
X96517Y75393D01*
X80436Y76844D02*
X89894Y86302D01*
X78801Y89517D02*
X96517Y71801D01*
X78082Y89517D02*
X96517Y71082D01*
X80238Y89517D02*
X96517Y73238D01*
X79519Y89517D02*
X96517Y72519D01*
X71617Y89517D02*
X84299Y76835D01*
X72335Y89517D02*
X85009Y76844D01*
X70180Y89517D02*
X83679Y76018D01*
X70898Y89517D02*
X83940Y76476D01*
X76646Y89517D02*
X96517Y69646D01*
X75927Y89517D02*
X96517Y68927D01*
X69461Y89517D02*
X83679Y75299D01*
X77364Y89517D02*
X96517Y70364D01*
X81691Y75943D02*
X90044Y84297D01*
X81691Y75225D02*
X90404Y83938D01*
X81108Y76798D02*
X89894Y85584D01*
X81468Y76439D02*
X89894Y84865D01*
X81691Y69477D02*
X96517Y84304D01*
X81691Y68759D02*
X96517Y83586D01*
X81451Y69956D02*
X94389Y82894D01*
X81091Y70315D02*
X85109Y74332D01*
X80401Y70344D02*
X84390Y74332D01*
X81054D02*
X85043Y70344D01*
X80336Y74332D02*
X84325Y70344D01*
X79965Y73985D02*
X83957Y69993D01*
X76194Y69009D02*
X90763Y83579D01*
X79247Y73266D02*
X83679Y68834D01*
X79606Y73626D02*
X83679Y69552D01*
X81063Y70344D02*
X81691Y69716D01*
X68025Y89517D02*
X80698Y76844D01*
X79807D02*
X81063D01*
X66588Y89517D02*
X79534Y76571D01*
X67306Y89517D02*
X79980Y76844D01*
X65151Y89517D02*
X79179Y75489D01*
Y76216D02*
X79807Y76844D01*
X64433Y89517D02*
X78832Y75118D01*
X65869Y89517D02*
X79179Y76207D01*
X62996Y89517D02*
X78113Y74400D01*
X63714Y89517D02*
X78473Y74759D01*
X61559Y89517D02*
X77395Y73681D01*
X62277Y89517D02*
X77754Y74041D01*
X60122Y89517D02*
X76676Y72963D01*
X60840Y89517D02*
X77036Y73322D01*
X58685Y89517D02*
X75958Y72244D01*
X59404Y89517D02*
X76317Y72604D01*
X81063Y76844D02*
X81691Y76216D01*
Y74960D02*
Y76216D01*
X79179Y75466D02*
Y76216D01*
X80313Y74332D02*
X81063D01*
X81691Y74960D01*
X79807Y70344D02*
X81063D01*
X79179Y69716D02*
X79807Y70344D01*
X79179Y68460D02*
Y69716D01*
X76194Y70213D02*
X80313Y74332D01*
X78528Y72548D02*
X80733Y70344D01*
X75060Y71347D02*
X79179Y75466D01*
X78169Y72189D02*
X80014Y70344D01*
X76194Y69728D02*
X80798Y74332D01*
X77810Y71829D02*
X79551Y70088D01*
X77451Y71470D02*
X79192Y69729D01*
X77091Y71111D02*
X79179Y69023D01*
X74490Y89517D02*
X96517Y67490D01*
X73054Y89517D02*
X96517Y66054D01*
X65526Y65526D02*
X89517Y89517D01*
X75209D02*
X96517Y68209D01*
X66962Y65526D02*
X90954Y89517D01*
X67681Y65526D02*
X91673Y89517D01*
X65526Y65526D02*
X89517Y89517D01*
X66244Y65526D02*
X90236Y89517D01*
X61215Y65526D02*
X85207Y89517D01*
X61933Y65526D02*
X85925Y89517D01*
X59778Y65526D02*
X83770Y89517D01*
X60497Y65526D02*
X84488Y89517D01*
X64089Y65526D02*
X88081Y89517D01*
X64807Y65526D02*
X88799Y89517D01*
X62652Y65526D02*
X86644Y89517D01*
X63370Y65526D02*
X87362Y89517D01*
X81691Y68667D02*
X84832Y65526D01*
X82049D02*
X84356Y67832D01*
X81435Y68204D02*
X84114Y65526D01*
X81331D02*
X83972Y68167D01*
X81418Y74687D02*
X96517Y59588D01*
X81691Y69386D02*
X96517Y54559D01*
X81691Y75851D02*
X96517Y61025D01*
X81691Y75133D02*
X96517Y60306D01*
X73772Y89517D02*
X96517Y66772D01*
X68399Y65526D02*
X89894Y87021D01*
X76194Y66854D02*
X83990Y74650D01*
X76194Y65526D02*
X84458D01*
X68743Y89517D02*
X96517Y61743D01*
X78888Y72907D02*
X96517Y55277D01*
X79176Y65526D02*
X96517Y82867D01*
X75816Y64014D02*
X84458D01*
X76194Y69854D02*
X80522Y65526D01*
X81691Y68460D02*
Y69716D01*
X76194Y69135D02*
X79803Y65526D01*
X76194Y66136D02*
X79179Y69121D01*
X79894Y65526D02*
X83679Y69311D01*
X80612Y65526D02*
X83679Y68593D01*
X76732Y70752D02*
X81959Y65526D01*
X76373Y70393D02*
X81240Y65526D01*
X76194Y68291D02*
X83679Y75777D01*
X76194Y67573D02*
X83679Y75058D01*
X56905Y65526D02*
X80896Y89517D01*
X57623Y65526D02*
X81615Y89517D01*
X58341Y65526D02*
X82333Y89517D01*
X59060Y65526D02*
X83052Y89517D01*
X69118Y65526D02*
X79179Y75587D01*
X76194Y65526D02*
Y70213D01*
X81063Y67832D02*
X81691Y68460D01*
X79807Y67832D02*
X81063D01*
X79179Y68460D02*
X79807Y67832D01*
X78457Y65526D02*
X80764Y67832D01*
X81076Y67845D02*
X83395Y65526D01*
X80370Y67832D02*
X82677Y65526D01*
X78380Y63294D02*
X79101Y64014D01*
X78441D02*
X79162Y63294D01*
X76194Y68417D02*
X79085Y65526D01*
X76194Y67698D02*
X78366Y65526D01*
X76194Y66980D02*
X77648Y65526D01*
X76194Y66262D02*
X76930Y65526D01*
X77020D02*
X79567Y68072D01*
X77739Y65526D02*
X80046Y67832D01*
X76302Y65526D02*
X79208Y68432D01*
X84188Y64014D02*
X85338Y62865D01*
X85136D02*
X85372Y63101D01*
X83699Y62865D02*
X84653Y63819D01*
X84418Y62865D02*
X85013Y63460D01*
X88474Y55427D02*
X96517Y63470D01*
X88474Y54708D02*
X96517Y62752D01*
X88096Y62643D02*
X88474Y62265D01*
X88096Y62643D02*
X88474Y62265D01*
X82033Y64014D02*
X83182Y62865D01*
X81732D02*
X85608D01*
X81314Y64014D02*
X82464Y62865D01*
X81638Y62959D02*
X82693Y64014D01*
X82981Y62865D02*
X84130Y64014D01*
X83470D02*
X84619Y62865D01*
X82262D02*
X83412Y64014D01*
X82751D02*
X83901Y62865D01*
X88474Y61884D02*
X96517Y53840D01*
X88474Y53756D02*
Y54511D01*
Y61510D01*
Y53756D02*
Y54511D01*
Y59729D02*
X96517Y51685D01*
X88474Y59010D02*
X96517Y50967D01*
X88474Y61165D02*
X96517Y53122D01*
X88474Y60447D02*
X96517Y52404D01*
X88474Y53990D02*
X96517Y62033D01*
X88096Y53378D02*
X88474Y53756D01*
Y61510D02*
Y62265D01*
Y61510D02*
Y62265D01*
X87249Y52046D02*
X96517Y61315D01*
X87249Y51328D02*
X96517Y60596D01*
X88096Y53378D02*
X88474Y53756D01*
X87249Y52531D02*
X88096Y53378D01*
X81254Y63294D02*
X81975Y64014D01*
X80748Y63294D02*
X81304D01*
X80536D02*
X81257Y64014D01*
X80748Y63294D02*
X81304D01*
X80596Y64014D02*
X81745Y62865D01*
X81582Y63016D02*
X81732Y62865D01*
X81304Y63294D02*
X81582Y63016D01*
X81304Y63294D02*
X81582Y63016D01*
X77722Y64014D02*
X78443Y63294D01*
X79099D02*
X79820Y64014D01*
X77004D02*
X77725Y63294D01*
X77662D02*
X78383Y64014D01*
X79817Y63294D02*
X80538Y64014D01*
X79878D02*
X80598Y63294D01*
X79159Y64014D02*
X79880Y63294D01*
X78105Y60500D02*
Y62182D01*
X77480Y55928D02*
X78105Y56552D01*
X77748Y55928D02*
X78105D01*
X77742Y60500D02*
X78105Y60863D01*
X78038Y59388D02*
X78105Y59321D01*
Y50761D02*
Y54816D01*
X77664Y54733D02*
X78105Y54292D01*
Y55928D02*
Y59388D01*
X77748Y54816D02*
X78105D01*
X77023Y60500D02*
X78105Y61581D01*
X77319Y59388D02*
X78105Y58603D01*
X77399Y62182D02*
X78105Y61476D01*
X77192Y55928D02*
X77748D01*
X77342Y50761D02*
X78105Y51523D01*
X77200Y50761D02*
X78105D01*
X77192Y55928D02*
X77748D01*
X77305Y54374D02*
X78105Y53574D01*
X88474Y56855D02*
X96517Y48811D01*
X88474Y56137D02*
X96517Y48093D01*
X88474Y58292D02*
X96517Y50248D01*
X88474Y57573D02*
X96517Y49530D01*
X87249Y41988D02*
X96517Y51257D01*
X87249Y50896D02*
X96517Y41627D01*
X88474Y55418D02*
X96517Y47375D01*
X87249Y51614D02*
X96517Y42346D01*
X87249Y49173D02*
X96517Y58441D01*
X87249Y48454D02*
X96517Y57723D01*
X87249Y50610D02*
X96517Y59878D01*
X87249Y49891D02*
X96517Y59160D01*
X87249Y52332D02*
X96517Y43064D01*
X87249Y42707D02*
X96517Y51975D01*
X87249Y47736D02*
X96517Y57004D01*
X87249Y44862D02*
X96517Y54131D01*
X87249Y37678D02*
X96517Y46946D01*
X87249Y46585D02*
X96517Y37317D01*
X87249Y38396D02*
X96517Y47665D01*
X87249Y47304D02*
X96517Y38035D01*
X87249Y36241D02*
X96517Y45509D01*
X87249Y45148D02*
X96517Y35880D01*
X87249Y36960D02*
X96517Y46228D01*
X87249Y45867D02*
X96517Y36598D01*
X87249Y40552D02*
X96517Y49820D01*
X87249Y49459D02*
X96517Y40190D01*
X87249Y41270D02*
X96517Y50538D01*
X87249Y50177D02*
X96517Y40909D01*
X87249Y39115D02*
X96517Y48383D01*
X87249Y48022D02*
X96517Y38754D01*
X87249Y39833D02*
X96517Y49102D01*
X87249Y48740D02*
X96517Y39472D01*
X87249Y45581D02*
X96517Y54849D01*
X88228Y53509D02*
X96517Y45219D01*
X88474Y54700D02*
X96517Y46656D01*
X88474Y53981D02*
X96517Y45938D01*
X87509Y52791D02*
X96517Y43783D01*
X87249Y43425D02*
X96517Y52694D01*
X87249Y44144D02*
X96517Y53412D01*
X87868Y53150D02*
X96517Y44501D01*
X78105Y48221D02*
Y49649D01*
X77676Y48221D02*
X78105Y48650D01*
X77200Y49649D02*
X78105D01*
X77719D02*
X78105Y49263D01*
X87249Y47017D02*
X96517Y56286D01*
X87249Y46299D02*
X96517Y55567D01*
X77385Y47109D02*
X78105Y46390D01*
Y45681D02*
Y47109D01*
Y43141D02*
Y44569D01*
X77625Y43141D02*
X78105Y43621D01*
X78010Y45681D02*
X78105Y45776D01*
X77770Y44569D02*
X78105Y44234D01*
X77821Y39489D02*
X78105Y39205D01*
Y38061D02*
Y39489D01*
Y40601D02*
Y42029D01*
X77959Y40601D02*
X78105Y40747D01*
X77436Y42029D02*
X78105Y41361D01*
X77240Y40601D02*
X78105Y41466D01*
X77291Y45681D02*
X78105Y46494D01*
X77052Y44569D02*
X78105Y43516D01*
X77574Y38061D02*
X78105Y38592D01*
X77487Y36949D02*
X78105Y36332D01*
X77103Y39489D02*
X78105Y38487D01*
X76944Y63294D02*
X77664Y64014D01*
X76681Y62182D02*
X78105Y60758D01*
X75586Y60500D02*
X77269Y62182D01*
X75962D02*
X77645Y60500D01*
X75883Y59388D02*
X78105Y57166D01*
X75164Y59388D02*
X78105Y56448D01*
X76305Y60500D02*
X77988Y62182D01*
X76601Y59388D02*
X78105Y57884D01*
X62381Y63294D02*
X80748D01*
X67334Y59388D02*
X78105D01*
X62381Y62182D02*
X78105D01*
X67334Y60500D02*
X78105D01*
X73336Y54657D02*
X78067Y59388D01*
X74054Y54657D02*
X78105Y58708D01*
X72617Y54657D02*
X77349Y59388D01*
X74446D02*
X77907Y55928D01*
X76193Y51767D02*
X78105Y53679D01*
X76587Y53655D02*
X78105Y52137D01*
X76755Y53823D02*
X77748Y54816D01*
X76946Y54015D02*
X78105Y52855D01*
X76553Y51408D02*
X78105Y52960D01*
X76912Y51049D02*
X78105Y52242D01*
X76644Y49649D02*
X77200D01*
X76644D02*
X77200D01*
X75491Y54657D02*
X78105Y57271D01*
X75834Y52126D02*
X78105Y54397D01*
X74772Y54657D02*
X78105Y57989D01*
X75475Y52485D02*
X77806Y54816D01*
X75260Y53545D02*
X78045Y50761D01*
X75978Y53545D02*
X78105Y51419D01*
X74541Y53545D02*
X77326Y50761D01*
X74938Y53023D02*
X77200Y50761D01*
X75060Y64014D02*
X75816D01*
X75507Y63294D02*
X76228Y64014D01*
X75060D02*
X75816D01*
X75060D02*
X75816D01*
X76225Y63294D02*
X76946Y64014D01*
X76285D02*
X77006Y63294D01*
X75567Y64014D02*
X76288Y63294D01*
X75244Y62182D02*
X76927Y60500D01*
X74868D02*
X76551Y62182D01*
X73009Y59388D02*
X76831Y55566D01*
X74150Y60500D02*
X75832Y62182D01*
X74525D02*
X76208Y60500D01*
X72290Y59388D02*
X76472Y55207D01*
X71899Y54657D02*
X76631Y59388D01*
X71180Y54657D02*
X75912Y59388D01*
X71572D02*
X76113Y54848D01*
X76914Y55650D02*
X77192Y55928D01*
X76914Y55650D02*
X77192Y55928D01*
X75921Y53545D02*
X76477D01*
X75921D02*
X76477D01*
X76755Y53823D01*
X76477Y53545D02*
X76755Y53823D01*
X76366Y49927D02*
X76644Y49649D01*
X76366Y49927D02*
X76644Y49649D01*
X73727Y59388D02*
X77190Y55926D01*
X75921Y54657D02*
X76914Y55650D01*
X70895Y54657D02*
X75921D01*
X70333Y53545D02*
X75921D01*
X74104Y52189D02*
X76366Y49927D01*
X75874Y49292D02*
X76438Y49856D01*
X75116Y52845D02*
X75816Y53545D01*
X75515Y49652D02*
X76078Y50215D01*
X76957Y48221D02*
X78105Y49368D01*
X76946Y48221D02*
X78105D01*
X76592Y48574D02*
X77668Y49649D01*
X77000D02*
X78105Y48545D01*
X76946Y47109D02*
X78105D01*
X76819Y45681D02*
X78105D01*
X76696Y45804D02*
X78002Y47109D01*
X76667D02*
X78096Y45681D01*
X73742Y52189D02*
X77711Y48221D01*
X76337Y46163D02*
X77283Y47109D01*
X73024Y52189D02*
X76992Y48221D01*
X76233Y48933D02*
X76949Y49649D01*
X76283Y43236D02*
X77617Y44569D01*
X76333D02*
X77762Y43141D01*
X73408Y49649D02*
X77377Y45681D01*
X73075Y47109D02*
X77044Y43141D01*
X76906D02*
X78105Y44339D01*
X76718Y42029D02*
X78105Y40642D01*
X76819Y44569D02*
X78105D01*
X76522Y40601D02*
X77950Y42029D01*
X76855Y38061D02*
X78105Y39310D01*
X76306Y36949D02*
X78105D01*
X76384Y39489D02*
X77813Y38061D01*
X76306D02*
X78105D01*
X76306Y43141D02*
X78105D01*
X76306Y42029D02*
X78105D01*
X76091Y40888D02*
X77232Y42029D01*
X76189Y41840D02*
X77428Y40601D01*
X76306D02*
X78105D01*
X76306Y39489D02*
X78105D01*
X76257Y38181D02*
X77566Y39489D01*
X76022Y39133D02*
X77095Y38061D01*
X76390Y47109D02*
X76946D01*
X76390D02*
X76946D01*
X76112Y47387D02*
X76390Y47109D01*
X76112Y47387D02*
X76390Y47109D01*
X75977Y46522D02*
X76565Y47109D01*
X76263Y44569D02*
X76819D01*
X75985Y44847D02*
X76263Y44569D01*
X75985Y44847D02*
X76263Y44569D01*
X74684Y50483D02*
X76946Y48221D01*
X75618Y46881D02*
X76118Y47381D01*
X73850Y49649D02*
X76112Y47387D01*
X75259Y47240D02*
X75759Y47741D01*
X74557Y47943D02*
X76819Y45681D01*
X75451Y43841D02*
X76222Y44611D01*
X73723Y47109D02*
X75985Y44847D01*
X74733Y43841D02*
X75862Y44970D01*
X76263Y44569D02*
X76819D01*
X75924Y43595D02*
X76898Y44569D01*
X75731Y41247D02*
X76514Y42029D01*
X75829Y41481D02*
X76710Y40601D01*
X75898Y38540D02*
X76847Y39489D01*
X75706Y36193D02*
X76463Y36949D01*
X76306Y38131D02*
X76376Y38061D01*
X75678Y36249D02*
X76306Y36877D01*
X75678Y41329D02*
X76306Y41957D01*
X75678Y41301D02*
X76306Y40673D01*
X75678Y43841D02*
X76306Y43213D01*
X75625Y43841D02*
X76306Y43160D01*
X75678Y38761D02*
X76306Y38133D01*
X75676Y38761D02*
X76306Y38131D01*
X75678Y38789D02*
X76306Y39417D01*
X74682Y70969D02*
X75060Y71347D01*
X74682Y70969D02*
X75060Y71347D01*
X74682Y70213D02*
Y70969D01*
Y70213D02*
Y70969D01*
Y65526D02*
Y70213D01*
X74147Y65526D02*
X74682Y66061D01*
X72710Y65526D02*
X74682Y67498D01*
X73428Y65526D02*
X74682Y66780D01*
X71273Y65526D02*
X74682Y68935D01*
X71991Y65526D02*
X74682Y68217D01*
X69836Y65526D02*
X74682Y70372D01*
X70555Y65526D02*
X74682Y69653D01*
X72633Y63294D02*
X73354Y64014D01*
X72693D02*
X73414Y63294D01*
X71915D02*
X72635Y64014D01*
X71975D02*
X72696Y63294D01*
X74070D02*
X74791Y64014D01*
X74130D02*
X74851Y63294D01*
X73352D02*
X74072Y64014D01*
X73412D02*
X74133Y63294D01*
X74788D02*
X75509Y64014D01*
X74849D02*
X75569Y63294D01*
X73431Y60500D02*
X75114Y62182D01*
X73807D02*
X75490Y60500D01*
X71276D02*
X72959Y62182D01*
X71652D02*
X73335Y60500D01*
X70558D02*
X72240Y62182D01*
X70933D02*
X72616Y60500D01*
X72713D02*
X74396Y62182D01*
X73089D02*
X74771Y60500D01*
X71994D02*
X73677Y62182D01*
X72370D02*
X74053Y60500D01*
X69759Y63294D02*
X70480Y64014D01*
X69820D02*
X70540Y63294D01*
X69041D02*
X69762Y64014D01*
X69101D02*
X69822Y63294D01*
X71196D02*
X71917Y64014D01*
X71257D02*
X71977Y63294D01*
X70478D02*
X71199Y64014D01*
X70538D02*
X71259Y63294D01*
X67604D02*
X68325Y64014D01*
X67664D02*
X68385Y63294D01*
X66886D02*
X67607Y64014D01*
X66946D02*
X67667Y63294D01*
X68323D02*
X69043Y64014D01*
X68383D02*
X69104Y63294D01*
X66965Y60500D02*
X68648Y62182D01*
X67341D02*
X69024Y60500D01*
X69496Y62182D02*
X71179Y60500D01*
X69839D02*
X71522Y62182D01*
X68778D02*
X70461Y60500D01*
X69121D02*
X70803Y62182D01*
X70215D02*
X71898Y60500D01*
X69260Y58911D02*
X70438D01*
X68968D02*
X69446Y59388D01*
X69417D02*
X69895Y58911D01*
X68060Y62182D02*
X69742Y60500D01*
X68402D02*
X70085Y62182D01*
X67684Y60500D02*
X69367Y62182D01*
X66778Y60500D02*
X67334D01*
X68698Y59388D02*
X69176Y58911D01*
X68082D02*
X69260D01*
X67980Y59388D02*
X68458Y58911D01*
X68250D02*
X68728Y59388D01*
X71499Y57849D02*
X73038Y59388D01*
X71616Y57247D02*
X73757Y59388D01*
X71330Y57680D02*
X71499Y57849D01*
X71489Y57316D02*
X71616Y57190D01*
Y56529D02*
X74475Y59388D01*
X71616Y55810D02*
X75194Y59388D01*
X71616Y56555D02*
Y57733D01*
X71535Y57166D02*
X71616Y57247D01*
X70781Y58568D02*
X71602Y59388D01*
X71140Y58208D02*
X72320Y59388D01*
X70405Y58911D02*
X70883Y59388D01*
X71035Y58104D02*
X71140Y58208D01*
X70135Y59388D02*
X74867Y54657D01*
X70854Y59388D02*
X75585Y54657D01*
X70438Y58911D02*
X71616Y57733D01*
Y57190D02*
X74149Y54657D01*
X71444Y55206D02*
X71993Y54657D01*
X71616Y55377D02*
Y56555D01*
X71510Y55858D02*
X71616Y55753D01*
Y56471D02*
X73430Y54657D01*
X72698Y53301D02*
X72943Y53545D01*
X71616Y55753D02*
X72712Y54657D01*
X72386Y53545D02*
X72631Y53301D01*
X71420Y55614D02*
X71616Y55810D01*
X71290Y55360D02*
X71444Y55206D01*
X70983Y54949D02*
X71085Y54847D01*
X70895Y54657D02*
X71616Y55377D01*
X71085Y54847D02*
X71275Y54657D01*
X70655D02*
X70895D01*
X70543Y53301D02*
X70788Y53545D01*
X69687Y58911D02*
X70165Y59388D01*
X69895Y58911D02*
X70021Y58784D01*
X67298Y59352D02*
X67911Y58739D01*
X68458Y58911D02*
X68563Y58805D01*
X70207Y58712D02*
X70405Y58911D01*
X70661Y58448D02*
X70781Y58568D01*
X67911Y58739D02*
X68065Y58585D01*
X67552Y58380D02*
X67654Y58278D01*
X66925Y57753D02*
X68082Y58911D01*
X67009Y57669D02*
X68250Y58911D01*
X66938Y58993D02*
X67552Y58380D01*
X67192Y58021D02*
X67321Y57892D01*
X66925Y57753D02*
X67126Y57552D01*
X66904Y55816D02*
X66995Y55907D01*
X67607Y54675D02*
X67711Y54780D01*
X67256Y54657D02*
X67625D01*
X67247Y55034D02*
X67367Y55154D01*
X67256Y54657D02*
Y54883D01*
X67994Y53373D02*
X68167Y53545D01*
X70333D02*
X70506Y53373D01*
X67625Y54657D02*
X67865D01*
X67357Y53545D02*
X67994Y52908D01*
X66904Y55410D02*
X67103Y55608D01*
X67176Y54963D02*
X67247Y55034D01*
X66904Y55377D02*
Y55816D01*
X66817Y55322D02*
X66904Y55410D01*
Y55435D02*
X67683Y54657D01*
X67174Y53545D02*
X68167D01*
X66904Y55377D02*
X67625Y54657D01*
X65449Y63294D02*
X66170Y64014D01*
X65509D02*
X66230Y63294D01*
X64730D02*
X65451Y64014D01*
X64791D02*
X65512Y63294D01*
X66228Y64014D02*
X66948Y63294D01*
X65904Y62182D02*
X67587Y60500D01*
X66167Y63294D02*
X66888Y64014D01*
X65186Y62182D02*
X66869Y60500D01*
X57248Y89517D02*
X75240Y71526D01*
X57967Y89517D02*
X75599Y71885D01*
X56530Y89517D02*
X74880Y71167D01*
X64072Y64014D02*
X64793Y63294D01*
X64467Y62182D02*
X66464Y60186D01*
X63080Y58051D02*
X67211Y62182D01*
X63031D02*
X65746Y59467D01*
X63749Y62182D02*
X66105Y59826D01*
X66623Y62182D02*
X68306Y60500D01*
X66778D02*
X67334D01*
X66500Y60222D02*
X66778Y60500D01*
X66500Y60222D02*
X66778Y60500D01*
X66556Y58610D02*
X67334Y59388D01*
X66650Y58029D02*
X68009Y59388D01*
X65722Y59444D02*
X66500Y60222D01*
X66556Y58051D02*
Y58610D01*
X65444Y59166D02*
X65722Y59444D01*
X65444Y59166D02*
X65722Y59444D01*
X62347Y62148D02*
X65444Y59050D01*
Y58610D02*
Y59166D01*
X63798Y58051D02*
X67930Y62182D01*
X65444Y58051D02*
Y58610D01*
X61987Y61789D02*
X65444Y58332D01*
Y58610D02*
Y59166D01*
X62575Y63294D02*
X63296Y64014D01*
X62635D02*
X63356Y63294D01*
X61857D02*
X62578Y64014D01*
X61917D02*
X62638Y63294D01*
X63354Y64014D02*
X64075Y63294D01*
X64012D02*
X64733Y64014D01*
X63294Y63294D02*
X64014Y64014D01*
X63294Y63294D02*
X64014Y64014D01*
X61199D02*
X61919Y63294D01*
X61547Y63016D02*
X61825Y63294D01*
X59762Y64014D02*
X61154Y62622D01*
X60480Y64014D02*
X61513Y62982D01*
X58325Y64014D02*
X60435Y61904D01*
X59043Y64014D02*
X60795Y62263D01*
X56888Y64014D02*
X59717Y61185D01*
X57607Y64014D02*
X60076Y61545D01*
X61825Y63294D02*
X62381D01*
X60500Y59063D02*
X63619Y62182D01*
X61547Y63016D02*
X61825Y63294D01*
X62381D01*
X60500Y58344D02*
X64338Y62182D01*
X62832Y58051D02*
X64088D01*
X60910Y60711D02*
X63570Y58051D01*
X60550Y60352D02*
X62852Y58051D01*
X59388Y60825D02*
X61857Y63294D01*
X59666Y61135D02*
X61547Y63016D01*
X59388Y60857D02*
X59666Y61135D01*
X59388Y60857D02*
X59666Y61135D01*
X60500Y60301D02*
X62381Y62182D01*
X60500Y59781D02*
X62901Y62182D01*
X59388Y60301D02*
Y60857D01*
Y60301D02*
Y60857D01*
X66579Y58634D02*
X67192Y58021D01*
X66628Y58051D02*
X66925Y57753D01*
X64661Y57477D02*
X65444Y58260D01*
X64744Y57423D02*
X65372Y58051D01*
X64716Y56187D02*
X65392Y55511D01*
X64744Y56167D02*
X65372Y55539D01*
X64716Y56167D02*
Y57423D01*
X64744Y56167D02*
Y57423D01*
X61628Y61430D02*
X65190Y57868D01*
X64302Y57836D02*
X65444Y58979D01*
X60500Y57626D02*
X65056Y62182D01*
X61269Y61070D02*
X64830Y57509D01*
X60500Y56907D02*
X65775Y62182D01*
X60500Y56189D02*
X66493Y62182D01*
X64088Y58051D02*
X64716Y57423D01*
X64088Y55539D02*
X64716Y56167D01*
X66628Y55539D02*
X66904Y55816D01*
X66714Y55625D02*
X66904Y55435D01*
X65372Y55539D02*
X66628D01*
X65372Y55511D02*
X66628D01*
X67256Y54883D01*
X64744Y53627D02*
X65372Y52999D01*
X64744Y54883D02*
X65372Y55511D01*
X64744Y53627D02*
Y54883D01*
X64110Y55489D02*
X64766Y56145D01*
X64366Y55818D02*
X65023Y55161D01*
X62832Y55539D02*
X64088D01*
X62832Y55511D02*
X64088D01*
X64469Y55129D02*
X65126Y55786D01*
X64088Y52999D02*
X64716Y53627D01*
X64088Y55511D02*
X64716Y54883D01*
Y53627D02*
Y54883D01*
X62204Y57423D02*
X62832Y58051D01*
X62204Y56167D02*
X62832Y55539D01*
X62204Y56167D02*
Y57423D01*
X60653Y55624D02*
X62204Y57175D01*
X60500Y56811D02*
X62316Y54994D01*
X61371Y54905D02*
X62419Y55953D01*
X61012Y55265D02*
X62204Y56457D01*
X60500Y56092D02*
X61781Y54811D01*
X60500Y59685D02*
X62483Y57701D01*
X60500Y58248D02*
X62204Y56543D01*
X59388Y55777D02*
Y60301D01*
X60500Y58966D02*
X62204Y57261D01*
X60500Y55777D02*
Y60301D01*
Y57529D02*
X62675Y55354D01*
X59388Y55221D02*
Y55777D01*
Y55221D02*
Y55777D01*
X61995Y54811D02*
X62778Y55594D01*
X62204Y54883D02*
X62832Y55511D01*
X61466Y54811D02*
X62204D01*
X60910Y53699D02*
X61466D01*
X62204Y53669D02*
X62874Y52999D01*
X62204Y53627D02*
X62832Y52999D01*
X61466Y53699D02*
X62204D01*
X61456D02*
X62508Y52647D01*
X60500Y55777D02*
X61466Y54811D01*
X59666Y54943D02*
X60632Y53977D01*
X59388Y55221D02*
X59666Y54943D01*
X59388Y55221D02*
X59666Y54943D01*
X60632Y53977D02*
X60910Y53699D01*
X61466D01*
X60632Y53977D02*
X60910Y53699D01*
X74757Y53204D02*
X75098Y53545D01*
X74104Y53301D02*
X74660D01*
X74135D02*
X74380Y53545D01*
X74104Y53301D02*
X74660D01*
X74437Y50729D02*
X75001Y51293D01*
X74796Y50370D02*
X75360Y50934D01*
X74660Y53301D02*
X74938Y53023D01*
X74660Y53301D02*
X74938Y53023D01*
X70506Y53301D02*
X74104D01*
X70506Y52189D02*
X74104D01*
X73823Y53545D02*
X74068Y53301D01*
X70506Y50761D02*
X73850D01*
X73032D02*
X74282Y52011D01*
X73750Y50761D02*
X74642Y51652D01*
X72305Y52189D02*
X73734Y50761D01*
X72313D02*
X73742Y52189D01*
X74406Y50761D02*
X74684Y50483D01*
X75156Y50011D02*
X75719Y50574D01*
X74406Y50761D02*
X74684Y50483D01*
X74084Y48221D02*
X74681Y48818D01*
X74540Y47959D02*
X75041Y48459D01*
X74900Y47600D02*
X75400Y48100D01*
X74279Y48221D02*
X74557Y47943D01*
X74279Y48221D02*
X74557Y47943D01*
X73850Y50761D02*
X74406D01*
X73850D02*
X74406D01*
X70506Y49649D02*
X73850D01*
X72647Y48221D02*
X73963Y49537D01*
X73365Y48221D02*
X74322Y49177D01*
X73723Y48221D02*
X74279D01*
X72690Y49649D02*
X74119Y48221D01*
X73723D02*
X74279D01*
X71668Y53545D02*
X71912Y53301D01*
X71980D02*
X72224Y53545D01*
X70949D02*
X71194Y53301D01*
X71261D02*
X71506Y53545D01*
X73104D02*
X73349Y53301D01*
X73416D02*
X73661Y53545D01*
X71587Y52189D02*
X73016Y50761D01*
X71595D02*
X73024Y52189D01*
X70368Y50971D02*
X71587Y52189D01*
X70364Y51975D02*
X71579Y50761D01*
X70009Y51330D02*
X70868Y52189D01*
X70005Y51616D02*
X70860Y50761D01*
X70868Y52189D02*
X72297Y50761D01*
X70876D02*
X72305Y52189D01*
X70176Y48623D02*
X71202Y49649D01*
X70506Y48235D02*
X71920Y49649D01*
X71253D02*
X72682Y48221D01*
X71928D02*
X73357Y49649D01*
X70535D02*
X71964Y48221D01*
X71210D02*
X72639Y49649D01*
X70506Y43924D02*
X73691Y47109D01*
X70506D02*
X73723D01*
X71972Y49649D02*
X73400Y48221D01*
X70506Y43869D02*
Y46381D01*
X70197Y49269D02*
X71245Y48221D01*
X70506D02*
X73723D01*
X70089Y46381D02*
X70817Y47109D01*
X70030Y46562D02*
X70211Y46381D01*
X70506Y45361D02*
X72254Y47109D01*
X70506Y44642D02*
X72973Y47109D01*
X70506Y46079D02*
X71536Y47109D01*
X70451Y43869D02*
X70506Y43924D01*
X73314Y43141D02*
X75503Y45329D01*
X74422Y43841D02*
X75678D01*
X73794Y43213D02*
X74422Y43841D01*
X73794Y41957D02*
X74422Y41329D01*
X73648Y40601D02*
X74399Y41352D01*
X74422Y41329D02*
X75678D01*
X73126Y42029D02*
X74138Y41017D01*
X72930Y40601D02*
X74040Y41711D01*
X71638Y47109D02*
X74907Y43841D01*
X72356Y47109D02*
X75625Y43841D01*
X70919Y47109D02*
X74305Y43724D01*
X70389Y46921D02*
X73946Y43364D01*
X71877Y43141D02*
X74785Y46048D01*
X72596Y43141D02*
X75144Y45689D01*
X70506Y43206D02*
X74066Y46766D01*
X71159Y43141D02*
X74426Y46407D01*
X74422Y38789D02*
X75678D01*
X74422Y38761D02*
X75678D01*
X74422Y41301D02*
X75678D01*
X73794Y39417D02*
X74422Y38789D01*
Y36249D02*
X75678D01*
X74422Y36221D02*
X75678D01*
X73794Y38133D02*
X74422Y38761D01*
X73794Y36877D02*
X74422Y36249D01*
X73794Y40673D02*
X74422Y41301D01*
X73510Y39489D02*
X74331Y38669D01*
X72792Y39489D02*
X73972Y38310D01*
X70506Y38061D02*
X73794D01*
X73263D02*
X74207Y39004D01*
X73177Y36949D02*
X74164Y35962D01*
X72545Y38061D02*
X73848Y39364D01*
X70506Y36949D02*
X73794D01*
X70506Y42029D02*
X73794D01*
X72407D02*
X73794Y40642D01*
X70506Y43141D02*
X73794D01*
X70774Y40601D02*
X72203Y42029D01*
X71689D02*
X73118Y40601D01*
X72211D02*
X73640Y42029D01*
X70970D02*
X72399Y40601D01*
X71493D02*
X72922Y42029D01*
X70506Y46086D02*
X73451Y43141D01*
X70506Y45368D02*
X72733Y43141D01*
X70506Y44650D02*
X72015Y43141D01*
X70150Y43568D02*
X70451Y43869D01*
X70506Y43931D02*
X71296Y43141D01*
X70317Y40862D02*
X71485Y42029D01*
X70506Y43213D02*
X70578Y43141D01*
X69958Y41221D02*
X70766Y42029D01*
X70506Y40601D02*
X73794D01*
X70506Y39489D02*
X73794D01*
X70484Y38155D02*
X71818Y39489D01*
X70637D02*
X72066Y38061D01*
X71826D02*
X73255Y39489D01*
X72074D02*
X73502Y38061D01*
X71108D02*
X72537Y39489D01*
X71355D02*
X72784Y38061D01*
X70415Y41867D02*
X71681Y40601D01*
X70124Y38514D02*
X71100Y39489D01*
X70056Y41507D02*
X70962Y40601D01*
X69889Y38800D02*
X70629Y38061D01*
X70248Y39160D02*
X71347Y38061D01*
X69932Y36166D02*
X70715Y36949D01*
X69878Y36249D02*
X70506Y36877D01*
X69878Y51489D02*
X70506Y52117D01*
X68622Y51461D02*
X69878D01*
X67994Y52117D02*
X68622Y51489D01*
X69878D01*
X67994Y50752D02*
X68703Y51461D01*
X69878D02*
X70506Y50833D01*
X67994D02*
X68622Y51461D01*
X67994Y49577D02*
Y50833D01*
X67256Y52210D02*
X68314Y51152D01*
X67994Y52190D02*
X68695Y51489D01*
X67256Y51492D02*
X67994Y50753D01*
X67099Y50930D02*
X67994Y50034D01*
X66739Y50571D02*
X68506Y48804D01*
X63977Y50459D02*
X68056Y46381D01*
X64392Y50763D02*
X67994Y47161D01*
X65414Y50459D02*
X67994Y47879D01*
X69878Y48921D02*
X70506Y48293D01*
X69827Y48921D02*
X70506Y48242D01*
X69878Y48949D02*
X70506Y49577D01*
X68622Y48921D02*
X69878D01*
Y46409D02*
X70506Y47037D01*
X68622Y46409D02*
X69878D01*
X68622Y48949D02*
X69878D01*
X67994Y48293D02*
X68622Y48921D01*
X66133Y50459D02*
X68147Y48445D01*
X67994Y49577D02*
X68622Y48949D01*
X67994Y46381D02*
X70506D01*
X67994Y47037D02*
Y48293D01*
Y47037D02*
X68622Y46409D01*
X66628Y52999D02*
X67174Y53545D01*
X66621Y52971D02*
X67195Y53545D01*
X65372Y52999D02*
X66628D01*
X65372Y52971D02*
X66628D01*
X67994Y52117D02*
Y53373D01*
X66906Y53278D02*
X67994Y52190D01*
X66983Y52615D02*
X67914Y53545D01*
X64744Y52343D02*
X65372Y52971D01*
X64559Y53470D02*
X65215Y52814D01*
X64277Y52782D02*
X64933Y53438D01*
X62832Y52999D02*
X64088D01*
X62832Y52971D02*
X64088D01*
X64199Y53111D02*
X64856Y52454D01*
X64636Y52423D02*
X65292Y53079D01*
X62204Y52343D02*
X62832Y52971D01*
X64088D02*
X64716Y52343D01*
X67256Y52169D02*
X67994Y52908D01*
X67256Y51450D02*
X67994Y52189D01*
X66628Y52971D02*
X67256Y52343D01*
Y51087D02*
Y52343D01*
X66628Y50459D02*
X67256Y51087D01*
X65372Y50459D02*
X66628D01*
X64744Y51129D02*
X65414Y50459D01*
X64744Y51087D02*
X65372Y50459D01*
X64716Y51087D02*
Y52343D01*
X64744Y51087D02*
Y52343D01*
X62204Y51087D02*
Y52343D01*
Y51087D02*
X62832Y50459D01*
X64088D02*
X64716Y51087D01*
X63259Y50459D02*
X67994Y45724D01*
X62832Y50459D02*
X64088D01*
X68622Y43841D02*
X69878D01*
X68412Y43869D02*
X68532Y43750D01*
X67994Y43213D02*
X68622Y43841D01*
X69878D02*
X70506Y43213D01*
X69878Y43841D02*
X70506Y43213D01*
X67994Y41957D02*
Y43213D01*
Y41957D02*
X68622Y41329D01*
X61574Y45051D02*
X68318Y51794D01*
X64333Y44936D02*
X68484Y49087D01*
X63730Y45051D02*
X68125Y49446D01*
X64692Y44576D02*
X67994Y47879D01*
Y43869D02*
X70506D01*
X65065Y42187D02*
X68557Y38695D01*
X65146Y43593D02*
X68292Y46739D01*
X65146Y43544D02*
X68005Y40684D01*
X69878Y41301D02*
X70506Y40673D01*
X69878Y38789D02*
X70506Y39417D01*
X69878Y41329D02*
X70506Y41957D01*
X68622Y38789D02*
X69878D01*
Y38761D02*
X70506Y38133D01*
X68622Y36221D02*
X69878D01*
X68622Y38761D02*
X69878D01*
X68622Y36249D02*
X69878D01*
X68622Y41329D02*
X69878D01*
X68622Y41301D02*
X69878D01*
X67994Y40673D02*
X68622Y41301D01*
X67994Y39417D02*
X68622Y38789D01*
X67994Y38133D02*
X68622Y38761D01*
X67994Y36877D02*
X68622Y36249D01*
X64706Y41828D02*
X68198Y38336D01*
X63039Y41339D02*
X68390Y35989D01*
X63011Y45051D02*
X67994Y50034D01*
X65051Y44217D02*
X67994Y47160D01*
X63290Y45051D02*
X64218D01*
X64206Y44809D02*
X64333Y44936D01*
X67994Y43869D02*
Y46381D01*
X65146Y42875D02*
X67994Y45723D01*
X64218Y45051D02*
X65146Y44123D01*
X58701Y45051D02*
X64744Y51094D01*
X57982Y45051D02*
X63391Y50459D01*
X56545Y45051D02*
X62393Y50898D01*
X57264Y45051D02*
X62752Y50539D01*
X62293Y45051D02*
X67994Y50752D01*
X60856Y45051D02*
X66265Y50459D01*
X59419Y45051D02*
X65100Y50732D01*
X60137Y45051D02*
X65546Y50459D01*
X65146Y43195D02*
Y44123D01*
Y42267D02*
Y43195D01*
X64919Y44084D02*
X65051Y44217D01*
X64928Y42324D02*
X65065Y42187D01*
X67994Y39417D02*
Y40673D01*
Y36877D02*
Y38133D01*
X65146Y42825D02*
X67994Y39977D01*
X64626Y41908D02*
X64706Y41828D01*
X64612Y44497D02*
X64692Y44576D01*
X64224Y41592D02*
X64347Y41469D01*
X63290Y41339D02*
X64218D01*
X64347Y41469D02*
X67994Y37821D01*
X63758Y41339D02*
X67994Y37103D01*
X64218Y41339D02*
X65146Y42267D01*
X87249Y34372D02*
X96517Y25104D01*
X87249Y24746D02*
X96517Y34015D01*
X87249Y35090D02*
X96517Y25822D01*
X87249Y25465D02*
X96517Y34733D01*
X87249Y32935D02*
X96517Y23667D01*
X87249Y23310D02*
X96517Y32578D01*
X87249Y33654D02*
X96517Y24385D01*
X87249Y24028D02*
X96517Y33296D01*
X87249Y34804D02*
X96517Y44073D01*
X87249Y43711D02*
X96517Y34443D01*
X87249Y35523D02*
X96517Y44791D01*
X87249Y44430D02*
X96517Y35161D01*
X87249Y33367D02*
X96517Y42636D01*
X87249Y42275D02*
X96517Y33006D01*
X87249Y34086D02*
X96517Y43354D01*
X87249Y42993D02*
X96517Y33725D01*
X88158Y20626D02*
X96517Y28986D01*
X88517Y20267D02*
X96517Y28267D01*
X87439Y21344D02*
X96517Y30423D01*
X87798Y20985D02*
X96517Y29704D01*
X89594Y19189D02*
X96517Y26112D01*
X89954Y18830D02*
X96517Y25394D01*
X88876Y19907D02*
X96517Y27549D01*
X89235Y19548D02*
X96517Y26831D01*
X87249Y31498D02*
X96517Y22230D01*
X87249Y21873D02*
X96517Y31141D01*
X87249Y32217D02*
X96517Y22948D01*
X87249Y22591D02*
X96517Y31859D01*
X87249Y29343D02*
X96517Y20075D01*
X87249Y28625D02*
X96517Y19356D01*
X87249Y30780D02*
X96517Y21511D01*
X87249Y30061D02*
X96517Y20793D01*
X87249Y29775D02*
X96517Y39044D01*
X87249Y38682D02*
X96517Y29414D01*
X87249Y30494D02*
X96517Y39762D01*
X87249Y39401D02*
X96517Y30132D01*
X87249Y28338D02*
X96517Y37607D01*
X87249Y37246D02*
X96517Y27977D01*
X87249Y29057D02*
X96517Y38325D01*
X87249Y37964D02*
X96517Y28696D01*
X87249Y41556D02*
X96517Y32288D01*
X87249Y31931D02*
X96517Y41199D01*
X87249Y32649D02*
X96517Y41917D01*
X78105Y35521D02*
Y36949D01*
X87249Y31212D02*
X96517Y40481D01*
X87249Y40119D02*
X96517Y30851D01*
X87249Y21534D02*
Y52531D01*
Y40838D02*
X96517Y31569D01*
X87249Y26902D02*
X96517Y36170D01*
X87249Y35809D02*
X96517Y26540D01*
X87249Y27620D02*
X96517Y36888D01*
X87249Y36527D02*
X96517Y27259D01*
X87249Y26183D02*
X96517Y35452D01*
X87249Y18999D02*
X87683Y19433D01*
X78105Y20368D02*
Y21709D01*
X87249Y19717D02*
X87324Y19792D01*
X77923Y29329D02*
X78105Y29148D01*
Y27988D02*
Y29329D01*
Y32981D02*
Y34409D01*
Y30441D02*
Y31869D01*
Y22821D02*
Y24249D01*
X77938Y19256D02*
X78105Y19090D01*
Y25361D02*
Y26876D01*
X77974Y24249D02*
X78105Y24119D01*
X90472Y17193D02*
X96517Y23238D01*
X90472Y16474D02*
X96517Y22520D01*
X90313Y18471D02*
X96517Y24675D01*
X90472Y17911D02*
X96517Y23957D01*
Y483D02*
Y89517D01*
X87249Y22159D02*
X96517Y12890D01*
X90472Y15756D02*
X96517Y21802D01*
X90472Y15037D02*
X96517Y21083D01*
X87249Y26469D02*
X96517Y17201D01*
X87249Y25751D02*
X96517Y16482D01*
X87249Y27906D02*
X96517Y18638D01*
X87249Y27188D02*
X96517Y17919D01*
X87249Y23596D02*
X96517Y14327D01*
X87249Y22877D02*
X96517Y13609D01*
X87249Y25032D02*
X96517Y15764D01*
X87249Y24314D02*
X96517Y15046D01*
X90472Y11445D02*
X96517Y17491D01*
X90472Y16781D02*
X96517Y10735D01*
X90472Y12164D02*
X96517Y18209D01*
X90472Y17499D02*
X96517Y11454D01*
X90472Y16062D02*
X96517Y10017D01*
X90472Y10008D02*
X96517Y16054D01*
X90472Y6755D02*
Y17756D01*
Y10727D02*
X96517Y16773D01*
X90472Y17756D02*
Y18312D01*
Y17756D02*
Y18312D01*
X90194Y18590D02*
X90472Y18312D01*
X90194Y18590D02*
X90472Y18312D01*
Y12882D02*
X96517Y18928D01*
X90472Y18218D02*
X96517Y12172D01*
X90472Y14319D02*
X96517Y20365D01*
X90472Y13601D02*
X96517Y19646D01*
X88303Y17179D02*
X89120Y17996D01*
X88662Y16820D02*
X89360Y17518D01*
X87584Y17897D02*
X88402Y18715D01*
X87943Y17538D02*
X88761Y18356D01*
X89360Y6755D02*
Y17756D01*
X88948Y16387D02*
X89360Y16800D01*
X88670Y16812D02*
X88948Y16534D01*
X88670Y16812D02*
X88948Y16534D01*
X87249Y21534D02*
X90194Y18590D01*
X87249Y19868D02*
X89360Y17756D01*
X87249Y18232D02*
Y19868D01*
Y18281D02*
X88043Y19074D01*
X87249Y19285D02*
X89360Y17174D01*
X87249Y18567D02*
X89360Y16455D01*
X78105Y17741D02*
Y19256D01*
X87249Y18232D02*
X88670Y16812D01*
X88948Y16150D02*
X89360Y15737D01*
X88948Y15669D02*
X89360Y16081D01*
X88948Y15978D02*
Y16534D01*
Y15978D02*
Y16534D01*
Y15431D02*
X89360Y15018D01*
X88948Y14950D02*
X89360Y15363D01*
X87836Y7644D02*
Y15978D01*
X88948Y7644D02*
Y15978D01*
X87249Y16566D02*
X87836Y15978D01*
X87249Y16411D02*
X87836Y15824D01*
X87249Y16125D02*
X87469Y16345D01*
X87249Y15407D02*
X87828Y15986D01*
X87249Y14559D02*
Y16566D01*
Y15693D02*
X87836Y15106D01*
X78105Y15201D02*
Y16629D01*
X77872Y34409D02*
X78105Y34176D01*
X77154Y34409D02*
X78105Y33458D01*
X77189Y35521D02*
X78105Y36437D01*
X77907Y35521D02*
X78105Y35718D01*
X76820Y31869D02*
X78105Y30584D01*
X77138Y30441D02*
X78105Y31408D01*
X77523Y32981D02*
X78105Y33563D01*
X77538Y31869D02*
X78105Y31303D01*
X76306Y35521D02*
X78105D01*
X76306Y34409D02*
X78105D01*
X76471Y35521D02*
X77899Y36949D01*
X76769D02*
X78105Y35613D01*
X76804Y32981D02*
X78105Y34281D01*
X70506Y31869D02*
X78105D01*
X76435Y34409D02*
X77864Y32981D01*
X70506D02*
X78105D01*
X76840Y27988D02*
X78105Y29252D01*
X77559Y27988D02*
X78105Y28534D01*
X77856Y30441D02*
X78105Y30689D01*
X77205Y29329D02*
X78105Y28429D01*
X77805Y25361D02*
X78105Y25660D01*
X77256Y24249D02*
X78105Y23400D01*
X77502Y26876D02*
X78105Y26274D01*
X77087Y25361D02*
X78105Y26379D01*
X74954Y27988D02*
X78105D01*
X74954Y26876D02*
X78105D01*
X70506Y30441D02*
X78105D01*
X70506Y29329D02*
X78105D01*
X75248Y25361D02*
X78105D01*
X75248Y24249D02*
X78105D01*
X76369Y25361D02*
X77884Y26876D01*
X76784D02*
X78105Y25555D01*
X76065Y35833D02*
X77181Y36949D01*
X76214Y36786D02*
X77479Y35521D01*
X75855Y36427D02*
X76761Y35521D01*
X76047Y34079D02*
X77146Y32981D01*
X76102Y31869D02*
X77530Y30441D01*
X76420D02*
X77848Y31869D01*
X76086Y32981D02*
X77515Y34409D01*
X75701Y30441D02*
X77130Y31869D01*
X75367Y32981D02*
X76796Y34409D01*
X75678Y33709D02*
X76306Y34337D01*
X75678Y36221D02*
X76306Y35593D01*
X74980Y33709D02*
X75709Y32981D01*
X75688Y33720D02*
X76427Y32981D01*
X75383Y31869D02*
X76812Y30441D01*
X74665Y31869D02*
X76093Y30441D01*
X74983D02*
X76412Y31869D01*
X76122Y27988D02*
X77464Y29329D01*
X76486D02*
X77828Y27988D01*
X75403D02*
X76745Y29329D01*
X75768D02*
X77110Y27988D01*
X76066Y26876D02*
X77581Y25361D01*
X75984Y22821D02*
X77413Y24249D01*
X75650Y25361D02*
X77166Y26876D01*
X75708Y22821D02*
X76264D01*
X75049Y29329D02*
X76391Y27988D01*
X74932Y25361D02*
X76447Y26876D01*
X74685Y27988D02*
X76027Y29329D01*
X74791Y26714D02*
X76145Y25361D01*
X75347Y26876D02*
X76863Y25361D01*
X75174Y24176D02*
X76529Y22821D01*
X72943Y24091D02*
X75729Y26876D01*
X74815Y23817D02*
X75811Y22821D01*
X76922Y21709D02*
X78105Y20526D01*
X76859Y20368D02*
X78105D01*
X77421Y22821D02*
X78105Y23505D01*
X77640Y21709D02*
X78105Y21245D01*
X76859Y19256D02*
X78105D01*
X77220D02*
X78105Y18371D01*
X77123Y20368D02*
X78105Y21350D01*
X77841Y20368D02*
X78105Y20631D01*
X76702Y22821D02*
X78105Y24223D01*
X76264Y22821D02*
X78105D01*
X75819Y24249D02*
X77248Y22821D01*
X76537Y24249D02*
X77966Y22821D01*
X76404Y20368D02*
X77746Y21709D01*
X76264D02*
X78105D01*
X76234Y21679D02*
X77545Y20368D01*
X74663Y16471D02*
X77449Y19256D01*
X77370Y17741D02*
X78105Y18476D01*
X77788Y17741D02*
X78105D01*
X77232D02*
X77788D01*
X77232D02*
X77788D01*
X77740Y16581D02*
X78105Y16216D01*
X77381Y16222D02*
X78105Y15498D01*
X77788Y16629D02*
X78105D01*
X77021Y15863D02*
X77775Y15109D01*
X75381Y16471D02*
X78105Y19194D01*
X76680Y19078D02*
X78017Y17741D01*
X76321Y18719D02*
X77299Y17741D01*
X76954Y17463D02*
X77232Y17741D01*
X75715Y13931D02*
X78105Y16321D01*
X76433Y13931D02*
X78105Y15602D01*
X76796Y15637D02*
X77788Y16629D01*
X76662Y15504D02*
X77416Y14750D01*
X76303Y20368D02*
X76859D01*
X76303D02*
X76859D01*
X75708Y22821D02*
X76264D01*
X75875Y21320D02*
X76827Y20368D01*
X76025Y20090D02*
X76303Y20368D01*
X75780Y18177D02*
X76859Y19256D01*
X75515Y20961D02*
X76206Y20270D01*
X76025Y20090D02*
X76303Y20368D01*
X73995Y21551D02*
X76694Y24249D01*
X75272Y20717D02*
X76264Y21709D01*
X73277Y21551D02*
X75976Y24249D01*
X75430Y22543D02*
X75708Y22821D01*
X73611Y19011D02*
X76309Y21709D01*
X74329Y19011D02*
X77028Y21709D01*
X75156Y20602D02*
X75847Y19911D01*
X74946Y19011D02*
X76025Y20090D01*
X75962Y18359D02*
X76906Y17415D01*
X76954Y17463D02*
X77232Y17741D01*
X75502Y17899D02*
X75780Y18177D01*
X75603Y18000D02*
X76547Y17056D01*
X75962Y16471D02*
X76954Y17463D01*
X76518Y15359D02*
X76796Y15637D01*
X76518Y15359D02*
X76796Y15637D01*
X75962Y15359D02*
X76518D01*
X74985Y17899D02*
X76188Y16696D01*
X70506Y15359D02*
X75962D01*
X75502Y17899D02*
X75780Y18177D01*
X70506Y16471D02*
X75962D01*
X74996Y13931D02*
X76425Y15359D01*
X75370D02*
X76698Y14031D01*
X74651Y15359D02*
X76080Y13931D01*
X90472Y7135D02*
X96517Y13181D01*
X91879Y7106D02*
X96517Y11744D01*
X90472Y11034D02*
X94400Y7106D01*
X90472Y10315D02*
X93681Y7106D01*
X90472Y12470D02*
X96517Y6425D01*
X90472Y6416D02*
X96517Y12462D01*
X92598Y7106D02*
X96517Y11025D01*
X93316Y7106D02*
X96517Y10307D01*
X90472Y9290D02*
X96517Y15336D01*
X90472Y14626D02*
X96517Y8580D01*
X90472Y15344D02*
X96517Y9298D01*
X88948Y10402D02*
X89360Y9989D01*
X90472Y7853D02*
X96517Y13899D01*
X90472Y13189D02*
X96517Y7143D01*
X90472Y8572D02*
X96517Y14617D01*
X90472Y13907D02*
X96517Y7861D01*
X94653Y7006D02*
X96517Y8870D01*
X95012Y6646D02*
X96517Y8152D01*
X94035Y7106D02*
X96517Y9588D01*
X91447Y7106D02*
X94553D01*
X95371Y6287D02*
X96517Y7433D01*
X95731Y5928D02*
X96517Y6715D01*
X90472Y6199D02*
Y6755D01*
Y6723D02*
X90768Y6427D01*
X90472Y9597D02*
X92963Y7106D01*
X90472Y8878D02*
X92244Y7106D01*
X88948Y8247D02*
X89360Y7834D01*
X90472Y8160D02*
X91526Y7106D01*
X90472Y7441D02*
X91127Y6786D01*
X90194Y5921D02*
X90472Y6199D01*
Y6755D01*
X90194Y5921D02*
X90472Y6199D01*
X88948Y12558D02*
X89360Y12145D01*
X88948Y12077D02*
X89360Y12489D01*
X88948Y13276D02*
X89360Y12863D01*
X88948Y12795D02*
X89360Y13208D01*
X88948Y11121D02*
X89360Y10708D01*
X88948Y10640D02*
X89360Y11052D01*
X88948Y11839D02*
X89360Y11426D01*
X88948Y11358D02*
X89360Y11771D01*
X88948Y14232D02*
X89360Y14645D01*
X88948Y13994D02*
X89360Y13582D01*
X88948Y14713D02*
X89360Y14300D01*
X87297Y13956D02*
Y14512D01*
X88948Y13513D02*
X89360Y13926D01*
X87297Y12772D02*
X87836Y12232D01*
X87297Y13299D02*
X87836Y13839D01*
X87297Y13490D02*
X87836Y12950D01*
X88948Y8965D02*
X89360Y8553D01*
X88948Y8484D02*
X89360Y8897D01*
X88948Y9684D02*
X89360Y9271D01*
X88948Y9203D02*
X89360Y9616D01*
X88948Y7766D02*
X89360Y8179D01*
X88948Y7529D02*
X89360Y7116D01*
X88948Y7088D02*
Y7644D01*
Y7088D02*
Y7644D01*
Y9921D02*
X89360Y10334D01*
X87297Y9898D02*
X87836Y9358D01*
X87297Y10426D02*
X87836Y10965D01*
X87297Y8485D02*
Y9041D01*
X88670Y6810D02*
X88948Y7088D01*
X88809Y6949D02*
X89182Y6576D01*
X88670Y6810D02*
X88948Y7088D01*
X88449Y6590D02*
X88823Y6217D01*
X96106Y4681D02*
X96517Y4269D01*
X96106Y4148D02*
X96517Y4559D01*
X96106Y5400D02*
X96517Y4988D01*
X96106Y4866D02*
X96517Y5278D01*
X96106Y3244D02*
X96517Y2832D01*
X96106Y2711D02*
X96517Y3123D01*
X96106Y3963D02*
X96517Y3551D01*
X96106Y3429D02*
X96517Y3841D01*
X90472Y11752D02*
X96517Y5706D01*
X96090Y5569D02*
X96517Y5996D01*
X94553Y7106D02*
X96106Y5553D01*
X94400Y7106D02*
X96106Y5400D01*
Y2447D02*
Y5553D01*
X94596Y483D02*
X96517Y2404D01*
X95427Y1768D02*
X96517Y677D01*
X96106Y2526D02*
X96517Y2114D01*
X95786Y2127D02*
X96517Y1396D01*
X95314Y483D02*
X96517Y1686D01*
X96033Y483D02*
X96517Y967D01*
X95067Y1409D02*
X95994Y483D01*
X94708Y1050D02*
X95275Y483D01*
X94289Y894D02*
X96106Y2711D01*
X94553Y894D02*
X96106Y2447D01*
X92708Y894D02*
X93120Y483D01*
X91447Y894D02*
X94553D01*
X93877Y483D02*
X94289Y894D01*
X94145D02*
X94557Y483D01*
X93159D02*
X93571Y894D01*
X93427D02*
X93838Y483D01*
X89894Y5553D02*
X91447Y7106D01*
X89094Y4821D02*
X90194Y5921D01*
X89656Y5384D02*
X89894Y5145D01*
X88816Y4543D02*
X89094Y4821D01*
X89894Y2447D02*
Y5553D01*
X88938Y4665D02*
X89894Y3708D01*
X89297Y5024D02*
X89894Y4427D01*
X88816Y4543D02*
X89094Y4821D01*
X87678Y5818D02*
X88670Y6810D01*
X88090Y6231D02*
X88463Y5858D01*
X87514Y5655D02*
X87678Y5818D01*
X87514Y5655D02*
X87678Y5818D01*
X87555Y5655D02*
X89360Y7460D01*
X88260Y5655D02*
X89360Y6755D01*
X87731Y5872D02*
X87948Y5655D01*
X87514D02*
X88260D01*
X89894Y2447D02*
X91447Y894D01*
X89567Y483D02*
X90713Y1629D01*
X90285Y483D02*
X91072Y1269D01*
X91990Y894D02*
X92402Y483D01*
X92441D02*
X92852Y894D01*
X91004Y483D02*
X91431Y910D01*
X91722Y483D02*
X92134Y894D01*
X88341Y4543D02*
X89894Y2990D01*
X87412Y483D02*
X89894Y2965D01*
X88260Y4543D02*
X88816D01*
X88260D02*
X88816D01*
X87622D02*
X91683Y483D01*
X88848D02*
X90354Y1988D01*
X88130Y483D02*
X89994Y2347D01*
X87249Y14975D02*
X87836Y14387D01*
X87297Y14018D02*
X87836Y14557D01*
X87249Y14688D02*
X87836Y15276D01*
X87297Y13956D02*
Y14512D01*
Y12581D02*
X87836Y13121D01*
X87297Y11862D02*
X87836Y12402D01*
X87297Y14209D02*
X87836Y13669D01*
X87297Y9041D02*
Y13956D01*
X77431Y13097D02*
X78105Y13772D01*
X77890Y13557D02*
X78105Y13342D01*
X77867Y15201D02*
X78105D01*
X77867D02*
X78105D01*
Y12661D02*
Y13772D01*
X76049Y11391D02*
X78105Y13447D01*
X77867Y12661D02*
X78105D01*
X77867D02*
X78105D01*
X87297Y11335D02*
X87836Y10795D01*
X87297Y10616D02*
X87836Y10077D01*
X87297Y12053D02*
X87836Y11513D01*
X87297Y11144D02*
X87836Y11684D01*
X87297Y8989D02*
X87836Y9528D01*
X87297Y9180D02*
X87836Y8640D01*
X87297Y9707D02*
X87836Y10247D01*
X87297Y8485D02*
Y9041D01*
X77364Y10491D02*
X78105Y9750D01*
X76857Y10279D02*
X78105Y9032D01*
X77431Y10557D02*
X78105Y11232D01*
X77724Y10850D02*
X78105Y10469D01*
X87249Y8223D02*
X87836Y8810D01*
X87285Y8473D02*
X87836Y7921D01*
X75199Y7668D02*
X78105Y10573D01*
X76139Y10279D02*
X78105Y8313D01*
X77589Y14923D02*
X77867Y15201D01*
X77589Y14923D02*
X77867Y15201D01*
X76088Y15359D02*
X77057Y14390D01*
X76597Y13931D02*
X77589Y14923D01*
X77531Y13198D02*
X78068Y12661D01*
X77172Y12839D02*
X77609Y12402D01*
X77153Y12819D02*
X77431Y13097D01*
X77153Y12819D02*
X77431Y13097D01*
X70506Y12819D02*
X76597D01*
X75754D02*
X76890Y11684D01*
X75962Y15359D02*
X76518D01*
X70506Y13931D02*
X76597D01*
X75036Y12819D02*
X76465Y11391D01*
X75330D02*
X76759Y12819D01*
X74317D02*
X75746Y11391D01*
X74612D02*
X76040Y12819D01*
X78037Y12661D02*
X78105Y12729D01*
X77589Y12383D02*
X77867Y12661D01*
X77589Y12383D02*
X77867Y12661D01*
X76597Y11391D02*
X77589Y12383D01*
X77153Y10279D02*
X77431Y10557D01*
X77153Y10279D02*
X77431Y10557D01*
X76597Y10279D02*
X77153D01*
X76597D02*
X77153D01*
X76597Y12819D02*
X77153D01*
X76473D02*
X77249Y12043D01*
X76597Y12819D02*
X77153D01*
X70506Y11391D02*
X76597D01*
X70506Y10279D02*
X76597D01*
X75421D02*
X78032Y7668D01*
X73265Y10279D02*
X75877Y7668D01*
X87249Y7504D02*
X87836Y8092D01*
X87249Y7056D02*
X87836Y7644D01*
X87249Y7056D02*
Y8438D01*
Y7790D02*
X87616Y7423D01*
X85256Y483D02*
X89894Y5121D01*
X84538Y483D02*
X88599Y4543D01*
X87249Y4445D02*
Y4543D01*
X88260D01*
X79100Y4445D02*
X83062Y483D01*
X79509D02*
X83471Y4445D01*
X78381D02*
X82344Y483D01*
X78791D02*
X82753Y4445D01*
X83819Y483D02*
X87880Y4543D01*
X80537Y4445D02*
X84499Y483D01*
X79818Y4445D02*
X83781Y483D01*
X80227D02*
X84190Y4445D01*
X84847D02*
X88809Y483D01*
X85566Y4445D02*
X89528Y483D01*
X83410Y4445D02*
X87373Y483D01*
X84129Y4445D02*
X88091Y483D01*
X86284Y4445D02*
X90246Y483D01*
X87002Y4445D02*
X90965Y483D01*
X85975D02*
X89894Y4402D01*
X86693Y483D02*
X89894Y3684D01*
X81664Y483D02*
X85627Y4445D01*
X78105D02*
X87249D01*
X80946Y483D02*
X84908Y4445D01*
X81255D02*
X85217Y483D01*
X82692Y4445D02*
X86654Y483D01*
X83101D02*
X87063Y4445D01*
X81973D02*
X85936Y483D01*
X82383D02*
X86345Y4445D01*
X78105Y7668D02*
Y11232D01*
X77354Y7668D02*
X78105Y8418D01*
X75918Y7668D02*
X78105Y9855D01*
X76636Y7668D02*
X78105Y9137D01*
X76128Y4543D02*
X80188Y483D01*
X76846Y4543D02*
X80907Y483D01*
X75921Y4078D02*
X76386Y4543D01*
X78105Y4445D02*
Y4543D01*
X74481Y7668D02*
X77093Y10279D01*
X70506Y7668D02*
X78105D01*
X73762D02*
X76374Y10279D01*
X73984D02*
X76596Y7668D01*
X73762Y483D02*
X77822Y4543D01*
X75882D02*
X78105D01*
X74702Y10279D02*
X77314Y7668D01*
X73043Y483D02*
X77104Y4543D01*
X75917Y483D02*
X79879Y4445D01*
X75921Y4032D02*
X79470Y483D01*
X75921Y3515D02*
Y4505D01*
X75820Y3414D02*
X78752Y483D01*
X77564Y4543D02*
X81625Y483D01*
X78072D02*
X82034Y4445D01*
X76635Y483D02*
X80598Y4445D01*
X77354Y483D02*
X81316Y4445D01*
X74480Y483D02*
X78442Y4445D01*
X73968Y3111D02*
X76596Y483D01*
X75425Y3019D02*
X75921Y3515D01*
X73608Y2752D02*
X75878Y483D01*
X75198D02*
X79161Y4445D01*
X75461Y3055D02*
X78033Y483D01*
X74778Y3019D02*
X77315Y483D01*
X73794Y34337D02*
X74422Y33709D01*
X75678D01*
X73597Y35521D02*
X74374Y36298D01*
X73794Y35593D02*
X74422Y36221D01*
X74649Y32981D02*
X75378Y33709D01*
X74264Y30441D02*
X75693Y31869D01*
X73931Y32981D02*
X74659Y33709D01*
X73946Y31869D02*
X75375Y30441D01*
X72843Y34409D02*
X74272Y32981D01*
X73562Y34409D02*
X74990Y32981D01*
X73212D02*
X74182Y33950D01*
X72827Y30441D02*
X74256Y31869D01*
X73228D02*
X74657Y30441D01*
X73546D02*
X74975Y31869D01*
X72894Y29329D02*
X74317Y27906D01*
X71891Y26631D02*
X74590Y29329D01*
X74331D02*
X75673Y27988D01*
X74432Y26355D02*
X75426Y25361D01*
X74398Y27988D02*
X74954D01*
X74398D02*
X74954D01*
X74692Y25361D02*
X75248D01*
X74692D02*
X75248D01*
X74414Y25083D02*
X74692Y25361D01*
X74414Y25083D02*
X74692Y25361D01*
X73613Y29329D02*
X74954Y27988D01*
X72610Y26631D02*
X75308Y29329D01*
X74120Y27710D02*
X74398Y27988D01*
X74120Y27710D02*
X74398Y27988D01*
X73875Y25797D02*
X74954Y26876D01*
X74073Y25995D02*
X74708Y25361D01*
X73041Y26631D02*
X74120Y27710D01*
X73714Y25636D02*
X74341Y25009D01*
X72160Y35521D02*
X73589Y36949D01*
X72458D02*
X73805Y35603D01*
X71442Y35521D02*
X72870Y36949D01*
X71740D02*
X73169Y35521D01*
X72879D02*
X74015Y36657D01*
X72494Y32981D02*
X73822Y34309D01*
X71775Y32981D02*
X73204Y34409D01*
X72125D02*
X73553Y32981D01*
X71022Y36949D02*
X72450Y35521D01*
X70506D02*
X73794D01*
X70723D02*
X72152Y36949D01*
X70688Y34409D02*
X72117Y32981D01*
X71406Y34409D02*
X72835Y32981D01*
X71073Y31869D02*
X72501Y30441D01*
X71057Y32981D02*
X72486Y34409D01*
X70672Y30441D02*
X72101Y31869D01*
X72509D02*
X73938Y30441D01*
X72176Y29329D02*
X73958Y27547D01*
X73041Y25519D02*
X73597D01*
X73041D02*
X73597D01*
X73875Y25797D01*
X73112Y25519D02*
X73982Y24650D01*
X73597Y25519D02*
X73875Y25797D01*
X72394Y25519D02*
X73622Y24291D01*
X72109Y30441D02*
X73538Y31869D01*
X71457Y29329D02*
X73599Y27188D01*
X71391Y30441D02*
X72819Y31869D01*
X71791D02*
X73220Y30441D01*
X70739Y29329D02*
X73239Y26829D01*
X71173Y26631D02*
X73872Y29329D01*
X70506Y25519D02*
X73041D01*
X71675D02*
X73104Y24091D01*
X74456Y23457D02*
X75400Y22513D01*
X75430Y22543D02*
X75708Y22821D01*
X74256Y23257D02*
X75248Y24249D01*
X73978Y22979D02*
X74256Y23257D01*
X74438Y21551D02*
X75430Y22543D01*
X74994Y20439D02*
X75272Y20717D01*
X74097Y23098D02*
X75041Y22154D01*
X74994Y20439D02*
X75272Y20717D01*
X72225Y24091D02*
X75011Y26876D01*
X73497Y22979D02*
X74682Y21794D01*
X73422Y24091D02*
X74414Y25083D01*
X70506Y21551D02*
X74438D01*
X72559D02*
X75257Y24249D01*
X73163Y20439D02*
X74592Y19011D01*
X72892D02*
X74321Y20439D01*
X70506D02*
X74438D01*
X74600D02*
X75488Y19552D01*
X74946Y17899D02*
X75502D01*
X74438Y20439D02*
X74994D01*
X74438D02*
X74994D01*
X74266Y17899D02*
X75695Y16471D01*
X74278Y13931D02*
X75707Y15359D01*
X73944Y16471D02*
X75373Y17899D01*
X74946D02*
X75502D01*
X73882Y20439D02*
X75128Y19193D01*
X73548Y17899D02*
X74977Y16471D01*
X72830Y17899D02*
X74258Y16471D01*
X73226D02*
X74655Y17899D01*
X73560Y13931D02*
X74988Y15359D01*
X73933D02*
X75361Y13931D01*
X72841D02*
X74270Y15359D01*
X73214D02*
X74643Y13931D01*
X73978Y22979D02*
X74256Y23257D01*
X73422Y22979D02*
X73978D01*
X71506Y24091D02*
X72935Y25519D01*
X73422Y22979D02*
X73978D01*
X72060D02*
X73489Y21551D01*
X72778Y22979D02*
X74207Y21551D01*
X71840D02*
X73269Y22979D01*
X71455Y19011D02*
X72884Y20439D01*
X70957Y25519D02*
X72386Y24091D01*
X70506Y22979D02*
X73422D01*
X70788Y24091D02*
X72217Y25519D01*
X70623Y22979D02*
X72052Y21551D01*
X71122D02*
X72550Y22979D01*
X71342D02*
X72770Y21551D01*
X70737Y19011D02*
X72166Y20439D01*
X71008D02*
X72437Y19011D01*
X72174D02*
X73603Y20439D01*
X72445D02*
X73874Y19011D01*
X71789Y16471D02*
X73218Y17899D01*
X72111D02*
X73540Y16471D01*
X72507D02*
X73936Y17899D01*
X72496Y15359D02*
X73925Y13931D01*
X71777Y15359D02*
X73206Y13931D01*
X72123D02*
X73552Y15359D01*
X71726Y20439D02*
X73155Y19011D01*
X71393Y17899D02*
X72821Y16471D01*
X70674Y17899D02*
X72103Y16471D01*
X71071D02*
X72499Y17899D01*
X71059Y15359D02*
X72488Y13931D01*
X71404D02*
X72833Y15359D01*
X70686Y13931D02*
X72115Y15359D01*
X70458Y33100D02*
X71767Y34409D01*
X70506D02*
X73794D01*
X70291Y35807D02*
X71434Y36949D01*
X70440Y36812D02*
X71732Y35521D01*
X70274Y34105D02*
X71398Y32981D01*
X70466Y31758D02*
X71783Y30441D01*
X70266Y30753D02*
X71383Y31869D01*
X70107Y31398D02*
X71065Y30441D01*
X70081Y36453D02*
X71013Y35521D01*
X70099Y33459D02*
X71049Y34409D01*
X69878Y36221D02*
X70506Y35593D01*
X69878Y33709D02*
X70506Y34337D01*
X69914Y33746D02*
X70680Y32981D01*
X68999Y27331D02*
X70998Y29329D01*
X69907Y31112D02*
X70664Y31869D01*
X69878Y31141D02*
X70506Y30513D01*
Y26682D02*
X73153Y29329D01*
X70299Y29051D02*
X72719Y26631D01*
X70157Y27052D02*
X72435Y29329D01*
X70506Y26689D02*
X70564Y26631D01*
X70506D02*
X73041D01*
X70324Y24345D02*
X71498Y25519D01*
X69964Y24704D02*
X70780Y25519D01*
X70049Y24991D02*
X70949Y24091D01*
X69717Y27331D02*
X71716Y29329D01*
X69864Y27331D02*
X70506Y26689D01*
X69878Y28629D02*
X70506Y29257D01*
X69878Y27331D02*
X70506Y26703D01*
X69940Y28692D02*
X72001Y26631D01*
X69284Y28629D02*
X71282Y26631D01*
X69878Y24819D02*
X70506Y25447D01*
X69878Y24791D02*
X70506Y24163D01*
X67994Y35593D02*
X68622Y36221D01*
X67994Y34337D02*
X68622Y33709D01*
X62321Y41339D02*
X68031Y35629D01*
X67994Y34337D02*
Y35593D01*
X68622Y33681D02*
X69878D01*
X70506Y33053D01*
X68622Y33709D02*
X69878D01*
X67994Y33053D02*
X68622Y33681D01*
X60166Y41339D02*
X68223Y33282D01*
X60884Y41339D02*
X68583Y33641D01*
X61603Y41339D02*
X67994Y34948D01*
X59447Y41339D02*
X67994Y32792D01*
X57292Y41339D02*
X68057Y30575D01*
X58010Y41339D02*
X68416Y30934D01*
X58729Y41339D02*
X67994Y32074D01*
X56574Y41339D02*
X67994Y29919D01*
X69878Y31169D02*
X70506Y31797D01*
X68622Y28629D02*
X69878D01*
X68622Y31169D02*
X69878D01*
X68622Y31141D02*
X69878D01*
X68622Y24819D02*
X69878D01*
X68622Y24791D02*
X69878D01*
X68622Y27331D02*
X69878D01*
X67994Y24163D02*
X68622Y24791D01*
X67994Y31797D02*
X68622Y31169D01*
X67994Y30513D02*
X68622Y31141D01*
X67994Y31797D02*
Y33053D01*
Y29257D02*
Y30513D01*
Y26703D02*
X68622Y27331D01*
X67994Y25447D02*
X68622Y24819D01*
X67994Y29257D02*
X68622Y28629D01*
X67994Y25447D02*
Y26703D01*
X70506Y24091D02*
X73422D01*
X70491Y21638D02*
X71832Y22979D01*
X70408Y25350D02*
X71667Y24091D01*
X70131Y21997D02*
X71114Y22979D01*
X70434Y20295D02*
X71718Y19011D01*
X70506D02*
X74946D01*
X70241Y22643D02*
X71334Y21551D01*
X70298Y19290D02*
X71447Y20439D01*
X69882Y22284D02*
X70615Y21551D01*
X69878Y22251D02*
X70506Y21623D01*
X69878Y22279D02*
X70506Y22907D01*
X68622Y22251D02*
X69878D01*
X69939Y19649D02*
X70729Y20439D01*
X70074Y19936D02*
X71000Y19011D01*
X69878Y19739D02*
X70506Y20367D01*
X69878Y19711D02*
X70506Y19083D01*
X70465Y16583D02*
X71781Y17899D01*
X70506D02*
X74946D01*
X70106Y16943D02*
X71063Y17899D01*
X70267Y17588D02*
X71385Y16471D01*
X70273Y14236D02*
X71396Y15359D01*
X70459Y15241D02*
X71769Y13931D01*
X69913Y14595D02*
X70678Y15359D01*
X70100Y14882D02*
X71051Y13931D01*
X69908Y17229D02*
X70666Y16471D01*
X69878Y17171D02*
X70506Y16543D01*
X69878Y17199D02*
X70506Y17827D01*
X68622Y17199D02*
X69878D01*
Y14659D02*
X70506Y15287D01*
X69878Y14631D02*
X70506Y14003D01*
X68622Y14659D02*
X69878D01*
X68622Y14631D02*
X69878D01*
X68622Y22279D02*
X69878D01*
X67994Y21623D02*
X68622Y22251D01*
X67994Y22907D02*
X68622Y22279D01*
X67994Y20367D02*
Y21623D01*
X68622Y19739D02*
X69878D01*
X68622Y19711D02*
X69878D01*
X67994Y20367D02*
X68622Y19739D01*
X67994Y19083D02*
X68622Y19711D01*
X56956Y11695D02*
X68081Y22821D01*
X57315Y11336D02*
X68440Y22461D01*
X67994Y22907D02*
Y24163D01*
X56597Y12055D02*
X67994Y23452D01*
X58393Y10259D02*
X68248Y20114D01*
X58752Y9899D02*
X68607Y19754D01*
X57674Y10977D02*
X67994Y21297D01*
X58034Y10618D02*
X67994Y20579D01*
Y16543D02*
X68622Y17171D01*
X69878D01*
X67994Y17827D02*
Y19083D01*
Y17827D02*
X68622Y17199D01*
X67994Y15287D02*
X68622Y14659D01*
X67994Y14003D02*
X68622Y14631D01*
X67994Y15287D02*
Y16543D01*
Y12747D02*
Y14003D01*
X59470Y9181D02*
X68056Y17766D01*
X59830Y8822D02*
X68415Y17407D01*
X59111Y9540D02*
X67994Y18423D01*
X60189Y8463D02*
X67994Y16268D01*
X60907Y7744D02*
X68222Y15059D01*
X61266Y7385D02*
X68582Y14700D01*
X60548Y8103D02*
X67994Y15550D01*
X72162Y12819D02*
X73591Y11391D01*
X72456D02*
X73885Y12819D01*
X71444D02*
X72873Y11391D01*
X71738D02*
X73167Y12819D01*
X73599D02*
X75028Y11391D01*
X73893D02*
X75322Y12819D01*
X72881D02*
X74309Y11391D01*
X73175D02*
X74604Y12819D01*
X70725D02*
X72154Y11391D01*
X71020D02*
X72448Y12819D01*
X70439Y11529D02*
X71730Y12819D01*
X70292Y12534D02*
X71436Y11391D01*
X70506Y8003D02*
X72782Y10279D01*
X70889Y7668D02*
X73500Y10279D01*
X70247Y9181D02*
X71345Y10279D01*
X70506Y8721D02*
X72064Y10279D01*
X72326Y7668D02*
X74937Y10279D01*
X72547D02*
X75159Y7668D01*
X71607D02*
X74219Y10279D01*
X71828D02*
X74440Y7668D01*
X73044D02*
X75656Y10279D01*
X72033Y5540D02*
X72271D01*
X71241Y6556D02*
X71311Y6486D01*
X71199Y6374D02*
X71382Y6556D01*
X71110Y10279D02*
X73722Y7668D01*
X70485Y10186D02*
X73003Y7668D01*
X70126Y9827D02*
X72285Y7668D01*
X70506Y8729D02*
X71567Y7668D01*
X70260Y6556D02*
X71382D01*
X71199Y6374D02*
X71382Y6556D01*
X70167Y5509D02*
X71214Y6556D01*
X70334Y5509D02*
X71199Y6374D01*
X70080Y11888D02*
X71012Y12819D01*
X69933Y12175D02*
X70717Y11391D01*
X69878Y12119D02*
X70506Y12747D01*
X69878Y12091D02*
X70506Y11463D01*
X69888Y9541D02*
X70627Y10279D01*
X69878Y9551D02*
X70506Y8923D01*
X69878Y9579D02*
X70506Y10207D01*
X68622Y9551D02*
X69878D01*
X68622Y12119D02*
X69878D01*
X68622Y12091D02*
X69878D01*
X67994Y12747D02*
X68622Y12119D01*
X67994Y11463D02*
X68622Y12091D01*
Y9579D02*
X69878D01*
X67994Y8923D02*
X68622Y9551D01*
X67994Y10207D02*
Y11463D01*
Y10207D02*
X68622Y9579D01*
X70506Y8010D02*
X70848Y7668D01*
X70523Y6556D02*
X70952Y6127D01*
X70506Y7668D02*
Y8923D01*
X70032Y6329D02*
X70593Y5767D01*
X69433Y5730D02*
X70260Y6556D01*
X69448Y5509D02*
X70496Y6556D01*
X69673Y5969D02*
X70133Y5509D01*
X69313Y5610D02*
X69415Y5509D01*
X67994Y7667D02*
X68622Y7039D01*
X69076D01*
X67994Y7667D02*
Y8923D01*
X67629Y6563D02*
X68364Y7298D01*
X69212Y5509D02*
X69433Y5730D01*
X69212Y5509D02*
X70334D01*
X68348Y6563D02*
X68824Y7039D01*
X68600Y6563D02*
X69076Y7039D01*
X72941Y4543D02*
X73133D01*
X72887Y4298D02*
X73133Y4543D01*
X72107Y5377D02*
X72271Y5540D01*
X72107Y5377D02*
X72271Y5540D01*
X72887Y4298D02*
X73133Y4543D01*
X72738Y4341D02*
X72834Y4245D01*
X72379Y3982D02*
X72475Y3885D01*
X72020Y3622D02*
X72116Y3526D01*
X71096Y4366D02*
X72107Y5377D01*
X71930Y3532D02*
X72941Y4543D01*
X71168Y4675D02*
X72033Y5540D01*
X71786Y5293D02*
X71905Y5174D01*
X70869Y2280D02*
X72887Y4298D01*
X71652Y3254D02*
X71930Y3532D01*
X71652Y3254D02*
X71930Y3532D01*
X71661Y3263D02*
X71757Y3167D01*
X74290Y3164D02*
X74435Y3019D01*
X75425D01*
X74021Y3164D02*
X74290D01*
X72172Y1315D02*
X73004Y483D01*
X72325D02*
X74862Y3019D01*
X73249Y2393D02*
X75159Y483D01*
X72890Y2034D02*
X74441Y483D01*
X72531Y1674D02*
X73723Y483D01*
X71096Y3254D02*
X71652D01*
X72003Y1146D02*
X74021Y3164D01*
X71096Y3254D02*
X71652D01*
X70869Y768D02*
X71625D01*
X71606Y483D02*
X74288Y3164D01*
X71812Y956D02*
X72286Y483D01*
X71625Y768D02*
X72003Y1146D01*
X71625Y768D02*
X72003Y1146D01*
X71426Y4934D02*
X71546Y4815D01*
X71067Y4575D02*
X71186Y4456D01*
X70334Y4397D02*
X70890D01*
X70334D02*
X70890D01*
X71168Y4675D01*
X70890Y4397D02*
X71168Y4675D01*
X69811Y2280D02*
X70786Y3254D01*
X70232D02*
X71038Y2449D01*
X69212Y5509D02*
X69433Y5730D01*
X68077Y3254D02*
X69052Y2280D01*
X67359Y3254D02*
X68334Y2280D01*
X67656D02*
X68631Y3254D01*
X69093Y2280D02*
X70068Y3254D01*
X69514D02*
X70489Y2280D01*
X68374D02*
X69349Y3254D01*
X68796D02*
X69770Y2280D01*
X70530D02*
X71504Y3254D01*
X70869Y768D02*
X71625D01*
X70951Y3254D02*
X71397Y2808D01*
X69845Y768D02*
X70131Y483D01*
X70888D02*
X71174Y768D01*
X71282D02*
X71567Y483D01*
X70169D02*
X70455Y768D01*
X70563D02*
X70849Y483D01*
X68014D02*
X68300Y768D01*
X68408D02*
X68694Y483D01*
X67296D02*
X67582Y768D01*
X67689D02*
X67975Y483D01*
X69126Y768D02*
X69412Y483D01*
X69451D02*
X69737Y768D01*
X68733Y483D02*
X69018Y768D01*
X62600Y6563D02*
X68389Y12352D01*
X62088Y6563D02*
X68600D01*
X63319D02*
X67994Y11239D01*
X64037Y6563D02*
X67994Y10521D01*
X64755Y6563D02*
X68197Y10005D01*
X65474Y6563D02*
X68556Y9646D01*
X66192Y6563D02*
X67994Y8365D01*
X66911Y6563D02*
X68004Y7657D01*
X61626Y7026D02*
X67994Y13394D01*
X61985Y6666D02*
X68030Y12712D01*
X58982Y7256D02*
X59355Y7629D01*
X59342Y6897D02*
X59715Y7270D01*
X56436Y12216D02*
X62088Y6563D01*
X59701Y6538D02*
X60074Y6911D01*
X57579Y6993D02*
X59896Y4675D01*
X57579Y6569D02*
X59782Y4366D01*
X61255Y5730D02*
X61476Y5509D01*
X60730D02*
X61476D01*
X60419Y5819D02*
X60792Y6192D01*
X60827Y5509D02*
X61152Y5833D01*
X61255Y5730D02*
X61476Y5509D01*
X60730Y4397D02*
X70334D01*
X60174D02*
X60730D01*
X60174D02*
X60730D01*
X60060Y6178D02*
X60433Y6551D01*
X59896Y4675D02*
X60174Y4397D01*
X58345Y4464D02*
X59227Y5345D01*
X59896Y4675D02*
X60174Y4397D01*
X59684Y4366D02*
X59945Y4627D01*
X58444Y4366D02*
X71096D01*
X57579Y5850D02*
X59063Y4366D01*
X58966D02*
X59586Y4986D01*
X58264Y7974D02*
X58637Y8348D01*
X58623Y7615D02*
X58996Y7988D01*
X57905Y8334D02*
X58278Y8707D01*
X57579Y6707D02*
Y6993D01*
Y6571D02*
X57790Y6782D01*
X57579Y5852D02*
X58149Y6423D01*
X57579Y6707D02*
Y6993D01*
Y5231D02*
Y6707D01*
X57186Y9052D02*
X57559Y9425D01*
X57546Y8693D02*
X57919Y9066D01*
X56468Y9771D02*
X56841Y10144D01*
X56827Y9411D02*
X57200Y9784D01*
X56376Y6799D02*
X56467Y6707D01*
Y5231D02*
Y6707D01*
X56376Y5795D02*
Y6799D01*
X56291Y6419D02*
X56376Y6335D01*
X57627Y5182D02*
X58508Y6063D01*
X57986Y4823D02*
X58867Y5704D01*
X56467Y4675D02*
Y5231D01*
Y4675D02*
Y5231D01*
X57579D02*
X58444Y4366D01*
X56745Y4397D02*
X57610Y3532D01*
X56467Y4675D02*
X56745Y4397D01*
X56467Y4675D02*
X56745Y4397D01*
X56376Y5616D02*
X56467Y5525D01*
X56376Y5368D02*
X56467Y5459D01*
X56376Y6335D02*
X56467Y6243D01*
X56376Y6086D02*
X56467Y6178D01*
X56376Y4898D02*
X56467Y4806D01*
X56376Y4649D02*
X56467Y4741D01*
X56376Y4617D02*
Y5795D01*
X65203Y3254D02*
X66178Y2280D01*
X65501D02*
X66475Y3254D01*
X64485D02*
X65460Y2280D01*
X64782D02*
X65757Y3254D01*
X66640D02*
X67615Y2280D01*
X66938D02*
X67912Y3254D01*
X65922D02*
X66897Y2280D01*
X66219D02*
X67194Y3254D01*
X62330D02*
X63305Y2280D01*
X62627D02*
X63602Y3254D01*
X61611D02*
X62586Y2280D01*
X61909D02*
X62883Y3254D01*
X63767D02*
X64741Y2280D01*
X64064D02*
X65039Y3254D01*
X63048D02*
X64023Y2280D01*
X63345D02*
X64320Y3254D01*
X65141Y483D02*
X65426Y768D01*
X65534D02*
X65820Y483D01*
X64422D02*
X64708Y768D01*
X64816D02*
X65102Y483D01*
X66577D02*
X66863Y768D01*
X66971D02*
X67257Y483D01*
X65859D02*
X66145Y768D01*
X66253D02*
X66538Y483D01*
X58444Y3254D02*
X71096D01*
X62661Y768D02*
X62946Y483D01*
X61942Y768D02*
X62228Y483D01*
X62267D02*
X62553Y768D01*
X63704Y483D02*
X63989Y768D01*
X64097D02*
X64383Y483D01*
X62985D02*
X63271Y768D01*
X63379D02*
X63665Y483D01*
X59456Y3254D02*
X60431Y2280D01*
X59753D02*
X60728Y3254D01*
X58738D02*
X59712Y2280D01*
X59035D02*
X60010Y3254D01*
X60893D02*
X61868Y2280D01*
X61190D02*
X62165Y3254D01*
X60175D02*
X61149Y2280D01*
X60472D02*
X61447Y3254D01*
X57888D02*
X58444D01*
X57888D02*
X58444D01*
X57610Y3532D02*
X57888Y3254D01*
X57610Y3532D02*
X57888Y3254D01*
X58019D02*
X58994Y2280D01*
X58316D02*
X59291Y3254D01*
X56880Y2280D02*
X57871Y3271D01*
X57598Y2280D02*
X58573Y3254D01*
X59787Y768D02*
X60073Y483D01*
X60112D02*
X60397Y768D01*
X59068D02*
X59354Y483D01*
X59393D02*
X59679Y768D01*
X61224D02*
X61509Y483D01*
X61548D02*
X61834Y768D01*
X60505D02*
X60791Y483D01*
X60830D02*
X61116Y768D01*
X57238Y483D02*
X57524Y768D01*
X57632D02*
X57917Y483D01*
X56519D02*
X56805Y768D01*
X56913D02*
X57199Y483D01*
X58350Y768D02*
X58636Y483D01*
X58675D02*
X58961Y768D01*
X57956Y483D02*
X58242Y768D01*
X49002Y65526D02*
X72994Y89517D01*
X55811D02*
X74682Y70646D01*
X48283Y65526D02*
X72275Y89517D01*
X48627D02*
X72619Y65526D01*
X50064Y89517D02*
X74056Y65526D01*
X50439D02*
X74431Y89517D01*
X49346D02*
X73337Y65526D01*
X49720D02*
X73712Y89517D01*
X46128Y65526D02*
X70120Y89517D01*
X46472D02*
X70464Y65526D01*
X45410D02*
X69402Y89517D01*
X45754D02*
X69745Y65526D01*
X47565D02*
X71557Y89517D01*
X47909D02*
X71901Y65526D01*
X46847D02*
X70838Y89517D01*
X47190D02*
X71182Y65526D01*
X53656Y89517D02*
X74682Y68491D01*
X53312Y65526D02*
X77304Y89517D01*
X55093D02*
X74682Y69928D01*
X54375Y89517D02*
X74682Y69210D01*
X55468Y65526D02*
X79460Y89517D01*
X56186Y65526D02*
X80178Y89517D01*
X54031Y65526D02*
X78023Y89517D01*
X54749Y65526D02*
X78741Y89517D01*
X51501D02*
X74682Y66336D01*
X50782Y89517D02*
X74682Y65617D01*
X52938Y89517D02*
X74682Y67773D01*
X52219Y89517D02*
X74682Y67054D01*
X51876Y65526D02*
X75867Y89517D01*
X52594Y65526D02*
X76586Y89517D01*
X51157Y65526D02*
X75149Y89517D01*
X32382Y65526D02*
X74682D01*
X34977Y89517D02*
X58969Y65526D01*
X35352D02*
X59344Y89517D01*
X34259D02*
X58251Y65526D01*
X34633D02*
X58625Y89517D01*
X36414D02*
X60406Y65526D01*
X36789D02*
X60781Y89517D01*
X35696D02*
X59687Y65526D01*
X36070D02*
X60062Y89517D01*
X32104D02*
X56095Y65526D01*
X32478D02*
X56470Y89517D01*
X31385D02*
X55377Y65526D01*
X31760D02*
X55752Y89517D01*
X33540D02*
X57532Y65526D01*
X33915D02*
X57907Y89517D01*
X32822D02*
X56814Y65526D01*
X33197D02*
X57188Y89517D01*
X40006D02*
X63998Y65526D01*
X40381D02*
X64373Y89517D01*
X39288D02*
X63280Y65526D01*
X39662D02*
X63654Y89517D01*
X44691Y65526D02*
X68683Y89517D01*
X45035D02*
X69027Y65526D01*
X40725Y89517D02*
X64716Y65526D01*
X44317Y89517D02*
X68309Y65526D01*
X37132Y89517D02*
X61124Y65526D01*
X37507D02*
X61499Y89517D01*
X31626Y65526D02*
X32382D01*
X31626D02*
X32382D01*
X38569Y89517D02*
X62561Y65526D01*
X38944D02*
X62936Y89517D01*
X37851D02*
X61843Y65526D01*
X38226D02*
X62217Y89517D01*
X43598D02*
X67590Y65526D01*
X43973D02*
X67965Y89517D01*
X56170Y64014D02*
X59388Y60796D01*
X55451Y64014D02*
X59388Y60077D01*
X51859Y64014D02*
X59388Y56485D01*
X51141Y64014D02*
X59388Y55767D01*
X54733Y64014D02*
X59388Y59359D01*
X52578Y64014D02*
X59388Y57204D01*
X41818Y65526D02*
X65810Y89517D01*
X42161D02*
X66153Y65526D01*
X41099D02*
X65091Y89517D01*
X41443D02*
X65435Y65526D01*
X42880Y89517D02*
X66872Y65526D01*
X43255D02*
X67246Y89517D01*
X42536Y65526D02*
X66528Y89517D01*
X40364Y64014D02*
X59328Y45051D01*
X50422Y64014D02*
X62204Y52232D01*
X49704Y64014D02*
X62204Y51514D01*
X54014Y64014D02*
X59388Y58640D01*
X53296Y64014D02*
X59388Y57922D01*
X46830Y64014D02*
X67994Y42850D01*
X47549Y64014D02*
X68172Y43391D01*
X48985Y64014D02*
X67994Y45005D01*
X48267Y64014D02*
X67994Y44287D01*
X44675Y64014D02*
X63639Y45051D01*
X32382Y64014D02*
X75060D01*
X39491Y43801D02*
X59704Y64014D01*
X39491Y43083D02*
X60422Y64014D01*
X46112D02*
X67994Y42132D01*
X45393Y64014D02*
X68365Y41043D01*
X39491Y42364D02*
X61141Y64014D01*
X39491Y41646D02*
X61859Y64014D01*
X42520D02*
X44079Y62456D01*
X39491Y52422D02*
X51083Y64014D01*
X41801D02*
X43840Y61975D01*
X41083Y64014D02*
X43840Y61257D01*
X39491Y50267D02*
X53238Y64014D01*
X34617D02*
X53581Y45051D01*
X39491Y51704D02*
X51801Y64014D01*
X39491Y50985D02*
X52520Y64014D01*
X31236Y59972D02*
X35278Y64014D01*
X31236Y57099D02*
X38151Y64014D01*
X31248Y65148D02*
X31626Y65526D01*
X31248Y65148D02*
X31626Y65526D01*
X33180Y64014D02*
X52144Y45051D01*
X33899Y64014D02*
X52862Y45051D01*
X33199Y53315D02*
X43899Y64014D01*
X32462D02*
X51426Y45051D01*
X39491Y47393D02*
X56112Y64014D01*
X39491Y46675D02*
X56830Y64014D01*
X39491Y48830D02*
X54675Y64014D01*
X39491Y48112D02*
X55393Y64014D01*
X39646D02*
X58610Y45051D01*
X39491Y44520D02*
X58985Y64014D01*
X39491Y45956D02*
X57549Y64014D01*
X39491Y45238D02*
X58267Y64014D01*
X36054D02*
X55018Y45051D01*
X36772Y64014D02*
X55736Y45051D01*
X39491Y49549D02*
X53957Y64014D01*
X35335D02*
X54299Y45051D01*
X38209Y64014D02*
X57173Y45051D01*
X38928Y64014D02*
X57891Y45051D01*
X37491Y64014D02*
X56455Y45051D01*
X29698Y77833D02*
X41383Y89517D01*
X29820Y77235D02*
X42102Y89517D01*
X28636Y78207D02*
X39946Y89517D01*
X29339Y78192D02*
X40665Y89517D01*
X22046D02*
X46037Y65526D01*
X22764Y89517D02*
X46756Y65526D01*
X20609Y89517D02*
X44601Y65526D01*
X21327Y89517D02*
X45319Y65526D01*
X14143Y89517D02*
X38135Y65526D01*
X14861Y89517D02*
X38853Y65526D01*
X12706Y89517D02*
X36698Y65526D01*
X13425Y89517D02*
X37416Y65526D01*
X19172Y89517D02*
X43164Y65526D01*
X19890Y89517D02*
X43882Y65526D01*
X10331Y63494D02*
X36354Y89517D01*
X18454D02*
X42445Y65526D01*
X28511Y89517D02*
X52503Y65526D01*
X29230Y89517D02*
X53222Y65526D01*
X29457Y76358D02*
X40290Y65526D01*
X28872Y76225D02*
X39572Y65526D01*
X29948Y89517D02*
X53940Y65526D01*
X30667Y89517D02*
X54659Y65526D01*
X29820Y77433D02*
X41727Y65526D01*
X29816Y76718D02*
X41008Y65526D01*
X24919Y89517D02*
X48911Y65526D01*
X483Y89517D02*
X96517D01*
X23482D02*
X47474Y65526D01*
X24201Y89517D02*
X48193Y65526D01*
X27075Y89517D02*
X51066Y65526D01*
X27793Y89517D02*
X51785Y65526D01*
X25638Y89517D02*
X49630Y65526D01*
X26356Y89517D02*
X50348Y65526D01*
X17017Y89517D02*
X28331Y78203D01*
X17735Y89517D02*
X29046Y78207D01*
X15580Y89517D02*
X27838Y77259D01*
X16298Y89517D02*
X27971Y77844D01*
X9832Y89517D02*
X33824Y65526D01*
X10551Y89517D02*
X34543Y65526D01*
X10331Y72115D02*
X27733Y89517D01*
X10331Y71396D02*
X28452Y89517D01*
X8396D02*
X32387Y65526D01*
X9114Y89517D02*
X33106Y65526D01*
X6959Y89517D02*
X31288Y65188D01*
X7677Y89517D02*
X31669Y65526D01*
X9007Y64326D02*
X34199Y89517D01*
X9695Y64295D02*
X34917Y89517D01*
X5522D02*
X30570Y64469D01*
X6240Y89517D02*
X30929Y64829D01*
X29324Y78207D02*
X29820Y77711D01*
Y76721D02*
Y77711D01*
X28334Y78207D02*
X29324D01*
X27838Y76721D02*
X28334Y76225D01*
X30102Y64002D02*
X31248Y65148D01*
X31236Y62868D02*
X32382Y64014D01*
X29324Y76225D02*
X29820Y76721D01*
X28334Y76225D02*
X29324D01*
X11269Y89517D02*
X35261Y65526D01*
X11988Y89517D02*
X35980Y65526D01*
X27838Y77711D02*
X28334Y78207D01*
X27838Y76721D02*
Y77711D01*
X10055Y63936D02*
X35636Y89517D01*
X7106Y87215D02*
X30211Y64110D01*
X7106Y86497D02*
X29852Y63751D01*
X7106Y85779D02*
X29724Y63160D01*
X20667Y60181D02*
X50004Y89517D01*
X21386Y60181D02*
X50723Y89517D01*
X10331Y62775D02*
X37073Y89517D01*
X19949Y60181D02*
X49286Y89517D01*
X8657Y50326D02*
X47849Y89517D01*
X9376Y50326D02*
X48567Y89517D01*
X9036Y59326D02*
X39228Y89517D01*
X483Y42869D02*
X47131Y89517D01*
X483Y47180D02*
X42820Y89517D01*
X483Y46462D02*
X43538Y89517D01*
X483Y52209D02*
X37791Y89517D01*
X483Y51491D02*
X38509Y89517D01*
X483Y44306D02*
X45694Y89517D01*
X483Y43588D02*
X46412Y89517D01*
X483Y45743D02*
X44257Y89517D01*
X483Y45025D02*
X44975Y89517D01*
X31236Y55662D02*
X39588Y64014D01*
X31236Y54944D02*
X40306Y64014D01*
X31236Y57817D02*
X37433Y64014D01*
X31236Y56380D02*
X38870Y64014D01*
X31236Y52788D02*
X42462Y64014D01*
X31236Y52070D02*
X43180Y64014D01*
X31236Y54225D02*
X41025Y64014D01*
X31236Y53507D02*
X41743Y64014D01*
X22500Y59858D02*
X52160Y89517D01*
X22859Y59499D02*
X52878Y89517D01*
X22104Y60181D02*
X51441Y89517D01*
X31236Y59254D02*
X35996Y64014D01*
X23356Y58558D02*
X54315Y89517D01*
X23356Y57840D02*
X55033Y89517D01*
X23219Y59140D02*
X53596Y89517D01*
X31236Y58536D02*
X36714Y64014D01*
X6694Y84035D02*
X29724Y61005D01*
X6334Y83676D02*
X29724Y60286D01*
X7106Y85060D02*
X29724Y62441D01*
X7053Y84394D02*
X29724Y61723D01*
X5616Y82958D02*
X29724Y58849D01*
X10331Y77525D02*
X29724Y58131D01*
X5975Y83317D02*
X29724Y59568D01*
X9710Y59281D02*
X27838Y77409D01*
X483Y59393D02*
X30607Y89517D01*
X483Y58675D02*
X31325Y89517D01*
X483Y60830D02*
X29170Y89517D01*
X483Y60112D02*
X29888Y89517D01*
X483Y57238D02*
X32762Y89517D01*
X483Y56519D02*
X33481Y89517D01*
X483Y57956D02*
X32044Y89517D01*
X483Y83062D02*
X29724Y53820D01*
X31236Y61409D02*
X33841Y64014D01*
X31236Y60691D02*
X34559Y64014D01*
X31236Y62846D02*
X32404Y64014D01*
X31236Y62128D02*
X33122Y64014D01*
X10331Y76806D02*
X29724Y57412D01*
X10331Y72496D02*
X29724Y53102D01*
X10331Y58465D02*
X28212Y76347D01*
X10331Y57746D02*
X28810Y76225D01*
X9850Y75850D02*
X29724Y55976D01*
X9317Y75664D02*
X29724Y55257D01*
X10069Y58922D02*
X27853Y76706D01*
X10210Y76209D02*
X29724Y56694D01*
X8599Y75664D02*
X29724Y54539D01*
X483Y74441D02*
X29148Y45776D01*
X483Y73723D02*
X28789Y45416D01*
X45398Y62640D02*
X46772Y64014D01*
X45758Y62281D02*
X47491Y64014D01*
X45326Y62713D02*
X45822Y62217D01*
X45258Y62713D02*
X45822Y62149D01*
X62920Y45051D01*
X45822Y61431D02*
X62202Y45051D01*
X45822Y61627D02*
X48209Y64014D01*
X45822Y61227D02*
Y62217D01*
X44752Y62713D02*
X46054Y64014D01*
X43957D02*
X45258Y62713D01*
X44336D02*
X45326D01*
X39491Y53859D02*
X49646Y64014D01*
X39491Y53141D02*
X50364Y64014D01*
X34329Y53008D02*
X45335Y64014D01*
X39726Y54812D02*
X48928Y64014D01*
X51290Y45051D02*
X63290D01*
X51290D02*
X63290D01*
X51516D02*
X60538Y54072D01*
X52235Y45051D02*
X60897Y53713D01*
X53672Y45051D02*
X62226Y53605D01*
X54390Y45051D02*
X62586Y53246D01*
X52953Y45051D02*
X61602Y53699D01*
X55827Y45051D02*
X62204Y51428D01*
X45326Y60731D02*
X45822Y61227D01*
X44366Y60731D02*
X60047Y45051D01*
X39726Y55531D02*
X44926Y60731D01*
X44336D02*
X45326D01*
X45564Y60970D02*
X61484Y45051D01*
X45084Y60731D02*
X60765Y45051D01*
X50798D02*
X60178Y54431D01*
X50362Y45051D02*
X51290D01*
X43238Y64014D02*
X44540Y62713D01*
X43840Y62217D02*
X44336Y62713D01*
X43840Y61257D02*
X44366Y60731D01*
X43840Y61227D02*
Y62217D01*
Y61227D02*
X44336Y60731D01*
X38993Y56236D02*
X43912Y61155D01*
X39471Y55995D02*
X44272Y60795D01*
X38275Y56236D02*
X43840Y61801D01*
X38240Y56236D02*
X39230D01*
X33917Y53315D02*
X44617Y64014D01*
X39230Y56236D02*
X39726Y55740D01*
X37744D02*
X38240Y56236D01*
X37744Y55705D02*
X38275Y56236D01*
X39726Y54750D02*
Y55740D01*
X39491Y54515D02*
X39726Y54750D01*
X37744D02*
Y55740D01*
Y54750D02*
X37979Y54515D01*
X34519Y52618D02*
X37979Y49157D01*
X34519Y51900D02*
X37979Y48439D01*
X34519Y52479D02*
X37744Y55705D01*
X34519Y51829D02*
Y52819D01*
X33033Y53315D02*
X34023D01*
X34519Y52819D01*
X32537D02*
X33033Y53315D01*
X32537Y51829D02*
X33033Y51333D01*
X34195Y51505D02*
X37979Y47721D01*
X33648Y51333D02*
X37979Y47002D01*
X34023Y51333D02*
X34519Y51829D01*
X33033Y51333D02*
X34023D01*
X39491Y34462D02*
X59819Y54790D01*
X55109Y45051D02*
X62204Y52146D01*
X39491Y35898D02*
X59388Y55796D01*
X39491Y35180D02*
X59460Y55150D01*
X39491Y51957D02*
X67994Y23453D01*
X39491Y27277D02*
X53553Y41339D01*
X39491Y28714D02*
X52116Y41339D01*
X39491Y27996D02*
X52834Y41339D01*
X39491Y39491D02*
X59388Y59388D01*
X39491Y39491D02*
X59388Y59388D01*
X39491Y40927D02*
X59388Y60825D01*
X39491Y40209D02*
X59388Y60107D01*
X39491Y37335D02*
X59388Y57233D01*
X39491Y36617D02*
X59388Y56515D01*
X39491Y38772D02*
X59388Y58670D01*
X39491Y38054D02*
X59388Y57952D01*
X55137Y41339D02*
X69146Y27331D01*
X55855Y41339D02*
X69864Y27331D01*
X51290Y41339D02*
X63290D01*
X54418D02*
X68525Y27233D01*
X53700Y41339D02*
X68166Y26874D01*
X51545Y41339D02*
X68358Y24526D01*
X52982Y41339D02*
X67994Y26327D01*
X52263Y41339D02*
X67994Y25608D01*
X39491Y25122D02*
X55708Y41339D01*
X51290D02*
X63290D01*
X39491Y26559D02*
X54271Y41339D01*
X39491Y25841D02*
X54989Y41339D01*
X39491Y22967D02*
X57863Y41339D01*
X50826D02*
X67999Y24167D01*
X39491Y24404D02*
X56426Y41339D01*
X39491Y23685D02*
X57145Y41339D01*
X50707Y45051D02*
X50779Y44979D01*
X50703Y44955D02*
X50798Y45051D01*
X50176Y44864D02*
X50285Y44755D01*
X49816Y44505D02*
X49898Y44423D01*
X49457Y44146D02*
X49613Y43990D01*
X49434Y43687D02*
X49530Y43782D01*
X49434Y43195D02*
Y44123D01*
Y42267D02*
Y43195D01*
X39726Y55314D02*
X50176Y44864D01*
X49434Y44123D02*
X50362Y45051D01*
X39648Y54673D02*
X49816Y44505D01*
X39491Y54112D02*
X49457Y44146D01*
X39491Y33743D02*
X49434Y43687D01*
X39491Y53394D02*
X49434Y43450D01*
X39491Y52675D02*
X49434Y42731D01*
X49802Y41899D02*
X49885Y41983D01*
X50161Y41540D02*
X50268Y41646D01*
X49434Y42731D02*
X49516Y42649D01*
X49443Y42259D02*
X49604Y42420D01*
X50744Y41421D02*
X50826Y41339D01*
X50362D02*
X51290D01*
X49434Y42267D02*
X50362Y41339D01*
X50679D02*
X50757Y41418D01*
X39491Y31588D02*
X49802Y41899D01*
X39491Y33025D02*
X49434Y42969D01*
X39491Y32306D02*
X49443Y42259D01*
X39491Y30151D02*
X50679Y41339D01*
X39491Y29433D02*
X51397Y41339D01*
X39491Y30870D02*
X50161Y41540D01*
X31703Y63336D02*
X38804Y56236D01*
X31344Y62977D02*
X38163Y56158D01*
X31236Y55901D02*
X33822Y53315D01*
X31236Y55183D02*
X33104Y53315D01*
X32063Y63695D02*
X50707Y45051D01*
X31236Y56620D02*
X37979Y49876D01*
X31236Y57338D02*
X37979Y50594D01*
X31236Y48478D02*
X37744Y54987D01*
X31236Y60930D02*
X37979Y54186D01*
X31236Y60212D02*
X37979Y53468D01*
X31236Y62367D02*
X37803Y55799D01*
X31236Y61649D02*
X37744Y55140D01*
X31236Y58775D02*
X37979Y52031D01*
X31236Y58056D02*
X37979Y51313D01*
X31236Y46352D02*
Y62868D01*
Y59493D02*
X37979Y52750D01*
X31236Y50633D02*
X32537Y51935D01*
X31236Y49915D02*
X32844Y51523D01*
X32537Y51829D02*
Y52819D01*
X31236Y51351D02*
X32537Y52653D01*
X31236Y52309D02*
X37979Y45565D01*
X31236Y51591D02*
X37979Y44847D01*
X31236Y45604D02*
X37979Y52348D01*
X31236Y49196D02*
X33373Y51333D01*
X31236Y47759D02*
X37979Y54503D01*
X31236Y47041D02*
X37979Y53785D01*
X31236Y54464D02*
X32709Y52991D01*
X31236Y53746D02*
X32537Y52444D01*
X31236Y46322D02*
X37979Y53066D01*
X31236Y53028D02*
X37979Y46284D01*
X30858Y45218D02*
X31236Y45596D01*
X30858Y45218D02*
X31236Y45596D01*
X29724Y63624D02*
X30102Y64002D01*
X29724Y63624D02*
X30102Y64002D01*
X29724Y62868D02*
Y63624D01*
Y62868D02*
Y63624D01*
Y46352D02*
Y62868D01*
X15488Y44943D02*
X29724Y59180D01*
X23356Y57121D02*
X29724Y63490D01*
X23356Y58752D02*
X29724Y52383D01*
X15488Y47098D02*
X29724Y61335D01*
X15488Y46380D02*
X29724Y60617D01*
X14841Y47888D02*
X29724Y62772D01*
X15200Y47529D02*
X29724Y62053D01*
X10331Y63156D02*
X28430Y45057D01*
X15488Y45661D02*
X29724Y59898D01*
X10331Y62438D02*
X28070Y44698D01*
X10025Y62025D02*
X27711Y44339D01*
X23331Y56622D02*
X29724Y50228D01*
X22971Y56263D02*
X29724Y49510D01*
X23356Y58034D02*
X29724Y51665D01*
X23356Y57315D02*
X29724Y50947D01*
X31236Y45596D02*
Y46352D01*
Y45596D02*
Y46352D01*
X22612Y55904D02*
X29724Y48791D01*
X22253Y55544D02*
X29724Y48073D01*
X20891Y55469D02*
X29724Y46636D01*
X20684Y45111D02*
X29724Y54151D01*
X20173Y55469D02*
X29507Y46135D01*
X21610Y55469D02*
X29724Y47355D01*
X15488Y44224D02*
X29724Y58461D01*
X22234Y44505D02*
X29724Y51995D01*
X21403Y45111D02*
X29724Y53432D01*
X21874Y44864D02*
X29724Y52714D01*
X28485Y42846D02*
X37979Y33352D01*
X28126Y42487D02*
X37979Y32634D01*
X29204Y43564D02*
X37979Y34789D01*
X28845Y43205D02*
X37979Y34071D01*
X22256Y28003D02*
X37979Y43727D01*
X22256Y26566D02*
X37979Y42290D01*
X22256Y29440D02*
X37979Y45164D01*
X22256Y28721D02*
X37979Y44445D01*
X22256Y33032D02*
X37979Y48756D01*
X22256Y32313D02*
X37979Y48037D01*
X22256Y34469D02*
X37979Y50193D01*
X22256Y33750D02*
X37979Y49474D01*
X22256Y30158D02*
X37979Y45882D01*
X21965Y26994D02*
X37979Y43008D01*
X22256Y31595D02*
X37979Y47319D01*
X22256Y30877D02*
X37979Y46600D01*
X27049Y41409D02*
X37979Y30478D01*
X26689Y41050D02*
X37979Y29760D01*
X27767Y42128D02*
X37979Y31915D01*
X27408Y41768D02*
X37979Y31197D01*
X25612Y39972D02*
X37979Y27605D01*
X25253Y39613D02*
X37979Y26886D01*
X26330Y40691D02*
X37979Y29042D01*
X25971Y40332D02*
X37979Y28323D01*
X24534Y38895D02*
X37979Y25450D01*
X24175Y38536D02*
X37979Y24731D01*
X22256Y25848D02*
X37979Y41572D01*
X24893Y39254D02*
X37979Y26168D01*
X21532Y22251D02*
X37979Y38698D01*
X22536Y38019D02*
X37979Y22576D01*
X23816Y38176D02*
X37979Y24013D01*
X23254Y38019D02*
X37979Y23294D01*
X31236Y50154D02*
X37979Y43410D01*
X31236Y49435D02*
X37979Y42692D01*
X22256Y43808D02*
X29724Y51277D01*
X31236Y50872D02*
X37979Y44128D01*
X22256Y35906D02*
X37979Y51629D01*
X22256Y35187D02*
X37979Y50911D01*
X22256Y41653D02*
X29724Y49122D01*
X31236Y48717D02*
X37979Y41973D01*
X15488Y42788D02*
X29724Y57024D01*
X21682Y42516D02*
X29724Y50559D01*
X9666Y61665D02*
X27352Y43979D01*
X15488Y43506D02*
X29724Y57743D01*
X15488Y41351D02*
X29724Y55588D01*
X15488Y40632D02*
X29724Y54869D01*
X15488Y42069D02*
X29724Y56306D01*
X22041Y42157D02*
X29724Y49840D01*
X31236Y46562D02*
X37979Y39818D01*
X31236Y45843D02*
X37979Y39100D01*
X31236Y47999D02*
X37979Y41255D01*
X31236Y47280D02*
X37979Y40536D01*
X30282Y44642D02*
X37979Y36944D01*
X29922Y44283D02*
X37979Y36226D01*
X31000Y45361D02*
X37979Y38381D01*
X30641Y45001D02*
X37979Y37663D01*
X22288Y39531D02*
X29724Y46967D01*
X22903Y39531D02*
X29724Y46352D01*
X22256Y40935D02*
X29724Y48403D01*
X21849Y39809D02*
X29724Y47685D01*
X23651Y38019D02*
X31236Y45604D01*
X29563Y43924D02*
X37979Y35507D01*
X24037Y38397D02*
X30858Y45218D01*
X10331Y77144D02*
X22704Y89517D01*
X10331Y76425D02*
X23423Y89517D01*
X9870Y78120D02*
X21267Y89517D01*
X10230Y77761D02*
X21986Y89517D01*
X9885Y73106D02*
X26296Y89517D01*
X10244Y72747D02*
X27015Y89517D01*
X10331Y76330D02*
Y77660D01*
X9665Y73326D02*
X10331Y72660D01*
X7106Y84695D02*
X11928Y89517D01*
X8639Y78326D02*
X19831Y89517D01*
X7106Y86132D02*
X10491Y89517D01*
X7106Y85414D02*
X11209Y89517D01*
X8668Y73326D02*
X24859Y89517D01*
X9386Y73326D02*
X25578Y89517D01*
X9357Y78326D02*
X20549Y89517D01*
X9665Y78326D02*
X10331Y77660D01*
Y71777D02*
X21927Y60181D01*
X19822D02*
X21000D01*
X10331Y71330D02*
Y72660D01*
Y62330D02*
Y63660D01*
X21000Y60181D02*
X22178D01*
X21927D02*
X22358Y59749D01*
X21918Y59994D02*
X22104Y60181D01*
X19797Y60156D02*
X19996Y59956D01*
X9665Y64326D02*
X10331Y63660D01*
X9665Y61664D02*
X10331Y62330D01*
X9599Y70664D02*
X10331Y71396D01*
X9665Y70664D02*
X10331Y71330D01*
X10195Y71194D02*
X21209Y60181D01*
X9836Y70835D02*
X20490Y60181D01*
X8570Y70664D02*
X19438Y59796D01*
X9288Y70664D02*
X19797Y60156D01*
X8335Y78326D02*
X9665D01*
X9570Y75664D02*
X10331Y76425D01*
X7669Y76330D02*
Y77660D01*
Y76330D02*
X8335Y75664D01*
X6379Y88279D02*
X7617Y89517D01*
X6738Y87920D02*
X8336Y89517D01*
X5661Y88998D02*
X6181Y89517D01*
X6020Y88638D02*
X6899Y89517D01*
X7098Y87561D02*
X9054Y89517D01*
X7106Y86850D02*
X9773Y89517D01*
X7106Y84447D02*
Y87553D01*
X7669Y77660D02*
X8335Y78326D01*
X9665Y75664D02*
X10331Y76330D01*
X8335Y73326D02*
X9665D01*
X8335Y64326D02*
X9665D01*
X8335Y61664D02*
X9665D01*
X8335Y70664D02*
X9665D01*
X8335Y75664D02*
X9665D01*
X7669Y72660D02*
X8335Y73326D01*
X7669Y71330D02*
Y72660D01*
Y63660D02*
X8335Y64326D01*
X7669Y62330D02*
X8335Y61664D01*
X7669Y71330D02*
X8335Y70664D01*
X7669Y62330D02*
Y63660D01*
X22924Y59183D02*
X23356Y58752D01*
X23055Y58976D02*
X23219Y59140D01*
X22378Y59736D02*
X22500Y59858D01*
X22756Y59395D02*
X22859Y59499D01*
X23356Y56647D02*
Y57825D01*
X23189Y56955D02*
X23356Y57121D01*
Y57825D02*
Y59003D01*
X23266Y58469D02*
X23356Y58558D01*
X22178Y60181D02*
X23356Y59003D01*
X8949Y61664D02*
X26993Y43620D01*
X10331Y58127D02*
X25915Y42543D01*
X10331Y57409D02*
X25556Y42183D01*
X23131Y56821D02*
X23331Y56622D01*
X22858Y56377D02*
X22971Y56263D01*
X22504Y56012D02*
X22612Y55904D01*
X22071Y55727D02*
X22253Y55544D01*
X22178Y55469D02*
X23356Y56647D01*
X21000Y55469D02*
X22178D01*
X21704D02*
X21870Y55636D01*
X21545Y55533D02*
X21610Y55469D01*
X14122Y48606D02*
X20985Y55469D01*
X19822D02*
X21000D01*
X20267D02*
X20356Y55559D01*
X13763Y48966D02*
X20267Y55469D01*
X10011Y57010D02*
X25197Y41824D01*
X14481Y48247D02*
X21704Y55469D01*
X8920Y56664D02*
X20474Y45111D01*
X9638Y56664D02*
X21192Y45111D01*
X18644Y59003D02*
X19822Y60181D01*
X19438Y59796D02*
X19552Y59683D01*
X19079Y59437D02*
X19187Y59329D01*
X18719Y59078D02*
X18902Y58896D01*
X18644Y58876D02*
X19949Y60181D01*
X18644Y58435D02*
X18708Y58370D01*
X18644Y57825D02*
Y59003D01*
Y56647D02*
Y57825D01*
X8335Y59326D02*
X9665D01*
X10331Y58660D01*
X7669D02*
X8335Y59326D01*
X7669Y57330D02*
Y58660D01*
X10239Y49752D02*
X18644Y58158D01*
X10956Y49751D02*
X18644Y57439D01*
X9880Y50111D02*
X18644Y58876D01*
X10331Y57330D02*
Y58660D01*
X18967Y56325D02*
X19089Y56447D01*
X19326Y55966D02*
X19430Y56069D01*
X18644Y56998D02*
X18917Y56725D01*
X18644Y56721D02*
X18831Y56907D01*
X19685Y55606D02*
X19849Y55770D01*
X19900Y55742D02*
X20173Y55469D01*
X18644Y56647D02*
X19822Y55469D01*
X13404Y49325D02*
X19685Y55606D01*
X9665Y56664D02*
X10331Y57330D01*
X9665Y50326D02*
X10240Y49751D01*
X7669Y57330D02*
X8335Y56664D01*
X9665D01*
X12393Y49751D02*
X18967Y56325D01*
X13044Y49684D02*
X19326Y55966D01*
X11674Y49751D02*
X18644Y56721D01*
X4804Y89517D02*
X5215Y89106D01*
X2447D02*
X5553D01*
X4085Y89517D02*
X4497Y89106D01*
X4332D02*
X4744Y89517D01*
X5553Y89106D02*
X7106Y87553D01*
X5050Y89106D02*
X5462Y89517D01*
X483Y75917D02*
X14083Y89517D01*
X483Y75198D02*
X14802Y89517D01*
X483Y77354D02*
X12646Y89517D01*
X483Y76635D02*
X13365Y89517D01*
X483Y73043D02*
X16957Y89517D01*
X483Y72325D02*
X17675Y89517D01*
X483Y74480D02*
X15520Y89517D01*
X483Y73762D02*
X16238Y89517D01*
X5553Y82894D02*
X7106Y84447D01*
X4242Y82894D02*
X8811Y78326D01*
X5305Y82894D02*
X7106Y84695D01*
X2447Y82894D02*
X5553D01*
X3524D02*
X8214Y78205D01*
X4961Y82894D02*
X9530Y78326D01*
X2806Y82894D02*
X7855Y77845D01*
X483Y79470D02*
X7669Y72283D01*
X483Y84499D02*
X7669Y77312D01*
X483Y83781D02*
X7669Y76594D01*
X483Y78791D02*
X4586Y82894D01*
X483Y78072D02*
X5305Y82894D01*
X483Y82344D02*
X9501Y73326D01*
X483Y81625D02*
X8782Y73326D01*
X483Y80907D02*
X8199Y73190D01*
X483Y80188D02*
X7840Y72831D01*
X3367Y89517D02*
X3779Y89106D01*
X3613D02*
X4025Y89517D01*
X2648D02*
X3060Y89106D01*
X2895D02*
X3307Y89517D01*
X1930D02*
X2394Y89053D01*
X1212Y89517D02*
X2035Y88694D01*
X894Y84447D02*
Y87553D01*
X493Y89517D02*
X1676Y88334D01*
X483Y88130D02*
X1870Y89517D01*
X483Y88848D02*
X1152Y89517D01*
X483Y88809D02*
X1317Y87975D01*
X483Y87412D02*
X2588Y89517D01*
X894Y87553D02*
X2447Y89106D01*
X483Y88091D02*
X958Y87616D01*
X483Y87373D02*
X894Y86961D01*
Y84447D02*
X2447Y82894D01*
X483Y83101D02*
X1362Y83980D01*
X483Y82383D02*
X1721Y83621D01*
X483Y80227D02*
X3150Y82894D01*
X483Y79509D02*
X3868Y82894D01*
X483Y81664D02*
X2080Y83262D01*
X483Y80946D02*
X2439Y82902D01*
X483Y85975D02*
X894Y86387D01*
X483Y85936D02*
X894Y85524D01*
X483Y86693D02*
X894Y87105D01*
X483Y86654D02*
X894Y86242D01*
X483Y84538D02*
X894Y84950D01*
X483Y83819D02*
X1002Y84339D01*
X483Y85256D02*
X894Y85668D01*
X483Y85217D02*
X894Y84806D01*
X483Y66577D02*
X9570Y75664D01*
X483Y61548D02*
X9599Y70664D01*
X483Y73004D02*
X9161Y64326D01*
X483Y62267D02*
X8880Y70664D01*
X483Y69412D02*
X26634Y43261D01*
X483Y68694D02*
X26274Y42902D01*
X483Y75159D02*
X18644Y56998D01*
X483Y67975D02*
X9132Y59326D01*
X483Y70888D02*
X19112Y89517D01*
X483Y65859D02*
X24141Y89517D01*
X483Y71606D02*
X18394Y89517D01*
X483Y67296D02*
X8851Y75664D01*
X483Y78033D02*
X19079Y59437D01*
X483Y77315D02*
X18719Y59078D01*
X483Y76596D02*
X18644Y58435D01*
X483Y75878D02*
X18644Y57716D01*
X483Y60073D02*
X10805Y49751D01*
X483Y59354D02*
X9511Y50326D01*
X483Y58636D02*
X8793Y50326D01*
X483Y48617D02*
X8530Y56664D01*
X483Y55044D02*
X10776Y44751D01*
X483Y54325D02*
X9482Y45326D01*
X483Y47898D02*
X9249Y56664D01*
X483Y53607D02*
X8764Y45326D01*
X483Y62228D02*
X12960Y49751D01*
X483Y61509D02*
X12241Y49751D01*
X483Y53646D02*
X8501Y61664D01*
X483Y52927D02*
X9220Y61664D01*
X483Y64383D02*
X20064Y44802D01*
X483Y62946D02*
X19744Y43685D01*
X483Y63665D02*
X19744Y44403D01*
X483Y60791D02*
X11523Y49751D01*
X483Y71567D02*
X8030Y64020D01*
X483Y62985D02*
X8248Y70751D01*
X483Y63704D02*
X7889Y71110D01*
X483Y70849D02*
X7670Y63661D01*
X483Y67257D02*
X8414Y59326D01*
X483Y66538D02*
X8015Y59006D01*
X483Y70131D02*
X7669Y62944D01*
X483Y65820D02*
X7669Y58633D01*
X483Y69451D02*
X7669Y76638D01*
X483Y68733D02*
X7875Y76125D01*
X483Y78752D02*
X7669Y71565D01*
X483Y70169D02*
X7669Y77356D01*
X483Y68014D02*
X8234Y75765D01*
X483Y72286D02*
X8443Y64326D01*
X483Y65141D02*
X7669Y72327D01*
X483Y64422D02*
X7669Y71609D01*
X483Y57199D02*
X7845Y49836D01*
X483Y49335D02*
X8073Y56926D01*
X483Y56481D02*
X7669Y49294D01*
X483Y55762D02*
X7669Y48575D01*
X483Y52888D02*
X8190Y45181D01*
X483Y52170D02*
X7831Y44822D01*
X483Y51452D02*
X7669Y44265D01*
X483Y50733D02*
X7669Y43546D01*
X483Y55083D02*
X7700Y62300D01*
X483Y54364D02*
X8059Y61940D01*
X483Y65102D02*
X7669Y57915D01*
X483Y55801D02*
X7669Y62988D01*
X483Y57917D02*
X8205Y50195D01*
X483Y50054D02*
X7714Y57285D01*
X483Y50772D02*
X7669Y57959D01*
X22256Y44047D02*
X24838Y41465D01*
X22256Y43329D02*
X24478Y41106D01*
X22256Y43227D02*
Y44483D01*
X21628Y42571D02*
X22256Y41943D01*
X21947Y42919D02*
X24119Y40747D01*
X22256Y41892D02*
X23760Y40387D01*
X22256Y40687D02*
Y41943D01*
Y41173D02*
X23401Y40028D01*
X20372Y45111D02*
X21628D01*
X22256Y44483D01*
X19744D02*
X20372Y45111D01*
X19744Y43227D02*
X20372Y42599D01*
X21628D02*
X22256Y43227D01*
X21577Y42571D02*
X22256Y41892D01*
X20372Y42599D02*
X21628D01*
X20372Y42571D02*
X21628D01*
X22139Y40571D02*
X23042Y39669D01*
X22128Y38019D02*
X22903D01*
X21780Y40212D02*
X22461Y39531D01*
X22128D02*
X22903D01*
X23659Y38019D02*
X24037Y38397D01*
X23659Y38019D02*
X24037Y38397D01*
X22903Y38019D02*
X23659D01*
X22903D02*
X23659D01*
X21628Y40059D02*
X22256Y40687D01*
X21628Y40031D02*
X22128Y39531D01*
X20372Y40059D02*
X21628D01*
X20372Y40031D02*
X21628D01*
Y37519D02*
X22128Y38019D01*
X20372Y37519D02*
X21628D01*
X19744Y39403D02*
X20372Y40031D01*
X19744Y38147D02*
X20372Y37519D01*
X19744Y43227D02*
Y44483D01*
X15488Y43617D02*
Y44373D01*
Y43617D02*
Y44373D01*
Y43617D02*
Y44373D01*
Y44349D02*
X20089Y39748D01*
X15488Y39914D02*
X19744Y44171D01*
X15488Y45786D02*
X19744Y41529D01*
X15488Y45068D02*
X19744Y40811D01*
X15488Y46485D02*
Y47241D01*
Y46485D02*
Y47241D01*
X15110Y47619D02*
X15488Y47241D01*
X15110Y47619D02*
X15488Y47241D01*
Y47223D02*
X20256Y42454D01*
X15488Y46504D02*
X19897Y42095D01*
X13976Y44751D02*
Y46485D01*
X15488Y44373D02*
Y46485D01*
X19744Y41943D02*
X20372Y42571D01*
X19744Y40687D02*
X20372Y40059D01*
X16419Y38690D02*
X20350Y42621D01*
X19744Y40687D02*
Y41943D01*
X17137Y37971D02*
X19799Y40633D01*
X17496Y37612D02*
X20158Y40274D01*
X16778Y38331D02*
X19744Y41297D01*
Y38147D02*
Y39403D01*
X15488Y43631D02*
X19744Y39374D01*
X16059Y39049D02*
X19991Y42981D01*
X15488Y39621D02*
Y43617D01*
X15700Y39408D02*
X19744Y43452D01*
X15488Y42912D02*
X19744Y38656D01*
X13976Y38865D02*
X14354Y38487D01*
X13976Y38865D02*
Y39621D01*
Y38865D02*
X14354Y38487D01*
X22256Y37342D02*
X22933Y38019D01*
X22256Y36624D02*
X23651Y38019D01*
X21685Y37491D02*
X22214Y38019D01*
X22048Y34979D02*
X22256Y35187D01*
Y32439D02*
Y34951D01*
Y29899D02*
Y32411D01*
Y34979D02*
Y37491D01*
X19744Y34951D02*
X22256D01*
X19744Y32439D02*
X22256D01*
X19744Y37491D02*
X22256D01*
X19744Y34979D02*
X22256D01*
X19744Y32411D02*
X22256D01*
X22064Y29871D02*
X22256Y29679D01*
Y25447D02*
Y26703D01*
X21628Y24819D02*
X22256Y25447D01*
Y27359D02*
Y29871D01*
X21628Y27331D02*
X22256Y26703D01*
X19744Y29871D02*
X22256D01*
X19744Y27359D02*
X22256D01*
X19744Y29899D02*
X22256D01*
X20372Y24819D02*
X21628D01*
X20372Y22251D02*
X21628D01*
X20372Y27331D02*
X21628D01*
X19744Y25447D02*
X20372Y24819D01*
X18312Y36991D02*
X19744Y38423D01*
X20248Y37491D02*
X20325Y37567D01*
X17856Y37253D02*
X19744Y39142D01*
X18118Y36991D02*
X19744D01*
X19030D02*
X19966Y37926D01*
X19744Y36991D02*
Y37491D01*
X17362Y35479D02*
X18118D01*
X17362D02*
X18118D01*
X15488Y42194D02*
X20191Y37491D01*
X15488Y41476D02*
X19744Y37219D01*
X15488Y40757D02*
X19254Y36991D01*
X15488Y40039D02*
X18536Y36991D01*
X15488Y39621D02*
X18118Y36991D01*
X16984Y35857D02*
X17362Y35479D01*
X14354Y38487D02*
X16984Y35857D01*
X17362Y35479D01*
X19744Y34831D02*
X19864Y34951D01*
X19744Y30035D02*
X19880Y29899D01*
X19744D02*
Y32411D01*
Y29802D02*
X19813Y29871D01*
X20264Y27359D02*
X20333Y27291D01*
X19744Y26703D02*
X20372Y27331D01*
X19744Y27359D02*
Y29871D01*
Y25447D02*
Y26703D01*
Y34979D02*
Y35479D01*
Y35063D02*
X19828Y34979D01*
X18118Y35479D02*
X19744D01*
X19328D02*
X19744Y35063D01*
X17892Y35479D02*
X19744Y33627D01*
Y32439D02*
Y34951D01*
X18610Y35479D02*
X19744Y34345D01*
X12978Y49751D02*
X13356Y49373D01*
X12978Y49751D02*
X13356Y49373D01*
X12222Y49751D02*
X12978D01*
X12222D02*
X12978D01*
X12960D02*
X15488Y47223D01*
X13356Y49373D02*
X15110Y47619D01*
X12222Y48239D02*
X13976Y46485D01*
X11703Y44751D02*
X13707Y46754D01*
X11597Y48239D02*
X13976Y45860D01*
X10879Y48239D02*
X13976Y45142D01*
X9405Y45326D02*
X12270Y48191D01*
X9894Y45097D02*
X12629Y47832D01*
X10200Y48200D02*
X13649Y44751D01*
X10985D02*
X13348Y47114D01*
X9841Y47840D02*
X12931Y44751D01*
X10266D02*
X12989Y47473D01*
X13858Y44751D02*
X13976Y44869D01*
X13724Y43239D02*
X13976Y42987D01*
X12422Y44751D02*
X13976Y46305D01*
X13140Y44751D02*
X13976Y45587D01*
Y39621D02*
Y43239D01*
Y38865D02*
Y39621D01*
X13005Y43239D02*
X13976Y42268D01*
X12287Y43239D02*
X13976Y41550D01*
X11568Y43239D02*
X13976Y40831D01*
X10850Y43239D02*
X13976Y40113D01*
X10240Y44751D02*
X13976D01*
X10240Y43239D02*
X13976D01*
X9705Y36286D02*
X13976Y40558D01*
X10064Y35927D02*
X13976Y39840D01*
X10186Y43185D02*
X13976Y39395D01*
X9026Y36326D02*
X13976Y41276D01*
X10240Y49751D02*
X12222D01*
X10240Y48239D02*
X12222D01*
X8335Y50326D02*
X9665D01*
X7669Y48330D02*
Y49660D01*
X9665Y47664D02*
X10240Y48239D01*
X8686Y45326D02*
X11600Y48239D01*
X7669Y48330D02*
X8335Y47664D01*
X9665D01*
X7669Y49660D02*
X8335Y50326D01*
X483Y40714D02*
X7884Y48115D01*
X483Y42151D02*
X7669Y49338D01*
X483Y41433D02*
X7669Y48619D01*
X483Y37840D02*
X10882Y48239D01*
X483Y38559D02*
X9588Y47664D01*
X483Y39996D02*
X8243Y47756D01*
X483Y39277D02*
X8870Y47664D01*
X8580D02*
X11494Y44751D01*
X9299Y47664D02*
X12213Y44751D01*
X8335Y45326D02*
X9665D01*
X10240Y44751D01*
X9665Y42664D02*
X10240Y43239D01*
X8335Y36326D02*
X9665D01*
X7669Y43330D02*
X8335Y42664D01*
X9665D01*
X7669Y44660D02*
X8335Y45326D01*
X483Y36404D02*
X7669Y43590D01*
Y43330D02*
Y44660D01*
X483Y37122D02*
X7669Y44309D01*
X483Y44986D02*
X9143Y36326D01*
X483Y44267D02*
X8424Y36326D01*
X483Y43549D02*
X8020Y36011D01*
X9270Y42664D02*
X19744Y32190D01*
X8551Y42664D02*
X19744Y31471D01*
X483Y32093D02*
X11629Y43239D01*
X9827Y42826D02*
X19744Y32908D01*
X483Y29938D02*
X13784Y43239D01*
X483Y29219D02*
X13976Y42713D01*
X483Y31375D02*
X12347Y43239D01*
X483Y30656D02*
X13066Y43239D01*
X483Y49296D02*
X19744Y30035D01*
X483Y48578D02*
X19744Y29316D01*
X483Y50015D02*
X19744Y30753D01*
X483Y32812D02*
X10910Y43239D01*
X483Y46423D02*
X19973Y26932D01*
X483Y45704D02*
X19744Y26442D01*
X483Y47859D02*
X19744Y28598D01*
X483Y47141D02*
X19744Y27879D01*
X9719Y31272D02*
X15644Y37197D01*
X10078Y30913D02*
X16004Y36838D01*
X10331Y35475D02*
X13976Y39121D01*
X10331Y34757D02*
X14208Y38634D01*
X10331Y29728D02*
X16722Y36119D01*
X10331Y35138D02*
X19744Y25724D01*
X10331Y30446D02*
X16363Y36479D01*
X10331Y29330D02*
Y30660D01*
X8336Y31326D02*
X14926Y37916D01*
X9055Y31326D02*
X15285Y37556D01*
X9665Y36326D02*
X10331Y35660D01*
X9665Y33664D02*
X10331Y34330D01*
X483Y24191D02*
X14567Y38275D01*
X9319Y22251D02*
X19744Y32676D01*
X483Y28501D02*
X13976Y41995D01*
X9665Y28664D02*
X10331Y29330D01*
Y34330D02*
Y35660D01*
X7669Y34330D02*
X8335Y33664D01*
X7669Y35660D02*
X8335Y36326D01*
X7669Y34330D02*
Y35660D01*
X483Y38520D02*
X8006Y30997D01*
X483Y27783D02*
X7669Y34969D01*
X483Y37802D02*
X7669Y30615D01*
X483Y37083D02*
X7669Y29896D01*
X483Y35685D02*
X7898Y43101D01*
X483Y34967D02*
X8257Y42742D01*
X483Y42831D02*
X7669Y35644D01*
X483Y42112D02*
X7669Y34925D01*
X483Y33530D02*
X9617Y42664D01*
X483Y39957D02*
X9114Y31326D01*
X483Y34248D02*
X8899Y42664D01*
X483Y39238D02*
X8395Y31326D01*
X8335D02*
X9665D01*
X10331Y30660D01*
X8335Y33664D02*
X9665D01*
X7669Y30660D02*
X8335Y31326D01*
X7669Y30659D02*
X8336Y31326D01*
X8335Y28664D02*
X9665D01*
X7669Y29330D02*
Y30660D01*
Y29330D02*
X8335Y28664D01*
X483Y25627D02*
X8520Y33664D01*
X483Y24909D02*
X9238Y33664D01*
X483Y27064D02*
X7709Y34290D01*
X483Y26346D02*
X8068Y33931D01*
X483Y31336D02*
X9568Y22251D01*
X483Y22754D02*
X7669Y29940D01*
X483Y23472D02*
X7669Y30659D01*
X52725Y12494D02*
X68861Y28629D01*
X53444Y12494D02*
X69579Y28629D01*
X51288Y12494D02*
X68023Y29228D01*
X52007Y12494D02*
X68382Y28869D01*
X55599Y12494D02*
X68273Y25168D01*
X56238Y12414D02*
X68643Y24819D01*
X54162Y12494D02*
X67994Y26326D01*
X54880Y12494D02*
X67994Y25608D01*
X39491Y28967D02*
X55964Y12494D01*
X39491Y28249D02*
X55246Y12494D01*
X39491Y27530D02*
X54527Y12494D01*
X39491Y26812D02*
X53809Y12494D01*
X39491Y41180D02*
X68601Y12070D01*
X49852Y12494D02*
X68575Y31217D01*
X49133Y12494D02*
X68216Y31576D01*
X50570Y12494D02*
X67994Y29918D01*
X56158Y12494D02*
X56436Y12216D01*
X56158Y12494D02*
X56436Y12216D01*
X55602Y12494D02*
X56158D01*
X55602D02*
X56158D01*
X55385Y10843D02*
X55763Y11221D01*
X55396Y10843D02*
X55674Y10565D01*
X54840Y10843D02*
X55396D01*
X55674Y10565D01*
X49191Y12494D02*
X55602D01*
X49191Y11382D02*
X55602D01*
X53483D02*
X54023Y10843D01*
X50080D02*
X54840D01*
X54666D02*
X55206Y11382D01*
X54840Y10843D02*
X55396D01*
X53948D02*
X54488Y11382D01*
X54202D02*
X54742Y10843D01*
X48635Y12494D02*
X49191D01*
X48635D02*
X49191D01*
X48357Y12216D02*
X48635Y12494D01*
X48357Y12216D02*
X48635Y12494D01*
X39491Y20346D02*
X47989Y11848D01*
X39491Y19628D02*
X47630Y11488D01*
X39491Y18909D02*
X47271Y11129D01*
X39491Y18191D02*
X46912Y10770D01*
X39491Y26094D02*
X53091Y12494D01*
X39491Y25375D02*
X52372Y12494D01*
X39491Y24657D02*
X51654Y12494D01*
X39491Y23938D02*
X50935Y12494D01*
X39491Y23220D02*
X50217Y12494D01*
X39491Y22501D02*
X49498Y12494D01*
X39491Y21783D02*
X48780Y12494D01*
X39491Y21065D02*
X48348Y12207D01*
X51328Y11382D02*
X51868Y10843D01*
X51793D02*
X52332Y11382D01*
X50610D02*
X51149Y10843D01*
X51074D02*
X51614Y11382D01*
X52765D02*
X53305Y10843D01*
X53229D02*
X53769Y11382D01*
X52047D02*
X52586Y10843D01*
X52511D02*
X53051Y11382D01*
X49637Y10843D02*
X50177Y11382D01*
X49524Y10843D02*
X50080D01*
X49182Y11373D02*
X49713Y10843D01*
X49524D02*
X50080D01*
X49891Y11382D02*
X50431Y10843D01*
X50356D02*
X50896Y11382D01*
X48823Y11014D02*
X49259Y10578D01*
X49246Y10565D02*
X49524Y10843D01*
X44193Y8991D02*
X67994Y32792D01*
X44912Y8991D02*
X67994Y32073D01*
X39491Y30404D02*
X63331Y6563D01*
X55749Y10489D02*
X56123Y10862D01*
X39491Y29686D02*
X62613Y6563D01*
X55602Y11382D02*
X61255Y5730D01*
X54920Y11382D02*
X60794Y5509D01*
X55674Y10565D02*
X60730Y5509D01*
X39491Y34715D02*
X67642Y6563D01*
X39491Y33996D02*
X66924Y6563D01*
X39491Y33278D02*
X66205Y6563D01*
X39491Y32559D02*
X65487Y6563D01*
X39491Y5725D02*
X68049Y34283D01*
X39491Y5006D02*
X68408Y33924D01*
X39491Y31841D02*
X64768Y6563D01*
X39491Y31123D02*
X64050Y6563D01*
X56109Y10130D02*
X56482Y10503D01*
X54416Y9731D02*
X54702Y9446D01*
X53698Y9731D02*
X53983Y9446D01*
X53988D02*
X54274Y9731D01*
X54840Y9446D02*
X55126D01*
X54840D02*
X55126D01*
X54840Y9731D02*
X55126Y9446D01*
X54706D02*
X54916Y9656D01*
X50080Y9731D02*
X54840D01*
X51223Y9446D02*
X54840D01*
X51542Y9731D02*
X51828Y9446D01*
X51832D02*
X52118Y9731D01*
X52979D02*
X53265Y9446D01*
X53269D02*
X53555Y9731D01*
X52261D02*
X52546Y9446D01*
X52551D02*
X52837Y9731D01*
X46799Y8991D02*
X49191Y11382D01*
X49246Y10565D02*
X49524Y10843D01*
X45132Y8991D02*
X48357Y12216D01*
X48463Y10655D02*
X48900Y10218D01*
X47067Y8991D02*
X49459Y11382D01*
X47672Y8991D02*
X49246Y10565D01*
X39491Y11725D02*
X43454Y7761D01*
X39491Y11007D02*
X44064Y6433D01*
X39491Y17473D02*
X46552Y10411D01*
X39491Y16754D02*
X46193Y10052D01*
X39491Y16036D02*
X45834Y9692D01*
X39491Y15317D02*
X45475Y9333D01*
X39491Y14599D02*
X45099Y8991D01*
X39491Y13880D02*
X44380Y8991D01*
X39491Y13162D02*
X43872Y8781D01*
X39491Y12444D02*
X43513Y8421D01*
X51114Y9446D02*
X51400Y9731D01*
X50667Y9446D02*
X51223D01*
X50824Y9731D02*
X51110Y9446D01*
X50667D02*
X51223D01*
X49941Y8991D02*
X50681Y9731D01*
X50389Y9168D02*
X50667Y9446D01*
X50105Y9731D02*
X50529Y9308D01*
X50389Y9168D02*
X50667Y9446D01*
X48104Y10296D02*
X48541Y9859D01*
X49339Y8991D02*
X50080Y9731D01*
X47745Y9937D02*
X48182Y9500D01*
X47386Y9577D02*
X47822Y9141D01*
X39491Y10288D02*
X43705Y6074D01*
X49733Y9385D02*
X50128Y8991D01*
X39491Y9570D02*
X43454Y5606D01*
X39491Y45491D02*
X68217Y16765D01*
X39491Y15783D02*
X67994Y44286D01*
X39491Y16501D02*
X67994Y45005D01*
X39491Y44773D02*
X67994Y16269D01*
X39491Y15064D02*
X68296Y43869D01*
X39491Y43336D02*
X68409Y14417D01*
X39491Y44054D02*
X67994Y15550D01*
X39491Y14346D02*
X67994Y42850D01*
X39491Y51238D02*
X68550Y22179D01*
X39491Y50520D02*
X68191Y21819D01*
X39491Y49801D02*
X67994Y21298D01*
X39491Y49083D02*
X67994Y20579D01*
X39491Y48365D02*
X68383Y19472D01*
X39491Y46209D02*
X68576Y17124D01*
X39491Y47646D02*
X68024Y19113D01*
X39491Y46928D02*
X67994Y18424D01*
X39491Y19375D02*
X61455Y41339D01*
X39491Y18656D02*
X62174Y41339D01*
X39491Y20812D02*
X60018Y41339D01*
X39491Y20093D02*
X60737Y41339D01*
X39491Y12191D02*
X68629Y41329D01*
X39491Y40462D02*
X68242Y11711D01*
X39491Y17938D02*
X62892Y41339D01*
X39491Y17220D02*
X63610Y41339D01*
X39491Y22248D02*
X58582Y41339D01*
X39491Y21530D02*
X59300Y41339D01*
X21914Y16885D02*
X37979Y32950D01*
X22256Y31834D02*
X37979Y16110D01*
X39491Y42617D02*
X68050Y14058D01*
X39491Y12909D02*
X68267Y41685D01*
X39491Y13627D02*
X67994Y42131D01*
X39491Y41899D02*
X67994Y13395D01*
X22256Y20819D02*
X37979Y36543D01*
X22256Y36144D02*
X37979Y20421D01*
X22256Y21537D02*
X37979Y37261D01*
X22256Y36863D02*
X37979Y21139D01*
X22256Y18663D02*
X37979Y34387D01*
X22256Y33989D02*
X37979Y18265D01*
X22256Y35426D02*
X37979Y19702D01*
X22256Y34708D02*
X37979Y18984D01*
X21939Y21939D02*
X37979Y37979D01*
X21973Y37864D02*
X37979Y21857D01*
X20814Y22251D02*
X37979Y39416D01*
X21939Y21939D02*
X37979Y37979D01*
X21747Y19592D02*
X37979Y35824D01*
X22106Y19232D02*
X37979Y35106D01*
X18677Y21551D02*
X37979Y40853D01*
X19395Y21551D02*
X37979Y40135D01*
X22256Y29679D02*
X37979Y13955D01*
X22256Y13635D02*
X37979Y29358D01*
X22256Y31115D02*
X37979Y15392D01*
X22256Y30397D02*
X37979Y14673D01*
X22256Y28242D02*
X37979Y12518D01*
X22256Y27523D02*
X37979Y11800D01*
X22256Y28960D02*
X37979Y13236D01*
X22256Y12916D02*
X37979Y28640D01*
X22256Y32552D02*
X37979Y16828D01*
X22256Y16508D02*
X37979Y32232D01*
X22256Y17945D02*
X37979Y33669D01*
X22256Y33271D02*
X37979Y17547D01*
X22081Y14178D02*
X37979Y30077D01*
X21888Y11830D02*
X37979Y27921D01*
X22256Y15790D02*
X37979Y31514D01*
X21721Y14537D02*
X37979Y30795D01*
X39491Y37588D02*
X68075Y9004D01*
X39491Y7880D02*
X68241Y36631D01*
X39491Y8598D02*
X67994Y37102D01*
X39491Y36870D02*
X67994Y8366D01*
X39491Y7162D02*
X68600Y36271D01*
X39491Y36151D02*
X68839Y6803D01*
X39491Y35433D02*
X68360Y6563D01*
X39491Y6443D02*
X67994Y34947D01*
X39491Y10754D02*
X68074Y39337D01*
X39491Y39025D02*
X67994Y10521D01*
X39491Y11472D02*
X67994Y39976D01*
X39491Y39744D02*
X67994Y11240D01*
X39491Y10035D02*
X68433Y38978D01*
X39491Y38307D02*
X68434Y9363D01*
X39491Y4442D02*
Y54515D01*
Y9317D02*
X67994Y37821D01*
X22256Y18184D02*
X39957Y483D01*
X26346D02*
X37979Y12116D01*
X24909Y483D02*
X37979Y13553D01*
X25627Y483D02*
X37979Y12835D01*
X28501Y483D02*
X37979Y9961D01*
X29219Y483D02*
X37979Y9243D01*
X27064Y483D02*
X37979Y11398D01*
X27783Y483D02*
X37979Y10679D01*
X15569Y483D02*
X37979Y22893D01*
X16288Y483D02*
X37979Y22174D01*
X21701Y27359D02*
X37979Y11081D01*
X22247Y11471D02*
X37979Y27203D01*
X22256Y18902D02*
X40675Y483D01*
X22075Y17646D02*
X39238Y483D01*
X17006D02*
X37979Y21456D01*
X21715Y17287D02*
X38520Y483D01*
X22256Y8606D02*
X37979Y24329D01*
X25393Y8151D02*
X37979Y20737D01*
X22256Y10761D02*
X37979Y26485D01*
X22256Y26086D02*
X37979Y10363D01*
Y4442D02*
Y54515D01*
X22242Y20353D02*
X37979Y4615D01*
X22256Y7887D02*
X37979Y23611D01*
X22256Y21058D02*
X37979Y5334D01*
X21857Y25048D02*
X37979Y8926D01*
X22055Y9123D02*
X37979Y25048D01*
X21696Y9483D02*
X37979Y25766D01*
X22216Y25408D02*
X37979Y9644D01*
X10331Y34419D02*
X37979Y6771D01*
X10016Y34015D02*
X37979Y6052D01*
X21367Y24819D02*
X37979Y8207D01*
X20649Y24819D02*
X37979Y7489D01*
X27762Y7646D02*
X37979Y17864D01*
X28121Y7287D02*
X37979Y17145D01*
X26830Y8151D02*
X37979Y19300D01*
X27403Y8006D02*
X37979Y18582D01*
X28436Y5446D02*
X37979Y14990D01*
X28436Y4728D02*
X37979Y14271D01*
X28436Y6883D02*
X37979Y16427D01*
X28436Y6165D02*
X37979Y15708D01*
X26111Y8151D02*
X37979Y20019D01*
X21882Y19994D02*
X37979Y3897D01*
X22256Y16029D02*
X37802Y483D01*
X21908Y14939D02*
X36365Y483D01*
X22256Y15310D02*
X37083Y483D01*
X22256Y13873D02*
X35646Y483D01*
X22256Y13155D02*
X34928Y483D01*
X54130Y8151D02*
X54313Y8334D01*
X54376D02*
X54560Y8151D01*
X53411D02*
X53595Y8334D01*
X53658D02*
X53841Y8151D01*
X54840Y8334D02*
X55024Y8151D01*
X54848D02*
X54936Y8239D01*
X53123Y8151D02*
X53252Y8022D01*
X53298Y8037D02*
X53411Y8151D01*
X51223Y8334D02*
X54840D01*
X52842Y8151D02*
X54020D01*
X52221Y8334D02*
X52623Y7932D01*
X52939Y8334D02*
X53123Y8151D01*
X50705Y6163D02*
X52877Y8334D01*
X51664Y6973D02*
X52842Y8151D01*
X51046Y7222D02*
X52158Y8334D01*
X51502D02*
X52264Y7573D01*
X55024Y8151D02*
X56376Y6799D01*
X55231Y7815D02*
X55295Y7879D01*
X54560Y8151D02*
X54644Y8066D01*
X54736Y8039D02*
X54848Y8151D01*
X56217Y6646D02*
X56373Y6802D01*
X56247Y5027D02*
X56376Y4898D01*
X56014Y4541D02*
X56157Y4398D01*
X55697Y4140D02*
X55798Y4039D01*
X54020Y8151D02*
X55024D01*
X52623Y7932D02*
X52766Y7789D01*
X52264Y7573D02*
X52365Y7472D01*
X51905Y7213D02*
X52043Y7076D01*
X51849Y4433D02*
X52000Y4584D01*
X52208Y4074D02*
X52310Y4175D01*
X51046Y7940D02*
X51440Y8334D01*
X51046Y8073D02*
X51905Y7213D01*
X51046Y8157D02*
X51223Y8334D01*
X51046Y7107D02*
Y8157D01*
X51664Y5795D02*
Y6973D01*
Y6736D02*
X51805Y6595D01*
X51046Y7354D02*
X51664Y6736D01*
X50810Y6872D02*
X51664Y6017D01*
X50212Y8991D02*
X50389Y9168D01*
X49339Y8991D02*
X50212D01*
X48534Y7107D02*
Y8186D01*
X48506Y7107D02*
Y8157D01*
X48534Y7107D02*
X49162Y6479D01*
X50418D02*
X51046Y7107D01*
X48462Y7064D02*
X49119Y6407D01*
X47998Y6330D02*
X48655Y6987D01*
X51664Y6404D02*
X51778Y6517D01*
X51664Y5299D02*
X51733Y5230D01*
X50451Y6512D02*
X51664Y5299D01*
X51046Y5785D02*
X51664Y6404D01*
Y4617D02*
Y5795D01*
Y4967D02*
X51776Y5079D01*
X51046Y4567D02*
Y5823D01*
Y5067D02*
X51664Y5685D01*
X49162Y6479D02*
X50418D01*
X49162Y6451D02*
X50418D01*
X48103Y6705D02*
X48760Y6048D01*
X48358Y5971D02*
X49014Y6627D01*
X48534Y5823D02*
X49162Y6451D01*
X50418D02*
X51046Y5823D01*
X48506Y4567D02*
Y5823D01*
X48534Y4567D02*
Y5823D01*
X55198Y3439D02*
X56376Y4617D01*
X55438Y3680D02*
X56839Y2280D01*
X55166Y3439D02*
X56376Y4649D01*
X55301Y3818D02*
X55438Y3680D01*
X56157Y4398D02*
X58276Y2280D01*
X55798Y4039D02*
X57557Y2280D01*
X55443D02*
X57153Y3990D01*
X56161Y2280D02*
X57512Y3631D01*
X54820Y3580D02*
X54961Y3439D01*
X53455Y3508D02*
X53524Y3439D01*
X51046Y5199D02*
X53965Y2280D01*
X54724D02*
X56794Y4349D01*
X51002Y4524D02*
X53247Y2280D01*
X52569D02*
X53729Y3439D01*
X54242D02*
X55402Y2280D01*
X54961Y3439D02*
X56120Y2280D01*
X54364Y483D02*
X54650Y768D01*
X54758D02*
X55044Y483D01*
X55801D02*
X56087Y768D01*
X56195D02*
X56481Y483D01*
X55083D02*
X55368Y768D01*
X55476D02*
X55762Y483D01*
X53524Y3439D02*
X54684Y2280D01*
X54020Y3439D02*
X55198D01*
X52842D02*
X54020D01*
X53288Y2280D02*
X54447Y3439D01*
X54006Y2280D02*
X55166Y3439D01*
X54039Y768D02*
X54325Y483D01*
X53321Y768D02*
X53607Y483D01*
X53646D02*
X53932Y768D01*
X51664Y4617D02*
X52842Y3439D01*
X53010D02*
X53169Y3598D01*
X50418Y3939D02*
X51046Y4567D01*
X52567Y3714D02*
X52698Y3845D01*
X50643Y4165D02*
X52528Y2280D01*
X51132D02*
X52567Y3714D01*
X50414Y2280D02*
X52208Y4074D01*
X50150Y3939D02*
X51810Y2280D01*
X48259D02*
X49918Y3939D01*
X49162D02*
X50418D01*
X48534Y4567D02*
X49162Y3939D01*
X47936Y3998D02*
X49655Y2280D01*
X48977D02*
X51664Y4967D01*
X49695Y2280D02*
X51849Y4433D01*
X48296Y4357D02*
X50373Y2280D01*
X49432Y3939D02*
X51091Y2280D01*
X51851D02*
X53010Y3439D01*
X51491Y483D02*
X51776Y768D01*
X50772Y483D02*
X51058Y768D01*
X51166D02*
X51452Y483D01*
X52603Y768D02*
X52888Y483D01*
X52927D02*
X53213Y768D01*
X51884D02*
X52170Y483D01*
X52209D02*
X52495Y768D01*
X49011D02*
X49296Y483D01*
X49335D02*
X49621Y768D01*
X48292D02*
X48578Y483D01*
X48617D02*
X48903Y768D01*
X50054Y483D02*
X50339Y768D01*
X50447D02*
X50733Y483D01*
X49729Y768D02*
X50015Y483D01*
X46799Y8991D02*
X47672D01*
X46622Y6479D02*
X47878D01*
X47027Y9218D02*
X47254Y8991D01*
X45994Y7107D02*
X46622Y6479D01*
X47878D02*
X48506Y7107D01*
X46622Y6451D02*
X47878D01*
X45994Y5823D02*
X46622Y6451D01*
X45994Y5763D02*
X46682Y6451D01*
X45994Y7107D02*
Y8186D01*
X45338Y6479D02*
X45966Y7107D01*
Y8157D01*
X45274Y6479D02*
X45966Y7171D01*
X45756Y6897D02*
X46412Y6240D01*
X45651Y6138D02*
X46307Y6794D01*
X45396Y6538D02*
X46053Y5881D01*
X45338Y6451D02*
X45966Y5823D01*
X47878Y6451D02*
X48506Y5823D01*
X45994Y4567D02*
X46622Y3939D01*
X45966Y4567D02*
Y5823D01*
X45994Y4567D02*
Y5823D01*
X47878Y3939D02*
X48506Y4567D01*
X45948Y4549D02*
X48218Y2280D01*
X46291Y2467D02*
X47763Y3939D01*
X46622D02*
X47878D01*
X45466Y3797D02*
X46115Y4447D01*
X45573Y3186D02*
X46474Y4087D01*
X45466Y4067D02*
X45966Y4567D01*
X45466Y3293D02*
Y4067D01*
X45589Y4190D02*
X47499Y2280D01*
X45932Y2827D02*
X47045Y3939D01*
X45466Y3595D02*
X46781Y2280D01*
X45466Y3293D02*
X46479Y2280D01*
X44082Y8991D02*
X45132D01*
X43454Y7107D02*
X44082Y6479D01*
X43454Y8363D02*
X44082Y8991D01*
X43454Y7107D02*
Y8363D01*
X44082Y6479D02*
X45338D01*
X44082Y6451D02*
X45338D01*
X40645Y3287D02*
X43960Y6602D01*
X43454Y5823D02*
X44082Y6451D01*
X39491Y8133D02*
X43954Y3669D01*
X39927Y4006D02*
X43454Y7533D01*
X39491Y8851D02*
X43454Y4888D01*
X39568Y4365D02*
X43454Y8252D01*
X39491Y7415D02*
X43954Y2951D01*
X39491Y6696D02*
X43907Y2280D01*
X40286Y3646D02*
X43601Y6961D01*
X39491Y5978D02*
X43189Y2280D01*
X43454Y4567D02*
X43954Y4067D01*
Y3293D02*
Y4067D01*
X43454Y4567D02*
Y5823D01*
X41364Y2569D02*
X43454Y4660D01*
X42511Y2280D02*
X43954Y3723D01*
X43948Y2280D02*
X44080Y2412D01*
X43954Y2537D02*
Y3293D01*
Y2537D02*
Y3293D01*
X37979Y3686D02*
X38357Y3308D01*
X37979Y3686D02*
X38357Y3308D01*
X37979Y3686D02*
Y4442D01*
Y3686D02*
Y4442D01*
X41004Y2928D02*
X43454Y5378D01*
X39491Y5259D02*
X42470Y2280D01*
X39491Y4442D02*
X41653Y2280D01*
X46822D02*
X48822Y4280D01*
X46479Y2280D02*
X70869D01*
X43954Y2537D02*
X44212Y2280D01*
X43954Y2537D02*
X44212Y2280D01*
X47276Y3939D02*
X48936Y2280D01*
X47540D02*
X49200Y3939D01*
X43982Y768D02*
X44267Y483D01*
X44306D02*
X44592Y768D01*
X43230Y2280D02*
X43954Y3004D01*
X41653Y2280D02*
X44212D01*
X41793D02*
X43767Y4254D01*
X42151Y483D02*
X42437Y768D01*
X43263D02*
X43549Y483D01*
X43588D02*
X43874Y768D01*
X42545D02*
X42831Y483D01*
X42869D02*
X43155Y768D01*
X46462Y483D02*
X46747Y768D01*
X46479D02*
X70869D01*
X45743Y483D02*
X46029Y768D01*
X46137D02*
X46423Y483D01*
X47574Y768D02*
X47859Y483D01*
X47898D02*
X48184Y768D01*
X46855D02*
X47141Y483D01*
X47180D02*
X47466Y768D01*
X45723D02*
X46479D01*
X45723D02*
X46479D01*
X41653D02*
X45723D01*
X46479D01*
X45418D02*
X45704Y483D01*
X483D02*
X96517D01*
X44700Y768D02*
X44986Y483D01*
X45025D02*
X45311Y768D01*
X39491Y4541D02*
X41752Y2280D01*
X38357Y3308D02*
X40519Y1146D01*
X31375Y483D02*
X37979Y7087D01*
X32093Y483D02*
X37979Y6369D01*
X34248Y483D02*
X37979Y4214D01*
X34967Y483D02*
X38075Y3591D01*
X32812Y483D02*
X37979Y5650D01*
X33530Y483D02*
X37979Y4932D01*
X28436Y6256D02*
X34209Y483D01*
X28178Y4359D02*
X32054Y483D01*
X27818Y4000D02*
X31336Y483D01*
X27459Y3641D02*
X30617Y483D01*
X29938D02*
X37979Y8524D01*
X30656Y483D02*
X37979Y7806D01*
X28436Y5538D02*
X33491Y483D01*
X28436Y4820D02*
X32773Y483D01*
X40897Y768D02*
X41653D01*
X40897D02*
X41653D01*
X40519Y1146D02*
X40897Y768D01*
X40519Y1146D02*
X40897Y768D01*
X41433Y483D02*
X41718Y768D01*
X41826D02*
X42112Y483D01*
X40714D02*
X41000Y768D01*
X41108D02*
X41394Y483D01*
X37122D02*
X39153Y2513D01*
X37840Y483D02*
X39512Y2154D01*
X35685Y483D02*
X38434Y3231D01*
X36404Y483D02*
X38793Y2872D01*
X39277Y483D02*
X40230Y1435D01*
X39996Y483D02*
X40589Y1076D01*
X38559Y483D02*
X39871Y1795D01*
X21628Y22251D02*
X22256Y21623D01*
Y20367D02*
Y21623D01*
X17958Y21551D02*
X21227Y24819D01*
X19744Y21623D02*
X20372Y22251D01*
X19744Y20367D02*
X20372Y19739D01*
X21628D02*
X22256Y20367D01*
X18563Y20439D02*
X19832Y19170D01*
X19282Y20439D02*
X20191Y19530D01*
X12930Y21551D02*
X19744Y28365D01*
X13648Y21551D02*
X19744Y27647D01*
X11493Y21551D02*
X19744Y29802D01*
X12211Y21551D02*
X19744Y29084D01*
X14366Y21551D02*
X20175Y27359D01*
X17240Y21551D02*
X20509Y24819D01*
X15085Y21551D02*
X19744Y26210D01*
X16522Y21551D02*
X20081Y25110D01*
X21628Y19711D02*
X22256Y19083D01*
Y17827D02*
Y19083D01*
X20372Y19739D02*
X21628D01*
X20372Y19711D02*
X21628D01*
Y17199D02*
X22256Y17827D01*
X21628Y17171D02*
X22256Y16543D01*
X20372Y17199D02*
X21628D01*
X20372Y17171D02*
X21628D01*
X19744Y19083D02*
X20372Y19711D01*
X19744Y19026D02*
X20429Y19711D01*
X19011Y19011D02*
X20056Y20056D01*
X19011Y19011D02*
X20056Y20056D01*
X19666Y17899D02*
X20395Y17171D01*
X19744Y16543D02*
X20372Y17171D01*
X18948Y17899D02*
X20024Y16823D01*
X19744Y17827D02*
X20372Y17199D01*
X15803Y21551D02*
X19744Y25492D01*
X14700Y19011D02*
X16129Y20439D01*
X13982Y19011D02*
X15410Y20439D01*
X14253D02*
X15681Y19011D01*
X15690Y20439D02*
X17118Y19011D01*
X16137D02*
X17566Y20439D01*
X14971D02*
X16400Y19011D01*
X15418D02*
X16847Y20439D01*
X11826Y19011D02*
X13255Y20439D01*
X12097D02*
X13526Y19011D01*
X11108D02*
X12537Y20439D01*
X11379D02*
X12808Y19011D01*
X13263D02*
X14692Y20439D01*
X13534D02*
X14963Y19011D01*
X12545D02*
X13974Y20439D01*
X12816D02*
X14245Y19011D01*
X17126Y20439D02*
X18555Y19011D01*
X17574D02*
X19003Y20439D01*
X16408D02*
X17837Y19011D01*
X16855D02*
X18284Y20439D01*
X17845D02*
X19274Y19011D01*
X18292D02*
X19721Y20439D01*
X15752Y16471D02*
X17181Y17899D01*
X16074D02*
X17503Y16471D01*
X13201Y17899D02*
X14629Y16471D01*
X13597D02*
X15026Y17899D01*
X12482D02*
X13911Y16471D01*
X12878D02*
X14307Y17899D01*
X14637D02*
X16066Y16471D01*
X15356Y17899D02*
X16785Y16471D01*
X13919Y17899D02*
X15348Y16471D01*
X14315D02*
X15744Y17899D01*
X18626Y16471D02*
X19863Y17708D01*
X19344Y16471D02*
X20223Y17349D01*
X17907Y16471D02*
X19336Y17899D01*
X18230D02*
X19658Y16471D01*
X22256Y15287D02*
Y16543D01*
X18614Y15359D02*
X19858Y14116D01*
X17896Y15359D02*
X19325Y13931D01*
X18241D02*
X19670Y15359D01*
X16793Y17899D02*
X18221Y16471D01*
X17189D02*
X18618Y17899D01*
X16471Y16471D02*
X17899Y17899D01*
X16471Y16471D02*
X17899Y17899D01*
X17511D02*
X18940Y16471D01*
X17523Y13931D02*
X18952Y15359D01*
X16804Y13931D02*
X18233Y15359D01*
X17177D02*
X18606Y13931D01*
X21628Y14659D02*
X22256Y15287D01*
X20372Y14631D02*
X21628D01*
X19744Y15287D02*
X20372Y14659D01*
X21628D01*
Y14631D02*
X22256Y14003D01*
Y12747D02*
Y14003D01*
X19744D02*
X20372Y14631D01*
X19744Y13997D02*
X20378Y14631D01*
X19333Y15359D02*
X20217Y14475D01*
X18999Y12819D02*
X20050Y11768D01*
X18960Y13931D02*
X20030Y15001D01*
X19678Y13931D02*
X19744Y13997D01*
X17856Y11391D02*
X19285Y12819D01*
X18281D02*
X19709Y11391D01*
X17138D02*
X18567Y12819D01*
X17562D02*
X18991Y11391D01*
X15034Y16471D02*
X16463Y17899D01*
X13931Y13931D02*
X15359Y15359D01*
X13212Y13931D02*
X14641Y15359D01*
X13585D02*
X15014Y13931D01*
X14649D02*
X16078Y15359D01*
X15022D02*
X16451Y13931D01*
X13931D02*
X15359Y15359D01*
X14304D02*
X15733Y13931D01*
X11764Y17899D02*
X13193Y16471D01*
X12160D02*
X13589Y17899D01*
X11442Y16471D02*
X12870Y17899D01*
X11430Y15359D02*
X12859Y13931D01*
X12494D02*
X13923Y15359D01*
X12867D02*
X14296Y13931D01*
X11775D02*
X13204Y15359D01*
X12148D02*
X13577Y13931D01*
X16086D02*
X17515Y15359D01*
X16459D02*
X17888Y13931D01*
X15367D02*
X16796Y15359D01*
X15741D02*
X17169Y13931D01*
X15407Y12819D02*
X16836Y11391D01*
X15701D02*
X17130Y12819D01*
X14264Y11391D02*
X15693Y12819D01*
X14983Y11391D02*
X16412Y12819D01*
X11391Y11391D02*
X12819Y12819D01*
X12109Y11391D02*
X13538Y12819D01*
X11096D02*
X12525Y11391D01*
X11391D02*
X12819Y12819D01*
X13546Y11391D02*
X14975Y12819D01*
X13970D02*
X15399Y11391D01*
X13252Y12819D02*
X14680Y11391D01*
X8930Y33664D02*
X20358Y22237D01*
X9649Y33664D02*
X21063Y22251D01*
X483Y34928D02*
X13860Y21551D01*
X8601Y22251D02*
X19744Y33394D01*
X483Y34209D02*
X13141Y21551D01*
X483Y33491D02*
X12423Y21551D01*
X483Y32773D02*
X11705Y21551D01*
X483Y32054D02*
X10986Y21551D01*
X483Y41394D02*
X19999Y21877D01*
X483Y40675D02*
X19607Y21551D01*
X483Y36365D02*
X15297Y21551D01*
X483Y35646D02*
X14578Y21551D01*
X483Y17725D02*
X18237Y35479D01*
X483Y17006D02*
X18956Y35479D01*
X483Y19162D02*
X17081Y35760D01*
X483Y18443D02*
X17519Y35479D01*
X10774Y21551D02*
X19744Y30521D01*
X10256Y20439D02*
X19744D01*
X10331Y30109D02*
X18889Y21551D01*
X10331Y29390D02*
X18170Y21551D01*
X10256Y19011D02*
X19744D01*
X10256Y17899D02*
X19744D01*
X10390Y19011D02*
X11818Y20439D01*
X10661D02*
X12089Y19011D01*
X9833Y22046D02*
X19744Y31958D01*
X10192Y21687D02*
X19744Y31239D01*
X8901Y28664D02*
X16015Y21551D01*
X9620Y28664D02*
X16734Y21551D01*
X10002Y29001D02*
X17452Y21551D01*
X10256D02*
X19744D01*
X9999Y19339D02*
X11100Y20439D01*
X10135Y20247D02*
X11371Y19011D01*
X8372Y22251D02*
X9628D01*
X10256Y21623D01*
X483Y27744D02*
X7744Y20482D01*
Y21623D02*
X8372Y22251D01*
X483Y27025D02*
X8085Y19423D01*
X483Y24870D02*
X8277Y17076D01*
X483Y26307D02*
X7744Y19045D01*
X483Y25588D02*
X7744Y18327D01*
X483Y30617D02*
X8849Y22251D01*
X483Y29899D02*
X8252Y22130D01*
X483Y22035D02*
X7723Y29276D01*
X483Y29181D02*
X7892Y21771D01*
X483Y20598D02*
X8549Y28664D01*
X483Y19880D02*
X9267Y28664D01*
X483Y21317D02*
X8082Y28917D01*
X483Y28462D02*
X7744Y21200D01*
X9640Y19698D02*
X10382Y20439D01*
X9628Y19711D02*
X10256Y19083D01*
X9568Y22251D02*
X10256Y21563D01*
X9628Y19739D02*
X10256Y20367D01*
X9776Y19887D02*
X10653Y19011D01*
X9807Y16991D02*
X10715Y17899D01*
X9628Y17199D02*
X10256Y17827D01*
X8372Y17171D02*
X9628D01*
X8372Y19739D02*
X9628D01*
X8372Y19711D02*
X9628D01*
X7744Y20367D02*
Y21623D01*
Y20367D02*
X8372Y19739D01*
X7744Y17827D02*
X8372Y17199D01*
X9628D01*
X7744Y19083D02*
X8372Y19711D01*
X7744Y17827D02*
Y19083D01*
X10327Y17899D02*
X11756Y16471D01*
X10256D02*
X19744D01*
X10166Y16632D02*
X11434Y17899D01*
X10256Y16534D02*
X10319Y16471D01*
X10723D02*
X12152Y17899D01*
X11045D02*
X12474Y16471D01*
X10338Y13931D02*
X11767Y15359D01*
X10712D02*
X12140Y13931D01*
X483Y16288D02*
X19674Y35479D01*
X9968Y17540D02*
X11037Y16471D01*
X9628Y17171D02*
X10256Y16543D01*
X9619Y17171D02*
X10256Y16534D01*
X483Y15569D02*
X19744Y34831D01*
X483Y14851D02*
X19744Y34113D01*
X9602Y14631D02*
X10330Y15359D01*
X9974Y14284D02*
X11049Y15359D01*
X10256D02*
X19744D01*
X10256Y13931D02*
X19744D01*
X10160Y15192D02*
X11422Y13931D01*
X9801Y14833D02*
X10704Y13931D01*
X11057D02*
X12486Y15359D01*
X10256Y12819D02*
X19744D01*
X10141Y11578D02*
X11383Y12819D01*
X10672Y11391D02*
X12101Y12819D01*
X9628Y14659D02*
X10256Y15287D01*
X9628Y14631D02*
X10256Y14003D01*
X8372Y14659D02*
X9628D01*
X8372Y14631D02*
X9628D01*
X483Y14812D02*
X14812Y483D01*
X483Y14094D02*
X14094Y483D01*
X483Y13375D02*
X13375Y483D01*
X9782Y11937D02*
X10664Y12819D01*
X483Y19841D02*
X8303Y12021D01*
X483Y11977D02*
X8308Y19803D01*
X483Y20559D02*
X7744Y13298D01*
X483Y12696D02*
X7949Y20162D01*
X483Y19123D02*
X7943Y11662D01*
X483Y10540D02*
X7757Y17815D01*
X483Y11259D02*
X7744Y18521D01*
X483Y18404D02*
X7744Y11142D01*
X483Y24152D02*
X7918Y16716D01*
X483Y21996D02*
X8110Y14369D01*
X483Y23433D02*
X7744Y16171D01*
X483Y22715D02*
X7744Y15453D01*
X483Y21278D02*
X7751Y14009D01*
X483Y13414D02*
X7744Y20676D01*
X483Y483D02*
Y89517D01*
Y14133D02*
X7744Y21394D01*
Y15287D02*
X8372Y14659D01*
X7744Y14003D02*
X8372Y14631D01*
X7744Y16543D02*
X8372Y17171D01*
X7744Y15287D02*
Y16543D01*
X483Y7667D02*
X7924Y15108D01*
X483Y6948D02*
X8283Y14749D01*
X7744Y12747D02*
Y14003D01*
X483Y6230D02*
X7744Y13492D01*
X483Y9822D02*
X8116Y17456D01*
X483Y16967D02*
X8136Y9314D01*
X483Y17686D02*
X7744Y10424D01*
X483Y9104D02*
X7744Y16365D01*
X483Y16249D02*
X7777Y8955D01*
X483Y15531D02*
X7744Y8269D01*
X483Y8385D02*
X7744Y15647D01*
X21741Y12233D02*
X25823Y8151D01*
X21628Y9551D02*
X22256Y8923D01*
Y10207D02*
Y11463D01*
X21628Y9579D02*
X22256Y10207D01*
X22100Y12592D02*
X26541Y8151D01*
X22256Y11000D02*
X25105Y8151D01*
X22256Y10281D02*
X24644Y7893D01*
X21933Y9885D02*
X24285Y7533D01*
X21628Y12119D02*
X22256Y12747D01*
X20372Y12091D02*
X21628D01*
X19744Y12792D02*
X20417Y12119D01*
X20372D02*
X21628D01*
Y12091D02*
X22256Y11463D01*
X21549Y9551D02*
X22256Y8844D01*
X20372Y9579D02*
X21628D01*
X20372Y9551D02*
X21628D01*
X26736Y8057D02*
X26830Y8151D01*
X26080D02*
X27258D01*
X25105D02*
X25254Y8001D01*
X26541Y8151D02*
X26599Y8093D01*
X27659Y7543D02*
X27762Y7646D01*
X27997Y7163D02*
X28121Y7287D01*
X25237Y7994D02*
X25393Y8151D01*
X27242Y7844D02*
X27403Y8006D01*
X24902Y8151D02*
X26080D01*
X24644Y7893D02*
X24778Y7758D01*
X22256Y7667D02*
Y8923D01*
X24285Y7533D02*
X24386Y7432D01*
X22256Y8844D02*
X23926Y7174D01*
X24073Y7027D01*
X21628Y7039D02*
X22256Y7667D01*
X20372Y7039D02*
X21628D01*
X19744Y12747D02*
X20372Y12119D01*
X19744Y11463D02*
X20372Y12091D01*
X16125Y12819D02*
X17554Y11391D01*
X16420D02*
X17848Y12819D01*
X18575Y11391D02*
X19838Y12654D01*
X19293Y11391D02*
X20197Y12294D01*
X16844Y12819D02*
X18273Y11391D01*
X15073Y10279D02*
X16502Y8851D01*
X14688Y12819D02*
X16117Y11391D01*
X13161Y8851D02*
X14590Y10279D01*
X12827Y11391D02*
X14256Y12819D01*
X12918Y10279D02*
X14347Y8851D01*
X14355Y10279D02*
X15784Y8851D01*
X14598D02*
X16027Y10279D01*
X13636D02*
X15065Y8851D01*
X13880D02*
X15308Y10279D01*
X19744Y10207D02*
X20372Y9579D01*
X19744Y8923D02*
X20372Y9551D01*
X18665Y10279D02*
X19883Y9062D01*
X19384Y10279D02*
X20242Y9421D01*
X19627Y8851D02*
X20364Y9588D01*
X19744Y7667D02*
X20372Y7039D01*
X18190Y8851D02*
X19619Y10279D01*
X18909Y8851D02*
X20005Y9947D01*
X16035Y8851D02*
X17464Y10279D01*
X16510D02*
X17939Y8851D01*
X15316D02*
X16745Y10279D01*
X15792D02*
X17220Y8851D01*
X17472D02*
X18900Y10279D01*
X17947D02*
X19376Y8851D01*
X16753D02*
X18182Y10279D01*
X17228D02*
X18657Y8851D01*
X28436Y5795D02*
Y6973D01*
X28378Y6314D02*
X28436Y6256D01*
X27258Y8151D02*
X28436Y6973D01*
X28254Y6702D02*
X28436Y6883D01*
X27147Y3439D02*
X28436Y4728D01*
Y4617D02*
Y5795D01*
X28286Y4969D02*
X28436Y4820D01*
X23724Y6973D02*
X24902Y8151D01*
X20468Y7039D02*
X27025Y483D01*
X21187Y7039D02*
X27744Y483D01*
X18332Y7739D02*
X25588Y483D01*
X19050Y7739D02*
X26307Y483D01*
X28043Y4493D02*
X28178Y4359D01*
X27717Y4101D02*
X27818Y4000D01*
X27312Y3788D02*
X27459Y3641D01*
X26080Y3439D02*
X27258D01*
X26224D02*
X29181Y483D01*
X26942Y3439D02*
X29899Y483D01*
X27258Y3439D02*
X28436Y4617D01*
X26822Y3559D02*
X26942Y3439D01*
X25407Y3538D02*
X25505Y3439D01*
X24902D02*
X26080D01*
X24992D02*
X25173Y3621D01*
X22035Y483D02*
X24992Y3439D01*
X24191Y483D02*
X27147Y3439D01*
X25505D02*
X28462Y483D01*
X22754D02*
X25710Y3439D01*
X23472Y483D02*
X26429Y3439D01*
X21767Y7178D02*
X23724Y5220D01*
Y5795D02*
Y6973D01*
X22256Y8126D02*
X23724Y6657D01*
X22126Y7537D02*
X23724Y5939D01*
X16895Y7739D02*
X24152Y483D01*
X17613Y7739D02*
X24870Y483D01*
X15458Y7739D02*
X22715Y483D01*
X16176Y7739D02*
X23433Y483D01*
X13303Y7739D02*
X20559Y483D01*
X13414D02*
X20172Y7240D01*
X12584Y7739D02*
X19841Y483D01*
X12696D02*
X19812Y7599D01*
X14740Y7739D02*
X21996Y483D01*
X14851D02*
X21408Y7039D01*
X14021Y7739D02*
X21278Y483D01*
X14133D02*
X20689Y7039D01*
X23724Y6482D02*
X23881Y6638D01*
X23724Y5220D02*
X23823Y5122D01*
X23724Y4617D02*
Y5795D01*
Y5045D02*
X23818Y5139D01*
X23724Y4617D02*
X24902Y3439D01*
X24588Y3754D02*
X24712Y3878D01*
X23869Y4472D02*
X24031Y4633D01*
X24229Y4113D02*
X24332Y4216D01*
X23724Y6657D02*
X23844Y6537D01*
X19162Y483D02*
X23724Y5045D01*
X17725Y483D02*
X23724Y6482D01*
X18443Y483D02*
X23724Y5764D01*
X20598Y483D02*
X24229Y4113D01*
X21317Y483D02*
X24588Y3754D01*
X19880Y483D02*
X23869Y4472D01*
X11815Y12819D02*
X13244Y11391D01*
X12533Y12819D02*
X13962Y11391D01*
X10378Y12819D02*
X11807Y11391D01*
X10287Y8851D02*
X11716Y10279D01*
X11481D02*
X12910Y8851D01*
X11724D02*
X13153Y10279D01*
X10763D02*
X12191Y8851D01*
X11006D02*
X12435Y10279D01*
X9628Y12119D02*
X10256Y12747D01*
X9628Y12091D02*
X10256Y11463D01*
X8372Y12119D02*
X9628D01*
X8372Y12091D02*
X9628D01*
X9994Y12485D02*
X11088Y11391D01*
X10256D02*
X19744D01*
X9634Y12126D02*
X10370Y11391D01*
X9948Y9230D02*
X10998Y10279D01*
X10256D02*
X19744D01*
X10256Y8851D02*
X19744D01*
X10186Y10138D02*
X11473Y8851D01*
X9827Y9778D02*
X10755Y8851D01*
X12443D02*
X13872Y10279D01*
X10256Y7739D02*
X19744D01*
X12200Y10279D02*
X13628Y8851D01*
X9628Y7039D02*
X10256Y7667D01*
X9579Y9579D02*
X10256Y10256D01*
X9628Y9579D02*
X10256Y10207D01*
X9579Y9579D02*
X10256Y10256D01*
X8372Y9579D02*
X9628D01*
Y9551D02*
X10256Y8923D01*
X8372Y7039D02*
X9628D01*
X8372Y9551D02*
X9628D01*
X7048Y5611D02*
X8476Y7039D01*
X7744Y11463D02*
X8372Y12091D01*
X7744Y10207D02*
X8372Y9579D01*
X7744Y12747D02*
X8372Y12119D01*
X7744Y10207D02*
Y11463D01*
X5611Y7048D02*
X8257Y9694D01*
X7744Y8923D02*
X8372Y9551D01*
X4232Y7106D02*
X7744Y10618D01*
X4950Y7106D02*
X7898Y10053D01*
X483Y11938D02*
X5315Y7106D01*
X483Y11220D02*
X4597Y7106D01*
X483Y10502D02*
X3879Y7106D01*
X483Y9783D02*
X3160Y7106D01*
X483Y5512D02*
X7744Y12773D01*
X2795Y7106D02*
X8091Y12401D01*
X3513Y7106D02*
X7744Y11337D01*
X483Y9065D02*
X2444Y7103D01*
X6329Y6329D02*
X7744Y7744D01*
Y7667D02*
X8372Y7039D01*
X7744Y7667D02*
Y8923D01*
X5970Y6688D02*
X7744Y8463D01*
X6329Y6329D02*
X7744Y7744D01*
X6688Y5970D02*
X8065Y7347D01*
X5553Y7106D02*
X7106Y5553D01*
X5315Y7106D02*
X7106Y5315D01*
X483Y8346D02*
X2085Y6744D01*
X2447Y7106D02*
X5553D01*
X483Y7628D02*
X1726Y6384D01*
X483Y6909D02*
X1367Y6025D01*
X894Y5553D02*
X2447Y7106D01*
X483Y6191D02*
X1008Y5666D01*
X483Y5473D02*
X894Y5061D01*
X9822Y483D02*
X17079Y7739D01*
X10429D02*
X17686Y483D01*
X8385D02*
X15642Y7739D01*
X9104Y483D02*
X16360Y7739D01*
X11259Y483D02*
X18516Y7739D01*
X11866D02*
X19123Y483D01*
X10540D02*
X17797Y7739D01*
X11147D02*
X18404Y483D01*
X483Y12657D02*
X12657Y483D01*
X7106Y2795D02*
X12050Y7739D01*
X7106Y4232D02*
X10613Y7739D01*
X7106Y3513D02*
X11332Y7739D01*
X6948Y483D02*
X14205Y7739D01*
X7667Y483D02*
X14924Y7739D01*
X5512Y483D02*
X12768Y7739D01*
X6230Y483D02*
X13487Y7739D01*
X7106Y5315D02*
X11938Y483D01*
X7106Y4597D02*
X11220Y483D01*
X7106Y3879D02*
X10502Y483D01*
X7106Y3160D02*
X9783Y483D01*
X11977D02*
X19234Y7739D01*
X10019Y7431D02*
X16967Y483D01*
X9660Y7072D02*
X16249Y483D01*
X8974Y7039D02*
X15531Y483D01*
X7106Y4950D02*
X9195Y7039D01*
X5553Y894D02*
X7106Y2447D01*
Y5553D01*
X7103Y2444D02*
X9065Y483D01*
X6744Y2085D02*
X8346Y483D01*
X6384Y1726D02*
X7628Y483D01*
X6025Y1367D02*
X6909Y483D01*
X894Y2447D02*
Y5553D01*
X483Y1919D02*
X952Y2389D01*
X894Y2447D02*
X2447Y894D01*
X483Y1201D02*
X1312Y2030D01*
X483Y1881D02*
X1881Y483D01*
X483Y4075D02*
X894Y4487D01*
X483Y4036D02*
X894Y3624D01*
X483Y4793D02*
X894Y5205D01*
X483Y4754D02*
X894Y4342D01*
X483Y2638D02*
X894Y3050D01*
X483Y2599D02*
X2599Y483D01*
X483Y3356D02*
X894Y3768D01*
X483Y3317D02*
X894Y2906D01*
X3624Y894D02*
X4036Y483D01*
X4075D02*
X4487Y894D01*
X2906D02*
X3317Y483D01*
X3356D02*
X3768Y894D01*
X5666Y1008D02*
X6191Y483D01*
X5061Y894D02*
X5473Y483D01*
X4342Y894D02*
X4754Y483D01*
X4793D02*
X5205Y894D01*
X483Y483D02*
X1671Y1671D01*
X2447Y894D02*
X5553D01*
X483Y483D02*
X1671Y1671D01*
X483Y1162D02*
X1162Y483D01*
X1919D02*
X2389Y952D01*
X2638Y483D02*
X3050Y894D01*
X1201Y483D02*
X2030Y1312D01*
D11*
X93000Y86000D02*
X96004D01*
X89996D02*
X93000D01*
Y82996D02*
Y86000D01*
Y89004D01*
X84935Y75588D02*
X86089D01*
X84935D02*
Y76742D01*
Y74434D02*
Y75588D01*
X83781D02*
X84935D01*
X69250Y45125D02*
X70404D01*
X69250D02*
Y46279D01*
X68096Y45125D02*
X69250D01*
Y43971D02*
Y45125D01*
X93000Y4000D02*
X96004D01*
X93000D02*
Y7004D01*
Y996D02*
Y4000D01*
X89996D02*
X93000D01*
X44831Y61722D02*
X45720D01*
X44831D02*
Y62611D01*
X43942Y61722D02*
X44831D01*
Y60833D02*
Y61722D01*
X9000Y76995D02*
X10229D01*
X9000D02*
Y78224D01*
X7771Y76995D02*
X9000D01*
Y75766D02*
Y76995D01*
Y71995D02*
X10229D01*
X9000D02*
Y73224D01*
Y70766D02*
Y71995D01*
X7771D02*
X9000D01*
X4000Y86000D02*
X7004D01*
X996D02*
X4000D01*
Y89004D01*
Y82996D02*
Y86000D01*
X21000Y31155D02*
X22154D01*
X21000Y30001D02*
Y31155D01*
Y32309D01*
X19846Y31155D02*
X21000D01*
Y28615D02*
X22154D01*
X21000D02*
Y29769D01*
Y27461D02*
Y28615D01*
X19846D02*
X21000D01*
X4000Y4000D02*
X7004D01*
X4000D02*
Y7004D01*
X996Y4000D02*
X4000D01*
Y996D02*
Y4000D01*
D12*
X69250Y34965D02*
X75050D01*
X69250Y37505D02*
X81250D01*
X69250Y40045D02*
X81250D01*
X69250Y42585D02*
X81250D01*
X83947Y57982D02*
Y59817D01*
X83790Y57825D02*
X83947Y57982D01*
X81026Y62738D02*
X83947Y59817D01*
X62103Y62738D02*
X81026D01*
X59944Y60579D02*
X62103Y62738D01*
X59944Y55499D02*
Y60579D01*
X61188Y54255D02*
X63460D01*
X59944Y55499D02*
X61188Y54255D01*
X81163Y55372D02*
X81250Y55285D01*
X77470Y55372D02*
X81163D01*
X66154Y54101D02*
X76199D01*
X66000Y54255D02*
X66154Y54101D01*
X76199D02*
X77470Y55372D01*
X79131Y59944D02*
X81250Y57825D01*
X67056Y59944D02*
X79131D01*
X66000Y56795D02*
Y58888D01*
X67056Y59944D01*
X76541Y45125D02*
X81250D01*
X74001Y47665D02*
X76541Y45125D01*
X69250Y47665D02*
X74001D01*
X89916Y6477D02*
Y18034D01*
X88538Y5099D02*
X89916Y6477D01*
X85685Y22265D02*
X89916Y18034D01*
X83790Y22265D02*
X85685D01*
X88392Y7366D02*
Y16256D01*
X83790Y19725D02*
X84923D01*
X88392Y16256D01*
X87122Y6096D02*
X88392Y7366D01*
X71374Y3810D02*
X72663Y5099D01*
X88538D01*
X58166Y3810D02*
X71374D01*
X57023Y4953D02*
X58166Y3810D01*
X70612Y4953D02*
X71755Y6096D01*
X60452Y4953D02*
X70612D01*
X55118Y10287D02*
X60452Y4953D01*
X86741Y8763D02*
Y14234D01*
X83790Y17185D02*
X86741Y14234D01*
X85090Y7112D02*
X86741Y8763D01*
X69982Y7112D02*
X85090D01*
X71755Y6096D02*
X87122D01*
X68878Y6008D02*
X69982Y7112D01*
X61810Y6008D02*
X68878D01*
X55880Y11938D02*
X61810Y6008D01*
X48913Y11938D02*
X55880D01*
X44710Y7735D02*
X48913Y11938D01*
X49802Y10287D02*
X55118D01*
Y8890D02*
X57023Y6985D01*
Y4953D02*
Y6985D01*
X50945Y8890D02*
X55118D01*
X49790Y7735D02*
X50945Y8890D01*
X47250Y7735D02*
X49802Y10287D01*
X69250Y52745D02*
X74382D01*
X76922Y50205D02*
X81250D01*
X74382Y52745D02*
X76922Y50205D01*
X76668Y47665D02*
X81250D01*
X74128Y50205D02*
X76668Y47665D01*
X69250Y50205D02*
X74128D01*
X75250Y34965D02*
X81250D01*
X69250Y32425D02*
X81250D01*
X69250Y29885D02*
X81250D01*
X74676Y27432D02*
X81163D01*
X81250Y27345D01*
X69250Y26075D02*
X73319D01*
X74676Y27432D01*
X73700Y23535D02*
X74970Y24805D01*
X81250D01*
X69250Y23535D02*
X73700D01*
X75986Y22265D02*
X81250D01*
X74716Y20995D02*
X75986Y22265D01*
X69250Y20995D02*
X74716D01*
X76581Y19812D02*
X81163D01*
X81250Y19725D01*
X69250Y18455D02*
X75224D01*
X76581Y19812D01*
X77510Y17185D02*
X81250D01*
X76240Y15915D02*
X77510Y17185D01*
X69250Y15915D02*
X76240D01*
X69250Y10835D02*
X76875D01*
X78145Y12105D02*
X81250D01*
X76875Y10835D02*
X78145Y12105D01*
X69250Y13375D02*
X76875D01*
X78145Y14645D02*
X81250D01*
X76875Y13375D02*
X78145Y14645D01*
X9000Y8295D02*
X21000D01*
X9000Y10835D02*
X21000D01*
X9000Y13375D02*
X21000D01*
X9000Y15915D02*
X21000D01*
X9000Y18455D02*
X21000D01*
X9000Y20995D02*
X21000D01*
D13*
X41275Y1524D02*
X46101D01*
X38735Y4064D02*
X41275Y1524D01*
X44710Y2915D02*
X46101Y1524D01*
X75438Y64770D02*
Y70591D01*
X80435Y75588D01*
X38735Y4064D02*
Y55245D01*
X32004Y64770D02*
X75438D01*
X30480Y63246D02*
X32004Y64770D01*
X75438D02*
X84836D01*
X87718Y54133D02*
Y61888D01*
X83790Y50205D02*
X87718Y54133D01*
X84836Y64770D02*
X87718Y61888D01*
X30480Y45974D02*
Y63246D01*
X23281Y38775D02*
X30480Y45974D01*
X21000Y38775D02*
X23281D01*
X14732Y43995D02*
Y46863D01*
X12600Y48995D02*
X14732Y46863D01*
Y39243D02*
Y43995D01*
Y39243D02*
X17740Y36235D01*
X9000Y43995D02*
X14732D01*
X9000Y48995D02*
X12600D01*
X17740Y36235D02*
X21000D01*
X73643Y3920D02*
X74840D01*
X74930Y4010D01*
X71247Y1524D02*
X73643Y3920D01*
X46101Y1524D02*
X71247D01*
X44710Y2915D02*
Y5195D01*
D14*
X54020Y5795D02*
D03*
X26080D02*
D03*
X69260Y56555D02*
D03*
X21000Y57825D02*
D03*
D15*
X44710Y5195D02*
D03*
Y7735D02*
D03*
X47250D02*
D03*
X49790D02*
D03*
Y5195D02*
D03*
X69250Y8295D02*
D03*
Y10835D02*
D03*
Y13375D02*
D03*
Y15915D02*
D03*
Y18455D02*
D03*
Y20995D02*
D03*
Y23535D02*
D03*
Y26075D02*
D03*
X63460Y56795D02*
D03*
X66000D02*
D03*
X63460Y54255D02*
D03*
X66000D02*
D03*
Y51715D02*
D03*
X63460D02*
D03*
X21000Y8295D02*
D03*
Y43855D02*
D03*
Y41315D02*
D03*
Y38775D02*
D03*
Y26075D02*
D03*
Y20995D02*
D03*
Y18455D02*
D03*
Y15915D02*
D03*
Y13375D02*
D03*
Y10835D02*
D03*
X69250Y52745D02*
D03*
Y50205D02*
D03*
Y47665D02*
D03*
Y42585D02*
D03*
Y40045D02*
D03*
Y37505D02*
D03*
Y34965D02*
D03*
Y32425D02*
D03*
Y29885D02*
D03*
X47250Y5195D02*
D03*
X80435Y69088D02*
D03*
Y75588D02*
D03*
X84935Y69088D02*
D03*
Y75588D02*
D03*
X9000Y20995D02*
D03*
Y18455D02*
D03*
Y15915D02*
D03*
Y13375D02*
D03*
Y10835D02*
D03*
Y8295D02*
D03*
X75050Y34965D02*
D03*
Y37505D02*
D03*
Y40045D02*
D03*
Y42585D02*
D03*
D16*
X57290Y43195D02*
D03*
D17*
X21000Y36235D02*
D03*
Y31155D02*
D03*
Y28615D02*
D03*
Y33695D02*
D03*
X69250Y45125D02*
D03*
D18*
X81250Y57825D02*
D03*
D19*
X83790D02*
D03*
X81250Y55285D02*
D03*
X83790D02*
D03*
X81250Y52745D02*
D03*
X83790D02*
D03*
X81250Y50205D02*
D03*
X83790D02*
D03*
X81250Y47665D02*
D03*
X83790D02*
D03*
X81250Y45125D02*
D03*
X83790D02*
D03*
X81250Y42585D02*
D03*
X83790D02*
D03*
X81250Y40045D02*
D03*
X83790D02*
D03*
X81250Y37505D02*
D03*
X83790D02*
D03*
X81250Y34965D02*
D03*
X83790D02*
D03*
X81250Y32425D02*
D03*
X83790D02*
D03*
X81250Y29885D02*
D03*
X83790D02*
D03*
X81250Y27345D02*
D03*
X83790D02*
D03*
X81250Y24805D02*
D03*
X83790D02*
D03*
X81250Y22265D02*
D03*
X83790D02*
D03*
X81250Y19725D02*
D03*
X83790D02*
D03*
X81250Y17185D02*
D03*
X83790D02*
D03*
X81250Y14645D02*
D03*
X83790D02*
D03*
X81250Y12105D02*
D03*
X83790D02*
D03*
X81250Y9565D02*
D03*
X83790D02*
D03*
D20*
X4000Y86000D02*
D03*
X93000D02*
D03*
Y4000D02*
D03*
X4000D02*
D03*
D21*
X9000Y57995D02*
D03*
Y62995D02*
D03*
Y71995D02*
D03*
Y76995D02*
D03*
Y43995D02*
D03*
Y48995D02*
D03*
Y29995D02*
D03*
Y34995D02*
D03*
D22*
X28829Y77216D02*
D03*
X44831Y61722D02*
D03*
X38735Y55245D02*
D03*
X33528Y52324D02*
D03*
X74930Y4010D02*
D03*
%TF.MD5,6e40c941bc609a4a968d60d6f53184ce*%
M02*
