%TF.GenerationSoftware,Altium Limited,Altium Designer,21.8.1 (53)*%
G04 Layer_Physical_Order=3*
G04 Layer_Color=16440176*
%FSLAX43Y43*%
%MOMM*%
%TF.SameCoordinates,E96829AD-C41B-4C4D-B55E-E99DFAFB1E42*%
%TF.FilePolarity,Positive*%
%TF.FileFunction,Copper,L3,Inr,Signal*%
%TF.Part,Single*%
G01*
G75*
%TA.AperFunction,Conductor*%
%ADD12C,0.400*%
%ADD13C,0.800*%
%TA.AperFunction,ComponentPad*%
%ADD14C,1.524*%
%ADD15C,1.800*%
%ADD16O,14.000X1.524*%
%ADD17R,1.800X1.800*%
%ADD18R,1.370X1.370*%
%ADD19C,1.370*%
%TA.AperFunction,ViaPad*%
%ADD20C,5.500*%
%TA.AperFunction,ComponentPad*%
%ADD21C,1.950*%
%TA.AperFunction,ViaPad*%
%ADD22C,1.270*%
D12*
X18542Y52324D02*
X33528D01*
X14986Y48768D02*
X18542Y52324D01*
X16637Y46609D02*
X19939Y49911D01*
X66416D01*
X69250Y52745D01*
X66548Y27559D02*
X78994D01*
X62611Y28448D02*
X75438D01*
X57404Y23241D02*
X62611Y28448D01*
X75438D02*
X78613Y31623D01*
X59984Y20995D02*
X66548Y27559D01*
X16637Y37632D02*
Y46609D01*
X9000Y29995D02*
X16637Y37632D01*
X14986Y40981D02*
Y48768D01*
X9000Y34995D02*
X14986Y40981D01*
X78994Y27559D02*
X80137Y28702D01*
X79375Y38735D02*
X82480D01*
X83790Y40045D01*
X78613Y37973D02*
X79375Y38735D01*
X78613Y31623D02*
Y37973D01*
X23834Y23241D02*
X57404D01*
X21000Y26075D02*
X23834Y23241D01*
X85618Y28702D02*
X85852Y28936D01*
X80137Y28702D02*
X85618D01*
X85852Y28936D02*
Y35443D01*
X83790Y37505D02*
X85852Y35443D01*
X21000Y20995D02*
X59984D01*
D13*
X89916Y48348D02*
Y74930D01*
X83790Y47665D02*
X83899Y47774D01*
X89447Y47879D02*
X89916Y48348D01*
X84302Y47774D02*
X84407Y47879D01*
X89447D01*
X83899Y47774D02*
X84302D01*
X83693Y81153D02*
X89916Y74930D01*
X32766Y81153D02*
X83693D01*
X28829Y77216D02*
X32766Y81153D01*
X38735Y55245D02*
X40285Y56795D01*
X63460D01*
D14*
X54020Y5795D02*
D03*
X26080D02*
D03*
X69260Y56555D02*
D03*
X21000Y57825D02*
D03*
D15*
X44710Y5195D02*
D03*
Y7735D02*
D03*
X47250D02*
D03*
X49790D02*
D03*
Y5195D02*
D03*
X69250Y8295D02*
D03*
Y10835D02*
D03*
Y13375D02*
D03*
Y15915D02*
D03*
Y18455D02*
D03*
Y20995D02*
D03*
Y23535D02*
D03*
Y26075D02*
D03*
X63460Y56795D02*
D03*
X66000D02*
D03*
X63460Y54255D02*
D03*
X66000D02*
D03*
Y51715D02*
D03*
X63460D02*
D03*
X21000Y8295D02*
D03*
Y43855D02*
D03*
Y41315D02*
D03*
Y38775D02*
D03*
Y26075D02*
D03*
Y20995D02*
D03*
Y18455D02*
D03*
Y15915D02*
D03*
Y13375D02*
D03*
Y10835D02*
D03*
X69250Y52745D02*
D03*
Y50205D02*
D03*
Y47665D02*
D03*
Y42585D02*
D03*
Y40045D02*
D03*
Y37505D02*
D03*
Y34965D02*
D03*
Y32425D02*
D03*
Y29885D02*
D03*
X47250Y5195D02*
D03*
X80435Y69088D02*
D03*
Y75588D02*
D03*
X84935Y69088D02*
D03*
Y75588D02*
D03*
X9000Y20995D02*
D03*
Y18455D02*
D03*
Y15915D02*
D03*
Y13375D02*
D03*
Y10835D02*
D03*
Y8295D02*
D03*
X75050Y34965D02*
D03*
Y37505D02*
D03*
Y40045D02*
D03*
Y42585D02*
D03*
D16*
X57290Y43195D02*
D03*
D17*
X21000Y36235D02*
D03*
Y31155D02*
D03*
Y28615D02*
D03*
Y33695D02*
D03*
X69250Y45125D02*
D03*
D18*
X81250Y57825D02*
D03*
D19*
X83790D02*
D03*
X81250Y55285D02*
D03*
X83790D02*
D03*
X81250Y52745D02*
D03*
X83790D02*
D03*
X81250Y50205D02*
D03*
X83790D02*
D03*
X81250Y47665D02*
D03*
X83790D02*
D03*
X81250Y45125D02*
D03*
X83790D02*
D03*
X81250Y42585D02*
D03*
X83790D02*
D03*
X81250Y40045D02*
D03*
X83790D02*
D03*
X81250Y37505D02*
D03*
X83790D02*
D03*
X81250Y34965D02*
D03*
X83790D02*
D03*
X81250Y32425D02*
D03*
X83790D02*
D03*
X81250Y29885D02*
D03*
X83790D02*
D03*
X81250Y27345D02*
D03*
X83790D02*
D03*
X81250Y24805D02*
D03*
X83790D02*
D03*
X81250Y22265D02*
D03*
X83790D02*
D03*
X81250Y19725D02*
D03*
X83790D02*
D03*
X81250Y17185D02*
D03*
X83790D02*
D03*
X81250Y14645D02*
D03*
X83790D02*
D03*
X81250Y12105D02*
D03*
X83790D02*
D03*
X81250Y9565D02*
D03*
X83790D02*
D03*
D20*
X4000Y86000D02*
D03*
X93000D02*
D03*
Y4000D02*
D03*
X4000D02*
D03*
D21*
X9000Y57995D02*
D03*
Y62995D02*
D03*
Y71995D02*
D03*
Y76995D02*
D03*
Y43995D02*
D03*
Y48995D02*
D03*
Y29995D02*
D03*
Y34995D02*
D03*
D22*
X28829Y77216D02*
D03*
X44831Y61722D02*
D03*
X38735Y55245D02*
D03*
X33528Y52324D02*
D03*
X74930Y4010D02*
D03*
%TF.MD5,57355b4e16f8a5b9b0aaa2a4fd51c440*%
M02*
