%TF.GenerationSoftware,Altium Limited,Altium Designer,21.8.1 (53)*%
G04 Layer_Physical_Order=2*
G04 Layer_Color=36540*
%FSLAX43Y43*%
%MOMM*%
%TF.SameCoordinates,E96829AD-C41B-4C4D-B55E-E99DFAFB1E42*%
%TF.FilePolarity,Positive*%
%TF.FileFunction,Copper,L2,Inr,Signal*%
%TF.Part,Single*%
G01*
G75*
%TA.AperFunction,Conductor*%
%ADD12C,0.400*%
%ADD13C,0.800*%
%TA.AperFunction,ComponentPad*%
%ADD14C,1.524*%
%ADD15C,1.800*%
%ADD16O,14.000X1.524*%
%ADD17R,1.800X1.800*%
%ADD18R,1.370X1.370*%
%ADD19C,1.370*%
%TA.AperFunction,ViaPad*%
%ADD20C,5.500*%
%TA.AperFunction,ComponentPad*%
%ADD21C,1.950*%
%TA.AperFunction,ViaPad*%
%ADD22C,1.270*%
D12*
X29317Y67564D02*
X81407D01*
X29083Y67330D02*
X29317Y67564D01*
X29083Y44831D02*
Y67330D01*
X25567Y41315D02*
X29083Y44831D01*
X21000Y41315D02*
X25567D01*
X87249Y56204D02*
Y61722D01*
X83790Y52745D02*
X87249Y56204D01*
X81407Y67564D02*
X87249Y61722D01*
X60452Y51181D02*
X61976Y49657D01*
X60452Y58801D02*
X62611Y60960D01*
X60452Y51181D02*
Y58801D01*
X78065Y52745D02*
X81250D01*
X62611Y60960D02*
X69850D01*
X78065Y52745D01*
X63942Y49657D02*
X66000Y51715D01*
X61976Y49657D02*
X63942D01*
X15831Y57995D02*
X15875Y58039D01*
X9000Y62995D02*
X9066Y63061D01*
X64425Y28484D02*
X82389D01*
X62865Y26924D02*
X64425Y28484D01*
X82389D02*
X83790Y29885D01*
X67815Y27429D02*
X71885D01*
X65024Y24638D02*
X67815Y27429D01*
X71885D02*
X73108Y26206D01*
X59690Y16637D02*
X62865Y19812D01*
Y26924D01*
X41910Y16637D02*
X59690D01*
X38648Y13375D02*
X41910Y16637D01*
X21000Y13375D02*
X38648D01*
X65024Y17780D02*
Y24638D01*
X73108Y26206D02*
X82651D01*
X83790Y27345D01*
X61116Y13872D02*
X65024Y17780D01*
X42447Y13872D02*
X61116D01*
X39410Y10835D02*
X42447Y13872D01*
X21000Y10835D02*
X39410D01*
X84759Y1778D02*
X94361Y11380D01*
X90003Y24805D02*
X94361Y20447D01*
Y11380D02*
Y20447D01*
X21000Y3130D02*
X22352Y1778D01*
X84759D01*
X83790Y24805D02*
X90003D01*
X21000Y3130D02*
Y8295D01*
D13*
X83790Y45125D02*
X91607D01*
X92964Y46482D02*
Y74676D01*
X91607Y45125D02*
X92964Y46482D01*
X88773Y78867D02*
X92964Y74676D01*
X31496Y72263D02*
X38100Y78867D01*
X88773D01*
X27178Y72263D02*
X31496D01*
X15875Y60960D02*
X27178Y72263D01*
X44831Y47879D02*
Y61722D01*
Y47879D02*
X46355Y46355D01*
X64135D01*
X65365Y45125D02*
X69250D01*
X64135Y46355D02*
X65365Y45125D01*
X13774Y63061D02*
X15875Y60960D01*
X9066Y63061D02*
X13774D01*
X15875Y58039D02*
Y60960D01*
Y35433D02*
Y58039D01*
X9000Y57995D02*
X15831D01*
X15875Y35433D02*
X17613Y33695D01*
X21000D01*
D14*
X54020Y5795D02*
D03*
X26080D02*
D03*
X69260Y56555D02*
D03*
X21000Y57825D02*
D03*
D15*
X44710Y5195D02*
D03*
Y7735D02*
D03*
X47250D02*
D03*
X49790D02*
D03*
Y5195D02*
D03*
X69250Y8295D02*
D03*
Y10835D02*
D03*
Y13375D02*
D03*
Y15915D02*
D03*
Y18455D02*
D03*
Y20995D02*
D03*
Y23535D02*
D03*
Y26075D02*
D03*
X63460Y56795D02*
D03*
X66000D02*
D03*
X63460Y54255D02*
D03*
X66000D02*
D03*
Y51715D02*
D03*
X63460D02*
D03*
X21000Y8295D02*
D03*
Y43855D02*
D03*
Y41315D02*
D03*
Y38775D02*
D03*
Y26075D02*
D03*
Y20995D02*
D03*
Y18455D02*
D03*
Y15915D02*
D03*
Y13375D02*
D03*
Y10835D02*
D03*
X69250Y52745D02*
D03*
Y50205D02*
D03*
Y47665D02*
D03*
Y42585D02*
D03*
Y40045D02*
D03*
Y37505D02*
D03*
Y34965D02*
D03*
Y32425D02*
D03*
Y29885D02*
D03*
X47250Y5195D02*
D03*
X80435Y69088D02*
D03*
Y75588D02*
D03*
X84935Y69088D02*
D03*
Y75588D02*
D03*
X9000Y20995D02*
D03*
Y18455D02*
D03*
Y15915D02*
D03*
Y13375D02*
D03*
Y10835D02*
D03*
Y8295D02*
D03*
X75050Y34965D02*
D03*
Y37505D02*
D03*
Y40045D02*
D03*
Y42585D02*
D03*
D16*
X57290Y43195D02*
D03*
D17*
X21000Y36235D02*
D03*
Y31155D02*
D03*
Y28615D02*
D03*
Y33695D02*
D03*
X69250Y45125D02*
D03*
D18*
X81250Y57825D02*
D03*
D19*
X83790D02*
D03*
X81250Y55285D02*
D03*
X83790D02*
D03*
X81250Y52745D02*
D03*
X83790D02*
D03*
X81250Y50205D02*
D03*
X83790D02*
D03*
X81250Y47665D02*
D03*
X83790D02*
D03*
X81250Y45125D02*
D03*
X83790D02*
D03*
X81250Y42585D02*
D03*
X83790D02*
D03*
X81250Y40045D02*
D03*
X83790D02*
D03*
X81250Y37505D02*
D03*
X83790D02*
D03*
X81250Y34965D02*
D03*
X83790D02*
D03*
X81250Y32425D02*
D03*
X83790D02*
D03*
X81250Y29885D02*
D03*
X83790D02*
D03*
X81250Y27345D02*
D03*
X83790D02*
D03*
X81250Y24805D02*
D03*
X83790D02*
D03*
X81250Y22265D02*
D03*
X83790D02*
D03*
X81250Y19725D02*
D03*
X83790D02*
D03*
X81250Y17185D02*
D03*
X83790D02*
D03*
X81250Y14645D02*
D03*
X83790D02*
D03*
X81250Y12105D02*
D03*
X83790D02*
D03*
X81250Y9565D02*
D03*
X83790D02*
D03*
D20*
X4000Y86000D02*
D03*
X93000D02*
D03*
Y4000D02*
D03*
X4000D02*
D03*
D21*
X9000Y57995D02*
D03*
Y62995D02*
D03*
Y71995D02*
D03*
Y76995D02*
D03*
Y43995D02*
D03*
Y48995D02*
D03*
Y29995D02*
D03*
Y34995D02*
D03*
D22*
X28829Y77216D02*
D03*
X44831Y61722D02*
D03*
X38735Y55245D02*
D03*
X33528Y52324D02*
D03*
X74930Y4010D02*
D03*
%TF.MD5,06597edb99404afb1939762ef2e63da4*%
M02*
