%TF.GenerationSoftware,Altium Limited,Altium Designer,21.8.1 (53)*%
G04 Layer_Color=255*
%FSLAX43Y43*%
%MOMM*%
%TF.SameCoordinates,048A42BD-2BC6-4B9E-88CB-C2FB4D5E15D7*%
%TF.FilePolarity,Positive*%
%TF.FileFunction,Pads,Top*%
%TF.Part,Single*%
G01*
G75*
%TA.AperFunction,ViaPad*%
%ADD13C,1.524*%
%TA.AperFunction,ComponentPad*%
%ADD14C,1.950*%
%ADD15C,1.500*%
%ADD16R,1.524X1.524*%
%ADD17C,1.524*%
%ADD18R,1.500X1.500*%
%ADD19C,1.416*%
%ADD20C,1.400*%
D13*
X92000Y92000D02*
D03*
X3000D02*
D03*
X92000Y3000D02*
D03*
X3000D02*
D03*
D14*
X88220Y84202D02*
D03*
X83220D02*
D03*
X72932D02*
D03*
X67932D02*
D03*
X57644D02*
D03*
X52644D02*
D03*
X42356D02*
D03*
X37356D02*
D03*
X27068D02*
D03*
X22068D02*
D03*
X11780D02*
D03*
X6780D02*
D03*
X8130Y70968D02*
D03*
Y65968D02*
D03*
X86870Y66158D02*
D03*
Y71158D02*
D03*
X69193Y53324D02*
D03*
X74193D02*
D03*
X53064D02*
D03*
X58064D02*
D03*
X36935D02*
D03*
X41935D02*
D03*
X20806D02*
D03*
X25806D02*
D03*
D15*
X53521Y4050D02*
D03*
Y10550D02*
D03*
X58021Y4050D02*
D03*
Y10550D02*
D03*
X71410Y4050D02*
D03*
Y10550D02*
D03*
X75910Y4050D02*
D03*
Y10550D02*
D03*
X79121Y30654D02*
D03*
Y33194D02*
D03*
Y35734D02*
D03*
Y38274D02*
D03*
Y40814D02*
D03*
X61885Y4050D02*
D03*
Y10550D02*
D03*
X66385Y4050D02*
D03*
Y10550D02*
D03*
X45157Y4050D02*
D03*
Y10550D02*
D03*
X49657Y4050D02*
D03*
Y10550D02*
D03*
X80300Y4050D02*
D03*
Y10550D02*
D03*
X84800Y4050D02*
D03*
Y10550D02*
D03*
D16*
X23030Y43504D02*
D03*
X30530D02*
D03*
X18030D02*
D03*
X8030D02*
D03*
D17*
X25530D02*
D03*
X28030D02*
D03*
X15530D02*
D03*
X10530D02*
D03*
X5530D02*
D03*
D18*
X79121Y43354D02*
D03*
D19*
X89027Y12192D02*
D03*
X91567D02*
D03*
X81264Y18161D02*
D03*
X83804D02*
D03*
X15240Y6985D02*
D03*
X17780D02*
D03*
X22860D02*
D03*
X25400D02*
D03*
X30480D02*
D03*
X33020D02*
D03*
X38100D02*
D03*
X40640D02*
D03*
X72374Y18161D02*
D03*
X74914D02*
D03*
D20*
X60326Y29972D02*
D03*
Y37592D02*
D03*
X65469Y29972D02*
D03*
Y37592D02*
D03*
X39752Y29972D02*
D03*
Y37592D02*
D03*
X55182Y29972D02*
D03*
Y37592D02*
D03*
X70613Y29972D02*
D03*
Y37592D02*
D03*
X44896Y29972D02*
D03*
Y37592D02*
D03*
X50039Y29972D02*
D03*
Y37592D02*
D03*
%TF.MD5,177dbe7ae20607256996de8499245b60*%
M02*
