%TF.GenerationSoftware,Altium Limited,Altium Designer,21.8.1 (53)*%
G04 Layer_Color=8388736*
%FSLAX43Y43*%
%MOMM*%
%TF.SameCoordinates,048A42BD-2BC6-4B9E-88CB-C2FB4D5E15D7*%
%TF.FilePolarity,Negative*%
%TF.FileFunction,Soldermask,Top*%
%TF.Part,Single*%
G01*
G75*
%TA.AperFunction,ViaPad*%
%ADD22C,1.727*%
%TA.AperFunction,ComponentPad*%
%ADD23C,2.153*%
%ADD24C,1.703*%
%ADD25R,1.727X1.727*%
%ADD26C,1.727*%
%ADD27R,1.703X1.703*%
%ADD28C,1.619*%
%ADD29C,1.603*%
%TA.AperFunction,ViaPad*%
%ADD30C,1.473*%
D22*
X92000Y92000D02*
D03*
X3000D02*
D03*
X92000Y3000D02*
D03*
X3000D02*
D03*
D23*
X88220Y84202D02*
D03*
X83220D02*
D03*
X72932D02*
D03*
X67932D02*
D03*
X57644D02*
D03*
X52644D02*
D03*
X42356D02*
D03*
X37356D02*
D03*
X27068D02*
D03*
X22068D02*
D03*
X11780D02*
D03*
X6780D02*
D03*
X8130Y70968D02*
D03*
Y65968D02*
D03*
X86870Y66158D02*
D03*
Y71158D02*
D03*
X69193Y53324D02*
D03*
X74193D02*
D03*
X53064D02*
D03*
X58064D02*
D03*
X36935D02*
D03*
X41935D02*
D03*
X20806D02*
D03*
X25806D02*
D03*
D24*
X53521Y4050D02*
D03*
Y10550D02*
D03*
X58021Y4050D02*
D03*
Y10550D02*
D03*
X71410Y4050D02*
D03*
Y10550D02*
D03*
X75910Y4050D02*
D03*
Y10550D02*
D03*
X79121Y30654D02*
D03*
Y33194D02*
D03*
Y35734D02*
D03*
Y38274D02*
D03*
Y40814D02*
D03*
X61885Y4050D02*
D03*
Y10550D02*
D03*
X66385Y4050D02*
D03*
Y10550D02*
D03*
X45157Y4050D02*
D03*
Y10550D02*
D03*
X49657Y4050D02*
D03*
Y10550D02*
D03*
X80300Y4050D02*
D03*
Y10550D02*
D03*
X84800Y4050D02*
D03*
Y10550D02*
D03*
D25*
X23030Y43504D02*
D03*
X30530D02*
D03*
X18030D02*
D03*
X8030D02*
D03*
D26*
X25530D02*
D03*
X28030D02*
D03*
X15530D02*
D03*
X10530D02*
D03*
X5530D02*
D03*
D27*
X79121Y43354D02*
D03*
D28*
X89027Y12192D02*
D03*
X91567D02*
D03*
X81264Y18161D02*
D03*
X83804D02*
D03*
X15240Y6985D02*
D03*
X17780D02*
D03*
X22860D02*
D03*
X25400D02*
D03*
X30480D02*
D03*
X33020D02*
D03*
X38100D02*
D03*
X40640D02*
D03*
X72374Y18161D02*
D03*
X74914D02*
D03*
D29*
X60326Y29972D02*
D03*
Y37592D02*
D03*
X65469Y29972D02*
D03*
Y37592D02*
D03*
X39752Y29972D02*
D03*
Y37592D02*
D03*
X55182Y29972D02*
D03*
Y37592D02*
D03*
X70613Y29972D02*
D03*
Y37592D02*
D03*
X44896Y29972D02*
D03*
Y37592D02*
D03*
X50039Y29972D02*
D03*
Y37592D02*
D03*
D30*
X32639Y59055D02*
D03*
X24511Y68326D02*
D03*
X22098Y71120D02*
D03*
X86741Y38735D02*
D03*
X85090D02*
D03*
X73215Y32068D02*
D03*
X89027Y41656D02*
D03*
X89535Y22860D02*
D03*
X87517Y17399D02*
D03*
%TF.MD5,f6cbf3bfb6d06afee9d78621d7a6165a*%
M02*
