%TF.GenerationSoftware,Altium Limited,Altium Designer,21.8.1 (53)*%
G04 Layer_Color=65535*
%FSLAX43Y43*%
%MOMM*%
%TF.SameCoordinates,048A42BD-2BC6-4B9E-88CB-C2FB4D5E15D7*%
%TF.FilePolarity,Positive*%
%TF.FileFunction,Legend,Top*%
%TF.Part,Single*%
G01*
G75*
%TA.AperFunction,NonConductor*%
%ADD11C,0.254*%
%ADD31C,0.100*%
%ADD32C,0.200*%
G36*
X33566Y72572D02*
X33570D01*
Y72568D01*
X33575D01*
Y72558D01*
X33580D01*
Y72549D01*
X33585D01*
Y72539D01*
X33589D01*
Y72535D01*
X33594D01*
Y72525D01*
X33599D01*
Y72516D01*
X33603D01*
Y72511D01*
X33608D01*
Y72502D01*
X33613D01*
Y72492D01*
X33618D01*
Y72483D01*
X33622D01*
Y72478D01*
X33627D01*
Y72469D01*
X33632D01*
Y72459D01*
X33636D01*
Y72450D01*
X33641D01*
Y72445D01*
X33646D01*
Y72436D01*
X33651D01*
Y72426D01*
X33655D01*
Y72421D01*
X33660D01*
Y72412D01*
X33665D01*
Y72403D01*
X33669D01*
Y72393D01*
X33674D01*
Y72388D01*
X33679D01*
Y72379D01*
X33684D01*
Y72370D01*
X33688D01*
Y72365D01*
X33693D01*
Y72355D01*
X33698D01*
Y72346D01*
X33702D01*
Y72337D01*
X33707D01*
Y72332D01*
X33712D01*
Y72322D01*
X33717D01*
Y72313D01*
X33721D01*
Y72304D01*
X33726D01*
Y72299D01*
X33731D01*
Y72289D01*
X33735D01*
Y72280D01*
X33740D01*
Y72275D01*
X33745D01*
Y72266D01*
X33750D01*
Y72256D01*
X33754D01*
Y72247D01*
X33759D01*
Y72242D01*
X33764D01*
Y72233D01*
X33768D01*
Y72223D01*
X33773D01*
Y72219D01*
X33778D01*
Y72209D01*
X33783D01*
Y72200D01*
X33787D01*
Y72190D01*
X33792D01*
Y72186D01*
X33797D01*
Y72176D01*
X33801D01*
Y72167D01*
X33806D01*
Y72157D01*
X33811D01*
Y72153D01*
X33816D01*
Y72143D01*
X33820D01*
Y72134D01*
X33825D01*
Y72129D01*
X33830D01*
Y72120D01*
X33834D01*
Y72110D01*
X33839D01*
Y72101D01*
X33844D01*
Y72096D01*
X33849D01*
Y72087D01*
X33853D01*
Y72077D01*
X33858D01*
Y72068D01*
X33863D01*
Y72063D01*
X33867D01*
Y72054D01*
X33872D01*
Y72044D01*
X33877D01*
Y72040D01*
X33882D01*
Y72030D01*
X33886D01*
Y72021D01*
X33891D01*
Y72011D01*
X33896D01*
Y72007D01*
X33900D01*
Y71997D01*
X33905D01*
Y71988D01*
X33910D01*
Y71983D01*
X33915D01*
Y71974D01*
X33919D01*
Y71964D01*
X33924D01*
Y71955D01*
X33929D01*
Y71950D01*
X33933D01*
Y71941D01*
X33938D01*
Y71931D01*
X33943D01*
Y71922D01*
X33947D01*
Y71917D01*
X33952D01*
Y71908D01*
X33957D01*
Y71898D01*
X33962D01*
Y71894D01*
X33966D01*
Y71884D01*
X33971D01*
Y71875D01*
X33976D01*
Y71865D01*
X33980D01*
Y71861D01*
X33985D01*
Y71851D01*
X33990D01*
Y71842D01*
X33995D01*
Y71837D01*
X33999D01*
Y71828D01*
X34004D01*
Y71818D01*
X34009D01*
Y71809D01*
X34013D01*
Y71804D01*
X34018D01*
Y71795D01*
X34023D01*
Y71785D01*
X34028D01*
Y71776D01*
X34032D01*
Y71771D01*
X34037D01*
Y71762D01*
X34042D01*
Y71752D01*
X34046D01*
Y71747D01*
X34051D01*
Y71738D01*
X34056D01*
Y71729D01*
X34061D01*
Y71719D01*
X34065D01*
Y71714D01*
X34070D01*
Y71705D01*
X34075D01*
Y71696D01*
X34079D01*
Y71686D01*
X34084D01*
Y71681D01*
X34089D01*
Y71672D01*
X34094D01*
Y71663D01*
X34098D01*
Y71658D01*
X34103D01*
Y71648D01*
X34108D01*
Y71639D01*
X34112D01*
Y71630D01*
X34117D01*
Y71625D01*
X34122D01*
Y71615D01*
X34127D01*
Y71606D01*
X34131D01*
Y71601D01*
X34136D01*
Y71592D01*
X34141D01*
Y71582D01*
X34145D01*
Y71573D01*
X34150D01*
Y71568D01*
X34155D01*
Y71559D01*
X34160D01*
Y71549D01*
X34164D01*
Y71540D01*
X34169D01*
Y71535D01*
X34174D01*
Y71526D01*
X34178D01*
Y71516D01*
X34183D01*
Y71512D01*
X34188D01*
Y71502D01*
X34193D01*
Y71493D01*
X34197D01*
Y71483D01*
X34202D01*
Y71479D01*
X34207D01*
Y71469D01*
X34211D01*
Y71460D01*
X34216D01*
Y71450D01*
X34221D01*
Y71446D01*
X34226D01*
Y71436D01*
X34230D01*
Y71427D01*
X34235D01*
Y71422D01*
X34240D01*
Y71413D01*
X34244D01*
Y71403D01*
X34249D01*
Y71394D01*
X34254D01*
Y71389D01*
X34259D01*
Y71380D01*
X34263D01*
Y71370D01*
X34268D01*
Y71366D01*
X34273D01*
Y71356D01*
X34277D01*
Y71347D01*
X34282D01*
Y71337D01*
X34287D01*
Y71333D01*
X34292D01*
Y71323D01*
X34296D01*
Y71314D01*
X34301D01*
Y71304D01*
X34306D01*
Y71300D01*
X34310D01*
Y71290D01*
X34315D01*
Y71281D01*
X34320D01*
Y71276D01*
X34325D01*
Y71267D01*
X34329D01*
Y71257D01*
X34334D01*
Y71248D01*
X34339D01*
Y71243D01*
X34343D01*
Y71234D01*
X34348D01*
Y71224D01*
X34353D01*
Y71220D01*
X34358D01*
Y71210D01*
X34362D01*
Y71201D01*
X34367D01*
Y71191D01*
X34372D01*
Y71187D01*
X34376D01*
Y71177D01*
X34381D01*
Y71168D01*
X34386D01*
Y71158D01*
X34391D01*
Y71154D01*
X34395D01*
Y71144D01*
X34400D01*
Y71135D01*
X34405D01*
Y71130D01*
X34409D01*
Y71121D01*
X34414D01*
Y71111D01*
X34419D01*
Y71102D01*
X34424D01*
Y71097D01*
X34428D01*
Y71088D01*
X34433D01*
Y71078D01*
X34438D01*
Y71069D01*
X34442D01*
Y71064D01*
X34447D01*
Y71055D01*
X34452D01*
Y71045D01*
X34457D01*
Y71040D01*
X34461D01*
Y71031D01*
X34466D01*
Y71022D01*
X34471D01*
Y71012D01*
X34475D01*
Y71007D01*
X34480D01*
Y70998D01*
X34485D01*
Y70989D01*
X34490D01*
Y70984D01*
X34494D01*
Y70974D01*
X34499D01*
Y70965D01*
X34504D01*
Y70956D01*
X34508D01*
Y70951D01*
X34513D01*
Y70941D01*
X34518D01*
Y70932D01*
X34523D01*
Y70923D01*
X34527D01*
Y70918D01*
X34532D01*
Y70908D01*
X34537D01*
Y70899D01*
X34541D01*
Y70894D01*
X34546D01*
Y70885D01*
X34551D01*
Y70875D01*
X34556D01*
Y70866D01*
X34560D01*
Y70861D01*
X34565D01*
Y70852D01*
X34570D01*
Y70842D01*
X34574D01*
Y70833D01*
X34579D01*
Y70828D01*
X34584D01*
Y70819D01*
X34589D01*
Y70809D01*
X34593D01*
Y70805D01*
X34598D01*
Y70795D01*
X34603D01*
Y70786D01*
X34607D01*
Y70776D01*
X34612D01*
Y70772D01*
X34617D01*
Y70762D01*
X34622D01*
Y70753D01*
X34626D01*
Y70748D01*
X34631D01*
Y70739D01*
X34636D01*
Y70729D01*
X34640D01*
Y70720D01*
X34645D01*
Y70715D01*
X34650D01*
Y70706D01*
X34654D01*
Y70696D01*
X34659D01*
Y70687D01*
X34664D01*
Y70682D01*
X34669D01*
Y70673D01*
X34673D01*
Y70663D01*
X34678D01*
Y70659D01*
X34683D01*
Y70649D01*
X34688D01*
Y70640D01*
X34692D01*
Y70630D01*
X34697D01*
Y70626D01*
X34702D01*
Y70616D01*
X34706D01*
Y70607D01*
X34711D01*
Y70602D01*
X34716D01*
Y70593D01*
X34720D01*
Y70583D01*
X34725D01*
Y70574D01*
X34730D01*
Y70569D01*
X34735D01*
Y70560D01*
X34739D01*
Y70550D01*
X34744D01*
Y70541D01*
X34749D01*
Y70536D01*
X34753D01*
Y70527D01*
X34758D01*
Y70517D01*
X34763D01*
Y70512D01*
X34768D01*
Y70503D01*
X34772D01*
Y70494D01*
X34777D01*
Y70484D01*
X34782D01*
Y70479D01*
X34786D01*
Y70470D01*
X34791D01*
Y70461D01*
X34796D01*
Y70451D01*
X34801D01*
Y70447D01*
X34805D01*
Y70437D01*
X34810D01*
Y70428D01*
X34815D01*
Y70423D01*
X34819D01*
Y70414D01*
X34824D01*
Y70404D01*
X34829D01*
Y70395D01*
X34834D01*
Y70390D01*
X34838D01*
Y70381D01*
X34843D01*
Y70371D01*
X34848D01*
Y70366D01*
X34852D01*
Y70357D01*
X34857D01*
Y70348D01*
X34862D01*
Y70338D01*
X34867D01*
Y70333D01*
X34871D01*
Y70324D01*
X34876D01*
Y70315D01*
X34881D01*
Y70305D01*
X34885D01*
Y70300D01*
X34890D01*
Y70291D01*
X34895D01*
Y70282D01*
X34900D01*
Y70277D01*
X34904D01*
Y70267D01*
X34909D01*
Y70258D01*
X34914D01*
Y70249D01*
X34918D01*
Y70244D01*
X34923D01*
Y70234D01*
X34928D01*
Y70225D01*
X34933D01*
Y70220D01*
X34937D01*
Y70211D01*
X34942D01*
Y70201D01*
X34947D01*
Y70192D01*
X34951D01*
Y70187D01*
X34956D01*
Y70178D01*
X34961D01*
Y70168D01*
X34966D01*
Y70159D01*
X34970D01*
Y70154D01*
X34975D01*
Y70145D01*
X34980D01*
Y70135D01*
X34984D01*
Y70131D01*
X34989D01*
Y70121D01*
X34994D01*
Y70112D01*
X34999D01*
Y70102D01*
X35003D01*
Y70098D01*
X35008D01*
Y70088D01*
X35013D01*
Y70079D01*
X35017D01*
Y70069D01*
X35022D01*
Y70065D01*
X35027D01*
Y70055D01*
X35032D01*
Y70046D01*
X35036D01*
Y70041D01*
X35041D01*
Y70032D01*
X35046D01*
Y70022D01*
X35050D01*
Y70013D01*
X35055D01*
Y70008D01*
X35060D01*
Y69999D01*
X35065D01*
Y69989D01*
X35069D01*
Y69985D01*
X35074D01*
Y69975D01*
X35079D01*
Y69966D01*
X35083D01*
Y69956D01*
X35088D01*
Y69952D01*
X35093D01*
Y69942D01*
X35098D01*
Y69933D01*
X35102D01*
Y69923D01*
X35107D01*
Y69919D01*
X35112D01*
Y69909D01*
X35116D01*
Y69900D01*
X35121D01*
Y69895D01*
X35126D01*
Y69886D01*
X35131D01*
Y69876D01*
X35135D01*
Y69867D01*
X35140D01*
Y69862D01*
X35145D01*
Y69853D01*
X35149D01*
Y69843D01*
X35154D01*
Y69834D01*
X35159D01*
Y69829D01*
X35164D01*
Y69820D01*
X35168D01*
Y69810D01*
X35173D01*
Y69805D01*
X35178D01*
Y69796D01*
X35182D01*
Y69787D01*
X35187D01*
Y69777D01*
X35192D01*
Y69772D01*
X35197D01*
Y69763D01*
X35201D01*
Y69754D01*
X35206D01*
Y69749D01*
X35211D01*
Y69740D01*
X35215D01*
Y69730D01*
X35220D01*
Y69721D01*
X35225D01*
Y69716D01*
X35230D01*
Y69707D01*
X35234D01*
Y69697D01*
X35239D01*
Y69688D01*
X35244D01*
Y69683D01*
X35248D01*
Y69674D01*
X35253D01*
Y69664D01*
X35258D01*
Y69659D01*
X35263D01*
Y69650D01*
X35267D01*
Y69641D01*
X35272D01*
Y69631D01*
X35277D01*
Y69626D01*
X35281D01*
Y69617D01*
X35286D01*
Y69608D01*
X35291D01*
Y69603D01*
X35296D01*
Y69593D01*
X35300D01*
Y69584D01*
X35305D01*
Y69575D01*
X35310D01*
Y69570D01*
X35314D01*
Y69560D01*
X35319D01*
Y69551D01*
X35324D01*
Y69542D01*
X35329D01*
Y69537D01*
X35333D01*
Y69527D01*
X35338D01*
Y69518D01*
X35343D01*
Y69513D01*
X35347D01*
Y69504D01*
X35352D01*
Y69494D01*
X35357D01*
Y69485D01*
X35362D01*
Y69480D01*
X35366D01*
Y69471D01*
X35371D01*
Y69461D01*
X35376D01*
Y69452D01*
X35380D01*
Y69447D01*
X35385D01*
Y69438D01*
X35390D01*
Y69428D01*
X35395D01*
Y69424D01*
X35399D01*
Y69414D01*
X35404D01*
Y69405D01*
X35409D01*
Y69395D01*
X35413D01*
Y69391D01*
X35418D01*
Y69381D01*
X35423D01*
Y69372D01*
X35428D01*
Y69367D01*
X35432D01*
Y69358D01*
X35437D01*
Y69348D01*
X35442D01*
Y69339D01*
X35446D01*
Y69334D01*
X35451D01*
Y69325D01*
X35456D01*
Y69315D01*
X35460D01*
Y69306D01*
X35465D01*
Y69301D01*
X35470D01*
Y69292D01*
X35475D01*
Y69282D01*
X35479D01*
Y69278D01*
X35484D01*
Y69268D01*
X35489D01*
Y69259D01*
X35493D01*
Y69249D01*
X35498D01*
Y69245D01*
X35503D01*
Y69235D01*
X35508D01*
Y69226D01*
X35512D01*
Y69216D01*
X35517D01*
Y69212D01*
X35522D01*
Y69202D01*
X35526D01*
Y69193D01*
X35531D01*
Y69188D01*
X35536D01*
Y69179D01*
X35541D01*
Y69169D01*
X35545D01*
Y69160D01*
X35550D01*
Y69155D01*
X35555D01*
Y69146D01*
X35559D01*
Y69136D01*
X35564D01*
Y69131D01*
X35569D01*
Y69122D01*
X35574D01*
Y69113D01*
X35578D01*
Y69103D01*
X35583D01*
Y69098D01*
X35588D01*
Y69089D01*
X35592D01*
Y69080D01*
X35597D01*
Y69070D01*
X35602D01*
Y69065D01*
X35607D01*
Y69056D01*
X35611D01*
Y69047D01*
X35616D01*
Y69042D01*
X35621D01*
Y69032D01*
X35625D01*
Y69023D01*
X35630D01*
Y69014D01*
X35635D01*
Y69009D01*
X35640D01*
Y68999D01*
X35644D01*
Y68990D01*
X35649D01*
Y68985D01*
X35654D01*
Y68976D01*
X35658D01*
Y68966D01*
X35663D01*
Y68957D01*
X35668D01*
Y68952D01*
X35673D01*
Y68943D01*
X35677D01*
Y68934D01*
X35682D01*
Y68924D01*
X35687D01*
Y68919D01*
X35691D01*
Y68910D01*
X35696D01*
Y68901D01*
X35701D01*
Y68896D01*
X35706D01*
Y68886D01*
X35710D01*
Y68877D01*
X35715D01*
Y68868D01*
X35720D01*
Y68863D01*
X35724D01*
Y68853D01*
X35729D01*
Y68844D01*
X35734D01*
Y68835D01*
X35739D01*
Y68830D01*
X35743D01*
Y68820D01*
X35748D01*
Y68811D01*
X35753D01*
Y68806D01*
X35757D01*
Y68797D01*
X35762D01*
Y68787D01*
X35767D01*
Y68778D01*
X35772D01*
Y68773D01*
X35776D01*
Y68764D01*
X35781D01*
Y68754D01*
X35786D01*
Y68750D01*
X35790D01*
Y68740D01*
X35795D01*
Y68731D01*
X35800D01*
Y68721D01*
X35805D01*
Y68717D01*
X35809D01*
Y68707D01*
X35814D01*
Y68698D01*
X35819D01*
Y68688D01*
X35823D01*
Y68684D01*
X35828D01*
Y68674D01*
X35833D01*
Y68665D01*
X35838D01*
Y68660D01*
X35842D01*
Y68651D01*
X35847D01*
Y68641D01*
X35852D01*
Y68632D01*
X35856D01*
Y68627D01*
X35861D01*
Y68618D01*
X35866D01*
Y68608D01*
X35871D01*
Y68604D01*
X35875D01*
Y68594D01*
X35880D01*
Y68585D01*
X35885D01*
Y68575D01*
X35889D01*
Y68571D01*
X35894D01*
Y68561D01*
X35899D01*
Y68552D01*
X35904D01*
Y68542D01*
X35908D01*
Y68538D01*
X35913D01*
Y68528D01*
X35918D01*
Y68519D01*
X35922D01*
Y68514D01*
X35927D01*
Y68505D01*
X35932D01*
Y68495D01*
X35937D01*
Y68486D01*
X35941D01*
Y68481D01*
X35946D01*
Y68472D01*
X35951D01*
Y68462D01*
X35955D01*
Y68453D01*
X35960D01*
Y68448D01*
X35965D01*
Y68439D01*
X35970D01*
Y68429D01*
X35974D01*
Y68424D01*
X35979D01*
Y68415D01*
X35984D01*
Y68406D01*
X35988D01*
Y68396D01*
X35993D01*
Y68391D01*
X35998D01*
Y68382D01*
X36003D01*
Y68373D01*
X36007D01*
Y68368D01*
X36012D01*
Y68358D01*
X36017D01*
Y68349D01*
X36021D01*
Y68340D01*
X36026D01*
Y68335D01*
X36031D01*
Y68325D01*
X36036D01*
Y68316D01*
X36040D01*
Y68307D01*
X36045D01*
Y68302D01*
X36050D01*
Y68292D01*
X36054D01*
Y68283D01*
X36059D01*
Y68278D01*
X36064D01*
Y68269D01*
X36069D01*
Y68259D01*
X36073D01*
Y68250D01*
X36078D01*
Y68245D01*
X36083D01*
Y68236D01*
X36087D01*
Y68227D01*
X36092D01*
Y68217D01*
X36097D01*
Y68212D01*
X36102D01*
Y68203D01*
X36106D01*
Y68193D01*
X36111D01*
Y68189D01*
X36116D01*
Y68179D01*
X36120D01*
Y68170D01*
X36125D01*
Y68161D01*
X36130D01*
Y68156D01*
X36135D01*
Y68146D01*
X36139D01*
Y68137D01*
X36144D01*
Y68132D01*
X36149D01*
Y68123D01*
X36153D01*
Y68113D01*
X36158D01*
Y68104D01*
X36163D01*
Y68099D01*
X36167D01*
Y68090D01*
X36172D01*
Y68080D01*
X36177D01*
Y68071D01*
X36182D01*
Y68066D01*
X36186D01*
Y68057D01*
X36191D01*
Y68047D01*
X36196D01*
Y68043D01*
X36201D01*
Y68033D01*
X36205D01*
Y68024D01*
X36210D01*
Y68014D01*
X36215D01*
Y68010D01*
X36219D01*
Y68000D01*
X36224D01*
Y67991D01*
X36229D01*
Y67986D01*
X36233D01*
Y67977D01*
X36238D01*
Y67967D01*
X36243D01*
Y67958D01*
X36248D01*
Y67953D01*
X36252D01*
Y67944D01*
X36257D01*
Y67934D01*
X36262D01*
Y67925D01*
X36266D01*
Y67920D01*
X36271D01*
Y67911D01*
X36276D01*
Y67901D01*
X36281D01*
Y67897D01*
X36285D01*
Y67887D01*
X36290D01*
Y67878D01*
X36295D01*
Y67868D01*
X36299D01*
Y67864D01*
X36304D01*
Y67854D01*
X36309D01*
Y67845D01*
X36314D01*
Y67835D01*
X36318D01*
Y67831D01*
X36323D01*
Y67821D01*
X36328D01*
Y67812D01*
X36332D01*
Y67807D01*
X36337D01*
Y67798D01*
X36342D01*
Y67788D01*
X36347D01*
Y67779D01*
X36351D01*
Y67774D01*
X36356D01*
Y67765D01*
X36361D01*
Y67755D01*
X36365D01*
Y67750D01*
X36370D01*
Y67741D01*
X36375D01*
Y67732D01*
X36380D01*
Y67722D01*
X36384D01*
Y67717D01*
X36389D01*
Y67708D01*
X36394D01*
Y67699D01*
X36398D01*
Y67689D01*
X36403D01*
Y67684D01*
X36408D01*
Y67675D01*
X36413D01*
Y67666D01*
X36417D01*
Y67661D01*
X36422D01*
Y67651D01*
X36427D01*
Y67642D01*
X36431D01*
Y67633D01*
X36436D01*
Y67628D01*
X36441D01*
Y67618D01*
X36446D01*
Y67609D01*
X36450D01*
Y67600D01*
X36455D01*
Y67595D01*
X36460D01*
Y67585D01*
X36464D01*
Y67576D01*
X36469D01*
Y67571D01*
X36474D01*
Y67562D01*
X36479D01*
Y67552D01*
X36483D01*
Y67543D01*
X36488D01*
Y67538D01*
X36493D01*
Y67529D01*
X36497D01*
Y67519D01*
X36502D01*
Y67515D01*
X36507D01*
Y67505D01*
X36512D01*
Y67496D01*
X36516D01*
Y67486D01*
X36521D01*
Y67482D01*
X36526D01*
Y67472D01*
X36530D01*
Y67463D01*
X36535D01*
Y67453D01*
X36540D01*
Y67449D01*
X36545D01*
Y67439D01*
X36549D01*
Y67430D01*
X36554D01*
Y67425D01*
X36559D01*
Y67416D01*
X36563D01*
Y67406D01*
X36568D01*
Y67397D01*
X36573D01*
Y67392D01*
X36578D01*
Y67383D01*
X36582D01*
Y67373D01*
X36587D01*
Y67369D01*
X36592D01*
Y67359D01*
X36596D01*
Y67350D01*
X36601D01*
Y67340D01*
X36606D01*
Y67336D01*
X36611D01*
Y67326D01*
X36615D01*
Y67317D01*
X36620D01*
Y67307D01*
X36625D01*
Y67303D01*
X36629D01*
Y67293D01*
X36634D01*
Y67284D01*
X36639D01*
Y67279D01*
X36644D01*
Y67270D01*
X36648D01*
Y67260D01*
X36653D01*
Y67251D01*
X36658D01*
Y67246D01*
X36662D01*
Y67237D01*
X36667D01*
Y67227D01*
X36672D01*
Y67218D01*
X36677D01*
Y67213D01*
X36681D01*
Y67204D01*
X36686D01*
Y67194D01*
X36691D01*
Y67190D01*
X36695D01*
Y67180D01*
X36700D01*
Y67171D01*
X36705D01*
Y67161D01*
X36710D01*
Y67157D01*
X36714D01*
Y67147D01*
X36719D01*
Y67138D01*
X36724D01*
Y67133D01*
X36728D01*
Y67124D01*
X36733D01*
Y67114D01*
X36738D01*
Y67105D01*
X36743D01*
Y67100D01*
X36747D01*
Y67091D01*
X36752D01*
Y67081D01*
X36757D01*
Y67072D01*
X36761D01*
Y67067D01*
X36766D01*
Y67058D01*
X36771D01*
Y67048D01*
X36776D01*
Y67043D01*
X36780D01*
Y67034D01*
X36785D01*
Y67025D01*
X36790D01*
Y67015D01*
X36794D01*
Y67010D01*
X36799D01*
Y67001D01*
X36804D01*
Y66992D01*
X36809D01*
Y66987D01*
X36813D01*
Y66977D01*
X36818D01*
Y66968D01*
X36823D01*
Y66959D01*
X36827D01*
Y66954D01*
X36832D01*
Y66944D01*
X36837D01*
Y66935D01*
X36842D01*
Y66926D01*
X36846D01*
Y66921D01*
X36851D01*
Y66911D01*
X36856D01*
Y66902D01*
X36860D01*
Y66897D01*
X36865D01*
Y66888D01*
X36870D01*
Y66878D01*
X36875D01*
Y66869D01*
X36879D01*
Y66864D01*
X36884D01*
Y66855D01*
X36889D01*
Y66845D01*
X36893D01*
Y66836D01*
X36898D01*
Y66831D01*
X36903D01*
Y66822D01*
X36908D01*
Y66812D01*
X36912D01*
Y66808D01*
X36917D01*
Y66798D01*
X36922D01*
Y66789D01*
X36926D01*
Y66779D01*
X36931D01*
Y66775D01*
X36936D01*
Y66765D01*
X36940D01*
Y66756D01*
X36945D01*
Y66751D01*
X36950D01*
Y66742D01*
X36955D01*
Y66732D01*
X36959D01*
Y66723D01*
X36964D01*
Y66718D01*
X36969D01*
Y66709D01*
X36973D01*
Y66699D01*
X36978D01*
Y66690D01*
X36983D01*
Y66685D01*
X36988D01*
Y66676D01*
X36992D01*
Y66666D01*
X36997D01*
Y66662D01*
X37002D01*
Y66652D01*
X37006D01*
Y66643D01*
X37011D01*
Y66633D01*
X37016D01*
Y66629D01*
X37021D01*
Y66619D01*
X37025D01*
Y66610D01*
X37030D01*
Y66600D01*
X37035D01*
Y66596D01*
X37039D01*
Y66586D01*
X37044D01*
Y66577D01*
X37049D01*
Y66572D01*
X37054D01*
Y66563D01*
X37058D01*
Y66553D01*
X37063D01*
Y66544D01*
X37068D01*
Y66539D01*
X37072D01*
Y66530D01*
X37077D01*
Y66520D01*
X37082D01*
Y66516D01*
X37087D01*
Y66506D01*
X37091D01*
Y66497D01*
X37096D01*
Y66487D01*
X37101D01*
Y66483D01*
X37105D01*
Y66473D01*
X37110D01*
Y66464D01*
X37115D01*
Y66454D01*
X37120D01*
Y66450D01*
X37124D01*
Y66440D01*
X37129D01*
Y66431D01*
X37134D01*
Y66426D01*
X37138D01*
Y66417D01*
X37143D01*
Y66407D01*
X37148D01*
Y66398D01*
X37153D01*
Y66393D01*
X37157D01*
Y66384D01*
X37162D01*
Y66374D01*
X37167D01*
Y66369D01*
X37171D01*
Y66360D01*
X37176D01*
Y66351D01*
X37181D01*
Y66341D01*
X37186D01*
Y66336D01*
X37190D01*
Y66327D01*
X37195D01*
Y66318D01*
X37200D01*
Y66308D01*
X37204D01*
Y66303D01*
X37209D01*
Y66294D01*
X37214D01*
Y66285D01*
X37219D01*
Y66280D01*
X37223D01*
Y66270D01*
X37228D01*
Y66261D01*
X37233D01*
Y66252D01*
X37237D01*
Y66247D01*
X37242D01*
Y66237D01*
X37247D01*
Y66228D01*
X37252D01*
Y66219D01*
X37256D01*
Y66214D01*
X37261D01*
Y66204D01*
X37266D01*
Y66195D01*
X37270D01*
Y66190D01*
X37275D01*
Y66181D01*
X37280D01*
Y66171D01*
X37285D01*
Y66162D01*
X37289D01*
Y66157D01*
X37294D01*
Y66148D01*
X37299D01*
Y66138D01*
X37303D01*
Y66134D01*
X37308D01*
Y66124D01*
X37313D01*
Y66115D01*
X37318D01*
Y66105D01*
X37322D01*
Y66101D01*
X37327D01*
Y66091D01*
X37332D01*
Y66082D01*
X37336D01*
Y66072D01*
X37341D01*
Y66068D01*
X37346D01*
Y66058D01*
X37351D01*
Y66049D01*
X37355D01*
Y66044D01*
X37360D01*
Y66035D01*
X37365D01*
Y66025D01*
X37369D01*
Y66016D01*
X37374D01*
Y66011D01*
X37379D01*
Y66002D01*
X37384D01*
Y65992D01*
X37388D01*
Y65983D01*
X37393D01*
Y65978D01*
X37398D01*
Y65969D01*
X37402D01*
Y65959D01*
X37407D01*
Y65955D01*
X37412D01*
Y65945D01*
X37417D01*
Y65936D01*
X37421D01*
Y65926D01*
X37426D01*
Y65922D01*
X37431D01*
Y65912D01*
X37435D01*
Y65903D01*
X37440D01*
Y65898D01*
X37445D01*
Y65889D01*
X37450D01*
Y65879D01*
X37454D01*
Y65870D01*
X37459D01*
Y65865D01*
X37464D01*
Y65856D01*
X37468D01*
Y65846D01*
X37473D01*
Y65837D01*
X37478D01*
Y65832D01*
X37483D01*
Y65823D01*
X37487D01*
Y65813D01*
X37492D01*
Y65809D01*
X37497D01*
Y65799D01*
X37501D01*
Y65790D01*
X37506D01*
Y65780D01*
X37511D01*
Y65776D01*
X37516D01*
Y65766D01*
X37520D01*
Y65757D01*
X37525D01*
Y65752D01*
X37530D01*
Y65743D01*
X37534D01*
Y65733D01*
X37539D01*
Y65724D01*
X37544D01*
Y65719D01*
X37549D01*
Y65710D01*
X37553D01*
Y65700D01*
X37558D01*
Y65691D01*
X37563D01*
Y65686D01*
X37567D01*
Y65677D01*
X37572D01*
Y65667D01*
X37577D01*
Y65662D01*
X37582D01*
Y65653D01*
X37586D01*
Y65644D01*
X37591D01*
Y65634D01*
X37596D01*
Y65629D01*
X37600D01*
Y65620D01*
X37605D01*
Y65611D01*
X37610D01*
Y65601D01*
X37615D01*
Y65596D01*
X37619D01*
Y65587D01*
X37624D01*
Y65578D01*
X37629D01*
Y65573D01*
X37633D01*
Y65563D01*
X37638D01*
Y65554D01*
X37643D01*
Y65545D01*
X37648D01*
Y65540D01*
X37652D01*
Y65530D01*
X37657D01*
Y65521D01*
X37662D01*
Y65516D01*
X37666D01*
Y65507D01*
X37671D01*
Y65497D01*
X37676D01*
Y65488D01*
X37681D01*
Y65483D01*
X37685D01*
Y65474D01*
X37690D01*
Y65464D01*
X37695D01*
Y65455D01*
X37699D01*
Y65450D01*
X37704D01*
Y65441D01*
X37709D01*
Y65431D01*
X37714D01*
Y65427D01*
X37718D01*
Y65417D01*
X37723D01*
Y65408D01*
X37728D01*
Y65398D01*
X37732D01*
Y65394D01*
X37737D01*
Y65384D01*
X37742D01*
Y65375D01*
X37746D01*
Y65370D01*
X37751D01*
Y65361D01*
X37756D01*
Y65351D01*
X37761D01*
Y65342D01*
X37765D01*
Y65337D01*
X37770D01*
Y65328D01*
X37775D01*
Y65318D01*
X37779D01*
Y65309D01*
X37784D01*
Y65304D01*
X37789D01*
Y65295D01*
X37794D01*
Y65285D01*
X37798D01*
Y65281D01*
X37803D01*
Y65271D01*
X37808D01*
Y65262D01*
X37812D01*
Y65252D01*
X37817D01*
Y65248D01*
X37822D01*
Y65238D01*
X37827D01*
Y65229D01*
X37831D01*
Y65219D01*
X37836D01*
Y65215D01*
X37841D01*
Y65205D01*
X37845D01*
Y65196D01*
X37850D01*
Y65191D01*
X37855D01*
Y65182D01*
X37860D01*
Y65172D01*
X37864D01*
Y65163D01*
X37869D01*
Y65158D01*
X37874D01*
Y65149D01*
X37878D01*
Y65139D01*
X37883D01*
Y65135D01*
X37888D01*
Y65125D01*
X37893D01*
Y65116D01*
X37897D01*
Y65106D01*
X37902D01*
Y65102D01*
X37907D01*
Y65092D01*
X37911D01*
Y65083D01*
X37916D01*
Y65073D01*
X37921D01*
Y65069D01*
X37926D01*
Y65059D01*
X37930D01*
Y65050D01*
X37935D01*
Y65045D01*
X37940D01*
Y65036D01*
X37944D01*
Y65026D01*
X37949D01*
Y65017D01*
X37954D01*
Y65012D01*
X37959D01*
Y65003D01*
X37963D01*
Y64993D01*
X37968D01*
Y64984D01*
X37973D01*
Y64979D01*
X37977D01*
Y64970D01*
X37982D01*
Y64960D01*
X37987D01*
Y64955D01*
X37992D01*
Y64946D01*
X37996D01*
Y64937D01*
X38001D01*
Y64927D01*
X38006D01*
Y64922D01*
X38010D01*
Y64913D01*
X38015D01*
Y64904D01*
X38020D01*
Y64899D01*
X38025D01*
Y64889D01*
X38029D01*
Y64880D01*
X38034D01*
Y64871D01*
X38039D01*
Y64866D01*
X38043D01*
Y64856D01*
X38048D01*
Y64847D01*
X38053D01*
Y64838D01*
X38058D01*
Y64833D01*
X38062D01*
Y64823D01*
X38067D01*
Y64814D01*
X38072D01*
Y64809D01*
X38076D01*
Y64800D01*
X38081D01*
Y64790D01*
X38086D01*
Y64781D01*
X38091D01*
Y64776D01*
X38095D01*
Y64767D01*
X38100D01*
Y64757D01*
X38105D01*
Y64753D01*
X38109D01*
Y64743D01*
X38114D01*
Y64734D01*
X38119D01*
Y64724D01*
X38124D01*
Y64720D01*
X38128D01*
Y64710D01*
X38133D01*
Y64701D01*
X38138D01*
Y64691D01*
X38142D01*
Y64687D01*
X38147D01*
Y64677D01*
X38152D01*
Y64668D01*
X38157D01*
Y64663D01*
X38161D01*
Y64654D01*
X38166D01*
Y64644D01*
X38171D01*
Y64635D01*
X38175D01*
Y64630D01*
X38180D01*
Y64621D01*
X38185D01*
Y64611D01*
X38190D01*
Y64602D01*
X38194D01*
Y64597D01*
X38199D01*
Y64588D01*
X38204D01*
Y64578D01*
X38208D01*
Y64574D01*
X38213D01*
Y64564D01*
X38218D01*
Y64555D01*
X38223D01*
Y64545D01*
X38227D01*
Y64541D01*
X38232D01*
Y64531D01*
X38237D01*
Y64522D01*
X38241D01*
Y64517D01*
X38246D01*
Y64508D01*
X38251D01*
Y64498D01*
X38256D01*
Y64489D01*
X38260D01*
Y64484D01*
X38265D01*
Y64475D01*
X38270D01*
Y64465D01*
X38274D01*
Y64456D01*
X38279D01*
Y64451D01*
X38284D01*
Y64442D01*
X38289D01*
Y64432D01*
X38293D01*
Y64427D01*
X38298D01*
Y64418D01*
X38303D01*
Y64409D01*
X38307D01*
Y64399D01*
X38312D01*
Y64395D01*
X38317D01*
Y64385D01*
X38322D01*
Y64376D01*
X38326D01*
Y64366D01*
X38331D01*
Y64362D01*
X38336D01*
Y64352D01*
X38340D01*
Y64343D01*
X38345D01*
Y64338D01*
X38350D01*
Y64329D01*
X38355D01*
Y64319D01*
X38359D01*
Y64310D01*
X38364D01*
Y64305D01*
X38369D01*
Y64296D01*
X38373D01*
Y64286D01*
X38378D01*
Y64281D01*
X38383D01*
Y64272D01*
X38388D01*
Y64263D01*
X38392D01*
Y64253D01*
X38397D01*
Y64248D01*
X38402D01*
Y64239D01*
X38406D01*
Y64230D01*
X38411D01*
Y64220D01*
X38416D01*
Y64215D01*
X38421D01*
Y64206D01*
X38425D01*
Y64197D01*
X38430D01*
Y64192D01*
X38435D01*
Y64182D01*
X38439D01*
Y64173D01*
X38444D01*
Y64164D01*
X38449D01*
Y64159D01*
X38453D01*
Y64149D01*
X38458D01*
Y64140D01*
X38463D01*
Y64135D01*
X38468D01*
Y64126D01*
X38472D01*
Y64116D01*
X38477D01*
Y64107D01*
X38482D01*
Y64102D01*
X38486D01*
Y64093D01*
X38491D01*
Y64083D01*
X38496D01*
Y64074D01*
X38501D01*
Y64069D01*
X38505D01*
Y64060D01*
X38510D01*
Y64050D01*
X38515D01*
Y64046D01*
X38519D01*
Y64036D01*
X38524D01*
Y64027D01*
X38529D01*
Y64017D01*
X38534D01*
Y64013D01*
X38538D01*
Y64003D01*
X38543D01*
Y63994D01*
X38548D01*
Y63984D01*
X38552D01*
Y63980D01*
X38557D01*
Y63970D01*
X38562D01*
Y63961D01*
X38567D01*
Y63956D01*
X38571D01*
Y63947D01*
X38576D01*
Y63937D01*
X38581D01*
Y63928D01*
X38585D01*
Y63923D01*
X38590D01*
Y63914D01*
X38595D01*
Y63904D01*
X38600D01*
Y63900D01*
X38604D01*
Y63890D01*
X38609D01*
Y63881D01*
X38614D01*
Y63871D01*
X38618D01*
Y63867D01*
X38623D01*
Y63857D01*
X38628D01*
Y63848D01*
X38633D01*
Y63838D01*
X38637D01*
Y63834D01*
X38642D01*
Y63824D01*
X38647D01*
Y63815D01*
X38651D01*
Y63810D01*
X38656D01*
Y63801D01*
X38661D01*
Y63791D01*
X38666D01*
Y63782D01*
X38670D01*
Y63777D01*
X38675D01*
Y63768D01*
X38680D01*
Y63758D01*
X38684D01*
Y63753D01*
X38689D01*
Y63744D01*
X38694D01*
Y63735D01*
X38699D01*
Y63725D01*
X38703D01*
Y63720D01*
X38708D01*
Y63711D01*
X38713D01*
Y63702D01*
X38717D01*
Y63692D01*
X38722D01*
Y63687D01*
X38727D01*
Y63678D01*
X38732D01*
Y63669D01*
X38736D01*
Y63664D01*
X38741D01*
Y63654D01*
X38746D01*
Y63645D01*
X38750D01*
Y63636D01*
X38755D01*
Y63631D01*
X38760D01*
Y63621D01*
X38765D01*
Y63612D01*
X38769D01*
Y63603D01*
X38774D01*
Y63598D01*
X38779D01*
Y63589D01*
X38783D01*
Y63579D01*
X38788D01*
Y63574D01*
X38793D01*
Y63565D01*
X38798D01*
Y63556D01*
X38802D01*
Y63546D01*
X38807D01*
Y63541D01*
X38812D01*
Y63532D01*
X38816D01*
Y63523D01*
X38821D01*
Y63518D01*
X38826D01*
Y63508D01*
X38831D01*
Y63499D01*
X38835D01*
Y63490D01*
X38840D01*
Y63485D01*
X38845D01*
Y63475D01*
X38849D01*
Y63466D01*
X38854D01*
Y63457D01*
X38859D01*
Y63452D01*
X38864D01*
Y63442D01*
X28258D01*
Y63452D01*
X28263D01*
Y63457D01*
X28268D01*
Y63466D01*
X28273D01*
Y63475D01*
X28277D01*
Y63485D01*
X28282D01*
Y63490D01*
X28287D01*
Y63499D01*
X28291D01*
Y63508D01*
X28296D01*
Y63513D01*
X28301D01*
Y63523D01*
X28306D01*
Y63532D01*
X28310D01*
Y63541D01*
X28315D01*
Y63546D01*
X28320D01*
Y63556D01*
X28324D01*
Y63565D01*
X28329D01*
Y63570D01*
X28334D01*
Y63579D01*
X28339D01*
Y63589D01*
X28343D01*
Y63598D01*
X28348D01*
Y63603D01*
X28353D01*
Y63612D01*
X28357D01*
Y63621D01*
X28362D01*
Y63631D01*
X28367D01*
Y63636D01*
X28372D01*
Y63645D01*
X28376D01*
Y63654D01*
X28381D01*
Y63659D01*
X28386D01*
Y63669D01*
X28390D01*
Y63678D01*
X28395D01*
Y63687D01*
X28400D01*
Y63692D01*
X28405D01*
Y63702D01*
X28409D01*
Y63711D01*
X28414D01*
Y63720D01*
X28419D01*
Y63725D01*
X28423D01*
Y63735D01*
X28428D01*
Y63744D01*
X28433D01*
Y63749D01*
X28438D01*
Y63758D01*
X28442D01*
Y63768D01*
X28447D01*
Y63777D01*
X28452D01*
Y63782D01*
X28456D01*
Y63791D01*
X28461D01*
Y63801D01*
X28466D01*
Y63805D01*
X28471D01*
Y63815D01*
X28475D01*
Y63824D01*
X28480D01*
Y63834D01*
X28485D01*
Y63838D01*
X28489D01*
Y63848D01*
X28494D01*
Y63857D01*
X28499D01*
Y63867D01*
X28504D01*
Y63871D01*
X28508D01*
Y63881D01*
X28513D01*
Y63890D01*
X28518D01*
Y63895D01*
X28522D01*
Y63904D01*
X28527D01*
Y63914D01*
X28532D01*
Y63923D01*
X28537D01*
Y63928D01*
X28541D01*
Y63937D01*
X28546D01*
Y63947D01*
X28551D01*
Y63951D01*
X28555D01*
Y63961D01*
X28560D01*
Y63970D01*
X28565D01*
Y63980D01*
X28569D01*
Y63984D01*
X28574D01*
Y63994D01*
X28579D01*
Y64003D01*
X28584D01*
Y64013D01*
X28588D01*
Y64017D01*
X28593D01*
Y64027D01*
X28598D01*
Y64036D01*
X28603D01*
Y64041D01*
X28607D01*
Y64050D01*
X28612D01*
Y64060D01*
X28617D01*
Y64069D01*
X28621D01*
Y64074D01*
X28626D01*
Y64083D01*
X28631D01*
Y64093D01*
X28635D01*
Y64102D01*
X28640D01*
Y64107D01*
X28645D01*
Y64116D01*
X28650D01*
Y64126D01*
X28654D01*
Y64131D01*
X28659D01*
Y64140D01*
X28664D01*
Y64149D01*
X28668D01*
Y64159D01*
X28673D01*
Y64164D01*
X28678D01*
Y64173D01*
X28683D01*
Y64182D01*
X28687D01*
Y64187D01*
X28692D01*
Y64197D01*
X28697D01*
Y64206D01*
X28701D01*
Y64215D01*
X28706D01*
Y64220D01*
X28711D01*
Y64230D01*
X28716D01*
Y64239D01*
X28720D01*
Y64248D01*
X28725D01*
Y64253D01*
X28730D01*
Y64263D01*
X28734D01*
Y64272D01*
X28739D01*
Y64277D01*
X28744D01*
Y64286D01*
X28749D01*
Y64296D01*
X28753D01*
Y64305D01*
X28758D01*
Y64310D01*
X28763D01*
Y64319D01*
X28767D01*
Y64329D01*
X28772D01*
Y64338D01*
X28777D01*
Y64343D01*
X28782D01*
Y64352D01*
X28786D01*
Y64362D01*
X28791D01*
Y64366D01*
X28796D01*
Y64376D01*
X28800D01*
Y64385D01*
X28805D01*
Y64395D01*
X28810D01*
Y64399D01*
X28815D01*
Y64409D01*
X28819D01*
Y64418D01*
X28824D01*
Y64423D01*
X28829D01*
Y64432D01*
X28833D01*
Y64442D01*
X28838D01*
Y64451D01*
X28843D01*
Y64456D01*
X28848D01*
Y64465D01*
X28852D01*
Y64475D01*
X28857D01*
Y64484D01*
X28862D01*
Y64489D01*
X28866D01*
Y64498D01*
X28871D01*
Y64508D01*
X28876D01*
Y64512D01*
X28881D01*
Y64522D01*
X28885D01*
Y64531D01*
X28890D01*
Y64541D01*
X28895D01*
Y64545D01*
X28899D01*
Y64555D01*
X28904D01*
Y64564D01*
X28909D01*
Y64569D01*
X28914D01*
Y64578D01*
X28918D01*
Y64588D01*
X28923D01*
Y64597D01*
X28928D01*
Y64602D01*
X28932D01*
Y64611D01*
X28937D01*
Y64621D01*
X28942D01*
Y64630D01*
X28947D01*
Y64635D01*
X28951D01*
Y64644D01*
X28956D01*
Y64654D01*
X28961D01*
Y64658D01*
X28965D01*
Y64668D01*
X28970D01*
Y64677D01*
X28975D01*
Y64687D01*
X28980D01*
Y64691D01*
X28984D01*
Y64701D01*
X28989D01*
Y64710D01*
X28994D01*
Y64720D01*
X28998D01*
Y64724D01*
X29003D01*
Y64734D01*
X29008D01*
Y64743D01*
X29013D01*
Y64748D01*
X29017D01*
Y64757D01*
X29022D01*
Y64767D01*
X29027D01*
Y64776D01*
X29031D01*
Y64781D01*
X29036D01*
Y64790D01*
X29041D01*
Y64800D01*
X29046D01*
Y64805D01*
X29050D01*
Y64814D01*
X29055D01*
Y64823D01*
X29060D01*
Y64833D01*
X29064D01*
Y64838D01*
X29069D01*
Y64847D01*
X29074D01*
Y64856D01*
X29079D01*
Y64866D01*
X29083D01*
Y64871D01*
X29088D01*
Y64880D01*
X29093D01*
Y64889D01*
X29097D01*
Y64894D01*
X29102D01*
Y64904D01*
X29107D01*
Y64913D01*
X29112D01*
Y64922D01*
X29116D01*
Y64927D01*
X29121D01*
Y64937D01*
X29126D01*
Y64946D01*
X29130D01*
Y64955D01*
X29135D01*
Y64960D01*
X29140D01*
Y64970D01*
X29145D01*
Y64979D01*
X29149D01*
Y64984D01*
X29154D01*
Y64993D01*
X29159D01*
Y65003D01*
X29163D01*
Y65012D01*
X29168D01*
Y65017D01*
X29173D01*
Y65026D01*
X29178D01*
Y65036D01*
X29182D01*
Y65040D01*
X29187D01*
Y65050D01*
X29192D01*
Y65059D01*
X29196D01*
Y65069D01*
X29201D01*
Y65073D01*
X29206D01*
Y65083D01*
X29211D01*
Y65092D01*
X29215D01*
Y65102D01*
X29220D01*
Y65106D01*
X29225D01*
Y65116D01*
X29229D01*
Y65125D01*
X29234D01*
Y65130D01*
X29239D01*
Y65139D01*
X29244D01*
Y65149D01*
X29248D01*
Y65158D01*
X29253D01*
Y65163D01*
X29258D01*
Y65172D01*
X29262D01*
Y65182D01*
X29267D01*
Y65186D01*
X29272D01*
Y65196D01*
X29277D01*
Y65205D01*
X29281D01*
Y65215D01*
X29286D01*
Y65219D01*
X29291D01*
Y65229D01*
X29295D01*
Y65238D01*
X29300D01*
Y65248D01*
X29305D01*
Y65252D01*
X29309D01*
Y65262D01*
X29314D01*
Y65271D01*
X29319D01*
Y65276D01*
X29324D01*
Y65285D01*
X29328D01*
Y65295D01*
X29333D01*
Y65304D01*
X29338D01*
Y65309D01*
X29343D01*
Y65318D01*
X29347D01*
Y65328D01*
X29352D01*
Y65337D01*
X29357D01*
Y65342D01*
X29361D01*
Y65351D01*
X29366D01*
Y65361D01*
X29371D01*
Y65365D01*
X29375D01*
Y65375D01*
X29380D01*
Y65384D01*
X29385D01*
Y65394D01*
X29390D01*
Y65398D01*
X29394D01*
Y65408D01*
X29399D01*
Y65417D01*
X29404D01*
Y65422D01*
X29408D01*
Y65431D01*
X29413D01*
Y65441D01*
X29418D01*
Y65450D01*
X29423D01*
Y65455D01*
X29427D01*
Y65464D01*
X29432D01*
Y65474D01*
X29437D01*
Y65483D01*
X29441D01*
Y65488D01*
X29446D01*
Y65497D01*
X29451D01*
Y65507D01*
X29456D01*
Y65512D01*
X29460D01*
Y65521D01*
X29465D01*
Y65530D01*
X29470D01*
Y65540D01*
X29474D01*
Y65545D01*
X29479D01*
Y65554D01*
X29484D01*
Y65563D01*
X29489D01*
Y65573D01*
X29493D01*
Y65578D01*
X29498D01*
Y65587D01*
X29503D01*
Y65596D01*
X29507D01*
Y65601D01*
X29512D01*
Y65611D01*
X29517D01*
Y65620D01*
X29522D01*
Y65629D01*
X29526D01*
Y65634D01*
X29531D01*
Y65644D01*
X29536D01*
Y65653D01*
X29540D01*
Y65658D01*
X29545D01*
Y65667D01*
X29550D01*
Y65677D01*
X29555D01*
Y65686D01*
X29559D01*
Y65691D01*
X29564D01*
Y65700D01*
X29569D01*
Y65710D01*
X29573D01*
Y65719D01*
X29578D01*
Y65724D01*
X29583D01*
Y65733D01*
X29588D01*
Y65743D01*
X29592D01*
Y65747D01*
X29597D01*
Y65757D01*
X29602D01*
Y65766D01*
X29606D01*
Y65776D01*
X29611D01*
Y65780D01*
X29616D01*
Y65790D01*
X29621D01*
Y65799D01*
X29625D01*
Y65809D01*
X29630D01*
Y65813D01*
X29635D01*
Y65823D01*
X29639D01*
Y65832D01*
X29644D01*
Y65837D01*
X29649D01*
Y65846D01*
X29654D01*
Y65856D01*
X29658D01*
Y65865D01*
X29663D01*
Y65870D01*
X29668D01*
Y65879D01*
X29672D01*
Y65889D01*
X29677D01*
Y65893D01*
X29682D01*
Y65903D01*
X29687D01*
Y65912D01*
X29691D01*
Y65922D01*
X29696D01*
Y65926D01*
X29701D01*
Y65936D01*
X29705D01*
Y65945D01*
X29710D01*
Y65955D01*
X29715D01*
Y65959D01*
X29720D01*
Y65969D01*
X29724D01*
Y65978D01*
X29729D01*
Y65983D01*
X29734D01*
Y65992D01*
X29738D01*
Y66002D01*
X29743D01*
Y66011D01*
X29748D01*
Y66016D01*
X29753D01*
Y66025D01*
X29757D01*
Y66035D01*
X29762D01*
Y66039D01*
X29767D01*
Y66049D01*
X29771D01*
Y66058D01*
X29776D01*
Y66068D01*
X29781D01*
Y66072D01*
X29786D01*
Y66082D01*
X29790D01*
Y66091D01*
X29795D01*
Y66101D01*
X29800D01*
Y66105D01*
X29804D01*
Y66115D01*
X29809D01*
Y66124D01*
X29814D01*
Y66129D01*
X29819D01*
Y66138D01*
X29823D01*
Y66148D01*
X29828D01*
Y66157D01*
X29833D01*
Y66162D01*
X29837D01*
Y66171D01*
X29842D01*
Y66181D01*
X29847D01*
Y66190D01*
X29852D01*
Y66195D01*
X29856D01*
Y66204D01*
X29861D01*
Y66214D01*
X29866D01*
Y66219D01*
X29870D01*
Y66228D01*
X29875D01*
Y66237D01*
X29880D01*
Y66247D01*
X29885D01*
Y66252D01*
X29889D01*
Y66261D01*
X29894D01*
Y66270D01*
X29899D01*
Y66275D01*
X29903D01*
Y66285D01*
X29908D01*
Y66294D01*
X29913D01*
Y66303D01*
X29918D01*
Y66308D01*
X29922D01*
Y66318D01*
X29927D01*
Y66327D01*
X29932D01*
Y66336D01*
X29936D01*
Y66341D01*
X29941D01*
Y66351D01*
X29946D01*
Y66360D01*
X29951D01*
Y66365D01*
X29955D01*
Y66374D01*
X29960D01*
Y66384D01*
X29965D01*
Y66393D01*
X29969D01*
Y66398D01*
X29974D01*
Y66407D01*
X29979D01*
Y66417D01*
X29984D01*
Y66426D01*
X29988D01*
Y66431D01*
X29993D01*
Y66440D01*
X29998D01*
Y66450D01*
X30002D01*
Y66454D01*
X30007D01*
Y66464D01*
X30012D01*
Y66473D01*
X30017D01*
Y66483D01*
X30021D01*
Y66487D01*
X30026D01*
Y66497D01*
X30031D01*
Y66506D01*
X30035D01*
Y66511D01*
X30040D01*
Y66520D01*
X30045D01*
Y66530D01*
X30050D01*
Y66539D01*
X30054D01*
Y66544D01*
X30059D01*
Y66553D01*
X30064D01*
Y66563D01*
X30068D01*
Y66572D01*
X30073D01*
Y66577D01*
X30078D01*
Y66586D01*
X30083D01*
Y66596D01*
X30087D01*
Y66600D01*
X30092D01*
Y66610D01*
X30097D01*
Y66619D01*
X30101D01*
Y66629D01*
X30106D01*
Y66633D01*
X30111D01*
Y66643D01*
X30115D01*
Y66652D01*
X30120D01*
Y66657D01*
X30125D01*
Y66666D01*
X30130D01*
Y66676D01*
X30134D01*
Y66685D01*
X30139D01*
Y66690D01*
X30144D01*
Y66699D01*
X30148D01*
Y66709D01*
X30153D01*
Y66718D01*
X30158D01*
Y66723D01*
X30163D01*
Y66732D01*
X30167D01*
Y66742D01*
X30172D01*
Y66746D01*
X30177D01*
Y66756D01*
X30181D01*
Y66765D01*
X30186D01*
Y66775D01*
X30191D01*
Y66779D01*
X30196D01*
Y66789D01*
X30200D01*
Y66798D01*
X30205D01*
Y66808D01*
X30210D01*
Y66812D01*
X30214D01*
Y66822D01*
X30219D01*
Y66831D01*
X30224D01*
Y66836D01*
X30229D01*
Y66845D01*
X30233D01*
Y66855D01*
X30238D01*
Y66864D01*
X30243D01*
Y66869D01*
X30247D01*
Y66878D01*
X30252D01*
Y66888D01*
X30257D01*
Y66893D01*
X30262D01*
Y66902D01*
X30266D01*
Y66911D01*
X30271D01*
Y66921D01*
X30276D01*
Y66926D01*
X30280D01*
Y66935D01*
X30285D01*
Y66944D01*
X30290D01*
Y66954D01*
X30295D01*
Y66959D01*
X30299D01*
Y66968D01*
X30304D01*
Y66977D01*
X30309D01*
Y66982D01*
X30313D01*
Y66992D01*
X30318D01*
Y67001D01*
X30323D01*
Y67010D01*
X30328D01*
Y67015D01*
X30332D01*
Y67025D01*
X30337D01*
Y67034D01*
X30342D01*
Y67043D01*
X30346D01*
Y67048D01*
X30351D01*
Y67058D01*
X30356D01*
Y67067D01*
X30361D01*
Y67072D01*
X30365D01*
Y67081D01*
X30370D01*
Y67091D01*
X30375D01*
Y67100D01*
X30379D01*
Y67105D01*
X30384D01*
Y67114D01*
X30389D01*
Y67124D01*
X30394D01*
Y67128D01*
X30398D01*
Y67138D01*
X30403D01*
Y67147D01*
X30408D01*
Y67157D01*
X30412D01*
Y67161D01*
X30417D01*
Y67171D01*
X30422D01*
Y67180D01*
X30427D01*
Y67190D01*
X30431D01*
Y67194D01*
X30436D01*
Y67204D01*
X30441D01*
Y67213D01*
X30445D01*
Y67218D01*
X30450D01*
Y67227D01*
X30455D01*
Y67237D01*
X30460D01*
Y67246D01*
X30464D01*
Y67251D01*
X30469D01*
Y67260D01*
X30474D01*
Y67270D01*
X30478D01*
Y67274D01*
X30483D01*
Y67284D01*
X30488D01*
Y67293D01*
X30493D01*
Y67303D01*
X30497D01*
Y67307D01*
X30502D01*
Y67317D01*
X30507D01*
Y67326D01*
X30511D01*
Y67336D01*
X30516D01*
Y67340D01*
X30521D01*
Y67350D01*
X30526D01*
Y67359D01*
X30530D01*
Y67364D01*
X30535D01*
Y67373D01*
X30540D01*
Y67383D01*
X30544D01*
Y67392D01*
X30549D01*
Y67397D01*
X30554D01*
Y67406D01*
X30559D01*
Y67416D01*
X30563D01*
Y67425D01*
X30568D01*
Y67430D01*
X30573D01*
Y67439D01*
X30577D01*
Y67449D01*
X30582D01*
Y67453D01*
X30587D01*
Y67463D01*
X30592D01*
Y67472D01*
X30596D01*
Y67482D01*
X30601D01*
Y67486D01*
X30606D01*
Y67496D01*
X30610D01*
Y67505D01*
X30615D01*
Y67510D01*
X30620D01*
Y67519D01*
X30625D01*
Y67529D01*
X30629D01*
Y67538D01*
X30634D01*
Y67543D01*
X30639D01*
Y67552D01*
X30643D01*
Y67562D01*
X30648D01*
Y67571D01*
X30653D01*
Y67576D01*
X30658D01*
Y67585D01*
X30662D01*
Y67595D01*
X30667D01*
Y67600D01*
X30672D01*
Y67609D01*
X30676D01*
Y67618D01*
X30681D01*
Y67628D01*
X30686D01*
Y67633D01*
X30691D01*
Y67642D01*
X30695D01*
Y67651D01*
X30700D01*
Y67661D01*
X30705D01*
Y67666D01*
X30709D01*
Y67675D01*
X30714D01*
Y67684D01*
X30719D01*
Y67689D01*
X30724D01*
Y67699D01*
X30728D01*
Y67708D01*
X30733D01*
Y67717D01*
X30738D01*
Y67722D01*
X30742D01*
Y67732D01*
X30747D01*
Y67741D01*
X30752D01*
Y67746D01*
X30757D01*
Y67755D01*
X30761D01*
Y67765D01*
X30766D01*
Y67774D01*
X30771D01*
Y67779D01*
X30775D01*
Y67788D01*
X30780D01*
Y67798D01*
X30785D01*
Y67807D01*
X30790D01*
Y67812D01*
X30794D01*
Y67821D01*
X30799D01*
Y67831D01*
X30804D01*
Y67835D01*
X30808D01*
Y67845D01*
X30813D01*
Y67854D01*
X30818D01*
Y67864D01*
X30823D01*
Y67868D01*
X30827D01*
Y67878D01*
X30832D01*
Y67887D01*
X30837D01*
Y67892D01*
X30841D01*
Y67901D01*
X30846D01*
Y67911D01*
X30851D01*
Y67920D01*
X30855D01*
Y67925D01*
X30860D01*
Y67934D01*
X30865D01*
Y67944D01*
X30870D01*
Y67953D01*
X30874D01*
Y67958D01*
X30879D01*
Y67967D01*
X30884D01*
Y67977D01*
X30889D01*
Y67981D01*
X30893D01*
Y67991D01*
X30898D01*
Y68000D01*
X30903D01*
Y68010D01*
X30907D01*
Y68014D01*
X30912D01*
Y68024D01*
X30917D01*
Y68033D01*
X30921D01*
Y68043D01*
X30926D01*
Y68047D01*
X30931D01*
Y68057D01*
X30936D01*
Y68066D01*
X30940D01*
Y68071D01*
X30945D01*
Y68080D01*
X30950D01*
Y68090D01*
X30954D01*
Y68099D01*
X30959D01*
Y68104D01*
X30964D01*
Y68113D01*
X30969D01*
Y68123D01*
X30973D01*
Y68128D01*
X30978D01*
Y68137D01*
X30983D01*
Y68146D01*
X30987D01*
Y68156D01*
X30992D01*
Y68161D01*
X30997D01*
Y68170D01*
X31002D01*
Y68179D01*
X31006D01*
Y68189D01*
X31011D01*
Y68193D01*
X31016D01*
Y68203D01*
X31020D01*
Y68212D01*
X31025D01*
Y68217D01*
X31030D01*
Y68227D01*
X31035D01*
Y68236D01*
X31039D01*
Y68245D01*
X31044D01*
Y68250D01*
X31049D01*
Y68259D01*
X31053D01*
Y68269D01*
X31058D01*
Y68278D01*
X31063D01*
Y68283D01*
X31068D01*
Y68292D01*
X31072D01*
Y68302D01*
X31077D01*
Y68307D01*
X31082D01*
Y68316D01*
X31086D01*
Y68325D01*
X31091D01*
Y68335D01*
X31096D01*
Y68340D01*
X31101D01*
Y68349D01*
X31105D01*
Y68358D01*
X31110D01*
Y68363D01*
X31115D01*
Y68373D01*
X31119D01*
Y68382D01*
X31124D01*
Y68391D01*
X31129D01*
Y68396D01*
X31134D01*
Y68406D01*
X31138D01*
Y68415D01*
X31143D01*
Y68424D01*
X31148D01*
Y68429D01*
X31152D01*
Y68439D01*
X31157D01*
Y68448D01*
X31162D01*
Y68453D01*
X31167D01*
Y68462D01*
X31171D01*
Y68472D01*
X31176D01*
Y68481D01*
X31181D01*
Y68486D01*
X31185D01*
Y68495D01*
X31190D01*
Y68505D01*
X31195D01*
Y68509D01*
X31200D01*
Y68519D01*
X31204D01*
Y68528D01*
X31209D01*
Y68538D01*
X31214D01*
Y68542D01*
X31218D01*
Y68552D01*
X31223D01*
Y68561D01*
X31228D01*
Y68571D01*
X31233D01*
Y68575D01*
X31237D01*
Y68585D01*
X31242D01*
Y68594D01*
X31247D01*
Y68599D01*
X31251D01*
Y68608D01*
X31256D01*
Y68618D01*
X31261D01*
Y68627D01*
X31266D01*
Y68632D01*
X31270D01*
Y68641D01*
X31275D01*
Y68651D01*
X31280D01*
Y68660D01*
X31284D01*
Y68665D01*
X31289D01*
Y68674D01*
X31294D01*
Y68684D01*
X31299D01*
Y68688D01*
X31303D01*
Y68698D01*
X31308D01*
Y68707D01*
X31313D01*
Y68717D01*
X31317D01*
Y68721D01*
X31322D01*
Y68731D01*
X31327D01*
Y68740D01*
X31332D01*
Y68745D01*
X31336D01*
Y68754D01*
X31341D01*
Y68764D01*
X31346D01*
Y68773D01*
X31350D01*
Y68778D01*
X31355D01*
Y68787D01*
X31360D01*
Y68797D01*
X31365D01*
Y68806D01*
X31369D01*
Y68811D01*
X31374D01*
Y68820D01*
X31379D01*
Y68830D01*
X31383D01*
Y68835D01*
X31388D01*
Y68844D01*
X31393D01*
Y68853D01*
X31398D01*
Y68863D01*
X31402D01*
Y68868D01*
X31407D01*
Y68877D01*
X31412D01*
Y68886D01*
X31416D01*
Y68896D01*
X31421D01*
Y68901D01*
X31426D01*
Y68910D01*
X31431D01*
Y68919D01*
X31435D01*
Y68924D01*
X31440D01*
Y68934D01*
X31445D01*
Y68943D01*
X31449D01*
Y68952D01*
X31454D01*
Y68957D01*
X31459D01*
Y68966D01*
X31464D01*
Y68976D01*
X31468D01*
Y68981D01*
X31473D01*
Y68990D01*
X31478D01*
Y68999D01*
X31482D01*
Y69009D01*
X31487D01*
Y69014D01*
X31492D01*
Y69023D01*
X31497D01*
Y69032D01*
X31501D01*
Y69042D01*
X31506D01*
Y69047D01*
X31511D01*
Y69056D01*
X31515D01*
Y69065D01*
X31520D01*
Y69070D01*
X31525D01*
Y69080D01*
X31530D01*
Y69089D01*
X31534D01*
Y69098D01*
X31539D01*
Y69103D01*
X31544D01*
Y69113D01*
X31548D01*
Y69122D01*
X31553D01*
Y69127D01*
X31558D01*
Y69136D01*
X31563D01*
Y69146D01*
X31567D01*
Y69155D01*
X31572D01*
Y69160D01*
X31577D01*
Y69169D01*
X31581D01*
Y69179D01*
X31586D01*
Y69188D01*
X31591D01*
Y69193D01*
X31596D01*
Y69202D01*
X31600D01*
Y69212D01*
X31605D01*
Y69216D01*
X31610D01*
Y69226D01*
X31614D01*
Y69235D01*
X31619D01*
Y69245D01*
X31624D01*
Y69249D01*
X31628D01*
Y69259D01*
X31633D01*
Y69268D01*
X31638D01*
Y69278D01*
X31643D01*
Y69282D01*
X31647D01*
Y69292D01*
X31652D01*
Y69301D01*
X31657D01*
Y69306D01*
X31661D01*
Y69315D01*
X31666D01*
Y69325D01*
X31671D01*
Y69334D01*
X31676D01*
Y69339D01*
X31680D01*
Y69348D01*
X31685D01*
Y69358D01*
X31690D01*
Y69362D01*
X31694D01*
Y69372D01*
X31699D01*
Y69381D01*
X31704D01*
Y69391D01*
X31709D01*
Y69395D01*
X31713D01*
Y69405D01*
X31718D01*
Y69414D01*
X31723D01*
Y69424D01*
X31727D01*
Y69428D01*
X31732D01*
Y69438D01*
X31737D01*
Y69447D01*
X31742D01*
Y69452D01*
X31746D01*
Y69461D01*
X31751D01*
Y69471D01*
X31756D01*
Y69480D01*
X31760D01*
Y69485D01*
X31765D01*
Y69494D01*
X31770D01*
Y69504D01*
X31775D01*
Y69513D01*
X31779D01*
Y69518D01*
X31784D01*
Y69527D01*
X31789D01*
Y69537D01*
X31793D01*
Y69542D01*
X31798D01*
Y69551D01*
X31803D01*
Y69560D01*
X31808D01*
Y69570D01*
X31812D01*
Y69575D01*
X31817D01*
Y69584D01*
X31822D01*
Y69593D01*
X31826D01*
Y69598D01*
X31831D01*
Y69608D01*
X31836D01*
Y69617D01*
X31841D01*
Y69626D01*
X31845D01*
Y69631D01*
X31850D01*
Y69641D01*
X31855D01*
Y69650D01*
X31859D01*
Y69659D01*
X31864D01*
Y69664D01*
X31869D01*
Y69674D01*
X31874D01*
Y69683D01*
X31878D01*
Y69688D01*
X31883D01*
Y69697D01*
X31888D01*
Y69707D01*
X31892D01*
Y69716D01*
X31897D01*
Y69721D01*
X31902D01*
Y69730D01*
X31907D01*
Y69740D01*
X31911D01*
Y69749D01*
X31916D01*
Y69754D01*
X31921D01*
Y69763D01*
X31925D01*
Y69772D01*
X31930D01*
Y69777D01*
X31935D01*
Y69787D01*
X31940D01*
Y69796D01*
X31944D01*
Y69805D01*
X31949D01*
Y69810D01*
X31954D01*
Y69820D01*
X31958D01*
Y69829D01*
X31963D01*
Y69834D01*
X31968D01*
Y69843D01*
X31973D01*
Y69853D01*
X31977D01*
Y69862D01*
X31982D01*
Y69867D01*
X31987D01*
Y69876D01*
X31991D01*
Y69886D01*
X31996D01*
Y69895D01*
X32001D01*
Y69900D01*
X32006D01*
Y69909D01*
X32010D01*
Y69919D01*
X32015D01*
Y69923D01*
X32020D01*
Y69933D01*
X32024D01*
Y69942D01*
X32029D01*
Y69952D01*
X32034D01*
Y69956D01*
X32039D01*
Y69966D01*
X32043D01*
Y69975D01*
X32048D01*
Y69980D01*
X32053D01*
Y69989D01*
X32057D01*
Y69999D01*
X32062D01*
Y70008D01*
X32067D01*
Y70013D01*
X32072D01*
Y70022D01*
X32076D01*
Y70032D01*
X32081D01*
Y70041D01*
X32086D01*
Y70046D01*
X32090D01*
Y70055D01*
X32095D01*
Y70065D01*
X32100D01*
Y70069D01*
X32105D01*
Y70079D01*
X32109D01*
Y70088D01*
X32114D01*
Y70098D01*
X32119D01*
Y70102D01*
X32123D01*
Y70112D01*
X32128D01*
Y70121D01*
X32133D01*
Y70131D01*
X32138D01*
Y70135D01*
X32142D01*
Y70145D01*
X32147D01*
Y70154D01*
X32152D01*
Y70159D01*
X32156D01*
Y70168D01*
X32161D01*
Y70178D01*
X32166D01*
Y70187D01*
X32171D01*
Y70192D01*
X32175D01*
Y70201D01*
X32180D01*
Y70211D01*
X32185D01*
Y70216D01*
X32189D01*
Y70225D01*
X32194D01*
Y70234D01*
X32199D01*
Y70244D01*
X32204D01*
Y70249D01*
X32208D01*
Y70258D01*
X32213D01*
Y70267D01*
X32218D01*
Y70277D01*
X32222D01*
Y70282D01*
X32227D01*
Y70291D01*
X32232D01*
Y70300D01*
X32237D01*
Y70305D01*
X32241D01*
Y70315D01*
X32246D01*
Y70324D01*
X32251D01*
Y70333D01*
X32255D01*
Y70338D01*
X32260D01*
Y70348D01*
X32265D01*
Y70357D01*
X32270D01*
Y70366D01*
X32274D01*
Y70371D01*
X32279D01*
Y70381D01*
X32284D01*
Y70390D01*
X32288D01*
Y70395D01*
X32293D01*
Y70404D01*
X32298D01*
Y70414D01*
X32303D01*
Y70423D01*
X32307D01*
Y70428D01*
X32312D01*
Y70437D01*
X32317D01*
Y70447D01*
X32321D01*
Y70451D01*
X32326D01*
Y70461D01*
X32331D01*
Y70470D01*
X32336D01*
Y70479D01*
X32340D01*
Y70484D01*
X32345D01*
Y70494D01*
X32350D01*
Y70503D01*
X32354D01*
Y70512D01*
X32359D01*
Y70517D01*
X32364D01*
Y70527D01*
X32368D01*
Y70536D01*
X32373D01*
Y70541D01*
X32378D01*
Y70550D01*
X32383D01*
Y70560D01*
X32387D01*
Y70569D01*
X32392D01*
Y70574D01*
X32397D01*
Y70583D01*
X32402D01*
Y70593D01*
X32406D01*
Y70597D01*
X32411D01*
Y70607D01*
X32416D01*
Y70616D01*
X32420D01*
Y70626D01*
X32425D01*
Y70630D01*
X32430D01*
Y70640D01*
X32434D01*
Y70649D01*
X32439D01*
Y70659D01*
X32444D01*
Y70663D01*
X32449D01*
Y70673D01*
X32453D01*
Y70682D01*
X32458D01*
Y70687D01*
X32463D01*
Y70696D01*
X32467D01*
Y70706D01*
X32472D01*
Y70715D01*
X32477D01*
Y70720D01*
X32482D01*
Y70729D01*
X32486D01*
Y70739D01*
X32491D01*
Y70748D01*
X32496D01*
Y70753D01*
X32500D01*
Y70762D01*
X32505D01*
Y70772D01*
X32510D01*
Y70776D01*
X32515D01*
Y70786D01*
X32519D01*
Y70795D01*
X32524D01*
Y70805D01*
X32529D01*
Y70809D01*
X32533D01*
Y70819D01*
X32538D01*
Y70828D01*
X32543D01*
Y70833D01*
X32548D01*
Y70842D01*
X32552D01*
Y70852D01*
X32557D01*
Y70861D01*
X32562D01*
Y70866D01*
X32566D01*
Y70875D01*
X32571D01*
Y70885D01*
X32576D01*
Y70894D01*
X32581D01*
Y70899D01*
X32585D01*
Y70908D01*
X32590D01*
Y70918D01*
X32595D01*
Y70923D01*
X32599D01*
Y70932D01*
X32604D01*
Y70941D01*
X32609D01*
Y70951D01*
X32614D01*
Y70956D01*
X32618D01*
Y70965D01*
X32623D01*
Y70974D01*
X32628D01*
Y70984D01*
X32632D01*
Y70989D01*
X32637D01*
Y70998D01*
X32642D01*
Y71007D01*
X32647D01*
Y71012D01*
X32651D01*
Y71022D01*
X32656D01*
Y71031D01*
X32661D01*
Y71040D01*
X32665D01*
Y71045D01*
X32670D01*
Y71055D01*
X32675D01*
Y71064D01*
X32680D01*
Y71069D01*
X32684D01*
Y71078D01*
X32689D01*
Y71088D01*
X32694D01*
Y71097D01*
X32698D01*
Y71102D01*
X32703D01*
Y71111D01*
X32708D01*
Y71121D01*
X32713D01*
Y71130D01*
X32717D01*
Y71135D01*
X32722D01*
Y71144D01*
X32727D01*
Y71154D01*
X32731D01*
Y71158D01*
X32736D01*
Y71168D01*
X32741D01*
Y71177D01*
X32746D01*
Y71187D01*
X32750D01*
Y71191D01*
X32755D01*
Y71201D01*
X32760D01*
Y71210D01*
X32764D01*
Y71215D01*
X32769D01*
Y71224D01*
X32774D01*
Y71234D01*
X32779D01*
Y71243D01*
X32783D01*
Y71248D01*
X32788D01*
Y71257D01*
X32793D01*
Y71267D01*
X32797D01*
Y71276D01*
X32802D01*
Y71281D01*
X32807D01*
Y71290D01*
X32812D01*
Y71300D01*
X32816D01*
Y71304D01*
X32821D01*
Y71314D01*
X32826D01*
Y71323D01*
X32830D01*
Y71333D01*
X32835D01*
Y71337D01*
X32840D01*
Y71347D01*
X32845D01*
Y71356D01*
X32849D01*
Y71366D01*
X32854D01*
Y71370D01*
X32859D01*
Y71380D01*
X32863D01*
Y71389D01*
X32868D01*
Y71394D01*
X32873D01*
Y71403D01*
X32878D01*
Y71413D01*
X32882D01*
Y71422D01*
X32887D01*
Y71427D01*
X32892D01*
Y71436D01*
X32896D01*
Y71446D01*
X32901D01*
Y71450D01*
X32906D01*
Y71460D01*
X32911D01*
Y71469D01*
X32915D01*
Y71479D01*
X32920D01*
Y71483D01*
X32925D01*
Y71493D01*
X32929D01*
Y71502D01*
X32934D01*
Y71512D01*
X32939D01*
Y71516D01*
X32944D01*
Y71526D01*
X32948D01*
Y71535D01*
X32953D01*
Y71540D01*
X32958D01*
Y71549D01*
X32962D01*
Y71559D01*
X32967D01*
Y71568D01*
X32972D01*
Y71573D01*
X32977D01*
Y71582D01*
X32981D01*
Y71592D01*
X32986D01*
Y71601D01*
X32991D01*
Y71606D01*
X32995D01*
Y71615D01*
X33000D01*
Y71625D01*
X33005D01*
Y71630D01*
X33010D01*
Y71639D01*
X33014D01*
Y71648D01*
X33019D01*
Y71658D01*
X33024D01*
Y71663D01*
X33028D01*
Y71672D01*
X33033D01*
Y71681D01*
X33038D01*
Y71686D01*
X33043D01*
Y71696D01*
X33047D01*
Y71705D01*
X33052D01*
Y71714D01*
X33057D01*
Y71719D01*
X33061D01*
Y71729D01*
X33066D01*
Y71738D01*
X33071D01*
Y71747D01*
X33076D01*
Y71752D01*
X33080D01*
Y71762D01*
X33085D01*
Y71771D01*
X33090D01*
Y71776D01*
X33094D01*
Y71785D01*
X33099D01*
Y71795D01*
X33104D01*
Y71804D01*
X33109D01*
Y71809D01*
X33113D01*
Y71818D01*
X33118D01*
Y71828D01*
X33123D01*
Y71832D01*
X33127D01*
Y71842D01*
X33132D01*
Y71851D01*
X33137D01*
Y71861D01*
X33141D01*
Y71865D01*
X33146D01*
Y71875D01*
X33151D01*
Y71884D01*
X33156D01*
Y71894D01*
X33160D01*
Y71898D01*
X33165D01*
Y71908D01*
X33170D01*
Y71917D01*
X33174D01*
Y71922D01*
X33179D01*
Y71931D01*
X33184D01*
Y71941D01*
X33189D01*
Y71950D01*
X33193D01*
Y71955D01*
X33198D01*
Y71964D01*
X33203D01*
Y71974D01*
X33207D01*
Y71983D01*
X33212D01*
Y71988D01*
X33217D01*
Y71997D01*
X33222D01*
Y72007D01*
X33226D01*
Y72011D01*
X33231D01*
Y72021D01*
X33236D01*
Y72030D01*
X33240D01*
Y72040D01*
X33245D01*
Y72044D01*
X33250D01*
Y72054D01*
X33255D01*
Y72063D01*
X33259D01*
Y72068D01*
X33264D01*
Y72077D01*
X33269D01*
Y72087D01*
X33273D01*
Y72096D01*
X33278D01*
Y72101D01*
X33283D01*
Y72110D01*
X33288D01*
Y72120D01*
X33292D01*
Y72129D01*
X33297D01*
Y72134D01*
X33302D01*
Y72143D01*
X33306D01*
Y72153D01*
X33311D01*
Y72157D01*
X33316D01*
Y72167D01*
X33321D01*
Y72176D01*
X33325D01*
Y72186D01*
X33330D01*
Y72190D01*
X33335D01*
Y72200D01*
X33339D01*
Y72209D01*
X33344D01*
Y72219D01*
X33349D01*
Y72223D01*
X33354D01*
Y72233D01*
X33358D01*
Y72242D01*
X33363D01*
Y72247D01*
X33368D01*
Y72256D01*
X33372D01*
Y72266D01*
X33377D01*
Y72275D01*
X33382D01*
Y72280D01*
X33387D01*
Y72289D01*
X33391D01*
Y72299D01*
X33396D01*
Y72304D01*
X33401D01*
Y72313D01*
X33405D01*
Y72322D01*
X33410D01*
Y72332D01*
X33415D01*
Y72337D01*
X33420D01*
Y72346D01*
X33424D01*
Y72355D01*
X33429D01*
Y72365D01*
X33434D01*
Y72370D01*
X33438D01*
Y72379D01*
X33443D01*
Y72388D01*
X33448D01*
Y72393D01*
X33453D01*
Y72403D01*
X33457D01*
Y72412D01*
X33462D01*
Y72421D01*
X33467D01*
Y72426D01*
X33471D01*
Y72436D01*
X33476D01*
Y72445D01*
X33481D01*
Y72450D01*
X33486D01*
Y72459D01*
X33490D01*
Y72469D01*
X33495D01*
Y72478D01*
X33500D01*
Y72483D01*
X33504D01*
Y72492D01*
X33509D01*
Y72502D01*
X33514D01*
Y72511D01*
X33519D01*
Y72516D01*
X33523D01*
Y72525D01*
X33528D01*
Y72535D01*
X33533D01*
Y72539D01*
X33537D01*
Y72549D01*
X33542D01*
Y72558D01*
X33547D01*
Y72568D01*
X33552D01*
Y72572D01*
X33556D01*
Y72582D01*
X33566D01*
Y72572D01*
D02*
G37*
%LPC*%
G36*
Y71592D02*
X33556D01*
Y71582D01*
X33552D01*
Y71578D01*
X33547D01*
Y71568D01*
X33542D01*
Y71559D01*
X33537D01*
Y71549D01*
X33533D01*
Y71545D01*
X33528D01*
Y71535D01*
X33523D01*
Y71526D01*
X33519D01*
Y71521D01*
X33514D01*
Y71512D01*
X33509D01*
Y71502D01*
X33504D01*
Y71493D01*
X33500D01*
Y71488D01*
X33495D01*
Y71479D01*
X33490D01*
Y71469D01*
X33486D01*
Y71460D01*
X33481D01*
Y71455D01*
X33476D01*
Y71446D01*
X33471D01*
Y71436D01*
X33467D01*
Y71432D01*
X33462D01*
Y71422D01*
X33457D01*
Y71413D01*
X33453D01*
Y71403D01*
X33448D01*
Y71399D01*
X33443D01*
Y71389D01*
X33438D01*
Y71380D01*
X33434D01*
Y71375D01*
X33429D01*
Y71366D01*
X33424D01*
Y71356D01*
X33420D01*
Y71347D01*
X33415D01*
Y71342D01*
X33410D01*
Y71333D01*
X33405D01*
Y71323D01*
X33401D01*
Y71314D01*
X33396D01*
Y71309D01*
X33391D01*
Y71300D01*
X33387D01*
Y71290D01*
X33382D01*
Y71285D01*
X33377D01*
Y71276D01*
X33372D01*
Y71267D01*
X33368D01*
Y71257D01*
X33363D01*
Y71253D01*
X33358D01*
Y71243D01*
X33354D01*
Y71234D01*
X33349D01*
Y71224D01*
X33344D01*
Y71220D01*
X33339D01*
Y71210D01*
X33335D01*
Y71201D01*
X33330D01*
Y71196D01*
X33325D01*
Y71187D01*
X33321D01*
Y71177D01*
X33316D01*
Y71168D01*
X33311D01*
Y71163D01*
X33306D01*
Y71154D01*
X33302D01*
Y71144D01*
X33297D01*
Y71139D01*
X33292D01*
Y71130D01*
X33288D01*
Y71121D01*
X33283D01*
Y71111D01*
X33278D01*
Y71106D01*
X33273D01*
Y71097D01*
X33269D01*
Y71088D01*
X33264D01*
Y71078D01*
X33259D01*
Y71073D01*
X33255D01*
Y71064D01*
X33250D01*
Y71055D01*
X33245D01*
Y71050D01*
X33240D01*
Y71040D01*
X33236D01*
Y71031D01*
X33231D01*
Y71022D01*
X33226D01*
Y71017D01*
X33222D01*
Y71007D01*
X33217D01*
Y70998D01*
X33212D01*
Y70989D01*
X33207D01*
Y70984D01*
X33203D01*
Y70974D01*
X33198D01*
Y70965D01*
X33193D01*
Y70960D01*
X33189D01*
Y70951D01*
X33184D01*
Y70941D01*
X33179D01*
Y70932D01*
X33174D01*
Y70927D01*
X33170D01*
Y70918D01*
X33165D01*
Y70908D01*
X33160D01*
Y70904D01*
X33156D01*
Y70894D01*
X33151D01*
Y70885D01*
X33146D01*
Y70875D01*
X33141D01*
Y70871D01*
X33137D01*
Y70861D01*
X33132D01*
Y70852D01*
X33127D01*
Y70842D01*
X33123D01*
Y70838D01*
X33118D01*
Y70828D01*
X33113D01*
Y70819D01*
X33109D01*
Y70814D01*
X33104D01*
Y70805D01*
X33099D01*
Y70795D01*
X33094D01*
Y70786D01*
X33090D01*
Y70781D01*
X33085D01*
Y70772D01*
X33080D01*
Y70762D01*
X33076D01*
Y70753D01*
X33071D01*
Y70748D01*
X33066D01*
Y70739D01*
X33061D01*
Y70729D01*
X33057D01*
Y70725D01*
X33052D01*
Y70715D01*
X33047D01*
Y70706D01*
X33043D01*
Y70696D01*
X33038D01*
Y70692D01*
X33033D01*
Y70682D01*
X33028D01*
Y70673D01*
X33024D01*
Y70668D01*
X33019D01*
Y70659D01*
X33014D01*
Y70649D01*
X33010D01*
Y70640D01*
X33005D01*
Y70635D01*
X33000D01*
Y70626D01*
X32995D01*
Y70616D01*
X32991D01*
Y70607D01*
X32986D01*
Y70602D01*
X32981D01*
Y70593D01*
X32977D01*
Y70583D01*
X32972D01*
Y70578D01*
X32967D01*
Y70569D01*
X32962D01*
Y70560D01*
X32958D01*
Y70550D01*
X32953D01*
Y70545D01*
X32948D01*
Y70536D01*
X32944D01*
Y70527D01*
X32939D01*
Y70517D01*
X32934D01*
Y70512D01*
X32929D01*
Y70503D01*
X32925D01*
Y70494D01*
X32920D01*
Y70489D01*
X32915D01*
Y70479D01*
X32911D01*
Y70470D01*
X32906D01*
Y70461D01*
X32901D01*
Y70456D01*
X32896D01*
Y70447D01*
X32892D01*
Y70437D01*
X32887D01*
Y70428D01*
X32882D01*
Y70423D01*
X32878D01*
Y70414D01*
X32873D01*
Y70404D01*
X32868D01*
Y70399D01*
X32863D01*
Y70390D01*
X32859D01*
Y70381D01*
X32854D01*
Y70371D01*
X32849D01*
Y70366D01*
X32845D01*
Y70357D01*
X32840D01*
Y70348D01*
X32835D01*
Y70343D01*
X32830D01*
Y70333D01*
X32826D01*
Y70324D01*
X32821D01*
Y70315D01*
X32816D01*
Y70310D01*
X32812D01*
Y70300D01*
X32807D01*
Y70291D01*
X32802D01*
Y70282D01*
X32797D01*
Y70277D01*
X32793D01*
Y70267D01*
X32788D01*
Y70258D01*
X32783D01*
Y70253D01*
X32779D01*
Y70244D01*
X32774D01*
Y70234D01*
X32769D01*
Y70225D01*
X32764D01*
Y70220D01*
X32760D01*
Y70211D01*
X32755D01*
Y70201D01*
X32750D01*
Y70192D01*
X32746D01*
Y70187D01*
X32741D01*
Y70178D01*
X32736D01*
Y70168D01*
X32731D01*
Y70164D01*
X32727D01*
Y70154D01*
X32722D01*
Y70145D01*
X32717D01*
Y70135D01*
X32713D01*
Y70131D01*
X32708D01*
Y70121D01*
X32703D01*
Y70112D01*
X32698D01*
Y70107D01*
X32694D01*
Y70098D01*
X32689D01*
Y70088D01*
X32684D01*
Y70079D01*
X32680D01*
Y70074D01*
X32675D01*
Y70065D01*
X32670D01*
Y70055D01*
X32665D01*
Y70046D01*
X32661D01*
Y70041D01*
X32656D01*
Y70032D01*
X32651D01*
Y70022D01*
X32647D01*
Y70018D01*
X32642D01*
Y70008D01*
X32637D01*
Y69999D01*
X32632D01*
Y69989D01*
X32628D01*
Y69985D01*
X32623D01*
Y69975D01*
X32618D01*
Y69966D01*
X32614D01*
Y69956D01*
X32609D01*
Y69952D01*
X32604D01*
Y69942D01*
X32599D01*
Y69933D01*
X32595D01*
Y69928D01*
X32590D01*
Y69919D01*
X32585D01*
Y69909D01*
X32581D01*
Y69900D01*
X32576D01*
Y69895D01*
X32571D01*
Y69886D01*
X32566D01*
Y69876D01*
X32562D01*
Y69871D01*
X32557D01*
Y69862D01*
X32552D01*
Y69853D01*
X32548D01*
Y69843D01*
X32543D01*
Y69838D01*
X32538D01*
Y69829D01*
X32533D01*
Y69820D01*
X32529D01*
Y69810D01*
X32524D01*
Y69805D01*
X32519D01*
Y69796D01*
X32515D01*
Y69787D01*
X32510D01*
Y69782D01*
X32505D01*
Y69772D01*
X32500D01*
Y69763D01*
X32496D01*
Y69754D01*
X32491D01*
Y69749D01*
X32486D01*
Y69740D01*
X32482D01*
Y69730D01*
X32477D01*
Y69721D01*
X32472D01*
Y69716D01*
X32467D01*
Y69707D01*
X32463D01*
Y69697D01*
X32458D01*
Y69692D01*
X32453D01*
Y69683D01*
X32449D01*
Y69674D01*
X32444D01*
Y69664D01*
X32439D01*
Y69659D01*
X32434D01*
Y69650D01*
X32430D01*
Y69641D01*
X32425D01*
Y69636D01*
X32420D01*
Y69626D01*
X32416D01*
Y69617D01*
X32411D01*
Y69608D01*
X32406D01*
Y69603D01*
X32402D01*
Y69593D01*
X32397D01*
Y69584D01*
X32392D01*
Y69575D01*
X32387D01*
Y69570D01*
X32383D01*
Y69560D01*
X32378D01*
Y69551D01*
X32373D01*
Y69546D01*
X32368D01*
Y69537D01*
X32364D01*
Y69527D01*
X32359D01*
Y69518D01*
X32354D01*
Y69513D01*
X32350D01*
Y69504D01*
X32345D01*
Y69494D01*
X32340D01*
Y69485D01*
X32336D01*
Y69480D01*
X32331D01*
Y69471D01*
X32326D01*
Y69461D01*
X32321D01*
Y69457D01*
X32317D01*
Y69447D01*
X32312D01*
Y69438D01*
X32307D01*
Y69428D01*
X32303D01*
Y69424D01*
X32298D01*
Y69414D01*
X32293D01*
Y69405D01*
X32288D01*
Y69395D01*
X32284D01*
Y69391D01*
X32279D01*
Y69381D01*
X32274D01*
Y69372D01*
X32270D01*
Y69367D01*
X32265D01*
Y69358D01*
X32260D01*
Y69348D01*
X32255D01*
Y69339D01*
X32251D01*
Y69334D01*
X32246D01*
Y69325D01*
X32241D01*
Y69315D01*
X32237D01*
Y69311D01*
X32232D01*
Y69301D01*
X32227D01*
Y69292D01*
X32222D01*
Y69282D01*
X32218D01*
Y69278D01*
X32213D01*
Y69268D01*
X32208D01*
Y69259D01*
X32204D01*
Y69249D01*
X32199D01*
Y69245D01*
X32194D01*
Y69235D01*
X32189D01*
Y69226D01*
X32185D01*
Y69221D01*
X32180D01*
Y69212D01*
X32175D01*
Y69202D01*
X32171D01*
Y69193D01*
X32166D01*
Y69188D01*
X32161D01*
Y69179D01*
X32156D01*
Y69169D01*
X32152D01*
Y69160D01*
X32147D01*
Y69155D01*
X32142D01*
Y69146D01*
X32138D01*
Y69136D01*
X32133D01*
Y69131D01*
X32128D01*
Y69122D01*
X32123D01*
Y69113D01*
X32119D01*
Y69103D01*
X32114D01*
Y69098D01*
X32109D01*
Y69089D01*
X32105D01*
Y69080D01*
X32100D01*
Y69075D01*
X32095D01*
Y69065D01*
X32090D01*
Y69056D01*
X32086D01*
Y69047D01*
X32081D01*
Y69042D01*
X32076D01*
Y69032D01*
X32072D01*
Y69023D01*
X32067D01*
Y69014D01*
X32062D01*
Y69009D01*
X32057D01*
Y68999D01*
X32053D01*
Y68990D01*
X32048D01*
Y68985D01*
X32043D01*
Y68976D01*
X32039D01*
Y68966D01*
X32034D01*
Y68957D01*
X32029D01*
Y68952D01*
X32024D01*
Y68943D01*
X32020D01*
Y68934D01*
X32015D01*
Y68924D01*
X32010D01*
Y68919D01*
X32006D01*
Y68910D01*
X32001D01*
Y68901D01*
X31996D01*
Y68896D01*
X31991D01*
Y68886D01*
X31987D01*
Y68877D01*
X31982D01*
Y68868D01*
X31977D01*
Y68863D01*
X31973D01*
Y68853D01*
X31968D01*
Y68844D01*
X31963D01*
Y68839D01*
X31958D01*
Y68830D01*
X31954D01*
Y68820D01*
X31949D01*
Y68811D01*
X31944D01*
Y68806D01*
X31940D01*
Y68797D01*
X31935D01*
Y68787D01*
X31930D01*
Y68778D01*
X31925D01*
Y68773D01*
X31921D01*
Y68764D01*
X31916D01*
Y68754D01*
X31911D01*
Y68750D01*
X31907D01*
Y68740D01*
X31902D01*
Y68731D01*
X31897D01*
Y68721D01*
X31892D01*
Y68717D01*
X31888D01*
Y68707D01*
X31883D01*
Y68698D01*
X31878D01*
Y68688D01*
X31874D01*
Y68684D01*
X31869D01*
Y68674D01*
X31864D01*
Y68665D01*
X31859D01*
Y68660D01*
X31855D01*
Y68651D01*
X31850D01*
Y68641D01*
X31845D01*
Y68632D01*
X31841D01*
Y68627D01*
X31836D01*
Y68618D01*
X31831D01*
Y68608D01*
X31826D01*
Y68604D01*
X31822D01*
Y68594D01*
X31817D01*
Y68585D01*
X31812D01*
Y68575D01*
X31808D01*
Y68571D01*
X31803D01*
Y68561D01*
X31798D01*
Y68552D01*
X31793D01*
Y68542D01*
X31789D01*
Y68538D01*
X31784D01*
Y68528D01*
X31779D01*
Y68519D01*
X31775D01*
Y68514D01*
X31770D01*
Y68505D01*
X31765D01*
Y68495D01*
X31760D01*
Y68486D01*
X31756D01*
Y68481D01*
X31751D01*
Y68472D01*
X31746D01*
Y68462D01*
X31742D01*
Y68453D01*
X31737D01*
Y68448D01*
X31732D01*
Y68439D01*
X31727D01*
Y68429D01*
X31723D01*
Y68424D01*
X31718D01*
Y68415D01*
X31713D01*
Y68406D01*
X31709D01*
Y68396D01*
X31704D01*
Y68391D01*
X31699D01*
Y68382D01*
X31694D01*
Y68373D01*
X31690D01*
Y68368D01*
X31685D01*
Y68358D01*
X31680D01*
Y68349D01*
X31676D01*
Y68340D01*
X31671D01*
Y68335D01*
X31666D01*
Y68325D01*
X31661D01*
Y68316D01*
X31657D01*
Y68307D01*
X31652D01*
Y68302D01*
X31647D01*
Y68292D01*
X31643D01*
Y68283D01*
X31638D01*
Y68278D01*
X31633D01*
Y68269D01*
X31628D01*
Y68259D01*
X31624D01*
Y68250D01*
X31619D01*
Y68245D01*
X31614D01*
Y68236D01*
X31610D01*
Y68227D01*
X31605D01*
Y68217D01*
X31600D01*
Y68212D01*
X31596D01*
Y68203D01*
X31591D01*
Y68193D01*
X31586D01*
Y68189D01*
X31581D01*
Y68179D01*
X31577D01*
Y68170D01*
X31572D01*
Y68161D01*
X31567D01*
Y68156D01*
X31563D01*
Y68146D01*
X31558D01*
Y68137D01*
X31553D01*
Y68128D01*
X31548D01*
Y68123D01*
X31544D01*
Y68113D01*
X31539D01*
Y68104D01*
X31534D01*
Y68099D01*
X31530D01*
Y68090D01*
X31525D01*
Y68080D01*
X31520D01*
Y68071D01*
X31515D01*
Y68066D01*
X31511D01*
Y68057D01*
X31506D01*
Y68047D01*
X31501D01*
Y68043D01*
X31497D01*
Y68033D01*
X31492D01*
Y68024D01*
X31487D01*
Y68014D01*
X31482D01*
Y68010D01*
X31478D01*
Y68000D01*
X31473D01*
Y67991D01*
X31468D01*
Y67981D01*
X31464D01*
Y67977D01*
X31459D01*
Y67967D01*
X31454D01*
Y67958D01*
X31449D01*
Y67953D01*
X31445D01*
Y67944D01*
X31440D01*
Y67934D01*
X31435D01*
Y67925D01*
X31431D01*
Y67920D01*
X31426D01*
Y67911D01*
X31421D01*
Y67901D01*
X31416D01*
Y67892D01*
X31412D01*
Y67887D01*
X31407D01*
Y67878D01*
X31402D01*
Y67868D01*
X31398D01*
Y67864D01*
X31393D01*
Y67854D01*
X31388D01*
Y67845D01*
X31383D01*
Y67835D01*
X31379D01*
Y67831D01*
X31374D01*
Y67821D01*
X31369D01*
Y67812D01*
X31365D01*
Y67807D01*
X31360D01*
Y67798D01*
X31355D01*
Y67788D01*
X31350D01*
Y67779D01*
X31346D01*
Y67774D01*
X31341D01*
Y67765D01*
X31336D01*
Y67755D01*
X31332D01*
Y67746D01*
X31327D01*
Y67741D01*
X31322D01*
Y67732D01*
X31317D01*
Y67722D01*
X31313D01*
Y67717D01*
X31308D01*
Y67708D01*
X31303D01*
Y67699D01*
X31299D01*
Y67689D01*
X31294D01*
Y67684D01*
X31289D01*
Y67675D01*
X31284D01*
Y67666D01*
X31280D01*
Y67656D01*
X31275D01*
Y67651D01*
X31270D01*
Y67642D01*
X31266D01*
Y67633D01*
X31261D01*
Y67628D01*
X31256D01*
Y67618D01*
X31251D01*
Y67609D01*
X31247D01*
Y67600D01*
X31242D01*
Y67595D01*
X31237D01*
Y67585D01*
X31233D01*
Y67576D01*
X31228D01*
Y67571D01*
X31223D01*
Y67562D01*
X31218D01*
Y67552D01*
X31214D01*
Y67543D01*
X31209D01*
Y67538D01*
X31204D01*
Y67529D01*
X31200D01*
Y67519D01*
X31195D01*
Y67510D01*
X31190D01*
Y67505D01*
X31185D01*
Y67496D01*
X31181D01*
Y67486D01*
X31176D01*
Y67482D01*
X31171D01*
Y67472D01*
X31167D01*
Y67463D01*
X31162D01*
Y67453D01*
X31157D01*
Y67449D01*
X31152D01*
Y67439D01*
X31148D01*
Y67430D01*
X31143D01*
Y67421D01*
X31138D01*
Y67416D01*
X31134D01*
Y67406D01*
X31129D01*
Y67397D01*
X31124D01*
Y67392D01*
X31119D01*
Y67383D01*
X31115D01*
Y67373D01*
X31110D01*
Y67364D01*
X31105D01*
Y67359D01*
X31101D01*
Y67350D01*
X31096D01*
Y67340D01*
X31091D01*
Y67336D01*
X31086D01*
Y67326D01*
X31082D01*
Y67317D01*
X31077D01*
Y67307D01*
X31072D01*
Y67303D01*
X31068D01*
Y67293D01*
X31063D01*
Y67284D01*
X31058D01*
Y67274D01*
X31053D01*
Y67270D01*
X31049D01*
Y67260D01*
X31044D01*
Y67251D01*
X31039D01*
Y67246D01*
X31035D01*
Y67237D01*
X31030D01*
Y67227D01*
X31025D01*
Y67218D01*
X31020D01*
Y67213D01*
X31016D01*
Y67204D01*
X31011D01*
Y67194D01*
X31006D01*
Y67185D01*
X31002D01*
Y67180D01*
X30997D01*
Y67171D01*
X30992D01*
Y67161D01*
X30987D01*
Y67157D01*
X30983D01*
Y67147D01*
X30978D01*
Y67138D01*
X30973D01*
Y67128D01*
X30969D01*
Y67124D01*
X30964D01*
Y67114D01*
X30959D01*
Y67105D01*
X30954D01*
Y67100D01*
X30950D01*
Y67091D01*
X30945D01*
Y67081D01*
X30940D01*
Y67072D01*
X30936D01*
Y67067D01*
X30931D01*
Y67058D01*
X30926D01*
Y67048D01*
X30921D01*
Y67039D01*
X30917D01*
Y67034D01*
X30912D01*
Y67025D01*
X30907D01*
Y67015D01*
X30903D01*
Y67010D01*
X30898D01*
Y67001D01*
X30893D01*
Y66992D01*
X30889D01*
Y66982D01*
X30884D01*
Y66977D01*
X30879D01*
Y66968D01*
X30874D01*
Y66959D01*
X30870D01*
Y66949D01*
X30865D01*
Y66944D01*
X30860D01*
Y66935D01*
X30855D01*
Y66926D01*
X30851D01*
Y66921D01*
X30846D01*
Y66911D01*
X30841D01*
Y66902D01*
X30837D01*
Y66893D01*
X30832D01*
Y66888D01*
X30827D01*
Y66878D01*
X30823D01*
Y66869D01*
X30818D01*
Y66860D01*
X30813D01*
Y66855D01*
X30808D01*
Y66845D01*
X30804D01*
Y66836D01*
X30799D01*
Y66831D01*
X30794D01*
Y66822D01*
X30790D01*
Y66812D01*
X30785D01*
Y66803D01*
X30780D01*
Y66798D01*
X30775D01*
Y66789D01*
X30771D01*
Y66779D01*
X30766D01*
Y66775D01*
X30761D01*
Y66765D01*
X30757D01*
Y66756D01*
X30752D01*
Y66746D01*
X30747D01*
Y66742D01*
X30742D01*
Y66732D01*
X30738D01*
Y66723D01*
X30733D01*
Y66713D01*
X30728D01*
Y66709D01*
X30724D01*
Y66699D01*
X30719D01*
Y66690D01*
X30714D01*
Y66685D01*
X30709D01*
Y66676D01*
X30705D01*
Y66666D01*
X30700D01*
Y66657D01*
X30695D01*
Y66652D01*
X30691D01*
Y66643D01*
X30686D01*
Y66633D01*
X30681D01*
Y66624D01*
X30676D01*
Y66619D01*
X30672D01*
Y66610D01*
X30667D01*
Y66600D01*
X30662D01*
Y66596D01*
X30658D01*
Y66586D01*
X30653D01*
Y66577D01*
X30648D01*
Y66567D01*
X30643D01*
Y66563D01*
X30639D01*
Y66553D01*
X30634D01*
Y66544D01*
X30629D01*
Y66539D01*
X30625D01*
Y66530D01*
X30620D01*
Y66520D01*
X30615D01*
Y66511D01*
X30610D01*
Y66506D01*
X30606D01*
Y66497D01*
X30601D01*
Y66487D01*
X30596D01*
Y66478D01*
X30592D01*
Y66473D01*
X30587D01*
Y66464D01*
X30582D01*
Y66454D01*
X30577D01*
Y66450D01*
X30573D01*
Y66440D01*
X30568D01*
Y66431D01*
X30563D01*
Y66421D01*
X30559D01*
Y66417D01*
X30554D01*
Y66407D01*
X30549D01*
Y66398D01*
X30544D01*
Y66388D01*
X30540D01*
Y66384D01*
X30535D01*
Y66374D01*
X30530D01*
Y66365D01*
X30526D01*
Y66360D01*
X30521D01*
Y66351D01*
X30516D01*
Y66341D01*
X30511D01*
Y66332D01*
X30507D01*
Y66327D01*
X30502D01*
Y66318D01*
X30497D01*
Y66308D01*
X30493D01*
Y66303D01*
X30488D01*
Y66294D01*
X30483D01*
Y66285D01*
X30478D01*
Y66275D01*
X30474D01*
Y66270D01*
X30469D01*
Y66261D01*
X30464D01*
Y66252D01*
X30460D01*
Y66242D01*
X30455D01*
Y66237D01*
X30450D01*
Y66228D01*
X30445D01*
Y66219D01*
X30441D01*
Y66214D01*
X30436D01*
Y66204D01*
X30431D01*
Y66195D01*
X30427D01*
Y66186D01*
X30422D01*
Y66181D01*
X30417D01*
Y66171D01*
X30412D01*
Y66162D01*
X30408D01*
Y66153D01*
X30403D01*
Y66148D01*
X30398D01*
Y66138D01*
X30394D01*
Y66129D01*
X30389D01*
Y66124D01*
X30384D01*
Y66115D01*
X30379D01*
Y66105D01*
X30375D01*
Y66096D01*
X30370D01*
Y66091D01*
X30365D01*
Y66082D01*
X30361D01*
Y66072D01*
X30356D01*
Y66068D01*
X30351D01*
Y66058D01*
X30346D01*
Y66049D01*
X30342D01*
Y66039D01*
X30337D01*
Y66035D01*
X30332D01*
Y66025D01*
X30328D01*
Y66016D01*
X30323D01*
Y66006D01*
X30318D01*
Y66002D01*
X30313D01*
Y65992D01*
X30309D01*
Y65983D01*
X30304D01*
Y65978D01*
X30299D01*
Y65969D01*
X30295D01*
Y65959D01*
X30290D01*
Y65950D01*
X30285D01*
Y65945D01*
X30280D01*
Y65936D01*
X30276D01*
Y65926D01*
X30271D01*
Y65917D01*
X30266D01*
Y65912D01*
X30262D01*
Y65903D01*
X30257D01*
Y65893D01*
X30252D01*
Y65889D01*
X30247D01*
Y65879D01*
X30243D01*
Y65870D01*
X30238D01*
Y65860D01*
X30233D01*
Y65856D01*
X30229D01*
Y65846D01*
X30224D01*
Y65837D01*
X30219D01*
Y65832D01*
X30214D01*
Y65823D01*
X30210D01*
Y65813D01*
X30205D01*
Y65804D01*
X30200D01*
Y65799D01*
X30196D01*
Y65790D01*
X30191D01*
Y65780D01*
X30186D01*
Y65771D01*
X30181D01*
Y65766D01*
X30177D01*
Y65757D01*
X30172D01*
Y65747D01*
X30167D01*
Y65743D01*
X30163D01*
Y65733D01*
X30158D01*
Y65724D01*
X30153D01*
Y65714D01*
X30148D01*
Y65710D01*
X30144D01*
Y65700D01*
X30139D01*
Y65691D01*
X30134D01*
Y65681D01*
X30130D01*
Y65677D01*
X30125D01*
Y65667D01*
X30120D01*
Y65658D01*
X30115D01*
Y65653D01*
X30111D01*
Y65644D01*
X30106D01*
Y65634D01*
X30101D01*
Y65625D01*
X30097D01*
Y65620D01*
X30092D01*
Y65611D01*
X30087D01*
Y65601D01*
X30083D01*
Y65592D01*
X30078D01*
Y65587D01*
X30073D01*
Y65578D01*
X30068D01*
Y65568D01*
X30064D01*
Y65563D01*
X30059D01*
Y65554D01*
X30054D01*
Y65545D01*
X30050D01*
Y65535D01*
X30045D01*
Y65530D01*
X30040D01*
Y65521D01*
X30035D01*
Y65512D01*
X30031D01*
Y65507D01*
X30026D01*
Y65497D01*
X30021D01*
Y65488D01*
X30017D01*
Y65479D01*
X30012D01*
Y65474D01*
X30007D01*
Y65464D01*
X30002D01*
Y65455D01*
X29998D01*
Y65446D01*
X29993D01*
Y65441D01*
X29988D01*
Y65431D01*
X29984D01*
Y65422D01*
X29979D01*
Y65417D01*
X29974D01*
Y65408D01*
X29969D01*
Y65398D01*
X29965D01*
Y65389D01*
X29960D01*
Y65384D01*
X29955D01*
Y65375D01*
X29951D01*
Y65365D01*
X29946D01*
Y65356D01*
X29941D01*
Y65351D01*
X29936D01*
Y65342D01*
X29932D01*
Y65332D01*
X29927D01*
Y65328D01*
X29922D01*
Y65318D01*
X29918D01*
Y65309D01*
X29913D01*
Y65299D01*
X29908D01*
Y65295D01*
X29903D01*
Y65285D01*
X29899D01*
Y65276D01*
X29894D01*
Y65271D01*
X29889D01*
Y65262D01*
X29885D01*
Y65252D01*
X29880D01*
Y65243D01*
X29875D01*
Y65238D01*
X29870D01*
Y65229D01*
X29866D01*
Y65219D01*
X29861D01*
Y65210D01*
X29856D01*
Y65205D01*
X29852D01*
Y65196D01*
X29847D01*
Y65186D01*
X29842D01*
Y65182D01*
X29837D01*
Y65172D01*
X29833D01*
Y65163D01*
X29828D01*
Y65153D01*
X29823D01*
Y65149D01*
X29819D01*
Y65139D01*
X29814D01*
Y65130D01*
X29809D01*
Y65120D01*
X29804D01*
Y65116D01*
X29800D01*
Y65106D01*
X29795D01*
Y65097D01*
X29790D01*
Y65092D01*
X29786D01*
Y65083D01*
X29781D01*
Y65073D01*
X29776D01*
Y65064D01*
X29771D01*
Y65059D01*
X29767D01*
Y65050D01*
X29762D01*
Y65040D01*
X29757D01*
Y65036D01*
X29753D01*
Y65026D01*
X29748D01*
Y65017D01*
X29743D01*
Y65007D01*
X29738D01*
Y65003D01*
X29734D01*
Y64993D01*
X29729D01*
Y64984D01*
X29724D01*
Y64974D01*
X29720D01*
Y64970D01*
X29715D01*
Y64960D01*
X29710D01*
Y64951D01*
X29705D01*
Y64946D01*
X29701D01*
Y64937D01*
X29696D01*
Y64927D01*
X29691D01*
Y64918D01*
X29687D01*
Y64913D01*
X29682D01*
Y64904D01*
X29677D01*
Y64894D01*
X29672D01*
Y64885D01*
X29668D01*
Y64880D01*
X29663D01*
Y64871D01*
X29658D01*
Y64861D01*
X29654D01*
Y64856D01*
X29649D01*
Y64847D01*
X29644D01*
Y64838D01*
X29639D01*
Y64828D01*
X29635D01*
Y64823D01*
X29630D01*
Y64814D01*
X29625D01*
Y64805D01*
X29621D01*
Y64800D01*
X29616D01*
Y64790D01*
X29611D01*
Y64781D01*
X29606D01*
Y64772D01*
X29602D01*
Y64767D01*
X29597D01*
Y64757D01*
X29592D01*
Y64748D01*
X29588D01*
Y64739D01*
X29583D01*
Y64734D01*
X29578D01*
Y64724D01*
X29573D01*
Y64715D01*
X29569D01*
Y64710D01*
X29564D01*
Y64701D01*
X29559D01*
Y64691D01*
X29555D01*
Y64682D01*
X29550D01*
Y64677D01*
X29545D01*
Y64668D01*
X29540D01*
Y64658D01*
X29536D01*
Y64649D01*
X29531D01*
Y64644D01*
X29526D01*
Y64635D01*
X29522D01*
Y64625D01*
X29517D01*
Y64621D01*
X29512D01*
Y64611D01*
X29507D01*
Y64602D01*
X29503D01*
Y64592D01*
X29498D01*
Y64588D01*
X29493D01*
Y64578D01*
X29489D01*
Y64569D01*
X29484D01*
Y64564D01*
X29479D01*
Y64555D01*
X29474D01*
Y64545D01*
X29470D01*
Y64536D01*
X29465D01*
Y64531D01*
X29460D01*
Y64522D01*
X29456D01*
Y64512D01*
X29451D01*
Y64503D01*
X29446D01*
Y64498D01*
X29441D01*
Y64489D01*
X29437D01*
Y64479D01*
X29432D01*
Y64475D01*
X29427D01*
Y64465D01*
X29423D01*
Y64456D01*
X29418D01*
Y64446D01*
X29413D01*
Y64442D01*
X29408D01*
Y64432D01*
X29404D01*
Y64423D01*
X29399D01*
Y64413D01*
X29394D01*
Y64409D01*
X29390D01*
Y64399D01*
X29385D01*
Y64390D01*
X29380D01*
Y64385D01*
X29375D01*
Y64376D01*
X29371D01*
Y64366D01*
X29366D01*
Y64357D01*
X29361D01*
Y64352D01*
X29357D01*
Y64343D01*
X29352D01*
Y64333D01*
X29347D01*
Y64324D01*
X29343D01*
Y64319D01*
X29338D01*
Y64310D01*
X29333D01*
Y64300D01*
X29328D01*
Y64296D01*
X29324D01*
Y64286D01*
X29319D01*
Y64277D01*
X29314D01*
Y64267D01*
X29309D01*
Y64263D01*
X29305D01*
Y64253D01*
X29300D01*
Y64244D01*
X29295D01*
Y64239D01*
X29291D01*
Y64230D01*
X29286D01*
Y64220D01*
X29281D01*
Y64211D01*
X29277D01*
Y64206D01*
X29272D01*
Y64197D01*
X29267D01*
Y64187D01*
X29262D01*
Y64178D01*
X29258D01*
Y64173D01*
X29253D01*
Y64164D01*
X29248D01*
Y64154D01*
X29244D01*
Y64149D01*
X29239D01*
Y64140D01*
X29234D01*
Y64131D01*
X29229D01*
Y64121D01*
X29225D01*
Y64116D01*
X29220D01*
Y64107D01*
X29215D01*
Y64098D01*
X29211D01*
Y64088D01*
X29206D01*
Y64083D01*
X29201D01*
Y64074D01*
X29196D01*
Y64065D01*
X29192D01*
Y64060D01*
X29187D01*
Y64050D01*
X29182D01*
Y64041D01*
X29178D01*
Y64032D01*
X29173D01*
Y64027D01*
X29168D01*
Y64017D01*
X29163D01*
Y64008D01*
X29159D01*
Y64003D01*
X29154D01*
Y63994D01*
X29149D01*
Y63984D01*
X29145D01*
Y63975D01*
X29140D01*
Y63970D01*
X29135D01*
Y63961D01*
X37987D01*
Y63970D01*
X37982D01*
Y63975D01*
X37977D01*
Y63984D01*
X37973D01*
Y63994D01*
X37968D01*
Y64003D01*
X37963D01*
Y64008D01*
X37959D01*
Y64017D01*
X37954D01*
Y64027D01*
X37949D01*
Y64036D01*
X37944D01*
Y64041D01*
X37940D01*
Y64050D01*
X37935D01*
Y64060D01*
X37930D01*
Y64065D01*
X37926D01*
Y64074D01*
X37921D01*
Y64083D01*
X37916D01*
Y64093D01*
X37911D01*
Y64098D01*
X37907D01*
Y64107D01*
X37902D01*
Y64116D01*
X37897D01*
Y64121D01*
X37893D01*
Y64131D01*
X37888D01*
Y64140D01*
X37883D01*
Y64149D01*
X37878D01*
Y64154D01*
X37874D01*
Y64164D01*
X37869D01*
Y64173D01*
X37864D01*
Y64182D01*
X37860D01*
Y64187D01*
X37855D01*
Y64197D01*
X37850D01*
Y64206D01*
X37845D01*
Y64211D01*
X37841D01*
Y64220D01*
X37836D01*
Y64230D01*
X37831D01*
Y64239D01*
X37827D01*
Y64244D01*
X37822D01*
Y64253D01*
X37817D01*
Y64263D01*
X37812D01*
Y64272D01*
X37808D01*
Y64277D01*
X37803D01*
Y64286D01*
X37798D01*
Y64296D01*
X37794D01*
Y64300D01*
X37789D01*
Y64310D01*
X37784D01*
Y64319D01*
X37779D01*
Y64329D01*
X37775D01*
Y64333D01*
X37770D01*
Y64343D01*
X37765D01*
Y64352D01*
X37761D01*
Y64357D01*
X37756D01*
Y64366D01*
X37751D01*
Y64376D01*
X37746D01*
Y64385D01*
X37742D01*
Y64390D01*
X37737D01*
Y64399D01*
X37732D01*
Y64409D01*
X37728D01*
Y64418D01*
X37723D01*
Y64423D01*
X37718D01*
Y64432D01*
X37714D01*
Y64442D01*
X37709D01*
Y64446D01*
X37704D01*
Y64456D01*
X37699D01*
Y64465D01*
X37695D01*
Y64475D01*
X37690D01*
Y64479D01*
X37685D01*
Y64489D01*
X37681D01*
Y64498D01*
X37676D01*
Y64508D01*
X37671D01*
Y64512D01*
X37666D01*
Y64522D01*
X37662D01*
Y64531D01*
X37657D01*
Y64536D01*
X37652D01*
Y64545D01*
X37648D01*
Y64555D01*
X37643D01*
Y64564D01*
X37638D01*
Y64569D01*
X37633D01*
Y64578D01*
X37629D01*
Y64588D01*
X37624D01*
Y64592D01*
X37619D01*
Y64602D01*
X37615D01*
Y64611D01*
X37610D01*
Y64621D01*
X37605D01*
Y64625D01*
X37600D01*
Y64635D01*
X37596D01*
Y64644D01*
X37591D01*
Y64654D01*
X37586D01*
Y64658D01*
X37582D01*
Y64668D01*
X37577D01*
Y64677D01*
X37572D01*
Y64682D01*
X37567D01*
Y64691D01*
X37563D01*
Y64701D01*
X37558D01*
Y64710D01*
X37553D01*
Y64715D01*
X37549D01*
Y64724D01*
X37544D01*
Y64734D01*
X37539D01*
Y64743D01*
X37534D01*
Y64748D01*
X37530D01*
Y64757D01*
X37525D01*
Y64767D01*
X37520D01*
Y64772D01*
X37516D01*
Y64781D01*
X37511D01*
Y64790D01*
X37506D01*
Y64800D01*
X37501D01*
Y64805D01*
X37497D01*
Y64814D01*
X37492D01*
Y64823D01*
X37487D01*
Y64833D01*
X37483D01*
Y64838D01*
X37478D01*
Y64847D01*
X37473D01*
Y64856D01*
X37468D01*
Y64861D01*
X37464D01*
Y64871D01*
X37459D01*
Y64880D01*
X37454D01*
Y64889D01*
X37450D01*
Y64894D01*
X37445D01*
Y64904D01*
X37440D01*
Y64913D01*
X37435D01*
Y64918D01*
X37431D01*
Y64927D01*
X37426D01*
Y64937D01*
X37421D01*
Y64946D01*
X37417D01*
Y64951D01*
X37412D01*
Y64960D01*
X37407D01*
Y64970D01*
X37402D01*
Y64979D01*
X37398D01*
Y64984D01*
X37393D01*
Y64993D01*
X37388D01*
Y65003D01*
X37384D01*
Y65007D01*
X37379D01*
Y65017D01*
X37374D01*
Y65026D01*
X37369D01*
Y65036D01*
X37365D01*
Y65040D01*
X37360D01*
Y65050D01*
X37355D01*
Y65059D01*
X37351D01*
Y65069D01*
X37346D01*
Y65073D01*
X37341D01*
Y65083D01*
X37336D01*
Y65092D01*
X37332D01*
Y65097D01*
X37327D01*
Y65106D01*
X37322D01*
Y65116D01*
X37318D01*
Y65125D01*
X37313D01*
Y65130D01*
X37308D01*
Y65139D01*
X37303D01*
Y65149D01*
X37299D01*
Y65153D01*
X37294D01*
Y65163D01*
X37289D01*
Y65172D01*
X37285D01*
Y65182D01*
X37280D01*
Y65186D01*
X37275D01*
Y65196D01*
X37270D01*
Y65205D01*
X37266D01*
Y65215D01*
X37261D01*
Y65219D01*
X37256D01*
Y65229D01*
X37252D01*
Y65238D01*
X37247D01*
Y65243D01*
X37242D01*
Y65252D01*
X37237D01*
Y65262D01*
X37233D01*
Y65271D01*
X37228D01*
Y65276D01*
X37223D01*
Y65285D01*
X37219D01*
Y65295D01*
X37214D01*
Y65304D01*
X37209D01*
Y65309D01*
X37204D01*
Y65318D01*
X37200D01*
Y65328D01*
X37195D01*
Y65332D01*
X37190D01*
Y65342D01*
X37186D01*
Y65351D01*
X37181D01*
Y65361D01*
X37176D01*
Y65365D01*
X37171D01*
Y65375D01*
X37167D01*
Y65384D01*
X37162D01*
Y65389D01*
X37157D01*
Y65398D01*
X37153D01*
Y65408D01*
X37148D01*
Y65417D01*
X37143D01*
Y65422D01*
X37138D01*
Y65431D01*
X37134D01*
Y65441D01*
X37129D01*
Y65450D01*
X37124D01*
Y65455D01*
X37120D01*
Y65464D01*
X37115D01*
Y65474D01*
X37110D01*
Y65479D01*
X37105D01*
Y65488D01*
X37101D01*
Y65497D01*
X37096D01*
Y65507D01*
X37091D01*
Y65512D01*
X37087D01*
Y65521D01*
X37082D01*
Y65530D01*
X37077D01*
Y65540D01*
X37072D01*
Y65545D01*
X37068D01*
Y65554D01*
X37063D01*
Y65563D01*
X37058D01*
Y65568D01*
X37054D01*
Y65578D01*
X37049D01*
Y65587D01*
X37044D01*
Y65596D01*
X37039D01*
Y65601D01*
X37035D01*
Y65611D01*
X37030D01*
Y65620D01*
X37025D01*
Y65625D01*
X37021D01*
Y65634D01*
X37016D01*
Y65644D01*
X37011D01*
Y65653D01*
X37006D01*
Y65658D01*
X37002D01*
Y65667D01*
X36997D01*
Y65677D01*
X36992D01*
Y65686D01*
X36988D01*
Y65691D01*
X36983D01*
Y65700D01*
X36978D01*
Y65710D01*
X36973D01*
Y65714D01*
X36969D01*
Y65724D01*
X36964D01*
Y65733D01*
X36959D01*
Y65743D01*
X36955D01*
Y65747D01*
X36950D01*
Y65757D01*
X36945D01*
Y65766D01*
X36940D01*
Y65776D01*
X36936D01*
Y65780D01*
X36931D01*
Y65790D01*
X36926D01*
Y65799D01*
X36922D01*
Y65804D01*
X36917D01*
Y65813D01*
X36912D01*
Y65823D01*
X36908D01*
Y65832D01*
X36903D01*
Y65837D01*
X36898D01*
Y65846D01*
X36893D01*
Y65856D01*
X36889D01*
Y65860D01*
X36884D01*
Y65870D01*
X36879D01*
Y65879D01*
X36875D01*
Y65889D01*
X36870D01*
Y65893D01*
X36865D01*
Y65903D01*
X36860D01*
Y65912D01*
X36856D01*
Y65922D01*
X36851D01*
Y65926D01*
X36846D01*
Y65936D01*
X36842D01*
Y65945D01*
X36837D01*
Y65950D01*
X36832D01*
Y65959D01*
X36827D01*
Y65969D01*
X36823D01*
Y65978D01*
X36818D01*
Y65983D01*
X36813D01*
Y65992D01*
X36809D01*
Y66002D01*
X36804D01*
Y66011D01*
X36799D01*
Y66016D01*
X36794D01*
Y66025D01*
X36790D01*
Y66035D01*
X36785D01*
Y66039D01*
X36780D01*
Y66049D01*
X36776D01*
Y66058D01*
X36771D01*
Y66068D01*
X36766D01*
Y66072D01*
X36761D01*
Y66082D01*
X36757D01*
Y66091D01*
X36752D01*
Y66096D01*
X36747D01*
Y66105D01*
X36743D01*
Y66115D01*
X36738D01*
Y66124D01*
X36733D01*
Y66129D01*
X36728D01*
Y66138D01*
X36724D01*
Y66148D01*
X36719D01*
Y66157D01*
X36714D01*
Y66162D01*
X36710D01*
Y66171D01*
X36705D01*
Y66181D01*
X36700D01*
Y66186D01*
X36695D01*
Y66195D01*
X36691D01*
Y66204D01*
X36686D01*
Y66214D01*
X36681D01*
Y66219D01*
X36677D01*
Y66228D01*
X36672D01*
Y66237D01*
X36667D01*
Y66247D01*
X36662D01*
Y66252D01*
X36658D01*
Y66261D01*
X36653D01*
Y66270D01*
X36648D01*
Y66275D01*
X36644D01*
Y66285D01*
X36639D01*
Y66294D01*
X36634D01*
Y66303D01*
X36629D01*
Y66308D01*
X36625D01*
Y66318D01*
X36620D01*
Y66327D01*
X36615D01*
Y66332D01*
X36611D01*
Y66341D01*
X36606D01*
Y66351D01*
X36601D01*
Y66360D01*
X36596D01*
Y66365D01*
X36592D01*
Y66374D01*
X36587D01*
Y66384D01*
X36582D01*
Y66393D01*
X36578D01*
Y66398D01*
X36573D01*
Y66407D01*
X36568D01*
Y66417D01*
X36563D01*
Y66421D01*
X36559D01*
Y66431D01*
X36554D01*
Y66440D01*
X36549D01*
Y66450D01*
X36545D01*
Y66454D01*
X36540D01*
Y66464D01*
X36535D01*
Y66473D01*
X36530D01*
Y66483D01*
X36526D01*
Y66487D01*
X36521D01*
Y66497D01*
X36516D01*
Y66506D01*
X36512D01*
Y66511D01*
X36507D01*
Y66520D01*
X36502D01*
Y66530D01*
X36497D01*
Y66539D01*
X36493D01*
Y66544D01*
X36488D01*
Y66553D01*
X36483D01*
Y66563D01*
X36479D01*
Y66567D01*
X36474D01*
Y66577D01*
X36469D01*
Y66586D01*
X36464D01*
Y66596D01*
X36460D01*
Y66600D01*
X36455D01*
Y66610D01*
X36450D01*
Y66619D01*
X36446D01*
Y66629D01*
X36441D01*
Y66633D01*
X36436D01*
Y66643D01*
X36431D01*
Y66652D01*
X36427D01*
Y66657D01*
X36422D01*
Y66666D01*
X36417D01*
Y66676D01*
X36413D01*
Y66685D01*
X36408D01*
Y66690D01*
X36403D01*
Y66699D01*
X36398D01*
Y66709D01*
X36394D01*
Y66718D01*
X36389D01*
Y66723D01*
X36384D01*
Y66732D01*
X36380D01*
Y66742D01*
X36375D01*
Y66746D01*
X36370D01*
Y66756D01*
X36365D01*
Y66765D01*
X36361D01*
Y66775D01*
X36356D01*
Y66779D01*
X36351D01*
Y66789D01*
X36347D01*
Y66798D01*
X36342D01*
Y66803D01*
X36337D01*
Y66812D01*
X36332D01*
Y66822D01*
X36328D01*
Y66831D01*
X36323D01*
Y66836D01*
X36318D01*
Y66845D01*
X36314D01*
Y66855D01*
X36309D01*
Y66864D01*
X36304D01*
Y66869D01*
X36299D01*
Y66878D01*
X36295D01*
Y66888D01*
X36290D01*
Y66893D01*
X36285D01*
Y66902D01*
X36281D01*
Y66911D01*
X36276D01*
Y66921D01*
X36271D01*
Y66926D01*
X36266D01*
Y66935D01*
X36262D01*
Y66944D01*
X36257D01*
Y66954D01*
X36252D01*
Y66959D01*
X36248D01*
Y66968D01*
X36243D01*
Y66977D01*
X36238D01*
Y66982D01*
X36233D01*
Y66992D01*
X36229D01*
Y67001D01*
X36224D01*
Y67010D01*
X36219D01*
Y67015D01*
X36215D01*
Y67025D01*
X36210D01*
Y67034D01*
X36205D01*
Y67039D01*
X36201D01*
Y67048D01*
X36196D01*
Y67058D01*
X36191D01*
Y67067D01*
X36186D01*
Y67072D01*
X36182D01*
Y67081D01*
X36177D01*
Y67091D01*
X36172D01*
Y67100D01*
X36167D01*
Y67105D01*
X36163D01*
Y67114D01*
X36158D01*
Y67124D01*
X36153D01*
Y67128D01*
X36149D01*
Y67138D01*
X36144D01*
Y67147D01*
X36139D01*
Y67157D01*
X36135D01*
Y67161D01*
X36130D01*
Y67171D01*
X36125D01*
Y67180D01*
X36120D01*
Y67190D01*
X36116D01*
Y67194D01*
X36111D01*
Y67204D01*
X36106D01*
Y67213D01*
X36102D01*
Y67218D01*
X36097D01*
Y67227D01*
X36092D01*
Y67237D01*
X36087D01*
Y67246D01*
X36083D01*
Y67251D01*
X36078D01*
Y67260D01*
X36073D01*
Y67270D01*
X36069D01*
Y67274D01*
X36064D01*
Y67284D01*
X36059D01*
Y67293D01*
X36054D01*
Y67303D01*
X36050D01*
Y67307D01*
X36045D01*
Y67317D01*
X36040D01*
Y67326D01*
X36036D01*
Y67336D01*
X36031D01*
Y67340D01*
X36026D01*
Y67350D01*
X36021D01*
Y67359D01*
X36017D01*
Y67364D01*
X36012D01*
Y67373D01*
X36007D01*
Y67383D01*
X36003D01*
Y67392D01*
X35998D01*
Y67397D01*
X35993D01*
Y67406D01*
X35988D01*
Y67416D01*
X35984D01*
Y67425D01*
X35979D01*
Y67430D01*
X35974D01*
Y67439D01*
X35970D01*
Y67449D01*
X35965D01*
Y67453D01*
X35960D01*
Y67463D01*
X35955D01*
Y67472D01*
X35951D01*
Y67482D01*
X35946D01*
Y67486D01*
X35941D01*
Y67496D01*
X35937D01*
Y67505D01*
X35932D01*
Y67515D01*
X35927D01*
Y67519D01*
X35922D01*
Y67529D01*
X35918D01*
Y67538D01*
X35913D01*
Y67543D01*
X35908D01*
Y67552D01*
X35904D01*
Y67562D01*
X35899D01*
Y67571D01*
X35894D01*
Y67576D01*
X35889D01*
Y67585D01*
X35885D01*
Y67595D01*
X35880D01*
Y67600D01*
X35875D01*
Y67609D01*
X35871D01*
Y67618D01*
X35866D01*
Y67628D01*
X35861D01*
Y67633D01*
X35856D01*
Y67642D01*
X35852D01*
Y67651D01*
X35847D01*
Y67661D01*
X35842D01*
Y67666D01*
X35838D01*
Y67675D01*
X35833D01*
Y67684D01*
X35828D01*
Y67689D01*
X35823D01*
Y67699D01*
X35819D01*
Y67708D01*
X35814D01*
Y67717D01*
X35809D01*
Y67722D01*
X35805D01*
Y67732D01*
X35800D01*
Y67741D01*
X35795D01*
Y67750D01*
X35790D01*
Y67755D01*
X35786D01*
Y67765D01*
X35781D01*
Y67774D01*
X35776D01*
Y67779D01*
X35772D01*
Y67788D01*
X35767D01*
Y67798D01*
X35762D01*
Y67807D01*
X35757D01*
Y67812D01*
X35753D01*
Y67821D01*
X35748D01*
Y67831D01*
X35743D01*
Y67835D01*
X35739D01*
Y67845D01*
X35734D01*
Y67854D01*
X35729D01*
Y67864D01*
X35724D01*
Y67868D01*
X35720D01*
Y67878D01*
X35715D01*
Y67887D01*
X35710D01*
Y67897D01*
X35706D01*
Y67901D01*
X35701D01*
Y67911D01*
X35696D01*
Y67920D01*
X35691D01*
Y67925D01*
X35687D01*
Y67934D01*
X35682D01*
Y67944D01*
X35677D01*
Y67953D01*
X35673D01*
Y67958D01*
X35668D01*
Y67967D01*
X35663D01*
Y67977D01*
X35658D01*
Y67986D01*
X35654D01*
Y67991D01*
X35649D01*
Y68000D01*
X35644D01*
Y68010D01*
X35640D01*
Y68014D01*
X35635D01*
Y68024D01*
X35630D01*
Y68033D01*
X35625D01*
Y68043D01*
X35621D01*
Y68047D01*
X35616D01*
Y68057D01*
X35611D01*
Y68066D01*
X35607D01*
Y68071D01*
X35602D01*
Y68080D01*
X35597D01*
Y68090D01*
X35592D01*
Y68099D01*
X35588D01*
Y68104D01*
X35583D01*
Y68113D01*
X35578D01*
Y68123D01*
X35574D01*
Y68132D01*
X35569D01*
Y68137D01*
X35564D01*
Y68146D01*
X35559D01*
Y68156D01*
X35555D01*
Y68161D01*
X35550D01*
Y68170D01*
X35545D01*
Y68179D01*
X35541D01*
Y68189D01*
X35536D01*
Y68193D01*
X35531D01*
Y68203D01*
X35526D01*
Y68212D01*
X35522D01*
Y68222D01*
X35517D01*
Y68227D01*
X35512D01*
Y68236D01*
X35508D01*
Y68245D01*
X35503D01*
Y68250D01*
X35498D01*
Y68259D01*
X35493D01*
Y68269D01*
X35489D01*
Y68278D01*
X35484D01*
Y68283D01*
X35479D01*
Y68292D01*
X35475D01*
Y68302D01*
X35470D01*
Y68307D01*
X35465D01*
Y68316D01*
X35460D01*
Y68325D01*
X35456D01*
Y68335D01*
X35451D01*
Y68340D01*
X35446D01*
Y68349D01*
X35442D01*
Y68358D01*
X35437D01*
Y68368D01*
X35432D01*
Y68373D01*
X35428D01*
Y68382D01*
X35423D01*
Y68391D01*
X35418D01*
Y68396D01*
X35413D01*
Y68406D01*
X35409D01*
Y68415D01*
X35404D01*
Y68424D01*
X35399D01*
Y68429D01*
X35395D01*
Y68439D01*
X35390D01*
Y68448D01*
X35385D01*
Y68457D01*
X35380D01*
Y68462D01*
X35376D01*
Y68472D01*
X35371D01*
Y68481D01*
X35366D01*
Y68486D01*
X35362D01*
Y68495D01*
X35357D01*
Y68505D01*
X35352D01*
Y68514D01*
X35347D01*
Y68519D01*
X35343D01*
Y68528D01*
X35338D01*
Y68538D01*
X35333D01*
Y68542D01*
X35329D01*
Y68552D01*
X35324D01*
Y68561D01*
X35319D01*
Y68571D01*
X35314D01*
Y68575D01*
X35310D01*
Y68585D01*
X35305D01*
Y68594D01*
X35300D01*
Y68604D01*
X35296D01*
Y68608D01*
X35291D01*
Y68618D01*
X35286D01*
Y68627D01*
X35281D01*
Y68632D01*
X35277D01*
Y68641D01*
X35272D01*
Y68651D01*
X35267D01*
Y68660D01*
X35263D01*
Y68665D01*
X35258D01*
Y68674D01*
X35253D01*
Y68684D01*
X35248D01*
Y68693D01*
X35244D01*
Y68698D01*
X35239D01*
Y68707D01*
X35234D01*
Y68717D01*
X35230D01*
Y68721D01*
X35225D01*
Y68731D01*
X35220D01*
Y68740D01*
X35215D01*
Y68750D01*
X35211D01*
Y68754D01*
X35206D01*
Y68764D01*
X35201D01*
Y68773D01*
X35197D01*
Y68778D01*
X35192D01*
Y68787D01*
X35187D01*
Y68797D01*
X35182D01*
Y68806D01*
X35178D01*
Y68811D01*
X35173D01*
Y68820D01*
X35168D01*
Y68830D01*
X35164D01*
Y68839D01*
X35159D01*
Y68844D01*
X35154D01*
Y68853D01*
X35149D01*
Y68863D01*
X35145D01*
Y68868D01*
X35140D01*
Y68877D01*
X35135D01*
Y68886D01*
X35131D01*
Y68896D01*
X35126D01*
Y68901D01*
X35121D01*
Y68910D01*
X35116D01*
Y68919D01*
X35112D01*
Y68929D01*
X35107D01*
Y68934D01*
X35102D01*
Y68943D01*
X35098D01*
Y68952D01*
X35093D01*
Y68957D01*
X35088D01*
Y68966D01*
X35083D01*
Y68976D01*
X35079D01*
Y68985D01*
X35074D01*
Y68990D01*
X35069D01*
Y68999D01*
X35065D01*
Y69009D01*
X35060D01*
Y69014D01*
X35055D01*
Y69023D01*
X35050D01*
Y69032D01*
X35046D01*
Y69042D01*
X35041D01*
Y69047D01*
X35036D01*
Y69056D01*
X35032D01*
Y69065D01*
X35027D01*
Y69075D01*
X35022D01*
Y69080D01*
X35017D01*
Y69089D01*
X35013D01*
Y69098D01*
X35008D01*
Y69103D01*
X35003D01*
Y69113D01*
X34999D01*
Y69122D01*
X34994D01*
Y69131D01*
X34989D01*
Y69136D01*
X34984D01*
Y69146D01*
X34980D01*
Y69155D01*
X34975D01*
Y69164D01*
X34970D01*
Y69169D01*
X34966D01*
Y69179D01*
X34961D01*
Y69188D01*
X34956D01*
Y69193D01*
X34951D01*
Y69202D01*
X34947D01*
Y69212D01*
X34942D01*
Y69221D01*
X34937D01*
Y69226D01*
X34933D01*
Y69235D01*
X34928D01*
Y69245D01*
X34923D01*
Y69249D01*
X34918D01*
Y69259D01*
X34914D01*
Y69268D01*
X34909D01*
Y69278D01*
X34904D01*
Y69282D01*
X34900D01*
Y69292D01*
X34895D01*
Y69301D01*
X34890D01*
Y69311D01*
X34885D01*
Y69315D01*
X34881D01*
Y69325D01*
X34876D01*
Y69334D01*
X34871D01*
Y69339D01*
X34867D01*
Y69348D01*
X34862D01*
Y69358D01*
X34857D01*
Y69367D01*
X34852D01*
Y69372D01*
X34848D01*
Y69381D01*
X34843D01*
Y69391D01*
X34838D01*
Y69400D01*
X34834D01*
Y69405D01*
X34829D01*
Y69414D01*
X34824D01*
Y69424D01*
X34819D01*
Y69428D01*
X34815D01*
Y69438D01*
X34810D01*
Y69447D01*
X34805D01*
Y69457D01*
X34801D01*
Y69461D01*
X34796D01*
Y69471D01*
X34791D01*
Y69480D01*
X34786D01*
Y69485D01*
X34782D01*
Y69494D01*
X34777D01*
Y69504D01*
X34772D01*
Y69513D01*
X34768D01*
Y69518D01*
X34763D01*
Y69527D01*
X34758D01*
Y69537D01*
X34753D01*
Y69546D01*
X34749D01*
Y69551D01*
X34744D01*
Y69560D01*
X34739D01*
Y69570D01*
X34735D01*
Y69575D01*
X34730D01*
Y69584D01*
X34725D01*
Y69593D01*
X34720D01*
Y69603D01*
X34716D01*
Y69608D01*
X34711D01*
Y69617D01*
X34706D01*
Y69626D01*
X34702D01*
Y69636D01*
X34697D01*
Y69641D01*
X34692D01*
Y69650D01*
X34688D01*
Y69659D01*
X34683D01*
Y69664D01*
X34678D01*
Y69674D01*
X34673D01*
Y69683D01*
X34669D01*
Y69692D01*
X34664D01*
Y69697D01*
X34659D01*
Y69707D01*
X34654D01*
Y69716D01*
X34650D01*
Y69721D01*
X34645D01*
Y69730D01*
X34640D01*
Y69740D01*
X34636D01*
Y69749D01*
X34631D01*
Y69754D01*
X34626D01*
Y69763D01*
X34622D01*
Y69772D01*
X34617D01*
Y69782D01*
X34612D01*
Y69787D01*
X34607D01*
Y69796D01*
X34603D01*
Y69805D01*
X34598D01*
Y69810D01*
X34593D01*
Y69820D01*
X34589D01*
Y69829D01*
X34584D01*
Y69838D01*
X34579D01*
Y69843D01*
X34574D01*
Y69853D01*
X34570D01*
Y69862D01*
X34565D01*
Y69871D01*
X34560D01*
Y69876D01*
X34556D01*
Y69886D01*
X34551D01*
Y69895D01*
X34546D01*
Y69900D01*
X34541D01*
Y69909D01*
X34537D01*
Y69919D01*
X34532D01*
Y69928D01*
X34527D01*
Y69933D01*
X34523D01*
Y69942D01*
X34518D01*
Y69952D01*
X34513D01*
Y69961D01*
X34508D01*
Y69966D01*
X34504D01*
Y69975D01*
X34499D01*
Y69985D01*
X34494D01*
Y69989D01*
X34490D01*
Y69999D01*
X34485D01*
Y70008D01*
X34480D01*
Y70018D01*
X34475D01*
Y70022D01*
X34471D01*
Y70032D01*
X34466D01*
Y70041D01*
X34461D01*
Y70046D01*
X34457D01*
Y70055D01*
X34452D01*
Y70065D01*
X34447D01*
Y70074D01*
X34442D01*
Y70079D01*
X34438D01*
Y70088D01*
X34433D01*
Y70098D01*
X34428D01*
Y70107D01*
X34424D01*
Y70112D01*
X34419D01*
Y70121D01*
X34414D01*
Y70131D01*
X34409D01*
Y70135D01*
X34405D01*
Y70145D01*
X34400D01*
Y70154D01*
X34395D01*
Y70164D01*
X34391D01*
Y70168D01*
X34386D01*
Y70178D01*
X34381D01*
Y70187D01*
X34376D01*
Y70197D01*
X34372D01*
Y70201D01*
X34367D01*
Y70211D01*
X34362D01*
Y70220D01*
X34358D01*
Y70225D01*
X34353D01*
Y70234D01*
X34348D01*
Y70244D01*
X34343D01*
Y70253D01*
X34339D01*
Y70258D01*
X34334D01*
Y70267D01*
X34329D01*
Y70277D01*
X34325D01*
Y70282D01*
X34320D01*
Y70291D01*
X34315D01*
Y70300D01*
X34310D01*
Y70310D01*
X34306D01*
Y70315D01*
X34301D01*
Y70324D01*
X34296D01*
Y70333D01*
X34292D01*
Y70343D01*
X34287D01*
Y70348D01*
X34282D01*
Y70357D01*
X34277D01*
Y70366D01*
X34273D01*
Y70371D01*
X34268D01*
Y70381D01*
X34263D01*
Y70390D01*
X34259D01*
Y70399D01*
X34254D01*
Y70404D01*
X34249D01*
Y70414D01*
X34244D01*
Y70423D01*
X34240D01*
Y70432D01*
X34235D01*
Y70437D01*
X34230D01*
Y70447D01*
X34226D01*
Y70456D01*
X34221D01*
Y70461D01*
X34216D01*
Y70470D01*
X34211D01*
Y70479D01*
X34207D01*
Y70489D01*
X34202D01*
Y70494D01*
X34197D01*
Y70503D01*
X34193D01*
Y70512D01*
X34188D01*
Y70517D01*
X34183D01*
Y70527D01*
X34178D01*
Y70536D01*
X34174D01*
Y70545D01*
X34169D01*
Y70550D01*
X34164D01*
Y70560D01*
X34160D01*
Y70569D01*
X34155D01*
Y70578D01*
X34150D01*
Y70583D01*
X34145D01*
Y70593D01*
X34141D01*
Y70602D01*
X34136D01*
Y70607D01*
X34131D01*
Y70616D01*
X34127D01*
Y70626D01*
X34122D01*
Y70635D01*
X34117D01*
Y70640D01*
X34112D01*
Y70649D01*
X34108D01*
Y70659D01*
X34103D01*
Y70668D01*
X34098D01*
Y70673D01*
X34094D01*
Y70682D01*
X34089D01*
Y70692D01*
X34084D01*
Y70696D01*
X34079D01*
Y70706D01*
X34075D01*
Y70715D01*
X34070D01*
Y70725D01*
X34065D01*
Y70729D01*
X34061D01*
Y70739D01*
X34056D01*
Y70748D01*
X34051D01*
Y70753D01*
X34046D01*
Y70762D01*
X34042D01*
Y70772D01*
X34037D01*
Y70781D01*
X34032D01*
Y70786D01*
X34028D01*
Y70795D01*
X34023D01*
Y70805D01*
X34018D01*
Y70814D01*
X34013D01*
Y70819D01*
X34009D01*
Y70828D01*
X34004D01*
Y70838D01*
X33999D01*
Y70842D01*
X33995D01*
Y70852D01*
X33990D01*
Y70861D01*
X33985D01*
Y70871D01*
X33980D01*
Y70875D01*
X33976D01*
Y70885D01*
X33971D01*
Y70894D01*
X33966D01*
Y70904D01*
X33962D01*
Y70908D01*
X33957D01*
Y70918D01*
X33952D01*
Y70927D01*
X33947D01*
Y70932D01*
X33943D01*
Y70941D01*
X33938D01*
Y70951D01*
X33933D01*
Y70960D01*
X33929D01*
Y70965D01*
X33924D01*
Y70974D01*
X33919D01*
Y70984D01*
X33915D01*
Y70989D01*
X33910D01*
Y70998D01*
X33905D01*
Y71007D01*
X33900D01*
Y71017D01*
X33896D01*
Y71022D01*
X33891D01*
Y71031D01*
X33886D01*
Y71040D01*
X33882D01*
Y71050D01*
X33877D01*
Y71055D01*
X33872D01*
Y71064D01*
X33867D01*
Y71073D01*
X33863D01*
Y71078D01*
X33858D01*
Y71088D01*
X33853D01*
Y71097D01*
X33849D01*
Y71106D01*
X33844D01*
Y71111D01*
X33839D01*
Y71121D01*
X33834D01*
Y71130D01*
X33830D01*
Y71139D01*
X33825D01*
Y71144D01*
X33820D01*
Y71154D01*
X33816D01*
Y71163D01*
X33811D01*
Y71168D01*
X33806D01*
Y71177D01*
X33801D01*
Y71187D01*
X33797D01*
Y71196D01*
X33792D01*
Y71201D01*
X33787D01*
Y71210D01*
X33783D01*
Y71220D01*
X33778D01*
Y71224D01*
X33773D01*
Y71234D01*
X33768D01*
Y71243D01*
X33764D01*
Y71253D01*
X33759D01*
Y71257D01*
X33754D01*
Y71267D01*
X33750D01*
Y71276D01*
X33745D01*
Y71285D01*
X33740D01*
Y71290D01*
X33735D01*
Y71300D01*
X33731D01*
Y71309D01*
X33726D01*
Y71314D01*
X33721D01*
Y71323D01*
X33717D01*
Y71333D01*
X33712D01*
Y71342D01*
X33707D01*
Y71347D01*
X33702D01*
Y71356D01*
X33698D01*
Y71366D01*
X33693D01*
Y71375D01*
X33688D01*
Y71380D01*
X33684D01*
Y71389D01*
X33679D01*
Y71399D01*
X33674D01*
Y71403D01*
X33669D01*
Y71413D01*
X33665D01*
Y71422D01*
X33660D01*
Y71432D01*
X33655D01*
Y71436D01*
X33651D01*
Y71446D01*
X33646D01*
Y71455D01*
X33641D01*
Y71460D01*
X33636D01*
Y71469D01*
X33632D01*
Y71479D01*
X33627D01*
Y71488D01*
X33622D01*
Y71493D01*
X33618D01*
Y71502D01*
X33613D01*
Y71512D01*
X33608D01*
Y71521D01*
X33603D01*
Y71526D01*
X33599D01*
Y71535D01*
X33594D01*
Y71545D01*
X33589D01*
Y71549D01*
X33585D01*
Y71559D01*
X33580D01*
Y71568D01*
X33575D01*
Y71578D01*
X33570D01*
Y71582D01*
X33566D01*
Y71592D01*
D02*
G37*
%LPD*%
G36*
Y70173D02*
X33570D01*
Y70168D01*
X33575D01*
Y70159D01*
X33580D01*
Y70150D01*
X33585D01*
Y70145D01*
X33589D01*
Y70135D01*
X33594D01*
Y70126D01*
X33599D01*
Y70117D01*
X33603D01*
Y70112D01*
X33608D01*
Y70102D01*
X33613D01*
Y70093D01*
X33618D01*
Y70084D01*
X33622D01*
Y70079D01*
X33627D01*
Y70069D01*
X33632D01*
Y70060D01*
X33636D01*
Y70055D01*
X33641D01*
Y70046D01*
X33646D01*
Y70036D01*
X33651D01*
Y70027D01*
X33655D01*
Y70022D01*
X33660D01*
Y70013D01*
X33665D01*
Y70003D01*
X33669D01*
Y69994D01*
X33674D01*
Y69989D01*
X33679D01*
Y69980D01*
X33684D01*
Y69970D01*
X33688D01*
Y69966D01*
X33693D01*
Y69956D01*
X33698D01*
Y69947D01*
X33702D01*
Y69937D01*
X33707D01*
Y69933D01*
X33712D01*
Y69923D01*
X33717D01*
Y69914D01*
X33721D01*
Y69904D01*
X33726D01*
Y69900D01*
X33731D01*
Y69890D01*
X33735D01*
Y69881D01*
X33740D01*
Y69876D01*
X33745D01*
Y69867D01*
X33750D01*
Y69857D01*
X33754D01*
Y69848D01*
X33759D01*
Y69843D01*
X33764D01*
Y69834D01*
X33768D01*
Y69824D01*
X33773D01*
Y69815D01*
X33778D01*
Y69810D01*
X33783D01*
Y69801D01*
X33787D01*
Y69791D01*
X33792D01*
Y69787D01*
X33797D01*
Y69777D01*
X33801D01*
Y69768D01*
X33806D01*
Y69758D01*
X33811D01*
Y69754D01*
X33816D01*
Y69744D01*
X33820D01*
Y69735D01*
X33825D01*
Y69730D01*
X33830D01*
Y69721D01*
X33834D01*
Y69711D01*
X33839D01*
Y69702D01*
X33844D01*
Y69697D01*
X33849D01*
Y69688D01*
X33853D01*
Y69678D01*
X33858D01*
Y69669D01*
X33863D01*
Y69664D01*
X33867D01*
Y69655D01*
X33872D01*
Y69645D01*
X33877D01*
Y69641D01*
X33882D01*
Y69631D01*
X33886D01*
Y69622D01*
X33891D01*
Y69612D01*
X33896D01*
Y69608D01*
X33900D01*
Y69598D01*
X33905D01*
Y69589D01*
X33910D01*
Y69579D01*
X33915D01*
Y69575D01*
X33919D01*
Y69565D01*
X33924D01*
Y69556D01*
X33929D01*
Y69551D01*
X33933D01*
Y69542D01*
X33938D01*
Y69532D01*
X33943D01*
Y69523D01*
X33947D01*
Y69518D01*
X33952D01*
Y69509D01*
X33957D01*
Y69499D01*
X33962D01*
Y69490D01*
X33966D01*
Y69485D01*
X33971D01*
Y69476D01*
X33976D01*
Y69466D01*
X33980D01*
Y69461D01*
X33985D01*
Y69452D01*
X33990D01*
Y69443D01*
X33995D01*
Y69433D01*
X33999D01*
Y69428D01*
X34004D01*
Y69419D01*
X34009D01*
Y69410D01*
X34013D01*
Y69400D01*
X34018D01*
Y69395D01*
X34023D01*
Y69386D01*
X34028D01*
Y69377D01*
X34032D01*
Y69372D01*
X34037D01*
Y69362D01*
X34042D01*
Y69353D01*
X34046D01*
Y69344D01*
X34051D01*
Y69339D01*
X34056D01*
Y69329D01*
X34061D01*
Y69320D01*
X34065D01*
Y69315D01*
X34070D01*
Y69306D01*
X34075D01*
Y69296D01*
X34079D01*
Y69287D01*
X34084D01*
Y69282D01*
X34089D01*
Y69273D01*
X34094D01*
Y69263D01*
X34098D01*
Y69254D01*
X34103D01*
Y69249D01*
X34108D01*
Y69240D01*
X34112D01*
Y69230D01*
X34117D01*
Y69226D01*
X34122D01*
Y69216D01*
X34127D01*
Y69207D01*
X34131D01*
Y69197D01*
X34136D01*
Y69193D01*
X34141D01*
Y69183D01*
X34145D01*
Y69174D01*
X34150D01*
Y69164D01*
X34155D01*
Y69160D01*
X34160D01*
Y69150D01*
X34164D01*
Y69141D01*
X34169D01*
Y69136D01*
X34174D01*
Y69127D01*
X34178D01*
Y69117D01*
X34183D01*
Y69108D01*
X34188D01*
Y69103D01*
X34193D01*
Y69094D01*
X34197D01*
Y69084D01*
X34202D01*
Y69075D01*
X34207D01*
Y69070D01*
X34211D01*
Y69061D01*
X34216D01*
Y69051D01*
X34221D01*
Y69047D01*
X34226D01*
Y69037D01*
X34230D01*
Y69028D01*
X34235D01*
Y69018D01*
X34240D01*
Y69014D01*
X34244D01*
Y69004D01*
X34249D01*
Y68995D01*
X34254D01*
Y68985D01*
X34259D01*
Y68981D01*
X34263D01*
Y68971D01*
X34268D01*
Y68962D01*
X34273D01*
Y68957D01*
X34277D01*
Y68948D01*
X34282D01*
Y68938D01*
X34287D01*
Y68929D01*
X34292D01*
Y68924D01*
X34296D01*
Y68915D01*
X34301D01*
Y68905D01*
X34306D01*
Y68896D01*
X34310D01*
Y68891D01*
X34315D01*
Y68882D01*
X34320D01*
Y68872D01*
X34325D01*
Y68868D01*
X34329D01*
Y68858D01*
X34334D01*
Y68849D01*
X34339D01*
Y68839D01*
X34343D01*
Y68835D01*
X34348D01*
Y68825D01*
X34353D01*
Y68816D01*
X34358D01*
Y68811D01*
X34362D01*
Y68802D01*
X34367D01*
Y68792D01*
X34372D01*
Y68783D01*
X34376D01*
Y68778D01*
X34381D01*
Y68769D01*
X34386D01*
Y68759D01*
X34391D01*
Y68750D01*
X34395D01*
Y68745D01*
X34400D01*
Y68736D01*
X34405D01*
Y68726D01*
X34409D01*
Y68721D01*
X34414D01*
Y68712D01*
X34419D01*
Y68703D01*
X34424D01*
Y68693D01*
X34428D01*
Y68688D01*
X34433D01*
Y68679D01*
X34438D01*
Y68670D01*
X34442D01*
Y68660D01*
X34447D01*
Y68655D01*
X34452D01*
Y68646D01*
X34457D01*
Y68637D01*
X34461D01*
Y68632D01*
X34466D01*
Y68622D01*
X34471D01*
Y68613D01*
X34475D01*
Y68604D01*
X34480D01*
Y68599D01*
X34485D01*
Y68589D01*
X34490D01*
Y68580D01*
X34494D01*
Y68571D01*
X34499D01*
Y68566D01*
X34504D01*
Y68556D01*
X34508D01*
Y68547D01*
X34513D01*
Y68542D01*
X34518D01*
Y68533D01*
X34523D01*
Y68523D01*
X34527D01*
Y68514D01*
X34532D01*
Y68509D01*
X34537D01*
Y68500D01*
X34541D01*
Y68490D01*
X34546D01*
Y68481D01*
X34551D01*
Y68476D01*
X34556D01*
Y68467D01*
X34560D01*
Y68457D01*
X34565D01*
Y68453D01*
X34570D01*
Y68443D01*
X34574D01*
Y68434D01*
X34579D01*
Y68424D01*
X34584D01*
Y68420D01*
X34589D01*
Y68410D01*
X34593D01*
Y68401D01*
X34598D01*
Y68396D01*
X34603D01*
Y68387D01*
X34607D01*
Y68377D01*
X34612D01*
Y68368D01*
X34617D01*
Y68363D01*
X34622D01*
Y68354D01*
X34626D01*
Y68344D01*
X34631D01*
Y68335D01*
X34636D01*
Y68330D01*
X34640D01*
Y68321D01*
X34645D01*
Y68311D01*
X34650D01*
Y68307D01*
X34654D01*
Y68297D01*
X34659D01*
Y68288D01*
X34664D01*
Y68278D01*
X34669D01*
Y68274D01*
X34673D01*
Y68264D01*
X34678D01*
Y68255D01*
X34683D01*
Y68245D01*
X34688D01*
Y68241D01*
X34692D01*
Y68231D01*
X34697D01*
Y68222D01*
X34702D01*
Y68217D01*
X34706D01*
Y68208D01*
X34711D01*
Y68198D01*
X34716D01*
Y68189D01*
X34720D01*
Y68184D01*
X34725D01*
Y68175D01*
X34730D01*
Y68165D01*
X34735D01*
Y68156D01*
X34739D01*
Y68151D01*
X34744D01*
Y68142D01*
X34749D01*
Y68132D01*
X34753D01*
Y68128D01*
X34758D01*
Y68118D01*
X34763D01*
Y68109D01*
X34768D01*
Y68099D01*
X34772D01*
Y68095D01*
X34777D01*
Y68085D01*
X34782D01*
Y68076D01*
X34786D01*
Y68066D01*
X34791D01*
Y68062D01*
X34796D01*
Y68052D01*
X34801D01*
Y68043D01*
X34805D01*
Y68038D01*
X34810D01*
Y68029D01*
X34815D01*
Y68019D01*
X34819D01*
Y68010D01*
X34824D01*
Y68005D01*
X34829D01*
Y67996D01*
X34834D01*
Y67986D01*
X34838D01*
Y67981D01*
X34843D01*
Y67972D01*
X34848D01*
Y67963D01*
X34852D01*
Y67953D01*
X34857D01*
Y67948D01*
X34862D01*
Y67939D01*
X34867D01*
Y67930D01*
X34871D01*
Y67920D01*
X34876D01*
Y67915D01*
X34881D01*
Y67906D01*
X34885D01*
Y67897D01*
X34890D01*
Y67892D01*
X34895D01*
Y67882D01*
X34900D01*
Y67873D01*
X34904D01*
Y67864D01*
X34909D01*
Y67859D01*
X34914D01*
Y67849D01*
X34918D01*
Y67840D01*
X34923D01*
Y67831D01*
X34928D01*
Y67826D01*
X34933D01*
Y67816D01*
X34937D01*
Y67807D01*
X34942D01*
Y67802D01*
X34947D01*
Y67793D01*
X34951D01*
Y67783D01*
X34956D01*
Y67774D01*
X34961D01*
Y67769D01*
X34966D01*
Y67760D01*
X34970D01*
Y67750D01*
X34975D01*
Y67741D01*
X34980D01*
Y67736D01*
X34984D01*
Y67727D01*
X34989D01*
Y67717D01*
X34994D01*
Y67713D01*
X34999D01*
Y67703D01*
X35003D01*
Y67694D01*
X35008D01*
Y67684D01*
X35013D01*
Y67680D01*
X35017D01*
Y67670D01*
X35022D01*
Y67661D01*
X35027D01*
Y67651D01*
X35032D01*
Y67647D01*
X35036D01*
Y67637D01*
X35041D01*
Y67628D01*
X35046D01*
Y67623D01*
X35050D01*
Y67614D01*
X35055D01*
Y67604D01*
X35060D01*
Y67595D01*
X35065D01*
Y67590D01*
X35069D01*
Y67581D01*
X35074D01*
Y67571D01*
X35079D01*
Y67567D01*
X35083D01*
Y67557D01*
X35088D01*
Y67548D01*
X35093D01*
Y67538D01*
X35098D01*
Y67534D01*
X35102D01*
Y67524D01*
X35107D01*
Y67515D01*
X35112D01*
Y67505D01*
X35116D01*
Y67501D01*
X35121D01*
Y67491D01*
X35126D01*
Y67482D01*
X35131D01*
Y67477D01*
X35135D01*
Y67468D01*
X35140D01*
Y67458D01*
X35145D01*
Y67449D01*
X35149D01*
Y67444D01*
X35154D01*
Y67435D01*
X35159D01*
Y67425D01*
X35164D01*
Y67416D01*
X35168D01*
Y67411D01*
X35173D01*
Y67402D01*
X35178D01*
Y67392D01*
X35182D01*
Y67388D01*
X35187D01*
Y67378D01*
X35192D01*
Y67369D01*
X35197D01*
Y67359D01*
X35201D01*
Y67355D01*
X35206D01*
Y67345D01*
X35211D01*
Y67336D01*
X35215D01*
Y67326D01*
X35220D01*
Y67322D01*
X35225D01*
Y67312D01*
X35230D01*
Y67303D01*
X35234D01*
Y67298D01*
X35239D01*
Y67289D01*
X35244D01*
Y67279D01*
X35248D01*
Y67270D01*
X35253D01*
Y67265D01*
X35258D01*
Y67256D01*
X35263D01*
Y67246D01*
X35267D01*
Y67237D01*
X35272D01*
Y67232D01*
X35277D01*
Y67223D01*
X35281D01*
Y67213D01*
X35286D01*
Y67208D01*
X35291D01*
Y67199D01*
X35296D01*
Y67190D01*
X35300D01*
Y67180D01*
X35305D01*
Y67175D01*
X35310D01*
Y67166D01*
X35314D01*
Y67157D01*
X35319D01*
Y67152D01*
X35324D01*
Y67142D01*
X35329D01*
Y67133D01*
X35333D01*
Y67124D01*
X35338D01*
Y67119D01*
X35343D01*
Y67109D01*
X35347D01*
Y67100D01*
X35352D01*
Y67091D01*
X35357D01*
Y67086D01*
X35362D01*
Y67076D01*
X35366D01*
Y67067D01*
X35371D01*
Y67062D01*
X35376D01*
Y67053D01*
X35380D01*
Y67043D01*
X35385D01*
Y67034D01*
X35390D01*
Y67029D01*
X35395D01*
Y67020D01*
X35399D01*
Y67010D01*
X35404D01*
Y67001D01*
X35409D01*
Y66996D01*
X35413D01*
Y66987D01*
X35418D01*
Y66977D01*
X35423D01*
Y66973D01*
X35428D01*
Y66963D01*
X35432D01*
Y66954D01*
X35437D01*
Y66944D01*
X35442D01*
Y66940D01*
X35446D01*
Y66930D01*
X35451D01*
Y66921D01*
X35456D01*
Y66911D01*
X35460D01*
Y66907D01*
X35465D01*
Y66897D01*
X35470D01*
Y66888D01*
X35475D01*
Y66883D01*
X35479D01*
Y66874D01*
X35484D01*
Y66864D01*
X35489D01*
Y66855D01*
X35493D01*
Y66850D01*
X35498D01*
Y66841D01*
X35503D01*
Y66831D01*
X35508D01*
Y66822D01*
X35512D01*
Y66817D01*
X35517D01*
Y66808D01*
X35522D01*
Y66798D01*
X35526D01*
Y66794D01*
X35531D01*
Y66784D01*
X35536D01*
Y66775D01*
X35541D01*
Y66765D01*
X35545D01*
Y66761D01*
X35550D01*
Y66751D01*
X35555D01*
Y66742D01*
X35559D01*
Y66737D01*
X35564D01*
Y66728D01*
X35569D01*
Y66718D01*
X35574D01*
Y66709D01*
X35578D01*
Y66704D01*
X35583D01*
Y66695D01*
X35588D01*
Y66685D01*
X35592D01*
Y66676D01*
X35597D01*
Y66671D01*
X35602D01*
Y66662D01*
X35607D01*
Y66652D01*
X35611D01*
Y66648D01*
X35616D01*
Y66638D01*
X35621D01*
Y66629D01*
X35625D01*
Y66619D01*
X35630D01*
Y66615D01*
X35635D01*
Y66605D01*
X35640D01*
Y66596D01*
X35644D01*
Y66586D01*
X35649D01*
Y66582D01*
X35654D01*
Y66572D01*
X35658D01*
Y66563D01*
X35663D01*
Y66558D01*
X35668D01*
Y66549D01*
X35673D01*
Y66539D01*
X35677D01*
Y66530D01*
X35682D01*
Y66525D01*
X35687D01*
Y66516D01*
X35691D01*
Y66506D01*
X35696D01*
Y66497D01*
X35701D01*
Y66492D01*
X35706D01*
Y66483D01*
X35710D01*
Y66473D01*
X35715D01*
Y66468D01*
X35720D01*
Y66459D01*
X35724D01*
Y66450D01*
X35729D01*
Y66440D01*
X35734D01*
Y66435D01*
X35739D01*
Y66426D01*
X35743D01*
Y66417D01*
X35748D01*
Y66407D01*
X35753D01*
Y66402D01*
X35757D01*
Y66393D01*
X35762D01*
Y66384D01*
X35767D01*
Y66379D01*
X35772D01*
Y66369D01*
X35776D01*
Y66360D01*
X35781D01*
Y66351D01*
X35786D01*
Y66346D01*
X35790D01*
Y66336D01*
X35795D01*
Y66327D01*
X35800D01*
Y66322D01*
X35805D01*
Y66313D01*
X35809D01*
Y66303D01*
X35814D01*
Y66294D01*
X35819D01*
Y66289D01*
X35823D01*
Y66280D01*
X35828D01*
Y66270D01*
X35833D01*
Y66261D01*
X35838D01*
Y66256D01*
X35842D01*
Y66247D01*
X35847D01*
Y66237D01*
X35852D01*
Y66233D01*
X35856D01*
Y66223D01*
X35861D01*
Y66214D01*
X35866D01*
Y66204D01*
X35871D01*
Y66200D01*
X35875D01*
Y66190D01*
X35880D01*
Y66181D01*
X35885D01*
Y66171D01*
X35889D01*
Y66167D01*
X35894D01*
Y66157D01*
X35899D01*
Y66148D01*
X35904D01*
Y66143D01*
X35908D01*
Y66134D01*
X35913D01*
Y66124D01*
X35918D01*
Y66115D01*
X35922D01*
Y66110D01*
X35927D01*
Y66101D01*
X35932D01*
Y66091D01*
X35937D01*
Y66082D01*
X35941D01*
Y66077D01*
X35946D01*
Y66068D01*
X35951D01*
Y66058D01*
X35955D01*
Y66054D01*
X35960D01*
Y66044D01*
X35965D01*
Y66035D01*
X35970D01*
Y66025D01*
X35974D01*
Y66021D01*
X35979D01*
Y66011D01*
X35984D01*
Y66002D01*
X35988D01*
Y65992D01*
X35993D01*
Y65988D01*
X35998D01*
Y65978D01*
X36003D01*
Y65969D01*
X36007D01*
Y65964D01*
X36012D01*
Y65955D01*
X36017D01*
Y65945D01*
X36021D01*
Y65936D01*
X36026D01*
Y65931D01*
X36031D01*
Y65922D01*
X36036D01*
Y65912D01*
X36040D01*
Y65908D01*
X36045D01*
Y65898D01*
X36050D01*
Y65889D01*
X36054D01*
Y65879D01*
X36059D01*
Y65875D01*
X36064D01*
Y65865D01*
X36069D01*
Y65856D01*
X36073D01*
Y65846D01*
X36078D01*
Y65842D01*
X36083D01*
Y65832D01*
X36087D01*
Y65823D01*
X36092D01*
Y65818D01*
X36097D01*
Y65809D01*
X36102D01*
Y65799D01*
X36106D01*
Y65790D01*
X36111D01*
Y65785D01*
X36116D01*
Y65776D01*
X36120D01*
Y65766D01*
X36125D01*
Y65757D01*
X36130D01*
Y65752D01*
X36135D01*
Y65743D01*
X36139D01*
Y65733D01*
X36144D01*
Y65728D01*
X36149D01*
Y65719D01*
X36153D01*
Y65710D01*
X36158D01*
Y65700D01*
X36163D01*
Y65695D01*
X36167D01*
Y65686D01*
X36172D01*
Y65677D01*
X36177D01*
Y65667D01*
X36182D01*
Y65662D01*
X36186D01*
Y65653D01*
X36191D01*
Y65644D01*
X36196D01*
Y65639D01*
X36201D01*
Y65629D01*
X36205D01*
Y65620D01*
X36210D01*
Y65611D01*
X36215D01*
Y65606D01*
X36219D01*
Y65596D01*
X36224D01*
Y65587D01*
X36229D01*
Y65578D01*
X36233D01*
Y65573D01*
X36238D01*
Y65563D01*
X36243D01*
Y65554D01*
X36248D01*
Y65549D01*
X36252D01*
Y65540D01*
X36257D01*
Y65530D01*
X36262D01*
Y65521D01*
X36266D01*
Y65516D01*
X36271D01*
Y65507D01*
X36276D01*
Y65497D01*
X36281D01*
Y65488D01*
X36285D01*
Y65483D01*
X36290D01*
Y65474D01*
X36295D01*
Y65464D01*
X36299D01*
Y65460D01*
X36304D01*
Y65450D01*
X36309D01*
Y65441D01*
X36314D01*
Y65431D01*
X36318D01*
Y65427D01*
X36323D01*
Y65417D01*
X36328D01*
Y65408D01*
X36332D01*
Y65403D01*
X36337D01*
Y65394D01*
X36342D01*
Y65384D01*
X36347D01*
Y65375D01*
X36351D01*
Y65370D01*
X36356D01*
Y65361D01*
X36361D01*
Y65351D01*
X36365D01*
Y65342D01*
X36370D01*
Y65337D01*
X36375D01*
Y65328D01*
X36380D01*
Y65318D01*
X36384D01*
Y65314D01*
X36389D01*
Y65304D01*
X36394D01*
Y65295D01*
X36398D01*
Y65285D01*
X36403D01*
Y65281D01*
X36408D01*
Y65271D01*
X36413D01*
Y65262D01*
X36417D01*
Y65252D01*
X36422D01*
Y65248D01*
X36427D01*
Y65238D01*
X36431D01*
Y65229D01*
X36436D01*
Y65224D01*
X36441D01*
Y65215D01*
X36446D01*
Y65205D01*
X36450D01*
Y65196D01*
X36455D01*
Y65191D01*
X36460D01*
Y65182D01*
X36464D01*
Y65172D01*
X36469D01*
Y65163D01*
X36474D01*
Y65158D01*
X36479D01*
Y65149D01*
X36483D01*
Y65139D01*
X36488D01*
Y65135D01*
X36493D01*
Y65125D01*
X36497D01*
Y65116D01*
X36502D01*
Y65106D01*
X36507D01*
Y65102D01*
X36512D01*
Y65092D01*
X36516D01*
Y65083D01*
X36521D01*
Y65073D01*
X36526D01*
Y65069D01*
X36530D01*
Y65059D01*
X36535D01*
Y65050D01*
X36540D01*
Y65045D01*
X36545D01*
Y65036D01*
X36549D01*
Y65026D01*
X36554D01*
Y65017D01*
X36559D01*
Y65012D01*
X36563D01*
Y65003D01*
X36568D01*
Y64993D01*
X36573D01*
Y64988D01*
X36578D01*
Y64979D01*
X36582D01*
Y64970D01*
X36587D01*
Y64960D01*
X36592D01*
Y64955D01*
X36596D01*
Y64946D01*
X36601D01*
Y64937D01*
X36606D01*
Y64927D01*
X36611D01*
Y64922D01*
X36615D01*
Y64913D01*
X36620D01*
Y64904D01*
X36625D01*
Y64899D01*
X36629D01*
Y64889D01*
X36634D01*
Y64880D01*
X36639D01*
Y64871D01*
X36644D01*
Y64866D01*
X36648D01*
Y64856D01*
X36653D01*
Y64847D01*
X36658D01*
Y64838D01*
X36662D01*
Y64833D01*
X36667D01*
Y64823D01*
X36672D01*
Y64814D01*
X36677D01*
Y64809D01*
X36681D01*
Y64800D01*
X36686D01*
Y64790D01*
X36691D01*
Y64781D01*
X36695D01*
Y64776D01*
X36700D01*
Y64767D01*
X36705D01*
Y64757D01*
X36710D01*
Y64748D01*
X36714D01*
Y64743D01*
X36719D01*
Y64734D01*
X36724D01*
Y64724D01*
X36728D01*
Y64720D01*
X36733D01*
Y64710D01*
X36738D01*
Y64701D01*
X36743D01*
Y64691D01*
X36747D01*
Y64687D01*
X36752D01*
Y64677D01*
X36757D01*
Y64668D01*
X36761D01*
Y64658D01*
X36766D01*
Y64654D01*
X36771D01*
Y64644D01*
X30351D01*
Y64654D01*
X30356D01*
Y64658D01*
X30361D01*
Y64668D01*
X30365D01*
Y64677D01*
X30370D01*
Y64687D01*
X30375D01*
Y64691D01*
X30379D01*
Y64701D01*
X30384D01*
Y64710D01*
X30389D01*
Y64715D01*
X30394D01*
Y64724D01*
X30398D01*
Y64734D01*
X30403D01*
Y64743D01*
X30408D01*
Y64748D01*
X30412D01*
Y64757D01*
X30417D01*
Y64767D01*
X30422D01*
Y64776D01*
X30427D01*
Y64781D01*
X30431D01*
Y64790D01*
X30436D01*
Y64800D01*
X30441D01*
Y64805D01*
X30445D01*
Y64814D01*
X30450D01*
Y64823D01*
X30455D01*
Y64833D01*
X30460D01*
Y64838D01*
X30464D01*
Y64847D01*
X30469D01*
Y64856D01*
X30474D01*
Y64866D01*
X30478D01*
Y64871D01*
X30483D01*
Y64880D01*
X30488D01*
Y64889D01*
X30493D01*
Y64894D01*
X30497D01*
Y64904D01*
X30502D01*
Y64913D01*
X30507D01*
Y64922D01*
X30511D01*
Y64927D01*
X30516D01*
Y64937D01*
X30521D01*
Y64946D01*
X30526D01*
Y64955D01*
X30530D01*
Y64960D01*
X30535D01*
Y64970D01*
X30540D01*
Y64979D01*
X30544D01*
Y64984D01*
X30549D01*
Y64993D01*
X30554D01*
Y65003D01*
X30559D01*
Y65012D01*
X30563D01*
Y65017D01*
X30568D01*
Y65026D01*
X30573D01*
Y65036D01*
X30577D01*
Y65040D01*
X30582D01*
Y65050D01*
X30587D01*
Y65059D01*
X30592D01*
Y65069D01*
X30596D01*
Y65073D01*
X30601D01*
Y65083D01*
X30606D01*
Y65092D01*
X30610D01*
Y65102D01*
X30615D01*
Y65106D01*
X30620D01*
Y65116D01*
X30625D01*
Y65125D01*
X30629D01*
Y65130D01*
X30634D01*
Y65139D01*
X30639D01*
Y65149D01*
X30643D01*
Y65158D01*
X30648D01*
Y65163D01*
X30653D01*
Y65172D01*
X30658D01*
Y65182D01*
X30662D01*
Y65191D01*
X30667D01*
Y65196D01*
X30672D01*
Y65205D01*
X30676D01*
Y65215D01*
X30681D01*
Y65219D01*
X30686D01*
Y65229D01*
X30691D01*
Y65238D01*
X30695D01*
Y65248D01*
X30700D01*
Y65252D01*
X30705D01*
Y65262D01*
X30709D01*
Y65271D01*
X30714D01*
Y65281D01*
X30719D01*
Y65285D01*
X30724D01*
Y65295D01*
X30728D01*
Y65304D01*
X30733D01*
Y65309D01*
X30738D01*
Y65318D01*
X30742D01*
Y65328D01*
X30747D01*
Y65337D01*
X30752D01*
Y65342D01*
X30757D01*
Y65351D01*
X30761D01*
Y65361D01*
X30766D01*
Y65370D01*
X30771D01*
Y65375D01*
X30775D01*
Y65384D01*
X30780D01*
Y65394D01*
X30785D01*
Y65398D01*
X30790D01*
Y65408D01*
X30794D01*
Y65417D01*
X30799D01*
Y65427D01*
X30804D01*
Y65431D01*
X30808D01*
Y65441D01*
X30813D01*
Y65450D01*
X30818D01*
Y65460D01*
X30823D01*
Y65464D01*
X30827D01*
Y65474D01*
X30832D01*
Y65483D01*
X30837D01*
Y65488D01*
X30841D01*
Y65497D01*
X30846D01*
Y65507D01*
X30851D01*
Y65516D01*
X30855D01*
Y65521D01*
X30860D01*
Y65530D01*
X30865D01*
Y65540D01*
X30870D01*
Y65545D01*
X30874D01*
Y65554D01*
X30879D01*
Y65563D01*
X30884D01*
Y65573D01*
X30889D01*
Y65578D01*
X30893D01*
Y65587D01*
X30898D01*
Y65596D01*
X30903D01*
Y65606D01*
X30907D01*
Y65611D01*
X30912D01*
Y65620D01*
X30917D01*
Y65629D01*
X30921D01*
Y65634D01*
X30926D01*
Y65644D01*
X30931D01*
Y65653D01*
X30936D01*
Y65662D01*
X30940D01*
Y65667D01*
X30945D01*
Y65677D01*
X30950D01*
Y65686D01*
X30954D01*
Y65695D01*
X30959D01*
Y65700D01*
X30964D01*
Y65710D01*
X30969D01*
Y65719D01*
X30973D01*
Y65724D01*
X30978D01*
Y65733D01*
X30983D01*
Y65743D01*
X30987D01*
Y65752D01*
X30992D01*
Y65757D01*
X30997D01*
Y65766D01*
X31002D01*
Y65776D01*
X31006D01*
Y65785D01*
X31011D01*
Y65790D01*
X31016D01*
Y65799D01*
X31020D01*
Y65809D01*
X31025D01*
Y65813D01*
X31030D01*
Y65823D01*
X31035D01*
Y65832D01*
X31039D01*
Y65842D01*
X31044D01*
Y65846D01*
X31049D01*
Y65856D01*
X31053D01*
Y65865D01*
X31058D01*
Y65875D01*
X31063D01*
Y65879D01*
X31068D01*
Y65889D01*
X31072D01*
Y65898D01*
X31077D01*
Y65903D01*
X31082D01*
Y65912D01*
X31086D01*
Y65922D01*
X31091D01*
Y65931D01*
X31096D01*
Y65936D01*
X31101D01*
Y65945D01*
X31105D01*
Y65955D01*
X31110D01*
Y65959D01*
X31115D01*
Y65969D01*
X31119D01*
Y65978D01*
X31124D01*
Y65988D01*
X31129D01*
Y65992D01*
X31134D01*
Y66002D01*
X31138D01*
Y66011D01*
X31143D01*
Y66021D01*
X31148D01*
Y66025D01*
X31152D01*
Y66035D01*
X31157D01*
Y66044D01*
X31162D01*
Y66049D01*
X31167D01*
Y66058D01*
X31171D01*
Y66068D01*
X31176D01*
Y66077D01*
X31181D01*
Y66082D01*
X31185D01*
Y66091D01*
X31190D01*
Y66101D01*
X31195D01*
Y66110D01*
X31200D01*
Y66115D01*
X31204D01*
Y66124D01*
X31209D01*
Y66134D01*
X31214D01*
Y66138D01*
X31218D01*
Y66148D01*
X31223D01*
Y66157D01*
X31228D01*
Y66167D01*
X31233D01*
Y66171D01*
X31237D01*
Y66181D01*
X31242D01*
Y66190D01*
X31247D01*
Y66200D01*
X31251D01*
Y66204D01*
X31256D01*
Y66214D01*
X31261D01*
Y66223D01*
X31266D01*
Y66228D01*
X31270D01*
Y66237D01*
X31275D01*
Y66247D01*
X31280D01*
Y66256D01*
X31284D01*
Y66261D01*
X31289D01*
Y66270D01*
X31294D01*
Y66280D01*
X31299D01*
Y66289D01*
X31303D01*
Y66294D01*
X31308D01*
Y66303D01*
X31313D01*
Y66313D01*
X31317D01*
Y66318D01*
X31322D01*
Y66327D01*
X31327D01*
Y66336D01*
X31332D01*
Y66346D01*
X31336D01*
Y66351D01*
X31341D01*
Y66360D01*
X31346D01*
Y66369D01*
X31350D01*
Y66379D01*
X31355D01*
Y66384D01*
X31360D01*
Y66393D01*
X31365D01*
Y66402D01*
X31369D01*
Y66407D01*
X31374D01*
Y66417D01*
X31379D01*
Y66426D01*
X31383D01*
Y66435D01*
X31388D01*
Y66440D01*
X31393D01*
Y66450D01*
X31398D01*
Y66459D01*
X31402D01*
Y66464D01*
X31407D01*
Y66473D01*
X31412D01*
Y66483D01*
X31416D01*
Y66492D01*
X31421D01*
Y66497D01*
X31426D01*
Y66506D01*
X31431D01*
Y66516D01*
X31435D01*
Y66525D01*
X31440D01*
Y66530D01*
X31445D01*
Y66539D01*
X31449D01*
Y66549D01*
X31454D01*
Y66553D01*
X31459D01*
Y66563D01*
X31464D01*
Y66572D01*
X31468D01*
Y66582D01*
X31473D01*
Y66586D01*
X31478D01*
Y66596D01*
X31482D01*
Y66605D01*
X31487D01*
Y66615D01*
X31492D01*
Y66619D01*
X31497D01*
Y66629D01*
X31501D01*
Y66638D01*
X31506D01*
Y66643D01*
X31511D01*
Y66652D01*
X31515D01*
Y66662D01*
X31520D01*
Y66671D01*
X31525D01*
Y66676D01*
X31530D01*
Y66685D01*
X31534D01*
Y66695D01*
X31539D01*
Y66704D01*
X31544D01*
Y66709D01*
X31548D01*
Y66718D01*
X31553D01*
Y66728D01*
X31558D01*
Y66732D01*
X31563D01*
Y66742D01*
X31567D01*
Y66751D01*
X31572D01*
Y66761D01*
X31577D01*
Y66765D01*
X31581D01*
Y66775D01*
X31586D01*
Y66784D01*
X31591D01*
Y66794D01*
X31596D01*
Y66798D01*
X31600D01*
Y66808D01*
X31605D01*
Y66817D01*
X31610D01*
Y66822D01*
X31614D01*
Y66831D01*
X31619D01*
Y66841D01*
X31624D01*
Y66850D01*
X31628D01*
Y66855D01*
X31633D01*
Y66864D01*
X31638D01*
Y66874D01*
X31643D01*
Y66883D01*
X31647D01*
Y66888D01*
X31652D01*
Y66897D01*
X31657D01*
Y66907D01*
X31661D01*
Y66911D01*
X31666D01*
Y66921D01*
X31671D01*
Y66930D01*
X31676D01*
Y66940D01*
X31680D01*
Y66944D01*
X31685D01*
Y66954D01*
X31690D01*
Y66963D01*
X31694D01*
Y66968D01*
X31699D01*
Y66977D01*
X31704D01*
Y66987D01*
X31709D01*
Y66996D01*
X31713D01*
Y67001D01*
X31718D01*
Y67010D01*
X31723D01*
Y67020D01*
X31727D01*
Y67029D01*
X31732D01*
Y67034D01*
X31737D01*
Y67043D01*
X31742D01*
Y67053D01*
X31746D01*
Y67058D01*
X31751D01*
Y67067D01*
X31756D01*
Y67076D01*
X31760D01*
Y67086D01*
X31765D01*
Y67091D01*
X31770D01*
Y67100D01*
X31775D01*
Y67109D01*
X31779D01*
Y67119D01*
X31784D01*
Y67124D01*
X31789D01*
Y67133D01*
X31793D01*
Y67142D01*
X31798D01*
Y67147D01*
X31803D01*
Y67157D01*
X31808D01*
Y67166D01*
X31812D01*
Y67175D01*
X31817D01*
Y67180D01*
X31822D01*
Y67190D01*
X31826D01*
Y67199D01*
X31831D01*
Y67208D01*
X31836D01*
Y67213D01*
X31841D01*
Y67223D01*
X31845D01*
Y67232D01*
X31850D01*
Y67237D01*
X31855D01*
Y67246D01*
X31859D01*
Y67256D01*
X31864D01*
Y67265D01*
X31869D01*
Y67270D01*
X31874D01*
Y67279D01*
X31878D01*
Y67289D01*
X31883D01*
Y67298D01*
X31888D01*
Y67303D01*
X31892D01*
Y67312D01*
X31897D01*
Y67322D01*
X31902D01*
Y67326D01*
X31907D01*
Y67336D01*
X31911D01*
Y67345D01*
X31916D01*
Y67355D01*
X31921D01*
Y67359D01*
X31925D01*
Y67369D01*
X31930D01*
Y67378D01*
X31935D01*
Y67383D01*
X31940D01*
Y67392D01*
X31944D01*
Y67402D01*
X31949D01*
Y67411D01*
X31954D01*
Y67416D01*
X31958D01*
Y67425D01*
X31963D01*
Y67435D01*
X31968D01*
Y67444D01*
X31973D01*
Y67449D01*
X31977D01*
Y67458D01*
X31982D01*
Y67468D01*
X31987D01*
Y67472D01*
X31991D01*
Y67482D01*
X31996D01*
Y67491D01*
X32001D01*
Y67501D01*
X32006D01*
Y67505D01*
X32010D01*
Y67515D01*
X32015D01*
Y67524D01*
X32020D01*
Y67534D01*
X32024D01*
Y67538D01*
X32029D01*
Y67548D01*
X32034D01*
Y67557D01*
X32039D01*
Y67562D01*
X32043D01*
Y67571D01*
X32048D01*
Y67581D01*
X32053D01*
Y67590D01*
X32057D01*
Y67595D01*
X32062D01*
Y67604D01*
X32067D01*
Y67614D01*
X32072D01*
Y67623D01*
X32076D01*
Y67628D01*
X32081D01*
Y67637D01*
X32086D01*
Y67647D01*
X32090D01*
Y67651D01*
X32095D01*
Y67661D01*
X32100D01*
Y67670D01*
X32105D01*
Y67680D01*
X32109D01*
Y67684D01*
X32114D01*
Y67694D01*
X32119D01*
Y67703D01*
X32123D01*
Y67713D01*
X32128D01*
Y67717D01*
X32133D01*
Y67727D01*
X32138D01*
Y67736D01*
X32142D01*
Y67741D01*
X32147D01*
Y67750D01*
X32152D01*
Y67760D01*
X32156D01*
Y67769D01*
X32161D01*
Y67774D01*
X32166D01*
Y67783D01*
X32171D01*
Y67793D01*
X32175D01*
Y67802D01*
X32180D01*
Y67807D01*
X32185D01*
Y67816D01*
X32189D01*
Y67826D01*
X32194D01*
Y67831D01*
X32199D01*
Y67840D01*
X32204D01*
Y67849D01*
X32208D01*
Y67859D01*
X32213D01*
Y67864D01*
X32218D01*
Y67873D01*
X32222D01*
Y67882D01*
X32227D01*
Y67887D01*
X32232D01*
Y67897D01*
X32237D01*
Y67906D01*
X32241D01*
Y67915D01*
X32246D01*
Y67920D01*
X32251D01*
Y67930D01*
X32255D01*
Y67939D01*
X32260D01*
Y67948D01*
X32265D01*
Y67953D01*
X32270D01*
Y67963D01*
X32274D01*
Y67972D01*
X32279D01*
Y67977D01*
X32284D01*
Y67986D01*
X32288D01*
Y67996D01*
X32293D01*
Y68005D01*
X32298D01*
Y68010D01*
X32303D01*
Y68019D01*
X32307D01*
Y68029D01*
X32312D01*
Y68038D01*
X32317D01*
Y68043D01*
X32321D01*
Y68052D01*
X32326D01*
Y68062D01*
X32331D01*
Y68066D01*
X32336D01*
Y68076D01*
X32340D01*
Y68085D01*
X32345D01*
Y68095D01*
X32350D01*
Y68099D01*
X32354D01*
Y68109D01*
X32359D01*
Y68118D01*
X32364D01*
Y68128D01*
X32368D01*
Y68132D01*
X32373D01*
Y68142D01*
X32378D01*
Y68151D01*
X32383D01*
Y68156D01*
X32387D01*
Y68165D01*
X32392D01*
Y68175D01*
X32397D01*
Y68184D01*
X32402D01*
Y68189D01*
X32406D01*
Y68198D01*
X32411D01*
Y68208D01*
X32416D01*
Y68217D01*
X32420D01*
Y68222D01*
X32425D01*
Y68231D01*
X32430D01*
Y68241D01*
X32434D01*
Y68245D01*
X32439D01*
Y68255D01*
X32444D01*
Y68264D01*
X32449D01*
Y68274D01*
X32453D01*
Y68278D01*
X32458D01*
Y68288D01*
X32463D01*
Y68297D01*
X32467D01*
Y68302D01*
X32472D01*
Y68311D01*
X32477D01*
Y68321D01*
X32482D01*
Y68330D01*
X32486D01*
Y68335D01*
X32491D01*
Y68344D01*
X32496D01*
Y68354D01*
X32500D01*
Y68363D01*
X32505D01*
Y68368D01*
X32510D01*
Y68377D01*
X32515D01*
Y68387D01*
X32519D01*
Y68391D01*
X32524D01*
Y68401D01*
X32529D01*
Y68410D01*
X32533D01*
Y68420D01*
X32538D01*
Y68424D01*
X32543D01*
Y68434D01*
X32548D01*
Y68443D01*
X32552D01*
Y68453D01*
X32557D01*
Y68457D01*
X32562D01*
Y68467D01*
X32566D01*
Y68476D01*
X32571D01*
Y68481D01*
X32576D01*
Y68490D01*
X32581D01*
Y68500D01*
X32585D01*
Y68509D01*
X32590D01*
Y68514D01*
X32595D01*
Y68523D01*
X32599D01*
Y68533D01*
X32604D01*
Y68542D01*
X32609D01*
Y68547D01*
X32614D01*
Y68556D01*
X32618D01*
Y68566D01*
X32623D01*
Y68571D01*
X32628D01*
Y68580D01*
X32632D01*
Y68589D01*
X32637D01*
Y68599D01*
X32642D01*
Y68604D01*
X32647D01*
Y68613D01*
X32651D01*
Y68622D01*
X32656D01*
Y68632D01*
X32661D01*
Y68637D01*
X32665D01*
Y68646D01*
X32670D01*
Y68655D01*
X32675D01*
Y68660D01*
X32680D01*
Y68670D01*
X32684D01*
Y68679D01*
X32689D01*
Y68688D01*
X32694D01*
Y68693D01*
X32698D01*
Y68703D01*
X32703D01*
Y68712D01*
X32708D01*
Y68721D01*
X32713D01*
Y68726D01*
X32717D01*
Y68736D01*
X32722D01*
Y68745D01*
X32727D01*
Y68750D01*
X32731D01*
Y68759D01*
X32736D01*
Y68769D01*
X32741D01*
Y68778D01*
X32746D01*
Y68783D01*
X32750D01*
Y68792D01*
X32755D01*
Y68802D01*
X32760D01*
Y68806D01*
X32764D01*
Y68816D01*
X32769D01*
Y68825D01*
X32774D01*
Y68835D01*
X32779D01*
Y68839D01*
X32783D01*
Y68849D01*
X32788D01*
Y68858D01*
X32793D01*
Y68868D01*
X32797D01*
Y68872D01*
X32802D01*
Y68882D01*
X32807D01*
Y68891D01*
X32812D01*
Y68896D01*
X32816D01*
Y68905D01*
X32821D01*
Y68915D01*
X32826D01*
Y68924D01*
X32830D01*
Y68929D01*
X32835D01*
Y68938D01*
X32840D01*
Y68948D01*
X32845D01*
Y68957D01*
X32849D01*
Y68962D01*
X32854D01*
Y68971D01*
X32859D01*
Y68981D01*
X32863D01*
Y68985D01*
X32868D01*
Y68995D01*
X32873D01*
Y69004D01*
X32878D01*
Y69014D01*
X32882D01*
Y69018D01*
X32887D01*
Y69028D01*
X32892D01*
Y69037D01*
X32896D01*
Y69047D01*
X32901D01*
Y69051D01*
X32906D01*
Y69061D01*
X32911D01*
Y69070D01*
X32915D01*
Y69075D01*
X32920D01*
Y69084D01*
X32925D01*
Y69094D01*
X32929D01*
Y69103D01*
X32934D01*
Y69108D01*
X32939D01*
Y69117D01*
X32944D01*
Y69127D01*
X32948D01*
Y69136D01*
X32953D01*
Y69141D01*
X32958D01*
Y69150D01*
X32962D01*
Y69160D01*
X32967D01*
Y69164D01*
X32972D01*
Y69174D01*
X32977D01*
Y69183D01*
X32981D01*
Y69193D01*
X32986D01*
Y69197D01*
X32991D01*
Y69207D01*
X32995D01*
Y69216D01*
X33000D01*
Y69226D01*
X33005D01*
Y69230D01*
X33010D01*
Y69240D01*
X33014D01*
Y69249D01*
X33019D01*
Y69254D01*
X33024D01*
Y69263D01*
X33028D01*
Y69273D01*
X33033D01*
Y69282D01*
X33038D01*
Y69287D01*
X33043D01*
Y69296D01*
X33047D01*
Y69306D01*
X33052D01*
Y69311D01*
X33057D01*
Y69320D01*
X33061D01*
Y69329D01*
X33066D01*
Y69339D01*
X33071D01*
Y69344D01*
X33076D01*
Y69353D01*
X33080D01*
Y69362D01*
X33085D01*
Y69372D01*
X33090D01*
Y69377D01*
X33094D01*
Y69386D01*
X33099D01*
Y69395D01*
X33104D01*
Y69400D01*
X33109D01*
Y69410D01*
X33113D01*
Y69419D01*
X33118D01*
Y69428D01*
X33123D01*
Y69433D01*
X33127D01*
Y69443D01*
X33132D01*
Y69452D01*
X33137D01*
Y69461D01*
X33141D01*
Y69466D01*
X33146D01*
Y69476D01*
X33151D01*
Y69485D01*
X33156D01*
Y69490D01*
X33160D01*
Y69499D01*
X33165D01*
Y69509D01*
X33170D01*
Y69518D01*
X33174D01*
Y69523D01*
X33179D01*
Y69532D01*
X33184D01*
Y69542D01*
X33189D01*
Y69551D01*
X33193D01*
Y69556D01*
X33198D01*
Y69565D01*
X33203D01*
Y69575D01*
X33207D01*
Y69579D01*
X33212D01*
Y69589D01*
X33217D01*
Y69598D01*
X33222D01*
Y69608D01*
X33226D01*
Y69612D01*
X33231D01*
Y69622D01*
X33236D01*
Y69631D01*
X33240D01*
Y69641D01*
X33245D01*
Y69645D01*
X33250D01*
Y69655D01*
X33255D01*
Y69664D01*
X33259D01*
Y69669D01*
X33264D01*
Y69678D01*
X33269D01*
Y69688D01*
X33273D01*
Y69697D01*
X33278D01*
Y69702D01*
X33283D01*
Y69711D01*
X33288D01*
Y69721D01*
X33292D01*
Y69725D01*
X33297D01*
Y69735D01*
X33302D01*
Y69744D01*
X33306D01*
Y69754D01*
X33311D01*
Y69758D01*
X33316D01*
Y69768D01*
X33321D01*
Y69777D01*
X33325D01*
Y69787D01*
X33330D01*
Y69791D01*
X33335D01*
Y69801D01*
X33339D01*
Y69810D01*
X33344D01*
Y69815D01*
X33349D01*
Y69824D01*
X33354D01*
Y69834D01*
X33358D01*
Y69843D01*
X33363D01*
Y69848D01*
X33368D01*
Y69857D01*
X33372D01*
Y69867D01*
X33377D01*
Y69876D01*
X33382D01*
Y69881D01*
X33387D01*
Y69890D01*
X33391D01*
Y69900D01*
X33396D01*
Y69904D01*
X33401D01*
Y69914D01*
X33405D01*
Y69923D01*
X33410D01*
Y69933D01*
X33415D01*
Y69937D01*
X33420D01*
Y69947D01*
X33424D01*
Y69956D01*
X33429D01*
Y69966D01*
X33434D01*
Y69970D01*
X33438D01*
Y69980D01*
X33443D01*
Y69989D01*
X33448D01*
Y69994D01*
X33453D01*
Y70003D01*
X33457D01*
Y70013D01*
X33462D01*
Y70022D01*
X33467D01*
Y70027D01*
X33471D01*
Y70036D01*
X33476D01*
Y70046D01*
X33481D01*
Y70055D01*
X33486D01*
Y70060D01*
X33490D01*
Y70069D01*
X33495D01*
Y70079D01*
X33500D01*
Y70084D01*
X33504D01*
Y70093D01*
X33509D01*
Y70102D01*
X33514D01*
Y70112D01*
X33519D01*
Y70117D01*
X33523D01*
Y70126D01*
X33528D01*
Y70135D01*
X33533D01*
Y70145D01*
X33537D01*
Y70150D01*
X33542D01*
Y70159D01*
X33547D01*
Y70168D01*
X33552D01*
Y70173D01*
X33556D01*
Y70183D01*
X33566D01*
Y70173D01*
D02*
G37*
D11*
X53114Y2795D02*
G03*
X53114Y2795I-99J0D01*
G01*
X71003D02*
G03*
X71003Y2795I-99J0D01*
G01*
X61478D02*
G03*
X61478Y2795I-99J0D01*
G01*
X44750D02*
G03*
X44750Y2795I-99J0D01*
G01*
X79893D02*
G03*
X79893Y2795I-99J0D01*
G01*
X25809Y61864D02*
X69116D01*
X25809Y75072D02*
X69116D01*
Y61864D02*
Y75072D01*
X25809Y61864D02*
Y75072D01*
X41973Y70866D02*
X62421D01*
X52776Y4800D02*
Y9800D01*
X54515Y4305D02*
X56951D01*
X54459Y10295D02*
X57050D01*
X58766Y4800D02*
Y9800D01*
X11030Y10004D02*
Y25004D01*
X32530D01*
Y45004D01*
X6030Y10004D02*
X11030D01*
X6030D02*
Y25004D01*
X4030D02*
X6030D01*
X4030D02*
Y45004D01*
X32530D01*
X30398Y11729D02*
X42640D01*
X13240D02*
X25482D01*
X13240Y10697D02*
Y11729D01*
X42640Y10697D02*
Y11729D01*
X61005Y13217D02*
X67860D01*
X43682D02*
X50537D01*
X43682Y12185D02*
Y13217D01*
X67860Y12185D02*
Y13217D01*
X70374Y21717D02*
Y22749D01*
X73898D01*
X85852Y21717D02*
Y22749D01*
X82328D02*
X85852D01*
X70665Y4800D02*
Y9800D01*
X72404Y4305D02*
X74840D01*
X72348Y10295D02*
X74939D01*
X76655Y4800D02*
Y9800D01*
X129100Y24004D02*
Y50004D01*
X79100Y29004D02*
X87100D01*
Y24004D02*
Y29004D01*
X79100Y45004D02*
X87100D01*
Y50004D01*
X79100Y44624D02*
Y45004D01*
Y29004D02*
Y29384D01*
X87100Y50004D02*
X129100D01*
X87100Y24004D02*
X129100D01*
X61140Y4800D02*
Y9800D01*
X62879Y4305D02*
X65315D01*
X62823Y10295D02*
X65414D01*
X67130Y4800D02*
Y9800D01*
X44412Y4800D02*
Y9800D01*
X46151Y4305D02*
X48587D01*
X46095Y10295D02*
X48686D01*
X50402Y4800D02*
Y9800D01*
X79555Y4800D02*
Y9800D01*
X81294Y4305D02*
X83730D01*
X81238Y10295D02*
X83829D01*
X85545Y4800D02*
Y9800D01*
X40609Y69725D02*
X40392Y69942D01*
X39959D01*
X39743Y69725D01*
Y69509D01*
X39959Y69292D01*
X40392D01*
X40609Y69075D01*
Y68859D01*
X40392Y68642D01*
X39959D01*
X39743Y68859D01*
X41692Y68642D02*
X41259D01*
X41042Y68859D01*
Y69292D01*
X41259Y69509D01*
X41692D01*
X41909Y69292D01*
Y69075D01*
X41042D01*
X42342Y68642D02*
Y69509D01*
X42992D01*
X43208Y69292D01*
Y68642D01*
X43858Y69725D02*
Y69509D01*
X43641D01*
X44075D01*
X43858D01*
Y68859D01*
X44075Y68642D01*
X44724Y69509D02*
Y68642D01*
Y69075D01*
X44941Y69292D01*
X45158Y69509D01*
X45374D01*
X46024D02*
Y68859D01*
X46241Y68642D01*
X46890D01*
Y68426D01*
X46674Y68209D01*
X46457D01*
X46890Y68642D02*
Y69509D01*
X49490Y69725D02*
X49273Y69942D01*
X48840D01*
X48623Y69725D01*
Y68859D01*
X48840Y68642D01*
X49273D01*
X49490Y68859D01*
X50139Y68642D02*
X50573D01*
X50789Y68859D01*
Y69292D01*
X50573Y69509D01*
X50139D01*
X49923Y69292D01*
Y68859D01*
X50139Y68642D01*
X51222D02*
Y69509D01*
X51872D01*
X52089Y69292D01*
Y68642D01*
X52738Y69725D02*
Y69509D01*
X52522D01*
X52955D01*
X52738D01*
Y68859D01*
X52955Y68642D01*
X53605Y69509D02*
Y68642D01*
Y69075D01*
X53821Y69292D01*
X54038Y69509D01*
X54255D01*
X55121Y68642D02*
X55554D01*
X55771Y68859D01*
Y69292D01*
X55554Y69509D01*
X55121D01*
X54904Y69292D01*
Y68859D01*
X55121Y68642D01*
X56204D02*
X56637D01*
X56421D01*
Y69942D01*
X56204D01*
X58587D02*
Y68642D01*
X59236D01*
X59453Y68859D01*
Y69075D01*
X59236Y69292D01*
X58587D01*
X59236D01*
X59453Y69509D01*
Y69725D01*
X59236Y69942D01*
X58587D01*
X60103Y68642D02*
X60536D01*
X60753Y68859D01*
Y69292D01*
X60536Y69509D01*
X60103D01*
X59886Y69292D01*
Y68859D01*
X60103Y68642D01*
X61402Y69509D02*
X61836D01*
X62052Y69292D01*
Y68642D01*
X61402D01*
X61186Y68859D01*
X61402Y69075D01*
X62052D01*
X62485Y69509D02*
Y68642D01*
Y69075D01*
X62702Y69292D01*
X62919Y69509D01*
X63135D01*
X64651Y69942D02*
Y68642D01*
X64002D01*
X63785Y68859D01*
Y69292D01*
X64002Y69509D01*
X64651D01*
X48082Y66040D02*
Y67340D01*
X48731D01*
X48948Y67123D01*
Y66690D01*
X48731Y66473D01*
X48082D01*
X48515D02*
X48948Y66040D01*
X50031D02*
X49598D01*
X49381Y66257D01*
Y66690D01*
X49598Y66906D01*
X50031D01*
X50248Y66690D01*
Y66473D01*
X49381D01*
X50681Y66906D02*
X51114Y66040D01*
X51547Y66906D01*
X53280Y66040D02*
X53713D01*
X53497D01*
Y67340D01*
X53280Y67123D01*
X54363Y66040D02*
Y66257D01*
X54580D01*
Y66040D01*
X54363D01*
X55446Y67123D02*
X55663Y67340D01*
X56096D01*
X56312Y67123D01*
Y66257D01*
X56096Y66040D01*
X55663D01*
X55446Y66257D01*
Y67123D01*
X9026Y77440D02*
X9534D01*
X9280D01*
Y78964D01*
X9026Y78710D01*
X25076Y77440D02*
X24060D01*
X25076Y78456D01*
Y78710D01*
X24822Y78964D01*
X24314D01*
X24060Y78710D01*
X39348D02*
X39602Y78964D01*
X40110D01*
X40364Y78710D01*
Y78456D01*
X40110Y78202D01*
X39856D01*
X40110D01*
X40364Y77948D01*
Y77694D01*
X40110Y77440D01*
X39602D01*
X39348Y77694D01*
X55398Y77440D02*
Y78964D01*
X54636Y78202D01*
X55652D01*
X70940Y78964D02*
X69924D01*
Y78202D01*
X70432Y78456D01*
X70686D01*
X70940Y78202D01*
Y77694D01*
X70686Y77440D01*
X70178D01*
X69924Y77694D01*
X86228Y78964D02*
X85720Y78710D01*
X85212Y78202D01*
Y77694D01*
X85466Y77440D01*
X85974D01*
X86228Y77694D01*
Y77948D01*
X85974Y78202D01*
X85212D01*
X49814Y63119D02*
Y64419D01*
X50464D01*
X50681Y64202D01*
Y63769D01*
X50464Y63552D01*
X49814D01*
X50248D02*
X50681Y63119D01*
X51114D02*
Y63985D01*
X51547Y64419D01*
X51980Y63985D01*
Y63119D01*
Y63769D01*
X51114D01*
X52414Y64419D02*
Y63119D01*
X53063D01*
X53280Y63336D01*
Y64202D01*
X53063Y64419D01*
X52414D01*
X53713Y63119D02*
Y64419D01*
X54146Y63985D01*
X54580Y64419D01*
Y63119D01*
X44291Y73107D02*
X44724D01*
X44508D01*
Y71807D01*
X44291D01*
X44724D01*
X45374Y72674D02*
Y71807D01*
Y72240D01*
X45591Y72457D01*
X45807Y72674D01*
X46024D01*
X46890Y71807D02*
X47324D01*
X47540Y72024D01*
Y72457D01*
X47324Y72674D01*
X46890D01*
X46674Y72457D01*
Y72024D01*
X46890Y71807D01*
X47973D02*
Y72674D01*
X48623D01*
X48840Y72457D01*
Y71807D01*
X50573Y73107D02*
X51439D01*
X51006D01*
Y71807D01*
X51872Y72674D02*
Y71807D01*
Y72240D01*
X52089Y72457D01*
X52305Y72674D01*
X52522D01*
X53172Y71807D02*
X53605D01*
X53388D01*
Y72674D01*
X53172D01*
X54471D02*
X54904D01*
X55121Y72457D01*
Y71807D01*
X54471D01*
X54255Y72024D01*
X54471Y72240D01*
X55121D01*
X55554Y71807D02*
Y72674D01*
X56204D01*
X56421Y72457D01*
Y71807D01*
X57287Y71374D02*
X57504D01*
X57720Y71591D01*
Y72674D01*
X57070D01*
X56854Y72457D01*
Y72024D01*
X57070Y71807D01*
X57720D01*
X58153D02*
X58587D01*
X58370D01*
Y73107D01*
X58153D01*
X59886Y71807D02*
X59453D01*
X59236Y72024D01*
Y72457D01*
X59453Y72674D01*
X59886D01*
X60103Y72457D01*
Y72240D01*
X59236D01*
X11172Y25597D02*
Y27121D01*
X11934D01*
X12188Y26867D01*
Y26359D01*
X11934Y26105D01*
X11172D01*
X12696Y25597D02*
Y26613D01*
X13204Y27121D01*
X13712Y26613D01*
Y25597D01*
Y26359D01*
X12696D01*
X14219Y25597D02*
Y27121D01*
X14727Y26613D01*
X15235Y27121D01*
Y25597D01*
X15743Y26867D02*
X15997Y27121D01*
X16505D01*
X16759Y26867D01*
Y26613D01*
X16505Y26359D01*
X16759Y26105D01*
Y25851D01*
X16505Y25597D01*
X15997D01*
X15743Y25851D01*
Y26105D01*
X15997Y26359D01*
X15743Y26613D01*
Y26867D01*
X15997Y26359D02*
X16505D01*
X18028Y25597D02*
Y27121D01*
X17266Y26359D01*
X18282D01*
X18790Y26867D02*
X19044Y27121D01*
X19552D01*
X19806Y26867D01*
Y25851D01*
X19552Y25597D01*
X19044D01*
X18790Y25851D01*
Y26867D01*
X20313D02*
X20567Y27121D01*
X21075D01*
X21329Y26867D01*
Y26613D01*
X21075Y26359D01*
X20821D01*
X21075D01*
X21329Y26105D01*
Y25851D01*
X21075Y25597D01*
X20567D01*
X20313Y25851D01*
X23360Y25597D02*
Y27121D01*
X23868Y26613D01*
X24376Y27121D01*
Y25597D01*
X25138D02*
X25646D01*
X25900Y25851D01*
Y26359D01*
X25646Y26613D01*
X25138D01*
X24884Y26359D01*
Y25851D01*
X25138Y25597D01*
X27423Y27121D02*
Y25597D01*
X26661D01*
X26407Y25851D01*
Y26359D01*
X26661Y26613D01*
X27423D01*
X27931D02*
Y25851D01*
X28185Y25597D01*
X28947D01*
Y26613D01*
X29454Y25597D02*
X29962D01*
X29708D01*
Y27121D01*
X29454D01*
X31486Y25597D02*
X30978D01*
X30724Y25851D01*
Y26359D01*
X30978Y26613D01*
X31486D01*
X31740Y26359D01*
Y26105D01*
X30724D01*
X85900Y60146D02*
Y61670D01*
X86662D01*
X86916Y61416D01*
Y60908D01*
X86662Y60654D01*
X85900D01*
X86408D02*
X86916Y60146D01*
X88440Y61416D02*
X88186Y61670D01*
X87678D01*
X87424Y61416D01*
Y61162D01*
X87678Y60908D01*
X88186D01*
X88440Y60654D01*
Y60400D01*
X88186Y60146D01*
X87678D01*
X87424Y60400D01*
X6560Y61480D02*
Y59956D01*
X7576D01*
X9100Y61226D02*
X8846Y61480D01*
X8338D01*
X8084Y61226D01*
Y60972D01*
X8338Y60718D01*
X8846D01*
X9100Y60464D01*
Y60210D01*
X8846Y59956D01*
X8338D01*
X8084Y60210D01*
X22798Y48086D02*
X23814D01*
Y47832D01*
X22798Y46816D01*
Y46562D01*
X38927Y47832D02*
X39181Y48086D01*
X39689D01*
X39943Y47832D01*
Y47578D01*
X39689Y47324D01*
X39943Y47070D01*
Y46816D01*
X39689Y46562D01*
X39181D01*
X38927Y46816D01*
Y47070D01*
X39181Y47324D01*
X38927Y47578D01*
Y47832D01*
X39181Y47324D02*
X39689D01*
X55056Y46816D02*
X55310Y46562D01*
X55818D01*
X56072Y46816D01*
Y47832D01*
X55818Y48086D01*
X55310D01*
X55056Y47832D01*
Y47578D01*
X55310Y47324D01*
X56072D01*
X70550Y46562D02*
X71058D01*
X70804D01*
Y48086D01*
X70550Y47832D01*
X71820D02*
X72074Y48086D01*
X72582D01*
X72836Y47832D01*
Y46816D01*
X72582Y46562D01*
X72074D01*
X71820Y46816D01*
Y47832D01*
X80137Y46736D02*
X79883Y46990D01*
X79375D01*
X79121Y46736D01*
Y46482D01*
X79375Y46228D01*
X79883D01*
X80137Y45974D01*
Y45720D01*
X79883Y45466D01*
X79375D01*
X79121Y45720D01*
X80645Y46990D02*
Y45466D01*
X81406D01*
X81660Y45720D01*
Y46736D01*
X81406Y46990D01*
X80645D01*
X39624Y1016D02*
Y2540D01*
X38862Y1778D01*
X39878D01*
X31242Y2286D02*
X31496Y2540D01*
X32004D01*
X32258Y2286D01*
Y2032D01*
X32004Y1778D01*
X31750D01*
X32004D01*
X32258Y1524D01*
Y1270D01*
X32004Y1016D01*
X31496D01*
X31242Y1270D01*
X24638Y1016D02*
X23622D01*
X24638Y2032D01*
Y2286D01*
X24384Y2540D01*
X23876D01*
X23622Y2286D01*
X16256Y1016D02*
X16764D01*
X16510D01*
Y2540D01*
X16256Y2286D01*
X26036Y10967D02*
Y12491D01*
X26797D01*
X27051Y12237D01*
Y11729D01*
X26797Y11475D01*
X26036D01*
X27559Y12491D02*
X28067D01*
X27813D01*
Y10967D01*
X27559D01*
X28067D01*
X28829D02*
Y12491D01*
X29590D01*
X29844Y12237D01*
Y11729D01*
X29590Y11475D01*
X28829D01*
X29337D02*
X29844Y10967D01*
X74550Y23764D02*
Y22241D01*
X75312D01*
X75566Y22495D01*
Y23510D01*
X75312Y23764D01*
X74550D01*
X76835Y22241D02*
X76328D01*
X76074Y22495D01*
Y23003D01*
X76328Y23257D01*
X76835D01*
X77089Y23003D01*
Y22749D01*
X76074D01*
X77597Y23764D02*
Y22241D01*
X78359D01*
X78613Y22495D01*
Y22749D01*
Y23003D01*
X78359Y23257D01*
X77597D01*
X79121D02*
Y22495D01*
X79375Y22241D01*
X80136D01*
Y23257D01*
X81152Y21733D02*
X81406D01*
X81660Y21987D01*
Y23257D01*
X80898D01*
X80644Y23003D01*
Y22495D01*
X80898Y22241D01*
X81660D01*
X52089Y13724D02*
X51835Y13978D01*
X51327D01*
X51074Y13724D01*
Y12709D01*
X51327Y12455D01*
X51835D01*
X52089Y12709D01*
X52851Y12455D02*
X53359D01*
X53613Y12709D01*
Y13217D01*
X53359Y13470D01*
X52851D01*
X52597Y13217D01*
Y12709D01*
X52851Y12455D01*
X54121D02*
Y13470D01*
X54882D01*
X55136Y13217D01*
Y12455D01*
X55898Y13724D02*
Y13470D01*
X55644D01*
X56152D01*
X55898D01*
Y12709D01*
X56152Y12455D01*
X56914Y13470D02*
Y12455D01*
Y12963D01*
X57168Y13217D01*
X57421Y13470D01*
X57675D01*
X58691Y12455D02*
X59199D01*
X59453Y12709D01*
Y13217D01*
X59199Y13470D01*
X58691D01*
X58437Y13217D01*
Y12709D01*
X58691Y12455D01*
X59961D02*
X60468D01*
X60215D01*
Y13978D01*
X59961D01*
X89789Y8636D02*
X90805Y7620D01*
X89789D02*
X90805Y8636D01*
X89789Y8128D02*
X90805D01*
X90297Y7620D02*
Y8636D01*
X82280Y13335D02*
X81264D01*
X82280Y14351D01*
Y14605D01*
X82026Y14859D01*
X81518D01*
X81264Y14605D01*
X82788D02*
X83804Y13589D01*
X82788D02*
X83804Y14605D01*
X82788Y14097D02*
X83804D01*
X83296Y13589D02*
Y14605D01*
X72501Y13335D02*
X73009D01*
X72755D01*
Y14859D01*
X72501Y14605D01*
X73771D02*
X74787Y13589D01*
X73771D02*
X74787Y14605D01*
X73771Y14097D02*
X74787D01*
X74279Y13589D02*
Y14605D01*
X83020Y1016D02*
X82004D01*
X83020Y2032D01*
Y2286D01*
X82766Y2540D01*
X82258D01*
X82004Y2286D01*
X73368Y1016D02*
X73876D01*
X73622D01*
Y2540D01*
X73368Y2286D01*
X55225Y2286D02*
X56241Y1270D01*
X55733Y1778D01*
X56241Y2286D01*
X55225Y1270D01*
X47623D02*
X47115Y1778D01*
X47623Y2286D01*
X63843D02*
X64351Y1778D01*
X63843Y1270D01*
X80899Y43354D02*
X81915D01*
X70003Y39167D02*
Y40690D01*
X70765D01*
X71019Y40436D01*
Y39929D01*
X70765Y39675D01*
X70003D01*
X70511D02*
X71019Y39167D01*
X71527Y40690D02*
X72543D01*
Y40436D01*
X71527Y39421D01*
Y39167D01*
X64873D02*
Y40690D01*
X65634D01*
X65888Y40436D01*
Y39929D01*
X65634Y39675D01*
X64873D01*
X65380D02*
X65888Y39167D01*
X67412Y40690D02*
X66904Y40436D01*
X66396Y39929D01*
Y39421D01*
X66650Y39167D01*
X67158D01*
X67412Y39421D01*
Y39675D01*
X67158Y39929D01*
X66396D01*
X59716Y39167D02*
Y40690D01*
X60478D01*
X60732Y40436D01*
Y39929D01*
X60478Y39675D01*
X59716D01*
X60224D02*
X60732Y39167D01*
X62256Y40690D02*
X61240D01*
Y39929D01*
X61748Y40182D01*
X62002D01*
X62256Y39929D01*
Y39421D01*
X62002Y39167D01*
X61494D01*
X61240Y39421D01*
X54573Y39167D02*
Y40690D01*
X55335D01*
X55589Y40436D01*
Y39929D01*
X55335Y39675D01*
X54573D01*
X55081D02*
X55589Y39167D01*
X56858D02*
Y40690D01*
X56096Y39929D01*
X57112D01*
X49429Y39167D02*
Y40690D01*
X50191D01*
X50445Y40436D01*
Y39929D01*
X50191Y39675D01*
X49429D01*
X49937D02*
X50445Y39167D01*
X50953Y40436D02*
X51207Y40690D01*
X51715D01*
X51969Y40436D01*
Y40182D01*
X51715Y39929D01*
X51461D01*
X51715D01*
X51969Y39675D01*
Y39421D01*
X51715Y39167D01*
X51207D01*
X50953Y39421D01*
X44286Y39167D02*
Y40690D01*
X45048D01*
X45302Y40436D01*
Y39929D01*
X45048Y39675D01*
X44286D01*
X44794D02*
X45302Y39167D01*
X46825D02*
X45809D01*
X46825Y40182D01*
Y40436D01*
X46571Y40690D01*
X46063D01*
X45809Y40436D01*
X39142Y39167D02*
Y40690D01*
X39904D01*
X40158Y40436D01*
Y39929D01*
X39904Y39675D01*
X39142D01*
X39650D02*
X40158Y39167D01*
X40666D02*
X41174D01*
X40920D01*
Y40690D01*
X40666Y40436D01*
D31*
X87227Y12192D02*
G03*
X87127Y12192I-50J0D01*
G01*
D02*
G03*
X87227Y12192I50J0D01*
G01*
X79464Y18161D02*
G03*
X79364Y18161I-50J0D01*
G01*
D02*
G03*
X79464Y18161I50J0D01*
G01*
X13440Y6985D02*
G03*
X13340Y6985I-50J0D01*
G01*
D02*
G03*
X13440Y6985I50J0D01*
G01*
X21060D02*
G03*
X20960Y6985I-50J0D01*
G01*
D02*
G03*
X21060Y6985I50J0D01*
G01*
X28680D02*
G03*
X28580Y6985I-50J0D01*
G01*
D02*
G03*
X28680Y6985I50J0D01*
G01*
X36300D02*
G03*
X36200Y6985I-50J0D01*
G01*
D02*
G03*
X36300Y6985I50J0D01*
G01*
X70574Y18161D02*
G03*
X70474Y18161I-50J0D01*
G01*
D02*
G03*
X70574Y18161I50J0D01*
G01*
X80470Y80702D02*
Y88302D01*
Y80702D02*
X90970D01*
Y88302D01*
X80470D02*
X90970D01*
X65182Y80702D02*
Y88302D01*
Y80702D02*
X75682D01*
Y88302D01*
X65182D02*
X75682D01*
X49894Y80702D02*
Y88302D01*
Y80702D02*
X60394D01*
Y88302D01*
X49894D02*
X60394D01*
X34606Y80702D02*
Y88302D01*
Y80702D02*
X45106D01*
Y88302D01*
X34606D02*
X45106D01*
X19318Y80702D02*
Y88302D01*
Y80702D02*
X29818D01*
Y88302D01*
X19318D02*
X29818D01*
X4030Y80702D02*
Y88302D01*
Y80702D02*
X14530D01*
Y88302D01*
X4030D02*
X14530D01*
X4030Y63218D02*
X11630D01*
Y73718D01*
X4030D02*
X11630D01*
X4030Y63218D02*
Y73718D01*
X83370Y73908D02*
X90970D01*
X83370Y63408D02*
Y73908D01*
Y63408D02*
X90970D01*
Y73908D01*
X66443Y57424D02*
X76943D01*
Y49824D02*
Y57424D01*
X66443Y49824D02*
X76943D01*
X66443D02*
Y57424D01*
X50314D02*
X60814D01*
Y49824D02*
Y57424D01*
X50314Y49824D02*
X60814D01*
X50314D02*
Y57424D01*
X34185D02*
X44685D01*
Y49824D02*
Y57424D01*
X34185Y49824D02*
X44685D01*
X34185D02*
Y57424D01*
X18056D02*
X28556D01*
Y49824D02*
Y57424D01*
X18056Y49824D02*
X28556D01*
X18056D02*
Y57424D01*
D32*
X77851Y29384D02*
Y44624D01*
X80391Y29384D02*
Y44624D01*
X77851D02*
X80391D01*
X77851Y29384D02*
X80391D01*
X87757Y14042D02*
X92837D01*
Y10342D02*
Y14042D01*
X87757Y10342D02*
X92837D01*
X87757D02*
Y14042D01*
X79994Y20011D02*
X85074D01*
Y16311D02*
Y20011D01*
X79994Y16311D02*
X85074D01*
X79994D02*
Y20011D01*
X60326Y31242D02*
X61088D01*
Y36322D01*
X59564D02*
X61088D01*
X59564Y31242D02*
Y36322D01*
Y31242D02*
X60326D01*
Y36322D02*
Y36551D01*
Y31013D02*
Y31242D01*
X65469D02*
X66231D01*
Y36322D01*
X64707D02*
X66231D01*
X64707Y31242D02*
Y36322D01*
Y31242D02*
X65469D01*
Y36322D02*
Y36551D01*
Y31013D02*
Y31242D01*
X39752D02*
X40514D01*
Y36322D01*
X38990D02*
X40514D01*
X38990Y31242D02*
Y36322D01*
Y31242D02*
X39752D01*
Y36322D02*
Y36551D01*
Y31013D02*
Y31242D01*
X55182D02*
X55944D01*
Y36322D01*
X54421D02*
X55944D01*
X54421Y31242D02*
Y36322D01*
Y31242D02*
X55182D01*
Y36322D02*
Y36551D01*
Y31013D02*
Y31242D01*
X70613D02*
X71375D01*
Y36322D01*
X69851D02*
X71375D01*
X69851Y31242D02*
Y36322D01*
Y31242D02*
X70613D01*
Y36322D02*
Y36551D01*
Y31013D02*
Y31242D01*
X44896D02*
X45658D01*
Y36322D01*
X44133D02*
X45658D01*
X44133Y31242D02*
Y36322D01*
Y31242D02*
X44896D01*
Y36322D02*
Y36551D01*
Y31013D02*
Y31242D01*
X50039D02*
X50801D01*
Y36322D01*
X49277D02*
X50801D01*
X49277Y31242D02*
Y36322D01*
Y31242D02*
X50039D01*
Y36322D02*
Y36551D01*
Y31013D02*
Y31242D01*
X13970Y8835D02*
X19050D01*
Y5135D02*
Y8835D01*
X13970Y5135D02*
X19050D01*
X13970D02*
Y8835D01*
X21590D02*
X26670D01*
Y5135D02*
Y8835D01*
X21590Y5135D02*
X26670D01*
X21590D02*
Y8835D01*
X29210D02*
X34290D01*
Y5135D02*
Y8835D01*
X29210Y5135D02*
X34290D01*
X29210D02*
Y8835D01*
X36830D02*
X41910D01*
Y5135D02*
Y8835D01*
X36830Y5135D02*
X41910D01*
X36830D02*
Y8835D01*
X71104Y20011D02*
X76184D01*
Y16311D02*
Y20011D01*
X71104Y16311D02*
X76184D01*
X71104D02*
Y20011D01*
%TF.MD5,738794462ce93d2e16c481160ee51f7f*%
M02*
