M48
;Layer_Color=9474304
;FILE_FORMAT=4:3
METRIC,LZ
;TYPE=PLATED
T1F00S00C0.711
T2F00S00C0.762
T3F00S00C0.850
T4F00S00C0.900
T5F00S00C0.910
T6F00S00C1.000
T7F00S00C1.300
T8F00S00C3.000
%
T01
X0087517Y0017399
X0089535Y002286
X0086741Y0038735
X008509
X0089027Y0041656
X0073215Y0032068
X0032639Y0059055
X0024511Y0068326
X0022098Y007112
T02
X001553Y0043504
X001803
X002303
X002553
X002803
X003053
X001053
X000803
X000553
T03
X0055182Y0029972
X0060326
X0065469
X0070613
Y0037592
X0065469
X0060326
X0055182
X0050039
X0044896
X0039752
Y0029972
X0044896
X0050039
T04
X0079121Y0030654
Y0033194
Y0035734
Y0038274
Y0040814
Y0043354
T05
X001524Y0006985
X001778
X002286
X00254
X003048
X003302
X00381
X004064
X0089027Y0012192
X0091567
X0083804Y0018161
X0081264
X0074914
X0072374
T06
X0045157Y000405
X0049657
X0053521
Y001055
X0049657
X0045157
X0058021
X0061885
X0066385
X007141
X007591
X00803
X00848
Y000405
X00803
X007591
X007141
X0066385
X0061885
X0058021
T07
X0058064Y0053324
X0069193
X0074193
X0053064
X0041935
X0036935
X0025806
X0020806
X000813Y0065968
Y0070968
X000678Y0084202
X001178
X0022068
X0027068
X0037356
X0042356
X0052644
X0057644
X0067932
X0072932
X008322
X008822
X008687Y0071158
Y0066158
T08
X0003Y0003
X0092
X0003Y0092
X0092
M30
