%TF.GenerationSoftware,Altium Limited,Altium Designer,21.8.1 (53)*%
G04 Layer_Physical_Order=1*
G04 Layer_Color=255*
%FSLAX43Y43*%
%MOMM*%
%TF.SameCoordinates,048A42BD-2BC6-4B9E-88CB-C2FB4D5E15D7*%
%TF.FilePolarity,Positive*%
%TF.FileFunction,Copper,L1,Top,Signal*%
%TF.Part,Single*%
G01*
G75*
%TA.AperFunction,NonConductor*%
%ADD10C,0.203*%
%ADD11C,0.254*%
%TA.AperFunction,Conductor*%
%ADD12C,0.400*%
%TA.AperFunction,ViaPad*%
%ADD13C,1.524*%
%TA.AperFunction,ComponentPad*%
%ADD14C,1.950*%
%ADD15C,1.500*%
%ADD16R,1.524X1.524*%
%ADD17C,1.524*%
%ADD18R,1.500X1.500*%
%ADD19C,1.416*%
%ADD20C,1.400*%
%TA.AperFunction,ViaPad*%
%ADD21C,1.270*%
D10*
X93856Y92000D02*
G03*
X93856Y92000I-1856J0D01*
G01*
D02*
G03*
X93856Y92000I-1856J0D01*
G01*
X89468Y83740D02*
G03*
X89551Y84202I-1248J462D01*
G01*
X92377Y80601D02*
G03*
X92214Y80994I-556J0D01*
G01*
X92377Y80601D02*
G03*
X92214Y80994I-556J0D01*
G01*
X91107Y78867D02*
G03*
X90944Y79260I-556J0D01*
G01*
X91107Y78867D02*
G03*
X90944Y79260I-556J0D01*
G01*
X89551Y84202D02*
G03*
X88682Y82954I-1331J0D01*
G01*
X85609Y84595D02*
G03*
X85216Y84758I-393J-393D01*
G01*
X85609Y84595D02*
G03*
X85216Y84758I-393J-393D01*
G01*
X84429D02*
G03*
X84429Y83646I-1209J-556D01*
G01*
X88201Y71158D02*
G03*
X88201Y71158I-1331J0D01*
G01*
Y66158D02*
G03*
X88201Y66158I-1331J0D01*
G01*
X85900Y58801D02*
G03*
X85737Y59194I-556J0D01*
G01*
X85900Y58801D02*
G03*
X85737Y59194I-556J0D01*
G01*
X82308Y62623D02*
G03*
X81915Y62786I-393J-393D01*
G01*
X82308Y62623D02*
G03*
X81915Y62786I-393J-393D01*
G01*
X83868Y57531D02*
G03*
X83705Y57924I-556J0D01*
G01*
X83868Y57531D02*
G03*
X83705Y57924I-556J0D01*
G01*
X82344Y56515D02*
G03*
X82181Y56908I-556J0D01*
G01*
X82344Y56515D02*
G03*
X82181Y56908I-556J0D01*
G01*
Y48141D02*
G03*
X82344Y48533I-393J393D01*
G01*
X82181Y48141D02*
G03*
X82344Y48533I-393J393D01*
G01*
X81642Y47831D02*
G03*
X82034Y47994I0J556D01*
G01*
X81642Y47831D02*
G03*
X82034Y47994I0J556D01*
G01*
X74263Y84202D02*
G03*
X72376Y82993I-1331J0D01*
G01*
X73488D02*
G03*
X74263Y84202I-556J1209D01*
G01*
X69263D02*
G03*
X67376Y82993I-1331J0D01*
G01*
X68488D02*
G03*
X69263Y84202I-556J1209D01*
G01*
X68755Y67183D02*
G03*
X68592Y67576I-556J0D01*
G01*
X68755Y67183D02*
G03*
X68592Y67576I-556J0D01*
G01*
X67376Y67450D02*
G03*
X67539Y67057I556J0D01*
G01*
X67376Y67450D02*
G03*
X67539Y67057I556J0D01*
G01*
X66723Y65913D02*
G03*
X66560Y66306I-556J0D01*
G01*
X66723Y65913D02*
G03*
X66560Y66306I-556J0D01*
G01*
X58975Y84202D02*
G03*
X57088Y82993I-1331J0D01*
G01*
X58200D02*
G03*
X58975Y84202I-556J1209D01*
G01*
X53200Y82993D02*
G03*
X53975Y84202I-556J1209D01*
G01*
X57088Y74436D02*
G03*
X57251Y74043I556J0D01*
G01*
X57088Y74436D02*
G03*
X57251Y74043I556J0D01*
G01*
X74918Y61837D02*
G03*
X75311Y61674I393J393D01*
G01*
X74918Y61837D02*
G03*
X75311Y61674I393J393D01*
G01*
X80657Y60972D02*
G03*
X80264Y61135I-393J-393D01*
G01*
X80657Y60972D02*
G03*
X80264Y61135I-393J-393D01*
G01*
X72376Y64609D02*
G03*
X72539Y64216I556J0D01*
G01*
X72376Y64609D02*
G03*
X72539Y64216I556J0D01*
G01*
X67953Y60186D02*
G03*
X68345Y60023I393J393D01*
G01*
X67953Y60186D02*
G03*
X68345Y60023I393J393D01*
G01*
X79514Y59575D02*
G03*
X79121Y59738I-393J-393D01*
G01*
X79514Y59575D02*
G03*
X79121Y59738I-393J-393D01*
G01*
X75524Y53324D02*
G03*
X75524Y53324I-1331J0D01*
G01*
X70524D02*
G03*
X70524Y53324I-1331J0D01*
G01*
X76835Y48943D02*
G03*
X76442Y48780I0J-556D01*
G01*
X76835Y48943D02*
G03*
X76442Y48780I0J-556D01*
G01*
X75553Y47891D02*
G03*
X75390Y47498I393J-393D01*
G01*
X75553Y47891D02*
G03*
X75390Y47498I393J-393D01*
G01*
X67643Y60725D02*
G03*
X67806Y60333I556J0D01*
G01*
X67643Y60725D02*
G03*
X67806Y60333I556J0D01*
G01*
X65611Y60198D02*
G03*
X65774Y59805I556J0D01*
G01*
X65611Y60198D02*
G03*
X65774Y59805I556J0D01*
G01*
X66790Y58789D02*
G03*
X67183Y58626I393J393D01*
G01*
X66790Y58789D02*
G03*
X67183Y58626I393J393D01*
G01*
X64183Y62484D02*
G03*
X64020Y62877I-556J0D01*
G01*
X64183Y62484D02*
G03*
X64020Y62877I-556J0D01*
G01*
X56182Y63754D02*
G03*
X56019Y64147I-556J0D01*
G01*
X56182Y63754D02*
G03*
X56019Y64147I-556J0D01*
G01*
X59395Y53324D02*
G03*
X59395Y53324I-1331J0D01*
G01*
X55070Y49276D02*
G03*
X55233Y48883I556J0D01*
G01*
X55070Y49276D02*
G03*
X55233Y48883I556J0D01*
G01*
X90944Y46597D02*
G03*
X91107Y46990I-393J393D01*
G01*
X90944Y46597D02*
G03*
X91107Y46990I-393J393D01*
G01*
X88634Y45859D02*
G03*
X88471Y45466I393J-393D01*
G01*
X88634Y45859D02*
G03*
X88471Y45466I393J-393D01*
G01*
X90018Y41656D02*
G03*
X89583Y42476I-991J0D01*
G01*
X87297Y40767D02*
G03*
X87134Y41160I-556J0D01*
G01*
X87297Y40767D02*
G03*
X87134Y41160I-556J0D01*
G01*
X88471Y42476D02*
G03*
X90018Y41656I556J-820D01*
G01*
X85915Y38187D02*
G03*
X87732Y38735I826J548D01*
G01*
X86185Y39555D02*
G03*
X85915Y39283I556J-820D01*
G01*
X87732Y38735D02*
G03*
X87297Y39555I-991J0D01*
G01*
X85646Y39751D02*
G03*
X85483Y40144I-556J0D01*
G01*
X85915Y39283D02*
G03*
X85646Y39555I-826J-548D01*
G01*
Y39751D02*
G03*
X85483Y40144I-556J0D01*
G01*
X84788Y42164D02*
G03*
X84951Y41771I556J0D01*
G01*
X84788Y42164D02*
G03*
X84951Y41771I556J0D01*
G01*
X84514Y39541D02*
G03*
X85915Y38187I576J-806D01*
G01*
X82756Y41529D02*
G03*
X82919Y41136I556J0D01*
G01*
X82756Y41529D02*
G03*
X82919Y41136I556J0D01*
G01*
X92214Y24753D02*
G03*
X92377Y25146I-393J393D01*
G01*
X92214Y24753D02*
G03*
X92377Y25146I-393J393D01*
G01*
X90526Y22860D02*
G03*
X90508Y23047I-991J0D01*
G01*
X88987Y22035D02*
G03*
X90526Y22860I548J825D01*
G01*
X89722Y23833D02*
G03*
X88710Y22312I-187J-973D01*
G01*
X87388Y23634D02*
G03*
X86995Y23797I-393J-393D01*
G01*
X87388Y23634D02*
G03*
X86995Y23797I-393J-393D01*
G01*
X89583Y21209D02*
G03*
X89420Y21602I-556J0D01*
G01*
X89583Y21209D02*
G03*
X89420Y21602I-556J0D01*
G01*
X88471Y17663D02*
G03*
X86542Y17578I-955J-264D01*
G01*
X87057Y16521D02*
G03*
X88471Y17135I459J878D01*
G01*
X90091Y12192D02*
G03*
X89583Y13099I-1064J0D01*
G01*
X92631Y12192D02*
G03*
X92631Y12192I-1064J0D01*
G01*
X88471Y13099D02*
G03*
X90091Y12192I556J-907D01*
G01*
X93856Y3000D02*
G03*
X93856Y3000I-1856J0D01*
G01*
D02*
G03*
X93856Y3000I-1856J0D01*
G01*
X84868Y18161D02*
G03*
X84868Y18161I-1064J0D01*
G01*
X81395Y22848D02*
G03*
X81788Y22685I393J393D01*
G01*
X82328Y18161D02*
G03*
X80357Y18717I-1064J0D01*
G01*
X81395Y22848D02*
G03*
X81788Y22685I393J393D01*
G01*
X80357Y17605D02*
G03*
X82328Y18161I907J556D01*
G01*
X81406Y10550D02*
G03*
X81369Y10833I-1106J0D01*
G01*
X80583Y11618D02*
G03*
X81406Y10550I-283J-1069D01*
G01*
X85906D02*
G03*
X85906Y10550I-1106J0D01*
G01*
Y4050D02*
G03*
X85906Y4050I-1106J0D01*
G01*
X81406D02*
G03*
X81406Y4050I-1106J0D01*
G01*
X80227Y40814D02*
G03*
X80227Y40814I-1106J0D01*
G01*
X66025Y39432D02*
G03*
X65862Y39825I-556J0D01*
G01*
X66025Y39432D02*
G03*
X65862Y39825I-556J0D01*
G01*
X80227Y38274D02*
G03*
X80227Y38274I-1106J0D01*
G01*
Y35734D02*
G03*
X80227Y35734I-1106J0D01*
G01*
Y33194D02*
G03*
X80227Y33194I-1106J0D01*
G01*
Y30654D02*
G03*
X80227Y30654I-1106J0D01*
G01*
X76339Y33389D02*
G03*
X76502Y33782I-393J393D01*
G01*
X71669Y37592D02*
G03*
X70371Y38620I-1056J0D01*
G01*
X69585Y37834D02*
G03*
X71669Y37592I1028J-242D01*
G01*
X66525D02*
G03*
X66025Y38490I-1056J0D01*
G01*
X76339Y33389D02*
G03*
X76502Y33782I-393J393D01*
G01*
X74231Y31512D02*
G03*
X74624Y31675I0J556D01*
G01*
X74231Y31512D02*
G03*
X74624Y31675I0J556D01*
G01*
X74022Y32643D02*
G03*
X74036Y31512I-806J-576D01*
G01*
X63071Y44578D02*
G03*
X63234Y44185I556J0D01*
G01*
X63071Y44578D02*
G03*
X63234Y44185I556J0D01*
G01*
X55738Y40702D02*
G03*
X55575Y41095I-556J0D01*
G01*
X55738Y40702D02*
G03*
X55575Y41095I-556J0D01*
G01*
X64914Y38490D02*
G03*
X66525Y37592I556J-898D01*
G01*
X60882Y39115D02*
G03*
X60719Y39508I-556J0D01*
G01*
X60882Y39115D02*
G03*
X60719Y39508I-556J0D01*
G01*
X61382Y37592D02*
G03*
X60882Y38490I-1056J0D01*
G01*
X59770D02*
G03*
X61382Y37592I556J-898D01*
G01*
X56238D02*
G03*
X55738Y38490I-1056J0D01*
G01*
X54627D02*
G03*
X56238Y37592I556J-898D01*
G01*
X75450Y30365D02*
G03*
X75057Y30528I-393J-393D01*
G01*
X75450Y30365D02*
G03*
X75057Y30528I-393J-393D01*
G01*
X68338Y30365D02*
G03*
X67945Y30528I-393J-393D01*
G01*
X68338Y30365D02*
G03*
X67945Y30528I-393J-393D01*
G01*
X71511D02*
G03*
X71511Y29416I-898J-556D01*
G01*
X73438Y18161D02*
G03*
X72034Y19169I-1064J0D01*
G01*
X79363Y17768D02*
G03*
X79756Y17605I393J393D01*
G01*
X79363Y17768D02*
G03*
X79756Y17605I393J393D01*
G01*
X77016Y10550D02*
G03*
X77016Y10550I-1106J0D01*
G01*
Y4050D02*
G03*
X77016Y4050I-1106J0D01*
G01*
X75978Y18161D02*
G03*
X75978Y18161I-1064J0D01*
G01*
X71321Y18310D02*
G03*
X73438Y18161I1053J-149D01*
G01*
X72516Y10550D02*
G03*
X72516Y10550I-1106J0D01*
G01*
Y4050D02*
G03*
X72516Y4050I-1106J0D01*
G01*
X67491Y10550D02*
G03*
X67491Y10550I-1106J0D01*
G01*
X66367Y30528D02*
G03*
X66367Y29416I-898J-556D01*
G01*
X61382Y29972D02*
G03*
X60660Y28971I-1056J0D01*
G01*
X61372Y29830D02*
G03*
X61382Y29972I-1046J142D01*
G01*
X56238D02*
G03*
X54285Y30528I-1056J0D01*
G01*
X53721D02*
G03*
X53328Y30365I0J-556D01*
G01*
X53721Y30528D02*
G03*
X53328Y30365I0J-556D01*
G01*
X54285Y29416D02*
G03*
X56238Y29972I898J556D01*
G01*
X62991Y10550D02*
G03*
X62991Y10550I-1106J0D01*
G01*
X59127D02*
G03*
X59127Y10550I-1106J0D01*
G01*
X54627D02*
G03*
X54627Y10550I-1106J0D01*
G01*
X67491Y4050D02*
G03*
X67491Y4050I-1106J0D01*
G01*
X62991D02*
G03*
X62991Y4050I-1106J0D01*
G01*
X59127D02*
G03*
X59127Y4050I-1106J0D01*
G01*
X54627D02*
G03*
X54627Y4050I-1106J0D01*
G01*
X53975Y84202D02*
G03*
X52088Y82993I-1331J0D01*
G01*
X43687Y84202D02*
G03*
X41800Y82993I-1331J0D01*
G01*
X42912D02*
G03*
X43687Y84202I-556J1209D01*
G01*
X41800Y77024D02*
G03*
X41963Y76631I556J0D01*
G01*
X41800Y77024D02*
G03*
X41963Y76631I556J0D01*
G01*
X52088Y73467D02*
G03*
X52251Y73074I556J0D01*
G01*
X52088Y73467D02*
G03*
X52251Y73074I556J0D01*
G01*
X38687Y84202D02*
G03*
X36800Y82993I-1331J0D01*
G01*
X37912D02*
G03*
X38687Y84202I-556J1209D01*
G01*
X36800Y74531D02*
G03*
X36963Y74138I556J0D01*
G01*
X36800Y74531D02*
G03*
X36963Y74138I556J0D01*
G01*
X50975Y61468D02*
G03*
X50812Y61861I-556J0D01*
G01*
X50975Y61468D02*
G03*
X50812Y61861I-556J0D01*
G01*
X48816Y57531D02*
G03*
X48653Y57924I-556J0D01*
G01*
X48816Y57531D02*
G03*
X48653Y57924I-556J0D01*
G01*
X46657Y57150D02*
G03*
X46494Y57543I-556J0D01*
G01*
X46657Y57150D02*
G03*
X46494Y57543I-556J0D01*
G01*
X54395Y53324D02*
G03*
X54395Y53324I-1331J0D01*
G01*
X49863Y49022D02*
G03*
X50026Y48629I556J0D01*
G01*
X49863Y49022D02*
G03*
X50026Y48629I556J0D01*
G01*
X47704Y47625D02*
G03*
X47867Y47232I556J0D01*
G01*
X47704Y47625D02*
G03*
X47867Y47232I556J0D01*
G01*
X44970Y61607D02*
G03*
X44577Y61770I-393J-393D01*
G01*
X44970Y61607D02*
G03*
X44577Y61770I-393J-393D01*
G01*
X43954Y60083D02*
G03*
X43561Y60246I-393J-393D01*
G01*
X43954Y60083D02*
G03*
X43561Y60246I-393J-393D01*
G01*
X39104Y60821D02*
G03*
X39497Y60658I393J393D01*
G01*
X39104Y60821D02*
G03*
X39497Y60658I393J393D01*
G01*
X35802Y59297D02*
G03*
X36195Y59134I393J393D01*
G01*
X35802Y59297D02*
G03*
X36195Y59134I393J393D01*
G01*
X33630Y59055D02*
G03*
X32083Y58235I-991J0D01*
G01*
X43266Y53324D02*
G03*
X43266Y53324I-1331J0D01*
G01*
X33195Y58235D02*
G03*
X33630Y59055I-556J820D01*
G01*
X38266Y53324D02*
G03*
X38266Y53324I-1331J0D01*
G01*
X33703Y49911D02*
G03*
X33540Y50304I-556J0D01*
G01*
X33703Y49911D02*
G03*
X33540Y50304I-556J0D01*
G01*
X28399Y84202D02*
G03*
X26512Y82993I-1331J0D01*
G01*
X27624D02*
G03*
X28399Y84202I-556J1209D01*
G01*
X23399D02*
G03*
X21512Y82993I-1331J0D01*
G01*
X22624D02*
G03*
X23399Y84202I-556J1209D01*
G01*
X13111D02*
G03*
X13111Y84202I-1331J0D01*
G01*
X26512Y73643D02*
G03*
X26675Y73250I556J0D01*
G01*
X26512Y73643D02*
G03*
X26675Y73250I556J0D01*
G01*
X25502Y68326D02*
G03*
X24076Y67436I-991J0D01*
G01*
X21512Y73817D02*
G03*
X21675Y73424I556J0D01*
G01*
X21512Y73817D02*
G03*
X21675Y73424I556J0D01*
G01*
X23089Y71120D02*
G03*
X21542Y70300I-991J0D01*
G01*
X22654D02*
G03*
X23089Y71120I-556J820D01*
G01*
X8111Y84202D02*
G03*
X8111Y84202I-1331J0D01*
G01*
X4856Y92000D02*
G03*
X4856Y92000I-1856J0D01*
G01*
D02*
G03*
X4856Y92000I-1856J0D01*
G01*
X9461Y70968D02*
G03*
X9461Y70968I-1331J0D01*
G01*
X31086Y61418D02*
G03*
X30923Y61811I-556J0D01*
G01*
X31086Y61418D02*
G03*
X30923Y61811I-556J0D01*
G01*
X25188Y67602D02*
G03*
X25502Y68326I-677J724D01*
G01*
X28586Y58838D02*
G03*
X28423Y59231I-556J0D01*
G01*
X28586Y58838D02*
G03*
X28423Y59231I-556J0D01*
G01*
X32083Y50419D02*
G03*
X32246Y50026I556J0D01*
G01*
X32083Y50419D02*
G03*
X32246Y50026I556J0D01*
G01*
X24076Y67316D02*
G03*
X24239Y66923I556J0D01*
G01*
X24076Y67316D02*
G03*
X24239Y66923I556J0D01*
G01*
X9461Y65968D02*
G03*
X9461Y65968I-1331J0D01*
G01*
X21542Y64770D02*
G03*
X21705Y64377I556J0D01*
G01*
X21542Y64770D02*
G03*
X21705Y64377I556J0D01*
G01*
X22137Y53324D02*
G03*
X19597Y53880I-1331J0D01*
G01*
X11414D02*
G03*
X11021Y53717I0J-556D01*
G01*
X11414Y53880D02*
G03*
X11021Y53717I0J-556D01*
G01*
X27137Y53324D02*
G03*
X27137Y53324I-1331J0D01*
G01*
X19597Y52768D02*
G03*
X22137Y53324I1209J556D01*
G01*
X5137Y47833D02*
G03*
X4974Y47440I393J-393D01*
G01*
X5137Y47833D02*
G03*
X4974Y47440I393J-393D01*
G01*
X45545Y44450D02*
G03*
X45708Y44057I556J0D01*
G01*
X45545Y44450D02*
G03*
X45708Y44057I556J0D01*
G01*
X50595Y40512D02*
G03*
X50432Y40905I-556J0D01*
G01*
X50595Y40512D02*
G03*
X50432Y40905I-556J0D01*
G01*
X51095Y37592D02*
G03*
X50595Y38490I-1056J0D01*
G01*
X49483D02*
G03*
X51095Y37592I556J-898D01*
G01*
X45951D02*
G03*
X45951Y37592I-1056J0D01*
G01*
X51095Y29972D02*
G03*
X49011Y29730I-1056J0D01*
G01*
X49797Y28944D02*
G03*
X51095Y29972I242J1028D01*
G01*
X45951D02*
G03*
X43868Y29730I-1056J0D01*
G01*
X44654Y28944D02*
G03*
X45951Y29972I242J1028D01*
G01*
X33540Y38616D02*
G03*
X33703Y39008I-393J393D01*
G01*
X33540Y38616D02*
G03*
X33703Y39008I-393J393D01*
G01*
X40808Y37592D02*
G03*
X40808Y37592I-1056J0D01*
G01*
X33001Y38306D02*
G03*
X33393Y38469I0J556D01*
G01*
X33001Y38306D02*
G03*
X33393Y38469I0J556D01*
G01*
X40808Y29972D02*
G03*
X38724Y29730I-1056J0D01*
G01*
X39510Y28944D02*
G03*
X40808Y29972I242J1028D01*
G01*
X50763Y10550D02*
G03*
X50763Y10550I-1106J0D01*
G01*
X46263D02*
G03*
X46263Y10550I-1106J0D01*
G01*
X41704Y6985D02*
G03*
X41704Y6985I-1064J0D01*
G01*
X50763Y4050D02*
G03*
X50763Y4050I-1106J0D01*
G01*
X46263D02*
G03*
X46263Y4050I-1106J0D01*
G01*
X37085Y16462D02*
G03*
X37478Y16625I0J556D01*
G01*
X37085Y16462D02*
G03*
X37478Y16625I0J556D01*
G01*
X37707Y14744D02*
G03*
X37544Y14351I393J-393D01*
G01*
X37707Y14744D02*
G03*
X37544Y14351I393J-393D01*
G01*
X33021Y22685D02*
G03*
X33414Y22848I0J556D01*
G01*
X33021Y22685D02*
G03*
X33414Y22848I0J556D01*
G01*
X35879Y20399D02*
G03*
X36271Y20562I0J556D01*
G01*
X35879Y20399D02*
G03*
X36271Y20562I0J556D01*
G01*
X33909Y17574D02*
G03*
X33516Y17411I0J-556D01*
G01*
X33909Y17574D02*
G03*
X33516Y17411I0J-556D01*
G01*
X39164Y6985D02*
G03*
X38656Y7892I-1064J0D01*
G01*
X37544D02*
G03*
X39164Y6985I556J-907D01*
G01*
X34084D02*
G03*
X34084Y6985I-1064J0D01*
G01*
X29148Y43504D02*
G03*
X28586Y44474I-1118J0D01*
G01*
X26648Y43504D02*
G03*
X26648Y43504I-1118J0D01*
G01*
X16648D02*
G03*
X14974Y42534I-1118J0D01*
G01*
X16086D02*
G03*
X16648Y43504I-556J970D01*
G01*
X27474Y44474D02*
G03*
X29148Y43504I556J-970D01*
G01*
X17641Y38469D02*
G03*
X18034Y38306I393J393D01*
G01*
X17641Y38469D02*
G03*
X18034Y38306I393J393D01*
G01*
X14974Y41366D02*
G03*
X15137Y40973I556J0D01*
G01*
X14974Y41366D02*
G03*
X15137Y40973I556J0D01*
G01*
X11648Y43504D02*
G03*
X11086Y44474I-1118J0D01*
G01*
X9974D02*
G03*
X11648Y43504I556J-970D01*
G01*
X6648D02*
G03*
X6086Y44474I-1118J0D01*
G01*
X4974D02*
G03*
X6648Y43504I556J-970D01*
G01*
X30087Y13982D02*
G03*
X29924Y13589I393J-393D01*
G01*
X30087Y13982D02*
G03*
X29924Y13589I393J-393D01*
G01*
X28829Y21511D02*
G03*
X28436Y21348I0J-556D01*
G01*
X28829Y21511D02*
G03*
X28436Y21348I0J-556D01*
G01*
X22987Y23797D02*
G03*
X22594Y23634I0J-556D01*
G01*
X22987Y23797D02*
G03*
X22594Y23634I0J-556D01*
G01*
X22467Y15379D02*
G03*
X22304Y14986I393J-393D01*
G01*
X22467Y15379D02*
G03*
X22304Y14986I393J-393D01*
G01*
X26464Y6985D02*
G03*
X26464Y6985I-1064J0D01*
G01*
X31544D02*
G03*
X31036Y7892I-1064J0D01*
G01*
X29924D02*
G03*
X31544Y6985I556J-907D01*
G01*
X23924D02*
G03*
X23416Y7892I-1064J0D01*
G01*
X22304D02*
G03*
X23924Y6985I556J-907D01*
G01*
X18844D02*
G03*
X18844Y6985I-1064J0D01*
G01*
X16304D02*
G03*
X15796Y7892I-1064J0D01*
G01*
X14684D02*
G03*
X16304Y6985I556J-907D01*
G01*
X14847Y15887D02*
G03*
X14684Y15494I393J-393D01*
G01*
X14847Y15887D02*
G03*
X14684Y15494I393J-393D01*
G01*
X4856Y3000D02*
G03*
X4856Y3000I-1856J0D01*
G01*
D02*
G03*
X4856Y3000I-1856J0D01*
G01*
X93816Y92380D02*
X94517Y93081D01*
X93621Y92903D02*
X94517Y93799D01*
X93790Y92489D02*
X94517Y91761D01*
X93917Y94517D02*
X94517Y93917D01*
X93312Y93312D02*
X94517Y94517D01*
X93664Y91178D02*
X94517Y90325D01*
X93372Y90751D02*
X94517Y89606D01*
X93826Y91671D02*
X94517Y92362D01*
X93835Y91725D02*
X94517Y91043D01*
X92480Y94517D02*
X94517Y92480D01*
X92981Y90425D02*
X94517Y88888D01*
X93312Y93312D02*
X94517Y94517D01*
X93198D02*
X94517Y93198D01*
X88924Y85331D02*
X94517Y90925D01*
X89296Y84985D02*
X94517Y90207D01*
X88395Y85521D02*
X94517Y91644D01*
X92479Y90207D02*
X94517Y88169D01*
X91633Y81575D02*
X94517Y84460D01*
X91992Y81216D02*
X94517Y83741D01*
X91815Y90154D02*
X94517Y87451D01*
X91274Y81934D02*
X94517Y85178D01*
X92377Y79445D02*
X94517Y81586D01*
X92377Y78727D02*
X94517Y80867D01*
X92326Y80832D02*
X94517Y83023D01*
X92377Y80163D02*
X94517Y82304D01*
X89837Y83371D02*
X94517Y88052D01*
X90196Y83012D02*
X94517Y87333D01*
X89519Y84490D02*
X94517Y89488D01*
X89478Y83730D02*
X94517Y88770D01*
X89500Y84566D02*
X94517Y79548D01*
X89502Y83845D02*
X94517Y78830D01*
X90555Y82653D02*
X94517Y86615D01*
X90914Y82293D02*
X94517Y85896D01*
X91761Y94517D02*
X92489Y93790D01*
X91671Y93826D02*
X92362Y94517D01*
X92380Y93816D02*
X93081Y94517D01*
X90325D02*
X91178Y93664D01*
X91043Y94517D02*
X91725Y93835D01*
X92903Y93621D02*
X93799Y94517D01*
X89606D02*
X90751Y93372D01*
X88169Y94517D02*
X90207Y92479D01*
X88888Y94517D02*
X90425Y92981D01*
X89468Y83740D02*
X92214Y80994D01*
X90131Y80073D02*
X90847Y80789D01*
X90490Y79714D02*
X91206Y80430D01*
X90849Y79354D02*
X91265Y79771D01*
X91106Y78893D02*
X91265Y79052D01*
X88694Y81510D02*
X89410Y82226D01*
X89053Y81151D02*
X89769Y81867D01*
X87976Y82228D02*
X88692Y82944D01*
X88335Y81869D02*
X89051Y82585D01*
X88682Y82954D02*
X91265Y80371D01*
X88317Y82875D02*
X91265Y79927D01*
X89412Y80791D02*
X90129Y81508D01*
X89772Y80432D02*
X90488Y81148D01*
X92377Y74416D02*
X94517Y76557D01*
X92377Y76660D02*
X94517Y74519D01*
X92377Y75942D02*
X94517Y73801D01*
X92377Y77379D02*
X94517Y75238D01*
X92377Y75134D02*
X94517Y77275D01*
X92377Y72979D02*
X94517Y75120D01*
X92377Y74505D02*
X94517Y72364D01*
X92377Y73698D02*
X94517Y75838D01*
X92377Y75223D02*
X94517Y73082D01*
X92377Y79534D02*
X94517Y77393D01*
X92377Y77290D02*
X94517Y79431D01*
X92377Y80252D02*
X94517Y78111D01*
X92377Y78008D02*
X94517Y80149D01*
X92377Y78097D02*
X94517Y75956D01*
X92377Y75853D02*
X94517Y77994D01*
X92377Y78815D02*
X94517Y76675D01*
X92377Y76571D02*
X94517Y78712D01*
X92377Y70913D02*
X94517Y68772D01*
X92377Y68669D02*
X94517Y70810D01*
X92377Y71631D02*
X94517Y69490D01*
X92377Y69387D02*
X94517Y71528D01*
X92377Y69476D02*
X94517Y67335D01*
X92377Y67232D02*
X94517Y69373D01*
X92377Y70194D02*
X94517Y68054D01*
X92377Y67950D02*
X94517Y70091D01*
X92377Y73786D02*
X94517Y71646D01*
X92377Y71542D02*
X94517Y73683D01*
X92377Y72261D02*
X94517Y74402D01*
X91107Y72428D02*
X91265Y72586D01*
X92377Y72350D02*
X94517Y70209D01*
X92377Y70106D02*
X94517Y72246D01*
X92377Y73068D02*
X94517Y70927D01*
X92377Y70824D02*
X94517Y72965D01*
X91107Y75775D02*
X91265Y75616D01*
X91107Y76020D02*
X91265Y76179D01*
X91107Y75301D02*
X91265Y75460D01*
X91107Y76738D02*
X91265Y76897D01*
X91107Y76493D02*
X91265Y76335D01*
X91107Y74338D02*
X91265Y74179D01*
X91107Y73864D02*
X91265Y74023D01*
X91107Y75056D02*
X91265Y74898D01*
X91107Y74583D02*
X91265Y74742D01*
X91107Y77930D02*
X91265Y77771D01*
X91107Y77457D02*
X91265Y77615D01*
X91107Y78649D02*
X91265Y78490D01*
X91107Y78175D02*
X91265Y78334D01*
X91107Y46990D02*
Y78867D01*
Y77212D02*
X91265Y77053D01*
X89995Y47220D02*
Y78637D01*
X87856Y72051D02*
X89995Y74190D01*
X91107Y71464D02*
X91265Y71306D01*
X91107Y70991D02*
X91265Y71150D01*
X91107Y72183D02*
X91265Y72024D01*
X91107Y71709D02*
X91265Y71868D01*
X91107Y70028D02*
X91265Y69869D01*
X91107Y69554D02*
X91265Y69713D01*
X91107Y70746D02*
X91265Y70587D01*
X91107Y70272D02*
X91265Y70431D01*
X91107Y73146D02*
X91265Y73305D01*
X91107Y72901D02*
X91265Y72742D01*
X91107Y73620D02*
X91265Y73461D01*
X88125Y71601D02*
X89995Y73472D01*
X88157Y70822D02*
X89995Y68983D01*
X87920Y70341D02*
X89995Y68265D01*
X88183Y70941D02*
X89995Y72753D01*
X88139Y71558D02*
X89995Y69702D01*
X86014Y94517D02*
X94517Y86014D01*
X85296Y94517D02*
X94517Y85296D01*
X84577Y94517D02*
X94517Y84577D01*
X87451Y94517D02*
X90154Y91815D01*
X86733Y94517D02*
X94517Y86733D01*
X82422Y94517D02*
X94517Y82422D01*
X81704Y94517D02*
X94517Y81704D01*
X83859Y94517D02*
X94517Y83859D01*
X83140Y94517D02*
X94517Y83140D01*
X80985Y94517D02*
X94517Y80985D01*
X80267Y94517D02*
X94517Y80267D01*
X73488Y79235D02*
X88770Y94517D01*
X73488Y78517D02*
X89488Y94517D01*
X73488Y77080D02*
X90925Y94517D01*
X73488Y76361D02*
X91644Y94517D01*
X70927D02*
X89995Y75449D01*
X73488Y77798D02*
X90207Y94517D01*
X85432Y84714D02*
X91097Y90379D01*
X87422Y85267D02*
X92329Y90174D01*
X84758Y84758D02*
X90688Y90688D01*
X84758Y84758D02*
X90688Y90688D01*
X85820Y84383D02*
X91620Y90184D01*
X85609Y84595D02*
X90944Y79260D01*
X84986Y83646D02*
X89995Y78637D01*
X75956Y94517D02*
X91265Y79208D01*
X84283Y85002D02*
X90379Y91097D01*
X83369Y85524D02*
X90174Y92329D01*
X83906Y85342D02*
X90184Y91620D01*
X83851Y83031D02*
X89995Y76886D01*
X83290Y82873D02*
X89995Y76168D01*
X84672Y83646D02*
X89995Y78323D01*
X84246Y83354D02*
X89995Y77604D01*
X78830Y94517D02*
X87863Y85484D01*
X74519Y94517D02*
X83544Y85492D01*
X79548Y94517D02*
X88584Y85482D01*
X73801Y94517D02*
X82841Y85477D01*
X73754Y85249D02*
X83023Y94517D01*
X75238D02*
X84998Y84758D01*
X78111Y94517D02*
X87388Y85241D01*
X74087Y84863D02*
X83741Y94517D01*
X74258Y84316D02*
X84460Y94517D01*
X73275Y85488D02*
X82304Y94517D01*
X73082D02*
X82372Y85228D01*
X72543Y85474D02*
X81586Y94517D01*
X72364D02*
X82049Y84833D01*
X73488Y80672D02*
X87333Y94517D01*
X73488Y79953D02*
X88052Y94517D01*
X71646D02*
X81891Y84272D01*
X73488Y82827D02*
X85178Y94517D01*
X86179Y84024D02*
X87155Y85000D01*
X86539Y83665D02*
X86901Y84027D01*
X87257Y82947D02*
X87437Y83126D01*
X87616Y82587D02*
X87932Y82903D01*
X84429Y83646D02*
X84986D01*
X86898Y83306D02*
X87091Y83498D01*
X76675Y94517D02*
X86893Y84299D01*
X77393Y94517D02*
X87059Y84852D01*
X84429Y84758D02*
X85216D01*
X73488Y82109D02*
X85896Y94517D01*
X73488Y81390D02*
X86615Y94517D01*
X73488Y75643D02*
X81898Y84053D01*
X73488Y74924D02*
X82080Y83516D01*
X74552Y63775D02*
X89704Y78928D01*
X73488Y81899D02*
X89995Y65391D01*
X74911Y63416D02*
X89995Y78501D01*
X73833Y64494D02*
X88986Y79646D01*
X74192Y64134D02*
X89345Y79287D01*
X73488Y77589D02*
X89995Y61081D01*
X73488Y76870D02*
X89995Y60362D01*
X75270Y63057D02*
X89995Y77782D01*
X75717Y62786D02*
X89995Y77064D01*
X68772Y94517D02*
X89995Y73294D01*
X68054Y94517D02*
X89995Y72576D01*
X70209Y94517D02*
X89995Y74731D01*
X69490Y94517D02*
X89995Y74012D01*
X65898Y94517D02*
X89995Y70420D01*
X73488Y82618D02*
X89995Y66110D01*
X67335Y94517D02*
X89995Y71857D01*
X66617Y94517D02*
X89995Y71139D01*
X86886Y67489D02*
X89995Y70598D01*
X87536Y70006D02*
X89995Y67547D01*
X86857Y72489D02*
X89995Y75627D01*
X87445Y72358D02*
X89995Y74909D01*
X80746Y62786D02*
X89995Y72035D01*
X81465Y62786D02*
X89995Y71316D01*
X87464Y67349D02*
X89995Y69880D01*
X86991Y69833D02*
X89995Y66828D01*
X73488Y75433D02*
X89995Y58926D01*
X73488Y74715D02*
X89995Y58207D01*
X76436Y62786D02*
X89995Y76345D01*
X73488Y76152D02*
X89995Y59644D01*
X73488Y72560D02*
X89995Y56052D01*
X73488Y71841D02*
X89995Y55333D01*
X73488Y73997D02*
X89995Y57489D01*
X73488Y73278D02*
X89995Y56770D01*
X74040Y84939D02*
X86534Y72445D01*
X74249Y84012D02*
X86053Y72208D01*
X74054Y83488D02*
X85718Y71824D01*
X73705Y83119D02*
X85545Y71279D01*
X73488Y68459D02*
X86831Y81802D01*
X73488Y67740D02*
X87190Y81442D01*
X73488Y69895D02*
X86112Y82520D01*
X73488Y69177D02*
X86471Y82161D01*
X73488Y72769D02*
X83667Y82949D01*
X73488Y73488D02*
X82908Y82908D01*
X73488Y74206D02*
X82420Y83139D01*
X73488Y73488D02*
X82908Y82908D01*
X65180Y94517D02*
X87270Y72427D01*
X73488Y70614D02*
X85753Y82879D01*
X73488Y72051D02*
X85035Y83598D01*
X73488Y71332D02*
X85394Y83239D01*
X73488Y78307D02*
X85543Y66252D01*
X77154Y62786D02*
X85539Y71171D01*
X73488Y71123D02*
X81825Y62786D01*
X79309D02*
X86427Y69903D01*
X80028Y62786D02*
X87087Y69845D01*
X77872Y62786D02*
X85670Y70583D01*
X78591Y62786D02*
X85977Y70172D01*
X73488Y81181D02*
X87229Y67439D01*
X73488Y67022D02*
X87549Y81083D01*
X73488Y80462D02*
X86511Y67439D01*
X73488Y79744D02*
X86036Y67195D01*
X73488Y65585D02*
X88267Y80365D01*
X73488Y64867D02*
X88627Y80006D01*
X73488Y66303D02*
X87908Y80724D01*
X73488Y79025D02*
X85708Y66805D01*
X92377Y62921D02*
X94517Y65062D01*
X92377Y65165D02*
X94517Y63025D01*
X92377Y64447D02*
X94517Y62306D01*
X92377Y65884D02*
X94517Y63743D01*
X92377Y63640D02*
X94517Y65781D01*
X92377Y61484D02*
X94517Y63625D01*
X92377Y63010D02*
X94517Y60869D01*
X92377Y62203D02*
X94517Y64344D01*
X92377Y63729D02*
X94517Y61588D01*
X92377Y68039D02*
X94517Y65898D01*
X92377Y65795D02*
X94517Y67936D01*
X92377Y68758D02*
X94517Y66617D01*
X92377Y66513D02*
X94517Y68654D01*
X92377Y66602D02*
X94517Y64461D01*
X92377Y64358D02*
X94517Y66499D01*
X92377Y67321D02*
X94517Y65180D01*
X92377Y65077D02*
X94517Y67217D01*
X92377Y61573D02*
X94517Y59432D01*
X92377Y59329D02*
X94517Y61470D01*
X92377Y62292D02*
X94517Y60151D01*
X92377Y60048D02*
X94517Y62188D01*
X92377Y60136D02*
X94517Y57996D01*
X92377Y57892D02*
X94517Y60033D01*
X92377Y60855D02*
X94517Y58714D01*
X92377Y58611D02*
X94517Y60752D01*
X91107Y62125D02*
X91265Y61966D01*
X91107Y61651D02*
X91265Y61810D01*
X91107Y62843D02*
X91265Y62685D01*
X91107Y62370D02*
X91265Y62529D01*
X92377Y60766D02*
X94517Y62907D01*
X91107Y60688D02*
X91265Y60529D01*
X91107Y61406D02*
X91265Y61248D01*
X91107Y60933D02*
X91265Y61092D01*
X91107Y67154D02*
X91265Y66995D01*
X91107Y67399D02*
X91265Y67558D01*
X91107Y66680D02*
X91265Y66839D01*
X91107Y68117D02*
X91265Y68276D01*
X91107Y67872D02*
X91265Y67713D01*
X91107Y65717D02*
X91265Y65558D01*
X91107Y65243D02*
X91265Y65402D01*
X91107Y66435D02*
X91265Y66277D01*
X91107Y65962D02*
X91265Y66121D01*
X91107Y68836D02*
X91265Y68994D01*
X91107Y68591D02*
X91265Y68432D01*
X91107Y69309D02*
X91265Y69150D01*
X87870Y67036D02*
X89995Y69161D01*
X88151Y66517D02*
X89995Y64673D01*
X88151Y65799D02*
X89995Y63954D01*
X88132Y66579D02*
X89995Y68443D01*
X88176Y65905D02*
X89995Y67724D01*
X91107Y59970D02*
X91265Y59811D01*
X91107Y59496D02*
X91265Y59655D01*
X91107Y63088D02*
X91265Y63247D01*
X91107Y60214D02*
X91265Y60373D01*
X91107Y58533D02*
X91265Y58374D01*
X91107Y58059D02*
X91265Y58218D01*
X91107Y59251D02*
X91265Y59092D01*
X91107Y58778D02*
X91265Y58936D01*
X91107Y64280D02*
X91265Y64121D01*
X91107Y63807D02*
X91265Y63965D01*
X91107Y64999D02*
X91265Y64840D01*
X91107Y64525D02*
X91265Y64684D01*
X86964Y64831D02*
X89995Y61799D01*
X91107Y63562D02*
X91265Y63403D01*
X87907Y65324D02*
X89995Y63236D01*
X87517Y64996D02*
X89995Y62518D01*
X92377Y53582D02*
X94517Y55723D01*
X92377Y55826D02*
X94517Y53685D01*
X92377Y55108D02*
X94517Y52967D01*
X92377Y56544D02*
X94517Y54404D01*
X92377Y54300D02*
X94517Y56441D01*
X92377Y52145D02*
X94517Y54286D01*
X92377Y53671D02*
X94517Y51530D01*
X92377Y52863D02*
X94517Y55004D01*
X92377Y54389D02*
X94517Y52248D01*
X92377Y58700D02*
X94517Y56559D01*
X92377Y56456D02*
X94517Y58596D01*
X92377Y59418D02*
X94517Y57277D01*
X92377Y57174D02*
X94517Y59315D01*
X92377Y57263D02*
X94517Y55122D01*
X92377Y55019D02*
X94517Y57160D01*
X92377Y57981D02*
X94517Y55840D01*
X92377Y55737D02*
X94517Y57878D01*
X92377Y50797D02*
X94517Y48656D01*
X92377Y48553D02*
X94517Y50694D01*
X92377Y51515D02*
X94517Y49375D01*
X92377Y49271D02*
X94517Y51412D01*
X92377Y49360D02*
X94517Y47219D01*
X92377Y47116D02*
X94517Y49257D01*
X92377Y50079D02*
X94517Y47938D01*
X92377Y47834D02*
X94517Y49975D01*
X92377Y50708D02*
X94517Y52849D01*
X92377Y52234D02*
X94517Y50093D01*
X92377Y51427D02*
X94517Y53567D01*
X92377Y52952D02*
X94517Y50811D01*
X92377Y49990D02*
X94517Y52131D01*
X91107Y47283D02*
X91265Y47442D01*
X91107Y48001D02*
X91265Y48160D01*
X91107Y47756D02*
X91265Y47598D01*
X91107Y55659D02*
X91265Y55500D01*
X91107Y55904D02*
X91265Y56063D01*
X91107Y55186D02*
X91265Y55344D01*
X91107Y56622D02*
X91265Y56781D01*
X91107Y56378D02*
X91265Y56219D01*
X91107Y54222D02*
X91265Y54063D01*
X91107Y53749D02*
X91265Y53908D01*
X91107Y54941D02*
X91265Y54782D01*
X91107Y54467D02*
X91265Y54626D01*
X91107Y57341D02*
X91265Y57500D01*
X91107Y57096D02*
X91265Y56937D01*
X85900Y55726D02*
X89995Y59822D01*
X91107Y57814D02*
X91265Y57656D01*
X85900Y55837D02*
X89995Y51741D01*
X85900Y50697D02*
X89995Y54793D01*
X85900Y58711D02*
X89995Y54615D01*
X85900Y57992D02*
X89995Y53897D01*
X91107Y50157D02*
X91265Y50315D01*
X91107Y49912D02*
X91265Y49753D01*
X91107Y50875D02*
X91265Y51034D01*
X91107Y50630D02*
X91265Y50471D01*
X91107Y48720D02*
X91265Y48879D01*
X91107Y48475D02*
X91265Y48316D01*
X91107Y49438D02*
X91265Y49597D01*
X91107Y49193D02*
X91265Y49035D01*
X91107Y52785D02*
X91265Y52627D01*
X91107Y52312D02*
X91265Y52471D01*
X91107Y53504D02*
X91265Y53345D01*
X91107Y53030D02*
X91265Y53189D01*
X91107Y51593D02*
X91265Y51752D01*
X91107Y51349D02*
X91265Y51190D01*
X85900Y53682D02*
X89995Y49586D01*
X91107Y52067D02*
X91265Y51908D01*
X84679Y60252D02*
X89995Y65569D01*
X84319Y60611D02*
X89995Y66287D01*
X85038Y59893D02*
X89995Y64851D01*
X83960Y60971D02*
X89995Y67006D01*
X85900Y58600D02*
X89995Y62695D01*
X85900Y57881D02*
X89995Y61977D01*
X85397Y59534D02*
X89995Y64132D01*
X85756Y59174D02*
X89995Y63414D01*
X82882Y62048D02*
X85992Y65158D01*
X83242Y61689D02*
X86449Y64896D01*
X82137Y62739D02*
X85539Y66142D01*
X82523Y62407D02*
X85679Y65564D01*
X83601Y61330D02*
X87123Y64852D01*
X82308Y62623D02*
X85737Y59194D01*
X80781Y61674D02*
X84788Y57667D01*
X80062Y61674D02*
X84788Y56948D01*
X85900Y57163D02*
X89995Y61259D01*
X85900Y56444D02*
X89995Y60540D01*
X85900Y55007D02*
X89995Y59103D01*
X85900Y54289D02*
X89995Y58385D01*
X83868Y55714D02*
X84788Y54793D01*
X83868Y54412D02*
X84788Y55333D01*
X83868Y57286D02*
X84788Y58207D01*
X83868Y56568D02*
X84788Y57488D01*
X81685Y61674D02*
X84788Y58571D01*
X81499Y61674D02*
X84788Y58385D01*
X83868Y56432D02*
X84788Y55512D01*
X83868Y55131D02*
X84788Y56052D01*
X83868Y57151D02*
X84788Y56230D01*
X83868Y55849D02*
X84788Y56770D01*
X81950Y59679D02*
X82815Y60544D01*
X81591Y60038D02*
X82456Y60903D01*
X82309Y59320D02*
X83174Y60185D01*
X83387Y58242D02*
X84252Y59107D01*
X83744Y57881D02*
X84611Y58748D01*
X82668Y58960D02*
X83534Y59826D01*
X83028Y58601D02*
X83893Y59466D01*
X75541Y62786D02*
X81915D01*
X81231Y60397D02*
X82097Y61263D01*
X75311Y61674D02*
X81685D01*
X80872Y60756D02*
X81738Y61622D01*
X80657Y60972D02*
X83705Y57924D01*
X79558Y60023D02*
X82756Y56825D01*
X80034Y60023D02*
X82756Y57301D01*
X79514Y59575D02*
X82181Y56908D01*
X82344Y56480D02*
X82756Y56893D01*
X82344Y55762D02*
X82756Y56175D01*
X82344Y55083D02*
X82756Y54670D01*
X82344Y54325D02*
X82756Y54738D01*
X82344Y55801D02*
X82756Y55388D01*
X82344Y55044D02*
X82756Y55456D01*
X81758Y57331D02*
X82242Y57815D01*
X82117Y56972D02*
X82601Y57456D01*
X81039Y58050D02*
X81523Y58534D01*
X81398Y57690D02*
X81883Y58175D01*
X82344Y56519D02*
X82756Y56107D01*
X78891Y58626D02*
X81232Y56285D01*
X85900Y55119D02*
X89995Y51023D01*
X85900Y51415D02*
X89995Y55511D01*
X85900Y54400D02*
X89995Y50305D01*
X85900Y56556D02*
X89995Y52460D01*
X85900Y52134D02*
X89995Y56230D01*
X85900Y52963D02*
X89995Y48868D01*
X85900Y48542D02*
X89995Y52638D01*
X85900Y49979D02*
X89995Y54074D01*
X85900Y49260D02*
X89995Y53356D01*
X85900Y57274D02*
X89995Y53178D01*
X85900Y52852D02*
X89995Y56948D01*
X85900Y53571D02*
X89995Y57666D01*
X83868Y52975D02*
X84788Y53896D01*
X83868Y52840D02*
X84788Y51919D01*
X83868Y51539D02*
X84788Y52459D01*
X83868Y53559D02*
X84788Y52638D01*
X83868Y52257D02*
X84788Y53178D01*
X85900Y47823D02*
X89995Y51919D01*
X85900Y51527D02*
X89995Y47431D01*
X85900Y52245D02*
X89995Y48149D01*
X83868Y48530D02*
X84788Y47609D01*
X85900Y47105D02*
X89995Y51201D01*
X85900Y50808D02*
X89742Y46966D01*
X83868Y47228D02*
X84788Y48149D01*
X83868Y47811D02*
X84788Y46890D01*
X83868Y50685D02*
X84788Y49764D01*
X83868Y49383D02*
X84788Y50304D01*
X83868Y52122D02*
X84788Y51201D01*
X83868Y50102D02*
X84788Y51023D01*
X83868Y49248D02*
X84788Y48327D01*
X83868Y47947D02*
X84788Y48867D01*
X83868Y49967D02*
X84788Y49046D01*
X83868Y48665D02*
X84788Y49586D01*
X83868Y53694D02*
X84788Y54615D01*
X83868Y54277D02*
X84788Y53356D01*
X83868Y54995D02*
X84788Y54075D01*
X82344Y52170D02*
X82756Y52583D01*
X83868Y50820D02*
X84788Y51741D01*
X82344Y51491D02*
X82756Y51078D01*
X82344Y52209D02*
X82756Y51796D01*
X82344Y51451D02*
X82756Y51864D01*
X82344Y53646D02*
X82756Y53233D01*
X82344Y52888D02*
X82756Y53301D01*
X82344Y54364D02*
X82756Y53951D01*
X82344Y53607D02*
X82756Y54020D01*
X82344Y48533D02*
Y56515D01*
Y52927D02*
X82756Y52515D01*
X74489Y58626D02*
X81232Y51883D01*
Y48943D02*
Y56285D01*
X83868Y51403D02*
X84788Y50483D01*
X82344Y50054D02*
X82756Y49641D01*
X82344Y50772D02*
X82756Y50359D01*
X82344Y50015D02*
X82756Y50427D01*
X82344Y48578D02*
X82756Y48991D01*
X82344Y48617D02*
X82756Y48204D01*
X82344Y49296D02*
X82756Y49709D01*
X82344Y49335D02*
X82756Y48922D01*
X82344Y50733D02*
X82756Y51146D01*
X82034Y47994D02*
X82181Y48141D01*
X82141Y48101D02*
X82756Y47486D01*
X77065Y47831D02*
X81642D01*
X69076Y84881D02*
X78712Y94517D01*
X68737Y85261D02*
X77994Y94517D01*
X69255Y84342D02*
X79431Y94517D01*
X68488Y78278D02*
X72376Y74389D01*
X68488Y74235D02*
X72376Y78124D01*
X68488Y78997D02*
X72376Y75108D01*
X68488Y74953D02*
X72376Y78842D01*
X67500Y85461D02*
X76557Y94517D01*
X68252Y85494D02*
X77275Y94517D01*
X63743D02*
X72742Y85519D01*
X64461Y94517D02*
X73669Y85310D01*
X68488Y82856D02*
X80149Y94517D01*
X68488Y82138D02*
X80867Y94517D01*
X68488Y79715D02*
X72376Y75826D01*
X68488Y75672D02*
X72376Y79561D01*
X68488Y73968D02*
X72376Y70079D01*
X68488Y69924D02*
X72376Y73813D01*
X68488Y74686D02*
X72376Y70797D01*
X68488Y70643D02*
X72376Y74532D01*
X68488Y72531D02*
X72376Y68642D01*
X68488Y68488D02*
X72376Y72376D01*
X68488Y73249D02*
X72376Y69360D01*
X68488Y69206D02*
X72376Y73095D01*
X68488Y76841D02*
X72376Y72952D01*
X68488Y72798D02*
X72376Y76687D01*
X68488Y77560D02*
X72376Y73671D01*
X68488Y73517D02*
X72376Y77405D01*
X68488Y75404D02*
X72376Y71516D01*
X68488Y71361D02*
X72376Y75250D01*
X68488Y76123D02*
X72376Y72234D01*
X68488Y72080D02*
X72376Y75968D01*
X69245Y83986D02*
X72376Y80855D01*
X69043Y83470D02*
X72376Y80137D01*
X68688Y83107D02*
X72376Y79418D01*
X69087Y84863D02*
X72376Y81574D01*
X68488Y79982D02*
X71885Y83380D01*
X68488Y78545D02*
X72376Y82434D01*
X68488Y81870D02*
X72376Y77981D01*
X68488Y79264D02*
X72271Y83047D01*
X68488Y82589D02*
X72376Y78700D01*
X62306Y94517D02*
X71849Y84975D01*
X63025Y94517D02*
X72218Y85325D01*
X61588Y94517D02*
X71630Y84475D01*
X60869Y94517D02*
X71709Y83678D01*
X68488Y81419D02*
X71660Y84591D01*
X68488Y80701D02*
X71646Y83859D01*
X68488Y77109D02*
X72376Y80997D01*
X68488Y80433D02*
X72376Y76545D01*
X68488Y77827D02*
X72376Y81716D01*
X68488Y81152D02*
X72376Y77263D01*
X68488Y76390D02*
X72376Y80279D01*
X64278Y68588D02*
X67376Y71687D01*
X63559Y69307D02*
X67376Y73124D01*
X63918Y68947D02*
X67376Y72405D01*
X61404Y71462D02*
X67376Y77434D01*
X61763Y71103D02*
X67376Y76716D01*
X60686Y72180D02*
X67376Y78871D01*
X61045Y71821D02*
X67376Y78153D01*
X62841Y70025D02*
X67376Y74561D01*
X63200Y69666D02*
X67376Y73842D01*
X62122Y70743D02*
X67376Y75997D01*
X62482Y70384D02*
X67376Y75279D01*
X73488Y64839D02*
Y82993D01*
X72376Y64609D02*
Y82993D01*
X68755Y65162D02*
X72376Y68784D01*
X68755Y66599D02*
X72376Y70221D01*
X68755Y65881D02*
X72376Y69503D01*
X73488Y70404D02*
X81106Y62786D01*
X73488Y69686D02*
X80388Y62786D01*
X73488Y68968D02*
X79670Y62786D01*
X73488Y68249D02*
X78951Y62786D01*
X68488Y67769D02*
X72376Y71658D01*
X68741Y67304D02*
X72376Y70940D01*
X68488Y68488D02*
X72376Y72376D01*
X68488Y71812D02*
X72376Y67924D01*
X68488Y69657D02*
X72376Y65768D01*
X68488Y68939D02*
X72376Y65050D01*
X68488Y71094D02*
X72376Y67205D01*
X68488Y70375D02*
X72376Y66487D01*
X73488Y67531D02*
X78233Y62786D01*
X73488Y66812D02*
X77514Y62786D01*
X73488Y66094D02*
X76796Y62786D01*
X73488Y65375D02*
X76077Y62786D01*
X68755Y65798D02*
X73418Y61135D01*
X68755Y65080D02*
X72700Y61135D01*
X68755Y62289D02*
X72376Y65911D01*
X68755Y61570D02*
X72376Y65192D01*
X68755Y63726D02*
X72376Y67347D01*
X68755Y63007D02*
X72376Y66629D01*
X68755Y64444D02*
X72376Y68066D01*
X68488Y68220D02*
X75573Y61135D01*
X68752Y67237D02*
X74855Y61135D01*
X68755D02*
Y67183D01*
Y66516D02*
X74136Y61135D01*
X68488Y67680D02*
X68592Y67576D01*
X68488Y67680D02*
Y82993D01*
X67376Y67450D02*
Y82993D01*
X66433Y66433D02*
X67381Y67381D01*
X66074Y66792D02*
X67376Y68095D01*
X66433Y66433D02*
X67381Y67381D01*
X65355Y67510D02*
X67376Y69532D01*
X65714Y67151D02*
X67376Y68813D01*
X64637Y68229D02*
X67376Y70968D01*
X64996Y67870D02*
X67376Y70250D01*
X61293Y65604D02*
X63492Y67802D01*
X61652Y65244D02*
X63851Y67443D01*
X60575Y66322D02*
X62773Y68521D01*
X60934Y65963D02*
X63133Y68162D01*
X66716Y65998D02*
X67643Y66925D01*
X66723Y65286D02*
X67643Y66207D01*
X67539Y67057D02*
X67643Y66953D01*
Y60725D02*
Y66953D01*
X66723Y64567D02*
X67643Y65488D01*
X66723Y60428D02*
Y65913D01*
Y65675D02*
X67643Y64754D01*
X62730Y64167D02*
X64929Y66366D01*
X62012Y64885D02*
X64210Y67084D01*
X62371Y64526D02*
X64570Y66725D01*
X65611Y60198D02*
Y65683D01*
X63448Y63448D02*
X65611Y65611D01*
X63089Y63808D02*
X65288Y66006D01*
X63448Y63448D02*
X65611Y65611D01*
X60151Y94517D02*
X72376Y82292D01*
X58138Y85438D02*
X67217Y94517D01*
X58200Y79752D02*
X72965Y94517D01*
X57507Y85526D02*
X66499Y94517D01*
X57996D02*
X67200Y85313D01*
X58200Y77597D02*
X75120Y94517D01*
X58200Y76879D02*
X75838Y94517D01*
X58200Y79034D02*
X73683Y94517D01*
X58200Y78315D02*
X74402Y94517D01*
X57277D02*
X66837Y84958D01*
X55122Y94517D02*
X67376Y82263D01*
X56559Y94517D02*
X66625Y84451D01*
X55840Y94517D02*
X66733Y83625D01*
X52967Y94517D02*
X67376Y80108D01*
X52248Y94517D02*
X67376Y79389D01*
X54404Y94517D02*
X67376Y81545D01*
X53685Y94517D02*
X67376Y80826D01*
X59432Y94517D02*
X68593Y85357D01*
X58866Y84729D02*
X68654Y94517D01*
X58714D02*
X67716Y85515D01*
X58573Y85155D02*
X67936Y94517D01*
X58972Y84117D02*
X69373Y94517D01*
X58839Y83616D02*
X67376Y75079D01*
X58975Y84199D02*
X67376Y75797D01*
X58530Y74336D02*
X67253Y83058D01*
X58200Y81189D02*
X71528Y94517D01*
X58200Y80471D02*
X72246Y94517D01*
X58200Y82626D02*
X70091Y94517D01*
X58200Y81907D02*
X70810Y94517D01*
X58200Y74723D02*
X66873Y83397D01*
X58529Y83208D02*
X67376Y74360D01*
X58200Y76160D02*
X66673Y84634D01*
X58200Y75442D02*
X66640Y83882D01*
X53857Y84749D02*
X63625Y94517D01*
X53558Y85169D02*
X62907Y94517D01*
X53973Y84147D02*
X64344Y94517D01*
X53513Y83195D02*
X57088Y79619D01*
Y74436D02*
Y82993D01*
X53974Y84170D02*
X57088Y81056D01*
X53829Y83597D02*
X57088Y80338D01*
X53117Y85446D02*
X62188Y94517D01*
X53200Y82655D02*
X65062Y94517D01*
X52474Y85522D02*
X61470Y94517D01*
X53200Y81936D02*
X65781Y94517D01*
X53200Y79781D02*
X56691Y83273D01*
X53200Y81218D02*
X56320Y84339D01*
X53200Y80500D02*
X56408Y83708D01*
X53200Y75471D02*
X57088Y79359D01*
X53200Y79198D02*
X57088Y75309D01*
X53200Y76189D02*
X57088Y80078D01*
X53200Y79916D02*
X57088Y76027D01*
X58200Y74666D02*
Y82993D01*
X53200Y74752D02*
X57088Y78641D01*
X53200Y78479D02*
X57088Y74590D01*
X53200Y78344D02*
X57088Y82233D01*
X53200Y82071D02*
X57088Y78183D01*
X53200Y79063D02*
X57088Y82952D01*
X53200Y82790D02*
X57088Y78901D01*
X53200Y76907D02*
X57088Y80796D01*
X53200Y80635D02*
X57088Y76746D01*
X53200Y77626D02*
X57088Y81515D01*
X53200Y81353D02*
X57088Y77464D01*
X59967Y72899D02*
X67376Y80308D01*
X59608Y73258D02*
X67376Y81026D01*
X60326Y72539D02*
X67376Y79590D01*
X58889Y73976D02*
X67376Y82463D01*
X59249Y73617D02*
X67376Y81745D01*
X58200Y77071D02*
X67376Y67895D01*
X58200Y76353D02*
X67643Y66909D01*
X58200Y78508D02*
X67376Y69331D01*
X58200Y77790D02*
X67376Y68613D01*
X58200Y81382D02*
X67376Y72205D01*
X58200Y80663D02*
X67376Y71487D01*
X58200Y82819D02*
X67376Y73642D01*
X58200Y82100D02*
X67376Y72924D01*
X58200Y79945D02*
X67376Y70768D01*
X58200Y79227D02*
X67376Y70050D01*
X53200Y77761D02*
X65611Y65349D01*
X53200Y77042D02*
X65611Y64631D01*
X59138Y67759D02*
X61337Y69958D01*
X59497Y67400D02*
X61696Y69598D01*
X58419Y68477D02*
X60618Y70676D01*
X58779Y68118D02*
X60977Y70317D01*
X58200Y74916D02*
X67643Y65472D01*
X58200Y74666D02*
X66560Y66306D01*
X59856Y67040D02*
X62055Y69239D01*
X60215Y66681D02*
X62414Y68880D01*
X58200Y75635D02*
X67643Y66191D01*
X53200Y75606D02*
X65611Y63194D01*
X53200Y76324D02*
X65611Y63912D01*
X57251Y74043D02*
X65611Y65683D01*
X53200Y74887D02*
X65611Y62475D01*
X53200Y74169D02*
X65611Y61757D01*
X53200Y73697D02*
X64020Y62877D01*
X52251Y73074D02*
X63071Y62254D01*
X55905Y70992D02*
X58104Y73191D01*
X56264Y70633D02*
X58463Y72831D01*
X55546Y71351D02*
X57744Y73550D01*
X57342Y69555D02*
X59541Y71754D01*
X57701Y69196D02*
X59900Y71395D01*
X56623Y70273D02*
X58822Y72472D01*
X56983Y69914D02*
X59181Y72113D01*
X53390Y73506D02*
X57088Y77204D01*
X53750Y73147D02*
X57088Y76486D01*
X53200Y73697D02*
Y82993D01*
Y74034D02*
X57088Y77923D01*
X54827Y72069D02*
X57097Y74339D01*
X55187Y71710D02*
X57385Y73909D01*
X54109Y72788D02*
X57088Y75767D01*
X54468Y72429D02*
X57088Y75049D01*
X58060Y68837D02*
X60259Y71035D01*
X56115Y64018D02*
X58711Y66614D01*
X55413Y64753D02*
X57993Y67332D01*
X55772Y64393D02*
X58352Y66973D01*
X56182Y61929D02*
X59789Y65536D01*
X56182Y61211D02*
X60148Y65177D01*
X56182Y63366D02*
X59071Y66255D01*
X56182Y62647D02*
X59430Y65896D01*
X53258Y66908D02*
X55838Y69488D01*
X53617Y66549D02*
X56197Y69128D01*
X52539Y67626D02*
X55119Y70206D01*
X52899Y67267D02*
X55478Y69847D01*
X54695Y65471D02*
X57274Y68051D01*
X55054Y65112D02*
X57634Y67692D01*
X53976Y66189D02*
X56556Y68769D01*
X54335Y65830D02*
X56915Y68410D01*
X78377Y61135D02*
X78917Y61674D01*
X76940Y61135D02*
X77480Y61674D01*
X78626D02*
X79165Y61135D01*
X76221D02*
X76761Y61674D01*
X76470D02*
X77010Y61135D01*
X79814D02*
X80353Y61674D01*
X80486Y61088D02*
X81072Y61674D01*
X79095Y61135D02*
X79635Y61674D01*
X79344D02*
X79884Y61135D01*
X73488Y64839D02*
X75541Y62786D01*
X72539Y64216D02*
X74918Y61837D01*
X75503Y61135D02*
X76043Y61674D01*
X75752D02*
X76292Y61135D01*
X74066D02*
X74843Y61912D01*
X74785Y61135D02*
X75324Y61674D01*
X77907D02*
X78447Y61135D01*
X77189Y61674D02*
X77728Y61135D01*
X77658D02*
X78198Y61674D01*
X78121Y60023D02*
X78407Y59738D01*
X77403Y60023D02*
X77689Y59738D01*
X77698D02*
X77984Y60023D01*
X68755Y61135D02*
X80264D01*
X68345Y60023D02*
X80034D01*
X74824Y59738D02*
X75110Y60023D01*
X75248D02*
X75533Y59738D01*
X76684Y60023D02*
X76970Y59738D01*
X76980D02*
X77266Y60023D01*
X75543Y59738D02*
X75829Y60023D01*
X75966D02*
X76252Y59738D01*
X69756Y61135D02*
X72688Y64067D01*
X70474Y61135D02*
X73047Y63708D01*
X69037Y61135D02*
X72390Y64487D01*
X72629Y61135D02*
X74125Y62630D01*
X73348Y61135D02*
X74484Y62271D01*
X71192Y61135D02*
X73407Y63349D01*
X71911Y61135D02*
X73766Y62989D01*
X68755Y64361D02*
X71981Y61135D01*
X68755Y63643D02*
X71263Y61135D01*
X68755Y62924D02*
X70544Y61135D01*
X68755Y62206D02*
X69826Y61135D01*
X68755Y61487D02*
X69107Y61135D01*
X67806Y60333D02*
X67953Y60186D01*
X72669Y59738D02*
X72955Y60023D01*
X73092D02*
X73378Y59738D01*
X71951D02*
X72237Y60023D01*
X72374D02*
X72660Y59738D01*
X74106D02*
X74392Y60023D01*
X74529D02*
X74815Y59738D01*
X73388D02*
X73673Y60023D01*
X73811D02*
X74097Y59738D01*
X69500Y60023D02*
X69786Y59738D01*
X69796D02*
X70081Y60023D01*
X68359Y59738D02*
X68644Y60023D01*
X69077Y59738D02*
X69363Y60023D01*
X70937D02*
X71223Y59738D01*
X71232D02*
X71518Y60023D01*
X70219D02*
X70504Y59738D01*
X70514D02*
X70800Y60023D01*
X79602Y59486D02*
X80087Y59971D01*
X78840Y60023D02*
X79125Y59738D01*
X79135Y59737D02*
X79421Y60023D01*
X80680Y58409D02*
X81164Y58893D01*
X78800Y58626D02*
X81232Y56194D01*
X79961Y59127D02*
X80446Y59612D01*
X80321Y58768D02*
X80805Y59252D01*
X78081Y58626D02*
X81232Y55475D01*
X77363Y58626D02*
X81232Y54757D01*
X78417Y59738D02*
X78702Y60023D01*
X74679Y54563D02*
X78742Y58626D01*
X75208D02*
X81232Y52602D01*
X71616Y58626D02*
X81232Y49010D01*
X70897Y58626D02*
X80581Y48943D01*
X76645Y58626D02*
X81232Y54039D01*
X76961Y48943D02*
X81232Y53214D01*
X77679Y48943D02*
X81232Y52496D01*
X75926Y58626D02*
X81232Y53320D01*
X76835Y48943D02*
X81232D01*
X79835D02*
X81232Y50340D01*
X80553Y48943D02*
X81232Y49622D01*
X78398Y48943D02*
X81232Y51777D01*
X79116Y48943D02*
X81232Y51059D01*
X73771Y58626D02*
X81232Y51165D01*
X75522Y53251D02*
X79894Y57623D01*
X75116Y54282D02*
X79176Y58342D01*
X75411Y53859D02*
X79535Y57982D01*
X73052Y58626D02*
X81232Y50446D01*
X72334Y58626D02*
X81232Y49728D01*
X75523Y53282D02*
X79863Y48943D01*
X75375Y52712D02*
X79144Y48943D01*
X76261Y59738D02*
X76547Y60023D01*
X74044Y54646D02*
X78024Y58626D01*
X71655Y60023D02*
X71941Y59738D01*
X70179Y58626D02*
X74151Y54654D01*
X70523Y53281D02*
X75869Y58626D01*
X70402Y53879D02*
X75150Y58626D01*
X69460D02*
X73581Y54506D01*
X69658Y54571D02*
X73713Y58626D01*
X68782Y60023D02*
X69068Y59738D01*
X69010Y54642D02*
X72995Y58626D01*
X68742D02*
X73181Y54188D01*
X70101Y54296D02*
X74432Y58626D01*
X68023D02*
X72924Y53725D01*
X75057Y52312D02*
X78426Y48943D01*
X75553Y47891D02*
X76442Y48780D01*
X76502Y47268D02*
X77065Y47831D01*
X76502Y47046D02*
X77287Y47831D01*
X73907Y52025D02*
X76989Y48943D01*
X70522Y53254D02*
X75719Y48057D01*
X74594Y52055D02*
X77707Y48943D01*
X70365Y52693D02*
X75411Y47647D01*
X70041Y52299D02*
X75390Y46949D01*
X66808Y60342D02*
X67643Y61178D01*
X66723Y62083D02*
X67643Y61162D01*
X66723Y60975D02*
X67643Y61896D01*
X66723Y61364D02*
X68349Y59738D01*
X67167Y59983D02*
X67689Y60505D01*
X66723Y60646D02*
X67631Y59738D01*
X66723Y60428D02*
X67413Y59738D01*
X66723Y64238D02*
X67643Y63317D01*
X66723Y63130D02*
X67643Y64051D01*
X66723Y64956D02*
X67643Y64035D01*
X66723Y63849D02*
X67643Y64770D01*
X66723Y62801D02*
X67643Y61880D01*
X66723Y61694D02*
X67643Y62614D01*
X66723Y63519D02*
X67643Y62599D01*
X66723Y62412D02*
X67643Y63333D01*
X67640Y59738D02*
X68027Y60124D01*
X67413Y59738D02*
X79121D01*
X67183Y58626D02*
X78891D01*
X65774Y59805D02*
X66790Y58789D01*
X64183Y56998D02*
X66382Y59198D01*
X64183Y56280D02*
X66741Y58838D01*
X64183Y58435D02*
X65679Y59932D01*
X64183Y57717D02*
X66023Y59557D01*
X64183Y59594D02*
X69123Y54653D01*
X64183Y58875D02*
X68562Y54496D01*
X64183Y55562D02*
X67247Y58626D01*
X64183Y54843D02*
X67966Y58626D01*
X64138Y62701D02*
X65611Y64175D01*
X63808Y63089D02*
X65611Y64893D01*
X64183Y62027D02*
X65611Y63456D01*
X64183Y61309D02*
X65611Y62738D01*
X56182Y56182D02*
X62663Y62663D01*
X56182Y56900D02*
X62303Y63022D01*
X56182Y56182D02*
X62663Y62663D01*
X56182Y60492D02*
X60507Y64818D01*
X56182Y59774D02*
X60867Y64459D01*
X56182Y57618D02*
X61944Y63381D01*
X56182Y63284D02*
X63071Y56394D01*
X56182Y59055D02*
X61226Y64099D01*
X56182Y58337D02*
X61585Y63740D01*
X64183Y61749D02*
X65611Y60320D01*
X64183Y59872D02*
X65611Y61301D01*
X64183Y62467D02*
X65611Y61038D01*
X64183Y60590D02*
X65611Y62019D01*
X64183Y59154D02*
X65611Y60582D01*
X57251Y54377D02*
X63071Y60198D01*
X58236Y54643D02*
X63071Y59479D01*
X58765Y54455D02*
X63071Y58761D01*
X56182Y61847D02*
X63071Y54957D01*
X56182Y54745D02*
X63071Y61635D01*
X56182Y62566D02*
X63071Y55676D01*
X56182Y55463D02*
X63022Y62303D01*
X56182Y56818D02*
X58384Y54615D01*
X56182Y56100D02*
X57683Y54599D01*
X53210Y54647D02*
X55070Y56507D01*
X53747Y54466D02*
X55070Y55789D01*
X64183Y53406D02*
X69403Y58626D01*
X64183Y54125D02*
X68684Y58626D01*
X67305D02*
X72894Y53038D01*
X64183Y58157D02*
X68168Y54172D01*
X64183Y57438D02*
X67918Y53703D01*
X64183Y51969D02*
X70840Y58626D01*
X64183Y51251D02*
X71558Y58626D01*
X64183Y52688D02*
X70121Y58626D01*
X64183Y56720D02*
X67902Y53000D01*
X56182Y58974D02*
X63071Y52084D01*
X56182Y58255D02*
X63071Y51365D01*
X56182Y60410D02*
X63071Y53521D01*
X59362Y53615D02*
X63071Y57324D01*
X64183Y61030D02*
X76438Y48775D01*
X64183Y60312D02*
X76078Y48416D01*
X64183Y50533D02*
X72276Y58626D01*
X56182Y57537D02*
X63071Y50647D01*
X64183Y49814D02*
X67875Y53507D01*
X64183Y49096D02*
X67946Y52859D01*
X59355Y53644D02*
X63071Y49928D01*
X59339Y52943D02*
X63071Y49210D01*
X64183Y47659D02*
X68638Y52115D01*
X64183Y46940D02*
X69236Y51994D01*
X59088Y52475D02*
X63071Y48492D01*
X64183Y48377D02*
X68221Y52416D01*
X57154Y48533D02*
X63071Y54450D01*
X57514Y48174D02*
X63071Y53732D01*
X56436Y49252D02*
X63071Y55887D01*
X56795Y48893D02*
X63071Y55169D01*
X58131Y51995D02*
X63071Y47055D01*
X58591Y47097D02*
X63071Y51577D01*
X58232Y47456D02*
X63071Y52295D01*
X58693Y52152D02*
X63071Y47773D01*
X59138Y54109D02*
X63071Y58042D01*
X56182Y55381D02*
X57215Y54348D01*
X56182Y54663D02*
X56892Y53953D01*
X56182Y53945D02*
X56735Y53391D01*
X56182Y59692D02*
X63071Y52802D01*
X59302Y52836D02*
X63071Y56606D01*
X56182Y53308D02*
X57011Y54137D01*
X56182Y61129D02*
X63071Y54239D01*
X56182Y54026D02*
X63071Y60916D01*
X54126Y54126D02*
X55070Y55070D01*
X54126Y54126D02*
X55070Y55070D01*
X56182Y49506D02*
Y63754D01*
X55070Y49276D02*
Y63524D01*
X54357Y53638D02*
X55070Y54352D01*
X54319Y52882D02*
X55070Y53634D01*
X56182Y51153D02*
X57279Y52250D01*
X56182Y50434D02*
X57773Y52026D01*
X56182Y52589D02*
X56745Y53152D01*
X56182Y51871D02*
X56933Y52623D01*
X57873Y47815D02*
X63071Y53014D01*
X56182Y49716D02*
X58552Y52086D01*
X54075Y52459D02*
X55070Y51464D01*
X53674Y52142D02*
X55070Y50745D01*
X54364Y53607D02*
X55070Y52901D01*
X54332Y52921D02*
X55070Y52182D01*
X52628Y47599D02*
X55070Y50041D01*
X52987Y47240D02*
X55070Y49323D01*
X53103Y51994D02*
X55070Y50027D01*
X52269Y47958D02*
X55070Y50760D01*
X92377Y47205D02*
X94517Y45064D01*
X92377Y45679D02*
X94517Y47820D01*
X92377Y44961D02*
X94517Y47102D01*
X92377Y46398D02*
X94517Y48538D01*
X92377Y47923D02*
X94517Y45783D01*
X92377Y45768D02*
X94517Y43627D01*
X92377Y43524D02*
X94517Y45665D01*
X92377Y46486D02*
X94517Y44346D01*
X92377Y44242D02*
X94517Y46383D01*
X92377Y48642D02*
X94517Y46501D01*
X90886Y46540D02*
X91265Y46161D01*
X91107Y47038D02*
X91265Y46879D01*
X89583Y44322D02*
X91265Y46005D01*
X90168Y45821D02*
X91265Y44724D01*
X89583Y45040D02*
X91265Y46723D01*
X90527Y46181D02*
X91265Y45442D01*
X92377Y44331D02*
X94517Y42190D01*
X92377Y42087D02*
X94517Y44228D01*
X92377Y45050D02*
X94517Y42909D01*
X92377Y42806D02*
X94517Y44946D01*
X92377Y41369D02*
X94517Y43509D01*
X92377Y42894D02*
X94517Y40754D01*
X92377Y43613D02*
X94517Y41472D01*
X89996Y41862D02*
X91265Y43131D01*
X89583Y44970D02*
X91265Y43287D01*
X89583Y42885D02*
X91265Y44568D01*
X89809Y45462D02*
X91265Y44006D01*
X89583Y43604D02*
X91265Y45286D01*
X89583Y43533D02*
X91265Y41850D01*
X89583Y42815D02*
X91265Y41132D01*
X89583Y44252D02*
X91265Y42569D01*
X89749Y42334D02*
X91265Y43850D01*
X88634Y45859D02*
X89995Y47220D01*
X85900Y47935D02*
X88471Y45363D01*
X85900Y43513D02*
X89995Y47609D01*
X89583Y45236D02*
X90944Y46597D01*
X85900Y47216D02*
X88471Y44644D01*
X85900Y46498D02*
X88471Y43926D01*
X85900Y46386D02*
X89995Y50482D01*
X85900Y50090D02*
X89382Y46607D01*
X85900Y49371D02*
X89023Y46248D01*
X85900Y48653D02*
X88664Y45889D01*
X85900Y44950D02*
X89995Y49045D01*
X85900Y44231D02*
X89995Y48327D01*
X85900Y42394D02*
Y58801D01*
Y45668D02*
X89995Y49764D01*
X89583Y42476D02*
Y45236D01*
X88471Y42476D02*
Y45466D01*
X88410Y42431D02*
X88471Y42492D01*
X86777Y41517D02*
X88471Y43211D01*
X87136Y41157D02*
X88252Y42273D01*
X85900Y45061D02*
X88471Y42489D01*
X86059Y42235D02*
X88471Y44648D01*
X85900Y45779D02*
X88471Y43207D01*
X85900Y42794D02*
X88471Y45366D01*
X85900Y44342D02*
X88142Y42100D01*
X86418Y41876D02*
X88471Y43929D01*
X85900Y43624D02*
X88054Y41469D01*
X85900Y42394D02*
X87134Y41160D01*
X92377Y33466D02*
X94517Y35607D01*
X92377Y35710D02*
X94517Y33569D01*
X92377Y34992D02*
X94517Y32851D01*
X92377Y36429D02*
X94517Y34288D01*
X92377Y34184D02*
X94517Y36325D01*
Y483D02*
Y94517D01*
X92377Y32029D02*
X94517Y34170D01*
X92377Y32748D02*
X94517Y34888D01*
X92377Y34273D02*
X94517Y32132D01*
X92377Y39932D02*
X94517Y42073D01*
X92377Y41458D02*
X94517Y39317D01*
X92377Y40650D02*
X94517Y42791D01*
X92377Y42176D02*
X94517Y40035D01*
X92377Y37147D02*
X94517Y35006D01*
X92377Y34903D02*
X94517Y37044D01*
X92377Y39213D02*
X94517Y41354D01*
X92377Y37058D02*
X94517Y39199D01*
X92377Y29963D02*
X94517Y27822D01*
X92377Y27719D02*
X94517Y29859D01*
X92377Y30681D02*
X94517Y28540D01*
X92377Y28437D02*
X94517Y30578D01*
X92377Y28526D02*
X94517Y26385D01*
X92377Y26282D02*
X94517Y28423D01*
X92377Y29244D02*
X94517Y27104D01*
X92377Y27000D02*
X94517Y29141D01*
X92377Y32836D02*
X94517Y30696D01*
X92377Y30592D02*
X94517Y32733D01*
X92377Y33555D02*
X94517Y31414D01*
X92377Y31311D02*
X94517Y33452D01*
X92377Y31400D02*
X94517Y29259D01*
X92377Y29156D02*
X94517Y31296D01*
X92377Y32118D02*
X94517Y29977D01*
X92377Y29874D02*
X94517Y32015D01*
X89852Y41108D02*
X91265Y39695D01*
X89471Y40771D02*
X91265Y38977D01*
X92377Y40739D02*
X94517Y38598D01*
X90018Y41661D02*
X91265Y40413D01*
X92377Y25146D02*
Y80601D01*
Y38495D02*
X94517Y40636D01*
X91265Y25376D02*
Y80371D01*
X88840Y40683D02*
X91265Y38258D01*
X87297Y40599D02*
X88076Y41379D01*
X87297Y39881D02*
X88349Y40933D01*
X87297Y39555D02*
Y40767D01*
X86185Y39555D02*
Y40537D01*
X85900Y42906D02*
X91265Y37540D01*
X87296Y40791D02*
X91265Y36821D01*
X87722Y38870D02*
X91265Y42413D01*
X87503Y39368D02*
X88821Y40687D01*
X92377Y39302D02*
X94517Y37161D01*
X92377Y38584D02*
X94517Y36443D01*
X92377Y40021D02*
X94517Y37880D01*
X92377Y37777D02*
X94517Y39917D01*
X92377Y37865D02*
X94517Y35725D01*
X92377Y35621D02*
X94517Y37762D01*
X87710Y38940D02*
X91265Y35384D01*
X92377Y36340D02*
X94517Y38481D01*
X87297Y40072D02*
X91265Y36103D01*
X86750Y37744D02*
X91265Y33229D01*
X86299Y23797D02*
X91265Y28763D01*
X87631Y38300D02*
X91265Y34666D01*
X87298Y37916D02*
X91265Y33948D01*
X83868Y42918D02*
X84788Y43838D01*
X83868Y44219D02*
X84788Y43298D01*
X83868Y43501D02*
X84788Y42580D01*
X83868Y44938D02*
X84788Y44017D01*
X83868Y43636D02*
X84788Y44557D01*
X83868Y42782D02*
X86185Y40464D01*
X84007Y41620D02*
X84788Y42402D01*
Y42164D02*
Y58571D01*
X83868Y42199D02*
X84788Y43120D01*
X83868Y45791D02*
X84788Y46712D01*
X83868Y46374D02*
X84788Y45454D01*
X83868Y46510D02*
X84788Y47431D01*
X83868Y47093D02*
X84788Y46172D01*
X83868Y45656D02*
X84788Y44735D01*
X83868Y44354D02*
X84788Y45275D01*
X83868Y45073D02*
X84788Y45994D01*
X80227Y43550D02*
X84366Y39411D01*
X84951Y41771D02*
X86185Y40537D01*
X85444Y40183D02*
X85991Y40731D01*
X85084Y40542D02*
X85632Y41090D01*
X85646Y39667D02*
X86185Y40206D01*
X85646Y39555D02*
Y39751D01*
X84725Y40902D02*
X85273Y41449D01*
X84366Y41261D02*
X84916Y41810D01*
X83868Y42064D02*
X86185Y39746D01*
X83868Y41759D02*
X85483Y40144D01*
X82919Y41136D02*
X84514Y39541D01*
X80974Y47831D02*
X82756Y46049D01*
X80255Y47831D02*
X82756Y45330D01*
X79537Y47831D02*
X82756Y44612D01*
X81690Y47834D02*
X82756Y46767D01*
X78225Y44460D02*
X81597Y47831D01*
X83868Y41759D02*
Y57531D01*
X82756Y41529D02*
Y57301D01*
X78944Y44460D02*
X82756Y48272D01*
X78818Y47831D02*
X82756Y43893D01*
X66709Y42282D02*
X80972Y56545D01*
X77382Y47831D02*
X82756Y42457D01*
X66349Y42641D02*
X80613Y56905D01*
X76502Y43454D02*
X80879Y47831D01*
X67786Y41205D02*
X81232Y54651D01*
X68145Y40845D02*
X81232Y53932D01*
X67068Y41923D02*
X81232Y56088D01*
X67427Y41564D02*
X81232Y55369D01*
X80227Y42869D02*
X82756Y45398D01*
X80227Y44268D02*
X82756Y41738D01*
X80227Y44306D02*
X82756Y46835D01*
X80227Y43587D02*
X82756Y46117D01*
X80227Y42831D02*
X84120Y38937D01*
X80222Y40708D02*
X82756Y43243D01*
X79779Y41703D02*
X82756Y44680D01*
X80108Y41313D02*
X82756Y43962D01*
X78100Y47831D02*
X82756Y43175D01*
X79662Y44460D02*
X82756Y47554D01*
X80197Y38528D02*
X82866Y41198D01*
X80027Y37640D02*
X83221Y40834D01*
X79532Y39300D02*
X82756Y42525D01*
X79953Y39003D02*
X82756Y41806D01*
X80227Y30656D02*
X91265Y41694D01*
X80091Y42248D02*
X91265Y31074D01*
X80219Y40684D02*
X91265Y29637D01*
X85766Y38011D02*
X91265Y32511D01*
X85292Y37765D02*
X91265Y31792D01*
X80153Y37876D02*
X91265Y26763D01*
X79859Y37451D02*
X91265Y26045D01*
X80017Y40167D02*
X91265Y28919D01*
X80190Y38558D02*
X91265Y27482D01*
X78052Y27763D02*
X91265Y40976D01*
X78411Y27403D02*
X91265Y40257D01*
X79373Y42248D02*
X91265Y30356D01*
X79632Y39834D02*
X91265Y28200D01*
X79489Y26326D02*
X91265Y38102D01*
X79848Y25967D02*
X91265Y37384D01*
X78771Y27044D02*
X91265Y39539D01*
X79130Y26685D02*
X91265Y38821D01*
X82003Y23811D02*
X91265Y33073D01*
X82707Y23797D02*
X91265Y32355D01*
X81285Y24530D02*
X91265Y34510D01*
X81644Y24171D02*
X91265Y33792D01*
X84862Y23797D02*
X91265Y30200D01*
X85581Y23797D02*
X91265Y29481D01*
X83426Y23797D02*
X91265Y31636D01*
X84144Y23797D02*
X91265Y30918D01*
X80207Y25607D02*
X91265Y36665D01*
X80567Y25248D02*
X91265Y35947D01*
X79390Y37202D02*
X91241Y25351D01*
X80223Y35650D02*
X90881Y24992D01*
X80926Y24889D02*
X91265Y35229D01*
X80038Y35117D02*
X90522Y24633D01*
X79665Y34772D02*
X90163Y24274D01*
X80167Y33551D02*
X89804Y23915D01*
X80225Y35683D02*
X84299Y39757D01*
X80186Y33489D02*
X84582Y37885D01*
X80090Y36266D02*
X83939Y40116D01*
X79928Y33949D02*
X84227Y38248D01*
X80166Y32834D02*
X89206Y23794D01*
X79886Y32396D02*
X88780Y23501D01*
X80071Y31219D02*
X86606Y37754D01*
X80104Y32688D02*
X85163Y37747D01*
X79495Y34234D02*
X84106Y38845D01*
X79718Y31584D02*
X86108Y37973D01*
X79749Y36644D02*
X83580Y40475D01*
X74300Y31516D02*
X82019Y23797D01*
X75460Y32511D02*
X84174Y23797D01*
X79430Y32133D02*
X88555Y23008D01*
X75101Y32151D02*
X83456Y23797D01*
X74742Y31792D02*
X82738Y23797D01*
X80058Y30068D02*
X86330Y23797D01*
X79697Y29710D02*
X85611Y23797D01*
X75450Y30365D02*
X82018Y23797D01*
X79141Y29549D02*
X84893Y23797D01*
X80226Y30619D02*
X87051Y23794D01*
X74244Y29416D02*
X86313Y17348D01*
X74827Y29416D02*
X81395Y22848D01*
X73526Y29416D02*
X83721Y19221D01*
X72807Y29416D02*
X83192Y19031D01*
X71453Y29333D02*
X81625Y19161D01*
X71055Y29013D02*
X80906Y19162D01*
X70415Y28935D02*
X80475Y18875D01*
X67060Y29416D02*
X82720Y13756D01*
X72089Y29416D02*
X82858Y18647D01*
X66357Y29401D02*
X82361Y13397D01*
X65987Y29052D02*
X82002Y13037D01*
X92377Y26371D02*
X94517Y24230D01*
X92377Y27089D02*
X94517Y24948D01*
X92377Y25652D02*
X94517Y23511D01*
X92377Y27808D02*
X94517Y25667D01*
X92377Y25563D02*
X94517Y27704D01*
X91667Y24206D02*
X94517Y21356D01*
X91308Y23847D02*
X94517Y20638D01*
X92346Y24964D02*
X94517Y22793D01*
X92026Y24566D02*
X94517Y22075D01*
X89583Y20614D02*
X94517Y25549D01*
X90949Y23488D02*
X94517Y19919D01*
X90518Y22986D02*
X94517Y26986D01*
X89571Y21321D02*
X94517Y26267D01*
X89583Y19177D02*
X94517Y24112D01*
X89583Y18459D02*
X94517Y23394D01*
X89583Y19896D02*
X94517Y24831D01*
X90590Y23129D02*
X94517Y19201D01*
X89683Y21880D02*
X94517Y17046D01*
X89583Y19107D02*
X94517Y14172D01*
X90469Y22531D02*
X94517Y18482D01*
X90176Y22105D02*
X94517Y17764D01*
X89583Y13430D02*
X94517Y18365D01*
X91564Y13256D02*
X94517Y16209D01*
X89583Y14148D02*
X94517Y19083D01*
X89583Y18388D02*
X94517Y13454D01*
X89580Y21265D02*
X94517Y16327D01*
X89583Y16304D02*
X94517Y21238D01*
X89583Y17740D02*
X94517Y22675D01*
X89583Y17022D02*
X94517Y21957D01*
X89583Y19825D02*
X94517Y14890D01*
X89583Y14867D02*
X94517Y19802D01*
X89583Y20544D02*
X94517Y15609D01*
X89583Y15585D02*
X94517Y20520D01*
X90508Y23047D02*
X92214Y24753D01*
X89148Y23772D02*
X91265Y25889D01*
X89722Y23833D02*
X91265Y25376D01*
X88199Y22823D02*
X88623Y23247D01*
X87017Y23796D02*
X91265Y28044D01*
X87481Y23541D02*
X91265Y27326D01*
X87840Y23182D02*
X91265Y26607D01*
X87388Y23634D02*
X88710Y22312D01*
X86765Y22685D02*
X88471Y20979D01*
X86004Y22685D02*
X88471Y20218D01*
X88987Y22035D02*
X89420Y21602D01*
X89277Y21745D02*
X89409Y21877D01*
X88471Y17663D02*
Y20979D01*
X88302Y16795D02*
X88471Y16626D01*
X87968Y18281D02*
X88471Y18785D01*
X88346Y17941D02*
X88471Y18066D01*
X86722Y22685D02*
X88471Y20936D01*
X87343Y18374D02*
X88471Y19503D01*
X86739Y16203D02*
X88471Y14471D01*
X86380Y15844D02*
X88471Y13752D01*
X87895Y16484D02*
X88471Y15907D01*
X87200Y16460D02*
X88471Y15189D01*
X92630Y12167D02*
X94517Y14054D01*
X90055Y12465D02*
X94517Y16928D01*
X92579Y12518D02*
X94517Y10580D01*
X92124Y13098D02*
X94517Y15491D01*
X92481Y12736D02*
X94517Y14773D01*
X90089Y12135D02*
X94517Y7706D01*
X91790Y11152D02*
X94517Y8425D01*
X92562Y11817D02*
X94517Y9861D01*
X92268Y11392D02*
X94517Y9143D01*
X89583Y16951D02*
X94517Y12017D01*
X89583Y16233D02*
X94517Y11298D01*
X89583Y17670D02*
X94517Y12735D01*
X89797Y12926D02*
X94517Y17646D01*
X85905Y4005D02*
X94517Y12617D01*
X88936Y11132D02*
X94517Y5551D01*
X89908Y11597D02*
X94517Y6988D01*
X89531Y11256D02*
X94517Y6269D01*
X93830Y3309D02*
X94517Y3996D01*
X93817Y3378D02*
X94517Y2677D01*
X93354Y4269D02*
X94517Y5433D01*
X93651Y3848D02*
X94517Y4715D01*
X93635Y2123D02*
X94517Y1240D01*
X93877Y483D02*
X94517Y1123D01*
X93804Y2564D02*
X94517Y3278D01*
X93823Y2653D02*
X94517Y1959D01*
X92956Y4590D02*
X94517Y6152D01*
X93332Y1708D02*
X94517Y522D01*
X91770Y4841D02*
X94517Y7588D01*
X92448Y4801D02*
X94517Y6870D01*
X92441Y483D02*
X94517Y2559D01*
X93159Y483D02*
X94517Y1841D01*
X85975Y483D02*
X94517Y9025D01*
X86693Y483D02*
X94517Y8307D01*
X89583Y13359D02*
X90527Y12415D01*
X89916Y11608D02*
X90503Y12195D01*
X89583Y15515D02*
X91893Y13204D01*
X89583Y14796D02*
X91192Y13187D01*
X89583Y13099D02*
Y21209D01*
X88471Y13099D02*
Y17135D01*
X89583Y14078D02*
X90767Y12893D01*
X85905Y10571D02*
X91653Y4823D01*
X86021Y15484D02*
X88432Y13073D01*
X91004Y483D02*
X91691Y1170D01*
X92928Y1393D02*
X93838Y483D01*
X92412Y1191D02*
X93120Y483D01*
X91722D02*
X92436Y1196D01*
X91718Y1166D02*
X92402Y483D01*
X87412D02*
X90159Y3230D01*
X89567Y483D02*
X90731Y1646D01*
X90285Y483D02*
X91152Y1349D01*
X88130Y483D02*
X90199Y2552D01*
X88848Y483D02*
X90410Y2044D01*
X85286Y22685D02*
X88471Y19500D01*
X84567Y22685D02*
X88471Y18781D01*
X84747Y18652D02*
X87773Y21678D01*
X83880Y19222D02*
X87054Y22396D01*
X84411Y19035D02*
X87413Y22037D01*
X83849Y22685D02*
X88471Y18063D01*
X84862Y18048D02*
X88132Y21319D01*
X82412Y22685D02*
X86913Y18184D01*
X83130Y22685D02*
X87430Y18386D01*
X82018Y23797D02*
X86995D01*
X81788Y22685D02*
X86765D01*
X80966Y19182D02*
X84470Y22685D01*
X81653Y19151D02*
X85188Y22685D01*
X82307Y18368D02*
X86625Y22685D01*
X79770Y11520D02*
X88471Y20221D01*
X81684Y22695D02*
X86601Y17778D01*
X82073Y18852D02*
X85906Y22685D01*
X85661Y15125D02*
X88091Y12696D01*
X85302Y14766D02*
X87967Y12101D01*
X84864Y18078D02*
X85953Y16989D01*
X84674Y17549D02*
X85594Y16629D01*
X85445Y11448D02*
X88471Y14474D01*
X85779Y11063D02*
X88471Y13756D01*
X84927Y11648D02*
X88471Y15192D01*
X84290Y17215D02*
X85235Y16270D01*
X83682Y17104D02*
X84876Y15911D01*
X80583Y11618D02*
X86542Y17578D01*
X81369Y10833D02*
X87057Y16521D01*
X82265Y17803D02*
X84517Y15552D01*
X83506Y12970D02*
X84821Y11655D01*
X79986Y18717D02*
X80357D01*
X82264Y18522D02*
X82747Y18039D01*
X78447Y20255D02*
X81218Y23026D01*
X78807Y19896D02*
X81621Y22711D01*
X77729Y20974D02*
X80499Y23744D01*
X78088Y20615D02*
X80858Y23385D01*
X79525Y19178D02*
X83033Y22685D01*
X79884Y18818D02*
X83751Y22685D01*
X79166Y19537D02*
X82314Y22685D01*
X75958Y18363D02*
X81643Y12678D01*
X81978Y17372D02*
X84157Y15193D01*
X81506Y17125D02*
X83798Y14833D01*
X79756Y17605D02*
X80357D01*
X80308D02*
X83439Y14474D01*
X83147Y12611D02*
X84249Y11508D01*
X82788Y12252D02*
X83879Y11161D01*
X82429Y11892D02*
X83697Y10624D01*
X75882Y17721D02*
X81284Y12319D01*
X79549Y17645D02*
X83080Y14115D01*
X75565Y17320D02*
X80924Y11960D01*
X75059Y17107D02*
X80536Y11630D01*
X76700Y11323D02*
X82930Y17554D01*
X76967Y10873D02*
X83313Y17218D01*
X76257Y11599D02*
X82743Y18085D01*
X75526Y11586D02*
X81057Y17118D01*
X85767Y4585D02*
X94517Y13336D01*
X84943Y14407D02*
X94517Y4832D01*
X83865Y13329D02*
X92378Y4817D01*
X85903Y10468D02*
X88053Y12618D01*
X84896Y5151D02*
X91023Y11278D01*
X84225Y13688D02*
X94517Y3396D01*
X83101Y483D02*
X94517Y11899D01*
X84584Y14048D02*
X94517Y4114D01*
X82069Y11533D02*
X90191Y3412D01*
X72273Y4741D02*
X88471Y20940D01*
X76683Y4840D02*
X88471Y16629D01*
X81360Y10237D02*
X87532Y16409D01*
X81031Y4879D02*
X88016Y11863D01*
X79509Y483D02*
X90661Y11635D01*
X78791Y483D02*
X89611Y11303D01*
X76959Y4399D02*
X88471Y15911D01*
X81328Y4457D02*
X88293Y11422D01*
X85425Y4962D02*
X91592Y11129D01*
X85759Y9999D02*
X91123Y4635D01*
X85411Y9628D02*
X90708Y4332D01*
X84906Y2949D02*
X87373Y483D01*
X85256D02*
X94517Y9744D01*
X85904Y4106D02*
X89528Y483D01*
X85771Y3521D02*
X88809Y483D01*
X85432Y3142D02*
X88091Y483D01*
X81019Y9710D02*
X90246Y483D01*
X84875Y9446D02*
X90393Y3928D01*
X81710Y11174D02*
X90166Y2718D01*
X81373Y3784D02*
X88754Y11164D01*
X83819Y483D02*
X94517Y11181D01*
X84538Y483D02*
X94517Y10462D01*
X81380Y10786D02*
X91683Y483D01*
X81321Y10126D02*
X90965Y483D01*
X79682Y4966D02*
X84286Y9571D01*
X76960Y10895D02*
X83700Y4156D01*
X79590Y9702D02*
X84271Y5021D01*
X76925Y10112D02*
X83917Y17103D01*
X76948Y3669D02*
X83702Y10423D01*
X67472Y4251D02*
X80573Y17352D01*
X76231Y5107D02*
X80613Y9489D01*
X76953Y10184D02*
X86654Y483D01*
X76671Y9747D02*
X85936Y483D01*
X74480D02*
X83902Y9905D01*
X72262Y9845D02*
X81625Y483D01*
X80946D02*
X83888Y3425D01*
X81037Y3226D02*
X83781Y483D01*
X80568Y2977D02*
X83062Y483D01*
X81369Y4331D02*
X85217Y483D01*
X82383D02*
X84845Y2945D01*
X81331Y3650D02*
X84499Y483D01*
X81664D02*
X84264Y3082D01*
X80540Y9470D02*
X84857Y5154D01*
X80559Y5124D02*
X84881Y9447D01*
X76214Y9486D02*
X80581Y5119D01*
X80227Y483D02*
X83699Y3954D01*
X79715Y3112D02*
X82344Y483D01*
X76941Y4448D02*
X80907Y483D01*
X78072D02*
X80566Y2976D01*
X78015Y44460D02*
X80227D01*
X76864Y47630D02*
X80035Y44460D01*
X80227Y44268D01*
X76505Y47271D02*
X79317Y44460D01*
X80227Y42248D02*
Y44460D01*
X76502Y44891D02*
X79442Y47831D01*
X76502Y44173D02*
X80160Y47831D01*
X76502Y45609D02*
X78724Y47831D01*
X76502Y46556D02*
X78598Y44460D01*
X65990Y43001D02*
X80253Y57264D01*
X76502Y43682D02*
X78474Y41710D01*
X76502Y42964D02*
X78141Y41325D01*
X76502Y41299D02*
X78015Y42813D01*
Y42248D02*
X80227D01*
X78654D02*
X78991Y41912D01*
X79268Y41910D02*
X79606Y42248D01*
X78862Y39349D02*
X79227Y39713D01*
X79036Y39712D02*
X79405Y39343D01*
X76502Y37707D02*
X78622Y39827D01*
X76502Y39372D02*
X78180Y37694D01*
X76502Y39862D02*
X78888Y42248D01*
X76502Y41527D02*
X78723Y39306D01*
X76502Y40581D02*
X78169Y42248D01*
X76502Y42246D02*
X78019Y40729D01*
X76502Y40809D02*
X78298Y39012D01*
X76502Y38425D02*
X78232Y40156D01*
X76502Y39144D02*
X78025Y40667D01*
X76502Y40090D02*
X78049Y38543D01*
X76502Y44401D02*
X78015Y42887D01*
X76502Y45119D02*
X78015Y43606D01*
X76502Y42736D02*
X78015Y44250D01*
X76502Y46328D02*
X78005Y47831D01*
X76502Y45838D02*
X78015Y44324D01*
Y42248D02*
Y44460D01*
X70301Y38690D02*
X75390Y43780D01*
X69582Y39409D02*
X75390Y45217D01*
X69941Y39049D02*
X75390Y44498D01*
X69572Y52049D02*
X75390Y46231D01*
X68869Y52033D02*
X75390Y45512D01*
X64912Y44078D02*
X73235Y52401D01*
X65272Y43719D02*
X73658Y52106D01*
X68864Y40127D02*
X75390Y46654D01*
X69223Y39768D02*
X75390Y45935D01*
X65631Y43360D02*
X74266Y51995D01*
X68505Y40486D02*
X75390Y47372D01*
X76502Y42017D02*
X78015Y43531D01*
X70928Y38599D02*
X75390Y43061D01*
X66025Y38725D02*
X67360Y40060D01*
X66025Y38490D02*
Y39432D01*
X71372Y38325D02*
X75390Y42343D01*
X71632Y37866D02*
X75390Y41625D01*
X66283Y38265D02*
X67719Y39700D01*
X66510Y37773D02*
X68078Y39341D01*
X65416Y40271D02*
X66282Y41137D01*
X65775Y39912D02*
X66641Y40778D01*
X64698Y40990D02*
X65564Y41856D01*
X65057Y40631D02*
X65923Y41496D01*
X66025Y39443D02*
X67000Y40419D01*
X64914Y38490D02*
Y39202D01*
X79222Y36835D02*
X79755Y37368D01*
X78541Y37333D02*
X79037Y36836D01*
X76502Y34833D02*
X78867Y37198D01*
X76502Y36498D02*
X78761Y34239D01*
X76502Y35780D02*
X78323Y33959D01*
X76502Y34115D02*
X78020Y35633D01*
X76502Y35061D02*
X78060Y33503D01*
X76502Y38654D02*
X78504Y36651D01*
X76502Y37935D02*
X78159Y36278D01*
X76502Y36988D02*
X78046Y38533D01*
X76502Y36270D02*
X78095Y37863D01*
X76502Y35552D02*
X78392Y37442D01*
X73633Y30528D02*
X78211Y35106D01*
X76502Y33782D02*
Y47268D01*
Y37217D02*
X78016Y35702D01*
X79089Y34629D02*
X79478Y34240D01*
X78791Y34249D02*
X79172Y34630D01*
X76502Y34343D02*
X78120Y32725D01*
X79174Y31758D02*
X79627Y32211D01*
X76484Y33642D02*
X78535Y31591D01*
X78652Y32193D02*
X79086Y31759D01*
X74351Y30528D02*
X78589Y34765D01*
X76179Y33229D02*
X78177Y31230D01*
X75820Y32870D02*
X78016Y30674D01*
X75897Y29918D02*
X78366Y32387D01*
X76256Y29559D02*
X78826Y32129D01*
X75070Y30527D02*
X78066Y33524D01*
X75538Y30277D02*
X78081Y32820D01*
X75390Y34012D02*
Y47498D01*
X71493Y37008D02*
X75390Y40906D01*
X71657Y37751D02*
X75390Y34017D01*
X67885Y30528D02*
X75390Y38033D01*
X68390Y30313D02*
X75390Y37314D01*
X71561Y37128D02*
X75034Y33656D01*
X71233Y36738D02*
X74675Y33296D01*
X66054Y30851D02*
X75390Y40188D01*
X66025Y39072D02*
X72428Y32669D01*
X66479Y37900D02*
X72228Y32150D01*
X66449Y30528D02*
X75390Y39469D01*
X67167Y30528D02*
X75390Y38751D01*
X66453Y37208D02*
X73133Y30528D01*
X66154Y36788D02*
X72414Y30528D01*
X74022Y32643D02*
X75390Y34012D01*
X73287Y33056D02*
X75390Y35159D01*
X73810Y32860D02*
X75390Y34440D01*
X74624Y31675D02*
X76339Y33389D01*
X74036Y31512D02*
X74231D01*
X70712Y36541D02*
X74315Y32937D01*
X70538Y31025D02*
X75390Y35877D01*
X65511Y31027D02*
X71197Y36712D01*
X68749Y29954D02*
X75390Y36596D01*
X71498Y30548D02*
X72423Y31473D01*
X65668Y36555D02*
X71696Y30528D01*
X71126Y30895D02*
X72227Y31996D01*
X64183Y55283D02*
X75390Y44075D01*
X64183Y56001D02*
X75390Y44794D01*
X64183Y54565D02*
X75390Y43357D01*
X64194Y44797D02*
X72871Y53473D01*
X64553Y44437D02*
X72954Y52838D01*
X64183Y52409D02*
X75390Y41202D01*
X64183Y51691D02*
X75390Y40483D01*
X64183Y53846D02*
X75390Y42638D01*
X64183Y53128D02*
X75390Y41920D01*
X64183Y46222D02*
X76587Y58626D01*
X56182Y52508D02*
X63071Y45618D01*
X56182Y53226D02*
X63071Y46336D01*
X59310Y46378D02*
X63071Y50140D01*
X64183Y44808D02*
Y62484D01*
Y45504D02*
X77305Y58626D01*
X63071Y44578D02*
Y62254D01*
X56182Y51789D02*
X63071Y44900D01*
X62543Y43145D02*
X63408Y44011D01*
X62902Y42786D02*
X63768Y43652D01*
X63979Y41708D02*
X64845Y42574D01*
X64339Y41349D02*
X65204Y42215D01*
X63261Y42427D02*
X64127Y43293D01*
X63620Y42068D02*
X64486Y42933D01*
X60387Y45300D02*
X63071Y47985D01*
X60746Y44941D02*
X63071Y47266D01*
X59669Y46019D02*
X63071Y49421D01*
X60028Y45660D02*
X63071Y48703D01*
X61824Y43864D02*
X63071Y45111D01*
X62183Y43504D02*
X63095Y44416D01*
X61106Y44582D02*
X63071Y46548D01*
X61465Y44223D02*
X63071Y45829D01*
X58950Y46737D02*
X63071Y50858D01*
X55861Y44366D02*
X57806Y46311D01*
X56220Y44007D02*
X58165Y45952D01*
X55142Y45084D02*
X57087Y47029D01*
X55502Y44725D02*
X57446Y46670D01*
X57298Y42929D02*
X59242Y44874D01*
X57657Y42570D02*
X59602Y44515D01*
X56579Y43648D02*
X58524Y45592D01*
X56938Y43288D02*
X58883Y45233D01*
X54065Y46162D02*
X56009Y48107D01*
X54424Y45803D02*
X56369Y47748D01*
X53346Y46880D02*
X55291Y48825D01*
X53705Y46521D02*
X55650Y48466D01*
X54783Y45444D02*
X56728Y47388D01*
X53005Y43666D02*
X53997Y44658D01*
X52287Y44384D02*
X53279Y45376D01*
X52646Y44025D02*
X53638Y45017D01*
X58734Y41492D02*
X60679Y43437D01*
X59094Y41133D02*
X61038Y43078D01*
X58016Y42211D02*
X59961Y44155D01*
X58375Y41852D02*
X60320Y43796D01*
X59453Y40774D02*
X61398Y42719D01*
X59812Y40415D02*
X61757Y42359D01*
X55738Y40651D02*
X56871Y41784D01*
X54083Y42588D02*
X55075Y43580D01*
X54442Y42229D02*
X55434Y43221D01*
X53364Y43306D02*
X54357Y44299D01*
X53724Y42947D02*
X54716Y43939D01*
X55160Y41510D02*
X56153Y42503D01*
X55520Y41151D02*
X56512Y42143D01*
X54801Y41870D02*
X55793Y42862D01*
X64183Y49536D02*
X75390Y38328D01*
X64183Y50254D02*
X75390Y39046D01*
X64183Y48817D02*
X75390Y37609D01*
X64183Y45225D02*
X70772Y38636D01*
X64183Y44808D02*
X70371Y38620D01*
X64183Y46662D02*
X75390Y35454D01*
X64183Y45944D02*
X75390Y34736D01*
X64183Y48099D02*
X75390Y36891D01*
X64183Y47380D02*
X75390Y36173D01*
X64183Y50973D02*
X75390Y39765D01*
X63234Y44185D02*
X69585Y37834D01*
X56182Y51071D02*
X69562Y37691D01*
X56182Y49506D02*
X65862Y39825D01*
X56182Y50353D02*
X73526Y33008D01*
X56182Y49634D02*
X72834Y32982D01*
X60876Y39192D02*
X69654Y30414D01*
X56180Y30317D02*
X64914Y39051D01*
X61291Y30399D02*
X69156Y38264D01*
X61406Y29796D02*
X69515Y37904D01*
X61338Y37293D02*
X68139Y30493D01*
X62125Y29077D02*
X69880Y36833D01*
X62484Y28718D02*
X70339Y36573D01*
X61253Y38097D02*
X69576Y29774D01*
X61766Y29437D02*
X69606Y37277D01*
X60473Y31017D02*
X68437Y38982D01*
X60977Y30803D02*
X68796Y38623D01*
X59799Y36678D02*
X65449Y31027D01*
X60617Y36577D02*
X66667Y30528D01*
X56218Y37385D02*
X74474Y19129D01*
X55982Y36902D02*
X74073Y18812D01*
X61070Y36843D02*
X67385Y30528D01*
X55560Y36606D02*
X73860Y18306D01*
X60851Y39298D02*
X62834Y41282D01*
X60882Y38611D02*
X63194Y40923D01*
X60171Y40055D02*
X62116Y42000D01*
X60530Y39696D02*
X62475Y41641D01*
X61189Y38200D02*
X63553Y40563D01*
X61379Y37671D02*
X63912Y40204D01*
X56091Y38130D02*
X58308Y40347D01*
X56238Y37559D02*
X58667Y39988D01*
X55233Y48883D02*
X64914Y39202D01*
X55738Y38496D02*
X57949Y40707D01*
X55738Y39933D02*
X57230Y41425D01*
X55738Y39214D02*
X57589Y41066D01*
X55737Y40739D02*
X59412Y37065D01*
X55738Y40020D02*
X64898Y30860D01*
X55738Y38490D02*
Y40702D01*
X54627Y38490D02*
Y40472D01*
X60882Y38490D02*
Y39115D01*
X59770Y38490D02*
Y38885D01*
X55895Y30751D02*
X64631Y39486D01*
X56163Y29582D02*
X64451Y37869D01*
X55426Y30999D02*
X64271Y39845D01*
X54861Y36587D02*
X60424Y31023D01*
X55738Y39301D02*
X64550Y30490D01*
X55738Y38583D02*
X64416Y29905D01*
X53442Y30452D02*
X59718Y36729D01*
X54236Y30528D02*
X60247Y36539D01*
X76974Y28840D02*
X78191Y30057D01*
X76615Y29199D02*
X78017Y30601D01*
X77334Y28481D02*
X78556Y29704D01*
X77693Y28122D02*
X79119Y29548D01*
X75215Y23488D02*
X77985Y26258D01*
X74496Y24207D02*
X77266Y26977D01*
X74855Y23847D02*
X77626Y26618D01*
X72700Y26003D02*
X75470Y28773D01*
X73059Y25643D02*
X75830Y28414D01*
X71511Y30528D02*
X75057D01*
X72341Y26362D02*
X75111Y29132D01*
X68338Y30365D02*
X79986Y18717D01*
X74137Y24566D02*
X76907Y27336D01*
X73418Y25284D02*
X76189Y28055D01*
X73778Y24925D02*
X76548Y27695D01*
X76292Y22411D02*
X79062Y25181D01*
X76651Y22051D02*
X79422Y24822D01*
X75574Y23129D02*
X78344Y25899D01*
X75933Y22770D02*
X78703Y25540D01*
X77011Y21692D02*
X79781Y24462D01*
X77370Y21333D02*
X80140Y24103D01*
X75667Y18912D02*
X76943Y20188D01*
X75934Y18461D02*
X77302Y19829D01*
X74423Y19104D02*
X76225Y20906D01*
X75217Y19180D02*
X76584Y20547D01*
X72388Y19225D02*
X75147Y21984D01*
X72942Y19060D02*
X75506Y21625D01*
X73294Y18694D02*
X75866Y21266D01*
X73817Y31280D02*
X74570Y30528D01*
X73298Y31080D02*
X73851Y30528D01*
X71511Y29416D02*
X74827D01*
X72196Y30528D02*
X72825Y31157D01*
X72914Y30528D02*
X73508Y31121D01*
X71622Y27080D02*
X73959Y29416D01*
X71982Y26721D02*
X74677Y29416D01*
X70904Y27799D02*
X72522Y29416D01*
X71263Y27440D02*
X73240Y29416D01*
X69108Y29595D02*
X69560Y30047D01*
X69467Y29236D02*
X69690Y29459D01*
X70545Y28158D02*
X71803Y29416D01*
X69826Y28876D02*
X70037Y29087D01*
X70186Y28517D02*
X70585Y28917D01*
X70387Y20816D02*
X73351Y23780D01*
X70746Y20456D02*
X73710Y23421D01*
X69668Y21534D02*
X72633Y24499D01*
X70027Y21175D02*
X72992Y24139D01*
X71464Y19738D02*
X74429Y22702D01*
X71823Y19379D02*
X74788Y22343D01*
X71105Y20097D02*
X74070Y23062D01*
X67513Y23689D02*
X70477Y26654D01*
X67872Y23330D02*
X70837Y26295D01*
X66795Y24408D02*
X69759Y27372D01*
X67154Y24048D02*
X70118Y27013D01*
X68950Y22252D02*
X71914Y25217D01*
X69309Y21893D02*
X72274Y24858D01*
X68231Y22971D02*
X71196Y25935D01*
X68591Y22612D02*
X71555Y25576D01*
X73428Y18019D02*
X79877Y11571D01*
X75852Y17660D02*
X77662Y19470D01*
X73217Y17512D02*
X79460Y11269D01*
X72503Y10718D02*
X79469Y17685D01*
X72817Y17194D02*
X79221Y10790D01*
X67715Y29416D02*
X79363Y17768D01*
X72288Y11222D02*
X79099Y18033D01*
X71276Y11647D02*
X78380Y18751D01*
X71892Y11545D02*
X78739Y18392D01*
X67246Y4743D02*
X80108Y17605D01*
X72176Y17116D02*
X79452Y9840D01*
X72498Y4248D02*
X79330Y11080D01*
X72494Y10332D02*
X79362Y3464D01*
X75468Y5063D02*
X79917Y9512D01*
X75917Y483D02*
X79225Y3791D01*
X75488Y3028D02*
X78033Y483D01*
X76240Y2994D02*
X78752Y483D01*
X76962Y3709D02*
X80188Y483D01*
X77354D02*
X79893Y3022D01*
X76635Y483D02*
X79471Y3318D01*
X76688Y3264D02*
X79470Y483D01*
X75426Y9555D02*
X79901Y5081D01*
X67236Y9843D02*
X76596Y483D01*
X71869Y5056D02*
X76347Y9534D01*
X70169Y483D02*
X79487Y9800D01*
X75198Y483D02*
X79383Y4667D01*
X67468Y10329D02*
X77315Y483D01*
X69451D02*
X79232Y10264D01*
X73437Y18118D02*
X73971Y18652D01*
X71853Y9537D02*
X76309Y5081D01*
X67261Y11224D02*
X73895Y17858D01*
X67477Y10722D02*
X74163Y17408D01*
X66864Y11546D02*
X72417Y17098D01*
X71236Y5141D02*
X75587Y9492D01*
X71209Y9462D02*
X75570Y5101D01*
X66825Y9535D02*
X71222Y5139D01*
X66841Y5057D02*
X71241Y9457D01*
X71606Y483D02*
X74852Y3728D01*
X72278Y3364D02*
X75159Y483D01*
X71876Y3047D02*
X74441Y483D01*
X71250Y2956D02*
X73723Y483D01*
X72499Y3861D02*
X75878Y483D01*
X73762D02*
X76290Y3011D01*
X72325Y483D02*
X75119Y3277D01*
X73043Y483D02*
X75561Y3000D01*
X67296Y483D02*
X70404Y3591D01*
X67251Y3362D02*
X70131Y483D01*
X66849Y3046D02*
X69412Y483D01*
X70888D02*
X74896Y4491D01*
X68733Y483D02*
X71212Y2962D01*
X67474Y3858D02*
X70849Y483D01*
X68014D02*
X70718Y3187D01*
X66367Y30528D02*
X67945D01*
X64998Y26204D02*
X67963Y29168D01*
X65358Y25845D02*
X68322Y28809D01*
X64639Y26563D02*
X67493Y29416D01*
X66367D02*
X67715D01*
X61377Y30070D02*
X72232Y19215D01*
X65403Y28919D02*
X75116Y19205D01*
X61372Y29830D02*
X72034Y19169D01*
X65717Y25485D02*
X68681Y28450D01*
X60660Y28971D02*
X71321Y18310D01*
X60375Y28918D02*
X71329Y17963D01*
X53681Y29146D02*
X71193Y11634D01*
X53321Y28787D02*
X70706Y11402D01*
X56212Y30207D02*
X75108Y11310D01*
X55837Y29144D02*
X74916Y10066D01*
X56150Y29550D02*
X74847Y10853D01*
X52962Y28427D02*
X70397Y10992D01*
X62486Y11478D02*
X70319Y19311D01*
X66246Y11646D02*
X71841Y17241D01*
X66076Y25126D02*
X69041Y28091D01*
X66435Y24767D02*
X69400Y27731D01*
X62991Y10546D02*
X71038Y18593D01*
X66206Y5141D02*
X70738Y9672D01*
X62837Y11111D02*
X70679Y18952D01*
X58774Y11359D02*
X68523Y21107D01*
X61943Y11654D02*
X69960Y19671D01*
X57508Y11529D02*
X67805Y21826D01*
X58313Y11616D02*
X68164Y21467D01*
X52603Y28068D02*
X70323Y10348D01*
X58286Y5123D02*
X71310Y18147D01*
X59060Y10926D02*
X68882Y20748D01*
X59078Y10225D02*
X69242Y20389D01*
X62843Y28359D02*
X64415Y29931D01*
X63202Y28000D02*
X64590Y29388D01*
X64280Y26922D02*
X66774Y29416D01*
X54367Y11262D02*
X66368Y23263D01*
X63562Y27641D02*
X64966Y29044D01*
X63921Y27281D02*
X65560Y28920D01*
X53721Y30528D02*
X54285D01*
X53302Y11633D02*
X65650Y23981D01*
X53954Y11567D02*
X66009Y23622D01*
X53951Y29416D02*
X54285D01*
X61910Y5155D02*
X66213Y9457D01*
X61888Y9444D02*
X66193Y5138D01*
X54603Y10779D02*
X66727Y22904D01*
X57351Y9670D02*
X61866Y5155D01*
X53257Y5123D02*
X57644Y9510D01*
X62990Y4080D02*
X78021Y19110D01*
X62824Y4632D02*
X75415Y17223D01*
X62465Y4991D02*
X74614Y17141D01*
X60112Y483D02*
X70313Y10684D01*
X60830Y483D02*
X70415Y10068D01*
X64422Y483D02*
X74873Y10934D01*
X65141Y483D02*
X74860Y10202D01*
X62989Y10497D02*
X73004Y483D01*
X62816Y9953D02*
X72286Y483D01*
X55336Y28928D02*
X79476Y4787D01*
X58757Y4875D02*
X71475Y17593D01*
X54351Y4780D02*
X69601Y20030D01*
X59099Y10796D02*
X65381Y4513D01*
X54128Y29416D02*
X79227Y4317D01*
X59091Y3773D02*
X65389Y10070D01*
X59051Y4451D02*
X65288Y10688D01*
X59045Y10132D02*
X65292Y3885D01*
X66179Y9463D02*
X70725Y4917D01*
X62990Y4031D02*
X66538Y483D01*
X62985D02*
X65691Y3189D01*
X65859Y483D02*
X75136Y9760D01*
X66577Y483D02*
X70318Y4223D01*
X63704Y483D02*
X66184Y2962D01*
X66220Y2956D02*
X68694Y483D01*
X58744Y9713D02*
X67975Y483D01*
X58268Y9472D02*
X67257Y483D01*
X56519D02*
X65710Y9674D01*
X61548Y483D02*
X65294Y4228D01*
X62450Y9599D02*
X71567Y483D01*
X62829Y3474D02*
X65820Y483D01*
X62267D02*
X65378Y3594D01*
X62472Y3112D02*
X65102Y483D01*
X54474Y11110D02*
X60948Y4636D01*
X57426Y4982D02*
X61889Y9444D01*
X54596Y4307D02*
X60781Y10491D01*
X54592Y10274D02*
X60780Y4086D01*
X59087Y4342D02*
X62946Y483D01*
X57238D02*
X60780Y4024D01*
X54434Y3426D02*
X60957Y9949D01*
X53930Y5077D02*
X58345Y9493D01*
X53913Y9516D02*
X58313Y5116D01*
X53227Y9484D02*
X57628Y5083D01*
X54340Y9807D02*
X63665Y483D01*
X54405Y4713D02*
X58636Y483D01*
X52927D02*
X57089Y4644D01*
X57956Y483D02*
X60944Y3470D01*
X58675Y483D02*
X61302Y3110D01*
X57456Y3099D02*
X60073Y483D01*
X58295Y2978D02*
X60791Y483D01*
X59054Y3656D02*
X62228Y483D01*
X61921Y2945D02*
X64383Y483D01*
X58763Y3230D02*
X61509Y483D01*
X59393D02*
X61855Y2944D01*
X53646Y483D02*
X56948Y3784D01*
X54356Y3325D02*
X57199Y483D01*
X53938Y3025D02*
X56481Y483D01*
X53272Y2972D02*
X55762Y483D01*
X54598Y3802D02*
X57917Y483D01*
X55801D02*
X58298Y2979D01*
X54364Y483D02*
X57196Y3314D01*
X55083Y483D02*
X57619Y3019D01*
X45783Y94517D02*
X56335Y83965D01*
X43647Y83878D02*
X54286Y94517D01*
X46501D02*
X56385Y84633D01*
X43627Y94517D02*
X52612Y85532D01*
X43631Y84581D02*
X53567Y94517D01*
X50093D02*
X67376Y77234D01*
X49375Y94517D02*
X67376Y76516D01*
X51530Y94517D02*
X67376Y78671D01*
X50811Y94517D02*
X67376Y77952D01*
X42912Y82425D02*
X55004Y94517D01*
X42912Y81706D02*
X55723Y94517D01*
X42987Y85374D02*
X52131Y94517D01*
X43381Y85050D02*
X52849Y94517D01*
X42912Y77396D02*
X60033Y94517D01*
X43200Y76966D02*
X60752Y94517D01*
X42912Y78833D02*
X58596Y94517D01*
X42912Y78114D02*
X59315Y94517D01*
X47938D02*
X57058Y85397D01*
X48656Y94517D02*
X57641Y85533D01*
X47219Y94517D02*
X56650Y85087D01*
X45064Y94517D02*
X57088Y82493D01*
X45355Y74811D02*
X52088Y81544D01*
X44637Y75529D02*
X52088Y82981D01*
X44996Y75170D02*
X52088Y82262D01*
X42912Y80270D02*
X57160Y94517D01*
X42912Y79551D02*
X57878Y94517D01*
X42912Y80988D02*
X56441Y94517D01*
X44346D02*
X57088Y81775D01*
X43342Y83308D02*
X52088Y74562D01*
X42930Y83002D02*
X52088Y73843D01*
X43669Y84418D02*
X52088Y75998D01*
X43610Y83758D02*
X52088Y75280D01*
X42426Y85531D02*
X51412Y94517D01*
X42190D02*
X51637Y85071D01*
X42909Y94517D02*
X52039Y85387D01*
X40754Y94517D02*
X51342Y83929D01*
X41472Y94517D02*
X51378Y84611D01*
X40035Y94517D02*
X52088Y82464D01*
X43559Y76607D02*
X51324Y84372D01*
X38625Y84604D02*
X48538Y94517D01*
X38656Y83916D02*
X49257Y94517D01*
X37968Y85384D02*
X47102Y94517D01*
X38368Y85066D02*
X47820Y94517D01*
X39317D02*
X52088Y81746D01*
X38598Y94517D02*
X52088Y81027D01*
X38674Y84384D02*
X41800Y81257D01*
X38603Y83737D02*
X41800Y80539D01*
X42912Y77254D02*
Y82993D01*
X41800Y77024D02*
Y82993D01*
X45714Y74451D02*
X52088Y80825D01*
X46074Y74092D02*
X52088Y80107D01*
X43918Y76247D02*
X51400Y83729D01*
X44278Y75888D02*
X51677Y83288D01*
X37912Y78143D02*
X41800Y82032D01*
X37912Y75988D02*
X41800Y79877D01*
X38328Y83293D02*
X41800Y79821D01*
X37912Y82273D02*
X41800Y78384D01*
X38376Y74297D02*
X41800Y77721D01*
X38735Y73938D02*
X41801Y77003D01*
X37912Y75270D02*
X41800Y79158D01*
X38017Y74656D02*
X41800Y78440D01*
X47151Y73014D02*
X52088Y77952D01*
X42912Y77254D02*
X56019Y64147D01*
X47511Y72655D02*
X52088Y77233D01*
X46433Y73733D02*
X52088Y79388D01*
X46792Y73374D02*
X52088Y78670D01*
X42912Y77991D02*
X63071Y57831D01*
X42912Y77273D02*
X63071Y57113D01*
X42912Y79428D02*
X63071Y59268D01*
X42912Y78709D02*
X63071Y58550D01*
X42912Y82301D02*
X63071Y62142D01*
X42912Y81583D02*
X63071Y61423D01*
X37912Y79399D02*
X55070Y62240D01*
X37912Y78680D02*
X55070Y61522D01*
X42912Y80865D02*
X63071Y60705D01*
X42912Y80146D02*
X63071Y59986D01*
X37912Y77962D02*
X55070Y60803D01*
X37912Y77244D02*
X55070Y60085D01*
X50384Y69782D02*
X52964Y72361D01*
X50743Y69422D02*
X53323Y72002D01*
X51821Y68345D02*
X54401Y70924D01*
X52180Y67985D02*
X54760Y70565D01*
X51103Y69063D02*
X53682Y71643D01*
X51462Y68704D02*
X54042Y71284D01*
X48588Y71578D02*
X52088Y75078D01*
X48947Y71218D02*
X52088Y74359D01*
X47870Y72296D02*
X52088Y76515D01*
X48229Y71937D02*
X52088Y75796D01*
X41963Y76631D02*
X55070Y63524D01*
X37912Y76525D02*
X55070Y59366D01*
X49666Y70500D02*
X52246Y73080D01*
X50025Y70141D02*
X52605Y72721D01*
X52088Y73467D02*
Y82993D01*
X49307Y70859D02*
X52088Y73641D01*
X42686Y69986D02*
X45647Y72947D01*
X41968Y70705D02*
X44929Y73666D01*
X42327Y70346D02*
X45288Y73306D01*
X43764Y68909D02*
X46725Y71869D01*
X44123Y68550D02*
X47084Y71510D01*
X43046Y69627D02*
X46006Y72588D01*
X43405Y69268D02*
X46366Y72229D01*
X39813Y72860D02*
X42773Y75821D01*
X40172Y72501D02*
X43133Y75462D01*
X39094Y73578D02*
X42055Y76539D01*
X39453Y73219D02*
X42414Y76180D01*
X41250Y71423D02*
X44210Y74384D01*
X41609Y71064D02*
X44569Y74025D01*
X40531Y72142D02*
X43492Y75102D01*
X40890Y71782D02*
X43851Y74743D01*
X46638Y66035D02*
X49598Y68996D01*
X46997Y65676D02*
X49958Y68637D01*
X45919Y66753D02*
X48880Y69714D01*
X46278Y66394D02*
X49239Y69355D01*
X48075Y64598D02*
X51035Y67559D01*
X48434Y64239D02*
X51395Y67200D01*
X47356Y65317D02*
X50317Y68277D01*
X47715Y64957D02*
X50676Y67918D01*
X45201Y67472D02*
X48162Y70433D01*
X45560Y67113D02*
X48521Y70073D01*
X44482Y68190D02*
X47443Y71151D01*
X44842Y67831D02*
X47802Y70792D01*
X38894Y62602D02*
X43697Y67405D01*
X39254Y62243D02*
X44056Y67045D01*
X38176Y63321D02*
X42978Y68123D01*
X38535Y62962D02*
X43337Y67764D01*
X37912Y81735D02*
X50694Y94517D01*
X37880D02*
X52088Y80309D01*
X37161Y94517D02*
X52088Y79590D01*
X32851Y94517D02*
X41912Y85456D01*
X37912Y82454D02*
X49975Y94517D01*
X35006D02*
X52088Y77435D01*
X34288Y94517D02*
X52088Y76717D01*
X36443Y94517D02*
X52088Y78872D01*
X35725Y94517D02*
X52088Y78154D01*
X32132Y94517D02*
X41462Y85188D01*
X483Y94517D02*
X94517D01*
X30696D02*
X41025Y84188D01*
X31414Y94517D02*
X41156Y84776D01*
X29259Y94517D02*
X41800Y81976D01*
X27624Y80068D02*
X42073Y94517D01*
X27624Y80787D02*
X41354Y94517D01*
X29977D02*
X41800Y82694D01*
X37912Y82991D02*
X41800Y79102D01*
X37912Y78862D02*
X41800Y82750D01*
X37912Y80298D02*
X41184Y83571D01*
X37912Y79580D02*
X41508Y83177D01*
X37912Y80836D02*
X41807Y76941D01*
X37912Y76706D02*
X41800Y80595D01*
X37912Y81554D02*
X41800Y77665D01*
X37912Y77425D02*
X41800Y81314D01*
X27624Y79350D02*
X42791Y94517D01*
X37398Y85532D02*
X46383Y94517D01*
X33569D02*
X42572Y85515D01*
X37912Y81017D02*
X41027Y84132D01*
X27624Y77195D02*
X44946Y94517D01*
X27624Y76476D02*
X45665Y94517D01*
X27624Y78632D02*
X43509Y94517D01*
X27624Y77913D02*
X44228Y94517D01*
X27317Y85509D02*
X36325Y94517D01*
X27104D02*
X36447Y85174D01*
X28381Y84418D02*
X38481Y94517D01*
X26490Y85400D02*
X35607Y94517D01*
X26385D02*
X36146Y84756D01*
X27624Y82224D02*
X39917Y94517D01*
X27624Y81505D02*
X40636Y94517D01*
X25667D02*
X36026Y84158D01*
X28223Y83542D02*
X39199Y94517D01*
X22624Y82253D02*
X34888Y94517D01*
X24230D02*
X36800Y81947D01*
X23377Y84442D02*
X33452Y94517D01*
X23257Y83604D02*
X34170Y94517D01*
X19919D02*
X36800Y77636D01*
X19201Y94517D02*
X36800Y76918D01*
X23511Y94517D02*
X36800Y81228D01*
X22793Y94517D02*
X36800Y80510D01*
X28540Y94517D02*
X37538Y85520D01*
X28179Y84934D02*
X37762Y94517D01*
X28144Y83419D02*
X36800Y74763D01*
X37912Y74761D02*
Y82993D01*
X28303Y84697D02*
X36800Y76199D01*
X28367Y83914D02*
X36800Y75481D01*
X27822Y94517D02*
X36891Y85449D01*
X27824Y85297D02*
X37044Y94517D01*
X24948D02*
X36800Y82665D01*
X22075Y94517D02*
X36800Y79792D01*
X21356Y94517D02*
X36800Y79073D01*
X20638Y94517D02*
X36800Y78355D01*
X27624Y75758D02*
X36026Y84160D01*
X27624Y75039D02*
X36174Y83590D01*
X37912Y80117D02*
X55070Y62958D01*
X27624Y77474D02*
X43328Y61770D01*
X37912Y74761D02*
X50812Y61861D01*
X27624Y76755D02*
X42609Y61770D01*
X27624Y76037D02*
X41891Y61770D01*
X37912Y75807D02*
X55070Y58648D01*
X37912Y75088D02*
X55070Y57929D01*
X27772Y83073D02*
X49863Y60981D01*
X27624Y75318D02*
X41172Y61770D01*
X27624Y82503D02*
X49863Y60263D01*
X27624Y81784D02*
X49863Y59544D01*
X27624Y78910D02*
X44821Y61713D01*
X27624Y78192D02*
X44046Y61770D01*
X27624Y80347D02*
X49863Y58108D01*
X27624Y79629D02*
X49863Y57389D01*
X12123Y82916D02*
X40891Y54149D01*
X27624Y81066D02*
X49863Y58826D01*
X36380Y65117D02*
X41182Y69919D01*
X36739Y64758D02*
X41541Y69560D01*
X35662Y65835D02*
X40464Y70637D01*
X36021Y65476D02*
X40823Y70278D01*
X36963Y74138D02*
X49863Y61238D01*
X37817Y63680D02*
X42619Y68482D01*
X37098Y64398D02*
X41901Y69201D01*
X37458Y64039D02*
X42260Y68841D01*
X27624Y74600D02*
X40454Y61770D01*
X35302Y66194D02*
X40105Y70997D01*
X34584Y66913D02*
X39386Y71715D01*
X34943Y66554D02*
X39745Y71356D01*
X23081Y71240D02*
X40650Y53671D01*
X25480Y68122D02*
X40660Y52942D01*
X27624Y73882D02*
X39736Y61770D01*
X27624Y73873D02*
X39727Y61770D01*
X29555Y71942D02*
X36800Y79187D01*
X29914Y71583D02*
X36800Y78469D01*
Y74531D02*
Y82993D01*
X29196Y72301D02*
X36800Y79906D01*
X30992Y70505D02*
X36800Y76314D01*
X31351Y70146D02*
X36800Y75595D01*
X30273Y71223D02*
X36800Y77750D01*
X30633Y70864D02*
X36800Y77032D01*
X28118Y73379D02*
X36800Y82061D01*
X28477Y73019D02*
X36800Y81343D01*
X27624Y74321D02*
X36492Y83190D01*
X27759Y73738D02*
X36800Y82779D01*
X22624Y76726D02*
X39104Y60246D01*
X22624Y76008D02*
X38386Y60246D01*
X28837Y72660D02*
X36800Y80624D01*
X22624Y75289D02*
X37667Y60246D01*
X32429Y69068D02*
X37231Y73870D01*
X32788Y68709D02*
X37590Y73511D01*
X33865Y67631D02*
X38668Y72434D01*
X34225Y67272D02*
X39027Y72074D01*
X33147Y68350D02*
X37949Y73152D01*
X33506Y67990D02*
X38309Y72793D01*
X32069Y69427D02*
X36882Y74240D01*
X26675Y73250D02*
X39104Y60821D01*
X31710Y69787D02*
X36800Y74877D01*
X31452Y65218D02*
X33080Y66846D01*
X22624Y74571D02*
X36949Y60246D01*
X22624Y74047D02*
X36425Y60246D01*
X21675Y73424D02*
X35802Y59297D01*
X25235Y67650D02*
X32865Y60020D01*
X50975Y59596D02*
X54987Y63608D01*
X50975Y60314D02*
X54627Y63967D01*
X50975Y58877D02*
X55070Y62973D01*
X50924Y61700D02*
X53909Y64685D01*
X50975Y61033D02*
X54268Y64326D01*
X50975Y61307D02*
X55070Y57211D01*
X50975Y56722D02*
X55070Y60818D01*
X50975Y58159D02*
X55070Y62255D01*
X50975Y57440D02*
X55070Y61536D01*
X49511Y63161D02*
X52472Y66122D01*
X49871Y62802D02*
X52831Y65763D01*
X48793Y63880D02*
X51754Y66841D01*
X49152Y63521D02*
X52113Y66481D01*
X50230Y62443D02*
X53191Y65404D01*
X50589Y62084D02*
X53550Y65045D01*
X50975Y58433D02*
X55070Y54337D01*
X50975Y56996D02*
X53347Y54624D01*
X50975Y56278D02*
X52661Y54592D01*
X50975Y55560D02*
X52199Y54335D01*
X50975Y53848D02*
X55070Y57944D01*
X50975Y57715D02*
X55070Y53619D01*
X50975Y54841D02*
X51882Y53934D01*
X50975Y54123D02*
X51734Y53363D01*
X50975Y56004D02*
X55070Y60099D01*
X50975Y59870D02*
X55070Y55774D01*
X50975Y60588D02*
X55070Y56493D01*
X48816Y57000D02*
X49863Y55952D01*
X50975Y59152D02*
X55070Y55056D01*
X50975Y54567D02*
X55070Y58663D01*
X50975Y55285D02*
X55070Y59381D01*
X48816Y54845D02*
X49863Y53797D01*
X48259Y58317D02*
X49863Y59921D01*
X47900Y58677D02*
X49863Y60640D01*
X48619Y57958D02*
X49863Y59203D01*
X47541Y59036D02*
X49803Y61298D01*
X48759Y57775D02*
X49863Y56671D01*
X48816Y56718D02*
X49863Y57766D01*
X48816Y57437D02*
X49863Y58484D01*
X46823Y59754D02*
X49085Y62016D01*
X47182Y59395D02*
X49444Y61657D01*
X46104Y60473D02*
X48366Y62735D01*
X46463Y60113D02*
X48726Y62376D01*
X46271Y57766D02*
X46755Y58250D01*
X46606Y57382D02*
X47114Y57891D01*
X45912Y58125D02*
X46396Y58609D01*
X48816Y56282D02*
X49863Y55234D01*
X48816Y54563D02*
X49863Y55611D01*
X48816Y56000D02*
X49863Y57048D01*
X48816Y55281D02*
X49863Y56329D01*
X48816Y55563D02*
X49863Y54515D01*
X48816Y53845D02*
X49863Y54892D01*
X46657Y53841D02*
X47704Y54889D01*
X46657Y54849D02*
X47704Y53801D01*
X46657Y55996D02*
X47704Y57044D01*
X46657Y57004D02*
X47704Y55956D01*
X46657Y56715D02*
X47474Y57532D01*
X46657Y54559D02*
X47704Y55607D01*
X46657Y55567D02*
X47704Y54519D01*
X46657Y55278D02*
X47704Y56325D01*
X46657Y56285D02*
X47704Y55238D01*
X50975Y50975D02*
X52262Y52262D01*
X50975Y50975D02*
X52262Y52262D01*
X50975Y52411D02*
X51741Y53178D01*
X50975Y51693D02*
X51922Y52641D01*
X51191Y49036D02*
X55070Y52915D01*
X51550Y48677D02*
X55070Y52197D01*
X50975Y49538D02*
X53506Y52069D01*
X50975Y50256D02*
X52750Y52031D01*
X50975Y53130D02*
X55070Y57226D01*
X48816Y53408D02*
X49863Y52360D01*
X48816Y54126D02*
X49863Y53079D01*
X48816Y52408D02*
X49863Y53456D01*
X50975Y49252D02*
Y61468D01*
Y53404D02*
X55070Y49308D01*
X49863Y49022D02*
Y61238D01*
X48816Y51689D02*
X49863Y52737D01*
X51909Y48317D02*
X55070Y51478D01*
X50491Y46180D02*
X51483Y47172D01*
X50131Y46539D02*
X51124Y47532D01*
X51568Y45102D02*
X52561Y46095D01*
X51927Y44743D02*
X52920Y45736D01*
X50850Y45821D02*
X51842Y46813D01*
X51209Y45462D02*
X52201Y46454D01*
X48816Y48816D02*
X49863Y49863D01*
X48816Y50252D02*
X49863Y51300D01*
X48816Y50534D02*
X49863Y49486D01*
X49413Y47258D02*
X50405Y48250D01*
X49772Y46899D02*
X50764Y47891D01*
X48816Y48097D02*
X49863Y49145D01*
X49054Y47617D02*
X50046Y48609D01*
X48816Y50971D02*
X49863Y52019D01*
X48816Y52690D02*
X49863Y51642D01*
X48816Y51971D02*
X49863Y50923D01*
X48816Y53126D02*
X49863Y54174D01*
X46657Y51975D02*
X47704Y50927D01*
X48816Y47855D02*
Y57531D01*
X47704Y47625D02*
Y57301D01*
X46657Y50249D02*
X47704Y51297D01*
X46657Y51256D02*
X47704Y50209D01*
X46657Y52404D02*
X47704Y53452D01*
X46657Y53412D02*
X47704Y52364D01*
X46657Y53122D02*
X47704Y54170D01*
X46657Y54130D02*
X47704Y53082D01*
X46657Y52693D02*
X47704Y51645D01*
X46657Y50967D02*
X47704Y52015D01*
X46657Y44680D02*
Y57150D01*
Y51686D02*
X47704Y52733D01*
X48816Y49534D02*
X49863Y50582D01*
X48816Y48816D02*
X49863Y49863D01*
X48816Y51253D02*
X49863Y50205D01*
X46657Y45938D02*
X47909Y47190D01*
X46657Y45220D02*
X48268Y46831D01*
X46657Y46657D02*
X47704Y47704D01*
X46657Y48812D02*
X47704Y49860D01*
X46657Y49820D02*
X47704Y48772D01*
X46657Y49530D02*
X47704Y50578D01*
X46657Y50538D02*
X47704Y49490D01*
X46657Y47375D02*
X47704Y48423D01*
X46657Y46657D02*
X47704Y47704D01*
X46657Y48093D02*
X47704Y49141D01*
X46657Y49101D02*
X47704Y48053D01*
X43809Y61770D02*
X46570Y64531D01*
X43091Y61770D02*
X46211Y64890D01*
X44527Y61770D02*
X46930Y64172D01*
X45386Y61191D02*
X47648Y63453D01*
X45745Y60832D02*
X48007Y63094D01*
X45027Y61550D02*
X47289Y63812D01*
X43703Y60227D02*
X44135Y60658D01*
X40217Y61770D02*
X44774Y66327D01*
X40935Y61770D02*
X45134Y65968D01*
X39613Y61884D02*
X44415Y66686D01*
X39727Y61770D02*
X44577D01*
X41654D02*
X45493Y65609D01*
X42372Y61770D02*
X45852Y65249D01*
X40847Y60658D02*
X41260Y60246D01*
X39497Y60658D02*
X44347D01*
X44116Y59921D02*
X44600Y60405D01*
X43003Y60246D02*
X43416Y60658D01*
X45193Y58843D02*
X45678Y59328D01*
X45553Y58484D02*
X46037Y58968D01*
X44475Y59562D02*
X44959Y60046D01*
X44834Y59203D02*
X45318Y59687D01*
X41567Y60246D02*
X41979Y60658D01*
X36425Y60246D02*
X43561D01*
X40848D02*
X41261Y60658D01*
X41565D02*
X41978Y60246D01*
X43002Y60658D02*
X43415Y60246D01*
X36195Y59134D02*
X43331D01*
X42284Y60658D02*
X42696Y60246D01*
X42285D02*
X42698Y60658D01*
X34685Y61985D02*
X36313Y63613D01*
X34326Y62345D02*
X35953Y63972D01*
X35045Y61626D02*
X36672Y63253D01*
X33608Y63063D02*
X35235Y64690D01*
X33967Y62704D02*
X35594Y64331D01*
X36122Y60549D02*
X37749Y62176D01*
X36538Y60246D02*
X38109Y61817D01*
X35404Y61267D02*
X37031Y62894D01*
X35763Y60908D02*
X37390Y62535D01*
X32530Y64141D02*
X34157Y65768D01*
X32889Y63781D02*
X34517Y65409D01*
X31812Y64859D02*
X33439Y66486D01*
X32171Y64500D02*
X33798Y66127D01*
X33249Y63422D02*
X34876Y65049D01*
X31086Y59104D02*
X33540Y61559D01*
X31086Y60541D02*
X32822Y62277D01*
X31086Y59822D02*
X33181Y61918D01*
X37975Y60246D02*
X38827Y61098D01*
X38693Y60246D02*
X39195Y60748D01*
X40128Y60658D02*
X40541Y60246D01*
X40130D02*
X40543Y60658D01*
X39402Y60667D02*
X39823Y60246D01*
X39411D02*
X39824Y60658D01*
X37256Y60246D02*
X38468Y61457D01*
X33559Y59422D02*
X34618Y60481D01*
X32740Y60040D02*
X33900Y61200D01*
X33252Y59833D02*
X34259Y60840D01*
X33569Y58714D02*
X34977Y60122D01*
X44970Y61607D02*
X48653Y57924D01*
X44347Y60658D02*
X47704Y57301D01*
X43954Y60083D02*
X46494Y57543D01*
X43331Y59134D02*
X45545Y56920D01*
X43089Y59134D02*
X45545Y56678D01*
X43720Y60658D02*
X47704Y56674D01*
X40934Y59134D02*
X45545Y54523D01*
X42371Y59134D02*
X45545Y55960D01*
X41652Y59134D02*
X45545Y55241D01*
X40215Y59134D02*
X45545Y53804D01*
X38265Y53352D02*
X43689Y58776D01*
X37806Y54330D02*
X42611Y59134D01*
X38121Y53927D02*
X43329Y59134D01*
X33604Y59281D02*
X45545Y47339D01*
X38060Y59134D02*
X45545Y51649D01*
X39497Y59134D02*
X45545Y53086D01*
X38779Y59134D02*
X45545Y52368D01*
X43131Y53907D02*
X45545Y56322D01*
X43266Y53324D02*
X45545Y55603D01*
X42369Y54582D02*
X45126Y57339D01*
X42822Y54316D02*
X45485Y56980D01*
X42760Y52280D02*
X45545Y49494D01*
X42282Y52039D02*
X45545Y48776D01*
X43261Y53215D02*
X45545Y50931D01*
X43092Y52666D02*
X45545Y50212D01*
X41703Y54634D02*
X44767Y57698D01*
X41553Y52049D02*
X45545Y48057D01*
X33703Y48071D02*
X44048Y58417D01*
X38259Y53189D02*
X45545Y45902D01*
X38081Y52648D02*
X45545Y45184D01*
X33534Y58631D02*
X45545Y46620D01*
X33703Y47353D02*
X44408Y58058D01*
X36667Y54627D02*
X41174Y59134D01*
X37342D02*
X41826Y54650D01*
X33205Y58242D02*
X36800Y54648D01*
X36623Y59134D02*
X41277Y54481D01*
X37347Y54589D02*
X41892Y59134D01*
X33195Y51874D02*
X40455Y59134D01*
X33195Y50649D02*
Y58235D01*
Y56184D02*
X36147Y59136D01*
X33195Y55466D02*
X36863Y59134D01*
X33195Y57621D02*
X35336Y59763D01*
X33195Y56903D02*
X35696Y59404D01*
X33195Y53310D02*
X39019Y59134D01*
X33195Y52592D02*
X39737Y59134D01*
X33195Y54747D02*
X37582Y59134D01*
X33195Y54029D02*
X38300Y59134D01*
X33703Y49508D02*
X36332Y52138D01*
X33641Y50165D02*
X35929Y52453D01*
X33703Y45916D02*
X40677Y52890D01*
X33703Y45197D02*
X40943Y52437D01*
X33703Y46634D02*
X40625Y53556D01*
X33703Y48789D02*
X36907Y51994D01*
X33195Y57534D02*
X36259Y54470D01*
X33195Y56816D02*
X35878Y54132D01*
X33195Y56097D02*
X35644Y53648D01*
X33195Y55379D02*
X35674Y52900D01*
X33195Y51155D02*
X35632Y53592D01*
X33301Y50543D02*
X35670Y52912D01*
X33195Y50649D02*
X33540Y50304D01*
X23167Y84952D02*
X32733Y94517D01*
X26272Y83136D02*
X26512Y82895D01*
X27624Y82942D02*
X27728Y83047D01*
X26512Y73643D02*
Y82993D01*
X27624Y73873D02*
Y82993D01*
X23321Y84650D02*
X26512Y81459D01*
X23362Y83891D02*
X26512Y80740D01*
X21430Y85370D02*
X30578Y94517D01*
X22292Y85514D02*
X31296Y94517D01*
X17764D02*
X26780Y85501D01*
X18482Y94517D02*
X27563Y85437D01*
X22806Y85309D02*
X32015Y94517D01*
X22754Y83062D02*
X26512Y79303D01*
X14172Y94517D02*
X26512Y82177D01*
X23132Y83402D02*
X26512Y80022D01*
X22624Y75068D02*
X26512Y78957D01*
X22624Y78882D02*
X26512Y74993D01*
X22624Y75787D02*
X26512Y79676D01*
X22624Y79600D02*
X26512Y75711D01*
X22831Y73839D02*
X26512Y77520D01*
X22624Y77445D02*
X26521Y73548D01*
X22624Y74350D02*
X26512Y78239D01*
X22624Y78163D02*
X26512Y74274D01*
X22624Y77942D02*
X26512Y81831D01*
X22624Y81755D02*
X26512Y77866D01*
X22624Y78660D02*
X26512Y82549D01*
X22624Y82474D02*
X26512Y78585D01*
X22624Y76505D02*
X26512Y80394D01*
X22624Y80318D02*
X26512Y76430D01*
X22624Y77224D02*
X26512Y81112D01*
X22624Y81037D02*
X26512Y77148D01*
X12735Y94517D02*
X21757Y85496D01*
X12017Y94517D02*
X21268Y85266D01*
X13454Y94517D02*
X22516Y85455D01*
X11507Y85504D02*
X20520Y94517D01*
X12189Y85468D02*
X21238Y94517D01*
X12965Y84807D02*
X22675Y94517D01*
X13110Y84234D02*
X23394Y94517D01*
X11298D02*
X20928Y84888D01*
X12649Y85210D02*
X21957Y94517D01*
X8109Y84262D02*
X18365Y94517D01*
X10580D02*
X20746Y84351D01*
X7633Y85223D02*
X16928Y94517D01*
X7955Y84826D02*
X17646Y94517D01*
X8425D02*
X21512Y81430D01*
X7706Y94517D02*
X21512Y80711D01*
X9861Y94517D02*
X21512Y82866D01*
X9143Y94517D02*
X21512Y82148D01*
X22624Y81534D02*
X25870Y84780D01*
X22624Y80816D02*
X25761Y83953D01*
X22624Y80097D02*
X25973Y83446D01*
X22624Y79379D02*
X26336Y83091D01*
X21512Y73817D02*
Y82993D01*
X22624Y74047D02*
Y82993D01*
X14890Y94517D02*
X26002Y83406D01*
X17046Y94517D02*
X26285Y85278D01*
X15609Y94517D02*
X25749Y84377D01*
X16327Y94517D02*
X25939Y84906D01*
X12935Y83541D02*
X21512Y74964D01*
X12602Y83156D02*
X21512Y74245D01*
X13106Y84089D02*
X21512Y75682D01*
X25705Y70966D02*
X27332Y72593D01*
X25346Y71325D02*
X26973Y72952D01*
X26064Y70606D02*
X27692Y72234D01*
X27142Y69529D02*
X28769Y71156D01*
X27501Y69170D02*
X29128Y70797D01*
X26424Y70247D02*
X28051Y71874D01*
X26783Y69888D02*
X28410Y71515D01*
X23909Y72762D02*
X26512Y75365D01*
X24268Y72402D02*
X26512Y74647D01*
X23191Y73480D02*
X26512Y76802D01*
X23550Y73121D02*
X26512Y76083D01*
X7459Y72117D02*
X29859Y94517D01*
X24987Y71684D02*
X26619Y73316D01*
X24627Y72043D02*
X26512Y73928D01*
X9433Y71238D02*
X26037Y54634D01*
X28220Y68451D02*
X29847Y70078D01*
X28579Y68092D02*
X30206Y69719D01*
X27860Y68810D02*
X29488Y70438D01*
X25470Y68575D02*
X25997Y69102D01*
X29297Y67374D02*
X30924Y69001D01*
X29656Y67014D02*
X31284Y68642D01*
X28938Y67733D02*
X30565Y69360D01*
X25533Y67201D02*
X26715Y68384D01*
X25207Y69031D02*
X25638Y69461D01*
X25188Y67574D02*
X26356Y68743D01*
X22654Y67914D02*
X24919Y70180D01*
X24746Y69288D02*
X25279Y69821D01*
X9396Y70557D02*
X25371Y54582D01*
X9137Y70098D02*
X24919Y54316D01*
X8734Y69782D02*
X24610Y53906D01*
X11392Y82929D02*
X22218Y72103D01*
X9223Y71726D02*
X20961Y83464D01*
X9436Y71221D02*
X21318Y83103D01*
X9441Y66196D02*
X21512Y78268D01*
X9303Y65340D02*
X21512Y77549D01*
X9332Y70398D02*
X21512Y82578D01*
X9235Y66709D02*
X21512Y78986D01*
X8103Y84062D02*
X21109Y71056D01*
X7924Y83523D02*
X21542Y69905D01*
X8342Y72282D02*
X20900Y84840D01*
X8860Y72081D02*
X20756Y83978D01*
X7586Y83143D02*
X21542Y69187D01*
X8877Y67069D02*
X21512Y79705D01*
X7523Y67152D02*
X21512Y81141D01*
X8367Y67277D02*
X21512Y80423D01*
X22964Y70639D02*
X24307Y69295D01*
X22654Y70231D02*
X23835Y69050D01*
X22878Y71731D02*
X23123Y71976D01*
X23084Y71218D02*
X23483Y71617D01*
X22654Y68633D02*
X24560Y70539D01*
X22654Y68794D02*
X23728Y67720D01*
X22654Y65000D02*
Y70300D01*
Y69512D02*
X23561Y68605D01*
X21763Y72052D02*
X22405Y72694D01*
X22468Y72039D02*
X22764Y72335D01*
X22654Y69351D02*
X24201Y70898D01*
X8160Y69638D02*
X24475Y53322D01*
X22654Y70069D02*
X23842Y71258D01*
X21542Y64770D02*
Y70300D01*
X7167Y85475D02*
X16209Y94517D01*
X4841Y91770D02*
X7588Y94517D01*
X6988D02*
X21512Y79993D01*
X4590Y92956D02*
X6152Y94517D01*
X4801Y92448D02*
X6870Y94517D01*
X4832D02*
X21512Y77837D01*
X4114Y94517D02*
X21512Y77119D01*
X6269Y94517D02*
X21512Y79274D01*
X5551Y94517D02*
X21512Y78556D01*
X483Y85256D02*
X9744Y94517D01*
X483Y84538D02*
X10462Y94517D01*
X483Y86693D02*
X8307Y94517D01*
X483Y85975D02*
X9025Y94517D01*
X483Y75198D02*
X19802Y94517D01*
X3396D02*
X21512Y76401D01*
X483Y83819D02*
X11181Y94517D01*
X483Y75917D02*
X19083Y94517D01*
X6470Y85496D02*
X15491Y94517D01*
X4817Y92378D02*
X11667Y85528D01*
X4823Y91653D02*
X11119Y85357D01*
X4635Y91123D02*
X10734Y85024D01*
X4332Y90708D02*
X10494Y84545D01*
X3928Y90393D02*
X10507Y83814D01*
X483Y76635D02*
X6720Y82873D01*
X483Y83101D02*
X11899Y94517D01*
X483Y82383D02*
X12617Y94517D01*
X483Y91683D02*
X6641Y85525D01*
X483Y90965D02*
X6101Y85346D01*
X483Y80946D02*
X14054Y94517D01*
X483Y80227D02*
X14773Y94517D01*
X483Y81664D02*
X13336Y94517D01*
X483Y77354D02*
X6156Y83027D01*
X3309Y93830D02*
X3996Y94517D01*
X2677D02*
X3378Y93817D01*
X3848Y93651D02*
X4715Y94517D01*
X1959D02*
X2653Y93823D01*
X2564Y93804D02*
X3278Y94517D01*
X4269Y93354D02*
X5433Y94517D01*
X1240D02*
X2123Y93635D01*
X522Y94517D02*
X1708Y93332D01*
X483Y93159D02*
X1841Y94517D01*
X483Y93877D02*
X1123Y94517D01*
X483Y93838D02*
X1393Y92928D01*
X483Y92441D02*
X2559Y94517D01*
X483Y93120D02*
X1191Y92412D01*
X483Y91722D02*
X1196Y92436D01*
X483Y89528D02*
X5488Y84522D01*
X483Y88809D02*
X5521Y83771D01*
X483Y78072D02*
X5759Y83349D01*
X483Y79509D02*
X5486Y84512D01*
X483Y78791D02*
X5507Y83815D01*
X483Y90285D02*
X1349Y91152D01*
X483Y89567D02*
X1646Y90731D01*
X483Y92402D02*
X1166Y91718D01*
X483Y91004D02*
X1170Y91691D01*
X483Y90246D02*
X5721Y85008D01*
X483Y87412D02*
X3230Y90159D01*
X483Y88848D02*
X2044Y90410D01*
X483Y88130D02*
X2552Y90199D01*
X3412Y90191D02*
X21617Y71986D01*
X483Y86654D02*
X21542Y65594D01*
X483Y85936D02*
X21542Y64876D01*
X483Y88091D02*
X21542Y67031D01*
X483Y87373D02*
X21542Y66313D01*
X483Y83781D02*
X27474Y56789D01*
X483Y83062D02*
X27474Y56070D01*
X483Y85217D02*
X27474Y58226D01*
X483Y84499D02*
X27474Y57507D01*
X483Y69451D02*
X25549Y94517D01*
X483Y68733D02*
X26267Y94517D01*
X483Y70888D02*
X24112Y94517D01*
X483Y70169D02*
X24831Y94517D01*
X483Y66577D02*
X28423Y94517D01*
X483Y65859D02*
X29141Y94517D01*
X483Y68014D02*
X26986Y94517D01*
X483Y67296D02*
X27704Y94517D01*
X6349Y82943D02*
X21542Y67750D01*
X7100Y82910D02*
X21542Y68468D01*
X483Y53646D02*
X21512Y74676D01*
X483Y52927D02*
X21512Y73957D01*
X483Y52209D02*
X21686Y73413D01*
X483Y51491D02*
X22046Y73054D01*
X483Y48617D02*
X21542Y69677D01*
X483Y47898D02*
X21542Y68958D01*
X483Y82344D02*
X27474Y55352D01*
X483Y81625D02*
X27474Y54633D01*
X483Y55801D02*
X21512Y76831D01*
X483Y55083D02*
X21512Y76112D01*
X483Y76596D02*
X27474Y49605D01*
X483Y75878D02*
X27474Y48886D01*
X483Y80907D02*
X27474Y53915D01*
X483Y54364D02*
X21512Y75394D01*
X2718Y90166D02*
X21251Y71633D01*
X483Y78752D02*
X7260Y71975D01*
X483Y78033D02*
X6944Y71572D01*
X483Y77315D02*
X6800Y70998D01*
X483Y75159D02*
X8364Y67278D01*
X483Y74441D02*
X7697Y67226D01*
X483Y73723D02*
X7244Y66961D01*
X483Y73004D02*
X6935Y66552D01*
X483Y73043D02*
X10772Y83333D01*
X483Y72325D02*
X11175Y83017D01*
X483Y74480D02*
X10478Y84475D01*
X483Y73762D02*
X10514Y83793D01*
X483Y71606D02*
X11748Y82872D01*
X483Y60830D02*
X21512Y81860D01*
X483Y80188D02*
X8400Y72271D01*
X483Y79470D02*
X7719Y72234D01*
X483Y62267D02*
X7877Y69662D01*
X483Y63704D02*
X7017Y70238D01*
X483Y62985D02*
X7372Y69875D01*
X483Y70131D02*
X16734Y53880D01*
X483Y69412D02*
X16015Y53880D01*
X483Y61548D02*
X8700Y69766D01*
X483Y68694D02*
X15297Y53880D01*
X483Y65141D02*
X6981Y71639D01*
X483Y71567D02*
X18170Y53880D01*
X483Y72286D02*
X6799Y65969D01*
X483Y64422D02*
X6816Y70756D01*
X483Y50054D02*
X21179Y70750D01*
X483Y49335D02*
X21487Y70340D01*
X483Y50772D02*
X21166Y71455D01*
X483Y70849D02*
X17452Y53880D01*
X31093Y65577D02*
X32721Y67205D01*
X30734Y65937D02*
X32361Y67564D01*
X30921Y61813D02*
X32104Y62996D01*
X31086Y61259D02*
X32463Y62636D01*
X31086Y61080D02*
X32215Y59950D01*
X31086Y60362D02*
X31826Y59621D01*
X31086Y59643D02*
X31649Y59080D01*
X30016Y66655D02*
X31643Y68282D01*
X30375Y66296D02*
X32002Y67923D01*
X29125Y63609D02*
X30308Y64792D01*
X29484Y63250D02*
X30667Y64433D01*
X30202Y62531D02*
X31385Y63714D01*
X30562Y62172D02*
X31744Y63355D01*
X25188Y67546D02*
X30923Y61811D01*
X29843Y62891D02*
X31026Y64073D01*
X31086Y56230D02*
X32083Y57228D01*
X31086Y56770D02*
X32083Y55772D01*
X31086Y56949D02*
X32083Y57947D01*
X31086Y57488D02*
X32083Y56490D01*
X31086Y54793D02*
X32083Y55791D01*
X31086Y55333D02*
X32083Y54335D01*
X31086Y55512D02*
X32083Y56510D01*
X31086Y56051D02*
X32083Y55053D01*
X31086Y58925D02*
X32083Y57927D01*
X31086Y58206D02*
X32083Y57209D01*
X31086Y58386D02*
X31654Y58954D01*
X31086Y57667D02*
X31861Y58442D01*
X28586Y54449D02*
X29974Y55838D01*
X28586Y55678D02*
X29974Y54289D01*
X28586Y55886D02*
X29974Y57274D01*
X28586Y56396D02*
X29974Y55007D01*
X27688Y65046D02*
X28871Y66229D01*
X27329Y65405D02*
X28511Y66588D01*
X28047Y64687D02*
X29230Y65869D01*
X26610Y66123D02*
X27793Y67306D01*
X26969Y65764D02*
X28152Y66947D01*
X28406Y64327D02*
X29589Y65510D01*
X28766Y63968D02*
X29948Y65151D01*
X26944Y60710D02*
X28698Y62464D01*
X27303Y60351D02*
X29057Y62105D01*
X25892Y66842D02*
X27075Y68025D01*
X26251Y66483D02*
X27434Y67665D01*
X25148Y62506D02*
X26902Y64260D01*
X26226Y61428D02*
X27980Y63182D01*
X26585Y61069D02*
X28339Y62823D01*
X25507Y62147D02*
X27261Y63901D01*
X25866Y61787D02*
X27621Y63542D01*
X28586Y57322D02*
X29974Y58711D01*
X28586Y58551D02*
X29974Y57162D01*
X28586Y58759D02*
X29974Y60148D01*
X28586Y58041D02*
X29974Y59430D01*
X28586Y57114D02*
X29974Y55726D01*
X28586Y55167D02*
X29974Y56556D01*
X28586Y56604D02*
X29974Y57993D01*
X28586Y57833D02*
X29974Y56444D01*
X28022Y59632D02*
X29776Y61386D01*
X28381Y59273D02*
X29974Y60867D01*
X27662Y59991D02*
X29417Y61746D01*
X26850Y54150D02*
X27474Y54774D01*
X25913Y54650D02*
X27474Y56211D01*
X26463Y54481D02*
X27474Y55493D01*
X32083Y50419D02*
Y58235D01*
X31086Y51741D02*
X32083Y50743D01*
X31086Y50483D02*
X32083Y51481D01*
X31086Y52459D02*
X32083Y51461D01*
X31086Y51201D02*
X32083Y52199D01*
X31086Y51022D02*
X32591Y49516D01*
X31086Y49765D02*
X32083Y50762D01*
X31086Y53357D02*
X32083Y54354D01*
X31086Y53896D02*
X32083Y52898D01*
X31086Y54075D02*
X32083Y55073D01*
X31086Y54614D02*
X32083Y53617D01*
X31086Y53178D02*
X32083Y52180D01*
X31086Y51920D02*
X32083Y52918D01*
X31086Y52638D02*
X32083Y53636D01*
X28586Y49420D02*
X29974Y50809D01*
X31086Y46172D02*
X32591Y47678D01*
X31086Y47430D02*
X32591Y45924D01*
X32246Y50026D02*
X32591Y49681D01*
X31086Y48149D02*
X32591Y46643D01*
X31086Y46712D02*
X32591Y45206D01*
X31086Y44736D02*
X32591Y46241D01*
X31086Y45454D02*
X32591Y46960D01*
X31086Y44622D02*
X31648D01*
X31086Y50304D02*
X32591Y48798D01*
X31086Y49585D02*
X32591Y48080D01*
X31086Y49046D02*
X32166Y50127D01*
X31086Y48328D02*
X32515Y49757D01*
X31086Y48867D02*
X32591Y47361D01*
X31086Y46891D02*
X32591Y48397D01*
X31086Y47609D02*
X32591Y49115D01*
X28586Y45828D02*
X29974Y47217D01*
X28586Y52293D02*
X29974Y53682D01*
X28586Y53522D02*
X29974Y52133D01*
X28586Y53012D02*
X29974Y54401D01*
X28586Y54241D02*
X29974Y52852D01*
X28586Y50857D02*
X29974Y52245D01*
X28586Y52085D02*
X29974Y50697D01*
X28586Y51575D02*
X29974Y52964D01*
X28586Y52804D02*
X29974Y51415D01*
X28586Y53730D02*
X29974Y55119D01*
X28586Y54959D02*
X29974Y53570D01*
X27090Y53672D02*
X27474Y54056D01*
X27116Y53555D02*
X27474Y53197D01*
X26798Y52437D02*
X27474Y51760D01*
X26388Y52128D02*
X27474Y51041D01*
X27081Y52944D02*
X27474Y53338D01*
X27064Y52889D02*
X27474Y52478D01*
X28586Y46546D02*
X29974Y47935D01*
X28586Y47775D02*
X29974Y46386D01*
X28586Y47265D02*
X29974Y48653D01*
X28586Y48493D02*
X29974Y47105D01*
X28586Y46338D02*
X29974Y44949D01*
X29535Y44622D02*
X29974Y45061D01*
X28586Y47056D02*
X29974Y45668D01*
X28586Y45109D02*
X29974Y46498D01*
X28586Y51367D02*
X29974Y49978D01*
X28586Y50649D02*
X29974Y49260D01*
X25804Y51993D02*
X27474Y50323D01*
X28586Y50138D02*
X29974Y51527D01*
X28586Y47983D02*
X29974Y49372D01*
X28586Y49212D02*
X29974Y47823D01*
X28586Y48701D02*
X29974Y50090D01*
X28586Y49930D02*
X29974Y48541D01*
X22993Y64661D02*
X24747Y66415D01*
X23905Y67543D02*
X24076Y67371D01*
Y67316D02*
Y67436D01*
X24239Y66923D02*
X29974Y61188D01*
X24070Y63583D02*
X25825Y65338D01*
X23352Y64302D02*
X25106Y66056D01*
X23711Y63943D02*
X25465Y65697D01*
X22654Y68075D02*
X29974Y60755D01*
X22654Y65040D02*
X24388Y66775D01*
X22654Y66477D02*
X23806Y67630D01*
X22654Y65759D02*
X24090Y67195D01*
X22654Y65920D02*
X29974Y58599D01*
X22654Y65202D02*
X29974Y57881D01*
X22654Y67357D02*
X29974Y60036D01*
X22654Y66638D02*
X29974Y59318D01*
X22654Y65000D02*
X28423Y59231D01*
X21705Y64377D02*
X27474Y58608D01*
X24430Y63224D02*
X26184Y64979D01*
X24789Y62865D02*
X26543Y64619D01*
X22084Y53695D02*
X27236Y58846D01*
X22093Y52985D02*
X27474Y58367D01*
X21444Y54492D02*
X26517Y59565D01*
X21837Y54166D02*
X26877Y59206D01*
X16522Y53880D02*
X24362Y61720D01*
X20886Y54652D02*
X26158Y59924D01*
X15085Y53880D02*
X23644Y62438D01*
X15803Y53880D02*
X24003Y62079D01*
X18677Y53880D02*
X25440Y60642D01*
X19395Y53880D02*
X25799Y60283D01*
X17240Y53880D02*
X24721Y61361D01*
X17959Y53880D02*
X25081Y61002D01*
X22654Y67196D02*
X23549Y68091D01*
X483Y57956D02*
X7389Y64863D01*
X483Y56519D02*
X8758Y64795D01*
X9440Y66202D02*
X21002Y54640D01*
X9388Y65535D02*
X20350Y54574D01*
X9123Y65082D02*
X19903Y54302D01*
X8714Y64773D02*
X19600Y53887D01*
X483Y67975D02*
X14578Y53880D01*
X483Y58675D02*
X7029Y65221D01*
X483Y60112D02*
X6946Y66575D01*
X483Y59393D02*
X6821Y65731D01*
X483Y67257D02*
X13860Y53880D01*
X483Y66538D02*
X13141Y53880D01*
X483Y65820D02*
X12423Y53880D01*
X483Y65102D02*
X11705Y53880D01*
X11493D02*
X21848Y64235D01*
X12211Y53880D02*
X22207Y63875D01*
X11414Y53880D02*
X19597D01*
X13648D02*
X22925Y63157D01*
X14366Y53880D02*
X23285Y62798D01*
X12930Y53880D02*
X22566Y63516D01*
X8131Y64637D02*
X18889Y53880D01*
X483Y57238D02*
X7902Y64657D01*
X483Y64383D02*
X11090Y53776D01*
X10137Y52833D02*
X11021Y53717D01*
X483Y63665D02*
X10726Y53422D01*
X483Y62946D02*
X10367Y53062D01*
X11644Y52768D02*
X19597D01*
X11086Y52210D02*
X11644Y52768D01*
X11086Y52036D02*
X11818Y52768D01*
X22122Y53520D02*
X27474Y48168D01*
X22056Y52868D02*
X27474Y47449D01*
X11086Y51317D02*
X12537Y52768D01*
X11086Y45570D02*
X18284Y52768D01*
X483Y47180D02*
X21542Y68240D01*
X483Y46462D02*
X21542Y67521D01*
X483Y62228D02*
X10007Y52703D01*
X5137Y47833D02*
X10137Y52833D01*
X483Y45743D02*
X21542Y66803D01*
X483Y45025D02*
X21542Y66085D01*
X11086Y46288D02*
X17566Y52768D01*
X11086Y44851D02*
X19003Y52768D01*
X11086Y47007D02*
X16847Y52768D01*
X21784Y52422D02*
X27474Y46731D01*
X11086Y48444D02*
X15410Y52768D01*
X11086Y47725D02*
X16129Y52768D01*
X21369Y52118D02*
X27474Y46012D01*
X20775Y51994D02*
X27474Y45294D01*
X14971Y52768D02*
X23118Y44622D01*
X17322D02*
X24980Y52280D01*
X11086Y49880D02*
X13974Y52768D01*
X11086Y49162D02*
X14692Y52768D01*
X11086Y50599D02*
X13255Y52768D01*
X6086Y47036D02*
X9974Y50924D01*
X7201Y48325D02*
X9974Y45552D01*
X6842Y47966D02*
X9974Y44833D01*
X6086Y45599D02*
X9974Y49488D01*
X7560Y48684D02*
X9974Y46270D01*
X483Y55762D02*
X6774Y49470D01*
X483Y55044D02*
X6415Y49111D01*
X483Y54325D02*
X6056Y48752D01*
X483Y53607D02*
X5697Y48393D01*
X483Y52888D02*
X5338Y48033D01*
X6086Y47210D02*
X9974Y51099D01*
X483Y52170D02*
X5012Y47641D01*
X483Y51452D02*
X4974Y46960D01*
X483Y61509D02*
X9648Y52344D01*
X483Y60791D02*
X9289Y51985D01*
X483Y60073D02*
X8930Y51625D01*
X483Y59354D02*
X8571Y51266D01*
X483Y58636D02*
X8211Y50907D01*
X483Y57917D02*
X7852Y50548D01*
X483Y57199D02*
X7493Y50189D01*
X483Y56481D02*
X7134Y49829D01*
X8997Y50121D02*
X9974Y49144D01*
X8638Y49762D02*
X9974Y48426D01*
X9715Y50840D02*
X9974Y50581D01*
X9356Y50481D02*
X9974Y49862D01*
X8279Y49403D02*
X9974Y47707D01*
X7919Y49044D02*
X9974Y46989D01*
X6086Y45849D02*
X7313Y44622D01*
X6912D02*
X9148D01*
X6086Y46317D02*
X9974Y50206D01*
X483Y50733D02*
X4974Y46241D01*
X6086Y44880D02*
X9974Y48769D01*
X6086Y46567D02*
X8031Y44622D01*
X483Y50015D02*
X4974Y45523D01*
X483Y49296D02*
X4974Y44805D01*
X50975Y51967D02*
X64666Y38276D01*
X50975Y52686D02*
X64914Y38747D01*
X50975Y49252D02*
X60719Y39508D01*
X50026Y48629D02*
X59770Y38885D01*
X48816Y47855D02*
X55575Y41095D01*
X50975Y50531D02*
X70485Y31020D01*
X50975Y49812D02*
X69974Y30812D01*
X50975Y51249D02*
X64433Y37791D01*
X48816Y48379D02*
X59311Y37883D01*
X46657Y47664D02*
X54627Y39694D01*
X46657Y46946D02*
X54627Y38976D01*
X46657Y48383D02*
X54627Y40412D01*
X47867Y47232D02*
X54627Y40472D01*
X48816Y49816D02*
X59770Y38861D01*
X48816Y49097D02*
X59577Y38336D01*
X46657Y46228D02*
X54493Y38391D01*
X46657Y45509D02*
X54197Y37969D01*
X50595Y39100D02*
X53297Y41802D01*
X50659Y38446D02*
X53656Y41443D01*
X50594Y40536D02*
X52579Y42521D01*
X50595Y39818D02*
X52938Y42161D01*
X50595Y40134D02*
X59827Y30902D01*
X50809Y30694D02*
X59386Y39270D01*
X50987Y38056D02*
X54015Y41084D01*
X51082Y37432D02*
X54375Y40725D01*
X46657Y44791D02*
X54177Y37270D01*
X49868Y36550D02*
X55417Y31001D01*
X49979Y41358D02*
X51860Y43239D01*
X50338Y40999D02*
X52219Y42880D01*
X50371Y30974D02*
X59026Y39629D01*
X49620Y30941D02*
X55216Y36537D01*
X45311Y30942D02*
X54627Y40258D01*
X45719Y30632D02*
X54627Y39540D01*
X47824Y43513D02*
X49705Y45394D01*
X47464Y43872D02*
X49346Y45754D01*
X48183Y43154D02*
X50064Y45035D01*
X46746Y44591D02*
X48627Y46472D01*
X47105Y44232D02*
X48986Y46113D01*
X49260Y42076D02*
X51142Y43958D01*
X49620Y41717D02*
X51501Y43598D01*
X48542Y42795D02*
X50423Y44676D01*
X48901Y42435D02*
X50783Y44317D01*
X46657Y44680D02*
X50432Y40905D01*
X45545Y44450D02*
Y56920D01*
X45708Y44057D02*
X49483Y40282D01*
X40764Y37891D02*
X46319Y43446D01*
X40043Y38607D02*
X45616Y44179D01*
X40496Y38341D02*
X45960Y43805D01*
X50595Y38490D02*
Y40512D01*
X49483Y38490D02*
Y40282D01*
X45879Y37976D02*
X48834Y40931D01*
X45905Y37284D02*
X49193Y40572D01*
X45094Y38629D02*
X48116Y41650D01*
X45580Y38396D02*
X48475Y41291D01*
X40679Y37087D02*
X46679Y43087D01*
X44648Y30998D02*
X50199Y36549D01*
X44852Y36537D02*
X50442Y30948D01*
X40245Y30905D02*
X49483Y40144D01*
X39643Y31022D02*
X45203Y36582D01*
X51063Y30229D02*
X59745Y38911D01*
X50595Y39416D02*
X59450Y30561D01*
X50855Y29302D02*
X59279Y37726D01*
X50595Y38697D02*
X59272Y30021D01*
X51015Y30375D02*
X52176Y29213D01*
X51089Y37485D02*
X83893Y4681D01*
X50889Y36966D02*
X76255Y11600D01*
X51039Y29633D02*
X51817Y28854D01*
X50756Y29197D02*
X51458Y28495D01*
X45939Y30133D02*
X54627Y38822D01*
X45951Y37594D02*
X53254Y30291D01*
X45792Y37034D02*
X52895Y29932D01*
X45428Y36680D02*
X52536Y29572D01*
X50496Y36641D02*
X75544Y11593D01*
X50288Y28946D02*
X51099Y28135D01*
X51166Y26631D02*
X66164Y11633D01*
X50807Y26272D02*
X65679Y11400D01*
X50448Y25913D02*
X65371Y10990D01*
X49729Y11653D02*
X63854Y25777D01*
X52244Y27709D02*
X75125Y4828D01*
X51525Y26991D02*
X74888Y3628D01*
X51884Y27350D02*
X74855Y4379D01*
X50088Y25554D02*
X65299Y10343D01*
X45395Y11629D02*
X61698Y27932D01*
X45875Y11391D02*
X62057Y27573D01*
X49684Y28832D02*
X50740Y27776D01*
X49325Y28472D02*
X50380Y27417D01*
X46178Y10975D02*
X62417Y27214D01*
X46238Y10317D02*
X62776Y26855D01*
X40332Y8003D02*
X60980Y28651D01*
X44429Y11382D02*
X61339Y28292D01*
X40806Y30030D02*
X49483Y38707D01*
X40800Y37715D02*
X48899Y29617D01*
X45921Y29721D02*
X47462Y28180D01*
X45669Y29254D02*
X47102Y27821D01*
X45233Y28972D02*
X46743Y27462D01*
X44598Y28889D02*
X46384Y27103D01*
X44239Y28530D02*
X46025Y26744D01*
X40624Y30566D02*
X49483Y39425D01*
X40690Y37107D02*
X48539Y29258D01*
X40354Y36725D02*
X48180Y28899D01*
X39822Y36539D02*
X47821Y28540D01*
X40796Y29817D02*
X42375Y28238D01*
X40579Y29316D02*
X42016Y27878D01*
X40173Y29004D02*
X41657Y27519D01*
X39514Y28943D02*
X41298Y27160D01*
X48966Y28113D02*
X50021Y27058D01*
X48607Y27754D02*
X49662Y26699D01*
X48247Y27395D02*
X49303Y26339D01*
X47888Y27035D02*
X48943Y25980D01*
X47529Y26676D02*
X48584Y25621D01*
X47170Y26317D02*
X48225Y25262D01*
X46811Y25958D02*
X47866Y24903D01*
X46451Y25599D02*
X47507Y24543D01*
X43880Y28170D02*
X45666Y26384D01*
X43520Y27811D02*
X45306Y26025D01*
X43161Y27452D02*
X44947Y25666D01*
X42802Y27093D02*
X44588Y25307D01*
X42443Y26734D02*
X44229Y24948D01*
X42084Y26374D02*
X43870Y24588D01*
X41724Y26015D02*
X43510Y24229D01*
X41365Y25656D02*
X43151Y23870D01*
X33703Y40887D02*
X45545Y52730D01*
X33703Y41605D02*
X45545Y53448D01*
X37743Y52267D02*
X45545Y44465D01*
X33703Y44479D02*
X41352Y52128D01*
X33703Y43761D02*
X41936Y51993D01*
X36511Y52063D02*
X49483Y39090D01*
X37259Y52033D02*
X49483Y39809D01*
X33703Y40168D02*
X45545Y52011D01*
X33703Y39450D02*
X45545Y51293D01*
X33195Y54661D02*
X49413Y38442D01*
X33195Y53942D02*
X49088Y38049D01*
X33703Y43042D02*
X45545Y54885D01*
X33703Y42324D02*
X45545Y54166D01*
X33195Y52505D02*
X54760Y30940D01*
X33195Y51787D02*
X54355Y30627D01*
X33195Y53224D02*
X48997Y37421D01*
X33195Y51069D02*
X53736Y30528D01*
X39225Y38507D02*
X45545Y44827D01*
X33703Y41939D02*
X44645Y30997D01*
X33703Y41221D02*
X44178Y30746D01*
X33703Y40503D02*
X43895Y30310D01*
X33703Y45532D02*
X49013Y30221D01*
X33703Y39784D02*
X43812Y29675D01*
X33703Y39066D02*
X43453Y29315D01*
X39153Y28587D02*
X40939Y26801D01*
X33703Y49842D02*
X44897Y38648D01*
X33703Y49124D02*
X44338Y38488D01*
X33703Y48405D02*
X43984Y38124D01*
X33703Y47687D02*
X43841Y37549D01*
X33703Y46968D02*
X49700Y30972D01*
X33703Y46250D02*
X49264Y30689D01*
X33487Y38563D02*
X43094Y28956D01*
X33025Y38307D02*
X42735Y28597D01*
X33703Y44095D02*
X39268Y38530D01*
X33703Y44813D02*
X39875Y38640D01*
X33703Y39008D02*
Y49911D01*
Y43376D02*
X38885Y38194D01*
X33703Y42658D02*
X38699Y37662D01*
X33393Y38469D02*
X33540Y38616D01*
X18264Y39418D02*
X32591D01*
X31648Y43861D02*
X32591Y44805D01*
X31648Y43142D02*
X32591Y44086D01*
X26559Y38306D02*
X36930Y27936D01*
X27278Y38306D02*
X37289Y28295D01*
X25841Y38306D02*
X36571Y27577D01*
X31588Y38306D02*
X39096Y30799D01*
X32307Y38306D02*
X39597Y31016D01*
X30151Y38306D02*
X38723Y29734D01*
X30870Y38306D02*
X38784Y30393D01*
X38793Y28228D02*
X40579Y26442D01*
X38434Y27868D02*
X40220Y26082D01*
X28715Y38306D02*
X38008Y29013D01*
X29433Y38306D02*
X38367Y29373D01*
X18034Y38306D02*
X33001D01*
X27996D02*
X37648Y28654D01*
X24404Y38306D02*
X35852Y26858D01*
X25123Y38306D02*
X36212Y27217D01*
X22967Y38306D02*
X35134Y26140D01*
X23686Y38306D02*
X35493Y26499D01*
X34816Y17574D02*
X54282Y37040D01*
X34097Y17574D02*
X54127Y37603D01*
X34442Y21511D02*
X49575Y36644D01*
X33005Y21511D02*
X48988Y37493D01*
X33724Y21511D02*
X49185Y36972D01*
X38656Y11356D02*
X64492Y37192D01*
X38656Y10637D02*
X64797Y36778D01*
X31036Y8765D02*
X59385Y37114D01*
X35534Y17574D02*
X54644Y36684D01*
X28826Y23797D02*
X47397Y42368D01*
X29544Y23797D02*
X47756Y42009D01*
X2671Y4826D02*
X45545Y47701D01*
X28107Y23797D02*
X47038Y42727D01*
X483Y4075D02*
X45545Y49138D01*
X483Y3356D02*
X45545Y48419D01*
X483Y4793D02*
X45545Y49856D01*
X3380Y4816D02*
X45545Y46982D01*
X38656Y12074D02*
X55573Y28991D01*
X38656Y12792D02*
X54838Y28974D01*
X38656Y14121D02*
X53951Y29416D01*
X38656Y13511D02*
X54404Y29259D01*
X38732Y7840D02*
X59899Y29007D01*
X39058Y7447D02*
X60551Y28941D01*
X38656Y9200D02*
X59281Y29825D01*
X38656Y8482D02*
X59495Y29321D01*
X37707Y14744D02*
X53328Y30365D01*
X37478Y16625D02*
X49797Y28944D01*
X36253Y17574D02*
X49070Y30391D01*
X36855Y17574D02*
X49011Y29730D01*
X38656Y9919D02*
X65289Y36552D01*
X37840Y483D02*
X63494Y26136D01*
X31036Y9483D02*
X50709Y29156D01*
X37122Y483D02*
X63135Y26496D01*
X23797Y23797D02*
X45545Y45545D01*
X23797Y23797D02*
X45545Y45545D01*
X24515Y23797D02*
X38837Y38119D01*
X25233Y23797D02*
X38737Y37301D01*
X30262Y23797D02*
X43859Y37393D01*
X30981Y23797D02*
X44092Y36908D01*
X25952Y23797D02*
X39003Y36848D01*
X27389Y23797D02*
X40257Y36665D01*
X21530Y38306D02*
X34416Y25421D01*
X22249Y38306D02*
X34775Y25780D01*
X20094Y38306D02*
X33697Y24703D01*
X20812Y38306D02*
X34056Y25062D01*
X483Y5512D02*
X45545Y50574D01*
X23078Y23797D02*
X45545Y46264D01*
X18657Y38306D02*
X32979Y23984D01*
X19375Y38306D02*
X33338Y24344D01*
X38075Y27509D02*
X39861Y25723D01*
X37716Y27150D02*
X39502Y25364D01*
X37357Y26791D02*
X39143Y25005D01*
X36997Y26432D02*
X38783Y24646D01*
X35648Y21511D02*
X43868Y29730D01*
X36271Y20562D02*
X44654Y28944D01*
X36638Y26072D02*
X38424Y24286D01*
X36279Y25713D02*
X38065Y23927D01*
X31699Y23797D02*
X44511Y36609D01*
X26670Y23797D02*
X39453Y36580D01*
X32418Y23797D02*
X38702Y30081D01*
X32791Y23797D02*
X38724Y29730D01*
X35161Y21511D02*
X43869Y30219D01*
X23576Y7771D02*
X44734Y28929D01*
X33414Y22848D02*
X39510Y28944D01*
X32287Y21511D02*
X39694Y28918D01*
X50267Y11472D02*
X64213Y25418D01*
X49011Y24476D02*
X61833Y11654D01*
X48652Y24117D02*
X61288Y11480D01*
X47215Y22680D02*
X58267Y11627D01*
X46856Y22321D02*
X57603Y11573D01*
X50615Y11102D02*
X64572Y25059D01*
X50762Y10531D02*
X64931Y24700D01*
X48292Y23758D02*
X60935Y11115D01*
X47933Y23398D02*
X60779Y10552D01*
X46092Y25239D02*
X47147Y24184D01*
X45733Y24880D02*
X46788Y23825D01*
X45374Y24521D02*
X46429Y23466D01*
X45015Y24162D02*
X46070Y23107D01*
X46496Y21962D02*
X57185Y11273D01*
X46137Y21602D02*
X56943Y10796D01*
X44655Y23803D02*
X45711Y22747D01*
X44296Y23443D02*
X45351Y22388D01*
X45059Y20525D02*
X54082Y11502D01*
X44700Y20166D02*
X53245Y11620D01*
X45778Y21243D02*
X57142Y9879D01*
X44341Y19806D02*
X52779Y11369D01*
X42904Y18369D02*
X49619Y11654D01*
X42545Y18010D02*
X49069Y11486D01*
X42186Y17651D02*
X48713Y11124D01*
X43982Y19447D02*
X52487Y10942D01*
X43623Y19088D02*
X52455Y10255D01*
X41827Y17292D02*
X48552Y10567D01*
X43937Y23084D02*
X44992Y22029D01*
X43578Y22725D02*
X44633Y21670D01*
X43218Y22366D02*
X44274Y21310D01*
X42859Y22007D02*
X43915Y20951D01*
X42500Y21647D02*
X43555Y20592D01*
X42141Y21288D02*
X43196Y20233D01*
X41782Y20929D02*
X42837Y19874D01*
X41422Y20570D02*
X42478Y19514D01*
X41063Y20210D02*
X42118Y19155D01*
X41006Y25297D02*
X42792Y23511D01*
X40647Y24937D02*
X42433Y23151D01*
X40287Y24578D02*
X42074Y22792D01*
X39928Y24219D02*
X41714Y22433D01*
X39569Y23860D02*
X41355Y22074D01*
X40704Y19851D02*
X41759Y18796D01*
X39210Y23501D02*
X40996Y21715D01*
X38851Y23141D02*
X40637Y21355D01*
X40749Y16214D02*
X45320Y11643D01*
X40390Y15855D02*
X44692Y11553D01*
X40345Y19492D02*
X41400Y18437D01*
X41024Y7977D02*
X44325Y11278D01*
X41445Y7680D02*
X44077Y10312D01*
X41682Y7198D02*
X44316Y9832D01*
X39986Y19133D02*
X41041Y18078D01*
X39626Y18774D02*
X40682Y17718D01*
X39267Y18414D02*
X40322Y17359D01*
X38908Y18055D02*
X39963Y17000D01*
X40031Y15496D02*
X44290Y11236D01*
X39671Y15137D02*
X44068Y10740D01*
X39151Y6822D02*
X39622Y7293D01*
X49729Y25194D02*
X70408Y4516D01*
X49697Y5154D02*
X67086Y22544D01*
X50246Y4985D02*
X67446Y22185D01*
X47574Y23039D02*
X65698Y4916D01*
X50602Y4623D02*
X57042Y11063D01*
X49370Y24835D02*
X70316Y3889D01*
X50762Y4065D02*
X56955Y10257D01*
X46250Y10713D02*
X52497Y4466D01*
X50762Y10512D02*
X56950Y4324D01*
X45856Y4906D02*
X65290Y24340D01*
X45419Y20884D02*
X61309Y4993D01*
X41467Y16933D02*
X53273Y5127D01*
X41108Y16573D02*
X52797Y4885D01*
X43263Y18729D02*
X57201Y4791D01*
X46246Y3859D02*
X52504Y10117D01*
X46167Y4499D02*
X52437Y10769D01*
X46160Y10085D02*
X52444Y3801D01*
X50593Y9962D02*
X57071Y3485D01*
X50232Y9605D02*
X59354Y483D01*
X50606Y3483D02*
X53607Y483D01*
X50253Y3118D02*
X52888Y483D01*
X52209D02*
X61323Y9597D01*
X50763Y4045D02*
X54325Y483D01*
X51491D02*
X54144Y3136D01*
X50772Y483D02*
X53264Y2974D01*
X45843Y9683D02*
X55044Y483D01*
X49674Y9444D02*
X54184Y4934D01*
X43588Y483D02*
X52809Y9704D01*
X44306Y483D02*
X53292Y9468D01*
X47898Y483D02*
X57212Y9796D01*
X50054Y483D02*
X52791Y3220D01*
X48617Y483D02*
X52447Y4313D01*
X49335Y483D02*
X52494Y3641D01*
X45347Y9460D02*
X49653Y5155D01*
X45367Y5135D02*
X49676Y9444D01*
X41582Y7478D02*
X44306Y4755D01*
X39996Y483D02*
X49105Y9592D01*
X41391Y6232D02*
X47141Y483D01*
X41660Y6682D02*
X44073Y4269D01*
X40141Y6046D02*
X45704Y483D01*
X39312Y14777D02*
X49090Y4999D01*
X38953Y14418D02*
X48726Y4645D01*
X39163Y7024D02*
X39701Y6486D01*
X38656Y12560D02*
X50733Y483D01*
X39277D02*
X48735Y9940D01*
X39019Y6449D02*
X44986Y483D01*
X38666Y6084D02*
X44267Y483D01*
X46171Y3608D02*
X49296Y483D01*
X45743D02*
X48721Y3461D01*
X45862Y3198D02*
X48578Y483D01*
X46244Y4254D02*
X50015Y483D01*
X49708Y2945D02*
X52170Y483D01*
X46462D02*
X49083Y3104D01*
X47180Y483D02*
X49641Y2944D01*
X40940Y5965D02*
X46423Y483D01*
X40714D02*
X44071Y3840D01*
X41433Y483D02*
X44300Y3350D01*
X45025Y483D02*
X48552Y4010D01*
X45376Y2966D02*
X47859Y483D01*
X42151D02*
X44708Y3039D01*
X42869Y483D02*
X45347Y2960D01*
X38491Y22782D02*
X40277Y20996D01*
X38132Y22423D02*
X39918Y20637D01*
X37773Y22064D02*
X39559Y20278D01*
X37414Y21705D02*
X39200Y19919D01*
X37055Y21345D02*
X38841Y19559D01*
X38549Y17696D02*
X39604Y16641D01*
X38190Y17337D02*
X39245Y16282D01*
X36695Y20986D02*
X38481Y19200D01*
X37830Y16978D02*
X38886Y15922D01*
X35920Y25354D02*
X37706Y23568D01*
X36336Y20627D02*
X38122Y18841D01*
X35560Y24995D02*
X37347Y23209D01*
X35201Y24636D02*
X36987Y22850D01*
X35127Y20399D02*
X37404Y18123D01*
X35845Y20399D02*
X37763Y18482D01*
X34408Y20399D02*
X37045Y17763D01*
X33909Y17574D02*
X36855D01*
X37471Y16618D02*
X38526Y15563D01*
X36909Y16462D02*
X38167Y15204D01*
X36190Y16462D02*
X37808Y14845D01*
X35472Y16462D02*
X37546Y14389D01*
X34087Y16410D02*
X37544Y12953D01*
X33728Y16051D02*
X37544Y12235D01*
X34139Y16462D02*
X37085D01*
X34753D02*
X37544Y13671D01*
X33009Y15333D02*
X37544Y10798D01*
X32650Y14973D02*
X37544Y10079D01*
X31036Y10201D02*
X37384Y16550D01*
X33369Y15692D02*
X37544Y11516D01*
X34842Y24276D02*
X36628Y22490D01*
X34483Y23917D02*
X36269Y22131D01*
X34124Y23558D02*
X35910Y21772D01*
X33764Y23199D02*
X35453Y21511D01*
X33405Y22840D02*
X34734Y21511D01*
X23217Y22685D02*
X33021D01*
X28829Y21511D02*
X35648D01*
X22987Y23797D02*
X32791D01*
X31569Y21511D02*
X32743Y22685D01*
X32841D02*
X34016Y21511D01*
X30816Y20399D02*
X33688Y17528D01*
X32122Y22685D02*
X33297Y21511D01*
X23416Y11202D02*
X32613Y20399D01*
X32972D02*
X35797Y17574D01*
X33690Y20399D02*
X36516Y17574D01*
X31535Y20399D02*
X34361Y17574D01*
X32253Y20399D02*
X35079Y17574D01*
X31036Y11638D02*
X35860Y16462D01*
X31036Y10920D02*
X36578Y16462D01*
X29059Y20399D02*
X35879D01*
X30087Y13982D02*
X33516Y17411D01*
X29380Y20399D02*
X32942Y16837D01*
X30098Y20399D02*
X33301Y17196D01*
X31036Y13075D02*
X34423Y16462D01*
X31036Y12357D02*
X35141Y16462D01*
X23416Y10484D02*
X33331Y20399D01*
X31036Y13359D02*
X34139Y16462D01*
X38656Y11123D02*
X44716Y5063D01*
X38656Y11842D02*
X45361Y5136D01*
X38656Y10405D02*
X41133Y7927D01*
X38656Y7892D02*
Y14121D01*
Y9686D02*
X40337Y8005D01*
X38656Y13279D02*
X51452Y483D01*
X38559D02*
X48554Y10477D01*
X38656Y13997D02*
X48553Y4100D01*
X36404Y483D02*
X45390Y9469D01*
X31036Y8046D02*
X37620Y14630D01*
X34059Y6759D02*
X37544Y10244D01*
X31536Y7110D02*
X37544Y13118D01*
X33994Y7412D02*
X37544Y10963D01*
X31036Y12278D02*
X42831Y483D01*
X35685D02*
X44732Y9529D01*
X31036Y11559D02*
X42112Y483D01*
X31036Y10841D02*
X41394Y483D01*
X38656Y8968D02*
X39887Y7736D01*
X38656Y8250D02*
X39620Y7286D01*
X34079Y7078D02*
X40675Y483D01*
X38110Y5921D02*
X43549Y483D01*
X34248D02*
X39945Y6180D01*
X34967Y483D02*
X40427Y5943D01*
X32812Y483D02*
X38263Y5934D01*
X483Y483D02*
X94517D01*
X31520Y6764D02*
X37802Y483D01*
X32093D02*
X37638Y6027D01*
X33530Y483D02*
X39648Y6601D01*
X33957Y6482D02*
X39957Y483D01*
X33617Y6104D02*
X39238Y483D01*
X33080Y5923D02*
X38520Y483D01*
X31573Y13896D02*
X37544Y7924D01*
X33181Y8036D02*
X37544Y12400D01*
X32291Y14614D02*
X37544Y9361D01*
X31932Y14255D02*
X37544Y8642D01*
X31331Y7623D02*
X37544Y13837D01*
X33681Y7818D02*
X37544Y11681D01*
Y7892D02*
Y14351D01*
X31213Y13537D02*
X37199Y7551D01*
X23416Y9047D02*
X34768Y20399D01*
X23416Y8329D02*
X35486Y20399D01*
X23416Y9766D02*
X34049Y20399D01*
X31036Y10122D02*
X33113Y8044D01*
X31036Y12996D02*
X37036Y6995D01*
X23416Y11995D02*
X34928Y483D01*
X23416Y11276D02*
X34209Y483D01*
X23416Y10558D02*
X33491Y483D01*
X31375D02*
X37245Y6353D01*
X31281Y6285D02*
X37083Y483D01*
X30857Y5990D02*
X36365Y483D01*
X28501D02*
X37544Y9526D01*
X27783Y483D02*
X33246Y5946D01*
X26449Y6807D02*
X32773Y483D01*
X27064D02*
X32593Y6011D01*
X29219Y483D02*
X37544Y8808D01*
X29938Y483D02*
X37544Y8089D01*
X30656Y483D02*
X37043Y6869D01*
X30157Y5971D02*
X35646Y483D01*
X31086Y44622D02*
Y61418D01*
X29974Y44622D02*
Y61188D01*
X25162Y44559D02*
X27474Y46872D01*
X23787Y44622D02*
X27474Y48309D01*
X25885Y44564D02*
X27474Y46153D01*
X28586Y44474D02*
Y58838D01*
X31086Y45993D02*
X32591Y44488D01*
X27474Y44474D02*
Y58608D01*
X24148Y44263D02*
X27474Y47590D01*
X15065Y44520D02*
X27474Y56930D01*
X19282Y52768D02*
X27474Y44576D01*
X22351Y44622D02*
X27474Y49745D01*
X23069Y44622D02*
X27474Y49027D01*
X19148Y43574D02*
X27474Y51901D01*
X19148Y42855D02*
X27474Y51182D01*
X18563Y52768D02*
X27145Y44187D01*
X19148Y44292D02*
X27474Y52619D01*
X31648Y44579D02*
X32591Y45523D01*
X31086Y45275D02*
X32591Y43769D01*
X29412Y44499D02*
X29535Y44622D01*
X29412D02*
X29974D01*
X31648Y43994D02*
X32591Y43051D01*
X31648Y42424D02*
X32591Y43368D01*
X29148Y43516D02*
X29412Y43781D01*
X29141Y43628D02*
X29412Y43356D01*
X28637Y44442D02*
X29974Y45780D01*
X28586Y45620D02*
X29584Y44622D01*
X26327Y44287D02*
X27474Y45435D01*
X28990Y44077D02*
X29412Y44499D01*
X28586Y44901D02*
X29412Y44074D01*
X29035Y43015D02*
X29412Y42638D01*
X26596Y43838D02*
X27474Y44717D01*
X18758Y44622D02*
X26185Y52049D01*
X17126Y52768D02*
X25298Y44597D01*
X18040Y44622D02*
X25458Y52040D01*
X16912Y44622D02*
X19148D01*
X21912D02*
X24148D01*
X17845Y52768D02*
X26286Y44327D01*
X24148Y42386D02*
Y44622D01*
X15841Y44578D02*
X24480Y53217D01*
X15689Y52768D02*
X23836Y44622D01*
X13534Y52768D02*
X21912Y44390D01*
X14253Y52768D02*
X22399Y44622D01*
X16408Y52768D02*
X24814Y44362D01*
X16298Y44316D02*
X24649Y52667D01*
X16912Y42386D02*
Y44622D01*
X24148Y44310D02*
X24506Y43952D01*
X26353Y44260D02*
X26927Y43686D01*
X24148Y43545D02*
X24475Y43872D01*
X24148Y43592D02*
X24429Y43310D01*
X26569Y43093D02*
X26914Y43438D01*
X24148Y42827D02*
X24470Y43149D01*
X21912Y42386D02*
X24148D01*
X16582Y43882D02*
X16912Y44212D01*
X16505Y44050D02*
X16912Y43643D01*
X16612Y43225D02*
X16912Y42924D01*
Y42386D02*
X19148D01*
X16600Y43182D02*
X16912Y43494D01*
X31648Y43276D02*
X32591Y42332D01*
X31648Y42386D02*
Y44622D01*
Y42558D02*
X32591Y41614D01*
X29412Y42386D02*
Y44622D01*
X32591Y39418D02*
Y49681D01*
X29360Y39418D02*
X32591Y42649D01*
X26623Y43272D02*
X30477Y39418D01*
X28713Y42619D02*
X31914Y39418D01*
X17346Y40336D02*
X27474Y50464D01*
X24148Y42873D02*
X27603Y39418D01*
X23612D02*
X27092Y42897D01*
X24331Y39418D02*
X27457Y42544D01*
X25768Y39418D02*
X29412Y43062D01*
X26388Y42788D02*
X29759Y39418D01*
X25978Y42480D02*
X29040Y39418D01*
X25336Y42403D02*
X28322Y39418D01*
X30382Y42386D02*
X32591Y40177D01*
X29664Y42386D02*
X32591Y39459D01*
X29412Y42386D02*
X31648D01*
X31100D02*
X32591Y40895D01*
X31515Y39418D02*
X32591Y40494D01*
X32233Y39418D02*
X32591Y39776D01*
X30078Y39418D02*
X32591Y41931D01*
X30797Y39418D02*
X32591Y41212D01*
X26486Y39418D02*
X29455Y42386D01*
X27204Y39418D02*
X30173Y42386D01*
X25049Y39418D02*
X28018Y42386D01*
X23916Y42386D02*
X26885Y39418D01*
X28641D02*
X31610Y42386D01*
X17928Y38317D02*
X32448Y23797D01*
X28212Y42401D02*
X31196Y39418D01*
X27923D02*
X30892Y42386D01*
X19148Y43563D02*
X23293Y39418D01*
X19148Y44281D02*
X24011Y39418D01*
X18583D02*
X21912Y42747D01*
X19148Y42386D02*
Y44622D01*
X21912Y42386D02*
Y44622D01*
X22894Y39418D02*
X25941Y42465D01*
X22175Y39418D02*
X25196Y42438D01*
X19148Y42844D02*
X22574Y39418D01*
X21457D02*
X24747Y42707D01*
X17705Y39976D02*
X21912Y44183D01*
X16086Y41949D02*
X16912Y42776D01*
X14974Y41366D02*
Y42534D01*
X16086Y41596D02*
Y42534D01*
X18065Y39617D02*
X21912Y43465D01*
X18169Y42386D02*
X21138Y39418D01*
X16361Y42757D02*
X19701Y39418D01*
X17450Y42386D02*
X20419Y39418D01*
X20020D02*
X22989Y42386D01*
X20739Y39418D02*
X23707Y42386D01*
X18887D02*
X21856Y39418D01*
X19302D02*
X22271Y42386D01*
X22479D02*
X25448Y39418D01*
X23198Y42386D02*
X26167Y39418D01*
X16268Y41413D02*
X17242Y42386D01*
X16628Y41054D02*
X17960Y42386D01*
X16987Y40695D02*
X18678Y42386D01*
X16086Y42314D02*
X18982Y39418D01*
X16086Y41596D02*
X18264Y39418D01*
X15137Y40973D02*
X17641Y38469D01*
X11574Y43903D02*
X19964Y52293D01*
X11283Y44330D02*
X19638Y52686D01*
X11152Y52277D02*
X18807Y44622D01*
X11086Y49470D02*
X16076Y44479D01*
X11086Y48751D02*
X15251Y44586D01*
X12097Y52768D02*
X21912Y42953D01*
X11512Y52636D02*
X24730Y39418D01*
X12816Y52768D02*
X21912Y43672D01*
X11611Y43222D02*
X20435Y52046D01*
X11086Y51625D02*
X18089Y44622D01*
X11086Y50906D02*
X17370Y44622D01*
X11086Y44474D02*
Y52210D01*
X9974Y44474D02*
Y51099D01*
X483Y44306D02*
X21542Y65366D01*
X483Y43588D02*
X21554Y64659D01*
X11086Y50188D02*
X16912Y44361D01*
X6267Y44344D02*
X9974Y48051D01*
X11086Y48033D02*
X14783Y44335D01*
X11086Y47314D02*
X14489Y43911D01*
X11086Y46596D02*
X14445Y43237D01*
X11086Y45878D02*
X14974Y41989D01*
X11086Y45159D02*
X14985Y41260D01*
X9148Y42913D02*
X9450Y43216D01*
X8701Y44622D02*
X9974Y45895D01*
X9148Y44350D02*
X9974Y45177D01*
X7264Y44622D02*
X9974Y47332D01*
X7982Y44622D02*
X9974Y46614D01*
X6483Y47607D02*
X9768Y44321D01*
X9148Y43632D02*
X9542Y44026D01*
X9148Y44223D02*
X9481Y43890D01*
X9148Y43505D02*
X9455Y43197D01*
X6123Y47248D02*
X8749Y44622D01*
X6086Y45130D02*
X6912Y44303D01*
X6566Y43924D02*
X6912Y44270D01*
X4974Y44474D02*
Y47440D01*
X6086Y44474D02*
Y47210D01*
X9148Y42386D02*
Y44622D01*
X6912Y42386D02*
Y44622D01*
X483Y48578D02*
X4753Y44307D01*
X483Y42869D02*
X4974Y47361D01*
X483Y47859D02*
X4474Y43869D01*
X483Y47141D02*
X4468Y43156D01*
X483Y40714D02*
X4974Y45206D01*
X483Y42151D02*
X4974Y46643D01*
X483Y41433D02*
X4974Y45924D01*
X6560Y43937D02*
X6912Y43585D01*
X6621Y43260D02*
X6912Y43552D01*
Y42386D02*
X9148D01*
X6599Y43179D02*
X6912Y42867D01*
X483Y35685D02*
X7184Y42386D01*
X483Y38559D02*
X4690Y42767D01*
X483Y37840D02*
X5110Y42468D01*
X483Y39996D02*
X4581Y44094D01*
X483Y39277D02*
X4444Y43239D01*
X483Y34967D02*
X7902Y42386D01*
X483Y34248D02*
X8621Y42386D01*
X483Y36404D02*
X6912Y42833D01*
X483Y37122D02*
X5774Y42413D01*
X10223Y42429D02*
X28856Y23797D01*
X9148Y42787D02*
X28138Y23797D01*
X8829Y42386D02*
X27419Y23797D01*
X7393Y42386D02*
X25982Y23797D01*
X8111Y42386D02*
X26701Y23797D01*
X11536Y43990D02*
X31730Y23797D01*
X11606Y43202D02*
X31011Y23797D01*
X11347Y42742D02*
X30293Y23797D01*
X10916Y42455D02*
X29574Y23797D01*
X483Y30656D02*
X27474Y57648D01*
X5895Y42448D02*
X24545Y23797D01*
X483Y46423D02*
X23109Y23797D01*
X5182Y42442D02*
X23827Y23797D01*
X483Y45704D02*
X22574Y23613D01*
X6333Y42727D02*
X25264Y23797D01*
X483Y44986D02*
X22214Y23254D01*
X483Y44267D02*
X21855Y22895D01*
X483Y11977D02*
X26812Y38306D01*
X483Y9104D02*
X29685Y38306D01*
X483Y13414D02*
X25375Y38306D01*
X483Y12696D02*
X26093Y38306D01*
X483Y6948D02*
X31841Y38306D01*
X483Y6230D02*
X32559Y38306D01*
X483Y8385D02*
X30404Y38306D01*
X483Y7667D02*
X31122Y38306D01*
X483Y15569D02*
X23220Y38306D01*
X483Y14851D02*
X23938Y38306D01*
X483Y17006D02*
X21783Y38306D01*
X483Y16288D02*
X22501Y38306D01*
X483Y10540D02*
X28249Y38306D01*
X483Y9822D02*
X28967Y38306D01*
X483Y14133D02*
X24656Y38306D01*
X483Y11259D02*
X27530Y38306D01*
X483Y27783D02*
X14974Y42274D01*
X483Y27064D02*
X14974Y41556D01*
X483Y32812D02*
X10131Y42460D01*
X483Y32093D02*
X10812Y42423D01*
X483Y42112D02*
X20777Y21817D01*
X483Y41394D02*
X20418Y21458D01*
X483Y26346D02*
X15124Y40987D01*
X483Y40675D02*
X20059Y21099D01*
X483Y31375D02*
X21145Y52037D01*
X483Y29938D02*
X14514Y43969D01*
X483Y29219D02*
X14456Y43193D01*
X483Y33530D02*
X9704Y42751D01*
X483Y43549D02*
X21496Y22536D01*
X483Y42831D02*
X21137Y22176D01*
X483Y483D02*
Y94517D01*
Y28501D02*
X14718Y42736D01*
X483Y38520D02*
X18981Y20021D01*
X483Y19880D02*
X18909Y38306D01*
X483Y21317D02*
X17638Y38472D01*
X483Y20598D02*
X18191Y38306D01*
X483Y18443D02*
X20346Y38306D01*
X483Y17725D02*
X21064Y38306D01*
X483Y19162D02*
X19627Y38306D01*
X483Y37802D02*
X18622Y19662D01*
X483Y24191D02*
X16201Y39909D01*
X483Y23472D02*
X16560Y39550D01*
X483Y25627D02*
X15483Y40627D01*
X483Y24909D02*
X15842Y40268D01*
X483Y39957D02*
X19700Y20740D01*
X483Y39238D02*
X19341Y20380D01*
X483Y22754D02*
X16920Y39191D01*
X483Y22035D02*
X17279Y38831D01*
X30132Y21511D02*
X31306Y22685D01*
X29967D02*
X31142Y21511D01*
X30686Y22685D02*
X31860Y21511D01*
X29249Y22685D02*
X30424Y21511D01*
X29413D02*
X30588Y22685D01*
X31404D02*
X32579Y21511D01*
X28860Y20200D02*
X32583Y16478D01*
X28672Y21488D02*
X29870Y22685D01*
X30850Y21511D02*
X32025Y22685D01*
X28501Y19841D02*
X32224Y16118D01*
X28142Y19482D02*
X31864Y15759D01*
X28530Y22685D02*
X29705Y21511D01*
X23416Y14756D02*
X29059Y20399D01*
X23416Y12639D02*
X31176Y20399D01*
X23416Y11921D02*
X31894Y20399D01*
X23416Y14076D02*
X29739Y20399D01*
X23416Y13358D02*
X30457Y20399D01*
X27782Y19123D02*
X31505Y15400D01*
X27423Y18764D02*
X31146Y15041D01*
X27064Y18404D02*
X30787Y14682D01*
X26705Y18045D02*
X30428Y14322D01*
X26346Y17686D02*
X30069Y13963D01*
X25986Y17327D02*
X29924Y13389D01*
X24909Y16249D02*
X29924Y11233D01*
X24550Y15890D02*
X29924Y10515D01*
X25627Y16967D02*
X29924Y12670D01*
X25268Y16608D02*
X29924Y11952D01*
X23472Y14812D02*
X29924Y8360D01*
X25284Y8042D02*
X29924Y12682D01*
X24190Y15531D02*
X29924Y9797D01*
X23831Y15171D02*
X29924Y9078D01*
X27812Y22685D02*
X28987Y21511D01*
X26375Y22685D02*
X28074Y20986D01*
X27094Y22685D02*
X28434Y21345D01*
X24938Y22685D02*
X27356Y20268D01*
X25657Y22685D02*
X27715Y20627D01*
X23501Y22685D02*
X26638Y19549D01*
X24220Y22685D02*
X26997Y19908D01*
X23000Y22468D02*
X26278Y19190D01*
X22641Y22109D02*
X25919Y18831D01*
X22282Y21750D02*
X25560Y18472D01*
X22467Y15379D02*
X28436Y21348D01*
X21922Y21391D02*
X25201Y18112D01*
X21563Y21031D02*
X24841Y17753D01*
X21204Y20672D02*
X24482Y17394D01*
X20845Y20313D02*
X24123Y17035D01*
X20486Y19954D02*
X23764Y16676D01*
X20126Y19595D02*
X23405Y16316D01*
X19767Y19235D02*
X23045Y15957D01*
X19408Y18876D02*
X22686Y15598D01*
X19049Y18517D02*
X22353Y15213D01*
X17971Y17439D02*
X22304Y13106D01*
X18690Y18158D02*
X22304Y14543D01*
X18330Y17799D02*
X22304Y13825D01*
X16893Y16362D02*
X22304Y10951D01*
X16534Y16003D02*
X22304Y10232D01*
X17612Y17080D02*
X22304Y12388D01*
X17253Y16721D02*
X22304Y11669D01*
X31036Y7892D02*
Y13359D01*
X26272Y7593D02*
X29924Y11245D01*
X31036Y9404D02*
X32517Y7922D01*
X29924Y7892D02*
Y13589D01*
X25890Y7929D02*
X29924Y11964D01*
X31036Y8685D02*
X32139Y7582D01*
X31036Y7967D02*
X31958Y7045D01*
X26461Y7063D02*
X29924Y10527D01*
X23416Y14150D02*
X29780Y7786D01*
X23863Y7339D02*
X29924Y13401D01*
X23416Y13432D02*
X29485Y7362D01*
X23416Y12713D02*
X29466Y6662D01*
X21317Y483D02*
X29924Y9090D01*
X22035Y483D02*
X29924Y8372D01*
X20598Y483D02*
X29924Y9809D01*
X25148Y5952D02*
X30617Y483D01*
X26346D02*
X32187Y6324D01*
X26224Y6313D02*
X32054Y483D01*
X25627D02*
X31969Y6824D01*
X25813Y6005D02*
X31336Y483D01*
X22754D02*
X29431Y7160D01*
X23472Y483D02*
X29519Y6529D01*
X18806Y7265D02*
X25588Y483D01*
X23012Y5932D02*
X28462Y483D01*
X23831Y6551D02*
X29899Y483D01*
X24909D02*
X30355Y5929D01*
X23516Y6148D02*
X29181Y483D01*
X24191D02*
X29842Y6134D01*
X23416Y9840D02*
X25222Y8034D01*
X23416Y9121D02*
X24728Y7809D01*
X22304Y7892D02*
Y14986D01*
X23416Y7892D02*
Y14756D01*
Y8403D02*
X24420Y7398D01*
X23902Y7198D02*
X24367Y6733D01*
X18523Y7746D02*
X22304Y11528D01*
X18796Y7301D02*
X22304Y10810D01*
X17242Y7902D02*
X22304Y12965D01*
X18067Y8009D02*
X22304Y12247D01*
X18740Y6527D02*
X22304Y10091D01*
X16303Y6964D02*
X16863Y7523D01*
X23857Y6615D02*
X24343Y7101D01*
X18443Y483D02*
X24456Y6495D01*
X18766Y6586D02*
X24870Y483D01*
X19880D02*
X25322Y5924D01*
X18464Y6170D02*
X24152Y483D01*
X19162D02*
X24792Y6113D01*
X16288Y483D02*
X22074Y6269D01*
X17725Y483D02*
X23230Y5988D01*
X17976Y5940D02*
X23433Y483D01*
X16300Y6897D02*
X22715Y483D01*
X17006D02*
X22506Y5982D01*
X15796Y13640D02*
X24841Y22685D01*
X15796Y14359D02*
X24122Y22685D01*
X15796Y12922D02*
X25559Y22685D01*
X15796Y15264D02*
X23217Y22685D01*
X15796Y15077D02*
X23404Y22685D01*
X15796Y10767D02*
X27714Y22685D01*
X15796Y9330D02*
X29151Y22685D01*
X15796Y12203D02*
X26278Y22685D01*
X15796Y11485D02*
X26996Y22685D01*
X483Y37083D02*
X18263Y19303D01*
X483Y36365D02*
X17904Y18944D01*
X483Y35646D02*
X17545Y18584D01*
X483Y34928D02*
X17185Y18225D01*
X483Y34209D02*
X16826Y17866D01*
X14847Y15887D02*
X22594Y23634D01*
X483Y33491D02*
X16467Y17507D01*
X483Y32773D02*
X16108Y17147D01*
X16175Y15643D02*
X22304Y9514D01*
X15816Y15284D02*
X22304Y8796D01*
X15796Y10275D02*
X18060Y8011D01*
X15796Y9557D02*
X17381Y7971D01*
X16152Y7531D02*
X22304Y13683D01*
X15796Y8839D02*
X16965Y7669D01*
X15796Y8120D02*
X16735Y7181D01*
X15796Y10048D02*
X28433Y22685D01*
X15796Y8611D02*
X22327Y15143D01*
X15796Y14586D02*
X22304Y8077D01*
X15796Y7893D02*
X22304Y14402D01*
X15796Y13868D02*
X22022Y7641D01*
X15796Y13149D02*
X21807Y7137D01*
X15796Y7892D02*
Y15264D01*
X483Y24152D02*
X14684Y9950D01*
X483Y24870D02*
X14684Y10668D01*
X483Y23433D02*
X14684Y9231D01*
X483Y26307D02*
X14684Y12105D01*
X483Y25588D02*
X14684Y11387D01*
X483Y22715D02*
X14684Y8513D01*
X483Y21996D02*
X14626Y7853D01*
X483Y21278D02*
X14292Y7468D01*
X483Y20559D02*
X14184Y6858D01*
X483Y32054D02*
X15749Y16788D01*
X483Y31336D02*
X15389Y16429D01*
X483Y30617D02*
X15030Y16070D01*
X483Y29899D02*
X14713Y15669D01*
X483Y27744D02*
X14684Y13542D01*
X483Y27025D02*
X14684Y12823D01*
X483Y29181D02*
X14684Y14979D01*
X483Y28462D02*
X14684Y14260D01*
Y7892D02*
Y15494D01*
X3903Y4621D02*
X14684Y15403D01*
X4621Y3903D02*
X14684Y13966D01*
X4816Y3380D02*
X14684Y13248D01*
X4312Y4312D02*
X14684Y14684D01*
X4312Y4312D02*
X14684Y14684D01*
X483Y7628D02*
X3275Y4835D01*
X483Y6909D02*
X2584Y4808D01*
X483Y6191D02*
X2069Y4605D01*
X483Y5473D02*
X1666Y4290D01*
X483Y4754D02*
X1363Y3874D01*
X483Y4036D02*
X1176Y3342D01*
X4793Y483D02*
X14684Y10374D01*
X4075Y483D02*
X14684Y11092D01*
X5512Y483D02*
X14684Y9655D01*
X4826Y2671D02*
X14684Y12529D01*
X3356Y483D02*
X14684Y11811D01*
X15796Y12431D02*
X27744Y483D01*
X15796Y11712D02*
X27025Y483D01*
X15796Y10994D02*
X26307Y483D01*
X13414D02*
X22304Y9373D01*
X483Y19841D02*
X19841Y483D01*
X483Y19123D02*
X19123Y483D01*
X483Y18404D02*
X18404Y483D01*
X483Y17686D02*
X17686Y483D01*
X483Y16967D02*
X16967Y483D01*
X483Y16249D02*
X16249Y483D01*
X483Y15531D02*
X15531Y483D01*
X483Y14812D02*
X14812Y483D01*
X14133D02*
X22304Y8654D01*
X14851Y483D02*
X22304Y7936D01*
X12696Y483D02*
X18238Y6025D01*
X11977Y483D02*
X17464Y5969D01*
X15569Y483D02*
X21825Y6739D01*
X16108Y6371D02*
X21996Y483D01*
X15723Y6037D02*
X21278Y483D01*
X15113Y5929D02*
X20559Y483D01*
X6230D02*
X14684Y8937D01*
X6948Y483D02*
X14684Y8219D01*
X7667Y483D02*
X14176Y6992D01*
X8385Y483D02*
X14333Y6430D01*
X10540Y483D02*
X16756Y6698D01*
X11259Y483D02*
X17019Y6242D01*
X9104Y483D02*
X14694Y6073D01*
X9822Y483D02*
X15261Y5922D01*
X483Y2638D02*
X1174Y3329D01*
X483Y3317D02*
X1185Y2615D01*
X483Y8346D02*
X8346Y483D01*
X4835Y3275D02*
X7628Y483D01*
X483Y14094D02*
X14094Y483D01*
X483Y13375D02*
X13375Y483D01*
X483Y12657D02*
X12657Y483D01*
X483Y11938D02*
X11938Y483D01*
X483Y11220D02*
X11220Y483D01*
X483Y10502D02*
X10502Y483D01*
X483Y9783D02*
X9783Y483D01*
X483Y9065D02*
X9065Y483D01*
X3342Y1176D02*
X4036Y483D01*
X2638D02*
X3329Y1174D01*
X2615Y1185D02*
X3317Y483D01*
X1919D02*
X2620Y1184D01*
X4808Y2584D02*
X6909Y483D01*
X4605Y2069D02*
X6191Y483D01*
X4290Y1666D02*
X5473Y483D01*
X3874Y1363D02*
X4754Y483D01*
X483Y2599D02*
X2599Y483D01*
X483Y1881D02*
X1881Y483D01*
X483Y1919D02*
X1184Y2620D01*
X483Y1201D02*
X1379Y2097D01*
X483Y483D02*
X1688Y1688D01*
X1201Y483D02*
X2097Y1379D01*
X483Y483D02*
X1688Y1688D01*
X483Y1162D02*
X1162Y483D01*
D11*
X92000Y92000D02*
X93754D01*
X92000D02*
Y93754D01*
Y90246D02*
Y92000D01*
X90246D02*
X92000D01*
X74193Y53324D02*
Y54553D01*
Y53324D02*
X75422D01*
X72964D02*
X74193D01*
Y52095D02*
Y53324D01*
X91567Y12192D02*
Y13154D01*
X90605Y12192D02*
X91567D01*
X92529D01*
X91567Y11230D02*
Y12192D01*
X92000Y1246D02*
Y3000D01*
X93754D01*
X92000D02*
Y4754D01*
X90246Y3000D02*
X92000D01*
X84800Y10550D02*
Y11554D01*
X83804Y18161D02*
X84766D01*
X82842D02*
X83804D01*
Y19123D01*
Y17199D02*
Y18161D01*
X84800Y9546D02*
Y10550D01*
X85804D01*
X83796D02*
X84800D01*
X78117Y43354D02*
X79121D01*
X80125D01*
X79121D02*
Y44358D01*
Y42350D02*
Y43354D01*
X74914Y18161D02*
X75876D01*
X74914D02*
Y19123D01*
X73952Y18161D02*
X74914D01*
X75910Y10550D02*
X76914D01*
X74914Y17199D02*
Y18161D01*
X75910Y9546D02*
Y10550D01*
Y11554D01*
X74906Y10550D02*
X75910D01*
X66385D02*
Y11554D01*
Y10550D02*
X67389D01*
X58021D02*
X59025D01*
X65381D02*
X66385D01*
Y9546D02*
Y10550D01*
X58021Y9546D02*
Y10550D01*
Y11554D01*
X57017Y10550D02*
X58021D01*
X3000Y92000D02*
Y93754D01*
Y92000D02*
X4754D01*
X1246D02*
X3000D01*
Y90246D02*
Y92000D01*
X49657Y10550D02*
Y11554D01*
X48653Y10550D02*
X49657D01*
Y9546D02*
Y10550D01*
X50661D01*
X40640Y6985D02*
Y7947D01*
Y6985D02*
X41602D01*
X39678D02*
X40640D01*
Y6023D02*
Y6985D01*
X33020Y6023D02*
Y6985D01*
X33982D01*
X33020D02*
Y7947D01*
X32058Y6985D02*
X33020D01*
X18030Y43504D02*
Y44520D01*
Y42488D02*
Y43504D01*
X17014D02*
X18030D01*
X19046D01*
X8030D02*
Y44520D01*
X7014Y43504D02*
X8030D01*
X9046D01*
X8030Y42488D02*
Y43504D01*
X25400Y6985D02*
Y7947D01*
Y6985D02*
X26362D01*
X17780D02*
Y7947D01*
X24438Y6985D02*
X25400D01*
Y6023D02*
Y6985D01*
X17780D02*
X18742D01*
X16818D02*
X17780D01*
Y6023D02*
Y6985D01*
X3000Y3000D02*
Y4754D01*
X1246Y3000D02*
X3000D01*
Y1246D02*
Y3000D01*
X4754D01*
D12*
X22068Y73817D02*
Y84202D01*
X27068Y73643D02*
Y84202D01*
X32639Y50419D02*
Y59055D01*
Y50419D02*
X33147Y49911D01*
X24632Y67316D02*
X30530Y61418D01*
Y43504D02*
Y61418D01*
X33147Y39008D02*
Y49911D01*
X18034Y38862D02*
X33001D01*
X33147Y39008D01*
X15530Y41366D02*
X18034Y38862D01*
X15530Y41366D02*
Y43504D01*
X22098Y64770D02*
Y71120D01*
Y64770D02*
X28030Y58838D01*
Y43504D02*
Y58838D01*
X24511Y68326D02*
X24632Y68205D01*
Y67316D02*
Y68205D01*
X85344Y42164D02*
X86741Y40767D01*
Y38735D02*
Y40767D01*
X85344Y42164D02*
Y58801D01*
X81915Y62230D02*
X85344Y58801D01*
X75311Y62230D02*
X81915D01*
X72932Y64609D02*
X75311Y62230D01*
X72932Y64609D02*
Y84202D01*
X67932Y67450D02*
Y84202D01*
Y67450D02*
X68199Y67183D01*
X57644Y74436D02*
Y84202D01*
X68199Y60725D02*
Y67183D01*
Y60725D02*
X68345Y60579D01*
X80264D01*
X83312Y57531D01*
Y41529D02*
Y57531D01*
Y41529D02*
X85090Y39751D01*
Y38735D02*
Y39751D01*
X57644Y74436D02*
X66167Y65913D01*
Y60198D02*
Y65913D01*
Y60198D02*
X67183Y59182D01*
X79121D01*
X52644Y73467D02*
Y84202D01*
X63627Y44578D02*
Y62484D01*
X52644Y73467D02*
X63627Y62484D01*
X79121Y59182D02*
X81788Y56515D01*
X81642Y48387D02*
X81788Y48533D01*
Y56515D01*
X76835Y48387D02*
X81642D01*
X75946Y47498D02*
X76835Y48387D01*
X75946Y33782D02*
Y47498D01*
X74231Y32068D02*
X75946Y33782D01*
X73215Y32068D02*
X74231D01*
X63627Y44578D02*
X70613Y37592D01*
X42356Y77024D02*
X55626Y63754D01*
X42356Y77024D02*
Y84202D01*
X55626Y49276D02*
Y63754D01*
Y49276D02*
X65469Y39432D01*
Y37592D02*
Y39432D01*
X37356Y74531D02*
X50419Y61468D01*
X37356Y74531D02*
Y84202D01*
X50419Y49022D02*
Y61468D01*
Y49022D02*
X60326Y39115D01*
Y37592D02*
Y39115D01*
X27068Y73643D02*
X39497Y61214D01*
X44577D01*
X22068Y73817D02*
X36195Y59690D01*
X43561D01*
X44577Y61214D02*
X48260Y57531D01*
Y47625D02*
Y57531D01*
Y47625D02*
X55182Y40702D01*
Y37592D02*
Y40702D01*
X43561Y59690D02*
X46101Y57150D01*
Y44450D02*
Y57150D01*
Y44450D02*
X50039Y40512D01*
Y37592D02*
Y40512D01*
X5530Y43504D02*
Y47440D01*
X10530Y52440D01*
Y43504D02*
Y52440D01*
X11414Y53324D01*
X20806D01*
X85216Y84202D02*
X90551Y78867D01*
X83220Y84202D02*
X85216D01*
X90551Y46990D02*
Y78867D01*
X91821Y25146D02*
Y80601D01*
X88220Y84202D02*
X91821Y80601D01*
X89535Y22860D02*
X91821Y25146D01*
X89027Y45466D02*
X90551Y46990D01*
X89027Y41656D02*
Y45466D01*
X87517Y17399D02*
X87884D01*
X87149D02*
X87517D01*
X80300Y10550D02*
X87149Y17399D01*
X89027Y12192D02*
Y21209D01*
X86995Y23241D02*
X89027Y21209D01*
X38100Y14351D02*
X53721Y29972D01*
X55182D01*
X38100Y6985D02*
Y14351D01*
X37085Y17018D02*
X50039Y29972D01*
X33909Y17018D02*
X37085D01*
X30480Y13589D02*
X33909Y17018D01*
X30480Y6985D02*
Y13589D01*
X28829Y20955D02*
X35879D01*
X44896Y29972D01*
X22860Y14986D02*
X28829Y20955D01*
X22860Y6985D02*
Y14986D01*
X22987Y23241D02*
X33021D01*
X39752Y29972D01*
X15240Y15494D02*
X22987Y23241D01*
X15240Y6985D02*
Y15494D01*
X60444Y29972D02*
X72256Y18161D01*
X72374D01*
X60326Y29972D02*
X60444D01*
X67945D02*
X79756Y18161D01*
X81264D01*
X65469Y29972D02*
X67945D01*
X81788Y23241D02*
X86995D01*
X75057Y29972D02*
X81788Y23241D01*
X70613Y29972D02*
X75057D01*
D13*
X92000Y92000D02*
D03*
X3000D02*
D03*
X92000Y3000D02*
D03*
X3000D02*
D03*
D14*
X88220Y84202D02*
D03*
X83220D02*
D03*
X72932D02*
D03*
X67932D02*
D03*
X57644D02*
D03*
X52644D02*
D03*
X42356D02*
D03*
X37356D02*
D03*
X27068D02*
D03*
X22068D02*
D03*
X11780D02*
D03*
X6780D02*
D03*
X8130Y70968D02*
D03*
Y65968D02*
D03*
X86870Y66158D02*
D03*
Y71158D02*
D03*
X69193Y53324D02*
D03*
X74193D02*
D03*
X53064D02*
D03*
X58064D02*
D03*
X36935D02*
D03*
X41935D02*
D03*
X20806D02*
D03*
X25806D02*
D03*
D15*
X53521Y4050D02*
D03*
Y10550D02*
D03*
X58021Y4050D02*
D03*
Y10550D02*
D03*
X71410Y4050D02*
D03*
Y10550D02*
D03*
X75910Y4050D02*
D03*
Y10550D02*
D03*
X79121Y30654D02*
D03*
Y33194D02*
D03*
Y35734D02*
D03*
Y38274D02*
D03*
Y40814D02*
D03*
X61885Y4050D02*
D03*
Y10550D02*
D03*
X66385Y4050D02*
D03*
Y10550D02*
D03*
X45157Y4050D02*
D03*
Y10550D02*
D03*
X49657Y4050D02*
D03*
Y10550D02*
D03*
X80300Y4050D02*
D03*
Y10550D02*
D03*
X84800Y4050D02*
D03*
Y10550D02*
D03*
D16*
X23030Y43504D02*
D03*
X30530D02*
D03*
X18030D02*
D03*
X8030D02*
D03*
D17*
X25530D02*
D03*
X28030D02*
D03*
X15530D02*
D03*
X10530D02*
D03*
X5530D02*
D03*
D18*
X79121Y43354D02*
D03*
D19*
X89027Y12192D02*
D03*
X91567D02*
D03*
X81264Y18161D02*
D03*
X83804D02*
D03*
X15240Y6985D02*
D03*
X17780D02*
D03*
X22860D02*
D03*
X25400D02*
D03*
X30480D02*
D03*
X33020D02*
D03*
X38100D02*
D03*
X40640D02*
D03*
X72374Y18161D02*
D03*
X74914D02*
D03*
D20*
X60326Y29972D02*
D03*
Y37592D02*
D03*
X65469Y29972D02*
D03*
Y37592D02*
D03*
X39752Y29972D02*
D03*
Y37592D02*
D03*
X55182Y29972D02*
D03*
Y37592D02*
D03*
X70613Y29972D02*
D03*
Y37592D02*
D03*
X44896Y29972D02*
D03*
Y37592D02*
D03*
X50039Y29972D02*
D03*
Y37592D02*
D03*
D21*
X32639Y59055D02*
D03*
X24511Y68326D02*
D03*
X22098Y71120D02*
D03*
X86741Y38735D02*
D03*
X85090D02*
D03*
X73215Y32068D02*
D03*
X89027Y41656D02*
D03*
X89535Y22860D02*
D03*
X87517Y17399D02*
D03*
%TF.MD5,27a8d598231dec999e9d0c5503f280c7*%
M02*
