M48
;Layer_Color=9474304
;FILE_FORMAT=4:3
METRIC,LZ
;TYPE=PLATED
T1F00S00C0.700
T2F00S00C0.711
T3F00S00C0.762
T4F00S00C0.850
T5F00S00C0.900
T6F00S00C1.000
T7F00S00C1.200
T8F00S00C1.300
T9F00S00C1.900
T10F00S00C3.000
%
T01
X0088773Y0005715
Y0013335
T02
X0022733Y0019177
X002921Y0033147
X0034544Y0034163
X0047117Y0019812
X0067183Y001778
X006048Y000961
X006124Y000506
X0091515Y002076
X0096774Y0022098
X009737Y0013455
X0107557Y001472
X0098298Y0002159
X0105791Y006477
X010968Y0068035
X0113665Y0061849
X0126615Y006297
X0132768Y0049096
X0016383Y0103124
X0042545
X0111345Y0078165
X013013Y0088435
T03
X0117729Y0018963
Y0021463
Y0023963
Y0028963
Y0031463
Y0036463
Y0038963
Y0041463
Y0043963
T04
X0067691Y0005334
X0072009
X0076327
Y0012954
X0072009
X0067691
T05
X0005207Y003188
Y003442
X0010287Y002934
Y00268
X0012827
Y002934
X0015367
Y00268
X0017907
Y002934
X0020447
Y00268
X0022987
Y002934
X0025527
X0028067
X0030607
Y00268
X0028067
X0025527
X0033147
Y002934
X0035687
X0038227
X0040767
Y00268
X0038227
X0035687
X0043307
X0045847
X0048387
X0050927
Y002934
X0048387
X0045847
X0043307
X0053467
Y00268
X010095Y0060849
X010349
X010603
X010857
X0120523Y0061468
Y0064008
Y0066548
Y0058928
Y0056388
Y0053848
X0053467Y005474
Y00522
Y004966
Y004712
Y004458
Y004204
Y00395
Y003696
Y005982
Y006236
Y00649
Y006744
Y006998
Y007252
Y007506
X0005207Y007252
Y006998
Y006744
Y00649
Y006236
Y005982
Y005728
Y005474
Y004966
Y004712
Y004458
Y004204
Y00395
Y003696
Y00776
Y008014
Y008268
Y008522
Y008776
Y00903
X0053467Y009157
Y009411
Y009665
Y009919
Y008903
Y008649
Y008395
Y008141
Y00776
X008311Y0129985
X008565
T06
X0061901Y002396
X0066401
X0069653
X0074153
X0077405
X0081905
X0085157
X0089657
Y003046
X0085157
X0081905
X0077405
X0074153
X0069653
X0066401
X0061901
Y0035644
X0066401
X0068653
X0073153
X0075405
X0079905
X0085157
X0089657
X0097764Y007229
X0100304
X0102844
X0105384
X0107924
X0095224
X0092684
X0090144
X0087604
X0085064
X0081
X007846
X007592
X007338
X007084
X00683
X006576
X006322
X0061901Y0065512
X0066401
X0068653
X0073153
X0075405
X0079905
X0085157
X0089657
Y0059012
X0085157
Y0053828
X0089657
Y0047328
X0085157
Y0042144
X0089657
X0079905
X0075405
X0073153
X0068653
X0066401
X0061901
Y0047328
X0066401
X0068653
X0073153
X0075405
X0079905
Y0053828
X0075405
X0073153
X0068653
X0066401
X0061901
Y0059012
X0066401
X0068653
X0073153
X0075405
X0079905
X009878Y012055
X009624
X00937
X009116
X008862
X008608
X008354
X0081
X007592
X007338
X007084
X00683
X006576
X006322
T07
X0099937Y0022022
Y0024562
X0102477
Y0022022
X0105017
Y0024562
X0107557
Y0022022
T08
X01085Y0007747
X01135
X01245
X01295
X0120122Y012995
X0115122
X0102122
X0097122
T09
X0011176Y0010795
Y0016795
X0015876Y0013795
T10
X0003Y0003
X0135
Y01255
X0003
M30
