%TF.GenerationSoftware,Altium Limited,Altium Designer,21.8.1 (53)*%
G04 Layer_Color=128*
%FSLAX43Y43*%
%MOMM*%
%TF.SameCoordinates,16DCEB66-4DAC-4E16-A6F7-90F727604106*%
%TF.FilePolarity,Positive*%
%TF.FileFunction,Drillmap*%
%TF.Part,Single*%
G01*
G75*
%TA.AperFunction,NonConductor*%
%ADD66C,0.127*%
D66*
X99337Y24562D02*
X100537D01*
X99937Y23962D02*
Y25162D01*
X99337Y22022D02*
X100537D01*
X99937Y21422D02*
Y22622D01*
X101877Y22022D02*
X103077D01*
X102477Y21422D02*
Y22622D01*
X101877Y24562D02*
X103077D01*
X102477Y23962D02*
Y25162D01*
X104417Y22022D02*
X105617D01*
X105017Y21422D02*
Y22622D01*
X104417Y24562D02*
X105617D01*
X105017Y23962D02*
Y25162D01*
X106957Y22022D02*
X108157D01*
X107557Y21422D02*
Y22622D01*
X106957Y24562D02*
X108157D01*
X107557Y23962D02*
Y25162D01*
X40317Y29340D02*
X41217D01*
X40767Y28890D02*
Y29790D01*
X40317Y26800D02*
X41217D01*
X40767Y26350D02*
Y27250D01*
X37777Y29340D02*
X38677D01*
X38227Y28890D02*
Y29790D01*
X37777Y26800D02*
X38677D01*
X38227Y26350D02*
Y27250D01*
X50477Y29340D02*
X51377D01*
X50927Y28890D02*
Y29790D01*
X50477Y26800D02*
X51377D01*
X50927Y26350D02*
Y27250D01*
X47937Y29340D02*
X48837D01*
X48387Y28890D02*
Y29790D01*
X47937Y26800D02*
X48837D01*
X48387Y26350D02*
Y27250D01*
X45397Y29340D02*
X46297D01*
X45847Y28890D02*
Y29790D01*
X45397Y26800D02*
X46297D01*
X45847Y26350D02*
Y27250D01*
X42857Y29340D02*
X43757D01*
X43307Y28890D02*
Y29790D01*
X42857Y26800D02*
X43757D01*
X43307Y26350D02*
Y27250D01*
X30157Y29340D02*
X31057D01*
X30607Y28890D02*
Y29790D01*
X30157Y26800D02*
X31057D01*
X30607Y26350D02*
Y27250D01*
X27617Y29340D02*
X28517D01*
X28067Y28890D02*
Y29790D01*
X27617Y26800D02*
X28517D01*
X28067Y26350D02*
Y27250D01*
X4757Y87760D02*
X5657D01*
X5207Y87310D02*
Y88210D01*
X4757Y82680D02*
X5657D01*
X5207Y82230D02*
Y83130D01*
X4757Y80140D02*
X5657D01*
X5207Y79690D02*
Y80590D01*
X4757Y85220D02*
X5657D01*
X5207Y84770D02*
Y85670D01*
X53017Y39500D02*
X53917D01*
X53467Y39050D02*
Y39950D01*
X53017Y36960D02*
X53917D01*
X53467Y36510D02*
Y37410D01*
X53017Y42040D02*
X53917D01*
X53467Y41590D02*
Y42490D01*
X53017Y44580D02*
X53917D01*
X53467Y44130D02*
Y45030D01*
X53017Y47120D02*
X53917D01*
X53467Y46670D02*
Y47570D01*
X53017Y49660D02*
X53917D01*
X53467Y49210D02*
Y50110D01*
X53017Y52200D02*
X53917D01*
X53467Y51750D02*
Y52650D01*
X53017Y54740D02*
X53917D01*
X53467Y54290D02*
Y55190D01*
X4757Y77600D02*
X5657D01*
X5207Y77150D02*
Y78050D01*
X4757Y90300D02*
X5657D01*
X5207Y89850D02*
Y90750D01*
X53017Y77600D02*
X53917D01*
X53467Y77150D02*
Y78050D01*
X53017Y75060D02*
X53917D01*
X53467Y74610D02*
Y75510D01*
X53017Y72520D02*
X53917D01*
X53467Y72070D02*
Y72970D01*
X53017Y69980D02*
X53917D01*
X53467Y69530D02*
Y70430D01*
X53017Y67440D02*
X53917D01*
X53467Y66990D02*
Y67890D01*
X53017Y64900D02*
X53917D01*
X53467Y64450D02*
Y65350D01*
X53017Y62360D02*
X53917D01*
X53467Y61910D02*
Y62810D01*
X53017Y59820D02*
X53917D01*
X53467Y59370D02*
Y60270D01*
X53017Y99190D02*
X53917D01*
X53467Y98740D02*
Y99640D01*
X53017Y96650D02*
X53917D01*
X53467Y96200D02*
Y97100D01*
X53017Y94110D02*
X53917D01*
X53467Y93660D02*
Y94560D01*
X53017Y91570D02*
X53917D01*
X53467Y91120D02*
Y92020D01*
X53017Y89030D02*
X53917D01*
X53467Y88580D02*
Y89480D01*
X53017Y86490D02*
X53917D01*
X53467Y86040D02*
Y86940D01*
X53017Y83950D02*
X53917D01*
X53467Y83500D02*
Y84400D01*
X53017Y81410D02*
X53917D01*
X53467Y80960D02*
Y81860D01*
X4757Y49660D02*
X5657D01*
X5207Y49210D02*
Y50110D01*
X4757Y47120D02*
X5657D01*
X5207Y46670D02*
Y47570D01*
X4757Y44580D02*
X5657D01*
X5207Y44130D02*
Y45030D01*
X4757Y42040D02*
X5657D01*
X5207Y41590D02*
Y42490D01*
X4757Y39500D02*
X5657D01*
X5207Y39050D02*
Y39950D01*
X4757Y36960D02*
X5657D01*
X5207Y36510D02*
Y37410D01*
X4757Y34420D02*
X5657D01*
X5207Y33970D02*
Y34870D01*
X4757Y31880D02*
X5657D01*
X5207Y31430D02*
Y32330D01*
X4757Y72520D02*
X5657D01*
X5207Y72070D02*
Y72970D01*
X4757Y69980D02*
X5657D01*
X5207Y69530D02*
Y70430D01*
X4757Y67440D02*
X5657D01*
X5207Y66990D02*
Y67890D01*
X4757Y64900D02*
X5657D01*
X5207Y64450D02*
Y65350D01*
X4757Y62360D02*
X5657D01*
X5207Y61910D02*
Y62810D01*
X4757Y59820D02*
X5657D01*
X5207Y59370D02*
Y60270D01*
X4757Y57280D02*
X5657D01*
X5207Y56830D02*
Y57730D01*
X4757Y54740D02*
X5657D01*
X5207Y54290D02*
Y55190D01*
X9837Y26800D02*
X10737D01*
X10287Y26350D02*
Y27250D01*
X9837Y29340D02*
X10737D01*
X10287Y28890D02*
Y29790D01*
X12377Y26800D02*
X13277D01*
X12827Y26350D02*
Y27250D01*
X12377Y29340D02*
X13277D01*
X12827Y28890D02*
Y29790D01*
X14917Y26800D02*
X15817D01*
X15367Y26350D02*
Y27250D01*
X14917Y29340D02*
X15817D01*
X15367Y28890D02*
Y29790D01*
X17457Y26800D02*
X18357D01*
X17907Y26350D02*
Y27250D01*
X17457Y29340D02*
X18357D01*
X17907Y28890D02*
Y29790D01*
X19997Y26800D02*
X20897D01*
X20447Y26350D02*
Y27250D01*
X19997Y29340D02*
X20897D01*
X20447Y28890D02*
Y29790D01*
X22537Y26800D02*
X23437D01*
X22987Y26350D02*
Y27250D01*
X22537Y29340D02*
X23437D01*
X22987Y28890D02*
Y29790D01*
X25077Y26800D02*
X25977D01*
X25527Y26350D02*
Y27250D01*
X25077Y29340D02*
X25977D01*
X25527Y28890D02*
Y29790D01*
X32697Y26800D02*
X33597D01*
X33147Y26350D02*
Y27250D01*
X32697Y29340D02*
X33597D01*
X33147Y28890D02*
Y29790D01*
X35237Y26800D02*
X36137D01*
X35687Y26350D02*
Y27250D01*
X35237Y29340D02*
X36137D01*
X35687Y28890D02*
Y29790D01*
X53017Y26800D02*
X53917D01*
X53467Y26350D02*
Y27250D01*
X53017Y29340D02*
X53917D01*
X53467Y28890D02*
Y29790D01*
X73653Y30460D02*
X74653D01*
X74153Y29960D02*
Y30960D01*
X73653Y23960D02*
X74653D01*
X74153Y23460D02*
Y24460D01*
X69153Y30460D02*
X70153D01*
X69653Y29960D02*
Y30960D01*
X69153Y23960D02*
X70153D01*
X69653Y23460D02*
Y24460D01*
X65901Y65512D02*
X66901D01*
X66401Y65012D02*
Y66012D01*
X65901Y59012D02*
X66901D01*
X66401Y58512D02*
Y59512D01*
X61401Y65512D02*
X62401D01*
X61901Y65012D02*
Y66012D01*
X61401Y59012D02*
X62401D01*
X61901Y58512D02*
Y59512D01*
X72653Y65512D02*
X73653D01*
X73153Y65012D02*
Y66012D01*
X72653Y59012D02*
X73653D01*
X73153Y58512D02*
Y59512D01*
X68153Y65512D02*
X69153D01*
X68653Y65012D02*
Y66012D01*
X68153Y59012D02*
X69153D01*
X68653Y58512D02*
Y59512D01*
X79405Y65512D02*
X80405D01*
X79905Y65012D02*
Y66012D01*
X79405Y59012D02*
X80405D01*
X79905Y58512D02*
Y59512D01*
X74905Y65512D02*
X75905D01*
X75405Y65012D02*
Y66012D01*
X74905Y59012D02*
X75905D01*
X75405Y58512D02*
Y59512D01*
X89157Y65512D02*
X90157D01*
X89657Y65012D02*
Y66012D01*
X89157Y59012D02*
X90157D01*
X89657Y58512D02*
Y59512D01*
X84657Y65512D02*
X85657D01*
X85157Y65012D02*
Y66012D01*
X84657Y59012D02*
X85657D01*
X85157Y58512D02*
Y59512D01*
X65901Y53828D02*
X66901D01*
X66401Y53328D02*
Y54328D01*
X65901Y47328D02*
X66901D01*
X66401Y46828D02*
Y47828D01*
X61401Y53828D02*
X62401D01*
X61901Y53328D02*
Y54328D01*
X61401Y47328D02*
X62401D01*
X61901Y46828D02*
Y47828D01*
X72653Y53828D02*
X73653D01*
X73153Y53328D02*
Y54328D01*
X72653Y47328D02*
X73653D01*
X73153Y46828D02*
Y47828D01*
X68153Y53828D02*
X69153D01*
X68653Y53328D02*
Y54328D01*
X68153Y47328D02*
X69153D01*
X68653Y46828D02*
Y47828D01*
X79405Y53828D02*
X80405D01*
X79905Y53328D02*
Y54328D01*
X79405Y47328D02*
X80405D01*
X79905Y46828D02*
Y47828D01*
X74905Y53828D02*
X75905D01*
X75405Y53328D02*
Y54328D01*
X74905Y47328D02*
X75905D01*
X75405Y46828D02*
Y47828D01*
X89157Y53828D02*
X90157D01*
X89657Y53328D02*
Y54328D01*
X89157Y47328D02*
X90157D01*
X89657Y46828D02*
Y47828D01*
X84657Y53828D02*
X85657D01*
X85157Y53328D02*
Y54328D01*
X84657Y47328D02*
X85657D01*
X85157Y46828D02*
Y47828D01*
X65901Y42144D02*
X66901D01*
X66401Y41644D02*
Y42644D01*
X65901Y35644D02*
X66901D01*
X66401Y35144D02*
Y36144D01*
X61401Y42144D02*
X62401D01*
X61901Y41644D02*
Y42644D01*
X61401Y35644D02*
X62401D01*
X61901Y35144D02*
Y36144D01*
X72653Y42144D02*
X73653D01*
X73153Y41644D02*
Y42644D01*
X72653Y35644D02*
X73653D01*
X73153Y35144D02*
Y36144D01*
X68153Y42144D02*
X69153D01*
X68653Y41644D02*
Y42644D01*
X68153Y35644D02*
X69153D01*
X68653Y35144D02*
Y36144D01*
X79405Y42144D02*
X80405D01*
X79905Y41644D02*
Y42644D01*
X79405Y35644D02*
X80405D01*
X79905Y35144D02*
Y36144D01*
X74905Y42144D02*
X75905D01*
X75405Y41644D02*
Y42644D01*
X74905Y35644D02*
X75905D01*
X75405Y35144D02*
Y36144D01*
X89157Y42144D02*
X90157D01*
X89657Y41644D02*
Y42644D01*
X89157Y35644D02*
X90157D01*
X89657Y35144D02*
Y36144D01*
X84657Y42144D02*
X85657D01*
X85157Y41644D02*
Y42644D01*
X84657Y35644D02*
X85657D01*
X85157Y35144D02*
Y36144D01*
X65901Y30460D02*
X66901D01*
X66401Y29960D02*
Y30960D01*
X65901Y23960D02*
X66901D01*
X66401Y23460D02*
Y24460D01*
X61401Y30460D02*
X62401D01*
X61901Y29960D02*
Y30960D01*
X61401Y23960D02*
X62401D01*
X61901Y23460D02*
Y24460D01*
X81405Y30460D02*
X82405D01*
X81905Y29960D02*
Y30960D01*
X81405Y23960D02*
X82405D01*
X81905Y23460D02*
Y24460D01*
X76905Y30460D02*
X77905D01*
X77405Y29960D02*
Y30960D01*
X76905Y23960D02*
X77905D01*
X77405Y23460D02*
Y24460D01*
X89157Y30460D02*
X90157D01*
X89657Y29960D02*
Y30960D01*
X89157Y23960D02*
X90157D01*
X89657Y23460D02*
Y24460D01*
X84657Y30460D02*
X85657D01*
X85157Y29960D02*
Y30960D01*
X84657Y23960D02*
X85657D01*
X85157Y23460D02*
Y24460D01*
X88423Y13335D02*
X89123D01*
X88773Y12985D02*
Y13685D01*
X119472Y129950D02*
X120772D01*
X120122Y129300D02*
Y130600D01*
X114472Y129950D02*
X115772D01*
X115122Y129300D02*
Y130600D01*
X101472Y129950D02*
X102772D01*
X102122Y129300D02*
Y130600D01*
X96472Y129950D02*
X97772D01*
X97122Y129300D02*
Y130600D01*
X85200Y129985D02*
X86100D01*
X85650Y129535D02*
Y130435D01*
X82660Y129985D02*
X83560D01*
X83110Y129535D02*
Y130435D01*
X98280Y120550D02*
X99280D01*
X98780Y120050D02*
Y121050D01*
X95740Y120550D02*
X96740D01*
X96240Y120050D02*
Y121050D01*
X93200Y120550D02*
X94200D01*
X93700Y120050D02*
Y121050D01*
X90660Y120550D02*
X91660D01*
X91160Y120050D02*
Y121050D01*
X88120Y120550D02*
X89120D01*
X88620Y120050D02*
Y121050D01*
X85580Y120550D02*
X86580D01*
X86080Y120050D02*
Y121050D01*
X83040Y120550D02*
X84040D01*
X83540Y120050D02*
Y121050D01*
X80500Y120550D02*
X81500D01*
X81000Y120050D02*
Y121050D01*
X75420Y120550D02*
X76420D01*
X75920Y120050D02*
Y121050D01*
X72880Y120550D02*
X73880D01*
X73380Y120050D02*
Y121050D01*
X70340Y120550D02*
X71340D01*
X70840Y120050D02*
Y121050D01*
X67800Y120550D02*
X68800D01*
X68300Y120050D02*
Y121050D01*
X65260Y120550D02*
X66260D01*
X65760Y120050D02*
Y121050D01*
X62720Y120550D02*
X63720D01*
X63220Y120050D02*
Y121050D01*
X84564Y72290D02*
X85564D01*
X85064Y71790D02*
Y72790D01*
X87104Y72290D02*
X88104D01*
X87604Y71790D02*
Y72790D01*
X89644Y72290D02*
X90644D01*
X90144Y71790D02*
Y72790D01*
X92184Y72290D02*
X93184D01*
X92684Y71790D02*
Y72790D01*
X94724Y72290D02*
X95724D01*
X95224Y71790D02*
Y72790D01*
X97264Y72290D02*
X98264D01*
X97764Y71790D02*
Y72790D01*
X99804Y72290D02*
X100804D01*
X100304Y71790D02*
Y72790D01*
X102344Y72290D02*
X103344D01*
X102844Y71790D02*
Y72790D01*
X104884Y72290D02*
X105884D01*
X105384Y71790D02*
Y72790D01*
X107424Y72290D02*
X108424D01*
X107924Y71790D02*
Y72790D01*
X62720Y72290D02*
X63720D01*
X63220Y71790D02*
Y72790D01*
X65260Y72290D02*
X66260D01*
X65760Y71790D02*
Y72790D01*
X67800Y72290D02*
X68800D01*
X68300Y71790D02*
Y72790D01*
X70340Y72290D02*
X71340D01*
X70840Y71790D02*
Y72790D01*
X72880Y72290D02*
X73880D01*
X73380Y71790D02*
Y72790D01*
X75420Y72290D02*
X76420D01*
X75920Y71790D02*
Y72790D01*
X77960Y72290D02*
X78960D01*
X78460Y71790D02*
Y72790D01*
X80500Y72290D02*
X81500D01*
X81000Y71790D02*
Y72790D01*
X1500Y125500D02*
X4500D01*
X3000Y124000D02*
Y127000D01*
X133500Y125500D02*
X136500D01*
X135000Y124000D02*
Y127000D01*
X133500Y3000D02*
X136500D01*
X135000Y1500D02*
Y4500D01*
X1500Y3000D02*
X4500D01*
X3000Y1500D02*
Y4500D01*
X10226Y10795D02*
X12126D01*
X11176Y9845D02*
Y11745D01*
X120073Y66548D02*
X120973D01*
X120523Y66098D02*
Y66998D01*
X88423Y5715D02*
X89123D01*
X88773Y5365D02*
Y6065D01*
X14926Y13795D02*
X16826D01*
X15876Y12845D02*
Y14745D01*
X105580Y60849D02*
X106480D01*
X106030Y60399D02*
Y61299D01*
X117348Y31463D02*
X118110D01*
X117729Y31082D02*
Y31844D01*
X117348Y21463D02*
X118110D01*
X117729Y21082D02*
Y21844D01*
X117348Y23963D02*
X118110D01*
X117729Y23582D02*
Y24344D01*
X117348Y18963D02*
X118110D01*
X117729Y18582D02*
Y19344D01*
X10226Y16795D02*
X12126D01*
X11176Y15845D02*
Y17745D01*
X120073Y64008D02*
X120973D01*
X120523Y63558D02*
Y64458D01*
X117348Y28963D02*
X118110D01*
X117729Y28582D02*
Y29344D01*
X120073Y58928D02*
X120973D01*
X120523Y58478D02*
Y59378D01*
X120073Y61468D02*
X120973D01*
X120523Y61018D02*
Y61918D01*
X120073Y56388D02*
X120973D01*
X120523Y55938D02*
Y56838D01*
X120073Y53848D02*
X120973D01*
X120523Y53398D02*
Y54298D01*
X117348Y43963D02*
X118110D01*
X117729Y43582D02*
Y44344D01*
X117348Y41463D02*
X118110D01*
X117729Y41082D02*
Y41844D01*
X117348Y38963D02*
X118110D01*
X117729Y38582D02*
Y39344D01*
X117348Y36463D02*
X118110D01*
X117729Y36082D02*
Y36844D01*
X128850Y7747D02*
X130150D01*
X129500Y7097D02*
Y8397D01*
X123850Y7747D02*
X125150D01*
X124500Y7097D02*
Y8397D01*
X100500Y60849D02*
X101400D01*
X100950Y60399D02*
Y61299D01*
X103040Y60849D02*
X103940D01*
X103490Y60399D02*
Y61299D01*
X108120Y60849D02*
X109020D01*
X108570Y60399D02*
Y61299D01*
X71584Y12954D02*
X72434D01*
X72009Y12529D02*
Y13379D01*
X71584Y5334D02*
X72434D01*
X72009Y4909D02*
Y5759D01*
X75902Y5334D02*
X76752D01*
X76327Y4909D02*
Y5759D01*
X75902Y12954D02*
X76752D01*
X76327Y12529D02*
Y13379D01*
X67266Y5334D02*
X68116D01*
X67691Y4909D02*
Y5759D01*
X67266Y12954D02*
X68116D01*
X67691Y12529D02*
Y13379D01*
X107850Y7747D02*
X109150D01*
X108500Y7097D02*
Y8397D01*
X112850Y7747D02*
X114150D01*
X113500Y7097D02*
Y8397D01*
X60124Y9610D02*
X60836D01*
X60480Y9254D02*
Y9966D01*
X66827Y17780D02*
X67539D01*
X67183Y17424D02*
Y18136D01*
X91159Y20760D02*
X91871D01*
X91515Y20404D02*
Y21116D01*
X110989Y78165D02*
X111701D01*
X111345Y77809D02*
Y78521D01*
X60884Y5060D02*
X61596D01*
X61240Y4704D02*
Y5416D01*
X97942Y2159D02*
X98654D01*
X98298Y1803D02*
Y2515D01*
X97014Y13455D02*
X97726D01*
X97370Y13099D02*
Y13811D01*
X129774Y88435D02*
X130486D01*
X130130Y88079D02*
Y88791D01*
X132412Y49096D02*
X133123D01*
X132768Y48741D02*
Y49452D01*
X126259Y62970D02*
X126971D01*
X126615Y62614D02*
Y63326D01*
X109324Y68035D02*
X110036D01*
X109680Y67679D02*
Y68391D01*
X96418Y22098D02*
X97130D01*
X96774Y21742D02*
Y22454D01*
X105435Y64770D02*
X106147D01*
X105791Y64414D02*
Y65126D01*
X113309Y61849D02*
X114021D01*
X113665Y61493D02*
Y62205D01*
X16027Y103124D02*
X16739D01*
X16383Y102768D02*
Y103480D01*
X42189Y103124D02*
X42901D01*
X42545Y102768D02*
Y103480D01*
X28854Y33147D02*
X29566D01*
X29210Y32791D02*
Y33503D01*
X107201Y14720D02*
X107913D01*
X107557Y14364D02*
Y15076D01*
X34188Y34163D02*
X34900D01*
X34544Y33807D02*
Y34519D01*
X46761Y19812D02*
X47473D01*
X47117Y19456D02*
Y20168D01*
X22377Y19177D02*
X23089D01*
X22733Y18821D02*
Y19533D01*
%TF.MD5,2c3927de93679b781a012f8f71107d6a*%
M02*
